<?xml version="1.0" encoding="UTF-8"?><svg xmlns="http://www.w3.org/2000/svg" xmlns:xlink="http://www.w3.org/1999/xlink" height="1895.1" preserveAspectRatio="xMidYMid meet" version="1.0" viewBox="66.7 64.6 1878.0 1895.1" width="1878.0" zoomAndPan="magnify" fill="currentColor"><g><g id="change1_2"><path d="M1864.5,1874.69c5.71-165.38-7.87-336.74-100.27-479.13c-84.58-130.33-224.6-215.96-378.85-233.75 c-75.33-8.69-152.43,0.11-222.43,29.88c-60.28,25.63-117.16,66.94-150.75,124.22c-33.34,56.85-39.1,130.58-0.66,186.64 c39.25,57.23,112.31,79.6,178.91,79.29c72.09-0.34,141.09-28.58,195.05-75.98c58.95-51.79,93.98-122.68,114.11-197.55 c22.56-83.91,34.54-172.13,39.95-258.74c5.62-90.08,1.69-180.94-15.32-269.68c-28.6-149.12-96.36-289.96-198.73-402.5 c-106.43-116.99-246.84-196.32-395.33-247.36C861.98,106.58,791.34,87.54,719.92,77C660.64,68.25,600.6,64.62,540.7,64.71 c-131.09,0.21-267.74,16.26-389.02,68.57c-27.38,11.81-53.81,25.77-78.56,42.42c-6.38,4.29-0.38,14.69,6.06,10.36 C183.51,115.88,315.05,90.5,438.39,80.78c118.04-9.31,238.35-4.28,353.93,22.4c150.05,34.64,297.76,93.41,420.87,187.37 c118.31,90.3,208.73,214.31,260.72,353.61c58.57,156.91,66.15,327.21,45.43,492.15c-5.42,43.18-12.55,86.26-21.7,128.81 c-8.57,39.81-19.53,79.42-36.39,116.59c-29.65,65.36-77.79,121.35-141.55,155.33c-62.37,33.24-137.44,42.51-205.49,22.2 c-32.02-9.55-62.27-26.28-84.09-51.99c-22.58-26.6-33.88-61.25-33.53-95.96c0.65-64.03,39.18-120,87.45-159.08 c53.98-43.7,122.52-70.11,191.19-78.41c151.03-18.24,309.22,40,415.18,148.38c51.05,52.21,90.24,115.45,116.36,183.53 c29.83,77.76,42.44,160.85,45.91,243.75c1.75,41.72,1.27,83.49-0.17,125.21C1852.24,1882.41,1864.24,1882.4,1864.5,1874.69 L1864.5,1874.69z"/></g></g><g><g id="change1_1"><path d="M1759.51,1829.58c13.66,21.52,27.33,43.04,40.99,64.56c6.81,10.73,13.62,21.45,20.43,32.18 c5.51,8.67,10.76,17.99,19.02,24.37c8.31,6.42,19.46,8.99,29.54,5.32c9.38-3.42,16.38-10.7,21.68-18.95 c2.43-3.78,4.38-7.78,6.29-11.83c2.42-5.13,4.81-10.27,7.19-15.42c3.96-8.58,7.85-17.19,11.7-25.81 c7.65-17.13,15.28-34.26,23.23-51.25c1.28-2.74,2.57-5.48,3.86-8.22c1.34-2.83,0.88-6.61-2.15-8.21 c-2.67-1.41-6.78-0.88-8.21,2.15c-8.26,17.48-16.23,35.09-24.1,52.75c-3.55,7.97-7.12,15.95-10.74,23.89 c-4.37,9.6-8.65,19.29-13.38,28.72c-1.9,3.78-4.08,7.38-6.57,10.79c-0.21,0.29-0.7,0.86,0.32-0.41c-0.14,0.18-0.28,0.36-0.42,0.53 c-0.35,0.44-0.71,0.88-1.08,1.31c-0.69,0.81-1.42,1.6-2.17,2.36c-0.71,0.71-1.44,1.4-2.19,2.06c-0.37,0.32-0.81,0.61-1.15,0.96 c0.95-0.98,0.8-0.6,0.43-0.33c-0.27,0.19-0.53,0.39-0.8,0.58c-0.85,0.6-1.73,1.15-2.65,1.66c-0.43,0.24-0.87,0.47-1.31,0.68 c-0.2,0.1-0.4,0.18-0.59,0.28c-1.05,0.51,1.25-0.47,0.22-0.09c-0.93,0.35-1.87,0.67-2.83,0.93c-0.54,0.14-1.09,0.26-1.64,0.37 c-0.22,0.04-0.45,0.08-0.67,0.12c-1.25,0.21,1.51-0.14,0.23-0.04c-1.06,0.08-2.11,0.14-3.17,0.11c-0.55-0.02-1.1-0.05-1.65-0.1 c-0.74-0.07-0.75-0.43,0.27,0.06c-0.3-0.14-0.79-0.13-1.11-0.19c-1.08-0.21-2.14-0.49-3.18-0.85c-0.43-0.15-0.89-0.42-1.34-0.5 c1.27,0.22,0.85,0.37,0.3,0.11c-0.32-0.15-0.64-0.3-0.95-0.47c-0.94-0.48-1.84-1.02-2.72-1.61c-0.44-0.29-0.86-0.6-1.29-0.91 c-0.8-0.59,0.33,0.22,0.38,0.3c-0.19-0.26-0.56-0.46-0.81-0.67c-1.7-1.44-3.26-3.04-4.71-4.73c-0.34-0.4-0.68-0.81-1.01-1.21 c-0.28-0.34-1.34-1.81-0.25-0.3c-0.68-0.94-1.38-1.86-2.04-2.82c-1.33-1.92-2.57-3.89-3.82-5.85 c-6.68-10.52-13.35-21.03-20.03-31.55c-13.35-21.03-26.7-42.06-40.06-63.09c-1.65-2.59-3.29-5.19-4.94-7.78 c-1.68-2.65-5.42-3.95-8.21-2.15C1759.01,1823.08,1757.71,1826.74,1759.51,1829.58L1759.51,1829.58z"/></g></g></svg>