<?xml version="1.0" encoding="UTF-8"?><svg xmlns="http://www.w3.org/2000/svg" xmlns:xlink="http://www.w3.org/1999/xlink" height="1849.6" preserveAspectRatio="xMidYMid meet" version="1.0" viewBox="88.5 99.5 1728.0 1849.6" width="1728.0" zoomAndPan="magnify" fill="currentColor"><g><g id="change1_1"><path d="M139.64,1938.51c-43.57-147.55-12.59-305.94,67.53-435.32c42.81-69.13,98.87-129.96,163.37-179.39 c71.71-54.97,153.26-94.12,238.35-123.67c182.44-63.35,376.01-86.51,558.57-149.46c168.99-58.27,325.28-157.86,435.34-300.4 c56.08-72.62,98.43-155.54,121.7-244.44c24.33-92.95,27.6-191,8.93-285.28c-4.6-23.21-10.56-46.1-17.71-68.65 c-2.32-7.34-13.91-4.2-11.57,3.19c29.66,93.61,37.11,193.52,20.99,290.44c-15.64,93.99-52.6,183.41-106.14,262.11 c-101.44,149.14-255.92,257.37-423.5,320.22c-181.02,67.89-374.66,91.31-558.36,150.2c-86.16,27.62-170.19,63.4-244.83,115.09 c-66.46,46.03-125.18,103.03-172.15,168.89c-87.44,122.62-131.64,276.91-104.7,426.66c3.22,17.89,7.47,35.56,12.62,52.99 C130.25,1949.09,141.84,1945.95,139.64,1938.51L139.64,1938.51z"/></g></g><g><g id="change1_2"><path d="M1814.48,220.59c-15.51-20.34-31.02-40.67-46.52-61.01c-7.75-10.17-15.51-20.34-23.26-30.51 c-6.45-8.46-12.62-17.59-21.85-23.28c-9.31-5.74-20.81-6.31-30.6-1.44c-8.13,4.05-14.12,11.79-18.25,19.67 c-2.22,4.24-3.97,8.7-5.63,13.18c-2,5.41-3.98,10.82-5.94,16.24c-3.19,8.85-6.32,17.72-9.41,26.6 c-6.19,17.83-12.36,35.66-18.86,53.37c-1.04,2.84-2.09,5.68-3.15,8.52c-1.09,2.95,1.22,6.7,4.19,7.38 c3.4,0.77,6.21-1.03,7.38-4.19c6.75-18.18,13.2-36.46,19.54-54.78c2.86-8.26,5.73-16.51,8.66-24.74 c3.54-9.96,6.96-20.01,10.9-29.81c0.16-0.39,0.32-0.77,0.48-1.16c-0.76,1.94-0.03,0.09,0.15-0.32c0.42-0.93,0.85-1.86,1.3-2.78 c0.9-1.81,1.87-3.59,2.94-5.31c0.52-0.84,1.06-1.67,1.63-2.48c0.31-0.45,0.64-0.89,0.97-1.33c0.24-0.33,0.7-0.68-0.34,0.44 c0.22-0.23,0.41-0.52,0.62-0.76c1.3-1.58,2.73-3.07,4.28-4.41c0.32-0.28,0.68-0.52,0.99-0.82c-1.36,1.32-0.11,0.09,0.32-0.2 c0.87-0.61,1.78-1.16,2.72-1.66c0.38-0.2,0.76-0.39,1.15-0.57c1.48-0.69-1.19,0.43,0.35-0.14c0.97-0.36,1.96-0.66,2.97-0.9 c0.49-0.11,0.98-0.2,1.48-0.3c0.98-0.18-0.51,0.07-0.59,0.07c0.28,0,0.57-0.07,0.86-0.09c1.15-0.1,2.31-0.13,3.47-0.08 c0.58,0.03,1.34,0.23,1.91,0.16c-0.12,0.01-1.5-0.25-0.48-0.05c0.24,0.05,0.49,0.09,0.73,0.14c1.19,0.24,2.37,0.58,3.51,1 c0.23,0.08,0.45,0.17,0.67,0.26c1.17,0.43-1.03-0.48-0.28-0.11c0.48,0.24,0.97,0.46,1.45,0.7c1.06,0.55,2.08,1.17,3.06,1.84 c0.4,0.27,0.78,0.55,1.17,0.83c1.02,0.72-0.86-0.7-0.22-0.18c0.23,0.19,0.47,0.37,0.7,0.56c0.88,0.73,1.72,1.49,2.54,2.28 c1.59,1.53,3.08,3.16,4.5,4.84c0.68,0.8,1.34,1.62,1.99,2.44c0.18,0.23,0.35,0.45,0.53,0.68c0.51,0.64-0.93-1.23-0.21-0.27 c0.47,0.62,0.94,1.24,1.41,1.85c7.55,9.9,15.1,19.81,22.66,29.71c15.16,19.88,30.31,39.75,45.47,59.63 c1.86,2.44,3.73,4.89,5.59,7.33c0.99,1.3,1.95,2.31,3.59,2.76c1.44,0.4,3.35,0.22,4.62-0.6 C1814.79,227.21,1816.52,223.26,1814.48,220.59L1814.48,220.59z"/></g></g></svg>