<?xml version="1.0" encoding="UTF-8"?><!DOCTYPE svg PUBLIC "-//W3C//DTD SVG 1.0//EN" "http://www.w3.org/TR/2001/REC-SVG-20010904/DTD/svg10.dtd" []><svg xmlns="http://www.w3.org/2000/svg" xmlns:xlink="http://www.w3.org/1999/xlink" height="414" preserveAspectRatio="xMidYMid meet" version="1.0" viewBox="111.7 68.8 327.7 414.2" width="328" zoomAndPan="magnify" fill="currentColor"><g id="change1_2"><path d="M439.06,379.77c-0.64-3.24-1.97-6.31-3.3-9.32c-2.77-5.22-6.6-9.79-9.66-14.84c-4.64-7.05-7.49-15.13-12.47-21.98 c-1.74-2.64-4.17-4.71-6.18-7.13c-2.92-3.37-4.46-9.99-6.53-15.82c-3.32-9.68-8.22-18.68-12.54-27.93 c-2.43-4.96-5.54-9.55-8.04-14.48c-2.87-5.3-5.87-10.52-8.84-15.76c-1.9-3.83-4.25-7.37-6.68-10.87c-2.75-4.51-5.8-8.84-8.27-13.51 c-1.49-3.08-2.59-6.37-4.37-10.26c-2.95-7.17-6.84-13.89-11-20.43c0.23-0.45,0.23-0.99-0.03-1.45c0.04,0.08,0.15,0.36,0.14,0.33 c-0.11-0.33-0.26-0.63-0.45-0.92c-0.31-1.3-0.54-1.19-0.93-2.51c-0.99-2.79-1.96-5.61-2.39-8.56c-0.21-2.98-0.11-8.97,0.53-12.38 c0.22-2.86,1.83-5.61,4.82-8.5c0.31-0.31,0.44-0.67,0.44-1.01c0.08-0.05,0.16-0.11,0.23-0.16c1.15-0.73,2.23-1.58,3.36-2.33 c4.34-3.01,8.83-5.79,13.66-7.95c2.12-1.01,4.26-1.98,6.35-3.04c1.11-0.5,2.28-1.07,2.95-2.14c0.5-0.86,0.48-1.99,0.03-2.87 c-0.71-0.95-1.86-1.45-2.85-2.08c-2.17-1.25-4.4-2.4-6.66-3.49c-1.9-1-3.79-2.04-5.6-3.2c-1.52-0.93-2.98-2.2-4.81-2.4 c-2.22-0.2-4.22,0.83-6.26,1.56c0.19-0.24,0.31-0.55,0.32-0.92c-0.01-0.96-0.92-1.49-1.52-2.11c-6.42-5.44-11.52-9.64-18.15-14.23 c-3.31-2.33-5.12-4.09-8.72-6.57c-1.73-1.14-3.5-2.24-5.39-3.12c0.27-0.21,0.49-0.47,0.59-0.83c0.16-0.51-0.01-0.99-0.32-1.35 c0.32-0.24,0.54-0.63,0.55-1.17c0.05-3.63,4.77-9.87,6.89-15.23c1.63-3.78,2.91-8.18,1.1-12.13c-1.64-3.47-5.47-5.49-9.07-6.36 c-6.3-1.47-12.67,3.29-15.36,8.7c-0.3,1.57,2.02,2.35,2.77,0.96c3.24-4.89,7.76-8.29,13.2-6.39c1.36,0.41,3.24,1.56,4.12,2.28 c1.09,1.08,1.05,0.92,1.64,2.12c1.91,5.26-1.55,10.45-4.52,16.39c-1.66,2.99-3.56,6-3.77,9.5c-0.05,0.48,0.09,0.85,0.33,1.12 c-6.27,3.83-12.07,8.45-17.85,12.99c-4.15,3.47-7.42,7.79-10.94,11.86c-3.17,4.22-8.09,7.17-10.69,11.77 c-2.18-0.73-4.4-1.29-6.71-1.43c-0.79,0.03-1.71-0.19-2.32,0.44c-0.21,0.2-0.33,0.45-0.39,0.71c-2.72,1.4-5.15,3.27-7.47,5.24 c-2.37,2.07-4.48,4.73-4.57,8.01c-0.6,4.46,4.89,5.53,8.13,6.58c6.64,1.55,11.34,3.06,16.81,6.62c1.36,0.67,2.65,1.46,3.97,2.2 c0.02,0.05,0.04,0.11,0.07,0.16c0.02,0.07,0.05,0.14,0.06,0.22c0.28,2.03,0.02,5.57-0.84,8.7c-0.71,3.04-2.69,8.95-2.48,10.59 c-0.01,0.06-0.03,0.11-0.05,0.17c-0.22,0.5-0.37,1.03-0.39,1.59c0,0.01,0,0.01,0,0.02c-0.08,0.17-0.37,1.07-0.49,1.32 c-0.38,0.85-0.15,0.39-0.7,1.57c-0.27,0.5-0.58,1.04-0.39,1.62c0.04,0.17,0.11,0.31,0.2,0.44c-2.72,3.66-5.53,7.28-7.8,11.24 c-1.75,3.14-2.96,6.54-4.5,9.78c-2.45,5.45-3.44,11.39-5.39,17.02c-4.69,14-9.36,26.93-15.36,39.59 c-4.95,9.9-10.63,19.41-16.75,28.63c-1.57,2.69-3.09,5.42-4.62,8.15c0.88-4.01,1.66-8.03,2.14-12.11c0.71-6.02,2.23-14.09,2.7-21.37 c0.55-7.21,0.24-14.55-0.7-21.71c0.35-0.02,0.7-0.15,0.97-0.38c0.87-0.21,2.95-0.5,2.18-0.39c2.63-0.35,4.41-0.57,7.66-0.93 c2.74-0.15,5.51-0.94,7.73-2.6c0.65-0.62,0.74-1.55,0.77-2.41c0.05-1.75,0.03-3.5,0.03-5.25v-5.16c0-0.43-0.2-0.88-0.54-1.15 c0.03-0.91,0.03-1.83,0.17-2.71c0.26-4.06,0.73-8.1,1.07-12.15c0.27-6.24,0.95-8.75,1.49-14.66c0.2-7.33-0.35-14.69-1.52-21.92 c-0.72-5.83-1.9-14.64-3.86-21.61c-0.78-3.48-1.4-7-2.45-10.41c-0.78-2.46-1.86-4.82-2.71-7.26c-1.47-4.01-3.36-7.95-6.11-11.25 c-1.25-1.57-2.63-3.02-4.14-4.33c0.1-0.47,0-0.97-0.39-1.34c-0.24-0.22-0.53-0.37-0.85-0.42c-0.05-0.02-0.16-0.05-0.29-0.1 c-0.01-0.01-0.02-0.01-0.03-0.02c-1.1-0.53-2.32-0.75-3.53-0.87c-2.56-0.43-8.52-1.68-13-2.28c-0.01-0.35-0.09-0.73-0.29-1.12 c-0.73-1.58-1.94-2.86-3.17-4.07c-0.66-0.55-1.28-1.43-2.21-1.45c-0.3-0.01-0.58,0.09-0.81,0.25c-0.15-0.14-0.32-0.24-0.5-0.32 c-0.3-0.32-0.63-0.63-0.9-0.94c-3.07-2.91-5.56-6.38-8.65-9.28c-0.06-0.05-0.12-0.11-0.18-0.16c0.02-0.04,0.06-0.08,0.08-0.13 c0.37-0.75-0.02-1.48-0.63-1.84c0.31-0.59,0.3-1.46,0.3-2.33c0.06-3.08,0.83-4.51,2.55-7.88c1.18-2.38,2.92-4.53,3.67-7.1 c0.38-1.83,0.08-3.71-0.35-5.5c-1.57-5.72-6.54-11.95-13.03-11.31c-3.97,0.63-7.78,2.59-10.59,5.47c-0.57,0.81-1.65,1.44-1.7,2.51 c-0.04,1.29,1.67,2,2.56,1.06c2.21-2.81,4.69-4.39,7.14-5.24c2.87-1.02,3.27-1.11,5.6-0.52c3.61,1.2,7.23,6.68,7.49,10.75 c0.62,3.17-2.56,6.02-4.42,10.47c-1.3,2.36-1.87,4.96-1.96,7.62c-0.48,0.64-0.48,1.68,0.22,2.3c-0.5,0.25-0.82,0.78-0.84,1.33 c-1.84,1.75-3.52,3.67-5.24,5.53c-1.67,1.82-3.69,4.08-4.86,5.59c-0.33-0.16-0.69-0.25-1.07-0.12c-0.67,0.16-1.04,0.77-1.07,1.39 c-3.23,1.03-11.19,3.49-10.77,6.65c-4.78-0.01-9.43,1.52-13.92,3.09c-1.38,0.48-2.78,0.94-4.15,1.44c-0.36,0.1-0.67,0.35-0.87,0.67 c-0.07,0.05-0.14,0.11-0.2,0.18c-7.5,5.93-9.62,15.71-12.74,24.26c-1.37,4.63-3.32,9.06-4.61,13.71 c-2.39,9.09-4.34,20.57-5.28,28.49c-1.35,7.79-1.78,12.69-2.85,19.43c-0.41,2.79-0.96,5.56-1.25,8.36 c-0.22,2.58-0.28,5.18-0.65,7.74c-0.23,1.75-0.84,5.49-1.27,8.97c-0.12,1.22-0.18,2.44-0.21,3.67c-0.09,0.74,0.07,1.62,0.81,1.94 c-0.1,0.1-0.2,0.2-0.27,0.33c-0.91,1.85,1.43,2.55,2.82,3.14c0.12,0.06,0.45,0.21,0.62,0.27c1.8,0.74,3.66,1.35,5.53,1.91 c1.57,0.35,3.32,1.18,4.89,0.47c1.78-1.56,2.69-3.96,3.96-5.94c2.41-4.23,4.64-8.57,6.62-13.01c1.67-4.48,3.17-9.03,4.68-13.58 c1.35-4.03,3.19-7.26,4.83-11.91c1.56-5.02,3.11-10.04,4.72-15.05c0.45-1.42,0.84-2.85,1.2-4.29c-0.06,1.95-0.21,3.89-0.31,5.84 c-0.18,1.19-0.07,1.95,0.29,2.42c-0.23,0.18-0.41,0.41-0.49,0.75c-2.53,10.48-4.78,22.3-6.03,31.71c-0.68,4-1.71,7.93-2.28,11.94 c-0.74,5.54-1.03,11.13-1.43,16.7c-0.49,11.23-0.17,22.46,1.11,33.63c1.14,18.37,3.46,33.55,7.11,52.14 c0.76,3.6,1.31,7.25,2.01,10.86c0.2,0.67,0.25,1.62,0.42,2.45c0.69,7.84,1.79,14.54,3.46,22.76c1.06,5.09,1.98,10.3,3.78,15.18 c0.32,1.33,0.72,2.65,1.22,3.92c-0.57,0.78-0.24,2.09,0.8,2.34c0.08,0.01,0.16,0.03,0.25,0.04c0.2,0.34,0.47,0.61,0.89,0.72 c0.53,0.16,1.03-0.02,1.38-0.36c1.55,0.23,3.11,0.39,4.67,0.4c0.24,1.21,0.54,2.42,0.92,3.62c1.04,4.85,3.63,6.35,8.38,6.78 c6.6,0.83,16.45-0.83,21.39-1.92c0.04,0,0.07,0,0.1,0c0.24,0.23,0.13,0.05,0.55,0.91c0.27,0.6,1.7,5.3,2.4,7.31 c1.54,5.04,6.05,5.31,10.53,4.39c9.64-1.97,18.91-5.08,27.83-5.14c3.74-0.03,7.5-0.26,11.23,0.08c0.44,0.02,5.66,1.3,7.56,1.97 c7.6,2.55,15.01,7.05,24.15,6.6c3.77-0.18,7.49-1.04,11.1-2.13c3.61-1.36,7.24-2.7,11.01-3.54c4.28-1.1,9.03-2.08,12.31-2.41 c5.36-0.32,12.69-0.45,16.62,0.07c8.21,1.04,15.54,6.18,24,5.64c7.43-0.66,12.99-6.26,18.52-10.71c3.45-3.24,7.14-6.41,9.94-10.24 c0.12-0.24,0.15-0.51,0.11-0.76c0.11-0.05,0.23-0.09,0.31-0.14c5.63-1.9,9.7-1.95,15.68-2.38c8.46-0.26,17.07-0.65,25-3.92 c6.4-2.13,8.78-5.95,9.9-12.41C439.31,384.64,439.41,382.18,439.06,379.77z M272.07,142.21c0.07-0.09,0.13-0.18,0.2-0.26 c0.03-0.04,0.07-0.09,0.13-0.16c2.33-2.97,5.37-5.26,7.87-8.07c3.75-4.2,7.07-8.79,11.27-12.57c4.42-3.82,10.1-7.99,15.76-11.88 c0.06,0.05,0.11,0.11,0.19,0.15c5.85,2.48,9.17,5.64,13.92,9.19c7.47,5.31,12.48,9.09,19.83,15.61c0.28,0.41,0.7,0.61,1.12,0.65 c-2.54,1.07-4.88,2.53-7.29,3.86c-1.1,0.6-3.23,1.26-5.32,2.11c-3.03,1.14-6.14,2.09-9.07,3.5c-4.2,2.04-9.73,5.11-12.91,6.22 c-2.18,0.75-3.41,0.53-6.25,0.56c-2.33,0.02-6.05-0.1-7.05-0.32c-2.18-0.34-4.23-1.23-6.32-1.91c-4.01-1.37-8.01-2.79-11.92-4.46 c-1.48-0.57-2.97-1.19-4.46-1.78C271.86,142.5,271.96,142.35,272.07,142.21z M237.39,249.25c-0.09,0.05-0.18,0.1-0.25,0.12 c-2.3,1.3-3.51,1.36-6.36,1.65c-3.6,0.42-5.73,0.64-8.68,1.14c-0.19-0.55-0.38-1.11-0.55-1.69c4.56-1,9.25-1.38,13.67-2.96 c0.56-0.21,1.34-0.16,2.24-0.25C237.44,247.91,237.43,248.58,237.39,249.25z M209.68,130.1c0-0.03-0.01-0.05-0.01-0.08 c3.11,0.56,6.07,1.12,7.94,1.4c0.29,0.08,0.58,0.17,0.87,0.24c0.05,0.28,0.18,0.55,0.41,0.77c5.76,4.69,8.64,10.04,10.84,16.4 c2.65,5.9,3.75,12.25,5.17,18.52c1.76,6.35,2.29,11.55,3.06,17.41c1.25,7.48,2.25,18.45,1.49,25.4c-0.93,5.42-1.16,11.49-1.8,17.92 c-0.32,2.82-0.47,5.65-0.71,8.48c0.07,1.23-0.56,2.73,0.3,3.75c0.07,0.07,0.14,0.12,0.22,0.18v2.16c-0.01,0.51-0.01,1.03,0,1.55 c-1.12,0.16-2.23,0.09-3.95,0.69c-4.14,1.41-8.51,1.73-12.76,2.67c-1.59-6.48-2.47-14.27-3.67-21.02 c-1.46-10.54-3.8-22.81-4.75-31.13c-1.69-10.64-0.84-21.44-2.07-32.12c-0.25-1.45-0.26-3.55-0.71-4.95 c0.75-8.92,1.17-17.86,1.4-26.8C210.95,130.68,210.35,130.19,209.68,130.1z M207.82,196.87c0-0.08,0-0.16,0-0.25 c0.02-0.06,0.02-0.14,0-0.23c0.06-3.88,0-7.75-0.13-11.62c0.11-1.85,0.25-3.7,0.39-5.55c0.11,3.52,0.25,7.05,0.55,10.47 c0.54,5.21,1.24,10.22,2.02,15.23c-0.97-1.71-1.95-3.42-2.87-5.16c-0.24-0.36-0.42-0.8-0.62-1.22 C207.71,198.19,207.97,197.48,207.82,196.87z M205.65,129.32c-0.02,0.1-0.04,0.21-0.04,0.32c0,2.24,0,4.48,0,6.71 c0,1.09-0.01,2.19-0.02,3.28c-0.39,3.69-1.04,7.23-1.42,11.11c-0.06,0.6-0.1,1.2-0.15,1.8c-0.28,1.36-0.49,2.73-0.55,4.13 c-0.17,2.18-0.15,4.36-0.05,6.54c-0.11,3.61-0.15,7.23-0.16,10.85c-0.22,2.63-0.42,5.26-0.57,7.89c-0.22,3.39-0.64,6.77-0.83,10.17 c-0.4,0.05-0.81,0.09-1.22,0.14c-0.17-0.41-0.52-0.75-0.97-0.87c-0.78-0.16-1.56,0.21-2.34,0.29c-2.32,0.5-5.81,0.45-9.22,0.44 c-1.12,0-2.24,0-3.36,0c0.77-9.34,0.87-18.54,0.84-27.86c0.1,0.04,0.2,0.09,0.3,0.12c0.23,1.05,0.89,1.99,2.01,2.4 c0.48,0.19,1.16,0.22,1.89,0.14c0.44,1.49,1.79,2.68,3.24,3.18c0.7,0.16,1.43,0.12,2.12-0.07c0.16,0.08,0.33,0.14,0.52,0.19 c4.42,1.21,7.71-3.42,3.99-6.69c-0.01-0.01-0.02-0.02-0.03-0.03c1.14-2.12,1.26-4.65-0.79-5.78c0.07-0.18,0.13-0.33,0.14-0.41 c0.38-1.36-0.3-2.92-1.69-3.34c-2.26-0.66-4.41,0.89-6.02,2.32c-0.62,0.67-1.67,1.18-1.67,2.2c-0.04,1.29,1.68,2,2.56,1.06 c1.66-1.66,3.02-2.57,3.82-2.72c-0.39,0.79-0.95,1.6-0.44,2.46c0.36,0.68,1.12,0.81,1.79,1.01c0.02,0.01,0.04,0.03,0.07,0.04 c0.02,0.02,0.04,0.04,0.06,0.06c0,0.01,0.01,0.02,0.01,0.03c0,0.43,0.06,0.21-0.21,1.07c-0.18,0.33-0.7,1.31-0.8,1.58 c-0.22,0.64-0.09,1.4,0.39,1.89c0.37,0.42,0.82,0.78,1.19,1.2c0.03,0.05,0.07,0.1,0.1,0.15c0.03,0.05,0.06,0.11,0.08,0.16 c0.02,0.06,0.04,0.13,0.05,0.19c0,0.03,0,0.06,0,0.09c-0.01,0.03-0.02,0.06-0.02,0.09c-0.03,0.06-0.06,0.11-0.1,0.16 c-0.23,0.17-0.28,0.26-0.48,0.31c-0.09-1.06-1.04-1.95-2.37-1.62c-0.88,0.27-1.38,0.82-1.58,1.44c-0.04-0.02-0.09-0.04-0.13-0.06 c-0.78-0.57-1.01-0.88-0.94-1.25c0.82-0.65,1.13-1.54,0.17-2.58c-0.82-0.57-1.62-0.3-2.22,0.32c-0.7,0.35-0.67,0.37-1.68,0.36 c-0.04-0.07-0.08-0.13-0.11-0.2c0,0,0,0,0,0c0.59-0.41,1.09-0.97,1.38-1.63c0.71-1.75-1.13-2.76-2.47-2.03 c0.2-0.28,0.44-0.59,0.76-0.91c0.48-0.53,1.2-1.01,1.17-1.81c0.02-0.8-0.7-1.51-1.5-1.5c-0.92,0-1.43,0.86-2.02,1.44 c-0.19,0.21-0.37,0.43-0.56,0.66c0-2.7,0-5.39,0-8.09c0.39,0.25,0.79,0.47,1.22,0.64c1.48,0.25,3.26,0.03,4.2-1.25 c2.4-2.32,4.05-12.5-1.64-10.65c-1.8,0.53-3.33,1.67-4.86,2.73c-0.58,0.38-1.15,0.77-1.72,1.16c-1.24-1.03-2.53-2-3.86-2.9 c0.36-0.33,0.71-0.69,1.03-0.97c1.9-1.69,3.77-3.39,5.52-5.22c0.07-0.03,0.14-0.05,0.2-0.08c0.07-0.04,0.15-0.07,0.22-0.11 c1.31,0.82,2.62,1.64,3.97,2.39c2.26,1.13,5.02,2.16,5.37-0.01c0.49-0.83,2.87-3.04,4.43-4.53c0.63-0.77,1.66-1.51,2.53-2.31 C203.27,128.93,204.44,129.12,205.65,129.32z M181.75,192.13c-0.73,0-1.46,0-2.18,0c0.53-10.42,1.15-20.84,1.88-31.25 c0.24-4.33,0.56-7.64,1.13-11.22C182.53,163.83,182.91,178.01,181.75,192.13z M200.67,126.01c-0.28,0.29-0.58,0.55-0.88,0.83 c-1.69,1.54-3.32,3.14-4.97,4.73c-0.63,0.68-1.37,1.34-1.91,2.11c-1.26-0.4-2.2-0.99-3.9-2.04c-0.62-0.29-1.2-0.8-1.83-1.16 c0.61-0.64,1.17-1.39,1.81-1.91c2.6-2.68,4.14-3.56,7.07-5.78c0.3-0.29,0.67-0.56,0.99-0.86c0.3,0.3,0.66,0.54,0.94,0.84 C199.46,124.26,199.96,124.66,200.67,126.01z M180.8,115.35c1.35-1.48,2.7-2.96,4.12-4.36c2.45,2.46,4.72,5.07,7.04,7.65 c0.63,0.71,1.3,1.37,1.99,2.02c-1.01,0.8-1.98,1.38-3.5,2.58c-1.98,1.54-3.73,3.36-5.46,5.17c-0.02,0.02-0.05,0.05-0.07,0.07 c-2.55-1.97-4.68-3.56-7.69-5.88c-0.56-0.41-1.12-0.82-1.68-1.23C176.93,119.56,178.82,117.49,180.8,115.35z M167.41,125.29 c1.63-0.63,3.3-1.15,4.96-1.67c0.24-0.07,0.45-0.21,0.62-0.38c3.29,2.29,6.7,5.08,8.69,6.52c0.5,0.39,0.99,0.79,1.52,1.14 c0.04,0.03,0.05,0.04,0.06,0.05c0.07,0.07,0.15,0.14,0.23,0.2c0,0,0,0,0,0c-1.36,1.34-2.68,2.72-4.13,3.97 c-0.86,0.74-1.68,1.53-2.52,2.29c-1.91-1.5-5.54-4.93-8.18-6.93c-1.34-0.93-3.88-2.39-5.08-3.19 C164.73,126.52,166.72,125.51,167.41,125.29z M176.74,141.78C176.74,141.78,176.74,141.79,176.74,141.78 c-0.38-0.23-0.84-0.31-1.27-0.21c0.02-0.2,0.04-0.4,0.06-0.57C175.92,141.24,176.32,141.51,176.74,141.78z M159.19,180.31 c0.95-11.55,1.39-23.13,2.21-34.69c0.29-4.74,0.69-9.93,1.12-13.49c-0.1-1.36-1.91-1.65-2.65-0.72c-0.04-0.05-0.08-0.11-0.12-0.16 c-0.04-0.22-0.11-0.44-0.26-0.62c0.84-0.01,1.73,0.01,2.72,0.08c0.32,0,0.58-0.09,0.8-0.22c1.24,0.78,2.51,1.51,3.74,2.31 c1.57,1.08,3.91,3.31,6.28,5.33c-0.07,0.17-0.14,0.37-0.19,0.6c-0.45,3.1-0.76,6.24-0.74,9.38c0.22,5.01,3.86,2.84,6.49,1.01 c0.4-0.27,0.8-0.56,1.2-0.84c-1.33,8.27-1.58,16.67-2.16,25.02c-0.25,6.26-0.92,12.57-1.07,18.83c-4.14,0-8.28,0-12.43,0 c-1.24,0-2.48,0.01-3.71,0.02c0.08-1.05,0.13-2.1,0.15-3.16c0.03-1.51,0.01-3.03,0-4.54c0.04-0.82-0.05-1.85-0.95-2.17 c-0.23-0.12-0.49-0.14-0.74-0.11C159.22,181.63,159.13,180.94,159.19,180.31z M176.54,195.13c0,0.02,0,0.04,0,0.06 c-2.85,0.05-5.93,0.08-8.86,0.15c0.04-0.07,0.07-0.14,0.09-0.22C170.69,195.12,173.61,195.13,176.54,195.13z M124.99,252.97 c-0.21-0.05-0.51-0.17-1.16-0.28c-3.02-0.8-5.69-1.73-7.68-2.61c0.83,0.42-1.1-0.5-1.43-0.73c-0.03-0.02-0.06-0.03-0.09-0.04 c0.23-0.22,0.4-0.5,0.46-0.81c2.75,0.51,4.91,1.57,6.81,2.3c1.24,0.46,2.53,0.87,3.86,0.99c0,0,0,0,0,0 C125.5,252.18,125.25,252.58,124.99,252.97z M149.61,191.22c-1.75,6.35-3.95,12.56-5.79,18.89c-1.34,3.82-2.5,5.95-4.13,9.97 c-1.05,2.67-1.79,5.44-2.77,8.13c-1.33,3.49-2.14,6.72-3.43,9.23c-2.02,4.12-4.07,8.24-6.41,12.19c-0.12-0.25-0.29-0.48-0.58-0.64 c-0.31-0.19-0.66-0.2-1.01-0.23c-0.74-0.21-1.49-0.39-2.21-0.63c-1.41-0.52-3.81-1.67-6.28-2.3c-0.57-0.08-1.18-0.29-1.78-0.37 c0.02-0.31,0.03-0.62,0.06-0.93c0.25-2.58,0.82-5.76,1.06-7.75c0.56-2.95,0.82-9.28,1.05-10.73c1.64-9.68,2.2-15.55,3.68-24.74 c1.75-11.89,3.35-24.79,7.98-37.04c2.87-7.67,4.76-15.7,8.21-22.04c1.39-2.32,2.11-3.59,3.62-5.09c0.69-0.82,1.72-1.36,2.35-2.21 c0.57-0.18,1.14-0.48,1.71-0.61c2.13-0.74,4.27-1.43,6.4-2.15c1.29-0.4,2.4-0.7,3.46-0.94c-0.01,0.29-0.02,0.59-0.06,0.86 c-0.12,1.43-0.31,2.85-0.33,4.28c-0.08,3.15-0.59,6.26-0.74,9.4c-0.17,5.35-0.41,10.71-0.57,16.08c-0.07,1.14-0.13,2.28-0.15,3.43 c0.01,0.49-0.01,2.02-0.01,4.06c-0.02,1.54-0.02,3.09-0.01,4.63c-0.06,0.11-0.11,0.23-0.15,0.36 C151.81,179.96,151,185.65,149.61,191.22z M169.58,392.26c-0.78,3.36-0.98,6.74-0.65,10.09c-1.92-0.05-2.98-0.22-4.45-0.44 c-0.29-0.69-0.56-1.42-0.81-2.21c0.06-0.61-0.28-1.24-0.46-1.83c-0.08-0.22-0.15-0.45-0.23-0.67c-0.05-0.2-0.1-0.39-0.14-0.6 c-0.4-1.4-0.31-3.01-0.96-4.29c-0.14-0.2-0.31-0.34-0.49-0.43c-1.94-7.36-3.26-15.74-4.25-21.28c-0.52-3.41-0.8-6.28-1.16-9.64 c0.09-0.48-0.01-1.04-0.15-1.56c-0.01-0.05-0.02-0.1-0.03-0.14c-0.07-0.63-0.14-1.28-0.21-1.96c-0.06-0.16-0.14-0.29-0.23-0.4 c-0.06-0.3-0.11-0.6-0.17-0.89c-0.68-3.67-1.28-7.36-2.06-11.01c-3.53-18.39-5.63-32.09-6.74-50.04c-0.67-7.27-1.49-14.54-1.3-21.84 c0.02-11.08,0.43-22.94,2.4-32.66c2.06-9.14,2.46-16.47,4.5-25.51c0.86-4.63,2.21-9.21,2.94-13.83c-0.01-0.07-0.04-0.12-0.05-0.18 c0.35,0.01,0.73,0,1.13-0.01c2.88-0.14,5.76-0.26,8.65-0.29c9.96,0.03,19.9-0.09,29.85-0.41c3.27,0.01,6.61,0.11,9.79-0.68 c1.02,1.98,2.09,3.93,3.2,5.86c0.51,0.74,0.75,1.86,1.71,2.13c0.74,0.23,1.44-0.21,1.74-0.84c1.06,6.72,2.22,13.48,3.25,20.74 c1.05,5.98,1.77,12.01,3.03,17.95c0.25,1.98,1.55,6.84,1.89,7.21c0.13,0.26,0.21,0.55,0.28,0.84c-0.7,0.1-1.34,0.62-1.31,1.45 c1.74,12.45,0.94,25.62-1,36.81c-1.2,8.97-2.44,17.12-4.88,26.5c-0.04,0.38-0.13,0.79-0.24,1.2c-0.73,1.18-1.47,2.36-2.24,3.52 c-2.01,3.2-4.31,6.19-6.51,9.25c-2.13,3.29-4.06,6.7-6.29,9.93c-3.63,4.82-7.51,10.14-10.98,15.88c-0.03-0.27-0.07-0.54-0.07-0.8 c-1.11-10.46-1.97-20.96-2.43-31.47c-0.12-3.65-0.17-9.29,0.35-11.5c0.32-1.17-0.69-1.93-1.62-1.87c0.17-2.05,0.34-4.11,0.46-6.17 c0.16-5.01,0.01-10.02,0.12-15.03c0.37-8.74,0.8-17.47,0.85-26.22c0.44-8.24,0.13-16.49,0.37-24.73c0.05-2.57,0.14-5.14,0.24-7.71 c0-0.4-0.16-0.78-0.44-1.06c-0.88-0.93-2.6-0.24-2.56,1.06c-0.46,13.36-0.34,26.72-0.74,40.08c0.02,5.43-0.45,10.86-0.66,16.28 c-0.21,5.79,0,11.59-0.18,17.38c-0.38,6.11-1.08,12.2-1.34,18.31c-0.26,12.92-0.05,25.84-0.11,38.76v3.47c0,0.4,0.16,0.78,0.44,1.06 c0.35,0.36,0.82,0.47,1.27,0.4C175.19,375.64,171.04,383.49,169.58,392.26z M181.12,337.57c0.53,7.27,1.12,14.55,1.99,21.76 c0.22,0.65,0.88,0.94,1.5,0.89c-0.78,1.35-1.53,2.72-2.25,4.12c-0.4,0.61-0.79,1.22-1.19,1.83 C181.28,356.64,181.08,347.1,181.12,337.57z M435.13,389.85c-1.11,4.83-5.36,6.4-11.35,8.21c-7.86,2.46-15.37,1.84-24.12,2.59 c-4.64,0.46-9.42,0.87-13.7,2.86c-1.41,0.84-4.85,1.53-3.79,3.72c0.17,0.3,0.45,0.51,0.77,0.63c-3.34,3.56-6.94,6.89-10.77,9.92 c-2.93,2.59-6.6,5.12-9.94,6.21c-4,1.25-7.29,0.54-12.03-0.78c-3.24-1.04-6.34-2.51-9.66-3.28c-4.73-1.28-9.62-1.42-14.49-1.3 c-6.05-0.12-12.05,0.71-17.91,2.18c-4.41,0.99-8.74,2.28-12.94,3.96c-3.89,1.24-7.76,2.09-10.82,2.19 c-8.4,0.45-15.05-3.69-23.27-6.48c-2.76-0.82-5.53-1.71-8.4-2.09c-3.58-0.33-7.19-0.11-10.78-0.09c-9.69,0.07-18.99,3.12-28.37,5.13 c-5.51,0.97-6.97,0.95-8.49-5.05c-1.04-2.61-1.43-7.77-5.19-7.5c-6.53,1.3-11.33,2.09-18.21,2.13c-3.98-0.24-6.63-0.54-7.55-2.18 c-1.55-3.78-2.9-9.3-2.19-14.44c0.31-3.5,2.53-11.85,4.1-15.06c2.47-5.51,5.83-10.53,9.03-15.62c4.33-8.45,9.39-15.28,14.58-22.27 c2.18-3.18,4.08-6.52,6.17-9.75c2.54-3.44,5.02-6.92,7.34-10.51c0.76-0.1,1.46-0.77,1.44-1.74c0.06-0.3,0.13-0.6,0.2-0.9 c0.3-0.5,0.62-0.99,0.92-1.49c3.39-5.68,6.41-11.59,9.94-17.19c7.35-10.9,13.82-22.45,19.01-34.53 c6.36-14.75,11.51-29.98,15.91-45.42c1.5-4.05,3.15-7.61,5.33-12.19c1.61-2.95,3.61-5.67,5.58-8.39c0.83-1.36,2.19-2.47,2.71-3.96 c0.08-0.36-0.03-0.73-0.23-1.04c0,0,0,0,0,0c0.84-1.8,1.26-2.33,1.83-4.63c0.01-0.09,0.02-0.19,0.02-0.28 c0-0.02,0.01-0.03,0.01-0.05c0.03-0.43,0.29-0.3,0.38-1.4c0.05-1.71,0.55-3.21,1.22-5.62c1.46-4.63,3.14-12.21,1.76-15.56 c-0.21-0.87-1-1.2-1.71-1.59c-0.89-0.54-1.79-1.07-2.72-1.54c-2.09-1.07-4.01-2.44-6.14-3.44c-3.06-1.43-6.3-2.45-9.58-3.22 c-2.81-0.73-5.9-1.53-7.49-2.47c-0.24-0.14-0.46-0.31-0.68-0.48c-0.07-0.06-0.15-0.14-0.21-0.21c-0.04-0.06-0.08-0.12-0.11-0.19 c-0.01-0.03-0.02-0.07-0.02-0.1c0.03-1.47,0.01-1.5,0.64-3.26c0.57-1.27,4.47-5.03,7.13-6.67c1.09-0.85,2.53-1.26,3.53-2.19 c0.05-0.06,0.09-0.12,0.13-0.19c4.65,0.17,9.77,2.69,14.84,4.68c3.43,1.43,6.94,2.65,10.45,3.86c2.45,0.81,4.85,1.83,7.44,2.09 c4.08,0.33,8.44,0.55,12.49,0.01c4.5-1.25,8.58-3.7,12.74-5.78c5.51-3.05,11.92-4.16,18.17-7.54c3.51-2.14,5.59-3.04,9.14-4.25 c1.48-0.56,1.07-0.46,2.46-0.49c0.13,0.01,0.19,0.01,0.22,0.01c0.01,0,0.02,0,0.03,0.01c0.09,0.02,0.17,0.05,0.25,0.08 c0.2,0.09,0.49,0.23,0.62,0.3c2.26,1.4,4.47,2.86,6.81,4.11c3.1,1.62,6.28,3.09,9.25,4.94c0.07,0.04,0.18,0.11,0.29,0.19 c-0.89,0.65-3.74,1.92-5.4,2.72c-5.6,2.48-10.97,5.42-15.98,8.96c-1.27,0.85-2.47,1.79-3.76,2.61c-0.82,0.37-1.47,1.05-1.43,1.82 c-1.82,1.94-3.72,3.92-4.61,6.48c-1.05,3.12-0.9,4.43-1.37,7.46c-0.13,3.53-0.38,7.12,0.19,10.61c0.74,3.37,1.77,6.69,3.16,9.85 c0.08,0.2-0.24-0.61-0.05-0.08c0.07,0.32,0.15,0.64,0.3,0.93c-0.26,0.46-0.3,1.04-0.01,1.51c3.7,5.94,7.47,11.9,10.19,18.37 c2.69,5.49,3.91,10.3,7.23,15.95c3.42,5.61,7.02,11.12,10.67,16.58c4.03,7.45,8.37,14.73,12.34,22.22 c3.26,5.84,6.8,11.52,9.45,17.68c5.21,10.18,9.07,18.85,12.35,29.58c1.1,3.06,2.1,6.26,4.07,8.89c2.76,3.57,5.51,5.59,7.45,8.93 c4.85,7.04,7.71,15.23,12.61,22.25c2.86,4.48,7.88,10.99,9.25,14.62C436.52,379.5,437.07,383.91,435.13,389.85z"/></g><g id="change1_3"><path d="M265.35,75.83c-3.12-4.89-8.88-3.38-12.68-0.2c-0.16,0.13-0.29,0.28-0.44,0.42c-0.45-0.3-0.92-0.58-1.41-0.82 c-3.84-2.09-9.11-1.15-11.96,2.18c-2.65,2.81-2.91,7.11-0.71,10.27c2.07,3.08,5.18,5.25,7.63,8.01c0.8,0.84,1.59,1.68,2.38,2.53 c0.04,0.04,0.09,0.07,0.13,0.11c-0.16,0.88,0.56,1.76,1.47,1.75c1.68-0.34,2.88-1.89,4.3-2.78c3.41-2.52,7.2-4.78,9.52-8.44 C266.09,85.14,267.58,80.03,265.35,75.83z M259.76,88.95c-2.43,2.58-4.01,3.37-6.95,5.57c-0.81,0.58-1.59,1.19-2.39,1.79 c-0.05-0.07-0.08-0.14-0.15-0.19c-2.17-2.33-4.36-4.64-6.71-6.8c-2.51-2.28-3.78-4.16-3.93-6.09c-0.1-4.87,6.37-8.43,11.62-4.21 c0.75,0.74,2.01,0.77,2.59-0.19c0.02-0.03,0.03-0.06,0.04-0.09c0.01-0.01,0.02-0.03,0.04-0.07c0.03-0.05,0.06-0.1,0.1-0.15 c3.28-3.24,7.36-3.91,8.88-0.91C264.38,80.57,262.65,85.82,259.76,88.95z"/></g><g id="change1_4"><path d="M182.21,459.99c-0.34-6.94-1.45-13.92-3.27-20.62c-0.32-0.81-0.7-1.65-1.39-2.21c-0.8-0.66-1.82-0.97-2.79-1.28 c-3.9-0.99-8.07-0.91-11.97,0.04c-1.12,0.28-2.2,0.68-3.28,1.09c-0.37,0.1-0.7,0.36-0.9,0.69c-0.02,0.03-0.02,0.06-0.04,0.09 c-0.11,0.03-0.22,0.08-0.32,0.14c-0.65,0.37-0.74,1.09-0.88,1.76c-1.66,5.22-2.51,9.1-2.74,13.96c-0.02,4.43-0.17,8.9,0.52,13.29 c1.05,5.49,5.04,13.52,10.54,15.55c2.36,0.55,4.41-1.2,6.26-2.42c1.92-1.32,3.98-2.47,5.63-4.14c2-2.08,3.47-4.69,4.22-7.48 C182.42,465.67,182.28,462.8,182.21,459.99z M172.97,438.52c-0.1,0.28-0.21,0.56-0.25,0.86c-0.04,0.17-0.1,0.33-0.16,0.5 c-0.08,0.18-0.21,0.48-0.28,0.67c-1.16,2.24-3.03,5.36-3.92,6.36c-0.09,0.09-0.2,0.18-0.3,0.27c0,0-0.01,0-0.01,0.01 c-1.32-0.03-1.13,0.05-1.88-0.43c-0.13-0.1-0.31-0.24-0.47-0.37c-0.11-0.1-0.2-0.2-0.24-0.25c-0.13-0.17-0.24-0.35-0.34-0.54 c-0.42-0.6-1.01-3.24-1.36-5.09c-0.17-0.5-0.22-1.08-0.31-1.64C166.87,437.99,170.17,438.01,172.97,438.52z M179.23,464.88 c-0.09,3.59-1.38,6.52-4.17,9.32c-1.32,1.19-6.35,4.51-7.72,5.22c-1.03,0.82-3.35-1.28-4.84-3.25c-2.98-4.21-4.47-8.05-4.73-12.27 c-0.33-6.27-0.3-12.91,0.69-16.98c0.38-2.39,1.49-4.66,1.89-7.04c0.07-0.03,0.14-0.05,0.21-0.08c0.63,2.93,0.83,6.13,2.79,8.49 c1.17,0.96,1.02,1.13,2.71,1.72c1.1,0.19,2.31,0.38,3.34-0.16c1.77-1.07,2.65-3.09,3.73-4.78c1.25-2.07,1.98-3.28,2.45-4.89 c0.04-0.16,0.1-0.34,0.15-0.52c0.05,0.07,0.09,0.14,0.15,0.23c0.42,0.64,1.2,4.43,1.56,6.48 C178.7,452.53,179.43,457.96,179.23,464.88z"/></g><g id="change1_5"><path d="M177.04,468.5c-0.99-1.12-2.47-1.78-3.81-2.4c-2.89-1.17-6.23-0.76-9.03,0.49c-1.07,0.57-2.6,1.06-3.08,2.25 c-0.39,1.24,1.1,2.39,2.2,1.69c3.13-2.07,5.7-2.7,8.91-1.62c0.17,0.09,0.5,0.21,1.41,0.75c0.82,0.38,1.51,1.34,2.51,1.04 C177.07,470.47,177.53,469.32,177.04,468.5z"/></g><g id="change1_6"><path d="M169.25,451.06c-0.54,0.54-1.07,1.09-1.61,1.64c-0.04-0.03-0.08-0.06-0.11-0.09c-0.62-0.38-1.14-1.06-1.89-1.16 c-1.56-0.31-2.35,2.02-0.96,2.77c0.79,0.48,1.5,1.16,2.26,1.72c-0.37,0.88,0.07,2.13,1.34,2.14c1.14,0,1.61-1.01,1.43-1.85 c0.36-0.44,0.5-1.08,0.23-1.62c0.61-0.62,1.34-1.17,1.75-1.92C172.39,451.27,170.34,449.9,169.25,451.06z"/></g><g id="change1_7"><path d="M170.95,461.15c-0.08-0.06-0.24-0.17-0.41-0.3c0.11-0.14,0.23-0.28,0.33-0.43c0.71-1.44-1.35-2.8-2.43-1.64 c-0.07,0.07-0.13,0.14-0.2,0.22c-0.72-0.61-1.42-1.23-2.14-1.84c-1.39-1.38-3.5,0.73-2.12,2.12c0.75,0.63,1.48,1.28,2.22,1.91 c-0.17,0.18-0.33,0.36-0.5,0.53c-0.7,0.66-0.53,1.88,0.3,2.36c0.57,0.34,1.36,0.24,1.82-0.23c0.22-0.26,0.46-0.52,0.7-0.77 c0.47,0.3,0.88,0.81,1.47,0.85c0.73,0.15,1.45-0.38,1.65-1.07C171.83,462.21,171.53,461.48,170.95,461.15z"/></g><g id="change1_1"><path d="M201.31,440.58c0.03,0.02,0.03,0.03,0.06,0.04c0,0-0.01-0.01-0.01-0.01C201.34,440.6,201.32,440.59,201.31,440.58z"/><path d="M205.97,441.24c-0.96-1.34-1.85-2.91-3.3-3.76c-0.22-0.11-0.45-0.14-0.68-0.12c-0.2-0.12-0.43-0.26-0.69-0.41 c-1.29-0.57-3.89-1.92-7.12-1.58c-2,0.17-3.93,0.76-5.79,1.5c-0.66,0.32-1.52,0.41-1.91,1.09c-0.18,0.29-0.23,0.61-0.19,0.92 c-1.37,5.51-2.39,11.13-2.41,16.83c-0.21,4.15,0.16,8.34,1.57,12.27c1.26,3.28,2.2,6.87,4.53,9.58c1.12,1.35,2.7,2.22,4.28,2.91 c3.26,1.22,6.03-1.16,7.7-3.77c2.57-4.19,4.14-8.92,5.73-13.55c0.82-2.66,0.85-5.47,1.21-8.22 C209.49,450.22,208.79,445.17,205.97,441.24z M200.04,439.64c-0.49-0.21-0.29-0.12,0.04,0.07c0.1,0.06,0.22,0.09,0.32,0.16 c0.17,0.14,0.35,0.26,0.54,0.38c0.14,0.13,0.29,0.26,0.41,0.36c0.02,0.02,0.04,0.03,0.06,0.05c-0.01-0.01-0.03-0.02-0.03-0.02 c-0.01-0.01-0.01-0.01-0.02-0.02c0.14,0.11,0.21,0.17,0.11,0.08c0.02,0.01,0.05,0.04,0.07,0.06c0.01,0.02,0.03,0.03,0.04,0.05 c0.06,0.08,0.09,0.12,0.1,0.11c0.03,0.03,0.06,0.05,0.09,0.08c0,0.02-0.01,0.04-0.01,0.07c-0.03,0.15,0.06,0.41,0.13,0.6 c0.05,0.15,0.09,0.3,0.11,0.45c0.01,0.1,0,0.23-0.01,0.34c-0.1,0.45-0.66,3.03-0.91,3.61c-0.01,0.04-0.03,0.07-0.04,0.11 c-0.33,0.74-0.68,1.48-1.16,2.14c-0.06,0.07-0.16,0.18-0.26,0.26c-0.09,0.09-0.18,0.17-0.24,0.22c-0.09,0.06-0.19,0.11-0.26,0.15 c-0.02,0-0.03,0.01-0.05,0.01c-1.76,0-1.76,0.01-2.64-0.47c-1.71-1.12-3.32-4.06-3.28-6.89c0.04-1.32-0.02-0.6,0.13-1.66 c0.11-0.39,0.05-0.81-0.15-1.16c-0.04-0.08-0.11-0.14-0.16-0.21C195.69,438.03,197.65,438.5,200.04,439.64z M205.45,459.32 c-0.29,2.89-2.65,8.87-3.92,11.8c-0.76,1.67-1.57,3.34-2.67,4.82c-0.15,0.17-0.48,0.56-0.62,0.68c-0.1,0.14-0.42,0.4-0.63,0.57 c-0.18,0.13-0.36,0.25-0.55,0.37c-0.1,0.06-0.21,0.11-0.32,0.16c-0.08,0.03-0.16,0.05-0.24,0.07c-0.04,0-0.08,0.01-0.12,0 c-1.25-0.13-0.7,0.09-1.99-0.62c-1.28-0.73-0.98-0.45-1.78-1.21c-1.63-1.66-1.99-3.01-2.96-5.3c-1.16-2.92-2.2-5.92-2.63-9.04 c-0.25-1.76-0.17-7.19,0.09-10.38c0.12-3.39,1.24-7.3,2-11.47c0.45-0.18,0.87-0.33,1.27-0.48c-0.67,3.78,0.41,7.95,3.19,10.65 c0.94,0.91,2.06,1.72,3.4,1.86c1.24,0.17,2.6,0.34,3.74-0.32c2.28-1.43,3.25-4.19,3.84-6.69c0.01-0.04,0.02-0.08,0.03-0.12 c0.38,0.72,0.48,1.06,0.86,2.15C206.62,450.37,205.91,454.75,205.45,459.32z"/></g><g id="change1_8"><path d="M198.05,465.37c-2.87-0.3-6,0.64-8.2,2.5c-1.05,1.21,0.59,3.06,1.94,2.2c2.59-1.75,4.86-2.03,6.96-1.59 c1.16,0.14,2.64,1.28,3.54,0.04C203.79,466.01,199.68,465.6,198.05,465.37z"/></g><g id="change1_9"><path d="M199.61,452.45c-0.66,0.33-1.32,0.66-1.99,0.98c-0.78-0.64-1.51-1.36-2.36-1.87c-1.44-0.7-2.8,1.35-1.64,2.43 c0.44,0.31,0.91,0.72,1.4,1.15c-0.2,0.48-0.15,1.04,0.33,1.57c0.58,0.58,1.25,0.47,1.9,0.2c0.33,0.21,0.66,0.39,0.98,0.51 c0.98,0.21,1.86-0.81,1.66-1.75c0.61-0.27,1.2-0.55,1.65-1.01C202.59,453.45,200.95,451.6,199.61,452.45z"/></g><g id="change1_10"><path d="M197.98,458.54c-0.66,0.36-1.3,0.75-1.95,1.13c-0.51-0.44-1.03-0.87-1.59-1.2c-1.44-0.71-2.8,1.35-1.64,2.43 c0.17,0.14,0.35,0.28,0.52,0.42c-0.19,0.18-0.34,0.39-0.41,0.67c-0.28,0.93,0.49,1.91,1.45,1.9c0.53-0.06,1-0.3,1.45-0.59 c0.1,0.07,0.19,0.15,0.28,0.22c0.82,0.51,1.96,0.03,2.2-0.9c0.09-0.29,0.07-0.56-0.01-0.81c0.59-0.31,1.18-0.61,1.63-1.08 C200.97,459.54,199.33,457.69,197.98,458.54z"/></g><g id="change1_11"><path d="M316.57,461.64c-0.34-3.84-0.78-7.71-1.28-11.53c-0.01-0.64-0.07-1.27-0.27-1.89c-0.22-0.54-0.52-1-0.87-1.41 c-0.18-0.45-0.57-0.8-1.04-0.93c-2.15-1.49-5.34-1.63-7.82-1.2c-2.76,0.78-4.2,3.57-5.66,5.8c-0.38,0.66-0.77,1.33-1.15,2.01 c-0.49,0.59-0.97,1.19-1.45,1.8c-0.96,1.21-1.9,2.46-2.73,3.77c-0.01-0.09-0.01-0.19-0.01-0.28c0.16-0.23,0.26-0.51,0.24-0.84 c-0.01-0.63-0.02-1.26-0.02-1.89c0.04-0.11,0.08-0.22,0.12-0.33c0.46-1.93,1.04-4.02,0.93-6.04c0.53-0.73,1.02-1.62,0.94-2.54 c-0.06-1.03-1.37-1.64-2.23-1.1c-0.01,0-0.01,0.01-0.02,0.02c-2.04-2.52-5.76-3.47-8.86-2.68c-1.26,0.36-2.38,1.09-3.32,2 c-0.28,0.05-0.55,0.18-0.76,0.41c-2.89,3.27-5.26,6.97-7.33,10.79c-1.76,3.34-3.35,6.84-3.88,10.61c-0.34,2.65-0.76,5.54,0.51,8.01 c2.48,4.06,7.4,3.91,10.59,0.75c3.09-2.66,5.28-6.1,7.43-9.51c1.23-1.75,2.47-3.52,3.55-5.38c0.28,0.13,0.6,0.16,0.91,0.11 c-0.48,0.95-0.9,1.94-1.21,2.98c-0.73,2.62-1.24,5.44-0.88,8.15c0.55,3.06,3.36,5.38,6.47,5.33c4.5-0.68,9.4-5.5,12.83-10.53 c0.13,1.06,0.32,2.12,0.73,3.11c0.4,0.97,0.92,1.98,1.85,2.53c1.04,0.58,2.41,0.14,3.04-0.83 C317.27,468.21,316.55,464.63,316.57,461.64z M277.53,457.72c0.06-0.27,0.17-0.82,0.25-1c0.28-1.02,1.66-3.65,2.8-5.55 c0.91-1.73,3.21-4.16,3.7-4.76c2.96-2.65,7.16-0.72,8.01,1.08c-0.36,0.24-0.62,0.64-0.62,1.21c0,0.07-0.01,0.13-0.01,0.2 c-1.71,2.23-3.81,5.2-6.51,8.07c-2.38,2.46-5.91,2.84-7.54,1.21c-0.02-0.04-0.05-0.08-0.07-0.11c0-0.01,0-0.02-0.01-0.02 C277.52,457.93,277.52,457.82,277.53,457.72z M286.53,463.26c-2.72,4.02-4.04,6.7-7.67,9.79c-1.96,1.53-3.66,1.99-5.46,0.01 c-0.35-0.3-0.91-2.2-0.55-4.85c0.2-2.71,1.06-5.49,2.32-8.3c0.64,0.9,1.72,1.57,3.2,1.99c2.33,0.65,4.77,0.03,6.8-1.19 c1.93-1.04,4.05-3.87,4.58-4.57c0.66-0.78,1.18-1.42,1.64-1.99c-0.01,0.25-0.02,0.5-0.03,0.75 C290.35,457.75,288.59,460.23,286.53,463.26z M299.45,458.36c0.04-0.44,0.04-0.44,0.35-1.58c0.15-0.56,0.64-1.58,1.25-2.71 c1.11-1.27,2.31-2.55,3.67-3.98c0.8-0.98,2.07-1.68,2.93-2.59c0.13,0,0.26,0,0.4,0c1.15,0.08,1.91,0.16,2.54,0.4 c-0.19,0.33-0.38,0.65-0.58,0.91c-1.02,1.42-1.9,2.55-3.14,4.15c-3.39,4.29-6.19,6.96-7.47,6.02 C299.41,458.77,299.42,458.5,299.45,458.36z M311.48,457.25c-1.91,6.26-8.17,13.94-13.34,16.25c-1.66,0.68-3.54-0.85-3.92-1.82 c-1.01-2.5,0.24-7.27,1.28-9.64c0.36-0.69,0.73-1.33,1.1-1.94c0.49,1.19,1.72,1.91,3.3,2.07c1.48,0.1,2.84-0.69,3.94-1.6 c2.24-1.76,3.98-4.06,5.76-6.26c0.91-1.2,1.64-2.07,2.67-3.54C312.29,453.29,312.21,454.94,311.48,457.25z M313.67,467.74 c-0.25-0.76-0.38-1.57-0.48-2.5c-0.1-0.58,0.02-1.21-0.22-1.75c-0.11-0.32-0.34-0.56-0.63-0.71c0.42-0.78,0.8-1.54,1.12-2.27 C313.7,463.3,313.83,465.89,313.67,467.74z"/></g></svg>