<?xml version="1.0" encoding="UTF-8"?><!DOCTYPE svg PUBLIC "-//W3C//DTD SVG 1.0//EN" "http://www.w3.org/TR/2001/REC-SVG-20010904/DTD/svg10.dtd" []><svg xmlns="http://www.w3.org/2000/svg" xmlns:xlink="http://www.w3.org/1999/xlink" height="335" preserveAspectRatio="xMidYMid meet" version="1.0" viewBox="-0.1 -1.1 308.7 335.0" width="309" zoomAndPan="magnify" fill="currentColor"><g id="change1_1"><path d="M57.671371,141.142319c-10.830078,2.878906-19.510742,13.560547-19.350098,23.811523 c0.086914,5.562988,2.882324,15.512207,20.625488,19.638672c2.02002,0.470215,3.960449,0.701172,5.806152,0.701172 c7.305176,0,13.114258-3.623047,16.370605-10.40625c3.812988-7.942383,3.80957-15.48291-0.01123-22.411621 C75.743637,142.739975,67.198715,138.61058,57.671371,141.142319z M75.71434,172.290756 c-3.583496,7.467285-10.357422,7.632324-15.408203,6.458008c-10.205566-2.373535-15.882812-7.306152-15.98584-13.888672 c-0.115723-7.405762,6.843262-15.779297,14.892578-17.918945c1.277832-0.339844,2.524414-0.507324,3.734863-0.507324 c5.180664,0,9.678223,3.078125,12.910645,8.939453C78.767563,160.649643,78.722153,166.026108,75.71434,172.290756z M227.436508,74.858627c0.083008,0.000488,0.164551,0.000977,0.24707,0.000977 c9.51123-0.000488,16.175293-4.706543,18.30127-12.940434c2.421875-9.380859-1.958496-20.456543-9.765625-24.689453 c-3.429199-1.859375-12.596191-4.884277-23.618652,7.162109c-5.947266,6.5-6.725586,14.339844-2.083008,20.972172 C214.886703,71.606186,220.579086,74.800522,227.436508,74.858627z M217.027328,48.441631 c4.219727-4.611816,8.421387-6.990723,12.201172-6.990723c1.446289,0,2.831055,0.348145,4.130859,1.053223 c5.34668,2.898926,8.531738,11.270508,6.815918,17.915039c-0.996582,3.860355-3.973145,8.440922-12.483398,8.440434 c-0.067383,0-0.13623-0.000488-0.20459-0.000977c-4.941406-0.041992-8.771973-2.245605-12.054688-6.935062 C211.584946,56.426495,214.176254,51.558331,217.027328,48.441631z M162.374496,133.602768 c0.536621,0,1.071777-0.023926,1.600586-0.072754c4.128906-0.382812,13.973145-3.056152,16.203125-19.577148 c1.234863-9.150879-2.867676-16.26416-11.255859-19.516113c-7.802246-3.025879-14.880859-2.663574-21.039062,1.074219 c-8.375,5.083496-11.630371,12.686523-8.931152,20.858887C142.101547,125.906479,152.756332,133.602768,162.374496,133.602768z M150.996567,100.639877c4.544922-2.759277,9.69873-2.958008,15.756836-0.608887 c7.26416,2.815918,8.07666,8.688965,7.478516,13.119141c-0.835938,6.192383-3.389648,13.717773-10.810547,14.405273 c-7.21875,0.67041-16.333496-5.682129-18.771973-13.066895C142.850082,109.041245,145.045395,104.25267,150.996567,100.639877z M294.90329,136.270248c-4.252441-2.26709-8.213379-2.759766-12.276855-2.942383 c5.927734-6.630859,6.307617-12.635254,5.331055-16.84082c-1.730957-7.453613-9.03418-13.686035-18.172852-15.508301 c-3.358398-0.668945-6.527832-0.75708-9.493652-0.280518c3.212402-4.158691,5.129639-9.103516,4.80127-13.67749 c-0.316406-4.422363-1.86377-7.699707-3.722656-10.866699c8.894531,1.004883,13.883301-2.497559,16.263672-5.035156 c4.994141-5.326172,6.251465-14.231449,3.127441-22.161625c-2.373047-6.017578-6.279297-10.175781-11.61084-12.358398 c-5.540527-2.268555-11.768066-1.910645-16.626938-0.828613c3.23291-11.158203,3.617172-24.701172-12.125977-33.425293 c-6.243652-3.458984-14.537109-3.072266-22.186523,1.03418c-8.437012,4.529785-14.295898,12.567383-14.92627,20.479004 c-0.134766,1.708496-0.206055,3.165039-0.210938,4.554688c-4.196289-2.078613-8.774902-3.371094-13.24707-4.633789 l-0.104492-0.029297c-6.463867-1.819336-13.224609-0.283203-18.544922,4.214844 c-4.980225,4.211304-8.041504,10.313721-8.484009,16.565674c-6.32605-0.560547-12.543701,1.553467-17.179565,5.987549 c-3.766113,3.601562-9.281738,11.46875-8.008789,25.983402c-10.148193-6.425171-17.518311-6.708252-22.435547-5.284546 c-1.124756-0.859253-2.276855-1.625488-3.398926-2.286743c9.540039-6.162113,18.665039-16.015629,13.240723-33.079594 c-2.250977-7.081543-7.723145-12.178223-15.013184-13.983398c-7.60791-1.885742-15.779297,0.338867-21.329102,5.801758 c-1.1875,1.168945-2.172852,2.197754-3.070801,3.224609c-1.70459-5.304199-3.713379-10.147461-8.497559-13.234863 c-5.244629-3.385742-11.956543-3.723633-18.898926-0.951172c-7.953613,3.176758-14.821777,10.008301-16.332031,16.244629 c-0.545898,2.257812-1.635742,9.450684,3.437012,18.49707c-9.497559,0.37793-18.362793,5.216797-22.855957,12.919437 c-4.828613,8.268555-3.976074,18.291504,2.120605,24.939941c6.589355,7.184082,17.154297,8.975586,29.069824,5.183594 c-1.16626,3.554443-1.787964,6.834473-1.900391,9.845459c-1.121216-0.511475-2.173218-0.859741-3.086426-1.084229 c-8.17334-2.006348-17.845215,1.779785-24.070801,9.42627c-4.725586,5.805664-6.70459,12.096191-5.881836,18.696777 c0.905762,7.27002,5.199707,13.650391,9.260254,17.976562c-13.415527,2.975098-27.997559,10.164062-27.860352,31.500977 c0.055664,8.239258,5.160645,16.379395,13.65625,21.774414c9.395508,5.967285,20.859863,7.332031,29.211426,3.478027 c2.151367-0.997559,3.89209-1.883789,5.529785-2.837891c0.182129,5.762207,1.564941,11.475098,2.914062,17.048828l0.041016,0.169434 c1.479492,6.100098,5.129395,11.035645,10.555664,14.272461c4.108398,2.450684,9.035645,3.728027,13.999512,3.728027 c0.369629,0,0.739258-0.020508,1.108887-0.03479c-1.801514,3.842407-3.327148,7.842285-4.477539,11.995728 c-2.014648,7.253403-3.217285,15.669418,3.138184,23.099106c2.258301,2.631836,4.930664,4.810059,7.943848,6.475586 c3.873535,2.140137,8.202637,3.245605,12.642578,3.245605c0.710815,0,1.429375-0.038666,2.144325-0.096069 c0.084961-0.006805,0.174522-0.004272,0.259483-0.011841c3.242188-0.285645,6.48291-1.147461,9.637207-2.563477 c14.054688-6.339355,23.957031-21.160156,30.183594-31.757797c4.246704-7.234619,8.237061-15.152832,12.039062-23.900879 c-5.305176,22.502441-13.946167,49.917709-24.719727,61.616684c-7.864746,8.541016-14.552734,13.519043-20.453125,17.911133 c-6.936035,5.162598-12.92627,9.621582-18.538574,17.970215c-0.672852,1.000977-0.680664,2.307129-0.020508,3.316406 c0.560059,0.856445,1.509766,1.357422,2.509766,1.357422c0.177734,0,0.357422-0.015625,0.536621-0.04834l47.278809-8.59082 c7.67334-1.138184,11.297852-7.044922,14.804199-12.757324c0.620117-1.01123,1.24707-2.033691,1.905762-3.041016 c8.292725-12.707275,13.706299-32.383545,16.457397-59.905258c3.91687,9.724731,9.119385,21.058823,14.810181,29.170883 c9.655273,13.733887,12.938965,28.771973-2.418945,57.522461c-0.556152,1.041016-0.450195,2.311035,0.270508,3.245605 c0.575684,0.74707,1.458496,1.167969,2.375488,1.167969c0.230957,0,0.463867-0.026367,0.694336-0.081055l32.408203-7.712891 c4.075684-0.96875,7.431152-3.466797,9.703613-7.223633c4.004883-6.621582,3.806152-15.327637,2.417969-20.773438 c-2.401367-9.390625-6.890137-18.085449-11.280762-26.185059c-3.289307-6.076538-7.917114-13.6604-13.096313-21.787216 c8.800171,7.249252,18.136353,12.368515,27.16272,12.95665c0.086914,0.005859,0.172852,0.007324,0.259277,0.005859 c0.486328,0.026855,0.967285,0.040039,1.444824,0.040039c7.824707-0.000488,14.517578-3.594727,19.914062-10.704575 c4.176254-5.512207,6.577621-17.942383,3.087387-31.035645c-0.497314-1.865234-1.147461-3.855713-1.99292-5.906616 c1.309082,0.217407,2.618164,0.344116,3.913818,0.344116c6.677246-0.000488,13.004395-2.84375,17.189941-8.091797 c6.61084-8.288574,6.667969-20,0.421387-32.208008c19.043945,3.265137,25.169434-5.978027,26.987305-10.477051 C308.525848,155.223862,303.741669,140.976303,294.90329,136.270248z M242.712875,110.371323 c0.999756,0,1.898682-0.088867,2.688599-0.211426c-1.9646,2.655762-3.429565,5.516846-4.437622,8.125488 c-3.681152-4.179932-8.165771-8.168945-13.579224-10.491943c0.55603-1.330811,0.978638-2.719482,1.266235-4.146851 C233.568832,109.074692,238.824692,110.371323,242.712875,110.371323z M175.051254,32.546124 c3.829102-3.237305,8.461426-4.310547,13.04248-3.021484l0.102539,0.028809c5.85791,1.653809,11.915039,3.363281,16.406738,6.812988 c0.957031,0.734863,2.262695,0.824707,3.311035,0.228027c1.049316-0.597168,1.638184-1.765137,1.495117-2.963867 c-0.400391-3.34668-0.435547-5.606445-0.143555-9.297852c0.472168-5.928223,5.097168-12.077637,11.783203-15.666992 c5.843262-3.137695,11.989258-3.538085,16.44043-1.072753c11.324219,6.27539,13.56543,15.773926,7.494141,31.760742 c-0.429688,1.131836-0.136719,2.411621,0.742676,3.243652c0.879395,0.83252,2.172852,1.054199,3.279785,0.562988 c3.373047-1.498535,11.447739-3.63916,17.871078-1.008789c3.759277,1.539062,6.552246,4.569336,8.301758,9.005859 c2.254883,5.724609,1.464844,12.245605-1.922363,15.856937c-3.468262,3.697266-9.390137,4.338379-17.12793,1.851562 c-1.174301-0.37793-2.460434,0.002441-3.240707,0.95752c-0.780762,0.955566-0.896973,2.291016-0.293457,3.367188 c0.774902,1.379395,1.533691,2.611816,2.268066,3.803711c2.297348,3.729004,3.957016,6.422852,4.24559,10.455078 c0.422852,5.894043-6.049789,14.917969-13.927231,16.655762c-7.02832,1.550903-13.485962-3.171394-17.583618-13.608398 c-0.255768-0.651474-0.49646-1.311523-0.792847-1.95459c-2.648926-5.762695-7.333008-10.148926-13.185547-12.348633 c-6.855591-2.583008-12.508789-2.86377-18.260986-1.519775c2.920288-2.154297,5.972656-4.094971,8.051514-5.41626 c1.098145-0.697754,1.621094-2.024414,1.294922-3.28418c-0.32666-1.259766-1.427734-2.165043-2.726562-2.242191 c-2.065918-0.122559-4.629395-0.141602-7.34375-0.161621c-3.383545-0.025269-7.421143-0.056152-9.942871-0.343262 c-1.426758-4.605225-3.897217-8.667847-7.219727-11.838379c-2.598511-2.474854-5.621338-4.350586-8.832275-5.522949 C168.724594,40.936016,171.119125,35.871075,175.051254,32.546124z M185.994858,74.686752 c0.126465-1.778687,0.099487-3.563232-0.074951-5.333252c1.869873,0.124634,4.010498,0.170898,6.27002,0.195068 C189.881577,71.223862,187.762558,72.936386,185.994858,74.686752z M139.679672,85.41478 c0.992188,0.783691,2.370117,0.861328,3.445312,0.193848c1.074219-0.668945,1.61377-1.939453,1.348145-3.176758 c-2.59668-12.101562-0.754883-21.895512,5.187012-27.578129c4.047363-3.870605,9.773438-5.317383,15.322754-3.86377 c3.029297,0.784668,5.916504,2.424805,8.348145,4.740723c2.938477,2.803711,5.031738,6.543945,6.056152,10.822269 c1.304199,5.398926,0.762207,11.215332-1.526855,16.376953c-0.519043,1.170898-0.237305,2.54248,0.701172,3.414062 c0.937988,0.871582,2.327148,1.052734,3.456543,0.446777c1.251953-0.669434,2.443359-1.296875,3.587891-1.879883 c11.179199-5.643066,17.22998-6.367676,25.898926-3.102051c4.353149,1.636353,7.841553,4.904541,9.830322,9.205933 c0.222534,0.581665,0.449463,1.142944,0.679199,1.691284c1.571533,4.483521,1.414307,9.409424-0.422729,13.366699 c-5.313599-0.901855-11.37561-0.137939-18.281128,3.309814c-7.138672,3.561523-11.637207,10.210449-12.342285,18.242188 c-0.621094,7.082031,1.943359,14.09668,6.798828,19.106201c-2.323364,6.787598-8.048584,13.702881-16.060059,14.145264 c-14.586914,0.807617-22.861328-6.450195-27.663086-24.269531c-0.307617-1.142578-1.258789-1.997559-2.427734-2.182617 c-1.169922-0.184082-2.337402,0.334961-2.98291,1.32666c-2.012695,3.092285-7.752441,9.337402-15.069824,10.840332 c-4.727539,0.970215-9.532227-0.145508-14.283203-3.315918c-5.943848-3.970703-9.459473-10.382812-8.549805-15.59375 c0.888184-5.085938,5.852051-8.889648,14.355469-10.999512c1.220215-0.302734,2.12207-1.334473,2.259277-2.584473 s-0.519531-2.452637-1.645508-3.012695c-1.57373-0.783691-3.043945-1.447754-4.465332-2.089844 c-2.915039-1.316406-5.433105-2.453613-7.635254-4.094238c-1.161133-0.864746-2.179688-1.828613-3.11084-2.942871 c-2.763672-3.319824-3.707031-9.259766-2.347168-14.780762c0.680176-2.762695,2.532715-7.673828,7.314453-9.752441 c0.056641-0.019531,0.113281-0.041016,0.168945-0.063965C121.580551,74.89769,129.898911,77.682358,139.679672,85.41478z M181.347641,174.371323c-0.05127-2.3479-0.198853-4.162109-0.430176-5.066406 c-0.22583-0.882812-0.511963-1.670532-0.842896-2.382324c0.644409-0.006592,1.293823-0.018311,1.963989-0.055176 c3.701294-0.204468,7.008301-1.344727,9.884033-3.106934c-1.716309,3.913452-2.003052,8.30603-0.89209,12.773193 C187.528305,175.607895,184.292831,174.882065,181.347641,174.371323z M101.82872,205.332504 c-0.666626-3.472412-1.885376-7.080078-3.558716-11.025635c4.910278,1.437256,9.987549,1.843018,14.805176,1.260864 C109.494492,198.406601,105.667953,201.674057,101.82872,205.332504z M135.787094,161.733139 c-1.305908-3.073242-3.449463-6.123779-6.443481-8.817871c1.804565,0.06897,3.614624-0.074463,5.42688-0.447266 c6.327148-1.299316,11.595215-5.199707,15.14502-8.84668c2.357178,6.776978,6.059082,13.812256,12.561401,18.358154 c-7.376587,2.64917-12.695557,5.401001-14.714722,10.009521c-0.676025,1.54248-0.940674,3.216797-0.802979,5.04541 c-1.974487,0.531006-4.065186,1.212402-6.348877,2.091309c-1.918701,0.740967-3.84314,1.590088-5.775146,2.513184 C138.139633,175.522934,138.598862,168.34935,135.787094,161.733139z M111.590805,110.796616 c1.529053,0.976929,3.116211,1.789062,4.757812,2.561035c-3.029053,1.397949-5.302246,3.019897-7,4.723877 c-0.861572-2.246826-2.028809-3.968506-3-5.137939c-0.205322-0.247314-0.44165-0.471924-0.659668-0.710205 C107.677109,112.158188,109.661362,111.678207,111.590805,110.796616z M106.697739,137.892319 c1.197144,2.442993,2.872314,4.776611,4.960693,6.856445c-2.773193-0.500977-5.769043-0.80127-9.0271-0.827148 C104.281479,141.81517,105.618637,139.806137,106.697739,137.892319z M162.738754,201.724838 c-0.427002-0.014893-0.805786-0.04248-1.149902-0.087158c-0.069092-0.015503-0.140625-0.021973-0.211426-0.032715 c-2.40564-0.387207-2.825195-1.856689-3.716797-7.388916c-0.606445-3.762695-1.361328-8.445312-3.664062-13.818848 c-1.492676-3.483398-1.136719-5.092773-0.73877-6c1.00293-2.288574,4.441406-4.345215,11.478516-6.855957 c0.3125-0.044922,0.669922-0.10498,1.062988-0.171875c5.35791-0.915527,8.26709-0.635742,9.305664,3.421875 c0.278809,1.090576,0.395386,3.113037,0.384033,5.613037c-0.008057,0.043335-0.024902,0.082764-0.031006,0.126709 c-0.041748,0.298828-0.023926,0.589722,0.02002,0.873291c-0.031494,1.850342-0.125488,3.909668-0.27124,6.029907 c-0.047607,0.234985-0.05835,0.470093-0.049438,0.703491c-0.538574,7.305664-1.669556,15.079346-2.951294,17.044189 c-0.124268,0.042725-0.283707,0.088638-0.467773,0.124146c-0.051041,0.009842-0.101562,0.020874-0.152588,0.032104 C170.006699,201.651352,166.674057,201.861313,162.738754,201.724838z M202.66246,150.725327 c0.80249,0.558228,1.572388,1.068604,2.340454,1.542969c-1.477661,0.736084-2.914917,1.488525-4.279663,2.302002 C201.462753,153.323227,202.111801,152.035995,202.66246,150.725327z M28.893051,85.25267 c-4.375977-4.771484-4.910156-11.78125-1.36084-17.859863c4.255859-7.295902,13.727051-11.246586,23.039062-9.604496 c1.225098,0.214355,2.45752-0.347656,3.096191-1.416504c0.638184-1.068848,0.550293-2.420898-0.22168-3.397949 c-7.350098-9.304199-6.332031-16.597168-5.845215-18.610352c0.922852-3.810059,5.935059-9.371582,12.726074-12.084473 c2.946777-1.175781,8.60791-2.686035,13.419922,0.42041c3.692383,2.383301,5.063965,6.833496,6.800293,12.467285 c0.309082,1.001953,0.625488,2.027832,0.963867,3.073242c0.353027,1.088867,1.29541,1.882324,2.429199,2.044434 c1.128906,0.160645,2.260254-0.334961,2.904785-1.281738c1.905273-2.79834,3.346191-4.513184,5.932129-7.057129 c4.07373-4.010742,10.081055-5.638672,15.678223-4.254883c5.219238,1.29248,9.132812,4.929199,10.737793,9.977051 c3.927734,12.356445-0.659668,20.998047-15.339844,28.894535c-1.049805,0.564941-1.665527,1.697754-1.568848,2.88623 c0.097168,1.187988,0.888672,2.206055,2.016113,2.593262c1.229004,0.421753,2.970703,1.220459,4.796265,2.343506 c-3.22522,2.677979-5.61438,6.617676-6.781616,11.357178c-1.821289,7.39502-0.42334,15.266602,3.56543,20.058105 c0.10791,0.12915,0.221924,0.248535,0.331543,0.374756c-1.134277,0.141113-2.265869,0.069824-3.387695-0.238037 c-3.608398-0.990234-7.070312-4.369141-10.01123-9.770996c-0.597168-1.09668-1.811523-1.710938-3.04834-1.536621 c-1.236816,0.171875-2.237793,1.092285-2.512695,2.310547c-0.34668,1.535645-0.610352,2.953125-0.865234,4.32373 c-0.154053,0.82959-0.304932,1.633789-0.465088,2.415894c-4.912354-0.205933-9.678711,0.792847-13.324463,3.204224 c-3.957031,2.618164-6.339355,5.764404-8.382202,9.151611c-0.871704-0.353149-1.671021-0.788452-2.391235-1.307251 c-1.142456-2.254883-2.416016-4.088135-3.740967-5.57019c-1.232178-4.615112-0.02124-11.075684,3.533936-18.747803 c0.530762-1.145996,0.287109-2.501953-0.609375-3.391113c-0.896484-0.888672-2.254395-1.12207-3.396484-0.581543 C45.547348,92.14769,34.810532,91.706284,28.893051,85.25267z M64.983383,229.606674 c-4.01123-2.393066-6.708008-6.035645-7.79834-10.532715l-0.041016-0.168457 c-1.69873-7.018555-3.455078-14.276367-2.483887-20.989258c0.172852-1.196777-0.38916-2.379883-1.425293-3.001953 c-1.037598-0.621582-2.345215-0.561523-3.319824,0.154297c-3.233887,2.375-5.55957,3.734375-9.565918,5.592285 c-6.541992,3.019531-15.756836,1.804199-23.475586-3.097656c-6.766113-4.296875-10.831055-10.558594-10.872559-16.748535 c-0.100586-15.609375,8.51416-23.576172,28.804199-26.63916c1.197754-0.180664,2.168945-1.063965,2.462891-2.23877 c0.293457-1.175293-0.147949-2.411621-1.119629-3.134277c-3.556641-2.646484-10.556641-9.849121-11.593262-18.167969 c-0.612305-4.913574,0.928711-9.680664,4.580566-14.16748c4.716309-5.79248,12.111816-8.830566,17.98584-7.387207 c2.111816,0.519043,3.996948,1.587646,5.646484,3.155518c0.902588,2.489624,2.332275,4.612915,4.261475,6.330078 c0.956543,2.163574,1.734497,4.657959,2.311768,7.486084c0.24707,1.208984,1.208984,2.143555,2.424805,2.355469 c1.217773,0.210938,2.437988-0.342773,3.078125-1.397461c0.958984-1.577637,1.780273-3.058105,2.574219-4.489746 c2.45459-4.425781,4.393066-7.921387,8.489258-10.631836c6.132324-4.057129,19.758301-2.414551,25.825195,4.889648 c5.750977,6.923828,2.854004,17.004395-8.157715,28.385742c-0.875488,0.904297-1.092773,2.259277-0.544922,3.392578 c0.547852,1.132812,1.750977,1.802246,2.998047,1.678711c20.057129-1.998535,30.835938,5.841309,34.236816,13.845215 c2.999512,7.057617,0.924805,15.027344-5.284668,20.303711c-7.810547,6.63623-20.632812,7.312012-31.181152,1.644043 c-1.145996-0.615234-2.558594-0.421875-3.498047,0.479004c-0.938477,0.901367-1.188965,2.305664-0.619629,3.476074 c4.071533,8.370239,6.640381,14.855713,6.723389,20.796631c-5.867676,6.214844-11.49707,13.332397-16.034424,21.236816 C75.070053,233.098495,69.402451,232.243393,64.983383,229.606674z M80.234848,269.64328 c-3.693848-4.317383-4.22998-9.249023-1.913086-17.591782c1.540771-5.562744,3.709175-10.908112,6.559204-15.834229 c0.02301-0.03978,0.043091-0.080322,0.065063-0.120605c4.533203-8.179321,10.371948-15.524414,16.455933-21.876099 c0.044556-0.040527,0.082031-0.087524,0.124146-0.130615c5.154785-5.367065,10.479614-10.021118,15.330322-13.863647 c9.109863-7.215332,17.587402-12.286621,25.912598-15.502441c2.083496-0.801758,3.973145-1.4198,5.740234-1.895264 c0.4104,0.962646,0.755127,1.89563,1.062988,2.809326c-21.854492,19.849121-61.637939,66.147461-55.476807,91.51268 c-2.6521-0.275635-5.188965-1.06311-7.571533-2.379395C84.139633,273.453339,82.022446,271.726776,80.234848,269.64328z M133.315414,245.80101c-5.811035,9.890137-14.980957,23.690414-27.472168,29.324203 c-1.846558,0.829102-3.72168,1.414551-5.599487,1.763184c-6.542358-19.168945,27.00647-62.080063,51.001343-84.628647 c0.183594,1.003418,0.341187,1.974121,0.492188,2.910889c0.356201,2.209839,0.720337,4.444824,1.470581,6.406982 C147.091049,218.944809,140.579453,233.425766,133.315414,245.80101z M148.80809,299.391327 c-0.688477,1.053711-1.346191,2.124023-1.996094,3.183594c-3.520508,5.73584-5.916016,9.286133-10.606934,9.966309 c-0.035156,0.004883-0.070312,0.010742-0.105469,0.01709l-39.545898,7.185547 c3.693848-3.996582,7.697754-6.976562,12.384277-10.464844c6.111816-4.549316,13.039062-9.705078,21.284668-18.659668 c17.218628-18.698242,27.472412-69.029526,30.065918-83.126205c0.11499,0.024902,0.235352,0.031738,0.354858,0.043213 c0.589722,0.091064,1.207397,0.160889,1.886353,0.18457c1.061523,0.037109,2.037598,0.054199,2.9375,0.054199 c0.296631,0,0.566162-0.005859,0.846191-0.009399c-0.17041,6.336304-0.42627,13.575073-0.922363,21.245239 c-0.001465,0.024414-0.00293,0.051758-0.003906,0.080078C163.252426,262.152069,157.673813,285.806366,148.80809,299.391327z M224.736801,299.567108c1.187988,4.661133,1.11084,11.473145-1.73877,16.18457 c-1.441406,2.383301-3.445312,3.894043-5.95752,4.491211l-26.118164,6.21582 c14.074707-29.513184,7.975098-45.326172-0.913086-57.96875c-7.917969-11.286987-14.971924-29.482162-18.593384-39.704575 c0.428833-6.786133,0.675659-13.216553,0.842651-18.975098c2.298218,3.685547,5.060547,7.636292,7.962769,11.79541 c12.465118,17.863525,26.412354,39.553207,33.772827,53.150375C218.206528,282.526581,222.505844,290.843475,224.736801,299.567108z M182.9785,214.943588c-2.285889-3.40918-4.451538-6.63916-6.430176-9.608032 c2.202881-2.623901,3.550537-9.817993,4.241821-17.148804c6.033569,2.228882,12.734985,4.973267,19.164917,8.611816 c12.848145,7.259277,21.998047,17.162598,27.195801,29.434082c2.723145,6.427124,6.682373,18.589844,4.122925,30.530014 c-14.258545-2.567734-32.312653-18.851349-45.915283-38.268784C184.530441,217.311844,183.760727,216.110214,182.9785,214.943588z M250.173325,248.783432c-3.683472,4.853027-7.912354,7.549423-12.842773,8.181625 c2.461914-13.187973-1.724976-26.156479-4.655273-33.072739c-5.725586-13.518555-15.741211-24.391602-29.76709-32.316406 c-7.367432-4.169922-14.971924-7.187012-21.68042-9.61731c0.023682-0.505127,0.044678-1.004517,0.062134-1.496338 c11.502808,2.127563,27.466919,7.500122,47.564087,16.023804c15.230469,6.462891,21.125977,17.941406,23.389648,26.433105 C255.390121,234.72142,252.926254,245.150131,250.173325,248.783432z M233.097641,191.815903 c0.116821-0.092041,0.235352-0.177979,0.351562-0.271729c0.030273,0.165527,0.074585,0.327637,0.1073,0.492676 C233.403549,191.96312,233.252426,191.888535,233.097641,191.815903z M298.998505,162.785385 c-3.038086,7.515625-12.543457,9.412109-26.76709,5.337402c-1.214844-0.347168-2.516113,0.102539-3.256836,1.125977 c-0.740234,1.023438-0.760254,2.401367-0.049805,3.445801c8.210938,12.070801,9.533203,23.765137,3.537109,31.283203 c-4.45459,5.584961-11.996582,7.366699-19.227036,4.537598c-0.351562-0.135742-0.717041-0.297852-1.087646-0.472534 c-2.611328-4.001953-6.124268-7.949341-10.853638-11.403076c-1.621338-3.555054-2.445923-7.500366-2.370239-11.469604 c0.023926-1.245605-0.724609-2.375977-1.880859-2.84082c-1.155273-0.465332-2.478516-0.166992-3.32373,0.749512 c-2.246826,2.435181-4.628662,4.436523-7.094849,5.970703c-10.730103-4.432617-20.265259-7.937744-28.543091-10.493042 c-1.535645-3.338013-2.657959-7.907593-0.638916-12.448853c1.970703-4.447754,6.563965-6.686523,12.379395-9.520996 c1.008301-0.491699,2.040527-0.994629,3.088867-1.523926c1.021973-0.516113,1.661621-1.569336,1.647949-2.713867 c-0.013672-1.14502-0.678223-2.182617-1.712402-2.673828c-3.365234-1.599609-5.455566-2.86377-8.606445-5.207031 c-5.053711-3.745605-7.848145-9.998535-7.293945-16.318359c0.518555-5.905762,3.814941-10.789551,9.044922-13.398438 c5.803223-2.898193,11.066406-3.73999,16.121216-2.42627c0.170044,0.060547,0.342163,0.108765,0.516724,0.137207 c5.836548,1.692139,11.407959,6.286377,17.22583,13.965332c0.721191,0.951172,1.936035,1.385254,3.096191,1.104492 c1.159668-0.280273,2.042969-1.221191,2.249512-2.396484c0.648438-3.686523,3.487305-11.762695,9.594238-15.941406 c3.817856-2.611328,8.46727-3.394531,13.818344-2.331055c6.760254,1.348145,12.312012,5.86377,13.500977,10.981445 c1.179688,5.079102-1.834473,10.547852-8.71582,15.814453c-0.992188,0.759277-1.409668,2.053711-1.048828,3.25 c0.361328,1.195801,1.42627,2.04248,2.672363,2.125488c1.707031,0.11377,3.275391,0.158691,4.79248,0.20166 c4.661133,0.132324,8.342773,0.236816,12.269043,2.32959C297.702118,144.557846,302.08493,155.148666,298.998505,162.785385z M232.273422,133.070053c-3.62207,1.933594-11.585938,8.179199-7.318848,24.37207 c2.296875,8.71875,8.455078,13.672363,16.946289,13.672363c0.20459,0,0.410645-0.00293,0.617676-0.008301 c8.191406-0.228516,14.439438-3.30957,18.570786-9.158691c5.683594-8.045898,5.643555-16.398926-0.109375-22.91748 C254.058578,131.188217,240.913559,128.457748,232.273422,133.070053z M256.188934,158.48558 c-3.066391,4.34082-7.462875,6.445312-13.837387,6.622559c-7.506348,0.229004-10.459473-4.884277-11.595215-9.194336 c-1.60498-6.092285-2.154785-14.082031,4.342773-17.550781c1.950684-1.041504,4.306641-1.530273,6.776855-1.530273 c5.318848,0,11.163574,2.268066,14.605453,6.16748C260.349579,147.38353,260.248505,152.738022,256.188934,158.48558z M81.121078,87.014877c2.885254,0,5.759277-0.86377,8.495117-2.609863c8.209961-5.239746,12.609375-16.945801,9.606934-25.562016 c-1.262695-3.625488-5.877441-11.883301-21.394043-10.289551c-8.455566,0.870605-14.118164,6.197754-15.148438,14.251465 c-0.967773,7.567387,0.97168,13.761234,5.764648,18.409184C72.411118,85.059799,76.778793,87.014877,81.121078,87.014877z M68.631821,63.566143c0.86084-6.729004,5.811035-8.632324,9.811523-9.043945 c5.689453-0.587402,12.931152,0.030762,15.114258,6.294922c2.081543,5.974613-1.335449,14.807133-7.168945,18.530277 c-4.438965,2.83252-9.19873,1.988281-13.766602-2.440918C69.165024,73.55394,67.896957,69.314194,68.631821,63.566143z"/></g></svg>