<?xml version="1.0" encoding="UTF-8"?><!DOCTYPE svg PUBLIC "-//W3C//DTD SVG 1.0//EN" "http://www.w3.org/TR/2001/REC-SVG-20010904/DTD/svg10.dtd" []><svg xmlns="http://www.w3.org/2000/svg" xmlns:xlink="http://www.w3.org/1999/xlink" height="933" preserveAspectRatio="xMidYMid meet" version="1.0" viewBox="172.8 32.0 657.1 932.6" width="657" zoomAndPan="magnify" fill="currentColor"><g id="change1_1"><path d="M 494.512 37.750 C 493.014 40.913, 491.611 44.175, 491.394 45 C 490.700 47.639, 487.009 63.342, 485.988 68 C 485.446 70.475, 484.327 75.425, 483.502 79 C 482.678 82.575, 481.311 88.982, 480.465 93.238 C 479.620 97.493, 476.516 108.068, 473.568 116.738 C 470.619 125.407, 466.852 137, 465.194 142.500 C 463.537 148, 461.014 156.355, 459.588 161.066 C 456.195 172.271, 451.882 191.711, 448.511 211 C 447.020 219.525, 445.151 228.669, 444.357 231.321 C 443.563 233.972, 442.461 238.247, 441.908 240.821 C 439.867 250.320, 438.973 253.753, 433.537 273 C 432.167 277.850, 428.213 294.011, 425.953 304 C 425.517 305.925, 423.280 314.700, 420.981 323.500 C 418.683 332.300, 416.586 340.427, 416.321 341.559 C 416 342.935, 417.161 345.289, 419.820 348.653 C 425.949 356.407, 428.306 361.720, 428.402 368 C 428.449 371.025, 428.377 387.953, 428.243 405.617 L 428 437.734 424.250 440.247 C 420.232 442.939, 413.690 448.548, 399.773 461.236 C 394.973 465.612, 385.748 473.464, 379.273 478.685 C 364.362 490.707, 359.498 495.238, 326.500 527.849 C 311.650 542.524, 293.200 560.325, 285.500 567.405 C 254.982 595.468, 202.030 650.626, 189.647 667.251 C 184.493 674.171, 182.156 677.996, 175.914 689.725 C 172.940 695.313, 172.849 696.822, 174.505 713 C 175.447 722.205, 176.228 723.360, 180.936 722.508 C 183.595 722.027, 186.479 719.914, 192.297 714.182 L 200.094 706.500 199.496 735.500 C 198.798 769.367, 198.753 781.796, 198.986 876 C 199.081 914.775, 199.579 948.727, 200.091 951.448 C 201.775 960.388, 202.222 960.568, 223.235 960.790 C 233.281 960.895, 243.075 961.204, 245 961.475 C 246.925 961.747, 256.150 961.517, 265.500 960.965 C 283.440 959.906, 320.518 959.745, 360.500 960.554 C 373.700 960.821, 407.675 961.213, 436 961.426 C 464.325 961.638, 488.400 962.026, 489.500 962.288 C 491.804 962.836, 528.544 964.036, 553.500 964.379 C 572.484 964.639, 592.976 963.799, 609.500 962.084 C 616.598 961.347, 638.768 961.027, 672 961.180 C 735.788 961.476, 747.038 961.462, 774 961.053 C 797.934 960.691, 800.997 960.031, 801.066 955.217 C 801.087 953.723, 801.592 925.950, 802.188 893.500 C 803.938 798.184, 803.839 778.648, 801.469 752 C 801.050 747.284, 801.396 739.162, 802.401 730.121 C 803.280 722.213, 804 713.724, 804 711.257 L 804 706.771 810.540 712.888 C 818.933 720.740, 821.399 722.326, 823.952 721.515 C 827.597 720.358, 828.071 718.384, 829.480 698.500 C 829.965 691.651, 829.763 690.041, 828.072 687.306 C 825.830 683.680, 795.002 651.285, 766 622.080 C 755.275 611.280, 742.900 598.406, 738.500 593.472 C 716.340 568.620, 693.965 545.794, 680 533.793 C 674.225 528.830, 666.625 522.254, 663.112 519.180 C 659.599 516.106, 647.839 503.670, 636.980 491.545 C 626.120 479.420, 608.970 461.337, 598.867 451.360 C 579.348 432.082, 574.551 427.720, 571.750 426.700 C 570.209 426.139, 570 424.550, 570 413.393 C 570 382.666, 573.541 363.680, 582.609 345.785 C 583.924 343.190, 585 340.188, 585 339.113 C 585 337.066, 580.938 322.418, 573.598 298 C 568.382 280.646, 566.986 275.212, 565.945 268.199 C 564.706 259.846, 560.221 240.591, 558.912 238 C 557.933 236.064, 555.913 227.726, 552.491 211.500 C 550.983 204.350, 547.731 190.625, 545.264 181 C 542.797 171.375, 539.235 156.975, 537.347 149 C 533.290 131.857, 529.995 121.252, 525.539 111 C 523.746 106.875, 521.969 100.995, 521.590 97.933 C 520.399 88.302, 515.608 67.832, 510.372 50 C 505.745 34.246, 504.447 32, 499.962 32 C 497.623 32, 496.846 32.821, 494.512 37.750 M 496.621 75.835 C 491.198 93.367, 487.469 106.986, 483.433 124 C 481.933 130.325, 479.425 139.550, 477.861 144.500 C 476.297 149.450, 474.301 156.650, 473.424 160.500 C 472.548 164.350, 469.674 175.375, 467.037 185 C 464.400 194.625, 461.233 207, 459.998 212.500 C 456.102 229.851, 452.964 243.233, 450.851 251.500 C 449.727 255.900, 448.412 261.300, 447.930 263.500 C 447.448 265.700, 446.392 269.750, 445.582 272.500 C 444.773 275.250, 442.319 284.250, 440.130 292.500 C 436.712 305.381, 435.153 312.285, 431.527 330.576 L 430.917 333.653 474.209 333.576 C 498.019 333.534, 524.700 333.676, 533.500 333.891 C 542.300 334.107, 554.264 334.219, 560.086 334.141 L 570.673 334 565.921 314.750 C 560.499 292.791, 556.556 274.968, 553.919 260.500 C 552.917 255, 550.029 243.750, 547.503 235.500 C 543.496 222.414, 541.237 214.071, 537.213 197.500 C 536.679 195.300, 533.960 185.625, 531.171 176 C 528.381 166.375, 524.677 152.425, 522.939 145 C 521.201 137.575, 518.204 126.325, 516.280 120 C 509.717 98.435, 506.987 87.507, 505.913 78.500 C 504.768 68.907, 503.128 61.197, 502.096 60.560 C 501.750 60.346, 499.287 67.220, 496.621 75.835 M 506.314 132.750 C 506.632 134.813, 508.039 141.225, 509.441 147 C 514.334 167.152, 520.124 196.164, 521.515 207.500 C 522.482 215.380, 528.691 244.376, 531.580 254.500 C 540.372 285.313, 542.361 291.788, 544.064 295.126 C 546.169 299.252, 547.117 299.768, 548.820 297.717 C 550.001 296.294, 548.096 288.116, 543.530 275 C 540.254 265.593, 534.708 243.485, 532.491 231 C 531.563 225.775, 529.278 214.525, 527.414 206 C 525.549 197.475, 523.559 187.125, 522.991 183 C 521.676 173.440, 519.660 162.625, 516.385 147.554 C 513.376 133.707, 511.053 129.059, 507.118 129.015 C 506.084 129.004, 505.882 129.944, 506.314 132.750 M 435.217 346.761 C 434.331 347.056, 434.515 347.918, 435.875 349.836 C 440.828 356.823, 442.517 369.759, 441.969 396.500 C 441.436 422.478, 441.497 432.457, 442.256 443.500 C 442.796 451.361, 442.585 457.895, 441.514 466.395 C 440.691 472.937, 439.977 485.087, 439.929 493.395 C 439.832 510.134, 438.857 598.193, 438.639 610 C 438.503 617.334, 439.809 641.142, 440.378 641.712 C 440.536 641.870, 453.151 629.399, 468.412 614 C 485.325 596.931, 496.898 586, 498.054 586 C 500.089 586, 508.765 594.392, 540.306 626.872 C 551.187 638.077, 560.224 647.077, 560.388 646.872 C 560.842 646.308, 559.211 556.088, 558.664 551.500 C 557.688 543.305, 557.208 479.760, 557.969 459.500 C 558.403 447.950, 559.063 419.825, 559.436 397 L 560.114 355.500 562.563 351.312 C 563.909 349.009, 564.641 346.896, 564.188 346.616 C 563.218 346.017, 437.025 346.158, 435.217 346.761 M 490.857 400.821 C 485.054 405.916, 481.842 412.993, 481.554 421.317 C 481.327 427.874, 480.900 429.178, 476.653 436.279 C 469.944 447.495, 470.210 448.194, 481.500 449 C 488.263 449.483, 488.490 449.585, 488.216 452 C 487.595 457.472, 492.665 462, 499.411 462 C 504.592 462, 507.308 458.743, 506.709 453.250 L 506.246 449 513.189 449 C 524.676 449, 526.466 446.601, 520.730 438.894 C 512.068 427.255, 512.021 427.141, 512.674 419.348 C 513.181 413.304, 512.945 411.523, 511.152 407.848 C 508.648 402.719, 503.654 399.032, 498.222 398.303 C 494.900 397.857, 493.806 398.231, 490.857 400.821 M 494.268 407.656 C 493.110 408.125, 491.076 414.038, 490.537 418.500 C 489.663 425.738, 488.392 429.884, 485.452 435.085 L 482.109 441 498.138 441 L 514.167 441 512.333 438.626 C 511.325 437.321, 509.157 434.552, 507.515 432.473 C 504.938 429.211, 504.442 427.566, 503.888 420.449 C 503.026 409.360, 500.001 405.337, 494.268 407.656 M 570.924 447 C 570.907 447.825, 570.655 451.038, 570.364 454.140 L 569.834 459.779 576.667 465.320 C 580.425 468.367, 587.850 475.504, 593.166 481.180 C 598.483 486.856, 607.257 495.775, 612.665 501 C 624.817 512.742, 638.848 526.833, 649.904 538.397 C 656.797 545.608, 677.288 564.579, 691.500 576.908 C 694.407 579.430, 710.562 593.752, 716.354 598.942 C 733.338 614.162, 796.973 678.256, 807.178 690.420 C 811.755 695.876, 816.063 700.526, 816.750 700.753 C 818.535 701.344, 818.310 694.994, 816.460 692.547 C 815.648 691.474, 811.500 686.955, 807.242 682.506 C 760.335 633.499, 731.678 604.298, 722.500 596.158 C 702.678 578.577, 641.289 517.364, 622.049 495.996 C 605.279 477.371, 570.975 444.495, 570.924 447 M 410.500 465.922 C 401.150 475.428, 389.254 487.322, 384.065 492.353 C 359.049 516.605, 350.451 525.425, 341.030 536.500 C 335.415 543.100, 328.049 551.708, 324.661 555.630 C 318.264 563.033, 278.219 603.172, 252.998 627.462 C 245.024 635.141, 230.175 649.550, 220 659.483 C 209.825 669.415, 198.020 680.798, 193.766 684.778 L 186.032 692.014 186.659 698.007 C 187.003 701.303, 187.333 703.991, 187.392 703.979 C 187.452 703.967, 193.348 698.455, 200.496 691.729 C 217.529 675.702, 236.621 656.545, 251.500 640.553 C 267.202 623.676, 289.455 600.678, 294.498 596.116 C 301.609 589.683, 364.121 527.879, 376.493 515.050 C 383.097 508.202, 397.050 493.888, 407.500 483.242 C 427.746 462.616, 428.455 461.543, 427.791 452.569 L 427.500 448.639 410.500 465.922 M 569.431 483 C 569.786 488.775, 569.947 509.700, 569.789 529.500 C 569.472 569.025, 569.790 611.409, 570.468 620 C 570.707 623.025, 571.212 632.817, 571.591 641.761 L 572.279 658.021 580.890 666.393 C 585.625 670.997, 592.425 677.153, 596 680.072 C 599.575 682.992, 606.775 689.238, 612 693.952 C 617.225 698.667, 623.309 703.822, 625.521 705.408 C 632.494 710.408, 632.876 711.372, 631.307 720 C 629.377 730.620, 627.098 737.980, 625.699 738.118 C 622.761 738.409, 621.206 737.558, 616.768 733.228 L 612.037 728.612 611.991 785.056 C 611.941 847.256, 611.324 932.839, 610.854 943 L 610.553 949.500 623.526 949.666 C 630.662 949.758, 644.600 949.368, 654.500 948.800 C 673.665 947.700, 762.425 947.510, 780 948.530 L 790.500 949.140 790.929 914.820 C 791.165 895.944, 791.413 861.825, 791.479 839 C 791.652 779.993, 792.710 704.173, 793.424 699.707 L 794.030 695.914 764.265 666.190 C 731.842 633.811, 688.534 592.098, 667.500 572.990 C 641.954 549.782, 585.935 493.179, 577.500 482.052 C 576.400 480.601, 573.989 477.858, 572.142 475.957 L 568.784 472.500 569.431 483 M 423.500 482.903 C 421.850 484.775, 415.159 491.525, 408.631 497.903 C 402.103 504.282, 393.485 513.550, 389.480 518.500 C 380.645 529.420, 366.738 543.675, 350 558.967 C 343.125 565.249, 319.950 587.981, 298.500 609.484 C 277.050 630.987, 257.253 650.362, 254.506 652.540 C 249.050 656.867, 213.588 692.271, 211.476 695.500 C 209.875 697.948, 209.545 733.557, 210.213 832 C 210.465 869.125, 210.408 903.550, 210.086 908.500 C 209.764 913.450, 209.633 924.250, 209.796 932.500 L 210.092 947.500 242.796 947.598 C 260.783 947.652, 299.650 947.877, 329.166 948.098 C 358.682 948.319, 383.197 948.135, 383.644 947.688 C 384.091 947.242, 384.299 940.267, 384.107 932.188 C 383.915 924.110, 383.759 916.375, 383.760 915 C 383.762 913.625, 383.805 896.975, 383.856 878 C 383.907 859.025, 383.571 839.225, 383.110 834 C 382.290 824.707, 382.430 808.991, 383.467 794 C 383.966 786.779, 384.648 769.533, 385.415 744.723 L 385.779 732.946 378.030 740.349 C 369.672 748.334, 363.848 751.334, 361.504 748.861 C 360.688 748.001, 359.992 743.269, 359.613 736 L 359.013 724.500 384.327 699.500 C 398.249 685.750, 414.222 669.476, 419.820 663.335 C 431.337 650.703, 431.063 651.560, 429.070 634.474 C 428.559 630.088, 427.855 623.148, 427.507 619.052 C 427.158 614.956, 426.713 611.344, 426.517 611.027 C 425.312 609.077, 424.950 570.245, 425.954 550.574 C 427.301 524.174, 427.776 495.419, 427.021 486 L 426.500 479.500 423.500 482.903 M 488.434 609.338 C 483.520 614.475, 476.145 622.462, 472.045 627.088 C 467.945 631.715, 459.395 640.421, 453.045 646.434 C 434.960 663.563, 386.222 712.597, 377.964 721.973 C 368.667 732.528, 372.686 729.590, 384.048 717.526 C 388.697 712.591, 395.650 705.621, 399.500 702.039 C 403.350 698.456, 423.392 678.644, 444.039 658.012 C 483.467 618.612, 496.660 605.998, 498.431 606.004 C 501.362 606.014, 509.084 613.207, 551.535 655.469 C 581.248 685.049, 600.974 703.873, 607.324 708.707 C 612.727 712.820, 617.331 716.003, 617.554 715.779 C 617.777 715.556, 612.314 709.777, 605.414 702.937 C 598.513 696.097, 589.635 687.177, 585.684 683.116 C 576.349 673.522, 571.440 668.929, 568.369 666.914 C 565.842 665.257, 543.719 644.289, 514.386 615.750 C 505.483 607.087, 498.011 600, 497.783 600 C 497.555 600, 493.348 604.202, 488.434 609.338 M 492.341 625.250 C 489.140 628.138, 467.054 650.054, 443.260 673.953 L 400 717.407 399.982 726.453 C 399.972 731.429, 399.480 739.550, 398.889 744.500 C 397.650 754.869, 396.874 804.189, 396.623 888.500 L 396.448 947.500 416.974 947.194 C 428.263 947.025, 437.868 946.522, 438.317 946.076 C 438.767 945.630, 439.053 935.868, 438.952 924.383 C 438.587 882.563, 438.584 869.213, 438.938 854.500 C 439.136 846.250, 439.217 831.850, 439.117 822.500 C 438.935 805.367, 439.192 801.634, 441.182 792.500 C 443.204 783.220, 447.835 776.630, 454.791 773.135 C 462.915 769.053, 467.698 768.671, 502.958 769.286 C 540.839 769.947, 543.738 770.402, 550.229 776.699 C 557.448 783.702, 560.126 792.602, 560.153 809.680 C 560.169 819.925, 559.195 908.811, 559.032 912 C 558.990 912.825, 559.181 921.375, 559.455 931 L 559.955 948.500 578.977 948.544 L 598 948.589 598.021 936.544 C 598.033 929.920, 598.145 877.830, 598.271 820.790 L 598.500 717.080 577.467 696.290 C 565.900 684.855, 550.600 670.261, 543.467 663.857 C 531.219 652.860, 522.268 643.996, 506.499 627.250 C 502.744 623.263, 499.332 620, 498.917 620 C 498.501 620, 495.542 622.362, 492.341 625.250 M 488.990 650.343 C 483.749 652.219, 473.698 659.366, 469.646 664.101 C 464.633 669.958, 459.951 681.712, 459.284 690.118 C 458.801 696.213, 459.043 697.557, 461.508 702.428 C 465.721 710.755, 474.014 720.140, 480.148 723.522 C 484.755 726.063, 486.689 726.504, 494.044 726.688 C 507.199 727.017, 517.120 723.400, 523.342 716.005 C 535.548 701.499, 537.450 684.947, 528.881 667.815 C 524.809 659.675, 520.681 656.899, 504.500 651.422 C 496.572 648.738, 493.981 648.558, 488.990 650.343 M 491.500 664.686 C 481.249 667.012, 475.293 671.757, 472.561 679.774 C 469.569 688.557, 471.103 698.169, 476.709 705.759 C 479.860 710.026, 484.724 712.413, 494.587 714.533 C 502.239 716.177, 502.826 716.176, 506.322 714.517 C 510.562 712.505, 520.072 702.475, 522.410 697.549 C 523.284 695.706, 523.977 692.016, 523.948 689.349 C 523.856 680.620, 517.166 667.495, 512.336 666.565 C 511.188 666.344, 508.506 665.679, 506.375 665.087 C 502.517 664.016, 495.309 663.822, 491.500 664.686 M 285.475 674.765 C 284.235 675.653, 280.999 685.635, 277.131 700.500 C 275.557 706.550, 271.580 720.950, 268.293 732.500 C 265.006 744.050, 261.776 756.321, 261.115 759.769 C 260.454 763.217, 258.343 770.867, 256.424 776.769 C 252.530 788.741, 252.280 791.507, 253.287 811.500 C 253.674 819.200, 254.012 839.210, 254.038 855.967 C 254.078 882.554, 254.289 886.662, 255.697 888.217 C 257.172 889.848, 259.705 889.998, 285.405 889.976 C 314.204 889.952, 320.539 889.351, 322.665 886.443 C 324.853 883.451, 325.246 874.369, 323.992 855.774 C 323.314 845.723, 322.813 825.039, 322.877 809.808 C 322.955 791.358, 322.619 781.178, 321.869 779.308 C 321.250 777.764, 320.379 774.925, 319.932 773 C 319.485 771.075, 318.171 766.350, 317.010 762.500 C 315.850 758.650, 313.166 748.750, 311.046 740.500 C 302.270 706.342, 294.533 681.008, 291.424 676.250 C 289.958 674.006, 287.419 673.372, 285.475 674.765 M 706.297 679.250 C 705.775 679.938, 704.191 683.875, 702.776 688 C 701.361 692.125, 696.774 705.386, 692.582 717.470 C 685.669 737.395, 676 770.002, 676 773.387 C 676 774.134, 674.811 778.290, 673.358 782.622 C 671.014 789.611, 670.732 791.910, 670.862 803 C 670.942 809.875, 671.495 822.025, 672.091 830 C 672.687 837.975, 673.366 853.275, 673.601 864 C 673.836 874.725, 674.274 885.819, 674.574 888.653 C 675.394 896.398, 675.636 896.449, 710.823 896.238 C 726.997 896.141, 741.097 895.786, 742.157 895.450 C 743.965 894.876, 745.837 889.840, 745.113 887.500 C 744.747 886.316, 743.889 835.543, 743.661 801.500 L 743.500 777.500 739.158 763.500 C 736.769 755.800, 732.847 743.425, 730.441 736 C 728.036 728.575, 724.469 716.474, 722.515 709.108 C 718.895 695.458, 712.980 680.240, 710.741 678.819 C 708.938 677.674, 707.378 677.825, 706.297 679.250 M 292.187 748.750 L 292.300 783 302.729 783 L 313.159 783 312.485 779.750 C 311.381 774.429, 305.958 754.925, 303.907 748.897 C 302.858 745.816, 302 742.364, 302 741.227 C 302 738.706, 296.482 722.829, 293.927 718 C 292.094 714.536, 292.076 714.853, 292.187 748.750 M 712.752 724.500 C 711.858 737.253, 713.080 784.107, 714.397 787.579 C 714.622 788.172, 716.312 788.548, 718.153 788.415 C 719.994 788.281, 724.020 788.133, 727.099 788.086 L 732.698 788 728.983 774.250 C 726.940 766.688, 723.689 755.100, 721.759 748.500 C 719.829 741.900, 717.695 733.841, 717.018 730.592 C 716.340 727.342, 715.214 723.067, 714.514 721.092 L 713.243 717.500 712.752 724.500 M 284.139 730.809 C 281.708 737.841, 274.882 755.658, 270.083 767.500 C 268.522 771.350, 266.941 777.020, 266.570 780.100 L 265.894 785.699 270.697 784.909 C 273.339 784.475, 277.813 784.092, 280.641 784.060 L 285.781 784 286.200 754.250 C 286.430 737.888, 286.581 724.414, 286.535 724.309 C 286.489 724.204, 285.411 727.129, 284.139 730.809 M 705.855 729 C 705.175 731.633, 699.215 748.663, 693.957 763 C 683.386 791.817, 683.469 791.449, 687.750 790.638 C 689.263 790.352, 694.325 789.836, 699 789.491 L 707.500 788.864 707.237 764.182 C 706.891 731.786, 706.659 725.883, 705.855 729 M 481.669 784.627 C 481.576 784.696, 477.875 785.005, 473.445 785.313 C 462.615 786.066, 456.184 787.790, 454.475 790.398 C 451.841 794.418, 450.566 804.474, 449.137 832.500 C 448.772 839.650, 448.561 847.750, 448.667 850.500 C 448.773 853.250, 449.079 868.869, 449.346 885.209 C 449.613 901.549, 450.065 915.296, 450.351 915.759 C 450.637 916.221, 450.968 923.630, 451.087 932.223 C 451.294 947.153, 451.397 947.871, 453.402 948.409 C 454.556 948.719, 464.751 948.979, 476.059 948.986 L 496.617 949 496.794 934.250 C 496.966 919.958, 497.439 909.501, 498.524 896 C 499.514 883.692, 499.799 846.484, 498.973 837.500 C 497.522 821.732, 497.087 812.863, 497.043 798.186 L 497 783.872 489.419 784.186 C 485.250 784.359, 481.762 784.557, 481.669 784.627 M 507.020 809.636 C 507.031 823.861, 507.473 838.425, 508.002 842 C 509.105 849.456, 510.470 867.364, 510.440 874 C 510.429 876.475, 509.995 885.025, 509.477 893 C 508.958 900.975, 508.526 916.648, 508.517 927.830 L 508.500 948.160 527.651 948.644 C 540.097 948.958, 547.023 948.771, 547.433 948.109 C 547.779 947.549, 547.559 938.407, 546.945 927.795 C 546.330 917.183, 545.970 900.400, 546.146 890.500 C 546.886 848.766, 545.841 802.764, 543.920 792.525 C 543.402 789.761, 542.222 786.938, 541.298 786.250 C 540.374 785.563, 537.116 784.983, 534.059 784.963 C 531.001 784.942, 523.663 784.666, 517.750 784.349 L 507 783.773 507.020 809.636 M 300.402 789.739 L 293.305 790.081 292.663 802.291 C 292.310 809.006, 291.725 818.209, 291.363 822.742 L 290.705 830.985 301.220 830.823 L 311.735 830.662 312.368 823.180 C 312.715 819.065, 313 809.691, 313 802.349 L 313 789 310.250 789.199 C 308.738 789.308, 304.306 789.551, 300.402 789.739 M 275.500 791.248 C 270 791.777, 265.180 792.724, 264.789 793.351 C 264.398 793.978, 264.173 803.203, 264.289 813.851 L 264.500 833.211 272.500 832.553 C 283.372 831.658, 283.664 831.526, 284.322 827.222 C 285.042 822.514, 286.422 789.951, 285.893 790.142 C 285.677 790.220, 281 790.718, 275.500 791.248 M 721.250 795.229 L 714 796.190 713.964 812.345 C 713.944 821.230, 713.669 831.055, 713.353 834.179 L 712.778 839.858 722.391 840.179 L 732.004 840.500 732.002 820.375 C 732.001 809.306, 732.281 798.844, 732.625 797.125 C 733.342 793.540, 733.631 793.588, 721.250 795.229 M 685.231 796.836 C 684.355 797.392, 684.036 799.938, 684.199 805.071 C 684.329 809.157, 684.308 816.550, 684.152 821.500 C 683.996 826.450, 683.898 832.896, 683.934 835.824 L 684 841.148 695.250 840.458 C 701.438 840.079, 706.837 839.569, 707.250 839.325 C 707.663 839.081, 708 829.234, 708 817.441 L 708 796 697.250 796.015 C 691.337 796.024, 685.929 796.393, 685.231 796.836 M 295.875 837.730 C 291.302 838.095, 291.244 838.145, 290.706 842.156 C 290.407 844.387, 290.416 853.736, 290.727 862.932 L 291.293 879.651 301.147 879.746 L 311 879.842 311 858.421 L 311 837 305.750 837.180 C 302.863 837.279, 298.419 837.527, 295.875 837.730 M 270.500 838.792 L 264.500 839.084 264.210 859.042 L 263.919 879 274.544 879 L 285.169 879 284.643 868.250 C 284.354 862.337, 284.091 853.174, 284.059 847.886 L 284 838.273 280.250 838.386 C 278.188 838.449, 273.800 838.631, 270.500 838.792 M 695.500 847.948 L 684.500 848.500 684.500 864.927 C 684.500 877.209, 684.833 881.688, 685.821 882.677 C 686.739 883.596, 690.164 884, 697.039 884 L 706.934 884 706.905 865.500 C 706.889 855.325, 706.791 847.089, 706.688 847.198 C 706.585 847.306, 701.550 847.644, 695.500 847.948 M 713.667 847.667 C 713.300 848.033, 713 856.358, 713 866.167 L 713 884 719.750 884.128 C 723.462 884.198, 727.513 884.361, 728.750 884.491 C 730.902 884.717, 731.003 884.397, 731.059 877.113 C 731.092 872.926, 731.350 864.438, 731.634 858.250 L 732.149 847 723.241 847 C 718.342 847, 714.033 847.300, 713.667 847.667 M 477.748 872.585 C 477.427 872.907, 477.609 874.449, 478.154 876.012 C 479.128 878.807, 483.059 881, 487.093 881 C 489.945 881, 494.448 876.609, 493.671 874.585 C 493.108 873.118, 492.189 872.957, 487.624 873.528 C 484.099 873.968, 482.007 873.821, 481.562 873.100 C 480.831 871.918, 478.703 871.630, 477.748 872.585 M 513.418 872.917 C 513.188 873.146, 513 874.600, 513 876.148 C 513 879.634, 516.408 880.793, 521.860 879.160 C 526.898 877.651, 529.237 875.782, 528.498 873.856 C 528.014 872.594, 526.437 872.290, 520.862 872.383 C 516.998 872.447, 513.648 872.688, 513.418 872.917" fill-rule="evenodd"/></g></svg>