<?xml version="1.0" encoding="UTF-8"?><!DOCTYPE svg PUBLIC "-//W3C//DTD SVG 1.0//EN" "http://www.w3.org/TR/2001/REC-SVG-20010904/DTD/svg10.dtd" []><svg xmlns="http://www.w3.org/2000/svg" xmlns:xlink="http://www.w3.org/1999/xlink" height="411" preserveAspectRatio="xMidYMid meet" version="1.0" viewBox="28.0 50.0 321.6 410.6" width="322" zoomAndPan="magnify" fill="currentColor"><g id="change1_2"><path d="M140.06,93.68c-0.21-0.61-0.62-1.12-1.29-1.28c-0.36-0.06-0.69,0.01-0.99,0.16c-0.62,0.19-1.19,0.79-1.41,1.82 c-0.03,0.08-0.06,0.17-0.08,0.25c-0.37,1.39,0.43,3.37,2.08,3.26C140.32,97.75,141.15,95.09,140.06,93.68z"/></g><g id="change1_3"><path d="M147.21,93.92c-0.02-0.05-0.06-0.09-0.08-0.13c-0.04-0.07-0.08-0.14-0.12-0.2c-0.57-1.77-2.3-1.34-2.75,0.02 c-0.8,0.98-1.03,2.46-0.55,3.62c0.34,0.76,0.88,1.07,1.45,1.08c0.95,0.3,2.07-0.49,2.41-2.01 C147.83,95.56,147.65,94.57,147.21,93.92z"/></g><g id="change1_4"><path d="M146.93,103.07c-0.6-1.46-2.22-1.13-2.65,0.16c-0.01,0.03-0.03,0.06-0.04,0.09c-0.08,0.11-0.18,0.25-0.28,0.37 c-0.04,0.04-0.1,0.09-0.18,0.16c-0.09,0.06-0.15,0.1-0.19,0.14c-0.15,0.07-0.3,0.12-0.46,0.16c-0.8-0.14-0.6,0.11-1.49-1.24 c-1.75-1.96-3.37,1.38-2.12,2.83c1.05,2.18,3.81,3.24,5.77,1.56C146.47,106.31,147.61,104.66,146.93,103.07z"/></g><g id="change1_22"><path d="M120.8,413.33c-0.05,0.07-0.12,0.13-0.18,0.19C120.69,413.45,120.78,413.37,120.8,413.33z"/><path d="M192.9,221.39c-0.02-0.45,0.02-0.97,0-1.48c0-0.12,0-0.24,0-0.36c-0.02-6.58,0.1-13.17-0.25-19.74 c-0.22-11.67-0.42-20.69-2.99-31.88c-1.11-5.47-2.52-10.85-4.4-16.11c-0.57-1.64-1.61-5.53-2.87-8.66c0.07-0.06,0.13-0.12,0.2-0.18 c-0.69-1.22-1.41-2.42-2.2-3.59c-2.13-3.78-6.35-5.5-10.24-6.82c-2.15-0.47-2.46,0.26-4.4-0.78c-2.1-0.87-4.2-1.73-6.3-2.62 c-0.78-0.24-1.51-0.95-2.35-0.83c-0.34,0.07-0.6,0.25-0.81,0.49c-0.9-0.75-1.81-1.49-2.74-2.2c-0.12-0.11-0.25-0.2-0.38-0.29 c-0.02-0.61-0.05-1.23-0.01-1.83c-0.1-2.08,0.2-4.22-0.13-6.26c-0.07-0.24-0.17-0.44-0.29-0.61c0.81-0.26,1.61-0.52,2.41-0.8 c6.19-2.69,11.05-7.79,14.32-13.61c0.6-1.21,1.22-2.46,1.82-3.75c0.64,0.39,1.56,0.37,2.31,0.28c3.41-0.24,7.43-2.69,7.06-6.53 c-0.2-2.75-2.93-4.42-5.46-4.75c0.04-0.03,0.07-0.07,0.11-0.1c1.29-1.25,2.66-2.56,3.32-4.27c0.73-2.15,0.7-4.46,0.57-6.71 c-0.09-2.89-0.76-5.77-2.15-8.31c-1.46-2.62-3.42-4.9-5.6-6.95c-1.44-2.37-3.31-4.54-5.47-5.7c-0.23-0.19-0.46-0.38-0.7-0.55 c-8.52-5.33-22.26-5.89-31.59-2.48c-8.49,3.39-16.27,9.24-20.53,17.46c-1.19,2.4-1.74,4.51-1.76,6.45 c-0.71,1.41-1.17,2.96-1.43,4.24c-0.83,4.13,1.73,7.55,5.17,8.89c-0.01,0.16-0.02,0.33-0.04,0.49c-3.29,0.32-6.89,0.79-9.07,3.49 c-1.89,2.47-1.07,6.39,1.85,7.66c1.5,0.77,3.24,0.51,4.79,0.01c1.03-0.29,2.15-0.86,2.14-2.08c0.2-1.06-0.64-2.61-1.87-2.19 c-0.73,0.32-1.49,0.57-2.27,0.72c-0.03,0-0.03,0-0.07,0.01c-1.67,0.12-1.98-0.35-2.51-0.84c-0.02-0.03-0.03-0.05-0.05-0.07 c-0.01-0.01-0.01-0.03-0.02-0.04c0.05-0.61,1.52-1.96,5.44-2.49c0.45-0.12,0.98-0.13,1.52-0.15c0.1,4.89,1.12,9.55,3.62,13.19 c2.26,3.46,5.49,6.08,9.2,7.86c3.34,1.78,6.97,3.03,10.73,3.52c-0.57,2.22-1.24,4.29-1.7,5.25c-0.39,0.12-1.92,1.54-3.36,3.01 c-0.06,0.01-0.11,0.02-0.18,0.03c-6.49,2.7-12.81,5.77-19.03,9.02c-3.15,1.71-5.38,2.4-7.44,4.41c-0.9,0.97-0.97,0.74-2.15,2.09 c-1.34,1.87-0.53,0.96-1.64,2.64c-3.2,4.79-6.06,9.81-8.67,14.96c-2.16,3.31-4.73,8.05-6.2,11.03c-0.04,0.08-0.09,0.15-0.13,0.23 c0.56-0.98-0.71,1.11-0.96,1.5c-0.64,0.96-1.29,1.92-1.87,2.92c-2.21-2.99-4.35-6.01-6.1-9.3c-2.49-4.88-4.44-10.03-7.21-14.78 c-0.69-1.18-1.42-2.34-2.15-3.5c-0.2-0.34-0.52-0.59-0.9-0.69c-0.25-0.08-0.49-0.07-0.72-0.01c2-2.31,3.85-4.51,5.39-6.63 c0.36-0.75,1.84-1.58,2.15-3.94c0.28-1.86-1.22-3.6-2.96-4.07c-1.17-0.34-2.44-0.27-3.54,0.29c-0.58,0.24-1.45,0.82-2.32,1.47 c0.42-1.5,0.78-3.02,0.88-4.6c0.25-1.99,0.14-3.98-0.01-5.97c-0.11-1.94-0.16-3.92-0.72-5.79c-0.86-2.69-3.94-2.17-5.82-0.9 c-1.09,0.75-1.84,1.87-2.46,3.02c-0.38,0.72-0.7,1.46-1,2.21c-0.62-3.08-1.83-5.56-4.21-3.59c-0.73,0.9-1.29,1.89-1.73,2.93 c-1.36-1.5-3.37-2.05-5.14-0.06c-0.78,0.87-1.24,1.93-1.55,3.04c-0.36-0.4-0.76-0.75-1.21-1.06c-3.46-1.48-4.09,3.6-4.41,5.95 c-0.3,2.75-0.1,5.62,0.83,8.23c0.6,1.62,1.8,2.91,2.69,4.37c2.81,4.37,6.16,8.45,10.52,11.35c0.51,0.28,1.02,0.6,1.55,0.86 c-1.24,0.9-2.49,1.79-3.42,2.94c-0.51,1.05,0.44,2.05,1.41,2.07c0.47,0.91,1.06,1.78,1.52,2.68c2.33,4.21,4.9,8.28,7.1,12.56 c2.31,5.01,5.11,9.79,7.29,14.86c2.79,5.9,5.64,11.98,10.51,16.48c1.67,1.55,3.51,3.19,5.81,3.67c5.51,1,9.21-4.12,12.97-7.23 c2.24-2.15,4.49-4.29,6.8-6.36c0.21,0.64,0.4,1.3,0.56,1.98c0.84-1.13,1.69-2.26,2.62-3.32c0.91-1,1.6-1.75,2.47-2.57 c0.01,0.24,0,0.47,0.01,0.71c-0.01,0.04-0.02,0.07-0.02,0.11c0.01,0,0.02,0,0.02,0c0.02,0.43,0.02,0.87,0.05,1.3 c0.04,0.13,0.09,0.22,0.14,0.32c-0.99,5.27-1.65,10.59-2.01,15.93c0.39,4.86,0.94,9.51,0.3,14.13c0.07,0.06,0.13,0.13,0.2,0.19 c-2.13,3.32-4.09,6.75-5.68,10.35c-2.02,4.76-3.39,9.75-4.63,14.76c-0.93,3.39-2,6.77-2.47,10.27c-0.52,5.48-1.03,10.96-1.26,16.46 c-0.01,0.37,0.13,0.69,0.35,0.94c-1.17,7.58-2.46,15.72-3.24,23.04c-1.38,12.24-2.11,26.33-2.09,40.12 c-0.71,14.18-1.68,28.42-0.76,42.6c0.28,4.79,1.02,7.8,1.28,11.72c0.36,2.68,0.7,5.36,1.18,8.01c0.24,0.97,0.23,2.39,1.14,2.91 c0.38,2.4,0.84,4.78,1.51,7.11c0.37,0.99,1.31,1.27,2.01,0.84c1.56,0,3.12-0.03,4.68,0.02c3.32,0.24,6.68,0.6,9.99,0.16 c1.23-0.2,2.43-0.5,3.63-0.82c0.81-0.08,1.6-0.19,2.38-0.4c0.36-0.06,0.72-0.09,1.08-0.1c0.65-0.07,1.37,0.16,1.93-0.29 c0.03-0.03,0.05-0.06,0.08-0.08c0.01-0.01,0,0,0.01-0.01c0.02-0.01,0.03-0.03,0.04-0.05c0,0,0.01-0.01,0.01-0.01c0,0,0,0-0.01,0 c0.99-0.94,1.35-2.82,0.36-3.86c1.18-0.87,0.6-3.14,0.88-4.49c0.01-0.11,0.02-0.21,0.03-0.3c0.03-0.31,0.07-0.63,0.11-0.94 c0.22-1.59,0.4-3.19,0.65-4.77c1.24-6.86,1.45-12.78,2.14-18.51c1.41-10.95,2.01-22.2,2.91-32.27c0.87-5.7,0.95-18.82,1.75-24.53 c1.62-13.22,2.22-24.13,4.93-37.49c0.3-1.73,0.6-3.46,0.91-5.19c-0.1,3.54-0.16,7.08-0.19,10.62c-0.08,6.69-0.57,13.37-0.16,20.05 c0.47,16.14,2.27,32.23,2.05,48.4c-0.02,10.96,1.16,21.89,1.55,32.84c0.64,7.41-0.07,14.98,1.49,22.28 c0.41,1.16,0.64,2.72,1.82,3.33c0.5,0.19,0.99-0.02,1.33-0.37c0.4-0.15,1.32-0.51,1.53-0.49c0.77-0.14,1.89-0.23,3.19-0.29 c-2.03,4.46-3.71,9.11-4.92,13.85c-0.82,5.47-1.93,10.91-2.41,16.42c-0.29,3.01,1.32,5.76,3.19,7.99c0.84,0.76,1.62,2.59,2.96,2.2 c0.01,0,0.01-0.01,0.01-0.01c0.61,0.44,1,0.46,2.04,0.96c4.38,1.72,7.65-2.61,10.23-5.49c0.43-0.46,3.01-3.11,4.1-4.88 c1.44-2.4,2.63-4.97,3.34-7.69c1.55-8.27,0.13-16.93-3.53-24.47c1.45-0.24,2.94-0.16,4.4-0.18c0.98-0.03,1.52-1.12,1.5-2 c-0.02-0.66-0.23-1.29-0.74-1.73c-0.43-0.37-0.99-0.27-1.52-0.27c0.79-2,1.02-5.41,1.28-6.34c0.39-2.8,0.92-5.58,1.77-8.28 c1.5-5.57,2.77-11.21,4.01-16.84c1.43-5.77,2.83-11.57,3.5-17.49c0.22-1.51,0.72-8.74,0.71-8.1c0.4-3.96,1.06-7.9,1.07-11.89 c0.06-8.64,0.57-17.27,0.3-25.91c-0.06-7.34-1.26-17.03-1.94-22.49c-0.42-8.38-1.11-14.55-1.71-20.8c0.55,0.73,1.2,1.3,1.78,1.51 c0.95,0.23,1.64-0.02,2.14-0.54c1.01,1.06,2.27,1.68,3.59,1.07c0.61-0.36,0.97-0.89,1.17-1.49c2.38,1.12,4.86,0.04,4.74-2.78 c0.51-0.01,1-0.09,1.46-0.25c3.5-1.58,2.12-5.94,0.43-8.42c-0.44-0.76-0.96-1.47-1.52-2.14c-0.01-0.17-0.04-0.34-0.09-0.5 c0.2-0.79,0.25-1.66,0.47-2.41c0.98-3.85,1.02-7.81,1.32-11.75c-0.1-5.3,0.36-9,0.69-12.63C192,228.25,192.52,226.45,192.9,221.39z M174.05,92.35c1.86,0.2,3.16,0.79,3.6,1.43c-0.6,1.06-3.15,2.09-4.78,2.08C173.32,94.7,173.73,93.53,174.05,92.35z M113.2,84.5 c-0.12-0.22-0.21-0.46-0.29-0.69c-0.01-0.06-0.03-0.12-0.03-0.19c-0.01-0.17-0.03-0.34-0.02-0.51c0.01-0.11,0.02-0.2,0.03-0.29 c0.28,0.5,0.61,1,0.97,1.5c0.08,0.47,0.18,0.92,0.33,1.34C113.51,85.1,113.29,84.61,113.2,84.5z M166.83,202.85 c0.34-9.59,0.18-19.19,0.17-28.79c0-0.86,0-1.72,0.01-2.59c1.53,12.05,2.67,21.58,3.07,34.99c1.08,8.51,1.93,19.67,1.77,29.18 c-0.46-2.17-1.05-4.31-1.72-6.43c-0.04-0.1-0.07-0.2-0.1-0.31c0.12-0.05,0.24-0.11,0.36-0.16c-0.42-0.86-0.86-1.7-1.37-2.51 c0,0,0,0,0,0c0,0,0.01-0.01,0.01-0.01c0.1-0.11,0.19-0.24,0.27-0.38c0.01-0.02,0.02-0.05,0.03-0.07c0.06-0.12,0.11-0.25,0.14-0.38 c0.01-0.04,0.02-0.08,0.03-0.12c0.03-0.12,0.04-0.25,0.05-0.37c0-0.04,0.01-0.08,0.01-0.12c0-0.16-0.01-0.32-0.03-0.47c0,0,0,0,0,0 c-0.08-0.51-0.3-0.97-0.67-1.27c-0.02-0.01-0.03-0.03-0.04-0.05c-0.04-0.03-0.08-0.04-0.13-0.07c-0.03-0.02-0.06-0.03-0.09-0.05 c-0.09-0.04-0.18-0.08-0.27-0.1c-0.09-0.02-0.17-0.04-0.27-0.05c-0.05,0-0.11,0-0.16,0c-0.18,0-0.36,0-0.53-0.01 c0.5-5.43-0.53-10.99-0.7-16.45c-0.02-0.25-0.02-0.51-0.03-0.76C166.71,204.62,166.79,203.73,166.83,202.85z M153.97,131.61 c1.13,0.9,2.22,1.85,3.34,2.75c-2.16,1.92-2.99,3.13-4.23,2.41c-0.05-0.09-2.25-1.76-2.62-2.21c-0.29-0.31-1.56-1.56-2.47-2.89 c-0.01-0.01-0.02-0.02-0.02-0.04c0.09-0.05,0.17-0.09,0.26-0.14c0.8-0.55,2.01-1.09,2.89-1.81c0.15,0.08,0.31,0.12,0.47,0.13 c0.02,0,0.05,0.01,0.07,0.01c0.02,0.01,0.03,0.02,0.05,0.02C152.47,130.42,153.22,131.01,153.97,131.61z M145.77,134.35 c0.01,0.02,0.01,0.02,0.02,0.04c1.22,1.7,2.66,3.27,4.26,4.61c0.29,0.27,0.6,0.54,0.93,0.79c-1.21,0.71-2.33,1.74-3.28,2.48 c-0.51,0.46-1.04,0.91-1.56,1.36c-0.39-0.27-0.8-0.48-1.28-0.53c-0.71,0.01-1.36,0.44-1.82,1.01c-0.02,0.02-0.05,0.03-0.08,0.05 c-0.37-0.1-0.77-0.13-1.17-0.08c-0.62-0.47-1.24-0.94-1.86-1.42c-0.34-0.61-0.8-1.13-1.45-1.48c-0.2-0.04-0.38-0.05-0.55-0.05 c-0.17-0.13-0.33-0.25-0.5-0.38c-0.32-0.27-0.63-0.51-0.94-0.71c0.58,0.07,1.16,0.09,1.76,0.01 C141.45,139.38,143.76,136.88,145.77,134.35z M139.78,126.83c-0.1-0.03-0.2-0.07-0.3-0.11c0.82-2,1.46-4.09,1.97-6.19 c0.06-0.26,0.13-0.53,0.2-0.79c2.89-0.06,5.76-0.58,8.57-1.33c-0.05,0.2-0.07,0.41-0.06,0.64v6.8c-0.71,0.31-1.28,0.95-1.97,1.31 c-1.55,0.88-1.85,1.35-3.66,1.22c-0.09-0.01-0.17-0.02-0.26-0.04c-0.02,0-0.04-0.01-0.06-0.01 C142.7,127.94,141.22,127.43,139.78,126.83z M132.7,58.07c-0.45,0.39-0.87,0.8-1.27,1.19c-0.1-0.16-0.21-0.31-0.33-0.45 C131.61,58.57,132.14,58.32,132.7,58.07z M138.37,115.58c-3.55-0.38-9.59-2.89-12.82-5.17c-2.58-1.86-3.42-3-5.34-5.86 c-0.01-0.02-0.02-0.03-0.03-0.05c-1.23-2.49-1.32-2.73-1.84-5.41c-0.34-1.73-0.39-5.14-0.2-8c0.9,0.02,1.81-0.1,2.69-0.38 c1.88,0.37,3.73-0.18,5.28-1.86c0.06-0.02,0.11-0.02,0.17-0.04c0.81-0.44,1.39-1.13,1.88-1.9c3.08-2.38,5.04-5.96,6.21-9.86 c0.69-2.48,1.4-3.87,2.28-6.19c0.23-0.24,0.46-0.48,0.67-0.73c0.17-0.08,0.34-0.2,0.5-0.36c0.16-0.02,0.32-0.05,0.47-0.09 c1.22-0.58,1.43-0.4,3.14-0.46c0.02,1.2,0.92,2.7,2.27,2.26c0.7-0.28,1.23-0.84,1.87-1.21c0.04-0.02,0.05-0.03,0.08-0.05 c0.17-0.09,0.33-0.18,0.5-0.26c0.2-0.14,0.89-0.32,1.16-0.39c1.02-0.11,1.71,0.1,1.81,0.11c2.62,0.7,4.37,1.89,5.36,3 c0.61,0.92,1.51,4.68,2.24,6.62c1.05,3.09,2.69,5.7,3.67,7.51c0.82,1.25,1.28,3.37,3.73,4.5c1.72,0.97,3.88,1.33,5.67,0.34 c0.48-0.22,1.02-0.45,1.46-0.78c-0.47,1.76-1.14,3.33-2.13,5.74c-2.84,6.44-6.01,11.21-12.41,15.17c-1.28,0.91-4.64,2.13-7.35,2.75 C145.7,115.45,142.76,116.11,138.37,115.58z M133.64,132.82c0.02,0,0.04,0.01,0.07,0.01c0.9-0.06,1.39-0.86,1.48-1.72 c0.46-0.49,0.86-0.9,1.11-1.15c0.13-0.13,0.26-0.26,0.4-0.38c0.06,0.04,0.13,0.08,0.2,0.11c1.81,0.95,3.71,1.7,5.67,2.26 c0.19,0.06,0.38,0.12,0.57,0.17c-1.77,2.06-3.92,4.22-5.93,4c-1.19-0.02-2.49-0.53-4.36-1.42c-0.19-0.07-0.37-0.15-0.55-0.25 C132.72,133.9,133.18,133.35,133.64,132.82z M135.83,151.04c-0.26,0.2-0.51,0.39-0.78,0.58c-0.07-0.32-0.15-0.71-0.16-0.89 c-0.04-0.18-0.07-0.56-0.08-1.07c0.27,0.36,0.57,0.68,0.88,0.94C135.73,150.75,135.78,150.9,135.83,151.04z M118.01,191.67 c0.2-1.04,0.4-2.09,0.54-3.15c0.64-5.34,1.07-8.44,1.74-14.17c0.53-5.46,1.24-11.56,2.21-17.85c0.06-0.36,0.11-0.73,0.17-1.09 c0.33-2.07,0.69-4.16,1.08-6.25c0.66-3.31,1.37-6.61,1.61-9.99c0.05-1.06,0.29-2.47-0.42-3.34c0.45-0.22,0.9-0.44,1.36-0.65 c0.78-0.36,1.57-0.71,2.35-1.06c-0.23,0.6-0.36,1.22-0.28,1.84c0.1,0.73,0.73,1.41,1.42,1.45c1.3,0.63,2.64,1.37,4.02,1.91 c-0.88,0.28-1.5,1.26-1.72,3.1c-0.25,2.46-0.37,4.94-0.26,7.41c0.14,1.75,0.25,3.62,1.21,5.13c1.17,1.77,3.13,0.6,4.33-0.48 c0.65-0.5,1.29-1.03,1.92-1.56c0.13-0.08,0.27-0.15,0.4-0.26c0.66-0.54,1.15-1.01,1.58-1.44c-0.48,4.88-1.3,10.27-1.98,16.1 c-0.38,3.77-0.25,7.57-0.62,11.34c-0.42,6.97-0.89,11.18-1.54,17.66c-0.44,7.1-0.7,10.88-2.15,18.79 c-0.52,1.54,0.98,3.93,2.47,2.21c0.53-0.7,0.42-1.62,0.62-2.44c0.43-2.09,0.73-4.2,1.02-6.31c0.8-6.45,0.83-10.59,1.49-16.85 c0.42-3.58,0.86-9.33,1.23-14.91c0.21-3.74,0.28-8.89,0.65-10.96c0.58-4.99,1.65-10.52,1.82-15.59c0.53-0.65,0.46-0.56,0.83-0.94 c0.95,0.66,1.93,1.29,2.72,2.12c1.72,1.33,3.94,6.65,6.7,0.99c1.34-2.86,3.18-8.87,1.22-12.02c0.05-0.03,0.1-0.06,0.15-0.09 c1.2-0.89,3.08-2.49,4.01-3.6c0.18-0.23,0.28-0.52,0.31-0.83c0.16-0.06,0.32-0.16,0.47-0.34c0.36-0.37,0.55-0.88,0.58-1.41 c0.45,0.19,0.9,0.37,1.35,0.55c-0.12,0.29-0.18,0.61-0.16,0.93c-0.23,0.75-0.76,2.53-0.79,2.85c-0.77,3.86-0.77,6.54-0.74,11.23 c-0.15,10.36,0.31,20.69,0.92,31.03c0.09,3.5,0.12,6.99,0.12,10.49c-0.39,7.11-0.6,14.23-0.53,21.35c0,1.45,0,2.91,0,4.36 c-0.36,1.12-0.44,2.45-0.4,3.22c0.04,0.76,0.22,1.6,0.68,2.22c-0.2-0.01-0.4-0.02-0.61-0.03c-14.02-0.3-28.06,0-42.08-0.18 c-1.14-0.1-2.88-0.28-4.55-0.38c0.03-0.33,0.06-0.64,0.09-0.97h0.11c-0.01-0.2,0-0.41-0.01-0.61c0.02-0.43,0.06-0.88,0.08-1.33 c0.09-0.94,0.17-1.86,0.25-2.77c0.25-1.67,0.51-3.32,0.76-4.77c0.74-4.75,1.72-9.45,2.33-14.22c0.11-0.98,0.35-2.04-0.04-2.99 c-0.06-0.15-0.14-0.28-0.23-0.4C117.94,193.04,118.03,192.35,118.01,191.67z M49.04,124.53c0.05-0.02,0.11-0.03,0.16-0.04 c0,0,0.01,0,0.01,0c0.02,0,0.03,0.01,0.05,0.01c0.09,0.1,0.36,0.12,0.87,1.26c0.18,0.26,0.29,1.07,0.35,2.13 c-0.05,0.39-0.08,0.79-0.12,1.18c-0.2-0.01-0.41,0-0.61,0.06c-0.39,0.1-0.69,0.36-0.89,0.69c0,0,0,0-0.01,0 c-0.38,0.1-0.77,0.12-1.15,0.21c-0.06-0.13-0.13-0.27-0.2-0.4C47.69,127.25,48.4,124.99,49.04,124.53z M52.27,149.83 c-3.05-2.62-4.3-4.61-6.69-8.09c-1.69-2.58-2.72-3.45-3.04-6.28c-0.35-1.42-0.15-5.44,0.51-7.47c0.26,0.34,0.56,0.81,0.98,1.45 c0.16,0.3,0.31,0.59,0.47,0.88c-0.03,0.77,0.02,1.54,0.13,2.31c-0.18,0.11-0.34,0.24-0.47,0.41c-0.87,1.01,0.12,2.45,1.25,2.42 c0.33,0.72,0.76,1.4,1.3,1.99c0.99,1.35,3.04,0.44,2.89-1.17c-0.04-0.96-0.24-1.89-0.53-2.8c0.35-0.07,0.74-0.15,1.11-0.26 c-0.02,0.83-0.05,1.66-0.06,2.49c-0.01,0.46-0.01,0.99,0.32,1.35c1.22,1.38,2.84,0.19,2.81-1.45c0.18-2.55,0.42-5.15,0.25-7.72 c0.15-1.01,0.37-2.02,0.72-3.07c0.07-0.25,0.26-0.68,0.48-1.13c0.37,1.55,0.56,3.39,0.67,5.11c0.21,1.66-0.25,3.48,0.29,5.06 c0.51,0.88,1.88,1.01,2.47,0.15c0.63-1.15,0.62-3.41,1.07-4.81c0.65-3.64,2.43-7.63,3.56-8.38c0.25-0.17,0.53-0.3,0.81-0.42 c0.02,0,0.07-0.02,0.21-0.08c0.12-0.04,0.3-0.09,0.42-0.12c0.69,2.99,0.89,9.03,0.42,11.77c-0.25,1.7-0.8,3.34-1.31,4.98 c-0.23,0.88-0.62,1.8-0.45,2.72c0.16,0.87,1.12,1.47,1.97,1.22c0.65-0.19,1.09-0.79,1.62-1.19c1.77-1.49,3.14-2.72,4.65-3.16 c0.13-0.01,0.25-0.01,0.38,0.01c0.19,0.04,0.48,0.1,0.63,0.15c0.04,0.02,0.09,0.04,0.13,0.06c0.03,0.02,0.04,0.02,0.06,0.04 c0.12,0.11,0.24,0.23,0.35,0.36c0.02,0.03,0.04,0.06,0.05,0.09c0.01,0.03,0.02,0.06,0.03,0.11c0,0.02,0,0.04,0,0.07 c-0.03,0.18-0.03,0.27-0.03,0.31c-0.01,0.04-0.02,0.08-0.03,0.12c-1.73,2.71-3.98,5.35-7.7,9.67c-0.8,0.9-1.58,1.81-2.36,2.72 c-0.16,0.17-0.28,0.37-0.36,0.59c-1.68,0.71-3.24,1.67-4.7,2.78c-0.53-0.78-1.58-0.92-2.31-1.46 C53.72,151.2,53.78,151.09,52.27,149.83z M110.73,188.48c-0.86,0.74-1.67,1.52-2.47,2.32c-0.28,0.04-0.56,0.18-0.82,0.43 c-4.81,3.76-9.01,8.21-13.61,12.22c-2.04,1.99-2.62,2.77-5.07,3.95c-1.17,0.63-2.76,0.57-3.46,0.28c-3.32-1.77-5.67-4.55-7.7-7.37 c-4.59-7.04-7.48-15.01-11.51-22.36c-2.05-4.55-4.63-8.82-7.12-13.14c-0.92-1.7-1.93-3.33-2.85-5.03 c-0.19-0.27-0.33-0.59-0.47-0.91c2.84-2.26,5.59-4.53,8.05-5.41c1.12-0.34,2.23-0.71,3.38-0.91c0.37-0.08,0.79-0.14,1.17-0.27 c3.55,5.74,5.85,12.15,9.11,18.04c1.66,3.01,3.74,5.73,5.75,8.5c2.51,3.67,4.26,6.17,6.68,9.17c0.91,0.8,2.45,0.02,2.41-1.18 c-0.17-1.27-1.39-2.15-2.02-3.22c-0.66-0.8-1.77-2.35-2.88-3.96c1-1.66,2.96-4.67,3.56-5.68c2.61-5.41,3.16-5.79,6.71-12.07 c2.59-5.32,5.29-9.25,8.7-14.88c-0.42,0.71-0.02,0.06,0.24-0.4c0.04-0.05,0.11-0.14,0.21-0.25c0.06-0.09,0.17-0.21,0.25-0.32 c0.25-0.22,0.51-0.44,0.77-0.64c1.75-1.89,2.87-2.42,6.3-4.1c1.25-0.64,2.49-1.29,3.74-1.92c-0.02,0.45-0.05,0.9-0.07,1.35 c-0.31,2.9-1.35,7.97-2.05,11.94c-0.79,4.65-1.34,9.33-2.18,13.97C112.23,173.84,110.98,181.15,110.73,188.48z M164,435.69 c-0.1,4.71-1.63,8.87-5.61,13.31c-1.44,1.43-3.34,3.92-5.43,5.56c-0.09,0.06-0.18,0.13-0.26,0.18c-0.14,0.06-0.29,0.11-0.44,0.18 c-0.29,0.14-0.57,0.3-0.88,0.37c0,0,0,0,0,0c-0.39,0.02-0.79,0.03-1.19,0.02c-0.08-0.03-0.17-0.06-0.26-0.11 c-0.39-0.08-0.74-0.29-1.11-0.43c-0.46-0.16-0.28-0.1,0.03,0.08c-0.24-0.15-0.5-0.27-0.75-0.39c-0.02-0.02-0.04-0.03-0.08-0.06 c-0.07-0.06-0.14-0.12-0.21-0.18c-0.13-0.22-0.31-0.47-0.38-0.55c-0.29-0.51-0.69-0.99-1.32-0.99c-0.15,0.01-0.29,0.04-0.42,0.08 c-2.7-3.43-2.28-3.78-1.93-7.15c0.98-5.42,1.35-10.99,2.93-16.27c0.29-0.87,2.05-5.92,3.09-8.4c0.45-1.19,1.26-2.29,1.55-3.53 c2.9-0.08,6.07-0.16,8.51-0.42c0.01,0.31,0.07,0.62,0.21,0.92C163.2,424.63,164.11,428.41,164,435.69z M175.95,311.66 c0.66,10.73,0.01,21.47-0.09,32.2c-0.08,4.07-0.56,6.2-1.01,10.82c-0.48,5.01-0.48,7.33-1.3,12.09 c-1.83,9.44-4.19,18.78-6.42,28.14c-1.37,4.35-2.11,8.83-2.77,13.34c-0.08,1.34-1.02,2.8-0.72,4.09c-0.81,0.08-1.62,0.21-2.42,0.43 c-0.57,0.16-5.21,0.7-7.3,0.62c-2.38,0.18-7.95-0.28-11.04,0.88c-0.21-0.7-0.31-1.45-0.5-2.84c-0.42-3.31-0.5-10.37-0.68-15.46 c-0.56-9.22-0.93-18.46-1.6-27.67c-0.38-9.1,0.2-18.24-0.65-27.32c-0.67-11.59-1.42-23.19-1.71-34.8 c0.26-10.03,0.27-20.07,0.76-30.09c0.13-7.35,0.7-14.68,1.46-21.99c0-0.08-0.01-0.16-0.01-0.23c0.02-0.39-0.02-0.78-0.19-1.16 c-0.16-0.35-0.38-0.6-0.63-0.76c0.56-0.9,0.23-2.25,0.07-3.28c-0.28-1.52-0.45-3.14-1.08-4.56c-1.16-1.95-3.11,0.09-2.62,1.74 c0.41,1.43,0.67,2.89,0.89,4.36c0.03,0.76,0.3,1.8,0.92,2.24c-0.13,0.2-0.23,0.43-0.28,0.72c-3.01,19.54-8.14,42.35-9.37,60.16 c-0.71,5.93-1.45,11.86-1.87,17.82c-0.28,4.45-0.18,8.93-0.69,13.37c-0.99,8.02-1.7,23.26-2.91,32.39 c-1.03,8.52-1.24,14.49-2.65,22.56c-0.27,2.22-0.63,4.42-0.76,6.65c-0.06,1.07-0.26,2.65,0.51,3.41c-0.14,0.11-0.27,0.24-0.37,0.39 c-0.68,0.02-1.75,0.1-2.02,0.21c-0.18,0.04-0.69,0.16-0.92,0.21c-2.28,0.2-4.03,0.97-5.41,1.03c-4.28,0.34-8.56-0.45-12.84-0.3 c-0.19,0-0.4-0.01-0.6-0.02c-0.44-1.92-0.83-3.86-1.12-5.8c-0.27-1.15-0.02-2.6-1-3.44c-0.08-0.06-0.17-0.11-0.25-0.15 c-0.33-2.04-0.61-4.09-0.89-6.13c-0.29-3.68-1.2-8.85-1.35-12.97c-0.61-12.16,0.01-24.38,0.68-36.53 c0.39-5.76,0.2-11.53,0.37-17.29c0.29-8.55,1.1-19.13,1.71-24.79c1.18-10.16,2.63-20.3,4.31-30.39c0.4-2.49,0.8-4.98,1-7.5 c0.08-0.92,0.29-1.92-0.32-2.71c-0.22-0.28-0.46-0.44-0.7-0.51c0.02-0.25,0.04-0.47,0.06-0.62c0.03-0.42,0.12-0.84,0.15-1.26 c-0.02,0.01-0.04,0.02-0.06,0.03c0.01-0.1,0.03-0.21,0.04-0.3c1.45-6.46,3.2-12.89,5.2-19.2c1.55-4.71,4.03-9.32,7.01-13.95 c5.21-0.98,10.95-1.02,16.89-0.51c9.06,0.37,18.1,1.29,27.18,1.2c3.24-0.08,6.47-0.5,9.62-1.26c0.07,0.26,0.17,0.5,0.32,0.7 c0.31,0.44,0.59,0.88,0.86,1.32c2.87,8.69,3.43,15.35,4.03,23.97c0.59,4.29,0.64,7.32,0.83,12.39c0.5,5.54,1.09,11.43,1.65,17.08 c0.35,2.83,0.55,8.48,0.92,12.94C175.05,301.81,175.56,305.58,175.95,311.66z M189.54,267.77c-0.49,0.25-1.4,0.1-2.2-0.22 c-0.51-0.86-1.12-1.65-1.98-2.14c-1.21-0.55-2.28,0.75-2.2,1.9c0.07,1.54,1.04,2.8,2.35,3.61c0.02,0.03,0.03,0.07,0.05,0.11 c-0.11-0.05-0.29-0.14-0.59-0.28c-0.16-0.11-0.43-0.29-0.53-0.4c-0.03-0.04-0.23-0.22-0.57-0.72c-0.16-0.46-0.4-0.89-0.78-1.2 c-1.04-0.79-2.23,0.36-2.23,1.46c-0.1,0.6,0.1,1.19,0.37,1.72c0.02,0.09,0.04,0.18,0.06,0.27c-0.45-0.45-0.55-0.58-1.04-1.58 c-0.11-0.47-0.25-0.9-0.44-1.24c-1.16-1.43-2.51-0.01-2.6,1.37c-0.33-0.79-0.76-1.71-1.73-1.5c-0.15,0.05-0.28,0.12-0.4,0.19 c-0.19-2.3-0.36-4.69-0.5-7.28c0.1,0.03,0.19,0.07,0.31,0.08c4.01,0.08,7.65-0.12,10.58,0.89c0.38,0.17,0.84,0.34,1.31,0.44 c0.06,0.12,0.11,0.24,0.19,0.34C188.46,265.27,189.28,267,189.54,267.77z M189.89,220.28c-0.06,3.37-0.47,5.32-0.78,8.31 c-0.41,4.01-0.47,6.84-0.8,9.61c-0.48,5.12-0.25,11.68-0.79,15.13c-0.28,1.81-0.68,3.6-1.04,5.39c-0.02,0.08-0.04,0.17-0.06,0.26 c-2.24-0.8-4.63-0.89-7-1.01c-1.51-0.1-3.02-0.07-4.53-0.07c-0.17,0-0.32,0.05-0.47,0.11c0-0.03,0-0.05,0-0.07 c-0.43-3.43-0.62-6.52-0.87-9.73c0.2-0.16,0.37-0.38,0.47-0.65c0.33-0.79,0.18-1.68,0.29-2.51c0.91-7.91,0.65-20.43-0.29-30.2 c-0.15-2.57-0.57-5.1-0.87-7.65c-0.26-3.78-0.26-7.58-0.6-11.36c-0.53-10.77-2.15-20.69-3.64-33.34c-0.38-1.59,0.06-3.67-1.15-4.89 c-0.16-0.12-0.32-0.19-0.48-0.23c0.25-5.27,0.26-10.55,0.11-15.82c-0.02-0.3-0.04-0.6-0.05-0.9c0.04-1.42,0.07-2.84,0.07-4.25 c0.63,0.05,1.26,0.02,1.9,0.03c0.7,0.27,1.42,0.44,2.1,0.79c2.1,0.68,2.95,1.26,4.15,2.03c1.7,1.12,2.18,2.19,3.55,4.3 c0.03,0.09,0.06,0.19,0.11,0.28c4.78,12.1,8.78,27.19,9.87,40.28c0.5,6.91,0.74,20.42,0.8,29.41c0,2.04,0,4.07,0,6.11 C189.87,219.85,189.87,220.07,189.89,220.28z"/></g><g id="change1_5"><path d="M121.67,429.61c-0.08-5.67-1.15-11.24-2.72-16.67c-0.67-2.68-3.42-1.25-2.89,1.06c1.7,6.07,2.51,10.41,2.63,15.83 c0.7,4.91-0.05,8.49-1.45,12c-1.86,4.2-5.74,7.53-10.2,11.2c-1.08,0.86-1.59,1.32-2.08,1.58c-0.37-1.02-1.28-1.77-1.83-2.69 c-1.39-2.16-3.35-3.89-4.74-6.05c-1.21-2.44-1.32-3.01-1.88-5.39c0.27-3.18,0.53-9.39,2.07-15.41c0.82-2.97,1.08-3.81,2.22-7.02 c0.31-0.92,0.87-1.83,0.63-2.82c-0.23-1.53-2.09-2.08-2.74-0.48c-0.32,0.84-0.64,1.69-0.94,2.55c-0.13-0.05-0.28-0.1-0.44-0.11 c-1.71,0.12-1.95,2.85-0.73,3.73c-1.37,4.56-2.32,9.25-2.57,14.02c-0.01,0.62-0.98,5.78,0,8.2c0.52,1.68,1.02,3.4,1.9,4.94 c0.93,1.65,2.21,3.04,3.46,4.45c0.78,0.86,1.4,1.88,2.08,2.84c-0.37,0.66-0.42,1.6-0.12,2.23c0.76,1.59,2.92,1.42,4.33,0.92 c2.05-1.01,3.62-2.75,5.4-4.15c4.51-3.6,8.63-8.23,9.94-13.99C122.08,436.88,122.15,433.23,121.67,429.61z"/></g><g><g id="change1_24"><path d="M313.44,119.87c0.15-0.42,0.14-0.43,0.09-0.27c-0.03,0.08-0.06,0.17-0.08,0.26C313.44,119.86,313.44,119.86,313.44,119.87z"/></g><g id="change1_1"><path d="M277.23,89.87C277.42,89.92,277.4,89.9,277.23,89.87L277.23,89.87z"/><path d="M287.46,81.45C287.46,81.45,287.47,81.45,287.46,81.45c0.02-0.01,0.02-0.01,0.03-0.02 C287.48,81.44,287.48,81.44,287.46,81.45z"/><path d="M287.49,81.43C287.88,81.22,287.74,81.28,287.49,81.43L287.49,81.43z"/><path d="M257.92,219.86c-0.23,0.54-0.77,0.95-1.38,0.93c-0.71-0.01-1.4-0.11-2.1-0.24c-0.37,0.05-0.75,0.08-1.13,0.11 c0.58,0.42,1.17,0.83,1.75,1.25c1.12-0.75,2.36-1.34,3.66-1.84c-0.11-0.08-0.22-0.17-0.32-0.25 C258.24,219.83,258.08,219.85,257.92,219.86z"/><path d="M313.26,120.44c0.01-0.04,0.03-0.07,0.04-0.11c0.03-0.13,0.08-0.3,0.13-0.46c0-0.01,0-0.01,0.01-0.02 c0.03-0.1,0.06-0.19,0.08-0.26c0.09-0.27,0.18-0.55,0.19-0.84c-0.01,0.12-0.01,0.16,0.02-0.07c0.23-0.87,0.34-1.75,0.28-2.65 c0.02-3.35-0.4-6.69-1.56-9.84c-1.3-3.69-3.92-6.74-6.36-9.74c0.78-0.69,1.42-1.52,1.78-2.45c0.51-1.19,0.4-2.67-0.27-3.75 c1.46-2.29,1.05-5.69-2.22-6.06c-0.74-0.08-1.49-0.04-2.23,0.09c-0.06-1.09-0.44-2.14-1.26-2.95c-2.95-2.91-6.95-0.42-8.98,2.57 c-0.14-0.78-0.48-1.41-0.97-1.88c0.73-1.72,0.05-3.97-1.71-4.75c-2.06-0.77-4.4-0.26-6.39,0.72c-0.65-2.01-2.18-3.72-4.43-3.68 c-4.44,0.4-5.41,4.81-4.16,8.39c-0.09,0.11-0.18,0.21-0.28,0.31c-0.38,0.42-0.72,0.89-1.02,1.37c-0.72-1.17-2-1.96-3.58-2 c0.03-0.21,0.06-0.42,0.05-0.64c0.03-1.95-1.75-3.81-3.75-3.08c-1.78,0.6-3.22,2.34-3.59,4.16c-0.34,1.8,1.84,3.31,2.77,1.28 c0.58-0.94,0.54-1.01,0.87-1.21c-0.26,0.34-0.52,0.67-0.72,1.05c-0.38,0.95-0.24,2.3,0.72,2.84c0.29,0.22,0.68,0.19,1.02,0.1 c1.45-0.43,1.23-0.36,2.21-0.48c1.14-0.01,1.16,0.13,1.49,0.3c-0.07,0.11-0.15,0.22-0.23,0.31c-0.01,0.01-0.01,0.01-0.02,0.02 c-0.94,0.72-0.91,0.65-2.54,1.1c0.01,0,0.03,0.01,0.04,0.01c-0.48,0.14-0.9,0.42-1.08,0.95c-0.48,1.09-0.09,2.91,1.3,3.01 c0.02,0,0.04-0.01,0.06-0.01c1.07-0.11,0.68-0.07,1.17,0.07c0.01,0,0.01,0.01,0.02,0.01c0.02,0.02,0.05,0.03,0.07,0.05 c-0.96,0.74-2.02,0.78-2.58,0.65c0.03-0.81-0.27-1.6-0.99-2.03c-1.12-0.45-1.87,0.21-2.21,1.17c-1.16,0.59-2.77,0.8-4.45,0.04 c-0.01,0-0.01,0-0.01-0.01c-0.02-0.01-0.03-0.02-0.07-0.04c-0.13-0.08-0.27-0.21-0.37-0.29c-0.02-0.02-0.04-0.04-0.05-0.07 c0.01-0.01,0.02-0.02,0.03-0.03c1.6-0.3,2.84-1.43,2.1-3.44c-0.6-1.44-2.05-1.2-3.11-0.47c-0.7-0.05-1.54-0.34-1.9-0.89 c0-0.01-0.01-0.02-0.01-0.02c0.22-0.34,0.73-0.95,1.97-1.4c1.78-0.83,4.15-0.09,3.8-3.18c-0.14-0.7-0.67-1.46-1.45-1.47 c-0.46,0.08-0.91,0.15-1.37,0.26c-1.77,0.39-3.57,1.13-4.77,2.54c-2.19,2.33-1.32,6.36,1.58,7.65c0.04,0.02,0.07,0.03,0.11,0.05 c-0.12,1.4,0.34,2.83,1.42,3.8c-1.26,1.16-2.46,2.38-3.58,3.64c-3.11,3.63-5.09,8.06-6.3,12.65c-0.84,3.02-1.2,6.17-1.16,9.3 c0.1,0.93-0.03,1.96,0.12,2.89c-3,4-3.28,9.82,3.37,10.02c0.63,0.08,1.13-0.14,1.48-0.52c0.45,1.73,1.12,3.4,2.12,4.91 c1.61,2.29,3.88,4.02,5.89,5.95c2.73,2.52,5.8,4.8,9.39,5.9c0.58,0.13,1.17,0.25,1.77,0.35c-0.68,1.38-1.28,2.8-1.89,4.2 c-0.07,0.13-0.14,0.28-0.21,0.43c-0.13,0-0.26,0.01-0.4,0.05c-2.76,1.06-5.45,2.27-8.17,3.41c-2.58,0.47-5.13,1.19-7.61,2.05 c-1.57,0.7-3.08,1.5-4.67,2.13c-0.12-0.09-0.24-0.18-0.36-0.27c-0.32-0.26-0.77-0.35-1.16-0.2c-0.65,0.28-1,0.93-1.08,1.62 c-1.21,0.57-2.36,1.24-3.18,2.29c-0.38,0.51-0.41,1.29-0.19,1.96c-0.96-0.4-2.05-1.44-3.03-0.71c-0.86,0.71-0.97,2.21-0.31,3.1 c-0.18,0.56-0.15,1.21,0.06,1.75c-4,7.22-8.01,14.43-11.59,21.88c0.08-0.01,0.15-0.02,0.23-0.03c-1.27,1.97-2.49,3.85-3.56,5.22 c-0.35-2.83-0.6-5.68-0.99-9.08c-0.25-2.25-0.67-4.15-0.87-6.54c-0.18-2.13,0.02-4.28-0.32-6.39c-0.33-2.56-1.39-7.56-1.56-8.65 c-0.17-2.37-0.27-4.72-1.06-6.99c-0.01-0.02-0.01-0.06-0.02-0.08c4.54-3.67,8.1-6.09,10.03-9.24c2.1-4.8-2.95-6.11-6.43-4.06 c-1.57,0.81-2.71,1.64-3.65,2.36c0.02-2.14,0.01-5.08-0.32-6.71c-0.4-1.98-1.31-3.87-2.47-5.51c-0.97-1.5-3.08-1.4-3.74,0.32 c-0.01,0.04-0.02,0.07-0.03,0.1c-0.03-0.04-0.05-0.09-0.09-0.13c-0.85-0.93-2.3-1.23-3.5-0.97c-0.81,0.27-1.42,0.9-1.87,1.62 c-0.06-0.06-0.11-0.13-0.18-0.19c-2.42-2.02-4.79,1.16-5.64,3.27c-0.07,0.18-0.12,0.36-0.18,0.54c-0.79-0.61-1.99-0.36-2.51,0.53 c-1.74,3.44-1.94,7.75-0.96,11.45c0.64,2.04,1.92,3.76,3.14,5.48c1.31,1.94,2.67,3.91,4.51,5.39c0.31,2.24,0.81,4.02,1.25,6.83 c0.45,2.55,0.68,7.01,1.54,10.69c1.15,4.57,1.76,7.43,2.02,11.65c0.51,5.02,1.33,10.04,2.63,14.91c1.01,3.51,1.67,7.3,4.1,10.17 c3.23,4.37,8.12,2.09,11.67-0.57c1.69-1.23,3.03-2.84,4.37-4.42c1.58-1.72,3.7-4.85,5.33-7.85c0.9-1.66,1.74-3.36,2.59-5.04 c0.16,0.38,0.3,0.77,0.43,1.17c0.12-0.32,0.25-0.64,0.41-0.92c2.06-4.44,4-8.02,6.09-11.66c-0.72,3.39-1.5,6.77-1.77,10.23 c-0.08,0.5-0.57,1.97-1.14,3.75c-0.09,0.13-0.17,0.28-0.21,0.45c-0.02,0.14-0.04,0.26-0.07,0.4c-0.1,0.33-0.21,0.66-0.32,1 c0,0,0,0.01,0,0.01c0.03,0.02,0.06,0.04,0.09,0.07c0.02,0,0.04,0.01,0.05,0.02c-0.61,3.93-0.77,6.63-1.7,10.68 c-0.56,2.49-1.49,4.89-2.21,7.34c-0.4,1.61-0.95,2.73-1.1,3.46c-0.17,0.88,0.47,1.48,1.19,1.63c-0.43,0.38-0.89,0.73-1.41,1.02 c-4.29,3.74-6.87,8.56-9.12,14.5c-2.73,6.67-5.32,13.39-7.89,20.13c-1.5,3.77-3.44,7.35-4.96,11.11 c-1.49,3.9-2.65,7.91-3.88,11.89c-2.87,9.01-4.55,18.34-7.22,27.42c-1.27,4.65-2.27,9.36-3.57,14c-1.31,4.92-2.94,9.75-4.04,14.72 c-2.06,10.13-4.87,20.08-7.4,30.1c-2.09,7.62-3.81,16.26-5.89,22.34c-1.76,4.77-3.84,9.42-6.06,13.99 c-0.99,1.96-1.96,3.92-2.87,5.91c-0.55,0.99-1.01,2.29-0.46,3.29c-0.75,1.16-1.49,2.33-2.23,3.5c-0.62,1.04-1.72,2.17-1.9,3.37 c-0.68,0.24-1.24,1.08-1.17,1.92c-0.41,5.76,0.53,11.98,4.03,16.72c3.16,4.07,7.74,6.65,12.5,8.42c2.71,0.71,5.61,0.53,8.34,0.01 c2.4-0.6,4.66-1.63,7.08-2.16c3.97-0.8,7.04-1.54,10.28-1.96c0.32,0.36,0.78,0.55,1.35,0.38c1.14-0.35,2.61-0.15,3.55-0.91 c0.94-0.94,0.76-2.94-0.51-3.5c-0.17-0.03-0.35-0.04-0.52-0.03c-0.47-0.28-1.1-0.3-1.79-0.16c-1.12,0.1-2.24,0.21-3.35,0.39 c-4,0.74-8.04,1.41-11.95,2.53c-1.7,0.51-3.34,1.21-5.07,1.6c-0.98,0.24-5.57,0.45-6.63-0.05c-5.57-2.2-9.25-4.3-12.11-8.83 c-1.28-2.09-2.22-6.01-2.3-9.33c-0.12-0.93,0.12-1.95,0.11-2.9c0.81-0.33,1.48-1.6,1.96-2.32c2.05-3.45,4.49-6.7,6.57-10.1 c0.42-0.94-0.09-2.23-0.88-2.64c2.41-4.88,4.68-9.83,6.57-14.94c1.61-4.25,2.48-8.73,3.62-13.13c1.68-6.62,3.42-13.22,5.06-19.85 c2.82-9.57,4.36-19.46,7.23-29.01c3.11-10.82,5.64-21.79,8.61-32.65c1.4-6.26,3-12.45,5.01-18.54c0.81-2.53,1.64-5.39,3.12-8.89 c1.41-3.29,3.09-6.46,4.4-9.78c3.59-9.02,6.7-18.28,11.01-26.99c1.15-2.24,3.61-5.58,6.82-7.63c0.43-0.27,0.79-0.5,1.1-0.69 c0.22,0.19,0.5,0.31,0.83,0.34c0.89-0.06,1.38-0.84,1.47-1.69c0,0,0,0,0.01,0c0.02-0.01,0.04-0.02,0.06-0.03 c0.24,0.08,0.47,0.15,0.66,0.19c1.19,0.36,2.17,0.7,3.06,1.07c0.11-0.78,0.31-1.57,0.61-2.32c0.18-0.44,0.4-0.88,0.63-1.31 c-2.5-1.04-5.14-1.77-7.6-2.92c0.59-1.9,1.15-3.81,1.79-5.7c0.7-2.35,1.54-7.97,1.59-8.86c0.17-1.31,0.38-2.61,0.58-3.91 c0.4-1.23,0.63-1.79,1.38-4.29c0.39-2.79,0.58-4.96,1.44-8.66c0.45-2.01,0.86-4.03,1.2-6.07c0.13-0.91,0.46-1.88,0.05-2.77 c-0.05-0.13-0.13-0.23-0.2-0.34c0.42-0.71,0.85-1.44,1.3-2.2c0.51-0.88,1.19-1.79,0.91-2.87c-0.07-0.43-0.26-0.77-0.52-1.02 c0.46-0.66,0.54-1.72,0.21-2.4c-0.43-0.88-1.36-1.36-2.07-1.99c-2.17-1.88-4.41-3.7-6.88-5.16c0.05-0.03,0.1-0.05,0.15-0.08 c1.37-1.15,1.84-1.29,3.51-2.03c1.85,1.4,3.71,2.81,5.74,3.94c2.18,1.21,4.55,2.03,6.76,3.16c3.72,1.64,6.06,3.3,10.44,4.68 c2.86,0.93,5.79,0.56,8.62-0.29c5.75-1.53,10.79-4.86,16.18-7.27c1.8-0.83,3.6-1.68,5.48-2.31c0.5-0.11,0.88-0.4,1.15-0.78 c0.16,0.08,0.33,0.14,0.53,0.15c1.39-0.1,1.81-1.92,1.26-3.07c0.13-0.54,0.1-1.14-0.11-1.58c-0.9-1.48-2.88-1.89-4.27-2.82 c-1.63-0.84-3.35-1.7-5.12-2.3c-0.82-0.62-2.06-0.55-2.98-1.04c-0.82-0.3-1.66-0.68-2.5-1c-0.62-0.67-1.68-0.67-2.49-1 c-1.07-0.29-2.11-0.72-3.19-0.95c-0.01-0.09-0.02-0.18-0.03-0.28c-0.13-1.23-0.27-2.45-0.42-3.68c0.12-0.02,0.24-0.03,0.36-0.05 c3.95-0.49,7.77-1.84,10.87-4.38c5.76-4.97,10.79-9.06,13.34-16.53c0.5,0.61,1.37,0.82,2.47,0.07 C312.96,128,315.67,123.55,313.26,120.44z M205,141.5c0.02-0.03,0.05-0.05,0.07-0.08c0.13,0.2,0.3,0.49,0.33,0.63 c0.05,0.14,0.1,0.36,0.17,0.64c-0.33,1.47-0.44,2.99-0.29,4.48c0,0,0,0.01,0,0.01c-0.57,0.11-1.13,0.24-1.68,0.31 c-0.12,0.03-0.24,0.06-0.37,0.09c0-2.11,0.26-3.41,0.86-4.69C204.37,142.41,204.67,141.95,205,141.5z M246.43,175 c1.15,0.91,2.25,1.88,3.4,2.79c-0.16,0.66-0.06,1.42,0.3,1.96c-2.63,4.61-6.33,10.45-9.29,16.38c-0.41,0.07-0.8,0.29-1.02,0.7 c-2.17,4.46-4.3,8.98-7.07,13.1c-1.32,1.96-4.21,5.41-6.29,6.97c-3.39,2.2-4.97,2.99-6.62,1.8c-1.4-1-3.05-4.4-3.8-7.99 c-1.92-6.63-2.79-12.53-3.28-18.6c-0.29-3.64-1.27-7.15-2.07-10.7c-0.59-2.92-0.61-4.29-1.04-7.59c-0.36-3.19-0.94-5.41-1.38-7.85 c0.27-0.36,0.4-0.84,0.26-1.29c-0.22-0.4-0.39-0.64-0.55-0.81c-0.02-0.9,0.08-1.85-0.51-2.54c-0.61-0.64-1.61-0.5-2.16,0.07 c-0.18-0.2-0.31-0.36-0.37-0.42c-1.47-2.01-3.9-5.45-4.28-6.51c-0.39-1.08-0.6-2.05-0.68-2.99c0.2,0.21,0.46,0.35,0.76,0.42 c0.04,0.22,0.08,0.43,0.13,0.65c0.04,0.3,0.05,0.37,0.05,0.34c0.11,0.62,0.03,1.4,0.18,2.05c0.01,0.02,0.01,0.05,0.01,0.07 c0.02,0.09,0.06,0.17,0.09,0.25c0.02,0.06,0.04,0.12,0.07,0.18c0.04,0.08,0.1,0.14,0.16,0.21c0.04,0.04,0.06,0.09,0.11,0.13 c0.11,0.1,0.25,0.19,0.42,0.25c0.11,0.05,0.22,0.08,0.33,0.1c0.04,0.01,0.08,0.01,0.12,0.02c0.08,0.01,0.16,0.01,0.24,0 c0.03,0,0.07,0,0.1-0.01c0.11-0.02,0.22-0.05,0.32-0.09c0.02-0.01,0.04-0.02,0.06-0.03c0.29-0.13,0.55-0.34,0.71-0.61 c0.01-0.02,0.01-0.05,0.03-0.07c0.11-0.2,0.17-0.43,0.17-0.68c0.04-0.44-0.01-0.91-0.01-1.34c-0.07-0.66-0.16-1.32-0.27-1.97 c0.83-0.23,1.73-0.42,2.56-0.67c0.13,0.18,0.27,0.35,0.45,0.49c0.85,0.59,2.07,0.04,2.32-0.94c0.36-1.95,0.09-3.95-0.16-5.9 c-0.07-0.52-0.14-1.05-0.24-1.58c0.07-0.25,0.15-0.52,0.24-0.84c0.26-0.66,0.46-1.15,0.86-1.59c0.12,0.02,0.23,0.04,0.34,0.07 c0.31,2.22-0.13,7.54,0.42,11.04c0.43,1.85,2.99,1.6,3.14-0.27c0.09-3.19,0.74-7.2,1.14-9.62c0.42,0.83,0.8,1.78,0.94,2.58 c0.4,1.73,0.18,4.48,0.24,7.27c0.08,0.98-0.28,2.28,0.63,2.95c1.08,0.88,2.36-0.26,3.25-0.92c0.66-0.55,0.39-0.34,1.06-0.86 c2.13-1.54,4.1-2.63,5.05-2.58c0.12,0,0.24,0.01,0.35,0.02c0.07,0.01,0.14,0.03,0.21,0.05c-0.14,1-0.44,0.93-1.87,2.74 c-1.47,1.32-5.91,4.88-9.21,7.53c-1.02,1.02-0.14,2.42,0.94,2.55c0.21,0.79,0.36,1.43,0.55,2.52c0.04,0.4,0.03,0.8,0.05,1.2 c0.04,1.08,0.16,2.15,0.37,3.21c0.54,2.94,1.15,5.83,1.4,7.75c0.25,2.23,0.06,4.49,0.31,6.73c1.17,6.83,1.37,14.73,3.22,23.31 c0.52,1.87,3.4,1.11,2.89-0.8c-0.3-1.35-0.54-2.61-0.75-3.84c0.29-0.18,0.51-0.46,0.64-0.78c0.02-0.02,0.02-0.02,0.04-0.05 c0.75-0.83,0.24-0.29,0.96-1.17c1.62-1.98,2.92-4.19,4.33-6.32c0.48-0.9,1.32-1.68,1.55-2.68c0.04-0.19,0.03-0.37,0-0.54 c0.63-1.24,1.26-2.48,1.89-3.72c2.5-5.32,5.96-10.25,8.41-15.57C243.59,172.89,244.74,173.65,246.43,175z M290.37,89.01 c0.66-0.37,1.23-0.91,1.67-1.54c0.5,1.1,1.74,1.65,2.59,0.05c1.26-2.92,4.41-4.19,5.4-3.08c0.06,0.08,0.11,0.14,0.14,0.19 c0,0.01,0.01,0.01,0.01,0.02c0,0,0,0.01,0,0.01c-0.01,0.03-0.02,0.07-0.02,0.1c-0.04,0.11-0.09,0.21-0.14,0.32c0,0,0,0,0,0 c-0.16,0.2-0.81,1.15-0.81,1.49c-0.18,0.93,0.09,2.11,1.04,2.5c0.57,0.24,1.08-0.16,1.59-0.36c1.45-0.44,2.18-0.65,2.96-0.56 c-0.22,0.17-0.44,0.3-0.56,0.37c-0.26,0.13-0.55,0.26-0.82,0.4c-0.01,0-0.01,0-0.02,0c0,0,0,0,0,0c-0.39,0.21-0.74,0.47-0.9,0.91 c-0.81,2.2,1.03,3.33,1.55,2.96c0.26-0.04,0.53-0.06,0.79-0.06c-0.01,0.01-0.02,0.02-0.03,0.03c-0.18,0.18-0.37,0.36-0.58,0.51 c-1.14,0.88-2.77,1.35-4.06,1.2c-0.3-1.32-1.57-2.68-2.99-2.07c-1.26,0.59-1.52,2.17-1.07,3.41c-1.21,0.46-2.7,0.59-3.06,0.5 c-1.03-0.16-1.31-1.33-1.64-2.21c-0.31-0.86-0.19-1.86-0.65-2.66c-0.2-0.44-0.55-0.68-0.93-0.74 C290.11,90.19,290.3,89.61,290.37,89.01z M276.46,86.64c0.19-0.31,0.45-0.58,0.71-0.86c1.6,1.15,2.91-1.82,1.75-3.16 c-2.27-3.04-1.06-4.29,0.84-4.29c0.3,0.08,0.4,0.11,0.44,0.13c0.2,0.12,0.35,0.23,0.48,0.35c0.08,0.1,0.15,0.2,0.19,0.26 c0.07,0.14,0.13,0.29,0.18,0.41c0.05,0.19,0.1,0.38,0.14,0.57c0,0.01,0,0.02,0.01,0.03c0,0.1,0.01,0.2,0.01,0.29 c0,0.01,0,0.02,0,0.03c-0.19,1.04,0.28,2.45,1.47,2.51c0.67,0,1.07-0.62,1.63-0.91c0.2-0.23,3.07-1.21,3.74-1.11 c0.08-0.01,0.19-0.01,0.32-0.01c-0.36,0.26-0.72,0.5-0.89,0.56c-0.2,0.13-0.45,0.3-0.52,0.44c-0.77,1-0.51,3.02,0.82,3.35 c-1.34,0.29-1.93,2.57-0.88,3.73c-0.76,0.45-2.03,0.42-2.98,0.15c0.12-1.07-0.21-2.11-1.27-2.66c-1.64-0.47-2.78,1.43-2.68,2.9 c-0.26,0.12-1.02,0.45-1.46,0.57c-0.16-0.01-1.18,0.02-1.45-0.09c0.08,0.01,0.13,0.02,0.19,0.03c-0.04-0.01-0.07-0.01-0.13-0.03 C275.2,89.24,275.33,88.46,276.46,86.64z M249.49,129.53c-0.46-0.04-1.2-0.32-1.57-0.7c0-0.03,0-0.07,0-0.1 c0.21-1.3,1.49-3.23,3.13-4.18c-0.01,0.37-0.02,0.75-0.03,1.12c-0.01,1.3,0.04,2.61,0.18,3.92 C250.68,129.47,250.05,129.61,249.49,129.53z M284.9,158.85c0.16,0.2,0.36,0.36,0.61,0.46c1.89,0.38,3.63,1.22,5.43,1.87 c0.13,0.12,0.28,0.22,0.45,0.29c2.78,0.75,5.45,1.85,7.94,3.29c0.15,0.07,0.28,0.14,0.41,0.2c-0.59,0.21-1.19,0.41-1.77,0.66 c-2.48,1.08-4.94,2.22-7.33,3.48c-2.94,1.34-5.74,3-8.76,4.17c-2.22,0.9-5.4,1.66-6.55,1.8c-0.87,0.09-1.74,0-2.61-0.11 c-0.06-0.01-0.12-0.02-0.18-0.03c-3.92-0.92-6.49-2.56-9.37-3.94c-2.9-1.43-7.6-3.36-9.16-4.31c-0.83-0.52-1.63-1.07-2.42-1.64 c0.54-0.26,1.08-0.51,1.62-0.77c1.99-0.8,4.08-1.28,6.15-1.81c0.16-0.04,0.29-0.07,0.43-0.1c0.21,0.06,0.45,0.06,0.72-0.01 c0.22-0.09,0.43-0.19,0.65-0.28c0.43-0.07,0.93-0.13,1.87-0.23c0.15,0,0.29-0.04,0.42-0.09c-0.24,1.11,0.24,2.48,1.43,2.57 c1.9-0.13,1.99-3.48,0.29-3.94c0.66-0.28,1.32-0.57,1.98-0.84c0.6-0.32,1.36-0.47,2-0.78c0.06,0.04,0.11,0.07,0.18,0.1 c1.68,0.45,1.95-1.83,2.55-2.9c0.74-1.69,1.45-3.39,2.35-5c0.06-0.12,0.11-0.25,0.14-0.38c1.81,0.15,3.63,0.15,5.43,0.04 c0.01,0.06,0.02,0.12,0.04,0.17c0.15,1.1,0.62,5.49,0.53,4.68c-0.01,1.06,0.22,2.59,1.54,2.67c0.24,0.01,0.47,0,0.71,0.01 C283.37,158.37,284.13,158.61,284.9,158.85z M306.93,115.28c0.55-1.03,0.3-2.58-0.81-3.07c-0.24-0.17-0.72-0.01-1.01,0.12 c-0.39-0.55-0.83-1.01-1.46-1.07c-1.01,0.08-1.49,1.05-1.49,2.01c-1.75-0.12-4.78-1.08-7.21-2.38c-3.15-1.62-4.72-1.96-6.26-4.32 c-0.78-1.15-1.5-2.81-1.85-4.38c-0.31-0.97-0.2-2.07-0.68-2.97c-0.79-1.34-1.98-0.79-2.47,0.23c-1.54-1.42-2.93,1.24-2.17,2.61 c1.11,3.41,1.21,5.96-0.38,9.66c-0.34,0.94-2.11,3.18-3.11,5.24c-0.73,2.33,1.8,4.09,2.94,1.35c1.4-2.21,2.97-4.37,3.64-6.93 c0.37-1.36,0.6-2.8,0.67-4.26c0.76,1.62,1.75,3.12,3.08,4.34c1.57,1.39,3.57,2.13,5.41,3.09c3.14,1.52,6.95,3.31,10.39,2.4 c0.27,0.5,0.55,1.01,0.74,1.55c0.08,0.3,0.09,0.29,0.06,0.18c0,0,0,0.01,0,0.01c0.24,1.09,0.35,1.58,0.4,2.02 c-0.01,0.02-0.02,0.03-0.02,0.05c-0.29,0.57-0.26,1.4,0.02,2.05c-0.13,2.12,0.01,1.98-0.56,4.39c-0.84,3.56-4.59,8.48-7.61,11.05 c-2.6,2.54-6.06,5.51-8.32,6.42c-5.16,2.37-12.98,2.3-17.91,1.48c-5.47-1.21-8.8-5.08-13.3-9.15c-2.42-2.29-3.45-5.51-3.6-9.53 c-0.04-1.39-0.02-2.8,0.02-4.19c0.13-0.14,0.25-0.29,0.32-0.51c0.34-0.67,0.24-1.7-0.2-2.36c0.01-0.13,0.02-0.26,0.02-0.39 c4.37-0.67,8.63-2.16,12.33-4.6c2.15-1.36,4.27-2.85,5.74-4.96c1.08-1.48,2.03-3.04,2.87-4.67c-0.09,3.69-1.6,6.88-4.49,10.56 c-0.39,0.53-1.02,0.93-1.17,1.6c-0.47,1.14,0.31,3.13,1.77,2.7c2.05-1.51,3.34-3.92,4.51-6.14c2.36-3.95,2.87-8.75,1.97-13.21 c-0.11-0.41-0.17-0.87-0.27-1.3c0.05-0.49-0.01-0.97-0.3-1.42c-0.51-1.13-2.09-0.93-2.47,0.2c-1.43,4.31-3.68,8.12-5.83,10.4 c-4.22,3.45-7.56,5.27-13.12,6.52c-0.46,0.15-0.87,0.23-1.26,0.29c0.03-0.46,0.06-0.9,0.09-1.3c-0.08-2.02-2.51-2.4-2.92-0.27 c-0.08,0.71-0.14,1.43-0.21,2.14c-0.93,0.68-0.99,2.38-0.23,3.23c-0.01,0.14-0.02,0.28-0.03,0.41c-0.46,0.17-0.9,0.39-1.33,0.65 c-0.07-6.62,1.69-12.28,4.98-17.32c1.71-2.5,4.36-5.05,6.93-7.05c1.23,0.06,2.47-0.17,3.56-0.69c2.52,2.5,7.9,0.46,8.17-3.16 c0.04-0.35,0.02-0.7-0.04-1.04c1.73,2.76,5.97,2.97,8.52,0.84c0.1,0.06,0.21,0.12,0.31,0.17c1.78,0.9,4.1,0.98,5.81-0.05 c-0.03,0.72,0.17,1.45,0.3,2.15c0.55,2.38,1.78,5.32,4.55,5.6c2.05,0.16,4.65-0.52,6.14-2.02c1.21,0.34,2.54,0.28,3.81-0.1 c1.25,1.29,2.38,2.6,3.23,3.78c1.93,2.75,2.79,3.51,3.76,6.39c0.07,0.25,0.07,0.24,0.05,0.14c0.02,0.07,0.04,0.14,0.06,0.2 c0.36,1.21,0.66,2.44,0.82,3.7c0.01,0.09,0.02,0.16,0.02,0.21c0.12,1.4,0.14,2.81,0.15,4.22c-0.02,0.06-0.03,0.13-0.04,0.19 c-0.07,0.2-0.13,0.62-0.17,0.93c0,0,0,0.01,0,0.01c0-0.02,0-0.03,0-0.05c-0.01,0.03-0.01,0.05-0.01,0.08 c-0.03,0.1-0.06,0.2-0.09,0.3c-0.11,0.2-0.19,0.42-0.25,0.65c-0.76-0.08-1.55-0.01-2.29,0.18 C307.93,117.8,307.53,116.5,306.93,115.28z M309.28,125.41c-0.14,0.09-0.21,0.13-0.24,0.15c-0.3,0.15-0.61,0.27-0.92,0.4 c0.14-0.92,0.23-1.86,0.27-2.8c1.43-0.45,2.36-0.24,2.74,0.09C310.56,124.54,310.77,124.22,309.28,125.41z"/></g></g><g id="change1_6"><path d="M348.62,436.8c-0.13-0.26-0.29-0.51-0.51-0.68c-0.01-0.05-0.01-0.1-0.02-0.15c-0.23-1.05-1.21-1.72-1.81-2.57 c-1.71-2.22-3.54-4.36-5.07-6.7c-3.26-5.35-6.6-15.38-9.59-22.69c-1.67-4.41-2.4-11.76-3.26-17.9c-1.14-9.5-1.99-20.14-1.89-31.05 c0.04-5.8-0.43-11.58-0.45-17.37c0-6.26,0.56-12.5,0.49-18.76c-0.2-14.78,0.54-29.62-0.66-44.37c-0.25-3.31-1.22-6.49-1.9-9.72 c-0.72-3.41-1.22-6.88-2.27-10.21c-1.83-5.35-3.6-10.81-6.55-15.67c-2.78-4.03-5.92-7.89-9.3-11.43c1.17-1.03,2.31-2.07,3.42-3.15 c0.42,1.51,1.11,2.92,2.13,4.16c0.62,0.71,1.4,1.25,2.25,1.64c0.45,0.26,1.04,0.28,1.45-0.07c0.9-0.75,0.96-2.21,0.3-3.14 c-1.04-0.98-0.95-0.44-1.64-1.08c-1.02-1-0.5-0.33-1.27-1.73c-0.09-0.18-0.24-0.61-0.34-0.91c-0.75-3.48-0.58-4.06,0.27-7.78 c0.12-0.5,0.07-0.95-0.07-1.34c2.54-0.39,4.8-3.14,4.84-6.01c0.03-0.47,0-0.9-0.09-1.29c0.35-1.03,0.41-2.18,0.22-3.23 c-0.29-1.73-1.65-2.94-3.24-3.33c-0.04-0.49-0.18-1-0.41-1.43c0.03-0.17,0.06-0.33,0.08-0.46c0.25-1.24,0.33-1.13,0.86-2.19 c0.47-0.65,0.98-1.3,1.49-1.95c-0.19,0.63-0.29,1.33-0.26,2.1c0.13,1.79,0.77,3.54,1.81,5c0.04,0.06,0.08,0.12,0.12,0.18 c-0.06,0.09-0.12,0.18-0.17,0.29c-0.39,0.91-0.11,1.93,0.03,2.87c0.38,1.75,1.12,3.48,2.43,4.73c1.63,1.53,3.93,1.93,5.8,1.19 c-0.01,0.34,0.05,0.69,0.22,1.01c2.11,5.43,2.25,10.19-0.39,15.86c-0.3,0.62-0.24,0.31-0.83,1.19c-0.69,1.07-0.27,3.1,1.18,3.21 c1.3-0.18,1.87-1.74,2.43-2.77c1.06-2.73,2.03-5.55,2.22-8.5c0.2-3.76-0.68-7.52-2.01-11.01c-0.18-0.35-0.39-0.59-0.6-0.75 c0.16-0.24,0.32-0.49,0.45-0.76c0.44-0.86,0.7-1.91,0.72-2.94c1.69-1,2.93-2.85,2.89-4.85c0.01-0.98-0.32-1.85-0.89-2.48 c0.03-0.08,0.06-0.16,0.08-0.25c0.7-2.32-1.06-5-3.52-5.1c-0.88-0.03-1.86,0.18-2.78,0.57c-0.19-0.27-0.4-0.53-0.67-0.75 c-2.09-1.84-4.59-1.9-6.34-0.72c0.74-1.23,1.28-2.54,1.37-4.04c0.25-2.51-0.38-5.03-1.42-7.31c0.99-2.65,1.33-5.66-0.04-9.43 c-0.26-0.61-0.38-1.38-0.68-2.01c0.48-1.81,0.59-3.69,0.04-5.52c-0.36-1.34-0.97-2.58-1.6-3.8c-0.13-0.32-0.35-0.6-0.64-0.78 c1.41-3.63,0.5-8.01-2.03-10.93c0.06-0.14,0.12-0.27,0.18-0.41c1.5-3.68,1.44-7.83-0.25-11.44c-0.76-1.55-1.65-3.66-2.92-4.79 c-1.8-0.87-2.65,2.08-1.64,3.24c4.36,6.76,3.51,8.68-0.66,17.27c-0.42-0.06-0.87-0.02-1.28-0.11c-1.09-0.11-2.32-1-2.51-1.52 c-0.57-1.48-0.29-0.82-0.44-1.68c-0.18-1.81,0.44-2.26,0.63-4.81c-0.02-0.38-0.12-0.69-0.27-0.95c0.55-1.75,1.24-3.29,2.01-5.84 c0.35-1.79-1.84-3.32-2.77-1.28c-0.95,2.41-1.83,4.85-2.49,7.35c-0.24,1.29-0.8,2.7-0.31,3.98c0.07,0.14,0.15,0.26,0.23,0.36 c-0.15,3.29,0.82,6.64,4.09,7.93c0.54,0.21,1.11,0.33,1.68,0.42c-1.08,3.12-1.91,6.65-0.63,9.28c-0.44-0.23-0.89-0.43-1.36-0.37 c-1.68,0.36-1.72,3.27-0.2,3.89c0.69,0.32,1.37,0.65,2.05,0.99c-0.05,0.27-0.04,0.56-0.01,0.83c-2.34,1.08-4.65,2.24-6.95,3.41 c-1.27,0.63-2.55,1.27-3.7,2.12c-0.82,0.48-1.37,1.39-1.2,2.35c0.03,0.81,0.6,1.7,1.47,1.73c0.71-0.07,1.22-0.63,1.8-1.04 c0.02,0.05,0.04,0.1,0.06,0.14c0.92,2.56,1.88,5.11,3.17,7.51c0.17,0.24,0.31,0.54,0.46,0.83c-1.99-0.27-4.1,0.44-5.07,2.32 c-0.11,0.21-0.19,0.43-0.26,0.66c-1.02,0.69-1.85,1.69-2.38,2.79c-1.06,2.23-1.48,5.12,0.01,7.25c0.45,0.59,1.02,1.11,1.66,1.53 c0.05,0.97,0.4,1.93,1.03,2.67c0.38,2.43,0.78,4.85,1.2,7.27c0.26,1.05,0.34,2.29,1.04,3.14c-3.16,2.02-6.22,4.18-9,6.7 c0.59,0.22,1.17,0.47,1.73,0.8c0.54,0.32,1.05,0.7,1.54,1.11c2.87-2.52,6.22-4.45,9.42-6.52c1.22-0.89,2.87-1.4,3.81-2.59 c0.28-0.37,0.37-0.88,0.31-1.38c0.8,0.31,1.73,0.34,2.65,0.11c0.29,0.27,0.6,0.47,0.9,0.64c-0.12,0.2-0.23,0.44-0.3,0.75 c-0.48,1.75-0.79,3.65-0.81,5.54c-2.62,2.46-5.12,5.04-7.98,7.22c-1.34,1.18-2.77,2.32-4.15,3.52c0.07,0.58,0.11,1.16,0.13,1.74 c0.05,1.23-0.11,2.37-0.43,3.43c0.15-0.15,0.3-0.3,0.45-0.44c2.11-1.96,4.33-3.81,6.54-5.67c0.04,0.06,0.07,0.11,0.11,0.16 c3.51,3.95,7.11,7.91,9.93,12.4c3.17,5.94,6.05,13.92,7.33,21.55c1.15,5.53,2.53,10.7,2.56,15.02c0.53,12.69,0.22,25.4,0.31,38.1 c0.12,7.1-0.49,14.19-0.5,21.29c0.31,8.6,0.49,17.19,0.55,25.8c0.42,9.28,1.22,18.54,2.52,27.74c0.74,5.13,1.34,10.33,3.29,15.17 c2.81,6.66,4.97,13.6,8.26,20.05c1.75,3.42,4.28,6.35,6.63,9.36c0.25,0.25,0.5,0.6,0.76,0.94c-0.53,0.42-1.05,0.84-1.57,1.27 c-2.47,2.05-5.05,3.94-7.74,5.69c-3.87,2.67-7.93,6.97-11.12,8.35c-5.76,2.83-13.47,2.71-18.97,1.53c-4.83-1.02-7.7-5.01-13.16-6.34 c-3.38-0.63-6.94-0.73-10.27,0.21c-1.55,0.55-2.84,1.6-4.23,2.45c-3.11,2.16-8.49,3.49-13.19,3.62c-4.75,0.37-9.53,0.12-14.27-0.32 c-4.48-0.36-7.15-0.56-11.1-1.74c-5.67-1.92-11.28-4.02-16.82-6.27c-2.1-0.53-2.57,3.19-0.8,3.86c6.42,2.49,12.81,5.24,19.49,6.96 c5.53,1.14,11.22,1.41,16.85,1.66c5.99,0.04,12.29-0.06,17.88-2.44c3.01-1.26,5.1-3.31,7.27-4c3.29-0.73,8.41-0.89,12.05,1.31 c2.1,0.99,5.03,3.51,8.35,4.59c2.81,0.88,5.75,1.18,8.68,1.17c3.75,0.12,7.58-0.25,11.13-1.56c5.7-1.98,9.56-6.84,14.48-10.08 c2.71-1.69,5.19-3.69,7.66-5.71C347.03,440.22,349.64,439.13,348.62,436.8z M318.9,195.7c0.47-1.27,2.31-1,3.34-0.42 c-0.21,0.33-0.39,0.68-0.5,1.06c-0.42,1.69,1.26,3.5,2.73,1.99c0.38-0.33,0.65-0.73,0.86-1.16c0.4-0.29,0.67-0.36,1.7-0.7 c0.28-0.05,0.79-0.03,1.17,0.13c-0.3,0.28-0.26,0.13-1.23,0.87c-0.94,0.94-0.76,2.94,0.51,3.5c0.43,0.18,0.85-0.03,1.28-0.12 c0.01,0,0.01,0,0.01,0c0,0,0,0,0.01,0c-0.33,0.39-0.67,0.66-1.05,0.84c-1.76-1.09-3.86,0.67-3.37,2.64c0.17,1,0.83,1.48,1.62,1.63 c-1.23,1.83-4.34,1.27-5.29-1.65c-0.01-0.02-0.01-0.03-0.01-0.05c-0.45-1.72-0.09-0.97-0.41-2.21c-0.03-0.13-0.08-0.23-0.13-0.34 c0.52-0.77,0.5-2.01-0.05-2.73c-1.03-1.7-0.89-1.12-1.25-2.95C318.85,195.92,318.87,195.81,318.9,195.7z M315.42,189.51 c-0.8,1.16-1.75,2.22-2.58,3.36c0-0.02,0.01-0.04,0.02-0.06c0.13-1.55-0.14-1.15-0.07-1.86c0.05-0.34,0.11-0.68,0.2-1.01 c0.02-0.07,0.04-0.13,0.05-0.19c0.38-1.1,0.93-2.13,1.48-3.15c0.5-0.84,1.02-1.69,1.53-2.55 C316.79,186.38,316.5,187.78,315.42,189.51z M315.39,173.04c0.5,1.8,0.53,3.22,0.12,4.71c-0.85,0.3-1.23,1.54-1.03,2.48 c-0.31,0.59-0.66,1.2-1.09,1.89c0.12-1.01-0.27-1.65-0.15-1.71C313.34,178.15,313.65,176.19,315.39,173.04z M313.26,161.8 c3.36,5.71-0.36,7.2-2.19,13.31c-0.01-0.39-0.15-0.84-0.38-1.22c0.33-0.72,0.28-1.69-0.14-2.34c-0.07-0.21-0.15-0.41-0.26-0.59 c-0.02-0.58-0.23-1.18-0.59-1.56c-0.01-0.67,0.14-1.5,0.51-2.54c0.58-0.41,0.83-1.11,0.8-1.81 C311.45,164.38,312.4,163.08,313.26,161.8z M308.05,161.02c0-0.02,0-0.03,0-0.05c0.44-2.97,0.88-3.72,2.01-6.84 c0.39-0.98,0.84-1.92,1.3-2.86c2.18,3.52,1.88,4.79-1.28,9.19c-0.57,0.77-1.09,1.58-1.56,2.42c-0.16-0.08-0.32-0.18-0.47-0.37 c-0.01-0.06-0.03-0.13-0.05-0.22C307.99,161.88,308.01,161.45,308.05,161.02z M300.93,178.79c-0.24-0.51-0.38-1.09-0.58-1.63 c0.86-0.44,1.8-0.9,2.53-1.26c1.49-0.71,2.95-1.45,4.45-2.13c-0.09,0.78,0.16,1.63,0.74,2.05c0.07,0.22,0.17,0.43,0.3,0.61 c0.72,1.14,1.79,0.89,2.35,0.09c-0.18,0.82-0.33,1.72-0.42,2.71c-0.09,1.26-0.14,2.66,0.45,3.81c0.34,0.74,1.09,0.91,1.7,0.64 c-1.03,1.77-2,3.58-2.45,5.59c-0.24,1.37-0.39,2.93,0.24,4.21c0.43,0.86,1.24,0.93,1.85,0.53c-0.18,0.31-0.35,0.62-0.5,0.95 c-0.34,0.84-0.7,1.77-0.81,2.7c-0.59-0.15-1.2-0.25-1.8-0.28c0.38-0.54,0.53-1.37,0.18-2.34c-0.81-2.87-2.72-5.53-5.35-6.99 c0.11-0.14,0.21-0.28,0.28-0.44c0.64-2.27-0.53-2.43-1.23-4.26C302.15,181.87,301.51,180.34,300.93,178.79z M296.69,198.25 c-0.04-0.02-0.09-0.05-0.12-0.07c-0.26-0.17-0.5-0.37-0.73-0.59c-0.07-0.08-0.13-0.17-0.18-0.24c-0.03-0.06-0.05-0.11-0.07-0.15 c0-0.02-0.01-0.05-0.02-0.07c-0.03-1.2,0.48-2.41,1.26-3.15c0.16,0.17,0.34,0.32,0.53,0.45c1.81,1.31,4.37,0.18,4.37-2.12 c0.02-0.35-0.05-0.68-0.15-1c1.81,0.59,3.87,2.24,4.64,4.77c0.15,0.71,0.4,1.2,0.7,1.51c-0.28,0.08-0.55,0.17-0.82,0.29 c-1.53,0.74-2.82,2.09-3.53,3.67c-0.21-0.05-0.44-0.06-0.7,0.02c-0.09,0.03-0.19,0.06-0.3,0.09c0.65-1.02,0.69-2.45-0.06-3.45 C300.25,196.73,298.08,197.09,296.69,198.25z M304.03,211.36c-1.05,0.64-2.1,1.28-3.15,1.93c-0.01-1.25-0.49-1.52-0.68-3.46 c-0.29-1.29-0.44-2.63-0.63-3.95c0.72,0.03,1.44-0.06,2.13-0.21c0.19-0.03,0.38-0.06,0.57-0.11c0.37,1.01,1.1,1.86,2.03,2.33 c-0.16,0.75-0.21,1.52-0.09,2.28c0.07,0.37,0.17,0.69,0.29,0.98C304.35,211.18,304.19,211.24,304.03,211.36z M307.91,209.21 c-0.14,0.02-0.28,0.03-0.41,0.03c-0.02,0-0.03,0-0.05-0.01c-0.01,0-0.01,0-0.01,0c-0.1-0.03-0.19-0.06-0.28-0.1 c0.05-0.36,0.15-0.77,0.5-1.32c1.55-1.06,1.29-4.38-1-3.9c-0.18,0.08-0.33,0.19-0.47,0.31c-0.22,0.02-0.43,0.02-0.65-0.01 c-0.05-0.01-0.1-0.03-0.18-0.05c-0.07-0.03-0.12-0.05-0.16-0.07c-0.03-0.02-0.05-0.04-0.08-0.06c-0.02-0.03-0.05-0.06-0.07-0.09 c0.02-0.07,0.03-0.15,0.05-0.22c0.04-0.1,0.09-0.21,0.16-0.33c0.73-1.26,2.27-2.5,4.94-1.83c-1.01,1.81,0.75,4.23,2.39,2.62 c0.07-0.01,0.13-0.02,0.19-0.02c1.1,0.04,0.52-0.1,1.42,0.28c0.04,0.03,0.09,0.07,0.14,0.11c0.02,0.03,0.04,0.06,0.07,0.09 c-0.81,0.13-1.6,0.78-2.06,2.08c-0.52-0.44-1.23-0.62-2.01-0.27C309.12,206.91,308.25,207.99,307.91,209.21z"/></g><g id="change1_7"><path d="M322.83,218.12c-0.22,1.19-0.49,2.37-0.78,3.54c0.07-0.72-0.03-1.46,0.01-2.18c0.01-0.77,0.06-1.6-0.44-2.24 c-1.05-1.41-2.68,0.01-2.56,1.41c0.02,0.2,0.02,0.41,0.02,0.62c-0.23,0.35-0.37,0.79-0.33,1.23c-0.08,1.1-0.19,2.19-0.29,3.29 c-0.07-0.47-0.13-0.93-0.22-1.4c0.46-1.05,0.04-2.59-0.22-3.1c-1.06-1.78-2.77-0.24-2.69,1.31c-0.28,0.48-0.41,1.1-0.25,1.67 c0.56,2.53,0.77,5.15,1.52,7.64c0.68,1.59,2.48,1.09,2.74-0.48c0.01-0.1,0.01-0.18,0.01-0.27c0.62,0.17,1.04-0.07,1.33-0.51 c0.39,0.75,1.27,1.27,2.03,0.65c1.09-1.25,1.13-3.15,1.72-4.68c0.49-2.05,1.25-4.14,1.31-6.25 C325.64,216.33,323.25,216.01,322.83,218.12z"/></g><g id="change1_8"><path d="M275.53,125.75c-0.5-1.1-1.79-1.48-2.67-0.35c-0.25,0.29-0.4,0.65-0.47,1.03c-0.69,1.33-0.29,3.43,1.39,3.54 c0.65-0.08,1.16-0.47,1.5-1C276.13,128.19,276.25,126.59,275.53,125.75z"/></g><g id="change1_9"><path d="M282.07,125.17c-0.37-0.56-0.95-0.7-1.47-0.55c-0.78-0.39-1.79,0-2.03,1.35c0,0,0,0.01-0.01,0.04 c-0.19,0.73-0.24,1.51-0.1,2.25c0.41,2.32,2.62,2.99,3.38,0.7c0.09-0.13,0.18-0.25,0.26-0.41 C282.62,127.51,282.76,126.16,282.07,125.17z"/></g><g id="change1_10"><path d="M282.28,135.9c-0.31-0.8-1.32-1.33-2.05-0.72c-0.07,0.05-0.15,0.09-0.22,0.14c-0.01,0.01-0.02,0.01-0.03,0.02 c-1.51,0.59-1.19,0.51-2.86,0.49c-0.62-0.06-0.67-0.09-1.95-0.49c-0.39-0.15-0.84-0.06-1.16,0.2c-1.09,0.89-1,3.06,0.36,3.66 C276.92,140.38,283.69,140.11,282.28,135.9z"/></g><g id="change1_11"><path d="M269.2,161.57c-2,0.14-1.99,3.85,0,4C271.2,165.43,271.19,161.72,269.2,161.57z"/></g><g id="change1_12"><path d="M276,162.81c-2,0.14-1.99,3.85,0,4C278,166.67,278,162.96,276,162.81z"/></g><g id="change1_13"><path d="M280.34,161.57c-2,0.14-1.99,3.85,0,4C282.34,165.43,282.33,161.72,280.34,161.57z"/></g><g id="change1_14"><path d="M287.14,160.95c-2,0.14-1.99,3.85,0,4C289.14,164.81,289.14,161.1,287.14,160.95z"/></g><g id="change1_23"><path d="M300.01,240.95c2.81-3.98-0.16-9.5-6.54-8.36c-0.33,0.06-0.67,0.12-1,0.19c0.01-3.17-2.4-5.95-6.43-5.73 c-3.08,0.3-5.31,2.67-6.39,5.49c-0.33-0.39-0.73-0.69-1.17-0.92c0.84-1.51,0.87-3.33-0.67-4.65c-0.7-0.42-1.47-0.76-2.27-1.03 c0.08-0.24,0.13-0.5,0.11-0.8c-0.31-2.58-0.04-4.68,2.58-6.53c2.17-1.45,5.17-0.61,6.11,0.96c-0.08,0.51-0.04,1.05,0.18,1.59 c0.89,1.87,2.64,0.95,2.98-0.58c0.18-0.08,0.37-0.15,0.56-0.2c0.4,0,0.62-0.2,1.67,0.26c0.57,0.28,1.45,1.01,1.78,1.81 c0.01,0.05,0.02,0.09,0.03,0.13c0,0.08,0,0.16,0,0.23c-0.01,0.05-0.02,0.1-0.04,0.16c-0.38,0.72-0.41,1.66,0.02,2.35 c0.72,1.09,1.51,0.94,2.1,0.32c-0.05,0.05,0.04-0.02,0.19-0.11c0.03-0.02,0.05-0.03,0.11-0.05c1.45-0.54,2.04-0.06,2.41,0.59 c-0.01,0.01-0.01,0.03-0.02,0.04c-0.06,0.09-0.11,0.17-0.18,0.25c-0.99,1.02-0.7,3.43,0.93,3.57c0.88-0.04,1.34-0.91,1.73-1.59 c0.82-1.54,0.75-3.53-0.23-4.99c-0.86-1.49-2.57-2.22-4.19-2.06c-0.72-2.77-3.38-5.14-6.29-4.91c-0.54,0.03-1.08,0.18-1.58,0.43 c-2.56-3.95-8.94-3.96-11.97,0.43c-1.93,2.77-2.25,5.89-1.86,8.11c-0.99-0.07-1.99-0.02-2.95,0.19c-0.86-2.52-3.32-4.89-5.55-5.52 c-2.21-0.61-4.62,0.26-6.17,1.9c0.03-0.56-0.12-1.17-0.43-1.6c-0.27,0.27-0.63,0.45-1.03,0.44c-0.65-0.01-1.29-0.1-1.94-0.21 c-2.64,1.34-5.33,2.91-6.33,5.83c-0.8,2.11-0.65,4.64,0.3,6.71c-2.4,1.12-4.5,2.82-5.32,5.43c-1.06,3.42,0.43,7.48,3.33,9.54 c1.33,0.91,3,1.31,4.6,1.14c-0.04,1.9,0.46,3.75,2.22,4.71c0.63,0.33,1.49,0.5,2.17,0.31c0.92,2.38,3.15,4.37,5.66,4.66 c0.29,0.04,0.59,0.04,0.89,0.03c0.47,3.27,3.74,5.71,6.91,3.73c1.1-0.76,2.04-1.86,2.7-3.11c1.94,0.58,4.19,0.24,5.85-0.89 c1.18,2.69,3.89,4.75,6.85,3.55c1.39-0.5,2.79-1.51,3.56-2.8c2,0.05,4.19-1.77,4.7-3.9c0.35-0.8,0.06-2-0.58-2.56 c0.25-0.11,0.5-0.23,0.73-0.38c0.21-0.15,0.39-0.33,0.55-0.51c0.05,0.02,0.11,0.04,0.16,0.05c3.3,0.91,7.72-2.02,8.54-5.27 C302.78,244.43,301.8,242.2,300.01,240.95z M253.38,244.42c-0.15,0.04-0.27,0.07-0.37,0.1c-0.3,0.01-0.6,0.15-0.85,0.44 c-0.14,0.06-0.34,0.13-0.67,0.22c-1.63,0.39-3.79-0.19-4.86-2.05c-1.33-2.12-1.01-4.17,2.44-6.02c0.67-0.43,1.45-0.64,2.23-0.85 c0.12,0.07,0.24,0.15,0.37,0.21c-1.11,2.61-0.46,6.25,1.79,7.97C253.43,244.44,253.41,244.43,253.38,244.42z M253.88,233.09 c-0.24-0.82-0.86-1.45-1.79-1.2c-0.12,0.03-0.24,0.06-0.36,0.1c-1.41-1.51-1.13-4.04,0.06-5.17c1.96-1.73,2.7-1.86,5.01-3.08 c-1.15,2.43-1.2,5.29-0.87,7.92c0.02,0.09,0.03,0.18,0.05,0.27c-0.68,0.32-1.32,0.73-1.9,1.21 C254,233.12,253.94,233.1,253.88,233.09z M254.91,237.26c0.03-0.03,0.05-0.06,0.08-0.1c0.36-0.06,0.69-0.21,0.91-0.56 c0.11-0.15,0.2-0.32,0.27-0.49c0.33-0.2,0.73-0.39,1.31-0.64c0.47,0.12,0.9-0.09,1.22-0.46c0.15-0.08,0.28-0.17,0.39-0.3 c0.86-0.85,0.78-2.52-0.15-3.3c0,0-0.01,0-0.01-0.01c-0.39-2.81-0.07-4.85,0.54-5.85c2.57-3.41,6.2-1.11,7.38,1.31 c-1.38,1.48-0.16,4.9,2.04,3.37c0.13-0.14,0.23-0.28,0.34-0.42c2.11-0.71,3.77-0.66,6.05,0.17c-0.4,0.24-0.95,0.55-1.69,1.08 c-0.83,0.77-0.89,2.18-0.24,3.08c0.68,0.93,1.91,0.65,2.93,0.79c0.15,0.03,0.48,0.1,0.63,0.16c0.14,0.03,0.37,0.14,0.52,0.21 c0.02,0.01,0.03,0.02,0.05,0.04c-0.48,0.95-1.46,1.64-4.08,2.2c-0.14,0.02-0.31,0.05-0.42,0.06c-1.28,0.14-2.41,0.28-3.35,0.24 c-0.39-0.65-0.98-1.13-1.84-1.25c-2.06,0.06-2.57,2.88-1.32,4.2c-0.19,0.15-0.4,0.22-0.87,0.49c-1.78,0.81-3.29,0.7-4.43,0.31 c0.1-0.64,0.05-1.32-0.24-2.01c-0.54-1.63-2.61-2.72-4.08-1.55c-0.95,0.89-1.08,2.18-0.73,3.36 C254.15,241.34,253.49,238.92,254.91,237.26z M255.86,249.32c-0.21,0.34-0.35,0.7-0.47,1.07c-0.05-0.01-0.08-0.03-0.13-0.03 c-0.16,0-0.31-0.01-0.41-0.02c-0.16-0.04-0.31-0.09-0.45-0.16c-0.02-0.01-0.03-0.02-0.05-0.04c-0.05-0.11-0.1-0.21-0.15-0.33 c0,0,0,0,0,0c-0.04-1.13-0.02-1.01,0.18-1.93c0.23-0.25,0.4-0.56,0.45-0.93c0.14-0.63,0.01-1.41-0.39-1.94 c0.35,0.15,0.71,0.27,1.11,0.34c1.12,0.19,2.28-0.07,3.26-0.62c0.85,0.53,1.82,0.87,2.82,1.03 C259.35,246.28,257.07,247.26,255.86,249.32z M278.85,248.48c-0.01,0.04-0.02,0.09-0.03,0.14c-0.02,0.06-0.04,0.11-0.06,0.15 c-0.1,0.15-0.19,0.3-0.31,0.43c-0.3,0.19-0.23,0.29-1.27,0.66c-1.3,0.08-2.07,1.76-1.45,3.06c0.25,0.67,0.74,0.92,1.28,0.95v0.01 c-0.02,0.12-0.04,0.24-0.07,0.37c-0.06,0.14-0.12,0.27-0.19,0.4c-0.09,0.12-0.19,0.24-0.29,0.35c-0.44,0.31-0.03,0.12-1.06,0.54 c-0.91,0.34-1.89,0.36-2.7,0.2c-0.01-0.59-0.1-1.18-0.27-1.75c-0.4-1.28-1.97-2.29-3.12-1.24c-1.37,1.26-1.44,3.52-0.37,5 c0.01,0.01,0.02,0.01,0.02,0.02c-0.83,1.24-2.2,2.29-3.51,1.15c-0.07-0.08-0.12-0.17-0.18-0.25c-0.07-0.13-0.12-0.27-0.17-0.41 c-0.01-0.05-0.02-0.1-0.03-0.16c0.38-0.24,0.73-0.52,1.03-0.86c0.86-1.01,1.01-2.77-0.07-3.67c-0.66-0.57-1.6-0.2-2.17,0.33 c-0.31,0.26-0.58,0.56-0.81,0.89c-1.49,0.38-2.29,0.24-3.7-0.84c-0.28-0.32-0.88-0.92-1.21-1.77c0-0.02,0-0.03-0.01-0.05 c0-0.02,0-0.03,0-0.05c0.01-0.03,0.01-0.06,0.02-0.08c0.03-0.08,0.07-0.17,0.11-0.25c1.16-1.74,4.32-2.13,7.36-2.68 c0.85,1.36,2.69,0.41,2.61-1.33c0.14-2.28,0.18-2.99,0.81-3.89c0.07-0.08,0.13-0.16,0.18-0.22c1.1-1.02,1.94-1.14,3.16-1.35 c0.29-0.09,1.34,0.02,1.51,0.02c0.17,0.05,0.36,0.13,0.5,0.19c0,0,0,0,0,0c-0.04,0.08-0.07,0.17-0.11,0.25 c-0.06,0.11-0.1,0.19-0.13,0.23c0.03-0.06,0.09-0.16,0.16-0.28c-0.05,0.1-0.11,0.19-0.16,0.28c-0.04,0.07-0.04,0.06,0,0 c-0.86,1.37-2.4,2.41-1.61,4.24c0.34,0.87,1.27,1.25,2.13,0.86c1.71-0.42,1.41-0.52,3.1-0.45c0.64,0.17,0.84,0.24,1.08,0.71 C278.85,248.38,278.85,248.43,278.85,248.48z M289.83,254.23c-0.01,0.02-0.02,0.04-0.02,0.05c-0.13,0.21-0.28,0.4-0.44,0.58 c-0.19,0.17-0.4,0.31-0.61,0.44c-0.09,0.04-0.2,0.08-0.3,0.11c-0.02,0-0.03,0.01-0.04,0.01c-0.1,0.01-0.2,0.02-0.31,0.02 c-1.2-2.43-3.74-0.82-2.88,1.97c-0.01,0.01-0.01,0.01-0.02,0.02c-2.39,2.08-4.17,0.78-4.78-0.24c-0.5-1.05-0.38-0.84-0.48-1.26 c0.03-0.18,0.05-0.77,0-1.19c0-0.01,0-0.02,0-0.03c0.08-0.65,0.07-1.36-0.06-2.04c0.94-0.76,1.54-1.86,1.81-3.04 c0.5,0.21,1.03,0.36,1.58,0.42c0.35,0.04,0.7,0.03,1.03-0.01c1.04,2.13,3.5,3.43,5.84,3.33C290,253.69,289.88,254.05,289.83,254.23 z M299.29,245.35c-0.01,0.04-0.02,0.08-0.03,0.14c-0.02,0.07-0.03,0.12-0.05,0.17c-0.04,0.1-0.08,0.19-0.11,0.26 c-0.77,1.21-2.99,2.27-3.85,2.39c-0.42,0-0.67,0-0.86-0.02c-0.01-0.03-0.01-0.06-0.01-0.09c-0.24-1.35-1.7-3.03-3.08-1.93 c-0.9,0.88-1.01,2.01-0.65,3.06c-1.96,0.26-3.05-0.53-3.59-1.1c0.31-0.71,0.29-1.57-0.27-2.5c-0.73-1.05-2.04-0.67-2.59,0.29 c-1.63,0.31-3.31-1.03-3.91-2.48c-0.48-1.23-0.31-1.4-0.11-2.25c0.55-1.18,0.15-0.53,1.08-1.76c0.09-0.1,0.16-0.17,0.21-0.22 c0.36-0.35,0.67-0.75,0.75-1.27c0.13-0.61,0.01-1.37-0.36-1.9c0.33-3.44,3.87-7.08,7.49-3.94c0.01,0.02,0.02,0.03,0.04,0.05 c0.01,0.02,0.01,0.03,0.02,0.05c0,0,0,0,0,0.01c0.03,0.11,0.06,0.21,0.07,0.32c0,0.06,0,0.11,0,0.15 c-0.03,0.14-0.06,0.27-0.08,0.36c-0.07,0.17-0.16,0.36-0.22,0.5c-0.18,0.29-0.36,0.56-0.59,0.81c-0.74,1-0.57,2.81,0.66,3.34 c1.11,0.21,1.13-0.26,1.41-0.32c2.29-0.9,2.87-1.08,5.01-1c1.24,0.15,1.79,0.41,2.4,1.16c0,0.01,0,0.01,0.01,0.02 c0,0.01,0,0.02,0,0.03c-0.03,0.07-0.07,0.15-0.11,0.24c-0.08,0.08-0.28,0.74-1.62,1.53c-0.26,0.14-0.76,0.38-1.13,0.61 c-0.87,0.7-1.02,2.08-0.46,3.01c0.26,0.54,0.84,0.86,1.43,0.81c1.45,0.08,1.06-0.08,2.18,0.43c0.18,0.12,0.48,0.32,0.68,0.48 c0.04,0.04,0.08,0.11,0.14,0.18c0.04,0.08,0.07,0.16,0.1,0.24C299.29,245.27,299.29,245.31,299.29,245.35z"/><path d="M274.16 242.99L274.16 242.98 274.16 242.99z"/></g><g id="change1_15"><path d="M269.2,248.22c-2,0.14-1.99,3.85,0,4C271.2,252.07,271.19,248.37,269.2,248.22z"/></g><g id="change1_16"><path d="M287.76,241.41c-2,0.14-1.99,3.85,0,4C289.76,245.27,289.76,241.56,287.76,241.41z"/></g><g id="change1_17"><path d="M263.01,232.12c-2,0.14-1.99,3.85,0,4C265.01,235.98,265,232.27,263.01,232.12z"/></g><g id="change1_18"><path d="M282.19,224.08c-2,0.14-1.99,3.85,0,4C284.19,227.94,284.19,224.23,282.19,224.08z"/></g><g id="change1_19"><path d="M160.81,168.08c0.04-1.65-0.88-3.2-2.26-3.95c0.84-2.03,0.83-4.35-1.33-5.37c-0.96-0.25-1.84,0.09-2.62,0.64 c-0.67-1.28-2.03-2.14-3.23-0.7c-0.58,0.81-1.11,1.86-1.21,2.9c-0.5-0.81-1.52-1.22-2.26-0.23c-1.25,1.92-1.51,4.33-1.42,6.57 c0.04,0.49,0.1,1,0.23,1.49c-0.86,1.93-0.28,4.57,1.45,5.86c0.95,0.65,2.1,0.75,3.16,0.47c0.58,1.02,1.57,1.77,2.9,1.79 c2,0,3.98-1.15,5.03-2.85c0.69-0.99,0.95-2.46,0.58-3.63C160.41,170.17,160.78,169.16,160.81,168.08z M154.51,173.53 c0.35-0.51,0.58-1.09,0.56-1.73c-0.19-3.08-2.9-2.3-3.88-0.14c-0.3,0.14-0.73,0.38-1.31,0.22c0.49-0.22,0.91-0.61,1.13-1.1 c0.68-1.39-0.1-3.28-1.53-3.4c0-0.19-0.02-0.38-0.02-0.57c0.1-1.02-0.05-0.39,0.27-1.89c0.05-0.17,0.08-0.27,0.09-0.31 c0.23-0.59,0.44-0.44,0.59-1.47c0.46,0.88,1.31,0.98,1.94,0.55c0.36,0.74,1.05,1.23,1.9,0.76c0.05-0.04,0.08-0.06,0.12-0.09 c-0.07,0.1-0.14,0.2-0.19,0.32c-0.44,1.03-0.17,2.52,0.94,2.99c1.46,0.18,1.63-0.18,2.39,0.19c0.06,0.04,0.14,0.1,0.22,0.17 c0.01,0.01,0.02,0.03,0.03,0.04c-0.09,0.24,0,0.31-0.89,1.18c-0.17,0.16-0.35,0.3-0.55,0.42c0.02-0.01,0.06-0.03,0.09-0.05 c-0.98,0.64-1.34,2.07-0.53,3.25c0.04,0.06,0.08,0.09,0.13,0.14c-0.06,0.04-0.12,0.08-0.19,0.13c-0.03,0.01-0.04,0.02-0.08,0.04 C154.81,173.51,154.97,173.55,154.51,173.53z"/></g><g id="change1_20"><path d="M217.11,120.41c-0.47-0.09-1.51-0.88-2.08-1.32c-0.95-0.75-1.85-1.55-2.68-2.43c-0.32-0.3-0.59-0.68-0.91-1 c0.21-0.45,0.36-0.92,0.24-1.42c-0.3-1.25-2.13-1.49-2.74-0.36c-1.84,4.18-3.42,5.78-7.11,7.78c-0.7,0.67-0.51,1.92,0.33,2.38 c1.12,0.44,1.83,0.19,2.08,0.34c1.07,0.21,2.09,1.19,2.46,1.73c0.68,1.19,0.6,1.07,0.95,2.75c0.02,0.11,0.02,0.17,0.03,0.21 c0.01,0.05,0.01,0.09,0.02,0.17c0.06,0.42,0.35,0.8,0.71,1.01c0.42,0.26,0.95,0.26,1.39,0.06c0.32,0.78,1.37,1.24,2.15,0.75 c0.59-0.33,0.72-1.04,1.01-1.59c0.71-1.66,0.64-1.65,1.59-3.36c1.01-1.76,1.62-2.36,2.72-2.72c0.48-0.05,0.91-0.26,1.17-0.72 C219.08,121.56,218.2,120.46,217.11,120.41z M211.9,124.74c-0.7,1.35-1.07,2.09-1.42,2.93c-0.19-1.02-0.54-2.01-1.07-2.9 c-0.68-1.07-1.65-2-2.77-2.62c1.28-1.06,2.4-2.31,3.31-3.69c1.22,1.29,2.53,2.54,3.98,3.55C213.1,122.79,212.43,123.75,211.9,124.74 z"/></g><g id="change1_21"><path d="M46.98,104c-2.6-0.58-5.16-1.36-7.63-2.37c-0.83-0.34-1.65-0.71-2.66-1.26c0-0.03,0.01-0.06,0.01-0.09 c-0.05-0.87,0.25-1.92-0.43-2.61c-0.83-0.89-2.39-0.3-2.53,0.85c-0.23-0.14-0.47-0.25-0.74-0.3c-1.56-0.3-2.35,2.02-0.96,2.77 c0.46,0.33,0.94,0.64,1.42,0.94c-0.39,1.77-1.15,3.42-2.05,4.6c-0.91-0.31-2.13,0.26-2.03,1.49c0.01,0.22,0.07,0.44,0.14,0.66 c0.02,0.08,0.05,0.16,0.08,0.23c0.06,0.14,0.13,0.27,0.21,0.39c-0.1,0-0.19,0.01-0.29,0.04c-1.25,0.3-1.49,2.13-0.36,2.74 c3.09,1.41,4.59,2.34,6.7,4.4c0.12,0.09,0.23,0.2,0.34,0.32c0.07,0.46,0.31,0.85,0.83,1.05c0.43,0.56,0.9,1.04,1.62,1.08 c0.97,0.02,1.71-0.98,1.45-1.9c-0.17-0.41-0.44-0.78-0.73-1.12c0.36-1.1,0.48-1.33,1.27-2.87c1.18-2.42,3.31-4.48,4.72-5.52 c1.16-0.73,0.58-0.35,1.66-0.6C48.44,106.55,48.42,104.35,46.98,104z M39.82,108.7c-1.14,1.47-2.04,3.11-2.77,4.81 c-1.47-1.32-3.13-2.44-4.9-3.32c-0.13-0.05-0.26-0.11-0.38-0.17c1-0.16,1.56-1.16,2.16-1.89c1.02-1.41,1.77-3.01,2.23-4.69 c2.02,1,4.14,1.81,6.31,2.47C41.51,106.77,40.63,107.78,39.82,108.7z"/></g></svg>