<?xml version="1.0" encoding="UTF-8"?><!DOCTYPE svg PUBLIC "-//W3C//DTD SVG 1.0//EN" "http://www.w3.org/TR/2001/REC-SVG-20010904/DTD/svg10.dtd" []><svg xmlns="http://www.w3.org/2000/svg" xmlns:xlink="http://www.w3.org/1999/xlink" height="666" preserveAspectRatio="xMidYMid meet" version="1.0" viewBox="76.4 134.0 814.8 665.9" width="815" zoomAndPan="magnify" fill="currentColor"><g id="change1_1"><path d="M 806.446 135.087 C 805.416 136.755, 807.733 138.667, 809.113 137.287 C 810.267 136.133, 809.545 134, 808 134 C 807.515 134, 806.816 134.489, 806.446 135.087 M 473 232.679 C 469.425 234.122, 464.628 236.578, 462.339 238.138 C 456.363 242.211, 449.196 250.757, 447.288 256.086 L 445.647 260.672 440.921 260.218 C 434.800 259.630, 427.537 262.872, 418.287 270.322 C 400.777 284.424, 393.990 295.776, 394.010 310.928 C 394.027 324.089, 399.381 332.003, 410.500 335.303 C 413.741 336.265, 415.379 337.264, 415.155 338.143 C 413.661 344.024, 412.845 353.813, 413.292 360.500 C 414.601 380.097, 422.385 388.876, 438.648 389.096 C 442.417 389.147, 446.681 388.887, 448.124 388.517 C 450.711 387.856, 450.755 387.932, 451.189 393.937 C 451.477 397.920, 452.327 400.973, 453.646 402.763 C 458.325 409.113, 479.734 421.921, 488.379 423.543 L 491.908 424.205 486.035 427.140 C 482.065 429.124, 476.908 433.315, 470.119 440.077 C 448.243 461.861, 439.045 482.416, 439.013 509.591 C 438.998 522.356, 440.380 528.085, 445.169 535.103 C 449.483 541.424, 452.277 542.965, 454.985 540.514 C 457.985 537.798, 459.080 532.905, 460.019 518 C 461.559 493.551, 465.955 482.327, 485.443 453.086 C 491.822 443.513, 497.291 434.689, 497.596 433.475 C 498.118 431.395, 498.715 431.653, 508.062 437.994 C 517.545 444.427, 521.635 446.404, 530.500 448.840 C 532.700 449.445, 538.325 451.055, 543 452.418 C 564.322 458.635, 577.068 457.843, 594.788 449.198 C 605.042 444.195, 610.308 439.152, 615.335 429.519 C 618.312 423.815, 620.604 420.796, 623.368 418.940 C 630.490 414.158, 631.478 407.074, 628.102 385 C 627.050 378.125, 625.716 368.802, 625.137 364.282 C 623.798 353.827, 621.929 350, 618.161 350 C 616.421 350, 614.394 351.033, 612.762 352.750 L 610.150 355.500 609.629 382 C 609.054 411.227, 608.156 417.006, 603.032 424.453 C 597.043 433.158, 585.486 441.808, 576.706 444.156 C 571.311 445.599, 562.890 443.901, 549 438.569 C 544.325 436.774, 537.125 434.542, 533 433.608 C 519.397 430.530, 517.554 429.820, 511.651 425.390 C 508.434 422.975, 505.059 420.964, 504.151 420.921 C 503.080 420.870, 502.947 420.662, 503.771 420.331 C 505.266 419.729, 508 414.745, 508 412.621 C 508 409.098, 505.354 408.238, 494.239 408.147 C 482.263 408.050, 478.263 406.913, 471.899 401.798 C 462.850 394.527, 462.521 383.579, 471.209 378.895 C 474.101 377.336, 481.870 379.733, 486.350 383.567 C 488.599 385.493, 492.928 388.290, 495.970 389.784 C 501.051 392.280, 502.440 392.495, 513.085 392.440 C 526.113 392.372, 529.710 391.377, 535.007 386.378 C 538.477 383.103, 538.556 383.084, 542.507 384.490 C 549.742 387.067, 556.442 386.173, 566.950 381.230 C 573.439 378.177, 580.287 371.460, 581.631 366.831 C 582.512 363.794, 582.903 363.526, 586.049 363.797 C 593.686 364.454, 603.933 358.383, 608.585 350.445 C 611.724 345.088, 615 336.315, 615 333.264 C 615 331.713, 615.593 331, 616.884 331 C 617.920 331, 620.426 329.164, 622.454 326.920 C 634.380 313.718, 633.910 291.868, 621.400 278.021 C 617.198 273.369, 606.835 269.041, 598.225 268.340 C 593.634 267.966, 591.856 268.280, 589.250 269.922 C 584.993 272.605, 584.748 276.127, 588.839 275.815 C 592.640 275.526, 602.288 280.523, 606.972 285.208 C 612.926 291.161, 617.870 302.165, 618.630 311.153 C 619.046 316.069, 618.839 319.957, 618.033 322.400 C 617.355 324.454, 616.624 325.957, 616.407 325.741 C 616.191 325.524, 615.557 322.938, 614.999 319.993 C 613.805 313.700, 611.710 311, 608.019 311 C 603.614 311, 600.446 315.455, 595.492 328.618 C 594.071 332.392, 591.786 337.396, 590.413 339.739 C 587.288 345.071, 584.797 345.254, 578.702 340.602 C 576.254 338.733, 573.268 336.678, 572.067 336.036 C 569.175 334.488, 564.376 335.625, 562.501 338.302 C 560.521 341.129, 560.586 348.438, 562.618 351.539 C 564.223 353.990, 564.201 354.023, 559.644 356.039 C 557.119 357.156, 552.164 358.340, 548.633 358.670 C 542.647 359.229, 542.131 359.113, 540.976 356.956 C 540.157 355.425, 539.920 352.236, 540.276 347.531 C 540.884 339.501, 539.983 337, 536.485 337 C 533.671 337, 527.540 342.055, 525.449 346.099 C 523.244 350.363, 523.683 357.367, 526.615 364.696 C 528.054 368.291, 529.291 372.643, 529.365 374.366 C 529.490 377.270, 529.236 377.522, 525.908 377.801 C 522.394 378.095, 517.869 376.624, 502.241 370.105 C 488.001 364.165, 469.775 362.321, 457.460 365.575 C 454.182 366.441, 448.333 367.399, 444.462 367.703 C 438.555 368.168, 436.756 367.916, 433.270 366.138 C 427.727 363.310, 423.877 358.090, 423.253 352.556 C 422.339 344.447, 423.491 341.768, 431.518 333.336 C 435.627 329.020, 438.984 324.608, 438.989 323.514 C 438.998 321.891, 439.411 322.115, 441.250 324.739 C 444.272 329.052, 450.823 332.512, 454.308 331.637 C 458.099 330.686, 459.733 327.481, 460.312 319.855 C 460.932 311.704, 462.170 309.245, 466.580 307.402 C 469.361 306.240, 470 305.430, 470 303.068 C 470 296.034, 456.380 293.435, 447.946 298.859 C 440.244 303.812, 438.085 307.116, 437.812 314.368 C 437.659 318.458, 437.678 318.442, 434.684 316.806 C 433.483 316.150, 429.462 315.544, 425.749 315.461 C 412.579 315.163, 410.686 307.623, 420.089 292.914 C 426.966 282.156, 442.134 268.070, 445.464 269.348 C 446.248 269.649, 447.158 271.606, 447.485 273.697 C 448.687 281.369, 450.204 285.251, 453.316 288.622 C 459.337 295.141, 468.029 293.940, 467.979 286.595 C 467.967 284.893, 466.842 279.698, 465.479 275.051 C 461.870 262.753, 462.078 260.905, 467.750 254.811 C 474.672 247.374, 484.153 243.576, 485.379 247.750 C 486.270 250.782, 486.911 256.195, 487.524 265.857 C 488.366 279.138, 490.916 282.442, 496.067 276.928 C 497.651 275.233, 499.730 271.359, 500.689 268.319 C 505.106 254.306, 520.953 245.602, 533.857 250.100 C 538.054 251.563, 538.587 254.262, 536.517 263.568 C 534.737 271.570, 534.986 274.843, 537.573 277.430 C 540.317 280.174, 542.694 279.173, 550.399 272.030 C 554.534 268.196, 559.150 264.749, 560.658 264.371 C 562.232 263.976, 565.880 264.347, 569.221 265.242 C 575.871 267.024, 578.663 266.636, 579.562 263.805 C 580.793 259.927, 578.996 255.071, 574.860 251.096 C 569.680 246.119, 564.172 244.528, 555.187 245.413 L 548.370 246.085 543.435 241.187 C 536.821 234.622, 530.007 232.133, 517.225 231.614 C 506.691 231.186, 501.770 232.636, 498.653 237.085 L 497.174 239.196 495.484 236.616 C 492.990 232.809, 487.821 229.996, 483.382 230.028 C 481.247 230.044, 476.575 231.237, 473 232.679 M 681.702 281.979 C 678.544 283.618, 675.406 285.426, 674.730 285.998 C 674.053 286.569, 669.675 289.881, 665 293.358 C 650.369 304.239, 628.608 324.817, 618.597 337.239 C 615.618 340.935, 614.916 342.530, 615.408 344.489 C 616.544 349.016, 620.136 347.737, 627.166 340.300 C 642.759 323.807, 660.305 307.705, 671.274 299.823 L 674.048 297.830 670.774 303.389 C 666.070 311.377, 656.347 324.950, 647.056 336.500 C 638.079 347.659, 635 353.103, 635 357.816 C 635 360.686, 635.295 361, 637.997 361 C 641.034 361, 643.195 359.403, 654.563 348.760 C 659.939 343.726, 670.867 335, 671.795 335 C 672.099 335, 671.453 336.012, 670.359 337.250 C 669.265 338.488, 667.540 340.850, 666.525 342.500 C 665.511 344.150, 660.928 350.540, 656.341 356.701 C 651.753 362.861, 648 368.129, 648 368.407 C 648 368.684, 646.954 370.453, 645.675 372.337 C 641.275 378.821, 636.719 389.104, 636.610 392.798 C 636.509 396.188, 636.750 396.528, 639.462 396.837 C 642.090 397.136, 643.586 395.954, 652.756 386.337 C 663.020 375.572, 663.643 375.364, 659.760 384 C 653.737 397.396, 652.510 405.132, 656.105 407.056 C 657.967 408.053, 658.808 407.565, 663.389 402.836 C 672.426 393.505, 679.880 381.236, 687.574 363.025 C 692.299 351.841, 692.682 350.082, 690.800 348.200 C 688.985 346.385, 686.848 346.739, 682.732 349.536 C 678.254 352.579, 678.045 352.003, 681.863 347.144 C 686.125 341.719, 697.807 318.062, 698.565 313.319 C 699.134 309.759, 698.932 309.034, 697.099 308.053 C 693.850 306.314, 688.878 307.733, 680.973 312.652 C 677.037 315.101, 674.026 316.744, 674.283 316.303 C 674.539 315.861, 677.916 310.219, 681.786 303.765 C 685.657 297.310, 689.602 289.991, 690.553 287.500 C 692.204 283.178, 692.201 282.879, 690.487 280.985 C 689.498 279.893, 688.410 279, 688.067 279 C 687.725 279, 684.861 280.341, 681.702 281.979 M 504.957 286.093 C 497.986 288.527, 492.271 293.416, 493.984 295.480 C 494.858 296.533, 497.517 296.865, 504.330 296.773 C 509.373 296.704, 517.249 297.264, 521.832 298.017 C 530.962 299.518, 533.255 298.951, 533.832 295.050 C 534.591 289.923, 524.687 283.941, 515.667 284.079 C 512.825 284.122, 508.006 285.029, 504.957 286.093 M 558.650 293.108 C 553.495 296.523, 549 303.166, 549 307.370 C 549 313.704, 554.820 322, 559.263 322 C 563.548 322, 565.280 319.738, 566.060 313.123 C 566.907 305.939, 567.989 304.345, 573.750 301.791 C 578.855 299.527, 579.175 297.469, 575.099 293.106 C 571.042 288.763, 565.209 288.764, 558.650 293.108 M 741.351 304.467 C 739.735 305.598, 739.077 307.458, 738.550 312.373 L 737.862 318.801 734.337 317.827 C 732.399 317.292, 730.677 317, 730.511 317.177 C 730.345 317.355, 725.746 324.250, 720.290 332.500 C 708.037 351.029, 700.561 363.972, 690.543 384 C 686.279 392.525, 682.426 399.950, 681.983 400.500 C 681.539 401.050, 679.067 405.550, 676.490 410.500 C 667.382 427.995, 668.079 427.092, 664.943 425.470 C 660.426 423.135, 642.108 416.213, 636.936 414.887 C 633.048 413.891, 631.822 413.903, 630.561 414.949 C 626.857 418.024, 629.233 420.701, 645.500 431.778 C 650.450 435.149, 655.618 438.797, 656.985 439.885 L 659.471 441.864 657.169 445.682 C 653.359 452, 649.394 461.008, 646.465 470 C 644.942 474.675, 643.542 478.685, 643.354 478.911 C 643.166 479.136, 642.221 478.605, 641.254 477.730 C 634.088 471.245, 627.823 474.222, 608.612 493.244 C 593.775 507.936, 591.924 509.312, 585.500 510.427 C 583.300 510.808, 580.150 511.511, 578.500 511.989 C 576.850 512.466, 571.900 513.621, 567.500 514.556 C 557.874 516.600, 552.766 518.999, 547.697 523.856 L 543.894 527.500 542.197 525.364 C 537.573 519.545, 518.235 503.755, 511.770 500.521 C 503.827 496.548, 500.100 496.127, 497.575 498.917 C 496.123 500.521, 496.040 501.214, 497.065 503.167 C 500.194 509.132, 527.094 536.836, 534.163 541.374 C 538.473 544.141, 542.275 543.085, 556.239 535.244 C 576.656 523.779, 579.606 522.916, 593.500 524.338 C 598.468 524.847, 601.207 524.684, 602.937 523.777 C 604.278 523.075, 610.697 515.539, 617.201 507.032 C 630.460 489.691, 634.399 485.902, 630.358 494.375 C 627.272 500.847, 631.374 503.240, 637.519 498.553 C 639.283 497.208, 641.962 495.797, 643.471 495.418 C 646.085 494.762, 646.157 494.838, 644.982 497.034 C 644.303 498.302, 642.007 501.152, 639.879 503.366 C 635.176 508.260, 634.268 510.697, 636.366 512.794 C 637.794 514.223, 637.563 514.710, 633.830 518.157 C 629.931 521.757, 629.799 522.064, 631.229 524.219 C 632.705 526.442, 632.586 526.564, 625.425 530.163 C 611.481 537.171, 593.837 551.819, 592.388 557.589 C 591.960 559.296, 592.263 560.692, 593.284 561.712 C 595.623 564.052, 600.826 562.613, 607.090 557.893 C 614.626 552.215, 624.250 546.003, 632.500 541.493 C 636.350 539.388, 641.824 535.829, 644.665 533.583 C 652.756 527.186, 653.697 523.106, 647.650 520.639 L 644.550 519.374 649.775 514.312 C 652.649 511.527, 655 508.573, 655 507.747 C 655 505.667, 652.339 503.656, 650.513 504.357 C 648.433 505.155, 648.525 504.907, 652.500 499 C 656.516 493.032, 656.953 488.953, 653.901 485.901 C 651.912 483.912, 650.084 483.748, 645 485.101 C 643.942 485.382, 643.436 484.617, 643.282 482.500 C 643.162 480.850, 643.312 480.063, 643.615 480.750 C 644.622 483.032, 648.566 482.045, 651.608 478.750 C 655.615 474.409, 662 466.311, 662 465.570 C 662 465.243, 664.055 461.886, 666.567 458.109 L 671.133 451.241 676.817 455.036 C 679.942 457.123, 685.547 459.977, 689.271 461.378 C 698.449 464.832, 702.541 466.802, 708.864 470.808 C 720.133 477.949, 738.431 483.347, 740.426 480.119 C 742.644 476.531, 734.744 470.363, 720.271 464.384 C 715.447 462.391, 709.700 459.947, 707.500 458.952 C 705.300 457.957, 701.025 456.388, 698 455.465 C 692.776 453.871, 692.304 453.442, 688.589 446.916 C 686.438 443.137, 683.688 439.116, 682.478 437.980 L 680.279 435.913 689.293 420.207 C 706.060 390.990, 711.084 382.525, 717.015 373.500 C 726.071 359.718, 730.164 352.354, 734.141 342.688 C 736.144 337.821, 738.004 334.212, 738.276 334.669 C 738.547 335.126, 739.082 337.525, 739.464 340 C 740.268 345.207, 743.469 354.938, 746.044 360 C 747.023 361.925, 751.258 367.550, 755.454 372.500 C 772.878 393.054, 777.164 398.893, 783.937 411.313 C 788.305 419.323, 790.343 426.394, 791.914 439 C 794.715 461.479, 795.782 465.479, 799.272 466.586 C 803.863 468.043, 810.736 458.667, 813.042 447.802 C 816.819 430.003, 808.038 404.099, 790.563 381.490 C 770.800 355.921, 758.302 339.245, 756.096 335.500 C 754.746 333.210, 752.737 326.593, 751.396 320.024 C 749.266 309.592, 747.002 304.167, 744.421 303.307 C 743.894 303.131, 742.512 303.653, 741.351 304.467 M 483.973 318.089 C 475.578 324.361, 473.915 326.117, 471.500 331.261 C 468.767 337.083, 469.082 340.981, 472.771 346.947 C 476.226 352.536, 485.242 360, 488.537 360 C 489.892 360, 491.951 359.049, 493.113 357.887 C 496.686 354.314, 495.171 349.514, 488.488 343.240 C 485.068 340.029, 483.395 337.819, 484.193 337.566 C 484.912 337.338, 488.745 336.954, 492.711 336.712 C 497.872 336.398, 501.508 335.497, 505.498 333.545 C 512.021 330.354, 514.383 327.374, 513.423 323.548 C 512.528 319.984, 509.636 318.360, 502.876 317.624 C 499.783 317.288, 495.958 316.337, 494.376 315.512 C 490.382 313.429, 490.125 313.493, 483.973 318.089 M 598.250 374.850 C 597.288 375.867, 595.664 377.728, 594.643 378.986 C 592.925 381.102, 592.234 381.231, 585.404 380.714 C 581.260 380.401, 577.769 380.564, 577.446 381.087 C 576.248 383.026, 578.286 386.105, 582.033 388.017 C 589.621 391.888, 600.323 389.977, 602.915 384.288 C 605.039 379.626, 603.798 373, 600.800 373 C 600.360 373, 599.212 373.832, 598.250 374.850 M 755.999 394.001 C 755.072 395.733, 755.818 396.950, 761.537 403.040 C 765.172 406.910, 769.067 412.197, 770.193 414.788 C 775.870 427.860, 781.268 438.628, 782.689 439.711 C 783.795 440.555, 784.841 440.620, 786.138 439.926 C 792.253 436.653, 782.204 412.279, 769.369 399.250 C 761.722 391.489, 758.104 390.068, 755.999 394.001 M 530.548 398.287 C 528.784 400.979, 529.532 404.537, 532.356 406.880 C 534.326 408.516, 545.451 408.615, 549.498 407.033 C 553.439 405.492, 556 403.103, 556 400.967 C 556 397.907, 553.857 397.049, 549.272 398.273 C 545.390 399.309, 539.514 398.574, 533.324 396.279 C 532.678 396.039, 531.428 396.943, 530.548 398.287 M 580.594 404.266 C 578.446 405.495, 575.746 407.775, 574.594 409.333 L 572.500 412.166 574.956 414.160 C 576.522 415.431, 578.335 415.982, 579.956 415.678 L 582.500 415.201 580.163 416.851 C 574.416 420.906, 570 425.389, 570 427.167 C 570 430.067, 576.296 432.362, 582.299 431.651 C 588.510 430.915, 595.400 427.168, 595.811 424.303 C 595.982 423.111, 595.463 420.862, 594.658 419.305 C 593.295 416.669, 593.359 416.284, 595.597 413.682 C 599.755 408.848, 598.015 403.205, 592.771 404.521 C 591.194 404.917, 589.900 404.584, 589.053 403.564 C 587.296 401.446, 585.225 401.618, 580.594 404.266 M 335.500 405.556 C 310.886 408.694, 291.452 414.995, 270.500 426.632 C 254.590 435.468, 247.168 442.248, 240.200 454.307 C 236.016 461.548, 238.207 467.481, 246.442 471.208 C 250.953 473.249, 253.042 473.497, 265.750 473.498 C 279.506 473.500, 280 473.572, 280 475.576 C 280 477.962, 282.963 480.946, 288 483.633 C 292.573 486.072, 309.787 486.077, 322.258 483.642 L 331.016 481.933 334.758 485.856 C 340.380 491.749, 348.370 493.330, 360.114 490.873 C 369.316 488.947, 370.239 489.098, 371.186 492.691 C 372.665 498.305, 381.740 502.679, 394 503.687 C 406.944 504.751, 418.143 500.916, 426.569 492.535 C 432.739 486.397, 433.758 483.543, 430.533 481.429 C 427.846 479.669, 419.580 480.633, 409.458 483.888 C 397.901 487.603, 385.160 489.150, 380.582 487.393 C 378.340 486.533, 378.622 485.255, 381.237 484.425 C 387.753 482.357, 398 473.737, 398 470.323 C 398 466.261, 389.242 465.986, 376.278 469.639 C 362.895 473.411, 352.347 475.972, 350.137 475.986 C 348.159 475.998, 348.554 475.471, 352.565 472.750 C 359.034 468.362, 361.542 464.881, 360.132 462.247 C 358.759 459.681, 355.610 459.110, 348.332 460.107 C 343.055 460.830, 329.549 464.747, 324.500 467.019 C 315.040 471.275, 298.093 474.271, 294.583 472.306 C 293.233 471.551, 294.102 471.084, 298.685 470.104 C 308.989 467.900, 320.792 463.370, 327.750 458.949 C 330.832 456.990, 330.632 454.197, 327.351 453.373 C 323.899 452.507, 304.429 453.624, 290.544 455.486 C 284.518 456.294, 275.268 457.246, 269.989 457.601 C 261.739 458.156, 260.151 458.009, 258.695 456.552 C 256.341 454.198, 256.565 452.775, 259.750 449.842 C 268.095 442.159, 297.231 430.844, 321.302 425.938 C 355.630 418.943, 391.411 421.635, 442 435.021 C 459.011 439.522, 465.920 439.316, 465.985 434.306 C 466.074 427.323, 430.607 411.377, 406.500 407.562 C 382.074 403.697, 355.886 402.957, 335.500 405.556 M 350.822 428.115 C 336.330 428.817, 330.500 430.801, 330.500 435.029 L 330.500 437.362 346 437.512 C 360.216 437.650, 367.656 438.351, 399.460 442.552 C 421.528 445.467, 430.793 443.835, 428.347 437.463 C 425.758 430.714, 388.898 426.269, 350.822 428.115 M 285.420 440.902 C 279.873 442.899, 275 445.767, 275 447.033 C 275 451.794, 282.573 452.490, 291.484 448.550 C 298.013 445.662, 299.309 443.478, 296.056 440.844 C 293.253 438.574, 291.861 438.582, 285.420 440.902 M 815.303 458.143 C 814.094 458.756, 812.636 460.607, 812.061 462.254 C 810.464 466.835, 813.574 472.589, 822.702 481.940 C 833.107 492.600, 836.803 492.636, 833.698 482.047 C 832.885 479.271, 832.379 477, 832.576 477 C 832.772 477, 834.499 477.747, 836.415 478.661 C 839.391 480.080, 839.748 480.602, 838.869 482.244 C 837.407 484.976, 839.842 487.319, 848.691 491.692 C 856.518 495.560, 861.666 496.177, 863.637 493.482 C 864.602 492.163, 865.249 492.063, 866.946 492.971 C 868.950 494.043, 868.949 496, 866.945 496 C 866.430 496, 862.679 497.538, 858.610 499.418 C 846.984 504.788, 837.233 509, 836.427 509 C 836.022 509, 836.382 508.212, 837.227 507.250 C 841.460 502.429, 840.101 497.710, 833.948 495.866 C 830.377 494.796, 829.627 494.884, 827.215 496.654 C 825.722 497.749, 822.291 502.912, 819.592 508.125 C 813.934 519.055, 813.932 521.321, 819.580 525.629 C 824.971 529.741, 832.302 530.065, 839.563 526.513 C 844.667 524.016, 857 516.419, 859.563 514.194 C 860.147 513.687, 863.297 511.419, 866.563 509.156 C 869.828 506.892, 876.550 501.994, 881.500 498.270 C 889.101 492.552, 890.547 491.012, 890.805 488.358 C 891.186 484.437, 889.015 482.807, 876.500 477.619 C 871.550 475.567, 866.600 473.477, 865.500 472.974 C 864.400 472.472, 858.550 470.074, 852.500 467.645 C 829.196 458.288, 819.762 455.878, 815.303 458.143 M 780.310 478.127 C 772.883 479.013, 770 480.391, 770 483.054 C 770 484.729, 769.572 484.924, 767.250 484.306 C 763.970 483.432, 694.788 483.450, 690.568 484.325 C 688.956 484.660, 683.106 485.234, 677.568 485.602 C 666.063 486.366, 661.714 487.979, 662.188 491.308 C 662.455 493.183, 663.513 493.677, 669.500 494.726 C 676.776 496, 730.764 496.534, 747 495.492 C 751.675 495.192, 758.721 494.725, 762.657 494.455 L 769.815 493.963 769.258 498.114 C 768.780 501.680, 769.039 502.522, 771.101 504.079 C 773.021 505.530, 773.251 506.142, 772.250 507.146 C 770.219 509.183, 770.724 512, 773.119 512 C 776.102 512, 786.165 505.674, 794.246 498.719 L 801.095 492.825 808.297 493.158 C 814.927 493.464, 815.500 493.332, 815.500 491.505 C 815.500 489.341, 812.547 488.329, 805.615 488.118 C 802.855 488.034, 801.058 487.276, 799.412 485.500 C 798.138 484.125, 796.056 483, 794.785 483 C 793.389 483, 792.083 482.145, 791.487 480.841 C 790.135 477.883, 787.569 477.260, 780.310 478.127 M 791.064 505.857 C 789.522 506.302, 788.346 507.613, 787.860 509.431 C 787.438 511.010, 785.744 513.980, 784.095 516.031 C 777.926 523.708, 779.750 527.831, 790.263 529.973 C 793.859 530.706, 795.780 531.547, 795.370 532.211 C 794.539 533.555, 782.144 532.632, 772.500 530.508 C 751.636 525.914, 752.572 526.048, 751.152 527.443 C 748.197 530.346, 755.542 537.189, 765.687 540.984 C 775.924 544.814, 796.323 544.392, 807.250 540.124 C 811.545 538.446, 813.938 533.637, 813.438 527.688 C 812.691 518.805, 811.082 517.603, 800.302 517.872 C 797.993 517.929, 795.820 517.518, 795.474 516.958 C 795.128 516.398, 796.255 514.335, 797.977 512.373 C 801.962 507.835, 801.643 505.558, 796.992 505.327 C 795.071 505.231, 792.404 505.470, 791.064 505.857 M 672.750 510.080 C 671.715 510.683, 671 512.293, 671 514.020 C 671 516.426, 672.365 518.108, 678.750 523.569 C 692.564 535.383, 701.963 538.530, 721 537.716 C 734.248 537.149, 736.228 536.602, 735.803 533.623 C 735.541 531.789, 734.616 531.412, 729 530.850 C 713.788 529.328, 695.404 522.147, 681.748 512.394 C 676.680 508.775, 675.508 508.474, 672.750 510.080 M 464.300 538.794 C 462.090 540.198, 461.271 544.230, 462.340 548.445 C 463.138 551.591, 465.414 554.517, 472.496 561.500 C 484.729 573.562, 486.163 574.776, 495.903 581.324 C 509.523 590.480, 526.044 595.968, 540 595.973 C 548.723 595.977, 554.774 594.494, 564.500 589.972 C 568.350 588.182, 575.188 584.996, 579.696 582.893 C 584.204 580.790, 588.389 578.141, 588.997 577.006 C 590.525 574.151, 591.453 565.398, 590.303 564.687 C 588.295 563.447, 584.268 563.259, 578.995 564.162 C 541.068 570.652, 522.895 571.643, 510.670 567.887 C 501.812 565.165, 498.631 562.966, 488.500 552.559 C 477.680 541.445, 473.022 537.996, 468.856 538.015 C 467.010 538.024, 464.960 538.374, 464.300 538.794 M 642.655 540.829 C 641.745 541.835, 641 543.266, 641 544.009 C 641 546.311, 660.479 584.842, 668.041 597.500 C 676.158 611.086, 702.100 650.869, 705.958 655.648 C 709.653 660.223, 717.909 671.455, 722.323 677.909 C 724.426 680.984, 728.026 685.432, 730.323 687.792 C 738.812 696.517, 742.728 690.734, 737.419 677.312 C 732.085 663.828, 714.684 635.411, 701.334 618.382 C 697.712 613.762, 687.119 596.157, 684.558 590.500 C 681.939 584.716, 670.353 565.424, 665.640 559 C 660.133 551.494, 647.784 539, 645.871 539 C 645.012 539, 643.565 539.823, 642.655 540.829 M 440.987 543.514 C 437.861 546.841, 437.172 555.373, 439.414 563 C 441.574 570.350, 442.088 571.005, 446.477 571.995 C 449.781 572.740, 450.555 572.536, 452.751 570.340 C 455.003 568.088, 455.193 567.297, 454.631 562.516 C 454.287 559.590, 453.140 554.414, 452.081 551.014 C 448.973 541.028, 445.518 538.691, 440.987 543.514 M 422.966 546.820 C 418.228 548.920, 412.091 556.241, 409.355 563.056 C 408.374 565.500, 407.555 570.044, 407.536 573.154 C 407.505 578.002, 407.937 579.350, 410.566 582.600 C 414.337 587.263, 418.181 588.562, 420.528 585.969 C 421.663 584.715, 421.945 583.417, 421.429 581.822 C 419.861 576.975, 421.038 570.548, 425.030 562.154 C 429.458 552.846, 430.027 548.620, 427.066 547.035 C 424.905 545.879, 425.071 545.888, 422.966 546.820 M 794.350 553.375 L 791.588 555.751 791.374 572.625 C 791.256 581.906, 790.674 591.975, 790.082 595 C 789.490 598.025, 788.621 602.377, 788.151 604.670 C 786.875 610.904, 780.844 622.929, 773.927 633.027 C 770.547 637.962, 767.650 642, 767.490 642 C 767.330 642, 768.265 638.849, 769.567 634.999 C 772.006 627.790, 771.955 625.581, 769.328 624.573 C 767.511 623.875, 764.254 627.206, 755.849 638.360 C 747.970 648.817, 746.230 652.367, 747.960 654.452 C 749.371 656.152, 754.535 656.561, 755.471 655.047 C 755.795 654.522, 757.503 653.066, 759.267 651.810 L 762.473 649.527 760.225 652.684 C 756.761 657.549, 751.232 669.841, 749.532 676.460 C 747.758 683.362, 747.571 690.915, 749.043 696.214 C 751.212 704.026, 753.762 702.294, 759.888 688.846 C 762.524 683.060, 766.177 676.115, 768.007 673.413 C 771.083 668.869, 782.445 654.854, 787.792 649.006 C 792.052 644.347, 804.885 624.549, 808.863 616.499 C 815.161 603.752, 816.309 598.532, 815.770 585.090 C 815.403 575.929, 814.802 572.250, 812.903 567.537 C 810.336 561.165, 801.635 551, 798.749 551 C 797.848 551, 795.869 552.069, 794.350 553.375 M 393.186 561.447 C 391.914 562.163, 389.536 564.028, 387.902 565.593 C 385.430 567.962, 384.624 568.246, 383.089 567.288 C 381.409 566.239, 379.177 565.703, 372 564.625 C 368.616 564.117, 348.809 565.722, 342 567.055 C 327.135 569.966, 312.241 576.257, 299.721 584.912 C 292.678 589.782, 270.903 611.007, 265.777 618 C 264.366 619.925, 260.665 626.401, 257.553 632.391 C 250.705 645.570, 250.432 648.989, 256.113 650.393 C 258.100 650.884, 261.025 650.960, 262.613 650.563 C 265.636 649.805, 275.399 640.462, 283.052 631.001 C 290.625 621.638, 302.179 610.685, 309.500 605.927 C 329.548 592.899, 337.364 589.564, 362.322 583.386 C 370.076 581.466, 376.941 579.464, 377.577 578.936 C 378.411 578.244, 378.893 579.165, 379.305 582.237 C 379.888 586.580, 383.538 591, 386.543 591 C 388.174 591, 392.104 585.134, 393.818 580.143 C 394.452 578.296, 396.804 574.100, 399.045 570.817 C 404.067 563.460, 404.055 560.579, 399 560.323 C 397.075 560.226, 394.459 560.732, 393.186 561.447 M 575.749 602.043 C 570.932 605.233, 567.766 608.525, 559.500 618.940 C 551.322 629.243, 541.747 640.215, 537.865 643.732 C 532.550 648.547, 524.324 655, 523.501 655 C 523.109 655, 521.582 656.013, 520.107 657.250 C 515.330 661.257, 494.668 671.866, 488.500 673.479 C 480.761 675.502, 456.172 679.855, 444.081 681.342 C 438.607 682.015, 434.496 683, 434.266 683.693 C 434.049 684.349, 435.619 686.043, 437.756 687.457 C 451.946 696.848, 499.667 694.714, 518.734 683.835 C 520.805 682.653, 523.400 681.195, 524.500 680.593 C 540.102 672.065, 559.952 653.233, 571.746 635.772 C 585.372 615.598, 589.594 604.737, 585.429 600.571 C 583.140 598.283, 580.914 598.622, 575.749 602.043 M 162.500 621.522 C 132.592 624.759, 114.897 630.103, 101.629 639.905 C 96.523 643.677, 89.735 651.511, 87.252 656.500 C 82.820 665.401, 77.912 684.849, 77.282 696 C 76.375 712.069, 80.565 723.232, 89.672 729.007 C 104.206 738.224, 119.613 733.899, 136.157 715.959 C 140.745 710.983, 144.669 706.369, 144.875 705.706 C 145.542 703.559, 150.162 699.176, 152.993 698.003 C 155.483 696.971, 156.957 697.465, 168.126 703.068 C 184.423 711.244, 192.711 714.017, 222 721.097 C 242.610 726.079, 249.272 727.256, 263.961 728.509 C 305.663 732.069, 345.229 729.218, 377 720.364 C 392.739 715.978, 410.974 707.404, 416.162 701.951 C 420.714 697.165, 420.960 694.910, 417.250 691.954 C 414.683 689.908, 413.768 689.800, 403.500 690.322 C 393.677 690.822, 386.907 692.033, 364 697.387 C 357.707 698.857, 338.666 702.338, 330.500 703.509 C 328.300 703.825, 324.250 704.504, 321.500 705.019 C 301.753 708.713, 260.455 710.436, 248.110 708.081 C 238.248 706.199, 201.812 695.331, 194.500 692.090 C 182.829 686.918, 174.844 684.511, 159.120 681.427 C 151.743 679.979, 144.415 679.067, 142.786 679.393 C 138.172 680.316, 134.756 683.289, 128.043 692.226 C 124.624 696.777, 120.629 701.453, 119.164 702.619 C 116.103 705.054, 102.990 710, 99.595 710 C 94.844 710, 90.831 701.923, 90.631 691.956 C 90.513 686.036, 90.953 684.492, 95.264 675.735 C 97.884 670.412, 100.427 665.031, 100.914 663.778 C 102.980 658.470, 107.984 653.153, 113.265 650.655 C 118.449 648.202, 128.965 646.404, 140 646.084 C 151.862 645.739, 165.886 643.660, 175.233 640.859 C 191.189 636.078, 208.898 635.860, 238.278 640.081 C 244.297 640.946, 246.389 640.922, 247.528 639.977 C 249.739 638.142, 249.306 635.386, 246.454 633.142 C 242.016 629.652, 222.135 623.012, 211.500 621.469 C 203.051 620.243, 174.028 620.275, 162.500 621.522 M 513.500 635.929 C 506.020 637.734, 503.324 641.793, 506.442 646.552 C 509.358 651.002, 516.052 652.258, 522.497 649.566 C 528.945 646.871, 527.798 639.485, 520.454 636.416 C 518.590 635.637, 516.937 635.046, 516.782 635.102 C 516.627 635.159, 515.150 635.531, 513.500 635.929 M 517 691.722 C 516.175 692.032, 512.987 694.035, 509.916 696.171 C 503.558 700.595, 497.510 707.327, 490.672 717.590 C 485.724 725.017, 475.004 735.951, 464 744.796 C 460.425 747.669, 456.980 750.444, 456.345 750.961 C 443.115 761.733, 425.132 773.236, 415.500 777.087 C 403.927 781.715, 397.064 781.959, 384.936 778.174 C 374.762 775, 372.734 774.079, 346.971 760.934 C 328.853 751.689, 315.672 746, 312.372 746 C 308.953 746, 307.635 748.364, 308.907 752.217 C 309.690 754.592, 313.274 758.225, 321.747 765.234 C 336.089 777.098, 340.123 779.706, 355.718 787.197 C 378.600 798.188, 394.847 799.899, 415 793.440 C 441.514 784.943, 445.766 783.189, 456.183 776.450 C 467.126 769.371, 500.166 735.747, 508.492 723.215 C 514.498 714.177, 522.213 695.267, 520.898 692.810 C 519.885 690.916, 519.459 690.797, 517 691.722 M 397.059 761.058 C 382.600 764.844, 376.997 768.997, 380.977 772.977 C 383.039 775.039, 387.686 775.539, 400.500 775.078 C 406.634 774.858, 415.539 772.321, 419.305 769.722 C 421.539 768.180, 422.048 767.145, 421.805 764.642 C 421.554 762.056, 420.880 761.289, 418 760.306 C 412.915 758.572, 405.542 758.837, 397.059 761.058" fill-rule="evenodd"/></g></svg>