<?xml version="1.0" encoding="UTF-8"?><svg fill="currentColor" xmlns="http://www.w3.org/2000/svg" xmlns:xlink="http://www.w3.org/1999/xlink" height="270.7" preserveAspectRatio="xMidYMid meet" version="1.0" viewBox="-0.0 -0.0 292.2 270.7" width="292.2" zoomAndPan="magnify"><g id="change1_1"><path d="M291.6941,156.1822c-0.7017-4.2535-1.5405-8.3791-2.5224-12.5773 c-0.4001-1.7107-0.9139-2.8569-1.8119-4.3703c-1.0876-1.8329-2.0732-3.799-3.292-5.5478c-1.242-1.7822-3.182-3.2625-4.7146-4.788 c-1.2303-1.2246-2.2335-2.1174-3.7463-2.9541c-2.0069-1.1099-3.9857-2.3404-6.0476-3.3446c-1.833-0.8927-3.9731-1.345-5.9066-1.9714 c-1.6814-0.5447-3.131-0.9922-4.8847-1.1334c-2.2974-0.1851-4.5941-0.3821-6.8924-0.5552 c-3.4394-0.259-6.9006-0.6539-10.3484-0.4937c-2.437,0.1132-4.8249,0.2804-7.2133,0.4967c1.245-0.5969,2.4694-1.2322,3.6322-1.9892 c2.7307-1.7777,5.4466-3.5313,8.0726-5.458c1.4751-1.0823,2.9619-2.1503,4.426-3.2473c1.1832-0.8866,2.0918-2.2001,3.0606-3.3066 c1.031-1.1776,2.1903-2.3161,3.1265-3.5708c1.0536-1.4121,1.3579-3.5946,1.87-5.2506c0.4029-1.303,0.977-2.6464,1.0947-4.013 c0.1719-1.9955,0.2364-4.0061,0.3544-6.0054c0.0776-1.3149,0.0863-2.2257-0.3319-3.4746c-0.67-2.0004-1.3401-4.0008-2.0101-6.0012 c-0.3968-1.1846-1.0129-2.2648-1.5797-3.3759c-0.8095-1.5868-1.5211-3.2941-2.4546-4.812 c-0.8036-1.3069-1.8133-2.5244-2.7086-3.7691c-0.872-1.2123-1.7055-2.7868-2.9316-3.6708 c-1.5762-1.1364-3.1982-2.2146-4.7958-3.3208c-1.1151-0.7722-2.009-1.3411-3.2969-1.7466 c-1.9528-0.6147-3.9056-1.2295-5.8584-1.8442c-1.2805-0.4031-2.4616-0.3512-3.8031-0.3515 c-0.6275-0.0001-1.253,0.0077-1.8796,0.0099c-1.1954-0.1325-2.3934-0.2616-3.5874-0.3127c-1.1556-0.0494-2.3494,0.1927-3.498,0.3184 c-0.3591,0.0393-0.7189,0.076-1.0784,0.1136c-0.0317,0.0009-0.0632,0.0009-0.0949,0.0019 c-1.4542,0.0441-2.9979-0.0594-4.4342,0.2127c-1.8841,0.357-3.7521,0.8533-5.6219,1.2786c-3.11,0.7073-6.0608,1.8377-9.0744,2.8845 c-2.9588,1.0278-5.7346,2.7407-8.5006,4.1952c-2.4819,1.3051-5.0661,2.5535-7.4397,4.0434 c-2.6664,1.6737-5.4984,3.4534-7.8306,5.5795c-0.0069,0.0063-0.0138,0.0126-0.0207,0.0189c-2.5875,1.8701-5.0772,3.8574-7.4318,5.99 c0.0309-0.8281,0.0826-1.6602,0.0781-2.4878c-0.0016-0.3008,0.1334-0.8737-0.0565,0.091c0.0475-0.2411,0.083-0.4852,0.1245-0.7273 c0.5521-3.2263,1.1198-6.4493,1.6187-9.6843c1.0363-6.7205,2.1224-13.4327,3.1356-20.1567 c0.1907-1.2652,0.3871-2.4335,0.3212-3.7103c-0.1098-2.1247-0.2196-4.2494-0.3294-6.3741c-0.1542-2.9836,0.2897-6.0508-0.025-9.0149 c-0.1707-1.6073-1.3089-3.3537-1.9563-4.8056c-0.6617-1.4838-1.2041-3.1431-2.0275-4.5468c-0.7689-1.3108-1.8932-2.508-2.809-3.7187 c-0.9676-1.2795-1.8628-2.7234-2.9589-3.8994c-1.1808-1.2671-2.6528-2.35-3.9484-3.4977c-1.1221-0.994-2.3841-2.5414-3.8187-3.0816 c-1.6966-0.6389-3.5709-0.9811-5.3181-1.4611c-1.3088-0.3596-2.8003-1.0192-4.1765-0.9935 c-2.0237,0.0379-4.0764,0.3428-6.0935,0.5125c-0.6223,0.0523-1.3696,0.0236-1.9776,0.1936 c-0.6606,0.1848-1.2884,0.6966-1.8615,1.0478c-1.6927,1.0374-3.4406,2.0172-5.0913,3.1202 c-1.2596,0.8416-2.3853,1.9302-3.5448,2.9009c-1.0576,0.8852-2.2328,1.714-3.1701,2.7268c-1.4,1.513-2.6811,3.156-4.0159,4.7271 c-2.0075,2.363-3.0678,5.5224-4.3099,8.3469c-0.6194,1.4084-0.7624,3.0907-1.0752,4.588c-0.357,1.7084-0.8112,3.4244-1.0369,5.1564 c-0.385,2.954-0.9688,6.0199-1.0416,8.9955c-0.0762,3.1213,0.2759,6.2567,0.2732,9.3807c-0.0028,3.209-0.1293,6.4354,0.099,9.6377 c0.4228,5.9298,0.9048,11.8579,1.2268,17.7942c-0.2879-0.4006-0.5757-0.8012-0.8637-1.2017 c-1.1463-1.5942-2.2927-3.1884-3.4391-4.7826c-0.6935-0.9644-1.3189-2.0492-2.2386-2.806 c-2.4121-1.9851-4.9419-3.8513-7.4303-5.7412c-2.4104-1.8305-4.7463-4.0789-7.5082-5.3471 c-5.6985-2.6166-11.3993-5.1436-17.6064-6.2923c-1.9646-0.3636-3.9268-0.7469-5.8949-1.091 c-1.2433-0.2174-2.4419-0.0351-3.6992,0.0617c-3.0411,0.2342-6.0785,0.4725-9.1151,0.7581 c-1.7424,0.1639-3.4915,0.2948-5.2306,0.4919c-1.4693,0.1665-3.0373,1.1535-4.3683,1.7452 c-1.4813,0.6584-3.2024,1.1914-4.5866,2.0386c-1.3006,0.7961-2.373,2.2779-3.4359,3.3436 c-1.0527,1.0555-2.5548,2.1342-3.3304,3.4323c-0.8298,1.3888-1.2759,3.1728-1.8726,4.6701 c-0.4867,1.2214-1.1503,2.4803-1.4716,3.757c-0.438,1.7404-0.5825,3.6115-0.868,5.3819c-0.2199,1.3633-0.6607,2.8825-0.4499,4.2567 c0.2725,1.7758,0.5823,3.5466,0.8734,5.3195c0.1053,0.6418,0.1808,1.3015,0.2948,1.95c-0.0206,1.0772,0.3695,1.8592,0.8908,2.8288 c0.0566,0.1053,0.1132,0.2105,0.1698,0.3157c0.5302,1.2698,1.083,2.5324,1.6142,3.7967c0.5355,1.2746,1.0537,2.1668,2.0461,3.1406 c1.4179,1.3913,2.8071,2.8202,4.2575,4.1774c0.8786,0.8222,1.9352,1.4209,2.9401,2.0787c1.4268,0.934,2.8256,1.9706,4.3056,2.8184 c1.5211,0.8714,3.0933,1.6649,4.6876,2.4213c0.7192,0.4538,1.4437,0.9019,2.192,1.2825c1.2523,0.637,2.621,1.1065,3.9143,1.6518 c1.2814,0.5403,2.5635,1.0788,3.8441,1.6209c0.1858,0.0797,0.7859,0.3354,0.9332,0.3982c0.8782,0.3744,1.7565,0.7488,2.6347,1.1231 c0.5508,0.2348,1.0961,0.4806,1.6446,0.72c2.6896,1.2507,5.3794,2.5021,8.0591,3.7735c-1.6974,0.037-3.3931,0.0767-5.0878,0.1411 c-0.7503-0.0248-1.501-0.0347-2.2527-0.0187c-6.5621,0.1396-13.0751,0.7116-19.6285,1.0451 c-3.2625,0.1661-6.4539,0.6801-9.6888,1.1427c-1.5117,0.2162-2.9765,0.6753-4.4256,1.1959 c-2.4599,0.3688-4.9607,0.5765-7.3807,1.1143c-2.9996,0.6665-6.0592,1.588-8.9582,2.6174c-3.3444,1.1875-6.6331,2.2797-9.8004,3.876 c-1.6133,0.813-3.4473,1.4992-4.9548,2.4971c-1.3657,0.904-2.3179,3.0192-3.2193,4.335c-0.8384,1.2238-2.3574,2.7397-2.4049,4.2995 c-0.0604,1.9776,0.1023,3.9871,0.1532,5.9649c0.0347,1.3539,0.0718,2.5395,0.4358,3.8422c0.5826,2.0848,1.1651,4.1697,1.7476,6.2545 c0.3624,1.2969,1.1626,2.2816,1.9133,3.3913c1.0289,1.5208,1.9816,3.1457,3.109,4.5953c1.0379,1.3346,2.8053,2.3297,4.1349,3.3508 c1.1092,0.852,2.4172,2.3101,3.8107,2.664c1.9419,0.493,4.0168,0.6729,5.9928,1.0039c1.3034,0.2184,2.4261,0.4314,3.7384,0.2883 c3.4458-0.3759,6.8427-0.7526,10.3042-0.8843c1.7608-0.0669,3.5872,0.0031,5.3334-0.255c1.7678-0.2614,3.5276-0.5994,5.2893-0.8987 c3.3451-0.5683,6.6382-1.3323,9.9507-2.0693c1.2496-0.278,2.5179-0.4526,3.7817-0.6565c1.1405-0.1841,2.2811-0.3683,3.4216-0.5523 c0.4046-0.0653,0.8101-0.1265,1.214-0.1959c0.0009-0.0001,0.0013-0.0002,0.0022-0.0004c-0.0382,0.0033-0.0762,0.0058-0.1112,0.0063 c0.0382-0.0006,0.0764-0.006,0.1147-0.0068c0.4889-0.0837,0.248-0.0223,0.0045-0.0003c3.0639-0.0617,6.1352-0.7425,9.2016-0.9182 c1.0371-0.0594,2.072-0.1235,3.1076-0.1856c-3.1546,1.7302-6.2588,3.4999-9.3476,5.3604c-3.1582,1.9023-5.944,4.3912-8.681,6.8593 c-2.4,2.1642-4.6963,4.4771-6.974,6.7713c-1.5828,1.5942-3.2469,3.1375-4.7619,4.7963c-1.1616,1.2719-1.9019,3.0527-2.7562,4.5335 c-1.9122,3.3142-3.8291,6.6319-5.6466,9.9991c-0.793,1.4691-1.2256,3.1475-1.7724,4.7189c-0.512,1.4713-1.1883,2.9611-1.487,4.4928 c-0.4432,2.272-0.7887,4.5673-1.1826,6.8485c-0.1564,0.9058-0.3341,1.694,0.0853,2.5787c0.3862,0.8147,0.8266,1.608,1.2388,2.4098 c0.7875,1.532,1.4794,3.1921,2.4135,4.6399c1.1999,1.86,2.6257,3.6069,3.9286,5.3967c0.4264,0.5858,0.8932,1.088,1.3859,1.5646 c0.0456,0.302,0.0841,0.6065,0.1438,0.9033c0.1738,0.8629,0.7506,1.6245,1.1923,2.3766c0.6551,1.1154,1.3102,2.231,1.9653,3.3464 c0.3947,0.6722,0.7406,1.4397,1.2387,2.0441c0.4959,0.6018,1.2197,1.0493,1.8285,1.5331c1.013,0.8053,2.0261,1.6105,3.0392,2.4158 c0.6541,0.5199,1.3617,1.2423,2.1261,1.5898c1.8038,0.8201,4.0983,1.0357,6.0187,1.5005c1.6427,0.3976,2.9562,0.5542,4.6469,0.5204 c2.0485-0.0411,4.1883,0.0956,6.2231-0.1557c2.0421-0.2522,4.0842-0.8375,6.0965-1.2604c1.6376-0.3441,2.8828-0.8076,4.3866-1.5399 c1.7515-0.8529,3.6496-1.5896,5.3206-2.5921c3.0191-1.8115,5.8251-4.1813,8.6384-6.3106c1.6243-1.2294,3.3609-2.3833,4.9019-3.7177 c1.5371-1.331,2.9375-2.8622,4.3937-4.281c2.433-2.3706,4.8646-4.7849,7.1393-7.3066c2.329-2.5818,4.4993-5.3341,6.6954-8.0314 c1.2895-1.5837,2.6569-3.1286,3.8742-4.7689c1.214-1.636,2.2251-3.4566,3.3177-5.1756c1.8688-2.9405,3.8026-5.8432,5.7703-8.7185 c1.6545-2.4178,3.4113-4.7385,4.8945-7.2483c0.0376,0.9547,0.07,1.9096,0.1104,2.8642c0.0844,1.9936,0.0458,4.0367,0.2796,6.019 c0.2397,2.0306,0.6996,4.054,1.0526,6.0674c0.5944,3.3908,1.0804,6.914,2.0172,10.221c0.8673,3.0622,2.2923,6.0622,3.4816,9.0222 c0.8217,2.0451,1.6293,4.0965,2.4654,6.1357c0.6796,1.6576,1.7716,3.1868,2.6767,4.7277c1.8835,3.2067,3.9903,6.2216,6.146,9.2554 c0.9699,1.365,2.2237,2.5291,3.3683,3.7461c1.048,1.1143,2.0639,2.2703,3.1698,3.3279c1.6746,1.6014,3.3627,3.1888,5.0441,4.7832 c1.0861,1.03,2.409,1.6314,3.7169,2.3495c1.8113,0.9947,3.5983,2.0921,5.4567,2.9964c1.6409,0.7985,3.511,1.2534,5.232,1.8451 c1.4387,0.4946,2.9035,1.1491,4.392,1.4667c2.246,0.4792,4.5728,0.7133,6.8419,1.0674c0.7055,0.11,1.4138,0.2531,2.1237,0.3313 c1.0632,0.1171,1.7575-0.2912,2.6594-0.7456c1.893-0.9539,3.9577-1.7776,5.7555-2.9001c0.5631-0.3516,0.9762-0.9076,1.4184-1.3932 c0.8864-0.973,1.7727-1.9461,2.6591-2.9192c1.1123-1.2211,1.9494-2.2687,2.7342-3.7189c0.9623-1.7782,2.2769-3.6107,2.9335-5.5318 c0.6711-1.9639,1.036-4.089,1.5457-6.1008c0.8135-3.2107,1.1483-6.5836,1.6-9.8624c0.2796-2.0296,0.2012-4.1434,0.2742-6.1884 c0.0486-1.3646,0.1386-2.7136,0.0433-4.0749c-0.2664-3.8065-0.5211-7.5847-0.9932-11.3699 c-0.509-4.0809-1.2008-8.0204-2.0266-12.0515c-0.7402-3.6128-2.4781-7.0244-4.0452-10.3553 c-0.7146-1.5187-1.5905-2.9749-2.3909-4.4501c-0.7657-1.4113-1.418-2.9689-2.4778-4.1863 c-0.5666-0.6509-1.1477-1.2878-1.7197-1.9333c0.8888,0.515,1.784,1.0174,2.6986,1.4661c1.8827,0.9237,3.9176,1.6098,5.8573,2.4029 c3.573,1.4609,7.1868,2.9037,10.8512,4.1156c1.7451,0.5771,3.5641,0.9818,5.3377,1.4637c1.6028,0.4355,3.1412,0.8777,4.7864,1.0862 c2.4273,0.3076,4.8542,0.6189,7.2821,0.9227c0.2243,0.0281,0.3278,0.0412,0.3547,0.0445c0.1891,0.0256,0.3781,0.0513,0.5673,0.077 c1.2929,0.1753,2.5857,0.3506,3.8786,0.5259c1.6689,0.2263,3.3942,0.6196,5.0824,0.5392c2.4577-0.117,4.9185-0.2052,7.3747-0.351 c1.79-0.1063,3.578-0.5192,5.3441-0.813c1.7554-0.292,3.5919-0.4129,5.2357-1.1087c2.2469-0.951,4.4936-1.9026,6.7404-2.854 c1.5735-0.6662,2.791-1.9384,4.0949-3.0281c1.3639-1.1398,2.853-2.2135,4.1031-3.4783c1.712-1.732,3.3189-3.5818,4.9742-5.3683 c0.536-0.5784,1.0248-1.0518,1.3084-1.813c0.3446-0.9249,0.6364-1.8733,0.9539-2.8079c0.6476-1.9062,1.656-3.9469,1.9005-5.9555 c0.2777-2.2819,0.503-4.5713,0.7544-6.8562C292.1711,159.2443,291.9745,157.8824,291.6941,156.1822z M259.7194,123.6555 C260.2946,123.7121,259.9476,123.8109,259.7194,123.6555L259.7194,123.6555z M245.8022,122.6041 c4.1293,0.2832,8.2534,0.5931,12.379,0.9254c0.4797,0.0387,0.9592,0.0811,1.4392,0.1159c0.0399,0.0029,0.0634,0.0066,0.0968,0.0099 c0.4949,0.4009,1.7554,0.5542,2.3308,0.7407c1.3286,0.4304,2.6572,0.8608,3.9857,1.2913c0.4563,0.1478,0.9111,0.302,1.3693,0.4436 c0.0661,0.0204,0.1187,0.0394,0.1668,0.0578c-0.028-0.0223-0.0559-0.0441-0.087-0.0734c0.0313,0.0295,0.0759,0.053,0.1098,0.0813 c0.2552,0.0999,0.2484,0.1558,0.1231,0.0912c0.5633,0.416,1.3774,0.7182,1.9488,1.0342c1.2229,0.6762,2.4458,1.3525,3.6686,2.0288 c0.4192,0.2319,0.8328,0.4811,1.2603,0.6971c0.0703,0.0355,0.1246,0.0667,0.1722,0.0957c-0.0229-0.0342-0.0456-0.072-0.0662-0.1179 c0.0177,0.0396,0.0463,0.0799,0.0699,0.1199c0.3134,0.1916,0.1653,0.2305,0.013,0.0223c0.3527,0.5751,1.2493,1.1835,1.6847,1.617 c0.9607,0.9561,1.9213,1.9123,2.8819,2.8685c0.3697,0.3679,0.7298,0.75,1.1111,1.1059c0.0532,0.0496,0.0928,0.0915,0.1285,0.1307 c-0.011-0.0356-0.0219-0.0717-0.0291-0.1161c0.0063,0.0385,0.0227,0.0806,0.0337,0.1208c0.2397,0.2652,0.107,0.2843,0.0149,0.0533 c0.2023,0.6374,0.9172,1.4535,1.2213,1.966c0.6902,1.1632,1.3804,2.3264,2.0707,3.4897c0.2524,0.4253,0.5048,0.8507,0.7572,1.276 c0.0443,0.0746,0.0933,0.1544,0.1396,0.2354c0.0148,0.7088,0.4032,1.6221,0.5557,2.2742c0.4665,1.9944,0.9989,3.9851,1.4019,5.9934 c0.4122,2.0541,0.6841,4.1464,1.0251,6.2134c0.1039,0.6291,0.2256,1.2621,0.3185,1.8957c-0.0174,0.001-0.0273,0.2167-0.0659,0.4735 c-0.0834,0.556-0.1234,1.1221-0.1849,1.6809c-0.0591,0.5369-0.1089,1.0779-0.1613,1.6174c-0.4023-1.5817-0.831-3.1585-1.2394-4.736 c-0.3645-1.4081-0.8474-2.7802-1.297-4.1634c-0.5108-1.5715-0.8762-3.329-1.6535-4.7961c-1.732-3.2688-3.703-6.3637-5.9676-9.2765 c-1.0112-1.3006-1.9519-2.83-3.1369-3.9753c-1.5216-1.4704-3.3265-2.7275-4.9628-4.0692c-1.2052-0.9882-2.393-1.634-3.7903-2.3425 c-1.6593-0.8413-3.3976-2.0351-5.1869-2.5784c-1.9446-0.5905-4.0939-0.7966-6.0884-1.1846 c-1.3831-0.2691-2.7334-0.4843-4.1346-0.6278c-3.8334-0.3928-7.667-0.7837-11.5012-1.1693 c-1.4203-0.1428-2.8322-0.3912-4.2563-0.2729c-2.2548,0.1875-4.5096,0.3749-6.7644,0.5624 c-2.2488,0.187-4.5183-0.0347-6.7789-0.0896c0.0488-0.0169,0.0977-0.0338,0.1465-0.0507c1.2018-0.0878,2.4034-0.1757,3.6051-0.2636 C231.7459,123.5139,238.6816,122.1157,245.8022,122.6041z M272.1096,181.4701c-0.0243,0.0004-0.037-0.0018-0.0725,0.001 c-0.8211,0.0653-1.699,0.3969-2.4998,0.5841c-1.115,0.2605-2.2299,0.521-3.3448,0.7815c-0.4659,0.1089-1.1562,0.1563-1.644,0.3503 c0.235-0.0614,0.3511,0.0145-0.0216,0.0086c-0.06,0.0248-0.1295,0.0426-0.1817,0.0727c0.0601-0.0347,0.118-0.0562,0.1729-0.0729 c-0.0263-0.0005-0.0448,0.0004-0.076-0.0011c-0.4114-0.0188-0.8265-0.0078-1.2383-0.0117c-1.1799-0.011-2.3599-0.0221-3.5399-0.0332 c-3.3488-0.0314-6.6953,0.0046-10.0443,0.0334c-0.2947,0.0026-0.6348-0.0418-0.9258,0.008 c-0.0046,0.0008-0.0045,0.0015-0.0089,0.0023c-0.7082-0.1774-1.4508-0.2779-2.1641-0.4165c-1.8271-0.355-3.652-0.7606-5.488-1.0663 c-1.6255-0.2707-3.2975-0.3511-4.9359-0.5137c-1.0487-0.1041-2.0974-0.2082-3.1461-0.3122c-0.2101-0.0208-0.4261-0.052-0.6396-0.067 c-3.1683-0.6963-6.4601-1.3204-9.6936-1.6187c-2.1601-0.1994-4.3201-0.3987-6.4801-0.598 c-0.1885-0.0174-0.4169-0.0634-0.6203-0.0636c-0.8488-0.1704-1.7072-0.3036-2.5594-0.4552 c-1.7809-0.3167-3.6266-0.5229-5.3829-0.9574c-1.548-0.3829-3.0716-0.9954-4.5876-1.4889 c-3.2569-1.0603-6.5031-2.1494-9.7497-3.2408c-0.5387-0.1811-1.0774-0.3622-1.6161-0.5433 c-0.9194-0.3091-1.7122,0.1134-2.1601,0.7893c-0.4643,0.6013-0.6199,1.4473-0.1823,2.246c1.3961,2.5481,2.7735,5.1073,4.1928,7.6424 c1.0298,1.8394,2.0666,3.675,3.0999,5.5125c0.1728,0.3074,0.3564,0.8125,0.5949,1.1543c-0.1001-0.1851-0.0224-0.266,0.1351,0.1372 c0.0076,0.0195,0.0156,0.0389,0.0232,0.0583c0.0068,0.0065,0.0122,0.0175,0.0191,0.0236c-0.0066-0.0058-0.0105-0.0116-0.0167-0.0174 c0.1538,0.3924,0.3118,0.7834,0.4678,1.1751c1.2118,3.0444,2.41,6.0324,3.3817,9.1585c0.9888,3.1816,1.8879,6.3308,2.7043,9.5603 c0.8029,3.1759,1.3172,6.299,1.8179,9.5421c0.0966,0.6258,0.181,1.2564,0.2903,1.8806c0.0172,0.2996,0.0658,0.6026,0.0974,0.8996 c0.2181,2.0467,0.4362,4.0934,0.6542,6.1401c0.3214,3.0163-0.3955,6.1325-0.5885,9.1513c-0.0832,1.3004-0.0135,2.6189-0.0064,3.9216 c0.0055,0.9998,0.0109,1.9996,0.0164,2.9994c0.0022,0.3973-0.0089,0.7972,0.0065,1.1942c0.0024,0.062,0.0007,0.1059-0.0002,0.1533 c0.0192-0.0367,0.041-0.0744,0.0714-0.1128c-0.0278,0.0351-0.0464,0.0897-0.0714,0.131c-0.0103,0.3877-0.1124,0.2846-0.0349,0.0639 c-0.2509,0.4643-0.3711,1.2004-0.5221,1.6418c-0.3919,1.1456-0.7837,2.291-1.1756,3.4366 c-0.1382,0.4038-0.3753,0.8741-0.5132,1.3252c-0.2858,0.2453-0.5525,0.5312-0.8214,0.7858 c-0.8044,0.7614-1.6088,1.5229-2.4132,2.2844c-0.4134,0.3913-1.0275,0.8278-1.4475,1.299c-0.2269,0.0567-0.4546,0.1265-0.67,0.1806 c-1.1548,0.2897-2.3096,0.5794-3.4644,0.869c-0.6048,0.1517-1.3196,0.2445-1.9376,0.4487c-0.173-0.0368-0.3486-0.066-0.4988-0.1049 c-2.0877-0.5419-4.1754-1.0836-6.2631-1.6255c-0.2532-0.0657-0.5117-0.1551-0.77-0.1998c-0.0166-0.0028-0.0245-0.0047-0.0391-0.0073 c-0.5475-0.3507-1.1668-0.6341-1.73-0.9436c-1.7424-0.9573-3.4616-2.0357-5.2575-2.8886c-0.108-0.0513-0.2665-0.1557-0.3388-0.2003 c-0.0179-0.0151-0.0362-0.0297-0.054-0.0447c-0.7825-0.6572-1.575-1.3029-2.3623-1.9542c-1.2967-1.0727-2.6552-2.0996-3.9034-3.229 c-1.1515-1.0419-2.2169-2.198-3.3191-3.2915c-0.6695-0.6642-1.3389-1.3284-2.0083-1.9926 c-0.2283-0.2265-0.4473-0.4772-0.6917-0.6863c-0.0423-0.0362-0.0647-0.0525-0.0912-0.0729 c-1.6626-2.4196-3.6496-4.6264-5.2316-7.0997c-1.6578-2.592-3.3267-5.2063-4.8414-7.8851 c-1.5644-2.7668-3.1881-5.5039-4.6271-8.3384c-0.9324-1.8365-1.8648-3.673-2.7972-5.5096 c-0.1034-0.2036-0.1944-0.4609-0.3286-0.6508c-0.2337-0.6436-0.5023-1.278-0.7517-1.9149 c-2.3453-5.9903-4.4093-11.968-5.6325-18.2948c-0.2962-1.5322-0.5925-3.0643-0.8887-4.5964 c-0.3309-1.7117-2.9465-1.9932-3.7299-0.4875c-0.4525,0.8698-0.8929,1.7488-1.3349,2.6275 c-0.8092,1.4187-1.6184,2.8374-2.4275,4.2561c-0.987,1.7305-2.339,3.272-3.5326,4.8621c-0.5815,0.7747-1.1603,1.5518-1.7447,2.3244 c0.2391-0.3254-0.2502,0.282-0.3987,0.4522c-0.429,0.4916-0.8579,0.9832-1.2869,1.4748c-1.3987,1.6029-2.8486,3.1724-4.1836,4.8291 c-1.632,2.0253-3.1607,4.2014-4.9145,6.1213c-1.5355,1.6807-3.3927,3.1422-5.0708,4.6811c-1.4226,1.3046-2.834,2.6209-4.2463,3.9366 c-1.0096,0.9405-2.0524,1.8559-3.0337,2.826c-0.1032,0.102-0.1537,0.1549-0.1822,0.187c-0.3006,0.2289-0.6003,0.4594-0.9004,0.689 c-3.9484,3.0214-7.9314,5.8908-12.0267,8.7111c-1.7522,1.2067-3.3844,2.5999-5.0543,3.916 c-0.7142,0.5629-1.7426,1.1525-2.4106,1.8448c-0.5411,0.207-1.0767,0.4309-1.6142,0.6461c-1.4343,0.574-2.8686,1.1481-4.3029,1.7222 c-0.4755,0.1903-1.0011,0.345-1.4555,0.5826c-0.0617,0.0322-0.093,0.054-0.1251,0.076c-2.657,0.0641-5.3311,0.3885-7.9819,0.5762 c-2.0983,0.1485-4.2039,0.2142-6.3049,0.3145c-0.6955,0.0332-1.391,0.0665-2.0865,0.0997 c-0.1707,0.0082-0.6635-0.0426-0.9277,0.0108c-0.0952-0.0226-0.1917-0.0418-0.277-0.0646 c-0.6362-0.1704-1.2725-0.3408-1.9087-0.5112c-1.4839-0.3974-2.9678-0.795-4.4518-1.1924c-0.371-0.0994-0.8068-0.284-1.2067-0.3462 c-0.9154-0.8854-1.9693-1.6732-2.9311-2.4992c-0.5551-0.4767-1.1041-1.0043-1.6685-1.5065c-0.0088-0.0695-0.0209-0.142-0.028-0.2103 c-0.1314-1.2523-0.2628-2.5046-0.3942-3.757c-0.1487-1.417-0.0577-2.7249,0.0302-4.155c0.0789-1.284,0.1579-2.568,0.2369-3.852 c0.0275-0.4478,0.0633-0.8962,0.0827-1.3444c0.0003-0.0071,0.0007-0.0102,0.0011-0.017c-0.0103,0.0288-0.0214,0.0574-0.0361,0.0829 c0.0152-0.0261,0.0225-0.063,0.0366-0.0907c0.0242-0.5009,0.0781-0.2578,0.011-0.0271c0.3123-0.6376,0.3681-1.6417,0.5241-2.3015 c0.2977-1.2601,0.5953-2.5201,0.893-3.7802c0.7942-3.362,2.1333-6.5849,3.3832-9.8032c0.6494-1.6722,1.3544-3.3248,2.0318-4.9857 c0.3369-0.8261,0.6826-1.6496,1.0111-2.4792c0.0134-0.0148,0.0203-0.0191,0.0394-0.0434c0.2219-0.2826,0.3783-0.6569,0.5578-0.9685 c1.9671-3.4153,3.9327-6.7248,6.1442-9.9834c0.6137-0.9043,1.2384-1.8022,1.8416-2.7135c0.0164-0.0247,0.0288-0.0399,0.0438-0.0611 c-0.0241,0.0173-0.0452,0.0341-0.0737,0.052c0.0382-0.0238,0.0735-0.0703,0.1107-0.1036c0.119-0.1586,0.1843-0.1989,0.1801-0.1684 c0.096-0.1106,0.187-0.2264,0.2695-0.3125c1.6004-1.6692,3.2007-3.3383,4.8011-5.0075c1.0183-1.0621,2.1665-2,3.2639-2.9785 c0.9002-0.8026,1.8004-1.6053,2.7006-2.408c0.1888-0.1682,0.4342-0.3398,0.6071-0.5361c0.0127-0.0081,0.0174-0.0107,0.0314-0.0198 c1.9065-1.2411,3.7609-2.5705,5.6391-3.8542c1.1552-0.7896,2.3658-1.322,3.6385-1.9173c1.7382-0.8132,3.4762-1.6263,5.2144-2.4394 c1.8026-0.8433,0.9519-3.9795-1.03-3.8028c-0.6502,0.058-1.3024,0.1016-1.9535,0.1534c-4.9107,0.1788-9.7691,0.2381-14.6949,0.1644 c-5.2244-0.0781-10.4225-0.0574-15.6452,0.0636c-5.0156,0.1162-10.0132,0.0828-15.0263,0.3179 c-4.8609,0.2279-9.6705-0.4822-14.5354-0.3934c-3.1469,0.0574-6.244,0.0559-9.3886-0.0586 c-0.502-0.0183-1.3928-0.2137-1.9493-0.1063c-0.0058-0.0026-0.0082-0.0033-0.0142-0.0061 c-0.3189-0.1451-0.6795-0.2327-1.0116-0.3464c-1.2942-0.4431-2.5884-0.8863-3.8826-1.3295c-1.274-2.0075-2.5482-4.015-3.8222-6.0225 c0.2407-1.3219,0.4814-2.6437,0.7221-3.9656c0.1777-0.9756,0.3553-1.9513,0.5329-2.9269c0.0249-0.1368,0.13-0.433,0.1441-0.6338 c1.3802-1.3935,2.4752-3.2678,3.6593-4.8296c0.4098-0.5406,0.8225-1.0791,1.2295-1.6218c0.0077-0.0023,0.008,0.0011,0.0175-0.0028 c0.2357-0.0945,0.5144-0.4913,0.6954-0.6643c1.5619-1.4922,3.1237-2.9843,4.6856-4.4764c0.2038-0.1947,0.4162-0.3837,0.613-0.5856 c-0.0304,0.0092-0.0612,0.0181-0.0944,0.0196c0.0311-0.0015,0.0732-0.0252,0.1068-0.0315c0.3606-0.3709,0.2816-0.1298,0.0606-0.0179 c0.5164-0.1314,1.2525-0.7101,1.6505-0.923c0.9784-0.5233,1.9569-1.0467,2.9353-1.5701c0.6157-0.3293,1.513-0.6347,2.076-1.0895 c0.2742-0.035,0.5758-0.1582,0.8347-0.2278c1.1032-0.2963,2.2063-0.5925,3.3095-0.8887c2.8113-0.755,5.5345-1.6689,8.277-2.6165 c2.5735-0.4333,5.1345-0.9298,7.699-1.4246c0.2068-0.0399,0.4365-0.0676,0.6499-0.1191c0.8578,0.0272,1.7585-0.1145,2.6123-0.1684 c1.8139-0.1144,3.6275-0.2437,5.4422-0.3431c2.8819-0.1579,5.7717-0.2186,8.6509-0.4194c2.8706-0.2002,5.7306-0.4173,8.5904-0.5675 c2.0068,0.0387,4.0122,0.1201,6.0543,0.2482c3.3458,0.2099,6.6965,0.0876,10.048,0.0574c0.0588-0.0005,0.1139-0.0117,0.171-0.0174 c0.0542-0.0041,0.1085-0.0075,0.1607-0.0164c0.0196-0.0037,0.0383-0.0096,0.0577-0.0139c0.2019-0.0419,0.3891-0.1154,0.5571-0.2205 c1.2388-0.7359,1.63-2.7883,0.0836-3.5346c-4.9662-2.3967-9.9151-4.8576-14.947-7.1148c-0.8814-0.3954-1.7692-0.7776-2.656-1.1621 c-4.8172-2.1369-9.6811-4.2007-14.4075-6.5192c-0.4439-0.2177-0.8741-0.4357-1.3084-0.6532 c-1.1925-0.7132-2.3907-1.4184-3.5737-2.1471c-1.0318-0.6357-2.0476-1.2989-3.0706-1.9486 c-0.7676-0.4875-1.5352-0.9751-2.3029-1.4626c-0.271-0.1722-0.5379-0.354-0.8143-0.5172c-0.0311-0.0184-0.0382-0.0307-0.0636-0.048 c-0.7036-1.1246-2.0543-2.1448-2.9508-3.0943c-0.5646-0.5979-1.1292-1.1958-1.6937-1.7937 c-0.0989-0.1048-0.2171-0.2552-0.3384-0.3736c-0.5562-1.5268-1.6226-3.0154-2.3915-4.4456 c-0.0912-0.1696-0.1784-0.3472-0.2664-0.5224c-0.0535-0.1275-0.107-0.2549-0.1606-0.3824 c-0.1479-0.3521-0.2737-0.7145-0.3853-1.0832c0.13-1.6886,0.2599-3.377,0.39-5.0655c0.033-0.4288,0.128-0.9078,0.1418-1.3588 c0.0482-0.1149,0.094-0.2315,0.1432-0.3334c0.7956-1.646,1.5911-3.292,2.3866-4.938c0.1553-0.3214,0.4206-0.7024,0.5429-1.0633 c0.2823-0.2016,0.5391-0.472,0.7988-0.6992c1.3876-1.2138,2.7752-2.4276,4.1628-3.6414c0.1359-0.1188,0.2763-0.2394,0.4132-0.3614 c0.5149-0.111,1.1294-0.5625,1.5904-0.7892c1.6138-0.7936,3.2276-1.5872,4.8414-2.3808c0.0785-0.0387,0.1569-0.0779,0.2359-0.116 c0.0107-0.0004,0.0149-0.0001,0.0271-0.0006c0.67-0.0292,1.4532-0.3799,2.1006-0.5492c1.6443-0.4299,3.3602-0.7594,4.9716-1.2997 c0.0582-0.0195,0.0819-0.0307,0.1144-0.0442c0.0372-0.0021,0.0557-0.0017,0.1051-0.0055c0.8182-0.0628,1.6352-0.1496,2.4524-0.2243 c1.5754-0.1441,3.176-0.3907,4.7576-0.4352c1.0934-0.0308,2.2176,0.131,3.3089,0.2047c1.477,0.0998,3.2003,0.4703,4.6861,0.3276 c0.1492,0.0299,0.3041,0.0511,0.4449,0.0783c0.8881,0.1717,1.7763,0.3434,2.6645,0.5151c2.7214,0.5261,5.2499,1.0976,7.8901,1.9247 c0.8883,0.2783,1.7765,0.5565,2.6647,0.8348c0.5107,0.16,1.1789,0.5061,1.7164,0.5382c0.1499,0.0654,0.2999,0.131,0.4496,0.1965 c0.8621,0.3768,1.7241,0.7535,2.5861,1.1303c1.3171,0.5757,2.7175,1.0709,3.9886,1.7434c1.1072,0.5858,2.1479,1.3657,3.2038,2.0383 c1.07,0.6816,2.1727,1.5685,3.3234,2.1549c-0.1519-0.1058-0.0061-0.0947,0.1901,0.0746c0.028,0.0241,0.0572,0.047,0.0854,0.0709 c0.0241,0.011,0.0473,0.027,0.0715,0.0377c-0.0243-0.0108-0.0395-0.0191-0.0614-0.0293c0.1833,0.155,0.3695,0.3068,0.5542,0.46 c0.7437,0.6174,1.4874,1.2348,2.2312,1.8522c2.0862,1.7319,4.0811,3.4871,6.0626,5.3379c0.979,0.9145,1.9581,1.8289,2.9371,2.7433 c1.3143,1.2276,3.413,0.3396,3.4837-1.443c0.1152-2.9034,0.3047-5.8132,0.3434-8.7184c0.0391-2.9367-0.2095-5.8911-0.0821-8.8248 c0.078-1.7963,0.2845-3.5973,0.4262-5.3896c0.0669-0.8464,0.1339-1.6929,0.2008-2.5394c0.0102-0.1288,0.0342-0.2827,0.0463-0.4317 c-0.0246,0.1947-0.0803,0.3524-0.0194-0.0112c0.0078-0.0465,0.0152-0.0932,0.023-0.1397c-0.0014-0.0223,0.0051-0.0492,0.0016-0.07 c0.0021,0.0127,0.0018,0.0291,0.0026,0.0438c0.5028-3.0014,1.009-6.0175,1.3878-9.0366c0.2395-1.9089,0.4681-3.8193,0.7021-5.7288 c0.089-0.7257,0.18-1.4512,0.2668-2.1772c-0.004,0.0088-0.0036,0.0116-0.0078,0.0206c0.0048-0.0105,0.0055-0.0256,0.0098-0.0367 c0.0035-0.0295,0.0073-0.0588,0.0108-0.0883c0.0182-0.1528,0.0472-0.2342,0.0734-0.2821c0.0063-0.0387,0.0115-0.0816,0.0196-0.1157 c0.6879-2.8815,1.0708-5.8735,1.9561-8.702c0.8894-2.8414,1.8567-5.6687,2.6394-8.5417c0.5416-1.9882,1.0832-3.9763,1.6248-5.9644 c0.1205-0.4423,0.2914-0.9165,0.3832-1.3778c0.0107-0.014,0.009-0.0141,0.0218-0.0301c0.2063-0.2589,0.3708-0.5727,0.5501-0.8498 c1.1466-1.7712,2.2931-3.5424,3.4397-5.3135c0.145-0.2239,0.3026-0.4441,0.4368-0.6747c0.0009-0.0015,0.0013-0.0021,0.0021-0.0036 c0.4275-0.4027,0.8124-0.8885,1.2056-1.3152c1.3725-1.4894,2.8668-2.929,4.1476-4.4985c0.7453-0.0651,1.5271-0.2855,2.2542-0.4148 c1.6401-0.2917,3.453-0.4354,5.0888-0.8652c0.1329,0.0407,0.2708,0.0733,0.3401,0.1c0.9152,0.3514,1.8304,0.7028,2.7456,1.0542 c0.9288,0.3566,1.8575,0.7132,2.7862,1.0698c0.2238,0.086,0.4493,0.172,0.6742,0.2589c0.2212,0.3799,0.8305,0.8732,1.0416,1.1188 c0.7151,0.8315,1.4303,1.6631,2.1453,2.4947c0.5687,0.6613,1.1374,1.3226,1.7061,1.9839c0.0342,0.0398,0.0757,0.0989,0.1143,0.152 c0.4826,1.7974,1.1859,3.5634,1.7719,5.3295c0.9574,2.8854,1.6895,5.8254,2.47,8.764c0.0867,0.3265,0.1367,0.8285,0.2715,1.2034 c-0.0537-0.2162,0.0477-0.2785,0.1035,0.1724c0.0033,0.0267,0.0068,0.0535,0.0101,0.0801c0.0016,0.0026,0.0024,0.0067,0.0041,0.0093 c-0.0016-0.0024-0.0023-0.0047-0.0039-0.0071c0.0534,0.4307,0.1083,0.8613,0.1624,1.292c0.2388,1.9002,0.4898,3.7993,0.7165,5.701 c0.3322,2.7872,0.5786,5.6134,0.7564,8.4144c0.1739,2.7379,0.1387,5.4903,0.3377,8.2264c0.2107,2.8972,0.808,5.8388,0.6779,8.7449 c-0.2767,6.1768-0.8305,12.3232-1.1575,18.4954c-0.0658,1.2419-0.1315,2.4838-0.1974,3.7257 c-0.1576,0.4143-0.1823,0.8652-0.0188,1.3216c0.1653,1.0034,1.0422,1.4974,1.94,1.4855c1.0282,0.1953,2.2305-0.3128,2.4866-1.5238 c1.9132-1.4215,3.8596-2.8262,5.6435-4.3877c1.4959-1.3094,2.9411-2.6812,4.4103-4.0206c0.1007-0.0918,0.2115-0.183,0.3183-0.2738 c0.4108-0.2903,0.82-0.5834,1.2431-0.8544c4.9215-3.1523,9.8562-6.2115,15.0445-8.9138c1.6786-0.8742,3.3571-1.7485,5.0357-2.6228 c0.0466-0.0243,0.0945-0.0515,0.1438-0.0749c-0.0648,0.0152-0.0259-0.0176,0.1322-0.0688c0.0783-0.0385,0.1596-0.0718,0.2288-0.1192 c-0.0683,0.0468-0.1145,0.0688-0.1671,0.0978c0.0061-0.0016,0.0066-0.0028,0.013-0.0045c0.7907-0.2093,1.5683-0.5009,2.3471-0.7495 c2.831-0.9041,5.604-1.7503,8.4903-2.446c0.982-0.2367,1.9639-0.4733,2.9458-0.71c0.3512-0.0846,0.7055-0.1615,1.0546-0.2542 c0.1979-0.0526,0.6638-0.1217,0.474-0.1056c1.1428-0.1295,2.2865-0.2518,3.43-0.3752c1.3804-0.0473,2.7612-0.1006,4.1417-0.1223 c1.2636-0.0198,2.5284-0.0086,3.7926-0.003c0.5603,0.0665,1.1193,0.1322,1.6736,0.1842c0.7106,0.0668,1.4219,0.1436,2.1335,0.2004 c-0.0122-0.0075-0.0275-0.0134-0.0368-0.0224c0.0092,0.009,0.0268,0.0147,0.0388,0.0226c0.0582,0.0046,0.1162,0.012,0.1744,0.0164 c0.5068,0.0376,0.0953,0.0968-0.1273,0.0111c0.1372,0.063,0.3562,0.0922,0.4703,0.129c1.8631,0.6001,3.7263,1.2001,5.5895,1.8002 c0.397,0.1278,0.7946,0.2669,1.1951,0.3893c0.0242,0.0243,0.0324,0.0327,0.073,0.074c0.2246,0.2281,0.533,0.4088,0.7879,0.6043 c1.6211,1.2434,3.2422,2.4868,4.8634,3.7303c0.1352,0.1038,0.2802,0.2358,0.4288,0.3682c-0.1132-0.2141,0.0812-0.2827,0.1449,0.0764 c0.004,0.0228,0.0206,0.0486,0.0265,0.072c0.1857,0.1574,0.377,0.3021,0.5691,0.3803c-0.2564-0.1043-0.4231-0.2113-0.5435-0.3111 c0.0811,0.2527,0.2333,0.5241,0.3285,0.7459c0.7828,1.8242,1.5655,3.6484,2.3483,5.4726c0.15,0.3498,0.2907,0.7239,0.4481,1.0849 c0.0102,0.1994,0.0332,0.4022,0.0438,0.5903c0.1088,1.9257,0.2177,3.8515,0.3265,5.7772c0.0318,0.5633-0.0616,1.3535,0.0992,1.9136 c-0.0422,0.1846-0.0574,0.407-0.0877,0.5456c-0.405,1.8538-0.8101,3.7077-1.2152,5.5615c-0.6088,2.7862-1.6259,5.3444-2.6215,8.0232 c-0.2675,0.7197-0.5595,1.4366-0.8054,2.1644c-1.3364,1.1646-2.515,2.5954-3.749,3.8639c-0.5656,0.5814-1.1562,1.1461-1.7001,1.7476 c-0.0804,0.0889-0.1812,0.1742-0.2662,0.2663c0.161-0.1479,0.409-0.2543,0.0583-0.0281c-0.0285,0.0184-0.0558,0.0386-0.0842,0.057 c-0.0182,0.0216-0.0425,0.0406-0.0571,0.0637c0.0118-0.0187,0.0287-0.0376,0.0461-0.0563 c-1.5076,0.9778-2.9669,2.0412-4.4473,3.0592c-2.3088,1.5876-4.6481,3.1186-6.9953,4.6494 c-2.4127,1.5736-4.7631,2.7634-7.3772,3.9965c-5.1835,2.4451-10.2256,5.1068-15.088,8.14 c-1.1892,0.7419-2.3784,1.4836-3.5676,2.2255c-0.2355,0.1469-0.4153,0.3309-0.5624,0.5313c-1.6404,1.1036-0.1789,4.24,1.8833,3.5572 c0.2719-0.09,0.5436-0.1866,0.8154-0.2792c3.0479,0.0186,6.0965,0.0861,9.132-0.1979c2.0522-0.192,4.1284-0.5011,6.1882-0.5788 c1.9379-0.0732,3.9061,0.0634,5.8449,0.0957c3.5855,0.0596,7.1321-0.6765,10.7011-0.6448c3.2631,0.029,6.5988,0.6543,9.8527,0.9877 c2.0996,0.2152,4.3071,0.6608,6.4219,0.6673c0.0222,0.005,0.0334,0.0078,0.0598,0.0136c0.4688,0.1041,0.9445,0.1838,1.4159,0.2755 c1.2734,0.2478,2.5467,0.4955,3.8201,0.7433c0.6568,0.1278,1.752,0.5678,2.4418,0.4843c0.0098,0.0051,0.0144,0.007,0.0248,0.0125 c0.4566,0.2407,0.9215,0.4673,1.382,0.7007c1.1563,0.5863,2.3125,1.1725,3.4686,1.7587c0.4367,0.2214,0.8691,0.4598,1.3133,0.6658 c0.2322,0.1078,0.371,0.1857,0.3969,0.1933c1.5763,1.2537,3.1161,2.5573,4.6733,3.8341c1.1925,0.9778,2.0023,2.0723,2.9565,3.2997 c0.7769,0.9994,1.5539,1.9987,2.3308,2.998c0.1179,0.1516,0.2357,0.3033,0.3537,0.4549c0.0193,0.0415,0.0631,0.1256,0.1494,0.2848 c1.0801,1.9925,2.2679,3.9668,3.4644,5.8917c0.0647,0.1041,0.1095,0.192,0.1399,0.2588c-0.0201-0.0657-0.0441-0.1512-0.0729-0.2767 c0.0284,0.1234,0.069,0.246,0.1109,0.3682c0.0009,0.0026,0.0008,0.0029,0.0016,0.0052c0.0511,0.1485,0.1052,0.2963,0.1527,0.4425 c0.3722,1.1448,0.7443,2.2897,1.1164,3.4345c0.4668,1.436,0.9502,2.8579,1.3284,4.3192c0.326,1.2592,0.652,2.5185,0.978,3.7777 c0.1618,0.6251,0.2415,1.8925,0.6046,2.5034c-0.0034,0.0218-0.0052,0.0338-0.0092,0.0593c-0.072,0.4477-0.0803,0.9142-0.1199,1.3658 c-0.1173,1.3366-0.2346,2.6732-0.352,4.0098c-0.0386,0.439-0.0771,0.8781-0.1157,1.3171c-0.9225,1.0971-1.845,2.194-2.7675,3.291 c-0.5842,0.6947-1.2957,1.3784-1.7988,2.1369c-0.1897,0.0739-0.403,0.2214-0.5544,0.2933c-1.9096,0.907-3.8193,1.8141-5.7289,2.7212 C272.5193,181.2755,272.3123,181.3698,272.1096,181.4701z M185.7942,255.704c-0.0324-0.0227-0.0713-0.039-0.1044-0.0611 C185.7256,255.6607,185.7612,255.6808,185.7942,255.704z M185.5155,255.574C185.3466,255.5403,185.3967,255.5374,185.5155,255.574 L185.5155,255.574z M84.3859,239.1996c-0.0239,0.009-0.0473,0.0194-0.0712,0.0285 C84.7147,238.9474,85.1097,238.9272,84.3859,239.1996z M84.2051,239.3088c-0.058,0.0629-0.1322,0.121-0.1831,0.1858 C84.0768,239.4251,84.1397,239.3639,84.2051,239.3088z M15.6635,163.3413C15.819,163.379,15.9044,163.4444,15.6635,163.3413 L15.6635,163.3413z M15.5179,163.3222c-0.0327,0.0085-0.0779,0.0056-0.1075,0.017 C15.4432,163.3266,15.4801,163.3224,15.5179,163.3222z M45.9355,100.4306C45.6586,100.2347,45.731,100.1483,45.9355,100.4306 L45.9355,100.4306z M41.3552,75.9982c0.0024-0.0017,0.0046-0.0041,0.007-0.0058C41.229,76.2584,40.9978,76.25,41.3552,75.9982z M41.3723,75.974c0.0179-0.0544,0.0421-0.1097,0.052-0.1628C41.4127,75.8741,41.3938,75.9269,41.3723,75.974z M106.8819,73.5171 c0.0019,0.0029,0.0041,0.0056,0.0061,0.0085c-0.2456-0.1703-0.4935-0.3374-0.7412-0.5047c0.1868,0.1221,0.3698,0.2594,0.5599,0.3676 C106.7553,73.4162,106.8227,73.4693,106.8819,73.5171z M159.4601,12.7524c-0.1349-0.0816-0.2373-0.2113-0.3135-0.3426 C159.2436,12.5433,159.3476,12.6843,159.4601,12.7524z M159.1223,12.3621c-0.1836-0.3466-0.1769-0.6622-0.0198-0.0675 C159.1085,12.3172,159.1162,12.3396,159.1223,12.3621z M154.2647,6.6924c0.0801,0.0297,0.1584,0.065,0.2391,0.0918 C155.202,7.0158,154.6187,6.9123,154.2647,6.6924z M140.6138,5.0195c-0.04,0.145-0.1537,0.2439-0.2836,0.3137 C140.4313,5.2396,140.5888,5.1101,140.6138,5.0195z M139.9428,5.462C139.7858,5.4891,139.7335,5.4772,139.9428,5.462L139.9428,5.462 z M134.9158,11.188C135.0457,10.9696,135.0085,11.0562,134.9158,11.188L134.9158,11.188z M134.8282,11.3017 c-0.0238,0.0275-0.0482,0.0534-0.0725,0.0746C134.7813,11.354,134.803,11.3247,134.8282,11.3017z M130.3825,18.1849 C130.3232,18.2899,130.2971,18.3054,130.3825,18.1849L130.3825,18.1849z M259.2919,131.0556 C259.0811,131.0334,258.7516,130.7744,259.2919,131.0556L259.2919,131.0556z M278.9129,178.3002 C278.8349,178.4118,278.8534,178.3714,278.9129,178.3002L278.9129,178.3002z M255.9359,84.4706 c0.0054,0.0125,0.0085,0.0265,0.0141,0.0388C256.1458,84.9384,255.9508,84.6825,255.9359,84.4706z M253.4872,77.1565 c0.0202,0.0909,0.0522,0.1814,0.0833,0.2718c0.0147,0.0412,0.0262,0.0772,0.0341,0.1077c0.0414,0.113,0.0851,0.2255,0.1222,0.3361 c0.6521,1.9468,1.3042,3.8937,1.9563,5.8405c0.0782,0.2335,0.1431,0.4844,0.2369,0.7146c-0.1845,0.4422-0.0609,1.8465-0.0809,2.1854 c-0.0607,1.0289-0.1214,2.0579-0.1822,3.0868c-0.0414,0.7022-0.2045,1.5352-0.1584,2.2614 c-0.1019,0.1909-0.1477,0.5365-0.2009,0.7087c-0.3137,1.0148-0.6275,2.0296-0.9414,3.0444 c-0.2858,0.9242-0.5716,1.8484-0.8574,2.7726c-0.0381,0.1234-0.095,0.2612-0.1451,0.4004 c-1.2714,1.1648-2.3478,2.7272-3.4723,4.0115c-0.5309,0.6063-1.1634,1.1966-1.6261,1.8572 c-0.0464,0.0663-0.0656,0.0949-0.0878,0.1279c-0.0932,0.0668-0.1847,0.1355-0.2765,0.2029 c-2.4765,1.817-4.9053,3.7214-7.4802,5.3977c-2.6363,1.7161-5.1672,3.5681-8.033,4.8691c-1.8659,0.8471-3.7377,1.6824-5.598,2.5414 c-0.1676,0.0774-0.3399,0.1471-0.5052,0.2293c0.092-0.0458,0.1643-0.0811,0.2278-0.1119c-0.0112,0.004-0.0227,0.0089-0.0335,0.0124 c-0.8773,0.2846-1.7407,0.6239-2.6088,0.935c-1.0577,0.3792-2.1141,0.7908-3.1767,1.1779c-0.8825,0.0749-1.7606,0.1744-2.6323,0.309 c0.162-0.0818,0.3186-0.1703,0.4811-0.2515c2.6242-1.3093,5.4326-2.3357,7.9891-3.7703c2.5446-1.428,4.9754-3.2014,7.4001-4.8267 c1.2916-0.8658,2.5634-1.7627,3.8447-2.6438c1.2466-0.8572,2.658-1.6398,3.7961-2.6454c1.0895-0.9626,2.054-2.1113,3.0676-3.1533 c1.0037-1.0317,2.171-2.0254,3.0676-3.1533c0.9441-1.1875,1.3221-3.0458,1.8429-4.447c0.5901-1.5878,1.2796-3.1701,1.7797-4.7886 c0.859-2.7802,1.3723-5.8126,1.9104-8.6738c0.2249-1.1954,0.0139-2.4601-0.0543-3.6664c-0.0378-0.6688-0.0714-1.3383-0.1058-2.0076 c0.1385,0.2725,0.2725,0.5473,0.4165,0.8165c0.0149,0.0278,0.0265,0.0551,0.0388,0.0826 C253.5134,77.268,253.5018,77.2217,253.4872,77.1565z M165.0955,16.128c0.7194,0.9511,1.5837,1.8745,2.1123,2.9458 c0.8813,1.7858,1.6282,3.6513,2.4392,5.4699c0.2647,0.5937,0.5153,1.2026,0.7928,1.794c0.0049,0.1803,0.0324,0.3796,0.0322,0.4986 c-0.0035,2.0993-0.007,4.1986-0.0105,6.2979c-0.0018,1.0682,0.0492,2.1232,0.1044,3.1907c0.0577,1.1167,0.1154,2.2333,0.1732,3.35 c0.0404,0.7831-0.1086,1.9013,0.1369,2.6503c0.0092,0.0283,0.0157,0.0353,0.0237,0.054c-0.0168,0.1163-0.035,0.2324-0.0525,0.3483 c-0.1608,1.0673-0.3216,2.1345-0.4825,3.2018c-0.1961,1.3017-0.3884,2.6041-0.5894,3.9051 c-0.0637-1.1052-0.1312-2.2085-0.1754-3.3226c-0.248-6.2538-0.9813-12.4506-1.7719-18.6554 c-0.3836-3.0107-1.4004-6.0577-2.2493-8.9686c-0.3688-1.2648-0.8238-2.5103-1.2401-3.7605 C164.5918,15.4602,164.8432,15.7945,165.0955,16.128z M118.7221,39.4078c0.2224-1.8699,0.4574-3.7388,0.6673-5.6101 c-0.0021,0.0051-0.004,0.0142-0.0062,0.0179c0.0037-0.0063,0.0036-0.0183,0.007-0.025c0.0068-0.0601,0.0147-0.1201,0.0214-0.1803 c0.052-0.4679,0.0398-0.1031,0.0007,0.1015c0.0567-0.1678,0.075-0.3947,0.106-0.5434c0.1946-0.9313,0.3892-1.8627,0.5838-2.794 c0.2267-1.0851,0.4535-2.1703,0.6801-3.2554c0.094-0.4497,0.4024-1.2181,0.395-1.7394c-0.0438,0.2526-0.2446,0.3933-0.0036-0.1211 c0.0021-0.0046,0.0042-0.0093,0.0063-0.0138c-0.0014-0.0096,0.0023-0.0232,0.0006-0.0325c0.0017,0.0097,0.0001,0.0189,0.0011,0.0285 c0.1675-0.3581,0.329-0.7191,0.4935-1.0787c0.4652-1.017,0.9305-2.034,1.3957-3.051c0.3256-0.7119,0.8678-1.524,1.0467-2.2883 c0.0058-0.0246,0.0039-0.0324,0.007-0.051c0.1917-0.2102,0.3689-0.4453,0.548-0.6561c1.2671-1.4914,2.5084-3.0105,3.8031-4.478 c-0.2049,0.3189-0.4121,0.6365-0.618,0.9547c-0.6591,1.0182-1.2108,1.8515-1.5294,3.0211 c-0.8012,2.9412-1.5396,5.9054-2.4503,8.8148c-1.8723,5.9818-3.6479,11.9536-4.4132,18.1976 c-0.2483,2.0255-0.4964,4.051-0.7447,6.0765c-0.014,0.1147-0.0276,0.2298-0.0422,0.3447c-0.0117,0.0621-0.0196,0.1252-0.0308,0.1875 c-0.0102-0.7368-0.0075-1.4737-0.0307-2.2105C118.5136,45.7667,118.3378,42.6384,118.7221,39.4078z M69.6274,55.7653 c-0.0457-0.0063-0.0918-0.0149-0.1363-0.0302C69.5336,55.7496,69.5826,55.7542,69.6274,55.7653z M46.1544,60.4218 c0.0102-0.0115,0.0226-0.0213,0.0327-0.0329C46.495,60.035,46.3429,60.3032,46.1544,60.4218z M39.0272,70.0226 c0.3769-0.9459,0.754-1.8918,1.1309-2.8377c0.1587-0.3983,0.4335-0.875,0.5989-1.3301c0.1446-0.1464,0.2835-0.3055,0.415-0.4374 c0.7399-0.7418,1.4797-1.4836,2.2195-2.2253c0.69-0.6919,1.3801-1.3839,2.0703-2.0757c0.2208-0.2214,0.4573-0.4374,0.6681-0.6699 c0.4702-0.0926,1.0379-0.4782,1.4543-0.6633c1.0442-0.4641,2.0885-0.9283,3.1328-1.3925c0.8336-0.3705,1.6671-0.741,2.5007-1.1115 c0.0425-0.0189,0.0898-0.0367,0.1351-0.0546c2.8271-0.1012,5.6646-0.5727,8.4852-0.7982c1.8892-0.151,3.7794-0.291,5.669-0.4366 c0.7039-0.0542,1.5509,0.0075,2.2355-0.1721c0.0242-0.0063,0.037-0.0094,0.0562-0.0143c0.1787,0.0312,0.3606,0.0554,0.5293,0.0866 c2.8776,0.5326,5.8744,0.8555,8.6681,1.741c1.913,0.6063,3.826,1.2126,5.739,1.8189c0.3254,0.1032,0.7193,0.294,1.0885,0.3923 c-0.1614-0.0596-0.0746-0.1179,0.2481,0.0345c0.0114,0.0054,0.023,0.0105,0.0344,0.0158c0.019,0.002,0.0398,0.0093,0.0584,0.0104 c-0.0239-0.0014-0.032-0.0063-0.0538-0.0083c0.3184,0.1498,0.6399,0.2938,0.9596,0.4406c2.7893,1.2808,5.6366,2.3308,8.0826,4.1883 c1.5793,1.1994,3.1585,2.3987,4.7377,3.598c0.1791,0.1359,0.3564,0.2745,0.5373,0.408c0.0001,0.0001,0,0,0.0001,0.0001 c0.5397,0.4182,1.0799,0.8357,1.6199,1.2535c1.0888,0.8426,2.1882,1.8666,3.3395,2.7251 c-4.0826-2.6843-8.4339-4.9523-13.0453-6.5985c-2.5594-0.9137-5.2632-1.8387-7.9111-2.4473 c-2.7828-0.6396-5.736-1.3488-8.5849-1.5877c-2.6856-0.2252-5.5495-0.6585-8.2388-0.4851c-2.7448,0.177-5.7886,0.1989-8.4592,0.897 c-2.7053,0.7073-5.6682,1.1416-8.1879,2.3807c-2.5621,1.2599-5.4318,2.27-7.5939,4.1613c-2.0519,1.7949-4.537,3.4001-5.8612,5.8045 c0.0708-0.4022,0.1453-0.8034,0.2321-1.2002C37.9927,72.2641,38.5848,71.1325,39.0272,70.0226z M6.4328,140.5111 c0.404-0.5898,0.808-1.1794,1.2119-1.7691c-0.0663-0.1382-0.0371-0.3955,0.1268-0.423c0.0764-0.0128,0.1569-0.0582,0.2361-0.1068 c0.0176-0.0257,0.0352-0.0513,0.0527-0.077c0.0932-0.136,0.284-0.3246,0.3322-0.485c-0.0502,0.1668-0.098,0.3052-0.1446,0.4312 c1.9224-0.8187,3.7712-1.9031,5.6367-2.8433c0.0219-0.011,0.0438-0.0222,0.0658-0.0332c-0.5264,0.5153-1.051,1.033-1.5816,1.5399 c-0.9192,0.8782-1.8893,1.7014-2.6603,2.7135c-1.175,1.5426-2.3431,3.0906-3.5146,4.6359c-0.7357,0.9704-1.6539,1.865-1.9283,3.069 c-0.0261,0.1144-0.0421,0.2319-0.067,0.3467c-0.0137-0.534-0.0274-1.0679-0.0411-1.6019c-0.0152-0.5935,0.0813-1.3818,0.0102-2.039 c0.108-0.1678,0.2063-0.3521,0.3009-0.4902C5.1232,142.4229,5.778,141.467,6.4328,140.5111z M40.0466,169.6712 c-0.0574,0.0105-0.0786,0.0159-0.1201,0.0243c-0.051-0.0029-0.1112-0.0054-0.215-0.0051c-0.9789,0.0026-1.9627,0.0747-2.9408,0.1118 c-1.5979,0.0608-3.2095,0.065-4.8044,0.1836c-1.818,0.1352-3.6353,0.3965-5.4475,0.5942c-0.668,0.0728-1.8096-0.0272-2.4209,0.2641 c-0.0223,0.0106-0.0271,0.0176-0.0428,0.0268c-0.2473-0.0443-0.4983-0.0785-0.7433-0.1196 c-2.1069-0.353-4.2138-0.7059-6.3208-1.0589c-0.134-0.0224-0.2969-0.0633-0.4554-0.0905c-0.4199-0.5959-1.5091-1.1397-2.0678-1.5688 c-0.5846-0.449-1.1693-0.8979-1.7538-1.347c0.6129,0.2065,1.2271,0.4048,1.8434,0.5758c1.4733,0.4088,3.1944,0.2438,4.7105,0.2991 c3.2297,0.1176,6.4494,0.0179,9.6812-0.0411c3.0274-0.0552,6.0501,0.3895,9.0719,0.5419c2.9007,0.1463,5.8492-0.2893,8.7531-0.3605 c1.3784-0.0338,2.7578-0.0327,4.1372-0.029c-0.4031,0.0866-0.8061,0.1604-1.2094,0.25 C46.5054,168.6333,43.2676,169.085,40.0466,169.6712z M38.9654,225.6363c-0.3319-0.6456-0.6638-1.2914-0.9957-1.937 c0.3806-2.4308,0.6544-4.9392,1.2754-7.3c0.2892-1.0993,0.7564-2.1804,1.1297-3.2533c0.4758-1.3674,1.2522-2.8868,1.5224-4.3251 c0.0926-0.1402,0.1747-0.3288,0.2402-0.4461c0.4335-0.7757,0.8671-1.5514,1.3006-2.3271c0.7567-1.354,1.5066-2.712,2.2703-4.0621 c1.3373-2.3645,2.9216-4.6611,4.0977-7.1076c0.0144-0.03,0.0152-0.0394,0.0248-0.0621c0.0266-0.0215,0.0416-0.0305,0.0764-0.0611 c0.5518-0.4837,1.0483-1.0559,1.5649-1.5763c1.2394-1.2484,2.4745-2.5013,3.7184-3.7453c1.3431-1.3432,2.7155-2.6579,4.0875-3.9727 c-0.5105,0.7558-0.9928,1.534-1.4957,2.2749c-0.8786,1.2946-1.8215,2.5626-2.6118,3.9137c-1.1775,2.013-2.3281,4.0421-3.492,6.0629 c-0.7959,1.3819-1.3228,2.9009-1.9244,4.3758c-1.5042,3.6881-2.9189,7.3923-4.3091,11.1253 c-0.5141,1.3804-0.8414,2.732-1.1814,4.1708c-0.4659,1.9721-1.1636,4.011-1.3687,6.0323c-0.2778,2.7372-0.5167,5.5465-0.43,8.3153 c-0.1651-0.2268-0.3302-0.4535-0.4952-0.6803C40.749,229.3749,39.9129,227.4795,38.9654,225.6363z M50.8171,245.2289 c0.0095,0.0023,0.0189,0.0043,0.0283,0.0065c0.0163,0.0352,0.0683,0.1321,0.1582,0.3309 C50.9517,245.4514,50.8769,245.3422,50.8171,245.2289z M78.3102,249.7276C78.089,249.8427,78.1845,249.7912,78.3102,249.7276 L78.3102,249.7276z M106.0869,228.9109c-2.5548,2.6466-5.3262,5.0984-7.8404,7.7777c-0.0831,0.0885-0.1222,0.1322-0.1507,0.1651 c-0.1723,0.1304-0.3446,0.2608-0.5167,0.3911c-0.966,0.7312-1.9321,1.4624-2.8982,2.1935c-1.1665,0.8829-2.3251,1.7764-3.511,2.6331 c-1.8602,1.3438-3.6865,2.7588-5.591,4.0389c-1.3108,0.8812-2.8652,1.4688-4.2834,2.1594c-0.9381,0.4569-1.8927,0.8903-2.8184,1.372 c-0.2339-0.045-0.6981,0.1505-0.9251,0.1982c-2.137,0.449-4.4464,0.7058-6.5307,1.3655c-0.3626-0.0364-0.7698,0.0183-1.1288,0.0255 c-1.2623,0.0253-2.5245,0.0506-3.7868,0.0759c-0.7092,0.0142-2.0107-0.2159-2.7011,0.0415 c-0.3878-0.1136-0.7943-0.1902-1.1856-0.2849c-1.2394-0.3-2.4789-0.5999-3.7184-0.8999c-0.4853-0.1174-1.6764-0.6406-2.3005-0.6196 c-0.2668-0.213-0.535-0.4253-0.8005-0.6364c-1.013-0.8053-2.0261-1.6105-3.0392-2.4157c-0.3742-0.2975-0.7485-0.595-1.1226-0.8924 c-0.2129-0.1693-0.3321-0.3098-0.3772-0.3605c0.3421,0.0818,0.6858,0.1515,0.9961,0.2347c1.2279,0.3289,2.4558,0.6577,3.6837,0.9866 c1.4333,0.3839,2.9094,0.9793,4.4085,0.9077c3.7689-0.1801,7.5358-0.3421,11.2992-0.6124c2.0098-0.1443,4.1577-0.0855,6.1412-0.4579 c1.849-0.3473,3.7319-1.4216,5.4753-2.1194c1.4978-0.5995,3.1132-1.0673,4.3866-2.0683c1.8319-1.4399,3.6602-2.8847,5.4902-4.3271 c0.1913-0.1508,0.3835-0.3009,0.5743-0.4526c0.031-0.0189,0.0592-0.0358,0.1128-0.0703c0.8673-0.5577,1.7028-1.1727,2.5519-1.7574 c1.451-0.9993,2.9337-1.9647,4.3538-3.0075c2.9142-2.1398,5.8805-4.3022,8.5273-6.7678c0.3712-0.3458,0.7456-0.6879,1.117-1.0334 C108.7143,226.1198,107.4258,227.5239,106.0869,228.9109z M170.0207,257.9183c0.0478,0.0401,0.1007,0.0901,0.1528,0.1544 C170.1292,258.018,170.0726,257.9693,170.0207,257.9183z M169.9985,257.8987C169.7969,257.7907,169.8639,257.7912,169.9985,257.8987 L169.9985,257.8987z M200.6613,263.4705C200.8169,263.3101,200.9783,263.3207,200.6613,263.4705L200.6613,263.4705z M200.5618,263.6067c0.0224-0.0446,0.0494-0.0815,0.0776-0.1141C200.6168,263.5307,200.581,263.5684,200.5618,263.6067z M208.0143,200.9506c0.2647,0.6032,0.5552,1.2065,0.8048,1.8199c0.0016,0.0402,0.0122,0.1233,0.0375,0.3029 c0.0618,0.4402,0.1801,0.8793,0.2693,1.3146c0.4453,2.1734,0.81,4.3821,1.3391,6.5366c0.0156,0.0633,0.0253,0.0982,0.035,0.133 c0.0289,0.2367,0.0591,0.4734,0.0885,0.7097c0.1464,1.1738,0.2928,2.3476,0.4392,3.5214c0.1844,1.4786,0.414,2.9583,0.532,4.4439 c0.2711,3.41,0.6351,6.8397,0.5132,10.2601c-0.0772,2.1661-0.3448,4.4145-0.2345,6.5791c0.002,0.0394,0.0046,0.0544,0.0069,0.0795 c-0.0339,0.2221-0.0666,0.4447-0.0998,0.6663c-0.1779,1.1886-0.3558,2.3772-0.5337,3.5659 c-0.2179,1.4562-0.3631,2.9448-0.6898,4.3809c-0.4903,2.155-1.1446,4.273-1.629,6.4294c-0.0399,0.1774-0.0809,0.2818-0.1108,0.3478 c0.0312-0.0576,0.0848-0.1488,0.1719-0.2791c-0.1479,0.2217-0.2584,0.4776-0.3851,0.7117 c-0.5609,1.0366-1.1219,2.0732-1.6828,3.1098c-0.4547,0.8402-1.0885,1.7214-1.4179,2.62c-0.0033,0.0091-0.0021,0.0102-0.005,0.0185 c-0.2601,0.2527-0.4953,0.5473-0.7372,0.8129c-0.826,0.9067-1.652,1.8135-2.478,2.7203c-0.4572,0.5019-1.226,1.1068-1.5969,1.7197 c-0.0241,0.0112-0.0409,0.0204-0.0705,0.0331c-0.46,0.1976-0.904,0.4555-1.351,0.6808c-1.1164,0.5626-2.233,1.1251-3.3494,1.6877 c-0.3799,0.1915-0.7599,0.3829-1.1398,0.5743c-1.6183-0.2524-3.2367-0.5049-4.855-0.7574c-1.335-0.2083-2.7426-0.2924-4.025-0.7333 c-2.2184-0.7627-4.437-1.5254-6.6554-2.2881c-0.386-0.1327-0.7708-0.2697-1.1583-0.3982c-0.0658-0.0218-0.0918-0.0377-0.1391-0.0573 c0.0421,0.0292,0.0739,0.0453,0.1253,0.0885c-0.0389-0.0327-0.0878-0.0593-0.1296-0.0902 c-0.2461-0.1022-0.2732-0.1651-0.1287-0.0897c-0.4839-0.3219-1.0959-0.5636-1.5796-0.8293c-2.0145-1.1062-4.0014-2.3316-6.07-3.3331 c-0.0498-0.0241-0.0871-0.0436-0.121-0.0617c-0.1362-0.1314-0.2823-0.2571-0.4147-0.3826c-0.859-0.8146-1.7181-1.6293-2.5772-2.4439 c-2.7294-2.5883-5.2842-5.3-7.8624-8.0412c-0.0883-0.0939-0.18-0.2058-0.2754-0.3132c-0.0197-0.017-0.0339-0.0304-0.0614-0.0598 c-0.0537-0.0562-0.1058-0.1173-0.1638-0.1594c0.0517,0.0375,0.0679,0.0563,0.1052,0.0867c-0.0411-0.0486-0.0777-0.0863-0.127-0.1579 c-0.6362-0.9238-1.2857-1.8387-1.9284-2.7579c-0.8759-1.2527-1.8145-2.4797-2.6108-3.7848 c-1.1767-1.9283-2.2897-3.8983-3.4338-5.8461c-0.1261-0.2147-0.2688-0.6262-0.4601-0.7833 c-0.0053-0.0044-0.0054-0.0007-0.0098-0.0036c-0.3606-0.9152-0.7336-1.8258-1.1004-2.7385 c-1.4332-3.5668-2.8241-7.1458-4.203-10.734c-1.1416-2.9705-1.5587-6.2557-2.152-9.3758c-0.221-1.1623-0.423-2.3288-0.6222-3.4956 c0.8817,2.3514,1.7572,4.7182,2.8896,6.9487c1.4736,2.9025,2.9059,5.8215,4.5081,8.655c3.2747,5.7915,6.61,11.4799,10.5782,16.826 c0.9171,1.2354,1.7708,2.5839,2.7945,3.7357c1.2008,1.3512,2.592,2.5717,3.8749,3.8446c2.3717,2.3532,4.8943,4.4288,7.4719,6.5611 c2.6176,2.1654,5.6192,3.6086,8.5951,5.2437c1.1108,0.6104,2.1446,0.9137,3.3741,1.2328c2.0122,0.5222,4.0183,1.0947,6.0425,1.5683 c1.5081,0.3528,3.0368-0.2819,4.5063-0.6505c1.5915-0.3993,3.7622-0.5577,5.0816-1.6026c1.4795-1.1715,2.794-2.6449,4.1643-3.9422 c0.4001-0.3787,0.8695-0.7401,1.2263-1.1609c0.5352-0.6311,0.7339-1.5117,0.998-2.2836c0.6357-1.8582,1.4436-3.731,1.9275-5.6342 c0.3611-1.4203,0.1006-3.1214,0.0927-4.5697c-0.0186-3.407,0.1663-6.6581,0.4638-10.0555c0.1028-1.1738,0.2907-2.3318,0.1658-3.504 c-0.2238-2.101-0.4478-4.202-0.6716-6.303c-0.3454-3.2411-0.8741-6.4803-1.4234-9.6924c-0.4878-2.8522-1.3243-5.7417-2.1141-8.5257 c-0.8043-2.8352-1.6106-5.7648-2.6903-8.5076c-1.1429-2.9034-2.1616-5.914-3.6409-8.667c0.2701,0.302,0.5402,0.6039,0.8104,0.9059 c0.151,0.1687,0.2953,0.3718,0.466,0.5208c-0.0947-0.0826-0.157-0.1474-0.2011-0.197c0.0365,0.055,0.0829,0.1307,0.1398,0.244 c0.4702,0.9359,1.0015,1.8459,1.5009,2.7664C204.8764,194.0562,206.4643,197.4177,208.0143,200.9506z M272.6038,186.4333 c-0.044,0.0134-0.1193,0.0387-0.254,0.0831c-0.4419,0.1458-0.8745,0.3702-1.3028,0.5517c-2.0099,0.851-4.0123,1.724-6.0309,2.5545 c-0.0347-0.0045-0.0862-0.0065-0.171-0.0038c-0.436,0.014-0.9015,0.15-1.3311,0.2214c-1.3189,0.2194-2.6379,0.4388-3.9568,0.6582 c-0.8939,0.1487-1.8088,0.2591-2.6972,0.446c-0.0161-0.0007-0.0193-0.0021-0.0389-0.0027 c-0.4221-0.0121-0.8554,0.0407-1.2772,0.0608c-1.3678,0.0651-2.7355,0.1302-4.1033,0.1953 c-0.7244,0.0345-2.2442-0.192-2.9041,0.1383c-0.0183,0.0091-0.0183,0.0154-0.0285,0.0233 c-0.3629-0.0487-0.7256-0.0984-1.0884-0.1475c-1.3537-0.1835-2.7074-0.3671-4.0611-0.5505c-1.5411-0.209-3.0817-0.4215-4.6246-0.617 c-2.3962-0.3036-4.7923-0.6096-7.1889-0.9109c-0.4102-0.0516-0.4228-0.1238-0.2943-0.1169 c-0.171-0.0391-0.3535-0.0647-0.4854-0.1006c-1.177-0.3198-2.354-0.6396-3.531-0.9594c-3.8797-1.0541-7.562-2.392-11.3377-3.786 c-1.3936-0.5145-2.7616-1.0896-4.1368-1.6518c-0.728-0.2977-1.456-0.5953-2.1841-0.893c0.3965,0.0615,0.7915,0.1239,1.1819,0.1933 c3.8482,0.6844,7.6464,1.0721,11.5413,1.4315c0.359,0.0331,0.7183,0.0734,1.0779,0.0995c0.7787,0.222,1.6432,0.2893,2.4364,0.4317 c1.8931,0.3399,3.784,0.7268,5.6848,1.0208c1.9852,0.3069,4.0142,0.4174,6.0121,0.6157c0.8606,0.0853,1.7295,0.2083,2.5942,0.2591 c0.359,0.0951,0.7419,0.1431,1.1046,0.2135c2.1463,0.417,4.2891,0.8657,6.4412,1.2516c1.611,0.2888,3.3202,0.11,4.9496,0.096 c3.7525-0.0325,7.5007-0.0036,11.2533,0.0316c1.4999,0.0141,2.8495-0.3636,4.3098-0.7047c1.8537-0.4332,3.9381-0.6644,5.6923-1.4218 c0.2221-0.0959,0.4389-0.2065,0.6597-0.3062c-0.0194,0.0161-0.0396,0.032-0.0591,0.0482 C273.8386,185.4014,273.2248,185.922,272.6038,186.4333z M160.9081,126.4376c-0.5043-0.906-0.9772-2.2043-1.921-2.733 c-2.4467-1.3703-5.2688-2.3052-7.8466-3.4148c-0.9834-0.4232-2.0915-0.4621-3.1517-0.591c-1.788-0.2175-3.576-0.4349-5.3639-0.6524 c-2.496-0.3036-4.8997,0.4623-7.3546,0.9491c-1.1204,0.2222-2.2409,0.4443-3.3614,0.6665c-1.3295,0.2636-1.6759,1.439-1.3517,2.4454 c-0.0767,0.0187-0.1542,0.0319-0.2309,0.0512c-1.2313,0.3099-2.4459,0.8425-3.6455,1.2557 c-1.2288,0.4233-2.7367,0.7069-3.8693,1.3707c-1.1461,0.6717-2.1074,1.9899-3.04,2.9095c-0.9077,0.8951-2.034,1.7607-2.7865,2.797 c-0.7671,1.0565-0.4591,2.9998-0.4739,4.2335c-0.0174,1.4521-0.0574,2.9059-0.052,4.3582c0.0093,2.4793-0.0504,5.0421,0.1698,7.5109 c0.106,1.1883,0.8409,2.3834,1.2962,3.4668c0.5478,1.3034,1.0947,2.6072,1.6435,3.9103c0.4769,1.1324,1.5368,1.8116,2.4462,2.6005 c1.3273,1.1515,2.6547,2.3029,3.9821,3.4544c1.899,1.6474,4.4123,2.5104,6.6621,3.5951c1.0392,0.5011,2.1907,1.2514,3.3525,1.376 c1.4538,0.1559,2.9198,0.2371,4.3771,0.3555c1.3209,0.1073,3.0553,0.5644,4.31-0.0123c1.076-0.4947,2.0957-1.2184,3.1185-1.813 c1.1785-0.6851,2.4333-1.309,3.5636-2.0717c0.956-0.6451,1.638-1.7822,2.3592-2.6611c3.2869-4.0055,6.5639-8.251,8.1189-13.2541 c0.8114-2.6107,1.6424-5.0219,1.8991-7.7378c0.1586-1.6781,0.3172-3.3564,0.4758-5.0345c0.1004-1.0621-0.2372-1.7826-0.7423-2.69 C162.6302,129.5313,161.7692,127.9845,160.9081,126.4376z M152.5801,131.4635c0.0053,0.0278,0.0052,0.0446,0.0159,0.0831 c0.3735,1.3499,1.1642,2.6945,1.7192,3.9792c0.3472,0.8035,0.6943,1.607,1.0414,2.4105c-0.3646,2.0456-0.7292,4.091-1.0938,6.1365 c-0.0375,0.2105-0.1643,0.5761-0.1761,0.8407c-0.0581,0.1062-0.1103,0.2234-0.1507,0.2911 c-0.715,1.1954-1.4301,2.3907-2.1451,3.5861c-0.4638,0.7755-0.9817,1.5473-1.4126,2.348c0.0329-0.0453,0.0343-0.0367-0.0069,0.0121 c-0.0541,0.1008-0.1206,0.1973-0.1712,0.2993c0.0732-0.1478,0.1278-0.2382,0.1628-0.2902 c-0.0475,0.0548-0.1364,0.1442-0.2836,0.2485c-0.4989,0.3533-0.9666,0.7634-1.4462,1.1423 c-1.1448,0.9043-2.2896,1.8085-3.4343,2.7127c-0.1482,0.117-0.3809,0.2563-0.5915,0.4067c-0.03,0.0085-0.069,0.022-0.0907,0.0248 c-2.2503,0.2903-4.4992,0.8663-6.7298,1.3471c-3.1833-1.6825-6.3665-3.365-9.5498-5.0475 c-0.2477-1.0329-0.4954-2.0658-0.7431-3.0987c-0.1904-0.7937-0.3807-1.5873-0.571-2.3811c-0.038-0.1584-0.0708-0.3254-0.1091-0.4901 c0.3202-1.3159,0.3723-2.8015,0.5658-4.1143c0.1098-0.7452,0.2708-1.5008,0.3319-2.2515c0.0074-0.0912,0.0072-0.1495,0.0063-0.204 c0.0106-0.0105,0.0155-0.0105,0.0278-0.0244c1.0573-1.1892,1.8891-2.6947,2.8018-3.9967c0.4536-0.647,0.9071-1.2941,1.3607-1.9411 c0.1211-0.1727,0.2438-0.345,0.3638-0.5189c0.291-0.0466,0.8825-0.6916,1.0864-0.8503c0.7438-0.5786,1.4875-1.1572,2.2314-1.7357 c0.9441-0.7345,2.1648-1.453,3.0448-2.3174c0.1808-0.0692,0.3622-0.1377,0.5415-0.2059c0.9263-0.3523,1.8526-0.7046,2.7789-1.0569 c0.8179-0.311,1.6358-0.6222,2.4537-0.9332c0.4132-0.0157,0.8267-0.0326,1.2377-0.0416c0.0793-0.0017,0.1486-0.0182,0.2231-0.027 c0.4987,0.2211,1.0033,0.4138,1.4858,0.5243c0.3591,0.3865,0.7607,0.7444,1.1358,1.1131c1.0621,1.044,2.1242,2.0879,3.1863,3.1319 C151.971,130.8633,152.2568,131.2052,152.5801,131.4635z M132.2786,132.9639c0.028-0.0407,0.0577-0.0804,0.0852-0.1216 C132.663,132.394,132.3781,132.8796,132.2786,132.9639z M121.4369,148.9675c-0.2028-0.4826-0.3757-0.9977-0.615-1.4634 c-0.0233-0.0452-0.054-0.1767-0.0916-0.267c0.1125-0.9251-0.0744-2.0303-0.0952-2.9328c-0.0281-1.2295-0.0616-2.459-0.0843-3.6886 c-0.0335-1.8127,0.0268-3.6291,0.0484-5.4418c0.0063-0.5273,0.0125-1.0547,0.0189-1.582c1.3553-1.3364,2.7107-2.673,4.066-4.0094 c0.0664-0.0655,0.2049-0.1678,0.3318-0.2763c0.0451-0.019,0.0968-0.0421,0.1347-0.0551c1.1851-0.4082,2.3702-0.8165,3.5552-1.2247 c1.6335-0.5627,3.0448-0.9874,4.7415-1.2579c0.0833-0.0133,0.1666-0.0266,0.2499-0.0399c-0.983,0.7646-1.966,1.5293-2.949,2.294 c-0.6307,0.4907-1.2912,0.9127-1.767,1.5579c-1.3982,1.8956-2.7081,3.863-4.0601,5.7918c-0.3996,0.5699-0.9102,1.1343-1.0889,1.819 c-0.2665,1.0212-0.3172,2.1525-0.471,3.1955c-0.299,2.0284-0.8799,4.1033-0.3969,6.1173c0.3195,1.3323,0.639,2.6646,0.9585,3.997 c0.2064,0.8604,0.3183,1.8374,0.6801,2.651c0.0841,0.1891,0.1959,0.3415,0.3159,0.4838c-0.5203-0.503-1.0577-1.0083-1.6296-1.3507 c-0.0966-0.2022-0.2065-0.4018-0.279-0.5744C122.4858,151.463,121.9614,150.2152,121.4369,148.9675z M142.9107,162.6541 C142.6562,162.7944,142.7263,162.739,142.9107,162.6541L142.9107,162.6541z M151.3084,156.3546 c-0.6908,0.8418-1.6963,1.7346-2.2135,2.6962c-0.3848,0.1604-0.7673,0.4579-1.1196,0.6628c-1.173,0.6819-2.346,1.3638-3.519,2.0458 c-0.4033,0.2345-0.8066,0.4689-1.2099,0.7034c-0.2092-0.0087-0.4384,0.0048-0.5736-0.0061 c-0.6665-0.0541-1.3331-0.1083-1.9996-0.1624c-1.3052-0.106-2.6104-0.212-3.9156-0.318c-0.0643-0.0052-0.1642-0.0183-0.2685-0.0323 c-0.0604-0.0255-0.1167-0.0498-0.1583-0.0698c-2.219-1.07-4.4156-2.2195-6.6686-3.2153c-0.4811-0.2126-0.5633-0.3767-0.1203,0.0529 c-0.2306-0.2236-0.4894-0.4246-0.7319-0.6349c-0.9875-0.8567-1.9752-1.7134-2.9627-2.5701 c-0.2147-0.1863-0.432-0.3925-0.6517-0.6046c0.4029,0.341,0.896,0.5712,1.3886,0.8316c1.1592,0.6127,2.3185,1.2254,3.4776,1.8381 c2.068,1.093,4.1151,2.2456,6.2115,3.2832c1.7526,0.8674,4.5476-0.2594,6.3542-0.6241c1.0834-0.2187,2.2105-0.3709,3.2774-0.6616 c0.754-0.2056,1.3246-0.7443,1.9296-1.2221c1.6515-1.3044,3.5603-2.5313,5.1091-3.9851 C152.3978,155.0256,151.8533,155.6905,151.3084,156.3546z M159.9387,136.027c-0.1221,1.2924-0.2444,2.5848-0.3665,3.8771 c-0.0125,0.1325-0.0871,0.4926-0.106,0.6368c-0.0568,0.1547-0.116,0.3223-0.1347,0.3823c-0.2892,0.9305-0.5784,1.8609-0.8675,2.7913 c0.019-0.1243,0.0363-0.2505,0.0579-0.3719c0.2471-1.3863,0.4942-2.7725,0.7413-4.1588c0.1703-0.9553,0.3008-1.7184-0.1031-2.6611 c-0.9576-2.2351-1.9289-4.4644-2.8933-6.6966c-0.7308-1.6915-2.5326-2.9525-3.8194-4.2173c-0.1954-0.192-0.3886-0.3882-0.5824-0.583 c1.0053,0.4375,2.0107,0.8751,3.016,1.3125c0.498,0.2167,0.9959,0.4335,1.4939,0.6502c0.0044,0.0019,0.0093,0.0048,0.0137,0.0068 c-0.049-0.1152-0.0867-0.2523-0.0884-0.4444c0.0012,0.1319,0.0547,0.2933,0.1337,0.4666c0.1204,0.0583,0.2466,0.131,0.372,0.1586 c0.4383,0.0967,0.0221,0.3138-0.2717,0.0399c0.2952,0.5461,0.7876,1.1702,0.9761,1.5088c0.6732,1.2095,1.3465,2.4189,2.0197,3.6283 c0.2033,0.3651,0.4006,0.7362,0.6111,1.0977c-0.0143,0.2146-0.0023,0.4571-0.0154,0.5961 C160.0634,134.707,160.0011,135.367,159.9387,136.027z M160.2273,133.6053C160.6154,134.2509,160.3554,133.974,160.2273,133.6053 L160.2273,133.6053z" fill="currentColor"/></g></svg>