<?xml version="1.0" encoding="UTF-8"?><!DOCTYPE svg PUBLIC "-//W3C//DTD SVG 1.0//EN" "http://www.w3.org/TR/2001/REC-SVG-20010904/DTD/svg10.dtd" []><svg fill="currentColor" xmlns="http://www.w3.org/2000/svg" xmlns:xlink="http://www.w3.org/1999/xlink" height="28.1" preserveAspectRatio="xMidYMid meet" version="1.0" viewBox="0.0 0.0 483.7 28.1" width="483.7" zoomAndPan="magnify"><defs><clipPath id="a"><path d="M 0 0 L 483.738281 0 L 483.738281 28.140625 L 0 28.140625 Z M 0 0"/></clipPath></defs><g><g clip-path="url(#a)" id="change1_1"><path d="M 78.417969 7.390625 C 78.535156 7.257812 78.648438 7.125 78.761719 6.992188 C 77.472656 5.320312 76.261719 3.558594 74.113281 2.902344 C 74 3.027344 73.890625 3.15625 73.777344 3.285156 C 75.324219 4.652344 76.871094 6.023438 78.417969 7.390625 Z M 405.328125 7.148438 C 407.074219 6.011719 408.828125 4.886719 409.859375 3.015625 C 407.695312 3.675781 406.367188 5.265625 405.328125 7.148438 Z M 339.234375 10.84375 C 341.675781 9.953125 344.492188 9.980469 346.765625 7.859375 C 344.261719 7.507812 342.003906 8.425781 339.234375 10.84375 Z M 144.609375 10.753906 C 141.429688 8.160156 139.371094 7.382812 137.289062 7.988281 C 139.453125 9.914062 142.160156 10.027344 144.609375 10.753906 Z M 305.5 2.40625 C 307.46875 4.578125 310.09375 5.519531 312.792969 6.3125 C 310.691406 4.398438 308.550781 2.546875 305.5 2.40625 Z M 178.425781 2.4375 C 176.082031 2.371094 172.976562 4.070312 171.277344 6.347656 C 174.589844 5.425781 176.867188 4.179688 178.425781 2.4375 Z M 449.785156 11.671875 C 447.484375 11.703125 445.242188 13.234375 443.460938 15.984375 C 446.101562 15.542969 448.828125 13.683594 449.785156 11.671875 Z M 33.792969 11.261719 C 35.292969 13.796875 38.296875 15.773438 40.964844 16.21875 C 39.046875 14.058594 37.207031 12.007812 33.792969 11.261719 Z M 97.28125 17.910156 C 93.925781 18.003906 90.976562 19.5625 89.925781 21.742188 C 92.8125 21.296875 95.089844 20.070312 97.28125 17.910156 Z M 394.027344 21.4375 C 392.160156 19.300781 389.828125 18.082031 386.953125 17.925781 C 388.828125 20.046875 391.117188 21.351562 394.027344 21.4375 Z M 129.015625 21.203125 C 128.875 21.332031 128.738281 21.464844 128.601562 21.59375 C 129.304688 22.929688 129.890625 24.351562 130.757812 25.578125 C 131.230469 26.25 132.117188 26.773438 132.925781 27.023438 C 133.410156 27.171875 134.273438 26.808594 134.636719 26.390625 C 134.863281 26.128906 134.648438 25.203125 134.335938 24.804688 C 132.953125 23.035156 131.011719 22.0625 129.015625 21.203125 Z M 355.339844 21.503906 C 355.183594 21.375 355.027344 21.246094 354.867188 21.117188 C 352.980469 22.148438 350.941406 22.96875 349.585938 24.792969 C 349.277344 25.207031 349.039062 26.117188 349.261719 26.378906 C 349.621094 26.800781 350.429688 27.117188 350.980469 27.03125 C 351.667969 26.921875 352.523438 26.519531 352.890625 25.96875 C 353.828125 24.5625 354.539062 23 355.339844 21.503906 Z M 63.625 17.464844 C 63.5 17.441406 63.378906 17.417969 63.253906 17.394531 C 62.121094 18.707031 60.871094 19.941406 59.902344 21.363281 C 59.238281 22.34375 58.859375 23.5625 58.570312 24.726562 C 58.460938 25.167969 58.828125 26.054688 59.199219 26.210938 C 59.625 26.390625 60.410156 26.125 60.832031 25.789062 C 61.273438 25.4375 61.582031 24.8125 61.75 24.246094 C 62.417969 22 63.007812 19.726562 63.625 17.464844 Z M 420.769531 17.1875 C 420.601562 17.265625 420.433594 17.34375 420.261719 17.421875 C 420.910156 19.75 421.527344 22.085938 422.21875 24.398438 C 422.570312 25.578125 423.296875 26.492188 424.683594 26.289062 C 425.539062 26.164062 425.839844 24.800781 424.960938 23.273438 C 423.734375 21.148438 422.183594 19.207031 420.769531 17.1875 Z M 23.769531 18.765625 C 23.714844 18.640625 23.65625 18.515625 23.601562 18.390625 C 22.242188 18.390625 20.847656 18.207031 19.527344 18.445312 C 18.320312 18.664062 17.058594 19.152344 16.074219 19.867188 C 15.355469 20.394531 14.023438 20.925781 14.5625 22.304688 C 14.875 23.101562 16.4375 23.25 17.875 22.449219 C 19.894531 21.320312 21.808594 20.003906 23.769531 18.765625 Z M 460.277344 18.410156 C 460.242188 18.535156 460.207031 18.65625 460.171875 18.78125 C 462.066406 19.988281 463.90625 21.292969 465.882812 22.355469 C 466.664062 22.777344 467.753906 22.808594 468.675781 22.726562 C 469.507812 22.65625 469.816406 21.769531 469.285156 21.203125 C 468.058594 19.902344 466.859375 18.429688 464.808594 18.414062 C 463.300781 18.402344 461.789062 18.410156 460.277344 18.410156 Z M 209.5 13.628906 C 212.507812 13.105469 216.296875 9.964844 217.152344 7.335938 C 217.277344 6.949219 217.324219 6.238281 217.132812 6.117188 C 216.769531 5.886719 216.113281 5.789062 215.738281 5.96875 C 212.898438 7.316406 210.867188 9.503906 209.523438 12.324219 C 209.355469 12.675781 209.5 13.171875 209.5 13.628906 Z M 274.621094 13.757812 C 274.003906 10.191406 271.726562 8.277344 269.269531 6.539062 C 268.476562 5.980469 267.535156 5.078125 266.523438 6.3125 C 267.523438 9.789062 270.648438 12.789062 274.621094 13.757812 Z M 375.164062 8.296875 C 370.40625 10.261719 369.199219 14.539062 367.898438 18.785156 C 370.414062 16.566406 372.710938 14.167969 374.859375 11.644531 C 375.527344 10.855469 376.332031 9.808594 375.164062 8.296875 Z M 116.367188 19.0625 C 115.351562 15.53125 114.0625 12.582031 111.777344 10.167969 C 111.21875 9.582031 110.464844 9.144531 109.738281 8.757812 C 109.398438 8.582031 108.664062 8.527344 108.535156 8.710938 C 108.285156 9.078125 108.183594 9.683594 108.285156 10.128906 C 108.414062 10.699219 108.757812 11.246094 109.09375 11.746094 C 110.972656 14.539062 113.457031 16.726562 116.367188 19.0625 Z M 158.664062 13.125 C 160.941406 15.820312 163.214844 18.507812 166.589844 19.8125 C 167.261719 20.070312 168.121094 19.835938 168.890625 19.828125 C 168.660156 19.082031 168.539062 18.269531 168.160156 17.605469 C 167.832031 17.035156 167.265625 16.554688 166.710938 16.171875 C 164.308594 14.507812 161.660156 13.4375 158.664062 13.125 Z M 325.503906 13.476562 C 325.390625 13.296875 325.277344 13.121094 325.164062 12.941406 C 322.144531 13.460938 319.355469 14.570312 316.890625 16.421875 C 316.238281 16.914062 315.691406 17.609375 315.253906 18.304688 C 315.007812 18.695312 314.863281 19.558594 315.070312 19.730469 C 315.453125 20.046875 316.195312 20.234375 316.671875 20.089844 C 317.601562 19.804688 318.5625 19.390625 319.3125 18.789062 C 321.429688 17.082031 323.449219 15.253906 325.503906 13.476562 Z M 200.074219 17.679688 C 201.28125 18.828125 202.460938 19.78125 203.425781 20.917969 C 204.757812 22.484375 204.953125 24.046875 204.132812 24.828125 C 203.300781 25.621094 201.847656 25.292969 200.390625 23.640625 C 199.136719 22.222656 198.09375 20.605469 197.078125 19 C 196.503906 18.089844 196.003906 17.285156 194.867188 16.949219 C 189.597656 15.398438 184.363281 13.722656 179.089844 12.191406 C 173.039062 10.4375 166.925781 10.035156 160.402344 11.792969 C 161.0625 12.105469 161.472656 12.277344 161.863281 12.488281 C 164.003906 13.632812 166.21875 14.660156 168.230469 15.996094 C 169.101562 16.574219 169.722656 17.726562 170.132812 18.746094 C 170.675781 20.09375 169.863281 21.132812 168.40625 21.265625 C 166.625 21.421875 165.050781 20.761719 163.738281 19.683594 C 161.621094 17.941406 159.621094 16.050781 157.597656 14.195312 C 157.152344 13.792969 156.8125 13.273438 156.414062 12.800781 C 147.816406 15.515625 139.402344 18.175781 130.851562 20.882812 C 131.746094 21.453125 132.660156 21.945312 133.46875 22.570312 C 134.179688 23.125 134.917969 23.738281 135.398438 24.480469 C 136.539062 26.25 135.515625 28.089844 133.410156 28.128906 C 131.648438 28.160156 130.070312 27.671875 129.125 26.019531 C 128.292969 24.570312 127.519531 23.085938 126.589844 21.375 C 117.476562 22.753906 108.5 21.347656 99.675781 18.363281 C 97.464844 21.417969 94.539062 23.144531 90.859375 23.613281 C 89.605469 23.773438 88.550781 23.585938 87.941406 22.375 C 87.285156 21.078125 88.019531 20.113281 88.945312 19.398438 C 90.324219 18.335938 91.824219 17.425781 93.242188 16.46875 C 85.003906 12.710938 74.492188 12.785156 64.738281 16.238281 C 64.335938 18.671875 64.074219 21.101562 63.492188 23.453125 C 63.195312 24.65625 62.449219 25.8125 61.6875 26.824219 C 60.847656 27.929688 59.417969 28.054688 58.359375 27.449219 C 57.671875 27.058594 57.136719 25.890625 57.0625 25.023438 C 56.800781 22.042969 58.558594 19.851562 60.507812 17.410156 C 59.410156 17.703125 58.554688 17.90625 57.71875 18.160156 C 50.9375 20.191406 44.066406 21.609375 36.945312 20.730469 C 34.222656 20.398438 31.519531 19.851562 28.855469 19.207031 C 27.699219 18.925781 26.855469 19.039062 25.878906 19.691406 C 24.042969 20.925781 22.152344 22.089844 20.199219 23.128906 C 19.078125 23.722656 17.820312 24.191406 16.570312 24.398438 C 14.605469 24.726562 13.667969 24.089844 13.183594 22.503906 C 12.746094 21.078125 13.460938 19.453125 14.9375 18.679688 C 15.945312 18.148438 16.972656 17.597656 18.054688 17.28125 C 19.035156 16.992188 20.105469 17.011719 21.28125 16.878906 C 14.09375 13.695312 7.046875 10.574219 0 7.457031 C 0.0820312 7.246094 0.160156 7.035156 0.242188 6.824219 C 1.0625 7.082031 1.886719 7.320312 2.699219 7.601562 C 11.558594 10.664062 20.390625 13.824219 29.292969 16.761719 C 32.914062 17.957031 36.714844 18.5 40.683594 18.09375 C 39.742188 17.679688 38.75 17.359375 37.875 16.839844 C 36.246094 15.867188 34.59375 14.890625 33.125 13.703125 C 32.183594 12.941406 31.472656 11.773438 32.324219 10.460938 C 33.160156 9.167969 34.566406 9.28125 35.613281 9.816406 C 37.21875 10.632812 38.816406 11.648438 40.058594 12.929688 C 41.519531 14.433594 42.597656 16.3125 44.007812 18.253906 C 47.46875 18.070312 51.101562 17.28125 54.710938 16.324219 C 60.539062 14.78125 66.351562 13.183594 72.214844 11.8125 C 74.621094 11.25 77.152344 11.21875 80.015625 10.902344 C 78.542969 9.714844 77.257812 8.789062 76.105469 7.722656 C 74.769531 6.480469 73.441406 5.195312 72.332031 3.761719 C 71.929688 3.242188 71.894531 2.097656 72.1875 1.472656 C 72.648438 0.492188 73.785156 0.601562 74.625 0.996094 C 75.648438 1.472656 76.652344 2.085938 77.503906 2.820312 C 80.152344 5.105469 82.035156 7.933594 83.105469 11.378906 C 88.988281 12.046875 94.515625 14.058594 100.085938 15.925781 C 104.5 17.402344 108.988281 18.523438 113.972656 19.140625 C 112.425781 17.5625 111.039062 16.3125 109.859375 14.894531 C 108.847656 13.679688 107.914062 12.34375 107.246094 10.917969 C 106.78125 9.925781 106.625 8.613281 107.769531 7.78125 C 108.875 6.976562 109.976562 7.445312 110.953125 8.113281 C 114.089844 10.257812 115.582031 13.496094 116.722656 16.953125 C 116.957031 17.671875 117.09375 18.425781 117.324219 19.367188 C 127.523438 19.804688 136.976562 16.730469 146.902344 13.175781 C 144.769531 12.519531 143.148438 12.085938 141.578125 11.519531 C 140.222656 11.03125 138.886719 10.457031 137.601562 9.800781 C 136.710938 9.351562 135.765625 8.652344 136.136719 7.503906 C 136.5625 6.183594 137.84375 6.386719 138.878906 6.53125 C 139.695312 6.644531 140.558594 6.882812 141.25 7.308594 C 143.3125 8.589844 145.390625 9.871094 147.28125 11.386719 C 148.214844 12.132812 148.878906 12.542969 150.09375 12.117188 C 152.25 11.355469 154.453125 10.707031 156.675781 10.171875 C 159.863281 9.402344 163.085938 8.78125 166.625 8.023438 C 168.238281 5.230469 170.882812 2.929688 174.03125 1.3125 C 175.46875 0.574219 177.195312 0.117188 178.804688 0.0664062 C 180.863281 0.00390625 181.71875 1.917969 180.457031 3.597656 C 179.746094 4.546875 178.742188 5.335938 177.734375 5.988281 C 176.460938 6.808594 175.050781 7.410156 173.394531 8.269531 C 174.128906 8.492188 174.585938 8.640625 175.046875 8.769531 C 178.714844 9.796875 182.414062 10.734375 186.054688 11.871094 C 190.285156 13.191406 194.464844 14.613281 198.933594 14.988281 C 202.078125 15.253906 205.164062 15.039062 208.355469 14.4375 C 208.21875 10.066406 211.015625 7.632812 214.125 5.421875 C 214.613281 5.078125 215.21875 4.664062 215.761719 4.679688 C 216.609375 4.703125 217.625 4.855469 218.230469 5.363281 C 218.605469 5.675781 218.613281 6.859375 218.339844 7.441406 C 217.71875 8.730469 216.847656 9.910156 216.019531 11.089844 C 215.632812 11.640625 215.097656 12.085938 214.238281 13 C 215.332031 12.792969 215.9375 12.707031 216.527344 12.566406 C 221.996094 11.257812 227.464844 10.445312 233.054688 11.9375 C 236.363281 12.816406 239.328125 14.273438 241.867188 16.753906 C 250.210938 9.492188 259.636719 10.476562 269.496094 13.097656 C 268.210938 11.40625 267.089844 10.070312 266.128906 8.625 C 265.464844 7.621094 264.785156 6.453125 265.707031 5.25 C 266.460938 4.269531 267.898438 4.277344 269.492188 5.21875 C 271.703125 6.527344 273.539062 8.277344 274.730469 10.546875 C 275.304688 11.648438 275.445312 12.976562 275.851562 14.460938 C 278.648438 15.078125 281.761719 15.484375 284.855469 14.945312 C 288.527344 14.304688 292.164062 13.433594 295.773438 12.5 C 300.496094 11.277344 305.175781 9.898438 309.871094 8.578125 C 309.992188 8.546875 310.074219 8.378906 310.3125 8.125 C 309.136719 7.542969 307.945312 7.082031 306.898438 6.402344 C 305.699219 5.617188 304.4375 4.792969 303.539062 3.707031 C 302.128906 2.007812 303.027344 0.132812 305.214844 0.015625 C 306.105469 -0.0351562 307.066406 0.09375 307.902344 0.398438 C 311.511719 1.726562 314.355469 4.101562 316.71875 7.101562 C 317.105469 7.59375 317.632812 8.265625 318.148438 8.316406 C 323.59375 8.839844 328.730469 10.621094 333.921875 12.152344 C 335.058594 12.492188 335.738281 12.257812 336.53125 11.449219 C 338.640625 9.292969 341.140625 7.699219 344.035156 6.78125 C 345.933594 6.179688 347.347656 6.421875 347.777344 7.371094 C 348.195312 8.292969 347.402344 9.484375 345.433594 10.292969 C 342.902344 11.335938 340.28125 12.152344 337.699219 13.066406 C 342.277344 16.257812 359.941406 20.035156 366.160156 19.273438 C 367.484375 16.441406 368.5625 13.683594 370.039062 11.160156 C 370.808594 9.839844 372.210938 8.847656 373.453125 7.867188 C 374.253906 7.234375 375.449219 6.992188 376.167969 7.863281 C 376.667969 8.46875 377.042969 9.667969 376.777344 10.320312 C 376.132812 11.902344 375.199219 13.410156 374.167969 14.789062 C 373.003906 16.351562 371.605469 17.742188 370.402344 19.101562 C 374.675781 18.554688 379.105469 17.496094 383.441406 16.054688 C 389.15625 14.152344 394.820312 12.066406 400.84375 11.367188 C 401.921875 7.722656 403.976562 4.828125 406.796875 2.503906 C 407.65625 1.796875 408.71875 1.226562 409.78125 0.917969 C 410.355469 0.75 411.328125 1.085938 411.75 1.542969 C 412.074219 1.886719 412 2.851562 411.769531 3.402344 C 411.457031 4.152344 410.914062 4.863281 410.316406 5.425781 C 408.871094 6.785156 407.332031 8.042969 405.832031 9.34375 C 405.28125 9.824219 404.734375 10.308594 403.84375 11.097656 C 413.53125 11.117188 422.03125 14.578125 430.820312 16.710938 C 433.847656 17.445312 436.941406 17.902344 440.085938 18.503906 C 441.460938 15.671875 442.992188 13.203125 445.390625 11.484375 C 446.484375 10.703125 447.746094 10.097656 449.015625 9.652344 C 449.953125 9.324219 451.011719 9.464844 451.632812 10.5 C 452.25 11.523438 451.957031 12.558594 451.191406 13.214844 C 449.761719 14.445312 448.203125 15.546875 446.605469 16.554688 C 445.601562 17.1875 444.429688 17.554688 443.332031 18.039062 C 443.359375 18.207031 443.390625 18.375 443.417969 18.542969 C 445.769531 18.28125 448.164062 18.207031 450.464844 17.707031 C 453.816406 16.984375 457.160156 16.136719 460.398438 15.023438 C 467.75 12.5 475.035156 9.785156 482.351562 7.15625 C 482.753906 7.011719 483.195312 6.976562 483.574219 6.898438 C 483.675781 7.089844 483.730469 7.148438 483.734375 7.207031 C 483.738281 7.28125 483.722656 7.375 483.679688 7.425781 C 483.585938 7.542969 483.484375 7.679688 483.355469 7.734375 C 476.527344 10.746094 469.695312 13.753906 462.789062 16.910156 C 465.109375 16.769531 467.144531 17.546875 469.066406 18.71875 C 470.707031 19.71875 471.28125 21.398438 470.503906 23 C 470.019531 24 469.296875 24.484375 468.164062 24.496094 C 466.234375 24.523438 464.601562 23.734375 463.023438 22.78125 C 461.257812 21.714844 459.546875 20.550781 457.738281 19.570312 C 457.078125 19.214844 456.113281 18.976562 455.4375 19.179688 C 445.695312 22.074219 436.09375 21.222656 426.550781 18.273438 C 425.746094 18.027344 424.9375 17.800781 424.128906 17.585938 C 423.992188 17.550781 423.832031 17.609375 423.710938 17.621094 C 424.496094 18.847656 425.445312 20.015625 426.03125 21.339844 C 426.539062 22.492188 426.863281 23.828125 426.828125 25.074219 C 426.804688 25.910156 426.214844 27.09375 425.523438 27.46875 C 424.457031 28.046875 423.042969 27.910156 422.199219 26.792969 C 421.480469 25.839844 420.746094 24.765625 420.46875 23.636719 C 419.886719 21.28125 419.605469 18.855469 419.160156 16.21875 C 409.765625 12.921875 400.167969 12.648438 390.355469 16.378906 C 391.515625 17.058594 392.582031 17.625 393.578125 18.292969 C 394.269531 18.757812 394.914062 19.316406 395.496094 19.917969 C 396.179688 20.621094 396.492188 21.480469 395.964844 22.425781 C 395.421875 23.394531 394.570312 23.777344 393.464844 23.660156 C 389.703125 23.261719 386.628906 21.652344 384.292969 18.382812 C 375.558594 21.257812 366.597656 22.785156 357.347656 21.371094 C 356.4375 23.03125 355.628906 24.570312 354.761719 26.078125 C 353.96875 27.460938 352.648438 27.980469 351.128906 28.113281 C 349.90625 28.222656 348.863281 28.015625 348.238281 26.78125 C 347.632812 25.585938 348.273438 24.683594 348.949219 23.878906 C 349.472656 23.25 350.203125 22.785156 350.882812 22.300781 C 351.5625 21.820312 352.289062 21.402344 353.265625 20.785156 C 352.503906 20.550781 351.96875 20.390625 351.4375 20.222656 C 346.042969 18.550781 340.652344 16.875 335.257812 15.199219 C 333.148438 14.542969 331.015625 13.945312 328.9375 13.1875 C 327.875 12.800781 327.308594 13.15625 326.574219 13.882812 C 324.621094 15.8125 322.664062 17.769531 320.480469 19.417969 C 319.265625 20.339844 317.648438 20.957031 316.128906 21.195312 C 313.960938 21.539062 313.015625 20.023438 314.027344 18.035156 C 314.460938 17.179688 315.113281 16.292969 315.902344 15.789062 C 317.753906 14.609375 319.742188 13.640625 321.6875 12.617188 C 322.195312 12.351562 322.753906 12.195312 323.65625 11.84375 C 317.507812 10.148438 311.773438 10.316406 306.105469 11.878906 C 301.769531 13.078125 297.566406 14.800781 293.195312 15.835938 C 289.703125 16.664062 286.820312 17.71875 285.335938 21.390625 C 284.78125 22.753906 283.265625 23.792969 282.023438 24.773438 C 281.566406 25.132812 280.511719 25.140625 279.949219 24.867188 C 279.074219 24.4375 279.054688 23.429688 279.535156 22.660156 C 280.253906 21.511719 281.078125 20.421875 281.960938 19.394531 C 282.476562 18.789062 283.1875 18.347656 284.230469 17.488281 C 276.714844 17.953125 270.199219 15.570312 263.519531 14.136719 C 257.738281 12.894531 252.148438 13.222656 246.691406 15.550781 C 245.640625 16 244.496094 16.238281 243.46875 16.722656 C 242.40625 17.222656 241.503906 17.109375 240.414062 16.710938 C 237.558594 15.664062 234.675781 14.625 231.726562 13.894531 C 227.316406 12.796875 222.925781 13.535156 218.570312 14.519531 C 214.402344 15.460938 210.242188 16.441406 206.046875 17.234375 C 204.144531 17.59375 202.167969 17.535156 200.074219 17.679688" fill="currentColor"/></g></g></svg>