<?xml version="1.0" encoding="UTF-8"?><svg xmlns="http://www.w3.org/2000/svg" xmlns:xlink="http://www.w3.org/1999/xlink" height="1958.3" preserveAspectRatio="xMidYMid meet" version="1.0" viewBox="59.1 18.1 1853.4 1958.3" width="1853.4" zoomAndPan="magnify" fill="currentColor"><g><g id="change1_1"><path d="M101.4,1028.81c116.33-12.09,235.02-10.88,349.67,14.04c104.15,22.64,203.94,65.28,288.01,131.41 c76.38,60.09,139.79,138.53,174.81,229.74c33.95,88.4,38.4,186.96,12.45,278.08c-26.05,91.49-83.48,172.2-166.56,219.98 c-88.54,50.92-196.21,62.95-295.82,45.21c-95.25-16.96-184.15-62.27-253.81-129.46c-66.56-64.2-115.83-149.41-125.02-242.53 c-10.05-101.73,29.35-199.24,88.34-280.33c61.21-84.14,141.81-153.18,225.44-214.2c83.53-60.95,173.04-113.63,266.64-157.56 c94.58-44.39,193.4-79.71,294.59-105.73c100.69-25.89,203.74-42.52,307.49-49.37c103.68-6.84,208.02-4,311.12,8.99 c50.22,6.33,100.88,14.26,149.97,26.75c42.34,10.78,86.13,26.6,119.74,55.42c33.9,29.06,52.35,72.4,40.67,116.78 c-12.4,47.12-51.8,84.02-94.04,105.58c-81.37,41.52-183.91,30.98-262.34-12.07c-39.31-21.58-74.11-51.84-99.22-89.13 c-30.21-44.86-46.05-98.12-52.29-151.48c-6.41-54.79-3.67-110.27,2.42-164.96c6.32-56.82,16.15-113.24,29.21-168.9 c26.12-111.32,65.29-219.56,116.61-321.74c24.65-49.07,52.11-96.69,82.12-142.68c4.23-6.49-6.15-12.51-10.36-6.06 c-64.3,98.53-116.59,204.72-155.63,315.71c-38.94,110.71-64.91,226.33-75.97,343.2c-10.18,107.58-5.01,227.55,63.51,316.79 c55.59,72.39,145.21,115.9,236.02,119.1c90.82,3.2,198.29-39.54,229.24-132.49c14.09-42.3,3.27-87.69-25.9-120.86 c-29.41-33.44-72.34-53.02-114.02-66.23c-48.26-15.3-99.22-23.37-149.22-30.61c-53.22-7.7-106.8-12.77-160.52-15.14 c-107.47-4.74-215.31,1.27-321.67,17.25c-106.89,16.07-212.25,42.39-314.13,78.5c-101.33,35.91-199.32,81.43-291.86,136.18 c-92,54.43-180.4,117.68-258.28,191.09c-75.82,71.48-144.2,157.21-174.93,258.25c-28.77,94.57-17.52,194.49,29.51,281.17 c46.02,84.82,121.01,153.41,206.77,196.78c90.78,45.91,195.98,63.2,296.66,48.41c100.03-14.7,192.72-64.24,253.58-145.93 c57.2-76.79,83.64-174.69,80.43-269.82c-3.35-99.01-40.69-193.43-100.39-271.94c-60.88-80.07-142.56-143.56-233.23-186.6 c-106.94-50.76-225.44-73.42-343.22-77.4c-58.93-1.99-117.93,0.71-176.56,6.81C93.8,1017.6,93.72,1029.61,101.4,1028.81 L101.4,1028.81z"/></g></g></svg>