<?xml version="1.0" encoding="UTF-8"?><!DOCTYPE svg PUBLIC "-//W3C//DTD SVG 1.0//EN" "http://www.w3.org/TR/2001/REC-SVG-20010904/DTD/svg10.dtd" []><svg xmlns="http://www.w3.org/2000/svg" xmlns:xlink="http://www.w3.org/1999/xlink" height="624" preserveAspectRatio="xMidYMid meet" version="1.0" viewBox="224.6 168.9 566.7 624.3" width="567" zoomAndPan="magnify" fill="currentColor"><g id="change1_1"><path d="M 384 169.920 C 368.314 171.798, 357.002 176.041, 351.529 182.099 C 347.557 186.497, 346.789 191.826, 349.558 195.779 C 350.415 197.003, 350.836 198.456, 350.495 199.009 C 349.533 200.564, 344.940 202.698, 336.353 205.581 C 325.647 209.174, 321.534 211.413, 316.631 216.319 C 311.961 220.992, 308.687 227.264, 306.469 235.786 C 304.442 243.575, 303.021 244.538, 285.500 249.998 C 267.658 255.558, 255.076 264.041, 250.370 273.683 C 247.677 279.198, 247.530 280.201, 247.531 293 C 247.531 305.866, 247.664 306.753, 250.350 311.883 C 256.541 323.707, 273.092 337.600, 292.500 347.264 C 311.096 356.523, 337.908 363.439, 388.500 372.026 C 397.850 373.613, 407.975 375.428, 411 376.059 C 414.025 376.690, 419.155 377.722, 422.400 378.353 L 428.301 379.500 420.400 386.601 C 408.460 397.333, 406.173 399.181, 397.550 405.070 C 393.178 408.057, 387.103 412.786, 384.050 415.580 C 380.998 418.373, 377.150 421.394, 375.500 422.292 C 370.826 424.837, 359.675 425.763, 351 424.327 C 333.772 421.476, 327.352 420.950, 319.813 421.770 C 315.585 422.229, 312.352 422.239, 312.629 421.791 C 313.954 419.648, 325.760 413.193, 340.845 406.364 C 364.167 395.807, 374.154 390.497, 379.438 385.846 C 392.575 374.282, 377.568 377.877, 344.363 394.249 C 336.189 398.279, 326.575 402.855, 323 404.417 C 319.425 405.979, 314.475 408.163, 312 409.271 C 307.852 411.127, 298.070 414.891, 279 421.971 C 255.526 430.685, 242.883 436.351, 238.705 440.028 C 228.137 449.331, 224.650 468.264, 228.580 495 C 229.763 503.043, 230.051 512.170, 229.812 534 C 229.277 582.841, 229.602 594.357, 231.870 607 C 236.006 630.063, 237.818 669.782, 236.044 698.500 C 234.528 723.034, 234.335 757.839, 235.697 761 C 237.395 764.938, 245.717 772.537, 251.356 775.297 C 263.276 781.130, 274.232 783.389, 298.500 785.014 C 312.807 785.973, 321.594 787.011, 341.500 790.097 C 358.586 792.745, 365.525 793.210, 380 792.675 C 396.083 792.082, 400.405 791.372, 423 785.618 C 430.425 783.728, 440.550 781.687, 445.500 781.084 C 458.081 779.552, 490.648 778.003, 510.664 777.985 C 539.628 777.960, 561.464 776.037, 578.500 772.012 C 596.331 767.800, 608.446 766.031, 618 766.246 C 622.620 766.350, 624.380 765.829, 629 762.990 C 642.515 754.686, 654.287 743.380, 666.997 726.500 C 675.901 714.674, 686.422 703.284, 694.580 696.638 C 712.403 682.119, 721.267 674.121, 744.193 651.873 C 770.527 626.318, 777.806 617.987, 782.961 607.500 C 790.213 592.748, 791.325 584.909, 790.550 554 C 789.884 527.432, 788.839 516.477, 785.899 505.250 C 784.854 501.263, 783.134 494.738, 782.075 490.750 C 781.016 486.762, 778.770 476.525, 777.082 468 C 772.444 444.562, 772.285 443.669, 769.026 422.750 C 767.782 414.758, 766.401 401.937, 765.015 385.500 C 763.181 363.758, 761.936 352.731, 760.751 347.748 C 759.509 342.526, 754.780 336, 752.237 336 C 751.348 336, 747.455 334.087, 743.585 331.750 L 736.551 327.500 724.525 327.534 C 717.911 327.553, 709.688 328.115, 706.250 328.784 C 702.813 329.453, 697.188 330.480, 693.750 331.067 C 673.629 334.501, 646.210 342.367, 641.831 345.961 C 639.937 347.516, 639.707 348.215, 640.604 349.687 C 642.836 353.351, 654.513 353.420, 676 349.896 C 687.972 347.933, 699 347.413, 699 348.812 C 699 349.258, 695.963 352.049, 692.250 355.015 C 688.538 357.980, 679.840 366.165, 672.921 373.203 C 658.679 387.692, 660.173 387.086, 645 384.538 C 635.152 382.884, 630.104 381.887, 617 379.005 C 611.775 377.856, 601.650 375.775, 594.500 374.381 C 577.110 370.991, 572.737 369.852, 573.695 368.964 C 574.138 368.554, 579.225 366.774, 585 365.008 C 604.184 359.144, 610.412 356.887, 619.639 352.459 C 629.726 347.617, 644.035 337.392, 646.598 333.192 C 647.502 331.712, 650.100 329.132, 652.371 327.459 C 665.202 318.010, 667.838 292.047, 657.720 274.786 C 653.982 268.410, 644.369 259.784, 636.928 256.129 C 632.621 254.013, 627.127 252.381, 620.989 251.393 C 615.838 250.564, 611.258 249.659, 610.812 249.384 C 609.260 248.425, 610.015 242.904, 612.508 236.980 C 618.614 222.474, 619.872 213.166, 616.697 206 C 614.794 201.705, 608.030 195.123, 602 191.699 C 592.837 186.495, 575.968 180.477, 559.556 176.557 C 529.213 169.309, 504.977 171.776, 492.245 183.408 C 485.511 189.561, 482.803 194.885, 478.856 209.732 C 477.136 216.204, 475.321 221.946, 474.823 222.492 C 473.641 223.785, 472.809 222.398, 468.828 212.500 C 464.642 202.092, 460.523 195.802, 453.339 188.847 C 444.411 180.203, 434.163 174.673, 421 171.395 C 414.259 169.717, 392.832 168.862, 384 169.920 M 372.379 187.437 C 369.275 188.787, 364 194.681, 364 196.797 C 364 198.032, 370.123 199.986, 374.020 199.994 C 378.067 200.003, 390.955 203.884, 398 207.215 C 417.861 216.605, 435.965 233.602, 444.010 250.414 C 445.612 253.761, 447.818 260.550, 448.912 265.500 C 450.737 273.754, 457.679 296.906, 458.639 297.940 C 459.564 298.937, 461.886 295.040, 464.857 287.500 C 466.592 283.100, 468.011 279.050, 468.010 278.500 C 468.010 277.950, 464.222 269.850, 459.593 260.500 C 454.963 251.150, 447.527 235.934, 443.069 226.687 C 433.908 207.687, 429.521 202.067, 419.459 196.440 C 404.067 187.832, 381.421 183.501, 372.379 187.437 M 520 195.191 C 506.600 196.857, 495.672 203.703, 493.172 212 C 492.592 213.925, 491.622 219.184, 491.017 223.686 C 490.411 228.189, 488.555 235.839, 486.891 240.686 C 483.565 250.376, 483.442 255.372, 485.985 277.500 C 486.618 283, 487.442 294.018, 487.817 301.985 L 488.500 316.471 491.630 311.485 C 493.351 308.743, 497.743 300.650, 501.389 293.500 C 509.068 278.442, 516.192 268.489, 523.403 262.745 C 533.466 254.728, 553.320 247.148, 568.500 245.528 C 576.798 244.642, 580.245 243.403, 583.248 240.227 C 587.001 236.258, 588.316 230.069, 587.543 220.024 C 586.500 206.483, 586.223 205.560, 582.674 203.793 C 574.949 199.949, 561.083 196.739, 544.789 195.023 C 533.752 193.860, 530.524 193.882, 520 195.191 M 345.405 225.830 C 337.993 230.639, 332 237.192, 332 240.489 C 332 243.655, 335.984 245.422, 346.693 247.004 C 361.995 249.266, 379.774 254.703, 391.250 260.631 C 392.762 261.412, 394 261.724, 394 261.323 C 394 260.922, 388.474 254.948, 381.720 248.047 C 374.967 241.146, 366.657 232.463, 363.255 228.750 C 355.772 220.586, 353.950 220.288, 345.405 225.830 M 386.149 233.750 C 390.272 238.012, 397.951 246.941, 403.214 253.592 C 408.477 260.242, 414.069 266.700, 415.641 267.942 C 418.454 270.164, 418.505 270.167, 418.810 268.174 C 419.332 264.762, 413.228 251.684, 408.204 245.448 C 405.589 242.202, 401.211 237.839, 398.475 235.752 C 392.986 231.568, 382.535 226, 380.167 226 C 379.330 226, 382.005 229.465, 386.149 233.750 M 289.500 257.673 C 285.126 258.639, 276.275 262.504, 272.316 265.179 C 262.953 271.504, 261.715 277.780, 267.536 289.425 C 277.194 308.749, 294.551 322.849, 318.500 330.827 C 336.973 336.981, 360.155 341.472, 379 342.548 C 394.411 343.428, 394.131 343.223, 360.550 329.027 C 337.738 319.384, 323.078 310.570, 316.944 302.810 C 311.984 296.535, 307.670 285.848, 304.590 272.207 C 301.265 257.474, 300.969 256.971, 295.715 257.116 C 293.397 257.180, 290.600 257.431, 289.500 257.673 M 326.590 263.206 C 326.785 265.568, 327.125 270.479, 327.346 274.120 C 327.696 279.868, 328.283 281.526, 331.804 286.711 C 344.405 305.267, 371.597 322.345, 401.500 330.483 C 408.537 332.399, 418.235 333.264, 419.921 332.128 C 421.674 330.947, 421.086 329.963, 409.173 314.166 C 398.653 300.215, 385.033 285.699, 376.173 278.995 C 363.977 269.766, 344.467 261.389, 330.868 259.542 L 326.236 258.913 326.590 263.206 M 568.500 263.125 C 543.634 271.144, 526.545 287.217, 514.094 314.295 C 509.669 323.918, 505.498 336.831, 506.493 337.826 C 507.558 338.891, 521.711 331.063, 529.321 325.200 C 541.345 315.935, 547.834 309.942, 554.941 301.536 C 567.552 286.623, 576 272.170, 576 265.511 C 576 262.513, 575.671 262.012, 573.750 262.079 C 572.513 262.122, 570.150 262.593, 568.500 263.125 M 603.516 269.750 C 597.357 286.412, 576.010 312.828, 554.183 330.795 C 548.367 335.583, 542.009 340.950, 540.054 342.723 L 536.500 345.946 539.188 345.973 C 546.881 346.050, 581.789 335.534, 599.438 327.821 C 615.573 320.770, 630.943 309.878, 634.521 302.959 C 637.013 298.140, 637.840 292.388, 636.765 287.348 C 635.062 279.359, 625.203 271.022, 612.124 266.510 C 605.850 264.345, 605.460 264.492, 603.516 269.750 M 728.500 348.873 C 721.458 352.094, 703.956 365.938, 692.303 377.505 L 680.994 388.731 682.431 392.804 C 685.070 400.283, 689.123 422.859, 695.035 463 C 698.244 484.790, 698.548 486.742, 703.910 520 C 709.240 553.057, 710.673 564.491, 713.001 592.500 C 714.365 608.907, 715.712 619.592, 717.540 628.500 C 719.744 639.244, 720.518 641.476, 722.146 641.790 C 723.758 642.100, 745.159 623.131, 751.379 615.880 C 762.059 603.428, 771.942 584.971, 774.128 573.391 C 775.330 567.026, 774.748 544.421, 773.140 535 C 771.381 524.700, 766.457 492.122, 765.052 481.500 C 760.852 449.719, 759.834 444.279, 753.365 419 C 747.204 394.929, 745.037 383.529, 743.955 369.500 C 742.874 355.482, 742.313 352.304, 740.379 349.250 C 738.601 346.443, 734.125 346.301, 728.500 348.873 M 482 388.780 C 482 389.209, 474.179 397.686, 464.621 407.619 C 455.063 417.552, 446.747 426.604, 446.142 427.735 C 443.597 432.490, 448.813 432.900, 474.860 429.990 C 482.720 429.112, 489.837 429.114, 504.360 429.999 C 514.887 430.641, 533.625 431.557, 546 432.035 C 572.303 433.051, 576.895 433.866, 588.627 439.606 L 594.216 442.340 607.608 428.847 C 614.974 421.426, 621 414.577, 621 413.626 C 621 412.588, 619.566 411.299, 617.405 410.396 C 610.373 407.458, 587.651 403.488, 563.500 400.979 C 550.229 399.600, 539.686 397.856, 527 394.943 C 510.942 391.255, 509.860 391.056, 497.500 389.514 C 483.687 387.791, 482 387.711, 482 388.780 M 648.500 419.164 C 647.400 419.770, 641.100 425.513, 634.500 431.926 C 627.900 438.338, 618.973 446.734, 614.662 450.582 L 606.824 457.579 610.336 483.039 C 612.268 497.043, 614.143 511.650, 614.502 515.500 C 614.861 519.350, 615.546 526.325, 616.025 531 C 616.504 535.675, 617.833 548.725, 618.980 560 C 620.127 571.275, 621.461 582.975, 621.945 586 C 623.046 592.885, 625.435 609.591, 627.068 621.829 C 628.336 631.336, 628.306 633.623, 626.011 702.500 C 625.038 731.709, 625.345 737.948, 627.799 738.766 C 628.453 738.984, 636.304 731.785, 645.244 722.768 C 655.109 712.818, 664.379 704.464, 668.823 701.517 C 677.003 696.094, 685.848 686.853, 691.006 678.343 C 694.240 673.006, 694.421 672.223, 694.332 663.950 C 694.213 652.966, 693.796 649.915, 684.015 588.500 C 682.142 576.741, 678.982 554.888, 677 540 C 674.796 523.437, 671.795 503.038, 670.381 495 C 667.530 478.791, 667.112 476.458, 665.545 468 C 664.680 463.325, 663.496 457.475, 662.916 455 C 662.335 452.525, 661.381 448.475, 660.796 446 C 658.256 435.257, 652.291 417.976, 651.141 418.030 C 650.789 418.047, 649.600 418.557, 648.500 419.164 M 319 437.085 C 308.740 439.285, 298.702 442.272, 284.500 447.353 C 280.650 448.731, 273.225 450.841, 268 452.043 C 262.775 453.245, 256.700 454.808, 254.500 455.516 L 250.500 456.804 250.518 470.652 C 250.528 478.268, 251.089 489.225, 251.765 495 C 256.611 536.421, 257.297 546.581, 256.631 567 C 256.299 577.175, 255.336 590.225, 254.490 596 C 250.974 620.019, 250.852 635.360, 253.988 659.500 C 257.354 685.406, 258 695.674, 258 723.229 C 258 763.853, 257.951 763.740, 276.194 765.066 C 283.005 765.560, 289.526 766.648, 292.597 767.801 C 303.294 771.819, 309.286 772.292, 331.156 770.846 C 342.345 770.105, 354.875 769.530, 359 769.566 L 366.500 769.632 366.167 718.066 C 365.798 661.051, 366.419 648.856, 371.130 620.500 C 375.070 596.789, 375.691 580.712, 373.642 555.500 C 372.113 536.681, 370.858 511.829, 369.449 472.500 C 368.897 457.094, 369.546 447.142, 371.544 440.364 C 372.154 438.295, 371.814 438.207, 360.837 437.587 C 338.360 436.318, 323.416 436.138, 319 437.085 M 531 441.063 C 525.225 441.491, 515.601 442.394, 509.613 443.070 C 499.086 444.258, 455.945 443.762, 446.872 442.349 L 443.244 441.783 443.718 483.642 C 444.109 518.244, 443.906 528.013, 442.546 540 C 437.725 582.510, 436.853 608.301, 439.501 630 C 440.273 636.325, 441.687 650.950, 442.642 662.500 C 444.200 681.335, 444.240 685.633, 443.029 704.188 C 441.742 723.926, 442.081 760.228, 443.604 765.725 C 444.021 767.232, 445.235 768.131, 447.360 768.509 C 453.641 769.627, 505.275 768.153, 514 766.607 C 518.675 765.779, 526.775 764.400, 532 763.542 C 537.225 762.684, 543.750 761.575, 546.500 761.078 C 549.250 760.581, 554.425 759.651, 558 759.012 C 561.575 758.372, 566.525 757.416, 569 756.886 C 571.475 756.357, 579.575 755.351, 587 754.652 C 594.425 753.953, 601.551 752.809, 602.835 752.110 C 608.330 749.119, 608.473 747.734, 608.810 694.273 C 609.163 638.171, 608.443 622.720, 603.974 590.500 C 603.364 586.100, 602.490 579.800, 602.031 576.500 C 601.573 573.200, 600.078 563.975, 598.708 556 C 597.339 548.025, 595.693 537.900, 595.050 533.500 C 593.663 524.007, 592.480 516.158, 590.929 506.167 C 590.303 502.133, 589.671 491.333, 589.524 482.167 C 589.231 463.879, 588.647 459.325, 585.887 453.834 C 583.611 449.304, 580.248 446.873, 572.500 444.156 C 561.512 440.303, 551.409 439.550, 531 441.063" fill-rule="evenodd"/></g></svg>