<?xml version="1.0" encoding="UTF-8"?><svg fill="currentColor" xmlns="http://www.w3.org/2000/svg" xmlns:xlink="http://www.w3.org/1999/xlink" height="224.3" preserveAspectRatio="xMidYMid meet" version="1.0" viewBox="-0.2 -0.2 271.1 224.3" width="271.1" zoomAndPan="magnify"><g id="change1_1"><path d="M270.7975,168.3203c-0.2046-1.0321-0.4663-2.0563-0.6987-3.0825c-0.2207-0.9731-0.375-1.9946-0.6689-2.9485 c-0.2241-0.7279-0.895-1.3849-1.3657-1.9757c-0.79-0.9906-1.5806-1.9813-2.3706-2.9719c-0.4238-0.5317-0.7476-0.963-1.3354-1.31 c-1.6758-0.9883-3.4443-1.8437-5.1597-2.762c-1.3276-0.7109-2.5527,0.405-2.6279,1.5405c-0.1626,0.5254-0.064,1.1189,0.4736,1.6152 c1.6602,1.532,3.3198,3.064,4.98,4.5959c0.1064,1.4164,0.2124,2.8328,0.3188,4.2492c0.0469,0.626-0.0918,1.7311,0.1729,2.306 c0.0068,0.0145,0.0112,0.0144,0.0171,0.024c-0.0459,0.2927-0.0884,0.586-0.1328,0.8788c-0.1636,1.0822-0.3271,2.1644-0.4907,3.2466 c-0.0752,0.4977-0.1504,0.9955-0.2256,1.4932c-0.0308,0.2018-0.231,0.77-0.1445,0.9575c0.0044,0.0101,0.0107,0.0079,0.0161,0.0117 c-0.1279,0.2885-0.2534,0.5779-0.3799,0.8668c-0.4341,0.9898-0.8677,1.9796-1.3013,2.9694 c-0.4985,1.1373-0.8984,2.1958-1.6431,3.1799c-1.1812,1.5612-2.3726,3.1152-3.5435,4.684c-0.2061,0.2291-0.3901,0.483-0.5835,0.7222 c-0.6797,0.8414-1.3594,1.6828-2.0386,2.5242c-0.7915,0.9801-1.52,1.9695-2.4551,2.8109c-2.4321,2.1883-4.8501,4.3803-7.3555,6.4836 c-0.8474,0.7114-1.6948,1.4228-2.5422,2.1342c-0.2942,0.2469-0.5906,0.4916-0.8826,0.7409 c-0.0396,0.0337-0.0615,0.0483-0.093,0.0728c0.0376-0.0232,0.0613-0.0401,0.1138-0.0696c-0.0398,0.0224-0.0779,0.0497-0.1174,0.0725 c-0.1553,0.1207-0.2126,0.1409-0.1108,0.0685c-1.4714,0.8638-2.8511,1.9871-4.2495,2.9536 c-2.6064,1.8013-5.1709,3.6607-7.7449,5.5084c-0.1091,0.0785-0.3176,0.1783-0.4343,0.2895c0.1558-0.123,0.4253-0.1268-0.1162,0.0936 c-0.9136,0.3718-1.8262,0.746-2.739,1.1191c-1.2468,0.5094-2.4741,1.0322-3.7546,1.4465c-1.6519,0.5345-3.302,1.1719-4.9817,1.6118 c-1.6785,0.4396-3.4285,0.6927-5.1292,1.0363c-0.2539,0.0513-0.5317,0.088-0.7896,0.1541 c-0.0391-0.0056-0.0837-0.0115-0.1504-0.0181c-0.9324-0.0926-1.8865-0.0856-2.8225-0.1281 c-0.9294-0.0422-1.8611-0.107-2.7915-0.1269c-0.1113-0.131-0.7454-0.2854-0.8804-0.3391c-1.0017-0.3972-2.0032-0.7943-3.0046-1.1914 c-0.4121-0.1634-0.9819-0.5067-1.491-0.6746c-0.0249-0.0233-0.0569-0.0524-0.0713-0.0685c-0.3066-0.3391-0.6133-0.678-0.9202-1.0171 c-0.7339-0.8114-1.4678-1.6229-2.2017-2.4343c-0.1489-0.1645-0.3047-0.3614-0.4692-0.5346 c-0.2446-0.6945-0.5486-1.3776-0.8181-2.0597c-0.4075-1.032-0.8152-2.064-1.2229-3.0959c-0.0557-0.1411-0.4331-1.3916-0.6484-1.7678 c0.0273-0.2064,0.0518-0.4133,0.0811-0.6171c0.1543-1.0745,0.3086-2.149,0.4626-3.2234c0.1394-0.9714,0.2791-1.9428,0.4185-2.9142 c0.0239-0.1671,0.1199-0.4449,0.0972-0.6262c0.2476-0.4658,0.4822-0.939,0.7214-1.4096c0.5923-1.119,1.1848-2.238,1.7773-3.357 c0.2534-0.4785,0.5068-0.957,0.7603-1.4356c0.0894-0.1691,0.4395-0.6119,0.4302-0.8126c-0.0002-0.0068-0.0071-0.0034-0.0146,0.0013 c0.248-0.3134,0.4949-0.6277,0.7422-0.9416c0.0881-0.1118,0.1763-0.2236,0.2644-0.3354c2.0581-2.2791,4.0967-4.5536,6.2996-6.6963 c0.6221-0.6052,1.2551-1.1987,1.8801-1.8008c0.365-0.3115,0.7239-0.6288,1.0715-0.9554c0.4834-0.4539,0.9478-0.9326,1.4065-1.418 c1.0154-0.9692,2.0227-1.9468,3.0415-2.913c1.0002-0.9483,2.1282-1.7628,3.2051-2.6213c0.7542-0.6013,1.5103-1.2,2.2622-1.8037 c0.0073-0.0058,0.0095-0.0067,0.0166-0.0121c-0.0149,0.0085-0.0203,0.0132-0.0366,0.0223c0.0181-0.01,0.0349-0.0237,0.0527-0.0342 c0.1716-0.134,0.2385-0.1658,0.2029-0.1318c0.1401-0.097,0.2781-0.1982,0.416-0.2923c1.8821-1.2842,3.7791-2.5422,5.6731-3.8055 c3.1633-1.8892,6.3225-3.5719,9.6677-5.1371c1.3972-0.6538,2.7988-1.2969,4.2019-1.9379c1.0601-0.4842,2.1199-0.9683,3.1799-1.4525 c0.2468-0.1127,0.897-0.3132,0.0894-0.0533c0.312-0.1004,0.6172-0.236,0.9231-0.3529c1.8035-0.6895,3.6069-1.379,5.4104-2.0685 c0.4424-0.1693,0.7429-0.4585,0.9329-0.7964c0.2478-0.2717,0.4182-0.6323,0.4421-1.0919c0.0493-0.9368,0.0862-1.8765,0.1262-2.8157 c0.1892-1.3433,0.3818-2.6862,0.5613-4.0308c0.1563-1.1708,0.1753-2.3636,0.2446-3.5421c0.072-1.2225,0.3594-2.6608,0.26-3.9081 c0.0132-0.1104,0.0278-0.2209,0.0408-0.3314c0.0693-0.5953,0.1296-1.1891,0.1946-1.7837c0.0388-0.2803,0.0779-0.5607,0.1167-0.8411 c0.1924-1.387,0.387-2.7736,0.5769-4.1609c0.2764-2.0176,0.3579-4.1633,0.3647-6.2418c0.043-0.5027,0.0864-1.0043,0.1294-1.5078 c0.0732-0.8541,0.1602-1.7078,0.2456-2.5615c0.2109-1.3956,0.4263-2.7907,0.6313-4.1873c0.292-1.9912,0.3911-4.0219,0.5161-6.0385 c0.0586-0.5116,0.1196-1.0234,0.1763-1.5349c0.0488-0.4382,0.0903-0.8774,0.1362-1.316c0.0308-0.1966,0.0605-0.3937,0.0942-0.588 c0.2793-1.5912,0.5586-3.1824,0.8379-4.7736c0.4307-2.4544,0.312-5.0355,0.4019-7.5203c0.0269-0.7381,0.0732-1.4774,0.1274-2.2171 c0.2222-1.598,0.4443-3.1959,0.6665-4.7938c0.335-2.4118,0.5654-4.8382,0.8315-7.2584c0.0386-0.3499,0.0825-0.7012,0.1157-1.0524 c0.0044-0.0206,0.0088-0.0413,0.0137-0.0645c-0.0352,0.5625,0.0425-0.0663,0.1006-0.4989c0.0254-0.1274,0.0469-0.2371,0.0581-0.2896 c0.3379-1.6257,0.6763-3.2513,1.0146-4.877c0.3608-1.7344,0.5215-3.4998,0.668-5.2661c0.0898-0.6121,0.1802-1.2242,0.272-1.836 c0.3145-2.0967,0.5493-4.2028,0.7891-6.309c0.0371-0.2268,0.0742-0.4537,0.1113-0.6805c0.2134-1.3048,0.3799-2.6127,0.5303-3.9231 c1.1489-0.0085,2.2979-0.017,3.4463-0.0256c1.6211-0.012,2.5347-2.512,0.8833-3.2611c-0.3267-0.1483-0.6538-0.2966-0.9805-0.4449 c0.2363-0.9788-0.3013-2.2425-1.6177-2.3561c-0.2695-0.0233-0.5391-0.0457-0.8086-0.0685c0.3394-2.6765,0.5815-5.3693,0.8281-8.0584 c0.1909-0.9877,0.3701-1.9783,0.5605-2.9638c0.4697-2.4344,0.7222-4.8198,0.9521-7.2911c0.0239-0.2566,0.0479-0.5132,0.0713-0.7698 c0.2002-1.1042,0.3857-2.2102,0.5469-3.3165c0.1802-0.9114,0.2856-1.8686,0.4585-2.7203c0.4487-2.2101,0.7031-4.3083,0.8779-6.528 c0.0239-0.1761,0.0449-0.3549,0.0723-0.5272c0.3857-2.4221,0.7163-4.8357,1.0103-7.2707c0.0488-0.4019,0.0972-0.8037,0.1455-1.2056 c0.1265-0.6627,0.2524-1.3254,0.3789-1.988c0.2261-1.1878-0.4951-2.1083-1.6875-2.2152c-0.606-0.0543-1.2114-0.0959-1.8174-0.1453 c-2.2544-0.3687-4.5229-0.7425-6.7949-0.6974c-0.9229,0.0183-1.8384,0.0294-2.7505,0.0345c-2.3916-0.147-4.7837-0.293-7.1772-0.4629 c-5.8425-0.4148-11.7407-0.9681-17.5996-1.0038c-1.6548-0.0101-3.3069,0.0281-4.9592,0.0519 c-1.4136-0.1481-2.8306-0.2473-4.2747-0.1901c-0.6091,0.0242-1.2256,0.065-1.8433,0.1049 c-2.1626-0.0746-4.3247-0.1563-6.4868-0.2456c-0.5947-0.0829-1.1885-0.1661-1.7764-0.2332 c-3.0786-0.351-6.0947-0.0203-9.1902,0.0558c-0.8306,0.0204-1.6643,0.0215-2.4988,0.0155 c-1.8318-0.1927-3.6631-0.4768-5.4963-0.4269c-3.2048,0.0874-6.3518,0.2024-9.5486-0.0022 c-3.3884-0.2169-6.6577-0.2232-10.0552-0.1423c-2.4292,0.0577-4.8616,0.2598-7.2913,0.329 c-0.4768-0.0091-0.9536-0.0162-1.4297-0.0326c-2.7573-0.0952-5.5398-0.5877-8.2954-0.3792 c-0.4939,0.0374-0.9844,0.0718-1.4758,0.1074c-6.0771,0.0138-12.1389,0.2262-18.2183,0.1201 c-1.3198-0.023-2.6343,0.0997-3.948,0.2413c-1.4248-0.0873-2.8494-0.1862-4.2754-0.1998c-2.925-0.0281-5.8906,0.0414-8.8049,0.3049 c-0.918,0.0829-1.8406,0.1906-2.7639,0.2861c-1.6072,0.06-3.2141,0.124-4.8201,0.1951c-0.8301-0.0329-1.6609-0.0826-2.4829-0.1066 c-3.1873-0.0932-6.3049,0.1789-9.4878,0.4083c-1.6052,0.1157-3.2134,0.1658-4.8223,0.1959 c-1.0544-0.0715-2.1084-0.1245-3.158-0.0724c-0.8115,0.0403-1.6208,0.0963-2.4292,0.1578c-2.3132,0.0508-4.6238,0.1541-6.926,0.4384 c-0.0176,0.0022-0.0352,0.0043-0.0527,0.0065c-1.5916,0.0317-3.1831,0.0634-4.7747,0.095 c-0.8308,0.0165-1.3535,0.5055-1.5715,1.1121c-0.1819,0.2496-0.3086,0.5562-0.3359,0.9308 c-0.2422,3.3107-0.4536,6.623-0.6465,9.9363c-0.2017,1.1141-0.4092,2.2274-0.5957,3.3438 c-0.3806,2.2785-0.3811,4.6528-0.5405,6.9551c-0.1499,2.1609-0.2886,4.3226-0.4314,6.4839 c-0.2539,3.84-0.7288,7.6622-1.1982,11.4841c-0.478,0.0339-0.9551,0.0775-1.436,0.0875c-1.7349,0.0361-3.4697,0.0723-5.2046,0.1084 c-2.1682,0.0451-2.2471,3.2897-0.2288,3.4821c0.2239,0.5837,0.7407,1.0385,1.5593,1.0261c1.5867-0.024,3.1743-0.0291,4.7607-0.0598 c-0.3308,2.9549-0.6072,5.9135-0.7183,8.8845c-0.0798,2.1283-0.1458,4.2217-0.3943,6.3348 c-0.2495,2.1242-0.5669,4.2381-0.6343,6.3762c-0.0681,2.1599-0.0337,4.3453-0.2649,6.4952 c-0.2327,2.1628-0.6082,4.3579-0.6702,6.5323c-0.1304,4.5827-0.0525,9.1664-0.2263,13.7502 c-0.0869,2.2902-0.2803,4.5793-0.3337,6.8705c-0.0522,2.2311,0.0745,4.478,0.1172,6.7095 c0.0837,4.3445,0.2065,8.6785,0.3979,13.0194c0.0925,2.092,0.051,4.1805,0.0376,6.2747c-0.0134,2.1151,0.207,4.0757,0.4731,6.181 c0.1318,1.0434,0.2637,2.0868,0.3958,3.1302c0.0093,0.0741,0.0269,0.1451,0.0422,0.2171c0.0132,0.3282,0.1047,0.6037,0.2612,0.8194 c0.1235,0.2415,0.3027,0.4673,0.563,0.6555c1.4934,1.0798,2.9868,2.1597,4.4805,3.2396c0.4155,0.3005,0.8801,0.7439,1.354,1.0471 c0.0032,0.0063,0.0049,0.0087,0.0081,0.0153c0.1865,0.3873,0.4072,0.762,0.6096,1.1411c0.5784,1.0824,1.1567,2.1648,1.7349,3.2473 c0.3096,0.5789,0.5823,1.2831,0.9617,1.837c0.0105,0.0383,0.0205,0.061,0.0305,0.1177c0.0754,0.4266,0.2043,0.8511,0.3057,1.2722 c0.2773,1.1545,0.5547,2.3091,0.832,3.4637c0.1563,0.6499,0.2275,1.5319,0.4927,2.1854c-0.0461,0.2955-0.0835,0.5938-0.1274,0.8873 c-0.2986,1.9982-0.4954,4.0433-0.9004,6.0227c-0.3184,1.556-0.8857,3.0961-1.3284,4.6212 c-0.2532,0.8725-0.5911,1.7612-0.7698,2.6527c-0.0007,0.0034-0.0005,0.0038-0.001,0.0071 c-0.1772,0.2479-0.3091,0.5723-0.4509,0.8311c-1.0054,1.8337-1.9541,3.7136-3.0217,5.5116 c-0.7568,1.2742-1.8071,2.4177-2.7114,3.5898c-0.6133,0.795-1.2266,1.5899-1.8398,2.3849 c-0.0098,0.0126-0.0232,0.0292-0.0352,0.0442c0.0049-0.0057,0.0068-0.0081,0.0117-0.014c-0.1528,0.1825-0.2966,0.373-0.4448,0.5592 c-0.5818,0.7311-1.1636,1.4623-1.7451,2.1934c-0.2153,0.2054-0.4307,0.4108-0.646,0.6163c-1.0498,1.0012-2.0791,2.0129-3.1882,2.947 c-1.4785,1.2454-3.1726,2.4264-4.5593,3.7961c-0.1768,0.1224-0.3508,0.249-0.5288,0.3696c-1.79,1.2133-3.5818,2.4239-5.3728,3.6358 c-1.113,0.7531-2.3667,1.2814-3.5676,1.8801c-0.2983,0.1486-0.5964,0.2972-0.8945,0.4459 c-0.8862,0.3618-1.7747,0.7175-2.6711,1.0466c-1.926,0.707-3.8931,1.3181-5.8364,1.976c-0.2708,0.0916-0.5579,0.1745-0.8337,0.2734 c-0.4385,0.1127-0.8779,0.2081-1.3198,0.2852c-0.6194,0.0739-1.2388,0.147-1.8579,0.2205c-1.6001,0.1899-3.252,0.5313-4.8647,0.5298 c-2.2573-0.002-4.5225-0.1382-6.7788-0.2072c-0.3057-0.0093-0.6125-0.0217-0.9189-0.0281c-0.675-0.2697-1.3655-0.5154-2.0305-0.7774 c-0.981-0.3863-1.9619-0.7726-2.9426-1.1589c0.0764,0.0635,0.1528,0.1359,0.2192,0.2285c-0.0664-0.0923-0.1733-0.1771-0.2856-0.2562 c-0.4333-0.1764-0.4067-0.2346-0.2302-0.1602c-0.0276-0.0195-0.0571-0.0394-0.0808-0.0583 c-0.9219-0.733-1.8435-1.4661-2.7651-2.1992c-0.4641-0.3691-1.1025-1.1057-1.6809-1.3843c-0.0352-0.066-0.074-0.1313-0.0999-0.1849 c-0.2166-0.4541-0.4331-0.9081-0.6499-1.3622c-0.4976-1.0424-0.9949-2.0847-1.4922-3.1271 c-0.1267-0.2651-0.2476-0.5379-0.3821-0.8005c-0.0007-0.04-0.0044-0.0953-0.0129-0.1738c-0.1072-0.9849-0.376-1.9783-0.561-2.9514 c-0.1843-0.9705-0.3521-1.946-0.5535-2.9131c0.0022-0.0006,0.0046,0.0043,0.0068,0.0017c0.1445-0.1634,0.1118-0.8539,0.1406-1.0732 c0.1501-1.146,0.3003-2.2919,0.4504-3.4379c0.0571-0.436,0.1143-0.8721,0.1714-1.3082c0.3376-0.4774,0.5527-1.3394,0.7664-1.804 c0.5095-1.1073,1.0193-2.2147,1.5288-3.322c0.5559-1.2079,1.1799-2.3491,1.8252-3.5139c0.7834-1.4139,1.4832-2.9398,2.3972-4.273 c1.1587-1.6902,2.5242-3.27,3.7766-4.8923c0.1235-0.16,0.248-0.3223,0.3733-0.4835c0.031-0.0145,0.113-0.0723,0.2827-0.1906 c0.8435-0.5889,1.6338-1.276,2.4446-1.9092c1.1606-0.9065,2.3308-1.8018,3.4756-2.7284c1.6233-1.3138,3.2546-2.6188,4.8704-3.9418 c0.0547-0.0449,0.0747-0.0604,0.1079-0.0869c-0.0415,0.0314-0.0889,0.0668-0.1404,0.1025c0.0598-0.0416,0.1167-0.0878,0.1755-0.131 c0.0779-0.062,0.0793-0.0618,0.0315-0.0235c0.176-0.1302,0.3513-0.262,0.5264-0.3926c0.9163-0.6834,1.8325-1.3668,2.7485-2.0502 c2.7019-2.0154,5.5459-3.9305,8.5183-5.528c2.6826-1.442,5.5977-2.5493,8.3853-3.7877c1.6538-0.7348,3.3076-1.4695,4.9614-2.2043 c0.9851-0.4376,1.0833-1.3571,0.6995-2.0977c-0.0469-0.8364-0.6033-1.6489-1.6807-1.6709 c-2.0503-0.0419-4.1006-0.0838-6.1509-0.1257c-1.7073-0.0349-3.2468,0.4279-4.9089,0.821 c-1.5742,0.3724-3.1763,0.6426-4.6719,1.2627c-1.9429,0.8054-3.8972,1.588-5.8301,2.4169 c-1.8391,0.7886-3.5156,2.2941-5.1619,3.4208c-1.2822,0.8778-2.5359,1.7897-3.7932,2.7034 c-1.3838,1.0056-2.9121,1.9323-4.134,3.1373c-1.5422,1.5209-3.1775,2.986-4.6443,4.5796c-2.292,2.4904-4.2722,5.3323-6.4285,7.95 c-1.1077,1.3447-2.3967,2.6514-3.2952,4.1494c-1.127,1.8788-2.2905,3.7761-3.3074,5.7164 c-0.8738,1.6672-1.4341,3.5564-2.1201,5.3063c-0.2874,0.733-0.689,1.4938-0.8298,2.2698c-0.1416,0.7805-0.1079,1.6198-0.1514,2.4089 c-0.1023,1.8516-0.4546,3.8538-0.1931,5.6967c0.3059,2.1567,0.5457,4.3434,0.9443,6.4846c0.3088,1.66,2.0576,3.2377,3.0654,4.5369 c0.6096,0.7858,1.176,1.6611,1.8538,2.3893c0.4226,0.4539,1.0269,0.7794,1.5381,1.1256c1.0715,0.7256,2.1428,1.4511,3.2144,2.1766 c0.6624,0.4487,1.3635,1.0896,2.1382,1.3414c1.8669,0.6068,3.9888,0.7881,5.9133,1.1684c0.8245,0.1629,1.6516,0.2891,2.4807,0.3941 c0.9526,0.3627,1.8774,0.6379,2.9832,0.6364c2.0388-0.0027,4.116,0.1138,6.1511-0.0082c1.7632-0.1057,3.5476-0.501,5.2939-0.7552 c0.3623-0.0527,0.7185-0.1288,1.0784-0.191c0.9058-0.121,1.7898-0.2831,2.6838-0.545c2.1196-0.4961,4.2102-1.1112,6.2891-1.8111 c1.3713-0.4616,2.6821-1.2271,3.9771-1.9064c0.5625-0.2196,1.1257-0.4235,1.6885-0.6486c0.6343-0.2537,1.3665-0.4586,1.9619-0.8006 c0.7061-0.4056,1.3569-0.9938,2.0129-1.4742c1.5317-1.1219,3.1243-2.191,4.5979-3.3896c0.1953-0.1588,0.3813-0.3259,0.5757-0.4855 c0.9019-0.6288,1.8064-1.2529,2.7031-1.8911c1.2168-0.8658,2.5249-1.6146,3.458-2.7875c0.6716-0.8442,1.3428-1.6888,2.0151-2.5325 c1.1294-1.0568,2.3225-2.0713,3.2256-3.3289c1.3167-1.8339,2.6765-3.6439,3.9534-5.5059c0.9517-1.3879,1.6655-2.9773,2.468-4.455 c0.7808-1.4381,1.5239-2.7161,1.9443-4.2929c0.5518-2.0708,1.2114-4.1412,1.6621-6.2365c0.3979-1.8513,0.6062-3.7642,0.9053-5.634 c0.1201-0.7523,0.311-1.5267,0.3599-2.2888c0.0522-0.811-0.2229-1.69-0.3765-2.4838c-0.373-1.9304-0.5566-4.0368-1.1436-5.9144 c-0.23-0.7357-0.7578-1.432-1.1362-2.092c-0.6453-1.1249-1.2905-2.2499-1.9355-3.3748c-0.3652-0.6367-0.6831-1.3729-1.1501-1.9442 c-0.509-0.6224-1.3647-1.0883-2.0085-1.5579c-1.3076-0.9541-2.6152-1.9083-3.9229-2.8624c0.0601-0.7447,0.1204-1.4893,0.1804-2.2339 c0.0977-1.2072,0.3752-2.5371,0.3047-3.7482c0.0139-0.0961,0.0303-0.1919,0.0452-0.2868c0.1055-0.6678,0.2109-1.3357,0.3162-2.0035 c0.2136-1.3531,0.4348-2.7052,0.6406-4.0595c0.3469-2.2836,0.3352-4.6475,0.4714-6.9515c0.1277-2.1591,0.2092-4.321,0.3086-6.4816 c0.1934-4.2062,0.2539-8.3969,0.5752-12.5967c0.3184-4.1584,0.0005-8.3088,0.1096-12.476 c0.1111-4.2437,0.2705-8.4844,0.5452-12.7213c0.1392-2.1455,0.4414-4.3344,0.3264-6.4844c-0.1155-2.1604-0.425-4.3997-0.3069-6.5602 c0.1235-2.2529,0.4604-4.4948,0.5723-6.7482c0.1091-2.2036,0.0742-4.4194,0.1147-6.6263c1.2932-0.1314,2.5959-0.2712,3.8789-0.2717 c1.6606-0.0006,3.3577,0.2494,5.0137,0.3744c1.2505,0.0944,2.3923,0.1741,3.6362,0.0781c1.9512-0.1508,3.9248-0.408,5.8813-0.4543 c2.7871-0.0659,5.5818,0.5663,8.3765,0.5591c6.9355-0.0177,13.864,0.0787,20.7974,0.1134c2.7017,0.0135,5.5259-0.6351,8.2053-0.2914 c2.0505,0.263,4.1013,0.5261,6.1519,0.7891c1.2917,0.1657,2.6138,0.0703,3.9138,0.0652c3.5151-0.014,6.9668,0.1642,10.4775,0.3802 c2.783,0.1713,5.5938,0.1493,8.3667,0.4235c3.1992,0.3163,6.3528,0.8817,9.5654,1.0466c3.5593,0.1828,7.1187,0.3611,10.6787,0.534 c3.2959,0.1601,6.5459,0.6222,9.8286,0.9496c2.7759,0.2769,5.5764,0.308,8.3569,0.5371c1.2476,0.1028,2.4939,0.2165,3.7412,0.3211 c-1.0549-0.0145-2.113-0.0422-3.1868-0.1044c-3.1943-0.1851-6.3337-0.1469-9.5359-0.0925c-2.7957,0.0474-5.5928,0.07-8.3882,0.1401 c-2.6697,0.067-5.3457,0.2789-8.0161,0.2391c-6.3281-0.0944-12.6162-0.0104-18.937,0.3172c-3.019,0.1565-6.0149-0.041-9.0366-0.1304 c-2.6118-0.0773-5.23,0.3204-7.8423,0.3146c-2.8967-0.0065-5.7832-0.2866-8.6782-0.1357c-3.229,0.1683-6.4038,0.2932-9.6353,0.2617 c-5.9714-0.0582-11.9346-0.2888-17.9077-0.1955c-5.7012,0.0891-11.4529,0.6651-17.1414,0.1936 c-1.5801-0.1309-3.1604-0.2619-4.7405-0.3929c-2.2449-0.186-2.2324,3.315,0,3.5c2.7275,0.2261,5.4985,0.6479,8.2368,0.5794 c3.1152-0.0779,6.23-0.1554,9.3445-0.2503c6.1941-0.1887,12.3618-0.1079,18.5557,0.0259c2.5769,0.0557,5.1802,0.1505,7.7556,0.0665 c2.9783-0.0972,5.9346-0.4022,8.9146-0.3123c3.2195,0.097,6.3472,0.1215,9.5625-0.0261c3.1738-0.1456,6.2903-0.0323,9.4683,0.0808 c2.7397,0.0975,5.4902-0.2427,8.2283-0.3428c2.7122-0.0992,5.4429-0.1791,8.157-0.1386c6.343,0.0947,12.6602-0.1366,19.002-0.2423 c2.9741-0.0496,5.9504-0.1494,8.9243-0.1508c2.606-0.0013,5.2107,0.4314,7.8157,0.4083c6.1614-0.0547,12.3071-0.6154,18.4709-0.6553 c3.1323-0.0203,6.2498,0.0775,9.3811,0.1761c2.7627,0.087,5.5532-0.0718,8.3135-0.1978c2.6887-0.1226,5.3813-0.4269,8.0735-0.4216 c2.2964,0.0045,4.5928,0.0011,6.8892-0.0055c-0.0508,0.3126-0.1045,0.6246-0.1533,0.9374c-0.1958,1.25-0.3491,2.5095-0.4888,3.7707 c-0.1724,1.0518-0.3442,2.1036-0.5166,3.1555c-0.2783,1.7018-0.4209,3.4301-0.5591,5.1552 c-0.1143,0.7626-0.228,1.5253-0.3433,2.2877c-0.3535,2.3332-0.8154,4.6529-1.2285,6.9761c-0.0137,0.077-0.0225,0.1551-0.0356,0.2322 c-0.8472,4.2402-1.1792,8.6469-1.6152,12.9602c-0.0503,0.3599-0.1001,0.7198-0.1499,1.0797 c-0.6692,4.814-0.9766,9.6957-1.4238,14.5355c-0.0308,0.3304-0.0715,0.6599-0.1035,0.9902 c-0.1267,0.9666-0.2212,1.9346-0.303,2.9051c-0.3181,2.9877-0.6511,5.9741-0.981,8.9603c-0.0325,0.2178-0.0657,0.4355-0.0984,0.6532 c-0.3044,2.0187-0.4419,3.9922-0.5376,6.0103c-0.239,2.8849-0.4651,5.7706-0.8032,8.6499 c-0.5493,4.6815-1.1399,9.3386-1.3872,14.0466c-0.0054,0.105-0.011,0.2099-0.0164,0.3149 c-0.0918,0.6581-0.1833,1.3164-0.2751,1.9745c-6.0054,2.3533-12.1501,4.6065-17.8494,7.6218 c-2.4856,1.3151-4.8162,3.0781-7.1443,4.6798c-1.251,0.7754-2.5022,1.5491-3.7461,2.3458 c-1.4038,0.8989-2.6865,1.9811-4.0027,3.0022c-1.2822,0.9949-2.4744,1.9097-3.5837,3.0837c-0.4619,0.4888-0.917,0.993-1.374,1.4965 c-1.073,1.0356-2.1218,2.0992-3.1816,3.1301c-0.0139,0.0134-0.0269,0.0272-0.0405,0.0406 c-1.3569,1.1401-2.7939,2.1937-4.0918,3.3975c-1.2153,1.1274-2.167,2.6599-3.1919,3.9601 c-0.3472,0.4404-0.7168,0.8795-1.0835,1.3229c-0.6729,0.7-1.3459,1.4225-1.7737,2.2695c-0.9534,1.8885-1.907,3.777-2.8606,5.6655 c-0.1162,0.2194-0.2324,0.4388-0.3484,0.6582c-0.0059,0.0108-0.009,0.0225-0.0149,0.0333c-0.1951,0.356-0.3931,0.7246-0.4961,1.0964 c-0.0037,0.0132-0.0054,0.0276-0.0088,0.0409c-0.457,1.2209-0.7207,2.5178-1.0632,3.7777 c-0.4453,1.6376-0.7026,3.1758-0.9324,4.8621c-0.1379,1.0116-0.2766,2.0231-0.4136,3.0348c-0.1138,0.84,0.1057,1.6495,0.2578,2.4778 c0.3015,1.6453,0.2939,3.8382,1.2656,5.2417c1.29,1.8633,2.7297,3.6387,4.0898,5.4518c1.0591,1.4117,2.7004,2.1406,4.1936,3.0483 c1.3938,0.8473,3.0134,2.2975,4.707,2.3176c2.2654,0.0268,4.5381-0.0652,6.8035-0.0977c1.6938-0.0243,3.4016-0.3843,5.0769-0.6135 c3.3853-0.4631,6.7229-1.2545,9.959-2.3796c2.0369-0.7082,4.0603-1.4835,6.0735-2.2566c1.7224-0.6613,3.3301-1.7097,4.9492-2.5852 c2.9392-1.5896,5.4609-3.6906,8.2253-5.5605c1.832-1.2393,3.7144-2.4043,5.5522-3.6349c1.449-0.9702,2.74-2.2075,4.074-3.3261 c1.1948-1.0015,2.3643-1.9963,3.4985-3.0637c1.4336-1.349,3.1548-2.6326,4.3511-4.2014c1.3115-1.7201,2.5908-3.466,3.8862-5.1987 c0.98-1.3112,1.5049-2.9384,2.1704-4.426c0.6602-1.4767,1.3218-2.9491,1.9336-4.4463c0.75-1.8342,1.7651-3.7147,2.2983-5.6236 c0.2114-0.7571,0.228-1.6287,0.3369-2.405c0.1777-1.2655,0.355-2.531,0.5327-3.7965 C270.7956,169.7495,270.9431,169.0504,270.7975,168.3203z M192.2045,194.9155c-0.0042,0.021-0.0024,0.0498-0.0078,0.0679 C192.1354,195.1087,192.0661,195.1814,192.2045,194.9155z M192.2009,194.9744c0.0015-0.0211,0.0056-0.0438,0.0063-0.0645 c0.0063-0.0121,0.0088-0.0179,0.0161-0.0314c0.0083-0.0157,0.0159-0.0319,0.0242-0.0475 C192.2424,194.8743,192.2241,194.9257,192.2009,194.9744z M144.3674,41.2282c-6.1299-0.2645-12.2183,0.2479-18.3416,0.2964 c-6.2925,0.0498-12.5693-0.3465-18.8645-0.2666c-6.7793,0.086-13.5605,0.2557-20.3359,0.4904 c-2.877,0.0997-5.7729-0.2184-8.6433-0.0677c-0.7844,0.0412-1.5649,0.1136-2.344,0.1996c0.0405-3.006,0.0596-6.0091,0.0105-9.0282 c-0.0703-4.3332,0.2146-8.6889,0.4341-13.0149c0.0889-1.751,0.179-3.5011,0.2734-5.251c0.0437-0.2457,0.0876-0.4915,0.1313-0.7372 c0.3831-2.1508,0.5139-4.2232,0.6228-6.4089c0.0242-0.4821,0.0481-0.9642,0.0723-1.4464c0.8145-0.1105,1.6296-0.2214,2.4458-0.3243 c1.4543-0.0265,2.9077-0.0737,4.3557-0.1891c1.0193-0.0812,2.0425-0.1854,3.0662-0.2764c1.6411-0.0496,3.2822-0.0971,4.9238-0.1375 c0.6343,0.0334,1.2681,0.0745,1.8965,0.0988c5.1077,0.1976,10.2393-0.2875,15.3557-0.5655c0.812,0.0355,1.6233,0.0551,2.4331,0.0219 c1.1501-0.0472,2.2957-0.1526,3.4407-0.2642c1.8765-0.0657,3.7534-0.1124,5.6313-0.0746c1.7485,0.0351,3.5254,0.1689,5.2734,0.1058 c1.4048-0.0506,2.8167-0.2234,4.22-0.3597c0.1248,0.0056,0.2471,0.0044,0.3721,0.0104c3.1719,0.152,6.3262,0.0668,9.502,0.0236 c2.6294-0.0358,5.2815,0.0919,7.9055-0.0673c1.6711-0.1014,3.3157-0.2507,4.9617-0.3433c1.53,0.0195,3.0596,0.0549,4.5901,0.127 c1.7778,0.0837,3.5168,0.1112,5.2573,0.0986c1.5325,0.0482,3.0649,0.0825,4.6108,0.0951c3.0127,0.0245,6.0283,0.1075,9.0408,0.0889 c1.8555-0.0115,3.7144-0.1459,5.5718-0.2c0.885,0.0577,1.77,0.0991,2.656,0.0749c0.4673-0.0128,0.9272-0.0226,1.3896-0.0338 c2.937,0.0969,5.866,0.1702,8.7939,0.1901c1.2144,0.1167,2.4409,0.2733,3.6565,0.278c1.9463,0.0074,3.8987-0.0922,5.8445-0.1382 c1.4072-0.0333,2.8152-0.0136,4.2234,0.033c1.3677,0.1854,2.7349,0.3895,4.1169,0.4423c1.0608,0.0405,2.1228-0.0197,3.1846-0.0917 c1.8242,0.0837,3.6487,0.1426,5.4727,0.1151c0.4197-0.0063,0.8372,0.0037,1.2563,0.001c2.7573,0.3143,5.4775,0.5791,8.2681,0.6796 c3.2815,0.1182,6.5635,0.2262,9.8452,0.3336c2.7095,0.0886,5.416,0.4037,8.1252,0.4454c1.4924,0.0229,2.9915-0.037,4.4866-0.0805 c1.6431,0.1075,3.2847,0.2258,4.9219,0.3726c0.6914,0.062,1.3833,0.124,2.0747,0.186c0.2378,0.0343,0.4761,0.0685,0.7139,0.1028 c-0.3398,1.6874-0.6851,3.3762-0.9517,5.0728c-0.1953,1.2427-0.2065,2.5283-0.2939,3.7814 c-0.0117,0.1692-0.0234,0.3383-0.0352,0.5074c-0.188,1.1653-0.3887,2.3298-0.5449,3.4996c-0.1494,1.1235-0.2803,2.2515-0.4155,3.379 c-0.2368,1.1253-0.4897,2.2507-0.6821,3.3829c-0.1963,1.1546-0.3472,2.3523-0.4653,3.5551c-0.001,0.0051-0.002,0.0103-0.0029,0.0154 c-0.2422,1.2402-0.5234,2.4796-0.728,3.7266c-0.3345,2.0433-0.4951,4.1319-0.6812,6.2035c-0.0596,0.3184-0.1245,0.636-0.1792,0.9551 c-0.4028,2.345-0.5918,4.7424-0.8564,7.1094c-1.4878-0.1301-2.9741-0.2696-4.4575-0.4371 c-1.6841-0.1902-3.4204-0.5191-5.1208-0.5971c-0.0261,0.0042-0.1663,0.0002-0.3501-0.0219 c-0.0071-0.0002-0.0142-0.0011-0.0212-0.0013c0.0054,0.0001,0.0083,0.0003,0.0134,0.0004c-0.0168-0.0021-0.032-0.0034-0.0493-0.0057 c-0.449-0.061-0.8977-0.1219-1.3467-0.1829c-1.1465-0.1557-2.293-0.3114-3.4395-0.4672c-3.1897-0.4333-6.4075-0.755-9.6204-0.9612 c-2.8804-0.1849-5.7739-0.1187-8.6465-0.4208c-3.5151-0.3697-7.0076-0.6942-10.5342-0.9262 c-3.2664-0.2148-6.5073-0.0668-9.7788-0.121c-6.2756-0.1041-12.5544-0.8926-18.8262-1.1765 c-3.3481-0.1516-6.696-0.3257-10.0452-0.4535c-2.759-0.1052-5.5261,0.0558-8.2866-0.0139 C158.0595,42.0005,151.2241,41.5241,144.3674,41.2282z M74.6127,143.5903C74.3815,143.3601,74.4108,143.2041,74.6127,143.5903 L74.6127,143.5903z M74.8574,143.7722c0.0012,0.0023,0.0027,0.0045,0.0037,0.0068c-0.0256-0.0154-0.051-0.0297-0.0742-0.0456 C74.8102,143.7468,74.8339,143.7596,74.8574,143.7722z M77.9596,149.8873C77.872,149.7235,77.9069,149.7015,77.9596,149.8873 L77.9596,149.8873z M23.7482,151.8499c-0.0203,0.0153-0.0396,0.0289-0.0566,0.0392 C23.7111,151.8773,23.7289,151.8621,23.7482,151.8499z M4.3598,193.3879c-0.0073-0.0089-0.0139-0.0182-0.0212-0.0271 C3.8928,192.8231,4.1735,193.098,4.3598,193.3879z M6.4274,196.0532c-0.6438-0.8297-1.27-1.6802-1.9333-2.4952 c-0.0093-0.236-0.1243-0.6036-0.1462-0.7551c-0.2788-1.9149-0.6304-3.836-0.8481-5.7604c0.0154,0.055,0.0117-0.1875,0.032-0.4006 c0.0483-0.5043,0.0562-1.0157,0.084-1.5216c0.0696-1.2559,0.1389-2.5118,0.2083-3.7677c0.022-0.3983,0.0605-0.7999,0.0662-1.1991 c0.0066-0.0076,0.0098-0.0062,0.0173-0.0164c0.5278-0.7216,0.7607-1.9412,1.0859-2.7707c0.426-1.0865,0.8521-2.1731,1.2778-3.2596 c0.0422-0.1076,0.2144-0.4455,0.2312-0.5029c0.0894-0.1409,0.1873-0.2976,0.2185-0.3517c0.5984-1.0341,1.1968-2.0683,1.7949-3.1024 c0.3784-0.6536,1.2739-1.6704,1.4014-2.4219c0.0002-0.0016-0.0015,0.0002-0.0015-0.001c0.2966-0.3531,0.5867-0.7122,0.8799-1.0682 c0.8015-0.973,1.603-1.9461,2.4045-2.9191c0.9282-1.127,1.8428-2.2634,2.7549-3.4034c1.0256-1.2816,1.9871-2.6699,3.1331-3.8464 c1.5149-1.555,3.1406-3.0043,4.6394-4.5746c0.0691-0.0724,0.1106-0.1163,0.1414-0.1491c0.2322-0.1599,0.457-0.3375,0.6821-0.5012 c0.9993-0.7261,1.9985-1.4521,2.9976-2.1782c1.1792-0.857,2.3613-1.6985,3.564-2.5219c1.0396-0.7116,2.0791-1.4232,3.1187-2.1348 c0.3296-0.2256,0.6904-0.4344,1.0012-0.6854c0.0737-0.0595,0.116-0.0981,0.1423-0.1259c1.9473-0.803,3.8916-1.6133,5.8374-2.42 c1.4573-0.6042,3.084-0.8339,4.6145-1.196c0.9053-0.2142,1.9358-0.3318,2.813-0.6583c0.0007,0.0001,0.0007,0.0002,0.0012,0.0003 c0.1282,0.02,0.2651,0.0174,0.3999,0.0212c-1.1016,0.4925-2.2061,0.9786-3.3054,1.4763c-1.4548,0.6586-3,1.2295-4.384,2.0277 c-1.8721,1.0793-3.6934,2.2593-5.5347,3.39c-2.5781,1.5829-5.012,3.5894-7.3657,5.4943c-2.9934,2.4227-5.9971,4.8229-9.0322,7.1932 c-0.5322,0.4156-1.1677,0.8034-1.6443,1.2842c-0.5266,0.5312-0.9553,1.2372-1.4102,1.8264 c-1.1077,1.4349-2.3679,2.8323-3.3528,4.3541c-1.8628,2.8781-3.3809,6.0576-4.813,9.1695c-0.7087,1.5399-1.7769,3.209-2.0005,4.9056 c-0.2671,2.0259-0.6836,4.0884-0.803,6.1275c-0.0964,1.6491,0.5725,3.5272,0.8787,5.1387c0.1306,0.6868,0.196,1.4319,0.3994,2.1016 c0.2344,0.7716,0.7046,1.5245,1.0493,2.2471c0.4868,1.0203,0.9739,2.0406,1.4607,3.0609c-0.2593-0.1785-0.5166-0.3644-0.7834-0.5305 c-0.0107-0.0266-0.02-0.0511-0.0449-0.0948C7.8508,197.6569,7.0485,196.8539,6.4274,196.0532z M71.8371,68.8466 c-0.2813,4.3388-0.5859,8.6823-0.7217,13.0287c-0.0698,2.2471-0.1753,4.5037-0.1743,6.7518 c0.0007,2.3234,0.2375,4.6588,0.1714,6.9808c-0.0654,2.2857-0.3906,4.5694-0.5232,6.8525 c-0.1294,2.2275-0.1287,4.4686-0.1897,6.6992c-0.0356,1.3075-0.0896,2.6148-0.1504,3.9221 c-0.0256-0.7244-0.054-1.4492-0.0688-2.1726c-0.0879-4.2223-0.1616-8.4023,0.0432-12.6202 c0.2024-4.1602,0.3096-8.3242,0.3362-12.4891c0.0137-2.1367,0.011-4.2172,0.239-6.3383c0.2288-2.1265,0.5171-4.2446,0.5845-6.3826 c0.0679-2.1581,0.0205-4.3483,0.2727-6.4943c0.0505-0.4299,0.1074-0.8609,0.1641-1.292 C71.8815,66.4766,71.914,67.6603,71.8371,68.8466z M184.6608,46.9132c-5.9856-0.6752-12.0701-0.3386-18.0469-1.092 c-0.51-0.0643-1.0156-0.1234-1.5225-0.1845c4.7959,0.0689,9.5891,0.1176,14.3857,0.3339 c6.1113,0.2756,12.2007,0.7087,18.3054,1.0905c6.2917,0.3934,12.5662,0.1229,18.8562,0.699 c3.2534,0.298,6.4688,0.7209,9.7339,0.8456c3.2715,0.1248,6.5024,0.3572,9.7598,0.6359c-4.0625,0.193-8.1226,0.3694-12.198,0.2869 c-3.3499-0.0678-6.7075-0.0101-10.0554-0.1151c-2.8191-0.0883-5.6438-0.5242-8.4561-0.7578 C198.4958,48.08,191.5685,47.6925,184.6608,46.9132z M190.895,211.4547c0.012,0.0327,0.019,0.0659,0.0117,0.0989 C190.913,211.5253,190.9028,211.4894,190.895,211.4547z M201.0261,220.5913c-0.0181,0.0014-0.0361,0.0013-0.054,0.0027 C200.412,220.6386,200.695,220.5241,201.0261,220.5913z M201.2775,220.6831c0.0562,0.0347,0.1074,0.0782,0.1479,0.1343 C201.3918,220.7706,201.3381,220.726,201.2775,220.6831z M266.3835,175.9129c-0.6382,2.0441-1.6494,4.0341-2.46,6.0169 c-0.0249,0.0607-0.1309,0.311-0.188,0.4484c-0.0752,0.1669-0.1714,0.3819-0.2002,0.4463c-0.4907,1.097-0.9814,2.194-1.4717,3.2909 c-0.6421,1.4352-1.1792,2.6453-2.1118,3.8925c-0.7607,1.0181-1.522,2.0361-2.2827,3.0542c-0.2808,0.3755-0.5615,0.751-0.8423,1.1266 c-0.0327,0.0438-0.0654,0.0878-0.0981,0.1315c-0.0005,0.0002,0-0.0007-0.0005-0.0005c-0.6807,0.3309-1.3638,1.2836-1.9121,1.7996 c-0.8936,0.8408-1.7876,1.6816-2.6812,2.5225c-1.1182,1.0522-2.3149,2.0128-3.4912,2.9991 c-0.8359,0.7008-1.6792,1.3939-2.5083,2.1028c-0.0129,0.0111-0.0193,0.0162-0.031,0.0261c0.0156-0.0096,0.031-0.0188,0.0432-0.0238 c-0.0171,0.007-0.0332,0.0219-0.05,0.0297c-0.2957,0.2506-0.1462,0.0989-0.0195,0.0115c-0.2859,0.1367-0.5657,0.3746-0.8237,0.5436 c-3.3057,2.1642-6.5256,4.3703-9.7234,6.6903c-1.2212,0.886-2.4473,1.5688-3.7798,2.2894c-1.0662,0.5767-2.1326,1.1534-3.199,1.7301 c-0.2297,0.1242-0.5264,0.2317-0.7314,0.3956c0.0425-0.034,0.061-0.0435,0.093-0.0663c-0.064,0.0327-0.1382,0.0685-0.2446,0.1081 c-1.9666,0.7307-3.9204,1.5245-5.9082,2.1951c-1.7078,0.5762-3.4883,0.9853-5.2246,1.4699 c-1.5051,0.4201-2.9377,0.6357-4.4922,0.8484c-1.165,0.1594-2.3298,0.3187-3.4946,0.4781 c-0.1492,0.0204-0.2983,0.0408-0.4473,0.0612c-0.3452,0.0471,0.2717-0.0588,0.3164-0.0434 c-0.2053-0.071-0.5818,0.0084-0.7925,0.0114c-2.1543,0.0309-4.3579-0.0708-6.5078,0.0881 c-0.1807-0.1005-0.3848-0.1899-0.5059-0.2635c-1.0359-0.6296-2.0715-1.2593-3.1074-1.8889 c-0.7766-0.4722-1.5654-1.0737-2.3928-1.4661c-0.1531-0.2025-0.3145-0.4009-0.4624-0.598 c-0.7388-0.9849-1.4778-1.9699-2.2166-2.9548c-0.3218-0.4286-0.6433-0.8574-0.9648-1.286c-0.1345-0.1794-0.3909-0.6796-0.6084-0.837 c-0.001-0.0066-0.0049-0.0153-0.0054-0.0215c-0.0139-0.1665-0.0488-0.335-0.0798-0.5031c0.1387,0.2335,0.2852,0.4572,0.4519,0.6539 c1.2598,1.4862,2.5879,2.9688,3.9475,4.364c1.1309,1.1608,3.3694,1.6219,4.8374,2.204c0.6677,0.2648,1.364,0.6379,2.061,0.8173 c0.6951,0.1788,1.5154,0.1122,2.2236,0.1443c1.6736,0.0759,3.5376,0.4099,5.1975,0.115c1.9482-0.3461,3.9233-0.7212,5.8477-1.1815 c1.6167-0.3867,3.2017-1.0126,4.7832-1.5243c1.3765-0.4453,2.6904-0.9785,4.0313-1.5264c1.3704-0.5599,2.9695-0.99,4.1812-1.8597 c2.8191-2.0237,5.6331-4.0507,8.488-6.0237c1.4109-0.975,2.905-1.8859,4.2375-2.9678c1.5615-1.2679,3.0833-2.5883,4.6238-3.8815 c2.3899-2.0062,4.9211-4.024,7.0671-6.2821c2.2065-2.3214,4.1172-5.0552,6.0522-7.6129c1.0049-1.3281,2.2671-2.6507,3.0781-4.1053 c0.9517-1.7074,1.6045-3.6613,2.3892-5.4519c0.604-1.3784,0.8027-2.6108,1.0293-4.1109c0.2441-1.6154,0.7207-3.3574,0.7109-4.996 c-0.0098-1.535-0.1792-3.09-0.3276-4.6327c0.0103,0.0129,0.0205,0.0257,0.0308,0.0386c0.1284,0.1612,0.2559,0.3416,0.3887,0.5164 c0.0078,0.0265,0.0205,0.0573,0.0234,0.0794c0.1484,1.1178,0.5098,2.2477,0.7588,3.3472c0.1284,0.5646,0.2563,1.1293,0.3843,1.694 c0.0332,0.1453,0.0498,0.3972,0.0977,0.6005c-0.0698,0.4995-0.1401,0.9991-0.21,1.4987 C266.9221,172.3746,266.8928,174.2833,266.3835,175.9129z" fill="currentColor"/></g></svg>