<?xml version="1.0" encoding="UTF-8"?><!DOCTYPE svg PUBLIC "-//W3C//DTD SVG 1.0//EN" "http://www.w3.org/TR/2001/REC-SVG-20010904/DTD/svg10.dtd" []><svg xmlns="http://www.w3.org/2000/svg" xmlns:xlink="http://www.w3.org/1999/xlink" height="609" preserveAspectRatio="xMidYMid meet" version="1.0" viewBox="183.7 129.6 781.7 608.9" width="782" zoomAndPan="magnify" fill="currentColor"><g id="change1_1"><path d="M 961.624 131.538 C 961.284 132.423, 961.681 133.324, 962.560 133.661 C 964.517 134.412, 965.409 133.509, 964.655 131.543 C 963.896 129.565, 962.382 129.562, 961.624 131.538 M 801.955 227.634 C 797.859 230.178, 789.245 242.561, 784.009 253.430 C 771.594 279.208, 766.348 308.733, 766.193 353.698 C 766.149 366.789, 765.749 381.775, 765.306 387 C 764.863 392.225, 764.551 404.150, 764.613 413.500 C 764.708 427.726, 765.163 432.621, 767.403 443.500 C 771.060 461.261, 773.521 468.456, 776.636 470.497 C 779.683 472.493, 781.629 471.908, 783.167 468.532 C 784.099 466.487, 784.018 465.675, 782.742 464.254 C 781.185 462.520, 778.942 447.910, 777.099 427.500 C 775.822 413.354, 776.067 365.885, 777.494 351 C 782.948 294.119, 784.351 284.813, 790.059 267.647 C 792.226 261.128, 794 255.334, 794 254.771 C 794 253.206, 799.885 241.972, 801.607 240.250 C 804.710 237.148, 805.118 240.184, 804.006 258.093 C 803.412 267.667, 802.254 283.150, 801.432 292.500 C 800.610 301.850, 799.451 315.350, 798.857 322.500 C 798.252 329.775, 797.774 359.943, 797.773 391 C 797.771 421.525, 797.484 452.469, 797.135 459.765 C 796.786 467.060, 796.650 473.473, 796.833 474.015 C 797.017 474.557, 798.052 475, 799.134 475 C 804.728 475, 806.344 459.085, 806.497 402.500 C 806.721 319.998, 808.080 294.785, 813.506 272.492 C 815.520 264.218, 816.033 260.140, 815.580 256 C 813.312 235.236, 811.553 229.028, 807.399 227.136 C 804.415 225.776, 805.038 225.719, 801.955 227.634 M 519.218 234.471 C 516.863 235.206, 514.388 236.226, 513.718 236.736 C 513.048 237.247, 510.925 238.275, 509 239.020 C 507.075 239.766, 502.350 241.798, 498.500 243.537 C 483.179 250.456, 465.638 255.849, 457.500 256.144 C 451.599 256.358, 447.595 255.240, 436.599 250.310 C 431.154 247.868, 424.527 245.613, 421.873 245.299 C 407.547 243.602, 389.370 256.495, 370.833 281.500 C 365.940 288.100, 361.140 294.400, 360.166 295.500 C 354.191 302.249, 352.475 307.490, 355.436 309.947 C 358.481 312.474, 366.415 306.041, 379.633 290.330 C 394.682 272.442, 398.976 268.033, 405.500 263.773 C 413.003 258.873, 412.424 258.846, 437 265.271 C 439.475 265.918, 447.350 266.400, 454.500 266.343 C 475.540 266.173, 493.728 261.900, 513.136 252.569 C 519.507 249.506, 525.726 247, 526.957 247 C 528.368 247, 530.813 248.800, 533.579 251.876 C 538.429 257.271, 542.924 259.441, 557.500 263.424 C 562.450 264.777, 571 267.281, 576.500 268.990 C 585.168 271.683, 601.078 274.189, 616.475 275.288 C 621.485 275.645, 620.681 272.826, 614.779 269.342 C 607.635 265.125, 597.248 261.509, 587 259.672 C 582.325 258.834, 575.575 257.627, 572 256.990 C 563.899 255.548, 556.435 251.631, 546.898 243.819 C 533.017 232.449, 529.498 231.261, 519.218 234.471 M 221.297 257.816 C 218.182 259.742, 217.774 264.584, 217.953 297.483 C 218.051 315.623, 217.765 330.098, 217.316 329.649 C 216.867 329.201, 216.441 317.058, 216.368 302.667 C 216.267 282.618, 215.879 275.214, 214.711 271 C 212.406 262.685, 211.999 262, 209.368 262 C 206.273 262, 205.222 264.701, 204.178 275.343 L 203.378 283.500 202.085 279 C 199.808 271.074, 189.127 263.160, 188.926 269.250 C 188.885 270.488, 188.666 272.625, 188.439 274 C 184.316 299.005, 183.699 309.488, 184.328 343.860 C 184.646 361.262, 185.202 378.200, 185.563 381.500 C 186.739 392.257, 189.902 402.146, 195.613 412.921 C 201.479 423.990, 206.222 430, 209.089 430 C 212.947 430, 212.443 428.393, 200.304 402.047 C 197.734 396.468, 193.007 379.109, 191.850 371 C 190.927 364.533, 191.331 318.268, 192.492 297.500 C 192.645 294.750, 192.842 288.900, 192.930 284.500 L 193.088 276.500 195.049 280.213 C 197.991 285.785, 198.804 295.296, 199.367 330.738 C 199.943 366.981, 200.108 367.903, 206.290 369.434 C 211.979 370.843, 213.344 368.951, 213.242 359.803 L 213.161 352.500 214.331 359.231 C 214.974 362.933, 216.175 366.588, 217 367.354 C 219.412 369.591, 224.685 370.172, 226.461 368.396 C 228.368 366.489, 228.390 363.997, 226.575 355.315 C 224.604 345.885, 224.116 337.986, 223.439 304.540 C 223.061 285.888, 223.212 274.606, 223.862 273 C 224.623 271.119, 224.935 274.213, 225.123 285.500 C 225.260 293.750, 225.448 301.946, 225.540 303.714 C 225.632 305.481, 226.033 313.356, 226.432 321.214 C 226.831 329.071, 227.331 336.850, 227.544 338.500 C 227.756 340.150, 228.468 347.350, 229.127 354.500 C 229.785 361.650, 230.775 368.085, 231.326 368.801 C 233.006 370.979, 237.333 369.828, 238.092 367 C 238.462 365.625, 238.481 356.175, 238.136 346 C 237.099 315.416, 238.076 285, 240.096 285 C 240.593 285, 241.004 286.913, 241.008 289.250 C 241.013 291.587, 241.708 298.450, 242.553 304.500 C 245.089 322.657, 245.583 356.020, 243.552 372 C 240.663 394.736, 237.577 405.584, 230.675 417.257 C 226.414 424.465, 225.857 427, 228.533 427 C 231.782 427, 243.101 407.587, 247.484 394.500 C 249.749 387.736, 252.790 370.588, 253.779 359 C 256.059 332.302, 252.202 289.392, 245.515 267.050 C 244.132 262.429, 243 258.550, 243 258.431 C 243 258.312, 242.327 257.956, 241.504 257.640 C 239.645 256.927, 236.722 262.418, 235.190 269.500 C 234.118 274.453, 232.569 304.472, 232.524 321.162 C 232.511 325.927, 232.162 330.164, 231.750 330.579 C 231.066 331.267, 230.352 315.212, 230.858 310.500 C 230.976 309.400, 231.122 307.825, 231.183 307 C 231.699 299.950, 229.626 268.789, 228.415 265.401 C 226.737 260.705, 223.024 256.749, 221.297 257.816 M 210.267 294 C 210.293 308.074, 210.534 312.462, 211.036 308 C 212.044 299.031, 212.056 282.326, 211.057 277.500 C 210.521 274.909, 210.243 280.723, 210.267 294 M 628.720 275.613 C 626.995 277.339, 628.372 280.414, 633.700 286.737 C 643.766 298.682, 658.235 312.256, 669.155 320 C 685.334 331.474, 688.266 336.034, 694.558 359.500 C 699.340 377.339, 703.247 385.034, 714.869 399.500 C 726.992 414.591, 728.457 421.704, 725.483 451.028 C 723.090 474.618, 723.057 502.307, 725.397 521.973 C 727.518 539.797, 727.159 545.742, 723.336 556.113 C 720.106 564.873, 717.925 568.606, 708.086 582.201 C 699.459 594.122, 696.466 600.276, 688.306 622.876 C 681.912 640.584, 661.016 666.790, 647.078 674.580 C 644.590 675.971, 637.142 678.976, 630.527 681.258 C 619.227 685.156, 617.835 685.405, 607.500 685.381 C 601.450 685.366, 591.316 684.991, 584.981 684.548 C 567.627 683.333, 560.973 684.735, 551.360 691.632 C 541.662 698.590, 538.686 700.066, 526.500 703.960 C 515.039 707.621, 501.213 709.480, 492.500 708.530 C 483.717 707.572, 469.596 704.360, 466.004 702.502 C 460.378 699.593, 433.723 693.065, 427.309 693.026 C 422.610 692.997, 421.531 693.995, 422.422 697.545 C 423.402 701.452, 432.465 705.339, 457.095 712.417 C 477.710 718.342, 492.893 720.531, 513 720.477 C 526.045 720.443, 536.419 716.593, 552.970 705.644 C 570.078 694.328, 568.531 694.878, 584.433 694.450 C 600.113 694.027, 613.638 693.139, 629.500 691.489 C 642.498 690.138, 655.144 684.125, 664.830 674.691 C 669.765 669.885, 685 651.743, 685 650.672 C 685 650.413, 686.635 647.793, 688.633 644.850 C 693.698 637.393, 699.817 623.898, 702.170 615 C 704.722 605.346, 707.650 599.596, 714.266 591.246 C 724.427 578.420, 733.684 561.624, 736.574 550.768 C 738.388 543.952, 738.362 530.129, 736.520 522.500 C 734.152 512.691, 734.614 502.176, 738.567 476 C 739.439 470.225, 740.793 462.256, 741.576 458.292 C 744.299 444.508, 742.998 422.153, 738.861 411.652 C 737.269 407.608, 733.127 400.974, 730.963 399 C 730.662 398.725, 727.029 394.225, 722.891 389 C 713.575 377.238, 711.386 372.099, 704.999 347 C 701.710 334.072, 699.968 329.866, 696.590 326.690 C 692.390 322.741, 680.292 313.785, 676 311.448 C 669.612 307.968, 648.726 290.533, 636.876 278.786 C 634.021 275.957, 629.958 274.376, 628.720 275.613 M 485.500 319.171 C 453.977 324.168, 431.172 331.408, 418.575 340.420 C 404.703 350.344, 378.251 382.481, 367.477 402.500 C 365.405 406.350, 363.386 409.950, 362.990 410.500 C 360.815 413.521, 351.461 432.294, 349.785 437 C 343.054 455.900, 342.885 456.993, 343.507 477.485 C 344.382 506.340, 345.872 523.374, 348.169 530.812 C 350.952 539.823, 368.883 575.524, 375.825 585.878 C 378.946 590.532, 384.983 597.862, 389.240 602.167 C 396.363 609.370, 415.427 624.509, 418.984 625.787 C 419.818 626.087, 423.200 628.447, 426.500 631.033 C 436.344 638.745, 442.647 641.711, 457.034 645.399 C 464.440 647.298, 477.608 650.708, 486.295 652.977 C 498.978 656.290, 503.608 657.069, 509.795 656.930 C 534.181 656.385, 559.939 647.725, 590.142 629.917 C 607.915 619.437, 633.885 593.518, 647.425 572.746 C 650.491 568.042, 653 563.958, 653 563.670 C 653 563.382, 654.521 559.851, 656.380 555.823 C 659.951 548.085, 666.064 529.953, 667.980 521.414 C 672.106 503.021, 672.642 472.439, 669.111 456.824 C 664.715 437.383, 659.569 424.929, 646.666 402.500 C 637.448 386.477, 635.397 383.977, 623.061 373.714 C 617.252 368.882, 608.358 360.924, 603.296 356.030 C 581.228 334.694, 572.842 330.944, 527.500 322.141 C 510.528 318.846, 494.640 317.722, 485.500 319.171 M 204.131 329.083 C 204.203 333.712, 204.613 340.875, 205.042 345 C 205.585 350.210, 205.684 347.779, 205.367 337.038 C 205.115 328.534, 204.705 321.372, 204.455 321.122 C 204.205 320.871, 204.059 324.454, 204.131 329.083 M 323.253 327.721 C 314.905 332.805, 307.719 338.982, 300.500 347.277 C 295.254 353.306, 288.773 362.500, 287.655 365.500 C 284.701 373.427, 284.512 375.222, 284.799 392.666 C 285.158 414.446, 284.369 418.383, 276.318 435 C 268.389 451.365, 267.537 454.557, 267.608 467.642 C 267.641 473.771, 268.165 480.071, 268.771 481.642 C 269.378 483.214, 271.054 488.550, 272.496 493.500 C 273.938 498.450, 276.274 506.100, 277.686 510.500 C 279.689 516.736, 280.323 521.014, 280.563 529.901 C 280.868 541.192, 281.595 543.477, 284.524 542.352 C 287.759 541.111, 289.057 530.350, 287.039 521.500 C 286.537 519.300, 285.833 514.350, 285.474 510.500 C 284.721 502.426, 283.882 497.887, 281.592 489.500 C 278.514 478.231, 277.071 466.573, 277.968 460.224 C 278.938 453.364, 280.647 449.684, 286.432 442 C 293.309 432.865, 293.247 433.179, 294.082 403 C 294.500 387.875, 295.328 373.289, 295.922 370.588 C 298.008 361.087, 302.684 355.584, 319.541 342.789 C 328.422 336.049, 333.187 330.447, 332.810 327.190 C 332.363 323.335, 330.264 323.452, 323.253 327.721 M 477.187 329.659 C 466.477 331.202, 440.885 337.059, 437.952 338.638 C 420.256 348.165, 397.246 371.487, 380.063 397.310 C 372.382 408.854, 361.763 432.598, 359.181 444 C 354.243 465.811, 353.406 477.720, 355.446 497.144 C 357.396 515.715, 359.374 525.541, 363.168 535.500 C 366.182 543.410, 375.011 563.033, 375.993 564 C 376.272 564.275, 377.811 566.975, 379.413 570 C 387.709 585.662, 406.130 606.732, 420.223 616.679 C 435.406 627.395, 466.230 639.639, 487.500 643.403 C 492.450 644.279, 498.075 645.334, 500 645.748 C 508.443 647.562, 518.015 646.328, 531.500 641.686 C 538.650 639.225, 548.550 635.980, 553.500 634.475 C 570.498 629.307, 583.182 622.453, 598.310 610.261 C 614.766 596.999, 627.852 581.808, 637.733 564.500 C 642.488 556.172, 650.264 539.215, 652.637 532 C 657.748 516.465, 660.497 485.633, 658.923 461.500 C 658.009 447.483, 655.099 438.310, 646.920 423.674 C 633.016 398.791, 615.586 380.428, 585.500 358.969 C 562.511 342.572, 546.600 335.066, 529.500 332.552 C 527.300 332.229, 524.150 331.719, 522.500 331.420 C 520.850 331.120, 518.150 330.676, 516.500 330.432 C 511.787 329.737, 480.868 329.128, 477.187 329.659 M 553.500 428.019 C 526.509 430.041, 520.798 430.701, 458 439.065 C 443.418 441.007, 439.684 441.771, 433.512 444.081 C 420.510 448.946, 418.545 454.315, 418.532 485 C 418.524 505.972, 419.473 513.772, 422.078 514.125 C 426.610 514.739, 426.382 515.725, 426.633 494.500 C 426.889 472.878, 428.559 455.027, 430.372 454.542 C 433.664 453.660, 447.413 451.934, 487 447.433 C 499.375 446.026, 510.850 444.705, 512.500 444.497 C 529.315 442.378, 535.273 441.467, 546.386 439.317 C 553.473 437.946, 562.248 435.831, 565.886 434.617 C 571.642 432.696, 572.500 432.092, 572.500 429.955 C 572.500 427.729, 572.080 427.489, 568 427.385 C 565.525 427.321, 559 427.606, 553.500 428.019 M 584.537 433.257 C 582.424 438.314, 581.190 446.641, 578.940 471 C 577.798 483.375, 576.512 497.100, 576.082 501.500 C 575.290 509.622, 575.975 513, 578.413 513 C 580.681 513, 581.915 510.623, 583.914 502.402 C 586.073 493.520, 586.489 489.448, 587.996 462.500 C 588.580 452.050, 589.229 441.067, 589.438 438.094 C 589.647 435.121, 589.586 432.084, 589.302 431.344 C 588.379 428.940, 585.930 429.923, 584.537 433.257 M 215.465 441.678 C 211.067 442.553, 210.653 444.752, 208.534 478.500 C 207.860 489.242, 205.950 505.625, 203.563 521.146 C 198.030 557.133, 197.770 560.736, 197.375 607 C 196.954 656.399, 197.819 675.878, 201.617 702.470 C 203.306 714.296, 205.109 718.877, 209.842 723.373 C 212.617 726.009, 213.266 726.187, 217.684 725.528 C 225.506 724.361, 236.485 720.495, 240.350 717.547 C 245.017 713.987, 248.738 706.018, 250.556 695.691 C 252.455 684.901, 252.379 680.480, 250.060 666.880 C 248.993 660.621, 247.864 652.350, 247.551 648.500 C 246.102 630.684, 244.956 619.722, 243.579 610.500 C 241.980 599.798, 240.751 587.871, 238.941 565.500 C 238.318 557.800, 236.947 547, 235.894 541.500 C 234.841 536, 233.550 523.175, 233.026 513 C 232.502 502.825, 231.181 489.100, 230.089 482.500 C 228.998 475.900, 227.886 467.575, 227.618 464 C 226.092 443.586, 224.115 439.955, 215.465 441.678 M 217.639 447 C 217.367 447.825, 216.893 461.550, 216.585 477.500 C 216.277 493.450, 215.796 508.525, 215.515 511 C 214.846 516.896, 210.010 590.936, 208.559 617.500 C 208.319 621.900, 207.757 631.800, 207.311 639.500 C 206.865 647.200, 206.500 662.275, 206.500 673 C 206.500 695.970, 207.768 701.768, 214.200 708.200 C 218.812 712.812, 223.737 713.325, 229.048 709.747 C 237.162 704.279, 239.432 694.170, 238.648 667 C 238.338 656.275, 237.603 643.450, 237.013 638.500 C 236.424 633.550, 235.752 627.925, 235.521 626 C 235.290 624.075, 234.371 614.410, 233.478 604.521 C 232.586 594.633, 230.962 581.808, 229.868 576.021 C 227.010 560.899, 226.117 551.601, 225.632 531.909 C 225.208 514.688, 224.351 501.419, 221.414 466.575 C 219.970 449.440, 218.814 443.443, 217.639 447 M 788.501 479.878 C 784.904 480.647, 783.550 484.008, 782.119 495.723 C 781.021 504.703, 781.497 535.568, 783.025 554.500 C 784.805 576.564, 784.465 630.186, 782.441 646.500 C 778.755 676.212, 779.280 695.919, 784.492 723.500 C 786.219 732.641, 789.030 736.220, 795.423 737.420 C 801.016 738.469, 804.818 735.767, 808.728 727.962 C 814.593 716.255, 816.545 703.229, 816.441 676.500 C 816.406 667.475, 811.369 622.121, 806.889 590.500 C 804.295 572.186, 803.910 566.531, 803.877 546.285 C 803.856 533.517, 804.045 522.717, 804.296 522.285 C 804.914 521.225, 803.240 499.090, 801.930 491 C 801.351 487.425, 800.306 483.730, 799.607 482.789 C 798.416 481.186, 793.706 478.856, 792.185 479.118 C 791.808 479.183, 790.151 479.525, 788.501 479.878 M 791.014 486.483 C 790.337 487.299, 789.386 491.461, 788.902 495.733 C 787.657 506.698, 787.717 556.266, 788.998 576.500 C 789.630 586.467, 789.760 599.085, 789.312 607 C 788.345 624.124, 788.272 699.013, 789.213 709.125 C 790.109 718.761, 792.795 728.933, 795.097 731.407 C 796.774 733.212, 797.009 733.224, 799.427 731.639 C 802.986 729.308, 807.092 720.809, 808.673 712.500 C 809.406 708.650, 810.266 697.400, 810.584 687.500 C 811.285 665.713, 808.625 638.493, 802.963 609.500 C 802.069 604.927, 798.431 580.894, 795.729 561.714 C 794.892 555.775, 794.939 551.414, 795.928 543.323 C 797.467 530.729, 797.492 513.544, 795.992 499.593 C 794.340 484.231, 793.883 483.026, 791.014 486.483 M 538.500 517.038 C 524.750 518.613, 509.900 519.923, 505.500 519.949 C 497.132 519.999, 480.087 521.425, 469 523.002 C 465.425 523.511, 458.225 524.452, 453 525.092 C 437.843 526.951, 433.500 528.156, 433.500 530.500 C 433.500 531.907, 434.093 532.435, 435.500 532.280 C 436.600 532.159, 445.375 531.611, 455 531.062 C 497.919 528.615, 516.356 526.819, 553.721 521.443 C 566.197 519.648, 569.259 518.594, 568.814 516.247 C 568.345 513.773, 566.616 513.818, 538.500 517.038 M 289.701 576.632 C 288.495 577.838, 288.959 590.264, 290.405 595.500 C 294.663 610.920, 302.009 618.512, 318.500 624.535 C 325.619 627.135, 332.595 632.287, 339.370 639.947 C 345.098 646.424, 352 657.805, 352 660.773 C 352 663.544, 358.096 672.926, 362.153 676.399 C 366.991 680.540, 374.211 684.032, 382.859 686.414 C 386.357 687.377, 391.183 689.007, 393.584 690.036 C 397.497 691.713, 398.108 691.749, 399.475 690.382 C 400.314 689.543, 401 688.539, 401 688.151 C 401 685.757, 396.931 682.815, 388.469 679.089 C 366.671 669.492, 364.315 667.219, 355.203 647 C 348.044 631.114, 331.608 616.317, 315.634 611.376 C 308.434 609.149, 306.499 606.815, 301.219 593.987 C 299.071 588.769, 296.455 582.706, 295.406 580.513 C 293.589 576.718, 291.224 575.109, 289.701 576.632" fill-rule="evenodd"/></g></svg>