<?xml version="1.0" encoding="UTF-8"?><!DOCTYPE svg PUBLIC "-//W3C//DTD SVG 1.0//EN" "http://www.w3.org/TR/2001/REC-SVG-20010904/DTD/svg10.dtd" []><svg xmlns="http://www.w3.org/2000/svg" xmlns:xlink="http://www.w3.org/1999/xlink" height="650" preserveAspectRatio="xMidYMid meet" version="1.0" viewBox="64.0 235.3 842.7 650.4" width="843" zoomAndPan="magnify" fill="currentColor"><g id="change1_1"><path d="M 465.115 242.974 C 461.264 247.846, 460.633 251, 463.509 251 C 464.222 251, 465.263 252.315, 465.823 253.923 C 466.624 256.219, 466.538 256.963, 465.421 257.392 C 462.026 258.695, 465.094 265.305, 469.621 266.441 C 473.834 267.498, 475.062 265.303, 471.750 262.638 C 468.345 259.897, 468.276 259.139, 471.488 259.753 C 473.171 260.075, 474.175 259.706, 474.595 258.614 C 475.509 256.231, 477.924 256.576, 477.290 259 C 476.959 260.265, 477.259 261, 478.106 261 C 478.842 261, 478.423 261.716, 477.175 262.590 C 475.374 263.851, 475.147 264.472, 476.075 265.590 C 477.708 267.558, 478.680 267.386, 483.643 264.250 C 487.927 261.544, 489.518 258, 486.449 258 C 485.262 258, 485.525 257.179, 487.572 254.494 C 489.915 251.423, 490.190 250.301, 489.788 245.459 C 488.987 235.804, 485.022 235.269, 484.968 244.809 C 484.949 248.219, 484.348 251.278, 483.468 252.441 C 482.661 253.509, 482 253.873, 482 253.250 C 482 252.627, 482.450 251.840, 483 251.500 C 484.539 250.549, 484.185 246.328, 482.419 244.562 C 480.571 242.714, 479 243.349, 479 245.945 C 479 246.949, 478.377 248.972, 477.615 250.440 L 476.231 253.109 474.222 250.554 C 473.116 249.150, 471.564 248, 470.773 248 C 468.103 248, 468.043 246.737, 470.569 243.735 C 473.258 240.540, 473.314 238.690, 470.738 238.190 C 469.790 238.006, 467.505 239.950, 465.115 242.974 M 538.667 245.667 C 537.318 247.016, 538.065 248.709, 540.500 249.818 C 541.875 250.445, 543 251.587, 543 252.356 C 543 253.126, 543.675 254.315, 544.500 255 C 545.325 255.685, 546 257.513, 546 259.063 C 546 264.157, 549.521 264.088, 550.340 258.979 C 550.817 256.004, 547.632 249.175, 544.647 246.772 C 542.427 244.985, 539.828 244.505, 538.667 245.667 M 497.467 249.412 C 494.174 251.293, 492.934 254.223, 494.912 255.445 C 495.445 255.775, 495.354 257.251, 494.692 259.004 C 493.850 261.234, 493.852 262.768, 494.697 265.007 C 495.945 268.314, 494.647 268.212, 492.193 264.811 C 490.799 262.878, 488 262.337, 488 264 C 488 264.550, 487.127 265, 486.059 265 C 484.991 265, 483.848 265.437, 483.518 265.971 C 482.864 267.029, 485.162 271.947, 488.281 276.166 C 489.770 278.180, 490.084 279.647, 489.565 282.166 C 487.787 290.792, 489.354 295.019, 492.268 289.458 L 493.665 286.793 495.745 291.646 C 501.930 306.073, 503.327 316.007, 499.171 315.996 C 497.979 315.992, 497.452 315.037, 497.333 312.660 C 497.070 307.436, 490.197 294, 487.787 294 C 487.327 294, 486.522 295.126, 485.999 296.502 C 485.358 298.189, 483.220 299.812, 479.435 301.486 C 473.991 303.894, 472.681 306.115, 476.291 306.815 C 477.564 307.062, 484.170 304.517, 488.056 302.282 C 488.831 301.836, 491.582 307.820, 492.479 311.904 C 493.151 314.963, 493.040 315.222, 491.362 314.509 C 487.844 313.013, 483.980 312.772, 482.550 313.958 C 480.264 315.856, 481.854 318, 485.548 318 C 487.382 318, 489.131 318.403, 489.436 318.896 C 490.546 320.692, 502.633 322.091, 507.539 320.991 C 515.965 319.103, 520.367 315.581, 516.945 313.466 C 516.017 312.892, 523.494 306.436, 528.560 303.436 C 531.226 301.857, 529.731 298.641, 526.755 299.553 C 524.176 300.343, 517.460 305.463, 511.250 311.372 C 506.182 316.195, 505.859 315.078, 509.514 305.367 C 514.703 291.580, 517.178 286.922, 519.005 287.502 C 520.878 288.096, 522.483 286.611, 523.328 283.500 C 523.767 281.884, 523.862 281.980, 523.825 284 C 523.732 289.007, 524.038 289.950, 526.117 291.062 C 527.813 291.971, 528.557 291.866, 529.867 290.537 C 531.378 289.001, 531.369 288.781, 529.747 287.577 C 528.463 286.623, 528.156 285.471, 528.598 283.259 C 529.286 279.820, 527.690 278.183, 525.456 280.036 C 524.289 281.005, 524 280.940, 524 279.706 C 524 278.859, 523.525 278.008, 522.945 277.815 C 522.290 277.597, 522.660 275.767, 523.923 272.982 C 526.483 267.338, 526.592 264.744, 524.250 265.177 C 523.288 265.355, 521.481 267.525, 520.235 270 C 517.556 275.325, 514.483 277.947, 510.888 277.978 C 507.572 278.006, 501.320 273.084, 501.781 270.809 C 501.970 269.879, 501.363 267.957, 500.433 266.538 C 499.252 264.736, 498.903 262.758, 499.276 259.979 C 499.585 257.678, 499.364 255.725, 498.753 255.348 C 496.716 254.088, 501.356 252, 506.191 252 C 509.748 252, 511 251.619, 511 250.535 C 511 246.734, 503.275 246.093, 497.467 249.412 M 524.200 248.200 C 521.865 250.535, 523.226 258, 525.987 258 C 527.336 258, 527.863 256.907, 528.275 253.250 C 528.619 250.205, 528.396 248.237, 527.655 247.766 C 526.067 246.755, 525.585 246.815, 524.200 248.200 M 530.557 249.223 C 528.411 252.286, 528.608 255.641, 531.145 259.203 C 532.994 261.800, 533.752 262.140, 536.645 261.670 C 539.148 261.264, 540 261.491, 540 262.563 C 540 263.599, 538.746 264, 535.500 264 C 533.025 264, 531 263.550, 531 263 C 531 262.450, 530.100 262, 529 262 C 526.248 262, 526.389 265.459, 529.223 267.443 C 533.675 270.562, 544.743 268.630, 542.570 265.113 C 542.238 264.577, 542.425 263.856, 542.984 263.510 C 544.214 262.750, 544.304 257.028, 543.115 255.152 C 542.068 253.500, 538.392 254.124, 538.776 255.888 C 539.174 257.719, 535.924 256.833, 534.614 254.753 C 533.798 253.456, 533.843 252.481, 534.791 250.963 C 537.272 246.990, 533.272 245.346, 530.557 249.223 M 515.547 252.924 C 515.195 253.493, 515.358 255.656, 515.908 257.729 C 516.459 259.803, 517.163 262.738, 517.474 264.250 C 518.190 267.740, 520.756 267.820, 521.619 264.380 C 523.016 258.816, 517.887 249.138, 515.547 252.924 M 508.702 253.631 C 508.355 253.979, 508.539 255.138, 509.111 256.207 C 509.978 257.827, 509.847 258.100, 508.326 257.846 C 505.379 257.354, 500 260.046, 500 262.014 C 500 264.360, 502.543 265.256, 504.049 263.441 C 505.518 261.670, 508.147 261.541, 507.925 263.250 C 507.587 265.853, 508.047 267, 509.427 267 C 511.575 267, 515 262.096, 515 259.020 C 515 255.239, 510.739 251.594, 508.702 253.631 M 374.309 259.104 C 366.517 261.358, 361.289 275.804, 359.510 300 C 358.579 312.669, 357.177 317.754, 350.001 334.500 C 344.589 347.128, 343.946 349.886, 344.039 360.084 C 344.076 364.163, 344.130 369.750, 344.159 372.500 C 344.189 375.250, 344.165 382.113, 344.106 387.750 L 344 398 341.458 398 C 338.347 398, 312.466 406.528, 309 408.696 C 303.977 411.837, 301 415.344, 301 418.122 C 301 422.830, 302.775 425.846, 306.710 427.823 C 315.230 432.106, 342.093 437.191, 366 439.048 C 372.875 439.582, 381.511 440.465, 385.192 441.010 C 393.477 442.236, 400.047 442.256, 401.936 441.061 C 404.175 439.644, 401.613 437.292, 397.212 436.723 C 395.170 436.460, 385.175 434.637, 375 432.674 C 354.827 428.781, 328.695 424.432, 320 423.522 C 305.929 422.048, 304.781 421.509, 307.355 417.581 C 309.339 414.553, 337.102 403, 342.393 403 C 343.189 403, 343.999 404.594, 344.365 406.879 C 345.068 411.279, 350.164 416.901, 355.926 419.635 C 361.387 422.226, 386.507 422.871, 392.245 420.567 C 398.282 418.143, 401.585 413.698, 403.101 405.956 C 403.796 402.405, 404.621 399.205, 404.933 398.845 C 405.245 398.485, 408.341 397.984, 411.814 397.731 C 418.612 397.238, 420.643 396.118, 419.612 393.432 C 419.066 392.008, 418.104 391.834, 413.729 392.368 C 410.853 392.719, 407.600 393.254, 406.500 393.557 C 404.530 394.100, 404.515 393.853, 405.460 377.304 C 406.402 360.811, 406.440 360.611, 407.528 366.500 C 409.821 378.907, 414.085 387.146, 420.749 392.047 C 425.541 395.571, 425.973 397.436, 425.989 414.643 C 425.998 424.814, 426.258 426.885, 427.590 427.396 C 428.465 427.732, 429.591 427.753, 430.092 427.443 C 430.594 427.133, 431.420 427.976, 431.930 429.315 C 432.663 431.243, 433.862 431.913, 437.678 432.529 L 442.500 433.307 439 434.087 C 435.171 434.940, 430.423 435.269, 425 435.057 L 421.500 434.920 424.250 433.428 C 427.176 431.841, 427.889 429.278, 425.645 428.417 C 423.844 427.726, 417.237 431.689, 415.841 434.297 C 413.117 439.387, 422.602 441.384, 438 438.963 C 444.099 438.004, 448 435.644, 448 432.912 C 448 431.560, 443.287 428.806, 439.725 428.076 C 436.746 427.466, 436.492 427.101, 436.391 423.302 C 436.331 421.040, 435.908 415.434, 435.450 410.845 C 434.008 396.387, 434.241 394.920, 438.966 388.661 C 444.096 381.867, 444.818 378.948, 445.100 363.866 C 445.406 347.488, 445.046 347, 432.658 347 C 421.989 347, 414.513 348.856, 410.047 352.614 L 407 355.178 406.980 350.339 C 406.941 340.903, 405.146 333, 400.997 323.993 C 397.002 315.322, 396.802 314.405, 395.900 300.733 C 394.921 285.875, 391.749 267.443, 389.368 262.780 C 386.986 258.114, 381.965 256.889, 374.309 259.104 M 376.861 264.177 L 373.221 265.146 372.537 272.823 C 371.229 287.490, 367.110 310.678, 364.513 318 C 363.635 320.475, 360.687 327.983, 357.962 334.685 C 350.275 353.589, 348.437 364.671, 351.111 376 C 353.173 384.738, 355.502 406.379, 354.546 407.925 C 354.211 408.468, 355.081 409.662, 356.480 410.579 C 358.471 411.883, 362.378 412.359, 374.438 412.764 L 389.852 413.282 392.988 406.391 C 399.135 392.882, 400.289 386.517, 400.400 365.500 C 400.492 348.008, 400.278 345.547, 397.698 334.500 C 396.049 327.436, 393.379 319.417, 391.208 315.004 C 387.532 307.536, 387.517 307.453, 387.233 293.004 C 386.934 277.768, 385.579 266.403, 383.808 264.269 C 382.614 262.830, 381.946 262.821, 376.861 264.177 M 511.500 268.068 C 509.850 269.125, 507.514 269.992, 506.309 269.995 C 503.402 270.002, 502.398 271.827, 504.271 273.700 C 506.345 275.773, 510.821 274.650, 515.091 270.985 C 517.942 268.537, 518.254 267.892, 517 267.044 C 515.105 265.764, 515.094 265.766, 511.500 268.068 M 491.510 273.015 C 493.018 275.404, 495.704 280.540, 497.480 284.429 C 500.511 291.067, 501.306 293.013, 504.038 300.484 L 505.129 303.468 508.446 295.840 C 512.670 286.126, 512.323 284.223, 505.759 281.105 C 502.271 279.448, 500.384 277.829, 499.639 275.855 C 498.915 273.937, 497.857 273, 496.416 273 C 495.235 273, 493.032 272.026, 491.519 270.836 L 488.768 268.672 491.510 273.015 M 476.442 272.094 C 476.134 272.592, 474.850 273, 473.589 273 C 469.922 273, 464.500 277.191, 464.500 280.026 C 464.500 281.561, 465.152 282.598, 466.250 282.810 C 467.284 283.009, 468 282.538, 468 281.659 C 468 280.841, 470.098 278.999, 472.662 277.566 L 477.323 274.960 481.614 279.568 C 485.687 283.942, 488 284.621, 488 281.444 C 488 280.653, 486.419 278.255, 484.486 276.116 C 480.924 272.173, 477.463 270.442, 476.442 272.094 M 527.246 272.154 C 524.526 274.874, 526.555 277.844, 529.907 276.050 C 532.240 274.801, 535 275.659, 535 277.632 C 535 278.412, 536.125 279.477, 537.500 280 C 540.569 281.167, 540.669 282.905, 537.840 285.941 C 536.066 287.845, 535.889 288.593, 536.849 290.130 C 537.875 291.773, 537.708 292, 535.473 292 C 532.412 292, 528 294.704, 528 296.580 C 528 298.370, 531.191 300.001, 534.684 299.996 C 538.390 299.991, 544 296.509, 544 294.215 C 544 293.217, 544.501 291.899, 545.113 291.287 C 546.482 289.918, 545.435 288, 543.319 288 C 542.037 288, 541.981 287.728, 543.010 286.488 C 543.943 285.364, 544.605 285.257, 545.589 286.074 C 547.550 287.702, 548.746 286.466, 549.494 282.037 C 550.364 276.885, 549.400 274, 546.808 274 C 545.055 274, 544.839 274.444, 545.350 277 C 546.047 280.484, 545.152 280.826, 542.732 278 C 541.790 276.900, 540.447 276, 539.747 276 C 539.047 276, 538.030 274.988, 537.487 273.750 C 536.740 272.047, 535.527 271.428, 532.496 271.204 C 530.247 271.039, 527.945 271.455, 527.246 272.154 M 457.526 277.950 C 454.962 282.908, 456.007 292, 459.141 292 C 459.730 292, 461.548 293.125, 463.182 294.500 C 464.816 295.875, 466.583 297, 467.108 297 C 468.937 297, 469.348 293.728, 467.673 292.503 C 466.765 291.839, 465.353 289.695, 464.535 287.739 C 463.718 285.783, 462.476 283.987, 461.775 283.748 C 460.755 283.400, 460.744 282.651, 461.718 280.010 C 463.769 274.451, 460.233 272.715, 457.526 277.950 M 477.394 285.469 C 477.628 292.638, 478.219 293.893, 480.476 292.020 C 483.435 289.564, 481.877 279, 478.557 279 C 477.512 279, 477.234 280.549, 477.394 285.469 M 470.667 280.667 C 468.229 283.104, 472.292 289.869, 475.463 288.653 C 476.798 288.140, 476.724 287.533, 474.899 284.031 C 472.823 280.047, 471.967 279.367, 470.667 280.667 M 530.362 281.500 C 529.004 285.037, 532.763 288.272, 535.546 285.962 C 536.888 284.848, 536.808 284.424, 534.859 282.350 C 532.297 279.622, 531.164 279.408, 530.362 281.500 M 576.589 285.077 C 574.450 287.618, 574 289.170, 574 293.993 C 574 297.776, 573.560 299.981, 572.750 300.252 C 571.479 300.677, 571.211 315.638, 571.956 344.551 C 572.187 353.512, 571.912 357.173, 570.883 358.831 C 569.934 360.362, 569.834 361.287, 570.564 361.781 C 571.149 362.176, 571.660 365.875, 571.699 370 C 571.817 382.581, 572.049 385.355, 573.088 386.605 C 573.768 387.425, 573.452 389.610, 572.093 393.475 C 569.411 401.106, 568.640 406.941, 569.883 410.200 C 571.779 415.172, 581.924 415.901, 588.576 411.542 C 591.886 409.374, 592.352 407.933, 591.150 403.582 L 590.156 399.983 597.069 400.241 L 603.982 400.500 603.991 407.715 C 603.999 414.313, 603.743 415.223, 601 418.347 C 595.420 424.702, 597.618 426.486, 611 426.463 C 620.682 426.446, 625.220 424.693, 624.803 421.130 C 624.621 419.580, 623.523 418.062, 622.058 417.335 C 617.410 415.030, 616.196 410.756, 616.098 396.351 L 616.008 383.203 619.069 379.926 C 625.423 373.124, 628.205 363.469, 627.591 350.347 C 627.363 345.481, 627.137 341.399, 627.088 341.276 C 627.040 341.152, 625.672 340.365, 624.050 339.526 C 617.698 336.241, 595.488 338.598, 592.330 342.892 C 590.204 345.783, 589.796 355.038, 591.511 361.496 C 593.406 368.636, 599.293 379.551, 602.042 381.022 C 603.716 381.918, 604 383.147, 604 389.483 L 604 396.896 600.993 395.848 C 599.340 395.271, 596.009 394.957, 593.593 395.150 L 589.199 395.500 588.045 390.500 C 586.718 384.753, 586.485 376.180, 587.508 370.775 C 587.896 368.726, 587.753 365.731, 587.191 364.119 C 586.297 361.552, 586.424 361.122, 588.217 360.654 C 589.807 360.238, 590.118 359.603, 589.611 357.809 C 587.859 351.613, 586.062 339.108, 585.041 326 C 583.224 302.699, 583.059 301.647, 580.944 299.840 C 578.526 297.774, 578.524 296.994, 580.929 292.281 C 585.500 283.320, 582.398 278.172, 576.589 285.077 M 518.465 291.057 C 516.703 293.908, 520.922 299, 525.047 299 C 526.969 299, 525.921 295.767, 523.077 292.923 C 519.846 289.692, 519.416 289.518, 518.465 291.057 M 457 296.411 C 457 298.074, 462.573 303, 464.454 303 C 466.636 303, 468.134 300.534, 466.776 299.176 C 466.129 298.529, 465.070 298, 464.422 298 C 463.775 298, 462.685 297.325, 462 296.500 C 460.425 294.602, 457 294.542, 457 296.411 M 475.578 295.892 C 470.825 296.629, 469.896 298.540, 473.495 300.180 C 476.847 301.707, 484.297 299.449, 484.812 296.750 C 485.173 294.860, 483.333 294.689, 475.578 295.892 M 790.657 296.745 C 777.509 298.212, 765.895 300.986, 758.256 304.483 C 755.232 305.867, 752.250 306.995, 751.629 306.988 C 748.665 306.956, 727.250 318.984, 722.229 323.500 C 702.773 340.999, 694.841 375.715, 699.020 425.079 C 700.567 443.354, 702.899 467.882, 703.552 472.750 C 704.063 476.553, 703.907 477, 702.074 477 C 699.871 477, 696.167 482.108, 692.721 489.898 L 690.759 494.333 689.393 491.084 C 688.642 489.298, 687.338 484.161, 686.494 479.668 C 685.651 475.176, 684.496 469.025, 683.927 466 C 682.786 459.929, 673.332 426.347, 672.120 424.060 C 670.819 421.603, 669.103 421.743, 668.446 424.359 C 668.069 425.862, 669.049 431.374, 670.905 438.180 C 675.329 454.401, 682.676 485.630, 683.450 491.500 C 683.813 494.250, 684.979 501, 686.041 506.500 C 698.192 569.399, 699.453 578.092, 700.479 606 C 700.792 614.525, 701.485 625.550, 702.019 630.500 C 702.552 635.450, 703.167 643.775, 703.385 649 C 703.602 654.225, 704.090 659.684, 704.468 661.130 L 705.157 663.760 700.828 662.863 C 691.240 660.877, 620.402 661.250, 618.365 663.298 C 617.928 663.737, 618.056 664.862, 618.650 665.798 C 619.514 667.161, 621.199 667.486, 627.114 667.431 C 682.946 666.913, 695.252 666.996, 700.500 667.925 C 703.800 668.510, 706.837 668.991, 707.250 668.994 C 709.994 669.015, 706.652 671.321, 698.250 675.203 C 686.537 680.614, 684.269 681.428, 676.500 683.016 C 670.456 684.250, 666.975 685.745, 650.500 694.180 C 645.550 696.715, 639.797 699.570, 637.715 700.525 C 633.412 702.499, 631.199 705.599, 632.887 707.287 C 633.650 708.050, 634.614 708.032, 636.230 707.222 C 637.478 706.596, 642.775 704.449, 648 702.450 C 653.225 700.450, 657.975 698.617, 658.555 698.375 C 660.238 697.674, 658.562 710.212, 656.566 713.259 C 655.309 715.178, 653.692 716.061, 650.667 716.482 C 644.754 717.303, 613 717.824, 613 717.099 C 613 716.768, 615.138 715.396, 617.750 714.051 C 625.253 710.188, 628 708.012, 628 705.932 C 628 703.479, 626.421 703.495, 621.236 706 C 618.959 707.100, 616.850 708, 616.548 708 C 616.247 708, 616 705.805, 616 703.122 C 616 698.291, 614.183 695.151, 612.125 696.423 C 611.595 696.750, 610.657 699.376, 610.041 702.259 C 608.739 708.345, 601.864 722.333, 596.065 730.694 C 587.956 742.387, 580.931 749.945, 556.986 772.737 C 543.320 785.745, 531.711 797.623, 530.659 799.672 C 529.501 801.930, 528.248 807.982, 527.397 815.419 C 526.191 825.965, 525.508 828.533, 522.019 835.629 C 517.062 845.714, 511.434 852.053, 499.974 860.465 C 490.953 867.086, 488.404 870.004, 489.392 872.578 C 490.271 874.871, 492.420 874.248, 497.619 870.195 C 500.304 868.102, 504.975 864.875, 508 863.024 C 515.509 858.429, 520.333 853.716, 525.588 845.842 C 531.914 836.362, 533.884 831.317, 534.402 823.267 C 534.884 815.783, 537.616 805.627, 540.846 799.311 C 543.664 793.801, 558.249 779.422, 559.302 781.115 C 559.434 781.327, 560.632 783.525, 561.965 786 C 563.297 788.475, 565.819 792.525, 567.569 795 C 569.318 797.475, 574.699 807.375, 579.526 817 C 584.352 826.625, 588.926 835.706, 589.689 837.180 C 591.649 840.965, 597.496 845.848, 602.897 848.211 C 606.350 849.721, 610.334 850.325, 618.842 850.626 C 631.762 851.084, 636.593 850.128, 640.065 846.428 C 642.180 844.175, 642.499 842.891, 642.490 836.667 C 642.476 826.920, 639.832 822.277, 630.464 815.551 C 626.594 812.773, 621.762 808.652, 619.727 806.394 L 616.028 802.288 618.528 792.894 C 623.509 774.181, 624.237 769.563, 624.581 754.500 C 624.769 746.250, 625.038 736.013, 625.179 731.750 L 625.436 724 629.968 723.943 C 639.496 723.822, 656.039 721.497, 659.689 719.766 C 662.942 718.223, 666.468 708.747, 666.485 701.500 L 666.500 695.500 673 692.425 C 680.065 689.082, 687.404 686.214, 696 683.437 C 702.682 681.278, 708.568 677.742, 712.250 673.677 C 715.443 670.150, 715.473 670.007, 713.532 667.441 C 711.452 664.692, 711.572 660.229, 713.737 659.812 C 714.692 659.628, 719.080 659.939, 723.487 660.504 L 731.500 661.530 732.265 671.015 C 732.685 676.232, 732.779 684.603, 732.474 689.617 C 732.168 694.631, 732.363 703.631, 732.908 709.617 C 735.145 734.207, 735.967 747.667, 736.596 770 C 736.961 782.925, 737.245 794.565, 737.228 795.866 C 737.189 798.844, 734.652 801.464, 732.578 800.668 C 730.829 799.997, 730.966 803.603, 730.472 745.500 C 730.184 711.686, 729.712 699.735, 727.906 680.500 C 726.564 666.222, 725.417 661.769, 723.195 662.215 C 721.256 662.604, 721.217 663.888, 722.792 675.500 C 724.641 689.137, 726.019 723.859, 726.265 763 C 726.443 791.354, 726.813 801.049, 727.785 802.750 C 729.454 805.671, 735.718 805.858, 739.139 803.090 C 741.806 800.931, 741.711 802.670, 741.087 767.500 C 740.892 756.500, 740.350 743, 739.883 737.500 C 739.416 732, 738.584 722.100, 738.033 715.500 C 737.482 708.900, 736.877 694.163, 736.689 682.750 L 736.346 662 739.923 661.989 C 741.890 661.983, 745.257 661.688, 747.404 661.333 L 751.308 660.688 750.667 667.094 C 750.314 670.617, 749.782 684.075, 749.486 697 C 749.189 709.925, 748.677 722.750, 748.348 725.500 C 748.019 728.250, 747.605 735.900, 747.428 742.500 C 747.251 749.100, 746.569 766.875, 745.914 782 C 744.438 816.036, 744.332 827.747, 745.385 840.400 C 746.087 848.827, 746.559 850.650, 748.559 852.650 C 752.560 856.651, 762.887 855.455, 766.987 850.516 C 768.703 848.448, 768.870 846.814, 770.003 821 C 770.522 809.175, 771.385 794.100, 771.922 787.500 C 772.458 780.900, 772.910 762.857, 772.927 747.405 C 772.943 731.953, 773.414 715.078, 773.974 709.905 C 774.898 701.363, 775.537 689.141, 776.098 669.247 C 776.211 665.254, 776.820 661.564, 777.453 661.039 C 778.085 660.514, 786.679 659.584, 796.551 658.972 C 806.423 658.360, 817.580 657.214, 821.345 656.424 C 828.183 654.989, 840.655 650.528, 842.450 648.875 C 844.432 647.050, 844.778 648.322, 845.408 659.750 C 847.013 688.870, 850.459 724.064, 853.461 742.006 C 857.330 765.125, 859.143 776.480, 860.483 786 C 862.409 799.670, 863.263 803.481, 867.201 815.981 C 871.084 828.308, 872.267 830.454, 876.037 832.015 C 878.704 833.120, 879.981 833.056, 884.659 831.582 C 892.647 829.063, 894.357 826.992, 893.690 820.636 C 893.394 817.811, 891.311 808.993, 889.063 801.041 C 885.129 787.130, 884.156 781.447, 878.524 739.500 C 877.121 729.050, 874.835 714.875, 873.443 708 C 865.764 670.079, 864.629 660.683, 863.537 626 C 863.234 616.375, 862.712 602.119, 862.376 594.319 C 861.801 580.968, 861.889 579.965, 863.874 577.177 C 867.925 571.488, 875.787 554.448, 877.336 548 C 878.194 544.425, 879.172 538.125, 879.508 534 C 879.845 529.875, 880.826 521.936, 881.689 516.358 C 883.582 504.120, 882.898 496.602, 879.427 491.487 C 877.684 488.919, 877.243 487.408, 877.884 486.196 C 878.377 485.263, 881.062 477.750, 883.851 469.500 C 888.630 455.357, 890.078 449.350, 891.563 437.500 C 892.554 429.586, 894.797 420.441, 898.920 407.500 C 903.556 392.948, 904.807 388.128, 905.765 381.123 C 906.691 374.349, 905.590 353.112, 903.970 346.500 C 901.396 335.991, 892.696 322.441, 882 312.284 C 877.064 307.596, 872.934 305.945, 854 301.091 C 833.406 295.812, 812.113 294.351, 790.657 296.745 M 175 300.631 C 170.031 301.064, 139.388 307.347, 131.500 309.550 C 126.090 311.061, 112.781 318.835, 106.765 324 C 104.710 325.763, 101.664 329.592, 99.995 332.509 C 94 342.986, 92.937 350.868, 95.015 369.432 C 97.744 393.830, 98.704 398.451, 105.722 420.987 C 110.239 435.490, 112.191 443.410, 114.972 458.500 C 116.188 465.100, 117.805 473.875, 118.565 478 C 124.071 507.864, 124.478 513.307, 121.705 520 C 118.756 527.119, 117.600 538.975, 118.819 549.609 C 120.109 560.862, 123.785 575.822, 126.531 581 C 128.209 584.163, 128.381 587.003, 128.312 610.500 C 128.221 641.238, 127.464 646.442, 117.396 685.500 C 107.203 725.042, 90.842 777.509, 83.717 793.500 C 71.415 821.112, 67.985 829.336, 66.029 835.902 C 64.123 842.303, 64.024 843.453, 65.273 844.702 C 66.473 845.901, 67.765 845.947, 73.105 844.981 C 87.701 842.341, 88.212 841.984, 91.441 832.206 C 92.403 829.294, 94.245 825.019, 95.534 822.706 C 98.459 817.457, 103.483 803.819, 104.450 798.500 C 104.850 796.300, 106.263 792.124, 107.589 789.220 C 108.915 786.317, 110 783.165, 110 782.216 C 110 779.271, 116.421 762.668, 123.029 748.529 C 133.804 725.471, 137.983 710.436, 140.545 685.500 C 141.450 676.700, 142.519 669.151, 142.921 668.723 C 143.324 668.296, 145.682 669.081, 148.161 670.466 C 155.100 674.345, 170.717 677.815, 188.500 679.429 C 191.250 679.679, 203.124 680.205, 214.888 680.599 L 236.275 681.314 235.561 700.407 C 235.168 710.908, 234.478 723.775, 234.029 729 C 232.451 747.334, 233.588 766.729, 237.397 786.500 C 241.767 809.177, 243.628 822.657, 244.920 841 C 245.482 848.975, 246.643 858.425, 247.501 862 C 252.774 883.980, 253.449 885.372, 258.498 884.692 C 262.901 884.098, 267.833 880.514, 268.633 877.327 C 268.984 875.930, 268.776 872.472, 268.172 869.643 C 264.379 851.882, 263.122 810.313, 263.882 727.758 C 264.017 713.050, 263.931 700.675, 263.690 700.258 C 263.449 699.841, 262.947 695.112, 262.575 689.750 L 261.899 680 264.366 680 C 265.723 680, 266.983 680.395, 267.167 680.878 C 267.350 681.361, 271.182 683.601, 275.681 685.855 C 284.962 690.504, 287.270 693.029, 292.922 704.716 C 297.664 714.522, 305.852 723.577, 313.817 727.822 C 320.543 731.407, 335.033 736.350, 343.289 737.876 C 346.363 738.445, 352.290 740.055, 356.460 741.455 C 365.691 744.553, 366.750 744.583, 369.686 741.826 L 372 739.651 372 747.843 C 372 754.232, 371.358 757.956, 369.082 764.767 C 367.477 769.570, 365.015 777.325, 363.611 782 C 360.560 792.160, 357.230 797.258, 345.001 810.500 C 339.922 816, 335.306 821.625, 334.743 823 C 334.180 824.375, 333.075 826.985, 332.288 828.801 C 327.374 840.141, 330.165 842.880, 345.767 842.023 C 347.563 841.925, 352.172 842.815, 356.008 844.002 C 361.776 845.788, 363.564 845.969, 366.343 845.052 C 370.375 843.721, 374.978 839.696, 377.550 835.250 C 378.585 833.462, 379.734 832, 380.104 832 C 380.475 832, 381.084 833.687, 381.459 835.750 C 384.880 854.569, 390.958 862.560, 401.274 861.805 C 405.026 861.530, 405.528 861.175, 406.376 858.202 C 407.004 856.001, 406.925 853.006, 406.141 849.202 C 405.494 846.066, 404.513 839.450, 403.962 834.500 C 403.411 829.550, 402.023 818.400, 400.879 809.722 C 399.734 801.044, 399.097 792.748, 399.464 791.288 C 400.918 785.495, 411.505 773, 414.960 773 C 415.532 773, 416 774.538, 416 776.417 C 416 784.366, 422.154 792.619, 436.653 804.114 C 441.568 808.011, 449.941 818.027, 449.975 820.050 C 449.989 820.902, 450.427 822.027, 450.948 822.550 C 453.176 824.781, 455.093 836.290, 455.590 850.419 C 455.907 859.446, 456.638 866.554, 457.441 868.419 C 459.469 873.130, 468.471 881.633, 473.440 883.530 C 479.113 885.697, 483.354 884.567, 483.807 880.769 C 484.070 878.566, 483.562 878.014, 480.307 876.961 C 474.260 875.005, 468.639 871.970, 466.839 869.690 C 465.472 867.957, 465.241 865.727, 465.533 857.043 C 466.068 841.108, 464.544 828.594, 461.029 820.070 C 457.221 810.837, 453.352 806.014, 444.498 799.466 C 439.070 795.452, 436.068 792.209, 431.891 785.849 C 428.875 781.257, 425.641 775.700, 424.704 773.500 C 422.273 767.792, 422.039 750.682, 424.267 741.500 C 425.523 736.323, 425.975 729.943, 426.003 717 C 426.023 707.375, 426.478 696.575, 427.013 693 C 427.548 689.425, 428.267 682.675, 428.610 678 C 428.954 673.325, 429.538 667.700, 429.909 665.500 C 430.280 663.300, 430.708 653.400, 430.859 643.500 C 431.120 626.480, 433.357 605.233, 438.389 572 C 439.180 566.775, 440.399 555.889, 441.099 547.808 C 442.325 533.642, 442.287 532.713, 440.020 521.808 C 436.819 506.403, 436.360 499.846, 437.338 483.500 C 438.585 462.677, 438.467 461.585, 435.202 463.644 C 434.266 464.235, 433.175 466.469, 432.777 468.609 C 431.590 475.004, 431.693 514.884, 432.919 523.500 C 435.995 545.103, 435.582 563.353, 431.637 580.148 C 427.387 598.247, 424.195 623.281, 423.496 644 C 423.153 654.175, 422.694 664.075, 422.476 666 C 420.673 681.904, 420.037 692.641, 420.138 705.500 C 420.269 722.338, 419.007 729.664, 416.189 728.423 C 415.260 728.014, 409.100 725.891, 402.500 723.706 C 386.605 718.443, 379.273 714.804, 373.500 709.313 C 368.557 704.611, 360.167 698.312, 357.224 697.093 C 354.466 695.951, 353.985 695.232, 353.898 692.129 C 353.842 690.133, 353.642 686.025, 353.454 683 C 352.257 663.689, 352.152 655.743, 353.020 650 C 354.604 639.527, 354.249 598.478, 352.496 589.316 C 351.673 585.017, 350.985 577.900, 350.965 573.500 C 350.946 569.100, 350.270 561.900, 349.463 557.500 C 344.454 530.180, 344.667 533.686, 346.097 502 C 346.830 485.775, 347.445 468, 347.464 462.500 C 347.498 453.155, 347.369 452.500, 345.500 452.500 C 343.758 452.500, 343.408 453.405, 342.786 459.500 C 338.793 498.644, 337.688 512.027, 337.707 521 C 337.727 530.891, 340.926 556.767, 343.039 564.134 C 344.421 568.956, 344.300 569.198, 341.250 567.703 C 339.738 566.962, 336.700 565.866, 334.500 565.267 C 318.453 560.900, 314.775 559.492, 313.043 557.051 C 308.244 550.284, 302 536.390, 302 532.477 C 302 529.092, 297.231 510.608, 293.403 499.154 C 289.474 487.395, 289.546 485.136, 294.148 475.860 C 295.717 472.699, 297 469.648, 297 469.081 C 297 468.514, 298.399 465.001, 300.108 461.275 C 301.818 457.549, 304.070 452.340, 305.113 449.701 C 306.156 447.061, 307.946 443.066, 309.091 440.822 C 311.016 437.049, 311.049 436.622, 309.538 435.122 C 308.031 433.625, 307.757 433.693, 305.996 436 C 304.946 437.375, 302.605 441.477, 300.794 445.116 L 297.500 451.732 297.500 430.116 C 297.500 392.745, 293.933 371.456, 284.187 350.659 C 276.317 333.865, 269.870 326.529, 256.012 318.604 C 241.850 310.506, 230.344 305.818, 222.456 304.933 C 218.425 304.481, 213.411 303.669, 211.314 303.129 C 203.957 301.235, 183.903 299.855, 175 300.631 M 575.949 306.750 C 575.843 312.446, 576.201 335.621, 576.439 338.500 C 576.575 340.150, 576.757 345.212, 576.843 349.750 C 576.992 357.597, 577.110 357.999, 579.250 357.985 C 583.915 357.953, 584.507 356.729, 583.195 349.819 C 582.535 346.344, 581.560 338.550, 581.028 332.500 C 580.495 326.450, 579.841 319.025, 579.575 316 C 579.308 312.975, 579.070 309.038, 579.045 307.250 C 578.988 303.094, 576.026 302.616, 575.949 306.750 M 784.919 306.448 C 767.619 308.929, 758.778 311.720, 744.500 319.204 C 726.309 328.740, 719.928 334.776, 712.588 349.389 C 707.188 360.138, 705.358 366.634, 703.863 380.362 C 702.825 389.887, 703.153 412.217, 704.445 420 C 704.764 421.925, 705.238 424.757, 705.496 426.292 C 705.755 427.828, 706.220 434.578, 706.529 441.292 C 707.400 460.192, 709.038 481.919, 709.972 486.947 C 710.437 489.451, 711.139 495.100, 711.532 499.500 C 711.925 503.900, 712.393 508.300, 712.572 509.279 C 712.750 510.257, 713.202 516.107, 713.576 522.279 C 713.949 528.450, 714.384 534.850, 714.541 536.500 C 714.698 538.150, 714.866 540.513, 714.913 541.750 C 714.980 543.488, 715.595 544, 717.617 544 C 719.856 544, 720.140 543.676, 719.583 541.750 C 718.034 536.395, 717.158 521.889, 717.053 499.864 C 716.938 475.776, 715.769 455.478, 713.978 446.500 C 711.677 434.962, 711.032 425.130, 710.995 401 C 710.944 368.538, 712.189 363.435, 723.503 349.718 C 737.224 333.083, 768.023 314.521, 788.516 310.536 C 794.683 309.336, 816.301 309.823, 828.529 311.437 C 854.314 314.840, 866.797 319.813, 880.064 331.970 C 887.901 339.152, 890.744 346.700, 891.663 362.776 C 892.345 374.686, 891.575 381.682, 886.907 406 C 881.670 433.289, 880.186 438.709, 873.148 456.272 C 867.004 471.602, 864.493 478.955, 855.481 508 C 848.636 530.062, 844.102 553.213, 846.146 555.675 C 847.882 557.767, 848.789 557.250, 849.521 553.750 C 849.895 551.962, 851.969 545.144, 854.130 538.598 C 856.290 532.052, 858.444 525.077, 858.916 523.098 C 867.296 487.941, 872.102 472.547, 882.049 449 C 883.970 444.453, 886.351 433.680, 887.464 424.500 C 888.289 417.696, 889.350 411.702, 893.662 389.500 C 898.423 364.984, 898.815 351.145, 895.044 340.690 C 893.157 335.459, 891.096 332.268, 886.152 326.921 C 874.416 314.231, 868.894 311.484, 846.891 307.398 C 835.090 305.206, 797.585 304.631, 784.919 306.448 M 165 309.035 C 161.975 309.486, 157.025 310.117, 154 310.438 C 150.975 310.759, 146.700 311.495, 144.500 312.074 C 142.300 312.653, 138.669 313.567, 136.431 314.106 C 129.570 315.757, 114.244 326.616, 107.648 334.500 C 104.427 338.350, 101.388 342.542, 100.896 343.815 C 100.403 345.088, 100.009 351.388, 100.021 357.815 C 100.043 369.995, 100.129 370.414, 107.505 394 C 112.082 408.635, 114.905 419.101, 117.485 431 C 126.836 474.135, 127.649 478.559, 128.427 490.500 C 129.353 504.741, 130.094 509, 131.644 509 C 135.850 509, 138.914 521.006, 139.937 541.500 C 140.477 552.318, 140.990 555.339, 142.990 559.500 C 144.312 562.250, 145.739 565.400, 146.162 566.500 C 146.607 567.661, 146.741 566.403, 146.480 563.500 C 146.232 560.750, 145.762 552.200, 145.435 544.500 C 144.832 530.288, 143.630 524.195, 136.562 499.500 C 131.737 482.638, 127.096 463.002, 125.984 454.742 C 124.340 442.527, 119.538 420.075, 114.384 400.500 C 107.848 375.683, 107.871 375.815, 108.256 364.995 C 108.563 356.346, 109.080 353.518, 111.179 348.995 C 116.299 337.962, 123.659 331.295, 137.812 324.869 C 142.591 322.699, 147.400 320.507, 148.500 319.997 C 157.510 315.822, 162.797 314.826, 177.950 314.450 C 192.619 314.086, 193.884 314.210, 202.950 316.916 C 208.203 318.483, 215.425 320.585, 219 321.587 C 232.382 325.338, 251.620 335.085, 260.650 342.689 C 262.970 344.642, 270 355.294, 270 356.855 C 270 357.378, 271.338 361.787, 272.973 366.653 C 280.393 388.737, 281.863 400.005, 281.892 435 C 281.917 464.481, 281.522 471.401, 278.582 493 C 275.442 516.071, 274.326 521.601, 269.599 537.518 C 267.658 544.055, 266.166 549.486, 266.285 549.587 C 266.403 549.689, 268.413 550.087, 270.750 550.474 L 275 551.176 275 546.115 C 275 539.982, 279.457 513.447, 285.600 483 C 290.584 458.304, 291.639 445.206, 291.359 411.500 C 291.024 371.165, 280.300 343.585, 259.782 330.296 C 253.838 326.446, 233.896 316.064, 228.500 314.010 C 227.400 313.592, 225.150 312.690, 223.500 312.006 C 221.850 311.323, 219.150 310.350, 217.500 309.846 C 213.528 308.631, 172.016 307.990, 165 309.035 M 454.699 315.672 C 453.468 319.412, 453.366 321.510, 454.189 326.183 C 455.048 331.061, 454.942 332.603, 453.543 335.551 C 452.113 338.564, 451.903 342.190, 452.106 360.290 C 452.237 371.956, 452.741 382.607, 453.227 383.961 C 454.915 388.661, 453.577 390.540, 448.383 390.766 C 445.805 390.878, 442.586 391.696, 441.232 392.584 C 439.009 394.040, 438.920 394.348, 440.316 395.745 C 441.610 397.038, 442.736 397.119, 447.182 396.237 C 450.107 395.656, 452.625 395.303, 452.778 395.452 C 452.931 395.601, 452.593 396.939, 452.028 398.426 C 451.463 399.913, 451 402.402, 451 403.957 C 451 406.132, 450.428 406.927, 448.518 407.406 C 445.195 408.240, 443 412.805, 443 418.882 C 443 427.245, 444.947 427.985, 476.500 431.609 C 501.726 434.507, 506.061 434.501, 522.028 431.539 C 529.988 430.063, 541.675 428.474, 548 428.007 C 559.738 427.140, 567.780 425.723, 571.127 423.932 C 574.841 421.944, 572.875 416.183, 567.070 412.050 C 563.439 409.464, 550.047 406.749, 548.238 408.231 C 546.410 409.729, 548.575 411.992, 551.872 412.030 C 553.846 412.053, 554.127 412.276, 553 412.924 C 548.269 415.647, 471.976 417.458, 461 415.108 C 452.056 413.193, 451.311 412.002, 459.050 411.989 C 462.598 411.983, 467.637 411.330, 470.250 410.537 C 474.711 409.183, 475 409.207, 475 410.925 C 475 413.986, 477.571 415.148, 484.696 415.309 C 489.783 415.424, 492.177 415.007, 494.183 413.660 C 496.435 412.147, 497.238 412.057, 499.183 413.099 C 501.512 414.346, 511.399 414.483, 518 413.360 C 519.925 413.032, 522.625 412.799, 524 412.843 C 543.115 413.448, 545 413.140, 545 409.420 C 545 407.548, 543.705 406.147, 539.477 403.442 C 536.440 401.499, 531.893 399.026, 529.374 397.946 C 525.745 396.390, 524.938 395.620, 525.491 394.241 C 526.218 392.428, 526.232 365.048, 525.507 361.518 C 525.280 360.408, 523.905 354.589, 522.453 348.587 C 520.369 339.974, 519.885 335.822, 520.156 328.888 C 520.400 322.650, 520.125 319.727, 519.208 318.809 C 517.408 317.007, 516.454 318.792, 514.945 326.792 C 513.426 334.843, 514.234 348.013, 516.615 354 C 518.049 357.607, 518.412 361.511, 518.446 373.673 C 518.469 382.017, 518.266 389.015, 517.994 389.222 C 517.722 389.429, 514.951 389.425, 511.836 389.212 C 506.826 388.870, 506.103 388.545, 505.564 386.400 C 504.558 382.391, 499.501 378.466, 492.775 376.472 C 489.324 375.450, 485.577 374.032, 484.450 373.322 C 481.514 371.474, 478.379 373.939, 476.863 379.287 L 475.669 383.500 474.777 379 C 473.047 370.275, 475.117 356.076, 479.829 344.339 C 484.144 333.589, 483.422 317.090, 478.595 316.161 C 476.801 315.815, 476.725 316.322, 477.282 324.927 C 477.931 334.944, 476.824 340.424, 472.595 348.129 C 466.961 358.395, 466.674 379.726, 471.882 401.250 C 472.689 404.583, 472.579 405, 470.895 405 C 469.673 405, 469 404.297, 469 403.020 C 469 401.931, 468.394 399.344, 467.654 397.270 C 464.601 388.721, 464.287 387.238, 465.189 385.627 C 465.693 384.727, 466.311 380.011, 466.564 375.148 C 466.951 367.682, 466.695 365.566, 464.920 361.551 C 463.117 357.477, 462.865 355.273, 463.158 346.148 C 463.491 335.782, 463.438 335.474, 461.157 334.500 C 458.989 333.575, 458.868 333.125, 459.538 328.500 C 460.675 320.650, 460.343 312.833, 458.833 311.876 C 456.642 310.487, 456.304 310.797, 454.699 315.672 M 795.839 317.723 C 789.638 318.379, 771.080 335.244, 762.723 347.817 C 758.228 354.580, 755.260 363.559, 753.903 374.500 C 753.358 378.900, 752.743 383.474, 752.537 384.664 C 750.862 394.360, 750.958 405.683, 752.841 420.500 C 753.960 429.300, 755.151 441, 755.489 446.500 C 756.862 468.853, 758.052 480.867, 759.567 487.685 C 760.579 492.242, 760.841 499.679, 760.561 515.932 C 760.340 528.717, 760.566 538.232, 761.099 538.561 C 761.604 538.874, 762.822 538.874, 763.805 538.562 C 765.495 538.025, 765.583 535.024, 765.426 483.193 C 765.334 453.052, 764.982 427.516, 764.643 426.446 C 764.304 425.376, 762.879 416.400, 761.476 406.500 C 758.311 384.162, 758.202 372.995, 761.056 363.500 C 762.214 359.650, 763.431 355.600, 763.762 354.500 C 765.685 348.104, 774.140 337.420, 780.739 333.050 C 783.310 331.346, 791.176 328.091, 798.219 325.816 L 811.025 321.679 817.906 323.339 C 821.690 324.253, 825.561 325, 826.509 325 C 829.930 325, 838.215 328.574, 842.775 332.016 C 848.584 336.403, 857.584 347.370, 859.122 351.939 C 860.681 356.570, 859.593 373.081, 857.009 384 C 855.902 388.675, 854.142 396.775, 853.097 402 C 851.269 411.141, 847.964 421.794, 844.600 429.388 C 836.229 448.284, 834.643 454.213, 833.444 471.069 C 832.992 477.423, 830.972 497.550, 828.935 516 C 827.956 524.861, 826.496 536.032, 825.523 542.113 C 825.201 544.127, 825.657 544.978, 827.514 545.825 C 829.750 546.843, 829.964 546.691, 830.478 543.711 C 831.719 536.524, 833.996 511.028, 833.998 504.301 C 834 495.888, 837.003 479.376, 840.547 468.292 C 845.303 453.416, 845.854 451.460, 847.387 444 C 848.235 439.875, 849.794 433.800, 850.852 430.500 C 858.227 407.487, 864.823 383.388, 865.967 375.273 C 867.892 361.621, 864.116 346.377, 854.765 330.055 C 849.660 321.143, 851.046 321.721, 827 318.480 C 817.152 317.153, 804.209 316.839, 795.839 317.723 M 156.369 322.456 C 142.927 327.217, 137.621 330.913, 133.956 338.069 C 131.105 343.637, 128.201 354.711, 128.580 358.570 C 128.739 360.181, 129.157 364.425, 129.509 368 C 130.490 377.944, 132.740 387.988, 136.629 399.780 C 140.572 411.738, 144.904 437.096, 145.036 449 C 145.137 458.083, 145.466 460.034, 151.281 486 C 157.437 513.493, 158.173 518.966, 158.071 536.500 C 157.993 549.762, 159.360 566.694, 160.609 567.943 C 160.855 568.188, 162.006 567.439, 163.167 566.277 C 166.411 563.034, 166.930 544.402, 164.192 529.500 C 161.252 513.495, 160.107 503.960, 159.570 491 C 159.037 478.132, 157.985 469.630, 154.931 453.500 C 152.336 439.799, 150.900 434.779, 147.547 427.690 C 146.092 424.616, 144.200 418.141, 143.342 413.300 C 142.484 408.460, 140.439 400.450, 138.798 395.500 C 133.927 380.811, 133.032 376.055, 133.016 364.784 C 133.004 356.749, 133.431 353.121, 134.722 350.284 C 140.796 336.941, 153.255 327.253, 167.137 325.077 C 176.867 323.553, 200.086 325.233, 207 327.962 C 214.689 330.996, 211.547 328.263, 201.424 323.111 L 193.349 319 179.424 319.111 C 166.427 319.215, 164.892 319.438, 156.369 322.456 M 759.306 329.958 C 753.149 333.186, 746.086 337.221, 743.610 338.924 C 738.370 342.529, 729.207 351.847, 725.560 357.278 C 719.592 366.164, 719.681 365.653, 719.723 391 C 719.744 403.925, 720.248 418.775, 720.843 424 C 721.438 429.225, 721.994 438.296, 722.080 444.159 C 722.166 450.021, 722.616 458.796, 723.081 463.659 C 723.545 468.521, 724.143 485.100, 724.410 500.500 C 724.958 532.109, 726.248 542.635, 729.533 542.299 C 737.703 541.463, 750.901 539.839, 752.764 539.440 C 754.958 538.970, 755.023 538.623, 754.866 528.227 C 754.777 522.327, 754.922 514.125, 755.189 510 C 755.642 502.998, 754.799 492.224, 752.097 470.500 C 751.481 465.550, 750.789 459.925, 750.560 458 C 750.330 456.075, 749.225 447.509, 748.103 438.965 C 745.312 417.689, 744.861 370.605, 747.363 361.523 C 750.567 349.887, 756.296 339.805, 764.363 331.606 C 768.480 327.423, 771.544 324.020, 771.174 324.045 C 770.803 324.069, 765.463 326.730, 759.306 329.958 M 226 329.480 C 226 329.717, 227.845 334.093, 230.099 339.205 C 240.588 362.989, 243.078 375.099, 243.049 402.195 C 243.031 419.254, 241.770 433.237, 239.439 442.236 C 236.227 454.634, 232.062 483.451, 232.463 490.500 C 234.110 519.434, 234.122 523.720, 232.583 533 C 231.717 538.225, 231.006 543.975, 231.004 545.777 L 231 549.055 245.187 548.777 L 259.374 548.500 261.039 541 C 261.954 536.875, 263.865 530.125, 265.286 526 C 268.026 518.040, 272.272 500.470, 273.863 490.500 C 275.685 479.082, 275.783 409.374, 273.995 396.193 C 272.902 388.131, 269.594 372.994, 267.397 366 C 263.677 354.157, 256.216 346.097, 239.794 336.178 C 231.813 331.357, 226 328.534, 226 329.480 M 173 331.110 C 152.896 333.954, 138.727 348.163, 140.282 363.922 C 140.829 369.475, 142.803 384.470, 143.976 392 C 144.995 398.534, 145.311 399.703, 151.809 421 C 161.648 453.246, 162.612 457.532, 163.447 472.719 C 163.803 479.199, 164.948 489.675, 165.992 496 C 170.831 525.321, 171.197 529.173, 170.714 545.642 L 170.241 561.783 175.871 559.281 C 184.777 555.323, 192.722 553.047, 202.082 551.772 L 210.761 550.590 211.598 543.045 C 212.058 538.895, 212.478 520.875, 212.532 503 C 212.610 477.249, 212.955 469.150, 214.192 464 C 215.051 460.425, 215.798 455.734, 215.853 453.577 C 216.025 446.791, 218.030 434.175, 220.569 423.916 C 221.914 418.477, 223.637 409.256, 224.397 403.425 C 225.708 393.360, 225.664 392.257, 223.526 381.661 C 222.288 375.523, 220.959 368.250, 220.574 365.500 C 219.053 354.640, 213.216 341.148, 208.276 337.076 C 201.441 331.442, 187.416 329.070, 173 331.110 M 215.089 333 C 217.545 336.374, 220.790 344.886, 227.290 365 C 230.092 373.674, 230.354 375.630, 230.300 387.500 C 230.257 397.038, 229.510 404.628, 227.494 416 C 222.170 446.035, 220.961 453.591, 219.972 463 C 218.651 475.555, 217.263 550.049, 218.337 550.710 C 218.798 550.994, 219.640 550.760, 220.209 550.191 C 222.183 548.217, 225.284 521.401, 226.534 495.500 C 227.160 482.528, 227.304 480.792, 228.510 471.660 C 229.250 466.063, 229.041 467.185, 232.356 451 C 236.798 429.319, 238.001 418.547, 237.987 400.574 C 237.972 381.764, 235.813 366.019, 231.882 356.054 C 229.089 348.972, 219.875 335.252, 215.729 332 L 212.542 329.500 215.089 333 M 866.508 331.750 C 870.815 342.197, 875.924 357.535, 876.478 361.684 C 877.235 367.356, 876.163 373.992, 872.468 386.500 C 871.169 390.900, 868.473 402.600, 866.477 412.500 C 864.127 424.154, 860.602 437.198, 856.479 449.500 C 848.633 472.906, 841.451 501.314, 839.539 516.500 C 838.318 526.194, 836.740 549.073, 837.256 549.589 C 838.674 551.008, 840 548.583, 840 544.571 C 840 535.554, 846.891 502.512, 852.007 487 C 854.148 480.506, 860.676 462.398, 864.443 452.500 C 872.389 431.623, 875.687 419.656, 880.980 392.500 C 882.557 384.410, 884.059 366.822, 883.895 358.361 C 883.718 349.232, 881.270 343.003, 875.249 336.368 C 870.210 330.813, 864.983 328.052, 866.508 331.750 M 805.500 333.874 C 796.378 336.276, 786.016 343.193, 775.670 353.786 C 771.093 358.472, 770.780 359.145, 769.706 366.616 C 768.317 376.273, 768.333 380.281, 769.857 405.041 C 770.519 415.788, 771.224 448.638, 771.425 478.041 C 771.625 507.443, 772.027 532.400, 772.318 533.500 C 772.609 534.600, 772.881 536.008, 772.923 536.630 C 772.973 537.366, 777.438 538.007, 785.750 538.471 C 792.763 538.862, 802.100 539.808, 806.500 540.572 C 810.900 541.337, 814.837 541.971, 815.250 541.982 C 815.663 541.992, 816.001 540.087, 816.002 537.750 C 816.005 533.184, 818.409 508.968, 819.998 497.500 C 820.531 493.650, 821.412 486.450, 821.955 481.500 C 823.690 465.675, 825.027 457.398, 826.902 450.868 C 828.449 445.479, 835.880 426.183, 838.982 419.500 C 839.492 418.400, 841.968 410.075, 844.483 401 C 846.999 391.925, 849.725 382.250, 850.543 379.500 C 853.849 368.372, 853.137 357.879, 848.430 348.380 C 845.641 342.751, 841.145 339.663, 830.316 335.937 C 824.006 333.766, 810.251 332.622, 805.500 333.874 M 121.455 341.250 C 116.772 346.627, 114.345 351.976, 113.161 359.529 C 111.616 369.379, 113.406 378.467, 119.492 391.672 C 121.310 395.617, 123.100 400.792, 123.469 403.172 C 123.838 405.552, 124.523 408.850, 124.991 410.500 C 125.460 412.150, 126.079 417.325, 126.367 422 C 126.935 431.209, 129.700 444.289, 135.879 467 C 138.049 474.975, 140.345 484.200, 140.981 487.500 C 141.617 490.800, 142.519 495.075, 142.985 497 C 143.451 498.925, 144.822 505.900, 146.032 512.500 C 147.243 519.100, 148.838 526.525, 149.577 529 C 150.802 533.099, 150.882 532.097, 150.480 517.740 C 150.047 502.309, 148.632 493.720, 144.673 482.487 C 143.081 477.969, 141.728 470.067, 139.454 452 C 138.588 445.125, 137.686 438.046, 137.449 436.269 C 136.789 431.331, 135.256 424.952, 133.613 420.308 C 131.393 414.033, 124.995 382.710, 123.950 373 C 122.447 359.033, 122.631 344.820, 124.368 340.662 C 125.209 338.648, 125.731 337, 125.527 337 C 125.323 337, 123.490 338.913, 121.455 341.250 M 457.361 351.250 C 457.730 358.538, 458.215 365.400, 458.439 366.500 C 458.664 367.600, 458.881 369.288, 458.923 370.250 C 458.970 371.314, 459.792 372, 461.019 372 C 463.292 372, 463.127 369.863, 460.286 362.500 C 459.213 359.721, 458.783 355.372, 458.875 348.250 C 458.967 341.073, 458.659 338, 457.848 338 C 456.995 338, 456.867 341.489, 457.361 351.250 M 603.120 343.492 C 596.326 345.021, 595.223 345.557, 596.419 346.750 C 597.754 348.082, 620.768 347.634, 622.151 346.250 C 625.712 342.686, 614.147 341.010, 603.120 343.492 M 423 353.838 L 416.500 355.500 424.707 355.790 C 433.521 356.101, 439.120 355.140, 439.765 353.204 C 440.349 351.452, 430.943 351.808, 423 353.838 M 595.014 354.937 C 595.021 356.347, 595.301 358.523, 595.636 359.773 C 596.161 361.733, 596.401 361.835, 597.373 360.510 C 599.571 357.513, 614.421 356.593, 617.750 359.248 C 620.609 361.528, 618.197 372.913, 614.186 376.068 C 612.836 377.131, 610.553 378.007, 609.115 378.015 C 607.232 378.026, 606.887 378.276, 607.881 378.905 C 610.072 380.293, 608.994 415.833, 606.653 419.407 L 604.954 422 611.477 422 C 615.065 422, 618 421.810, 618 421.577 C 618 421.344, 616.705 419.858, 615.121 418.275 C 611.971 415.125, 611.646 413.355, 610.439 392.762 L 609.809 382.025 613.920 378.334 C 618.819 373.937, 620.252 371.269, 622.588 362.200 C 625.232 351.938, 625.554 352.174, 609.068 352.282 L 595 352.374 595.014 354.937 M 412.535 363 C 413.998 368.921, 419.188 378.858, 423.182 383.389 C 425.557 386.082, 428.269 389.684, 429.208 391.393 C 430.148 393.102, 430.945 393.825, 430.980 393 C 431.016 392.175, 431.957 390.375, 433.072 389 C 439.148 381.509, 439.894 379.516, 440.368 369.516 L 440.826 359.850 426.372 360.175 L 411.917 360.500 412.535 363 M 575.967 366.619 C 574.951 370.246, 574.961 371.897, 576.019 375.299 C 576.738 377.609, 577.400 380.400, 577.491 381.500 C 577.582 382.600, 577.995 384.256, 578.409 385.181 C 578.857 386.182, 578.118 389.968, 576.580 394.545 C 573.142 404.781, 573.145 408.747, 576.591 409.612 C 580.147 410.505, 587 408.341, 587 406.326 C 587 404.808, 586.582 403.046, 583.481 391.500 C 581.483 384.061, 580.688 375.311, 581.940 374.537 C 583.134 373.799, 583.366 365.066, 582.235 363.452 C 581.831 362.876, 580.537 362.345, 579.360 362.272 C 577.640 362.167, 576.975 363.019, 575.967 366.619 M 419.340 369.259 C 418.263 371.001, 421.814 380.710, 424.823 384.250 C 428.378 388.433, 434.676 384.150, 437.160 375.862 C 439.071 369.482, 437.877 368.509, 428.070 368.452 C 423.559 368.425, 419.631 368.788, 419.340 369.259 M 457.355 377.517 C 457.035 378.351, 457.093 380.263, 457.483 381.767 C 458.589 386.021, 458.030 394.262, 456.148 401.472 C 455.577 403.656, 455.290 405.623, 455.509 405.842 C 455.728 406.062, 457.955 405.934, 460.457 405.559 C 464.781 404.910, 464.975 404.743, 464.365 402.188 C 464.012 400.710, 463.336 398.742, 462.862 397.816 C 462.388 396.889, 462 395.196, 462 394.052 C 462 392.909, 461.453 391.097, 460.785 390.027 C 459.831 388.499, 459.831 387.357, 460.785 384.719 C 462.438 380.147, 462.311 377.333, 460.418 376.607 C 458.199 375.755, 458.010 375.812, 457.355 377.517 M 481.490 378.776 C 480.656 380.817, 479.016 409.161, 479.668 410.250 C 479.916 410.663, 481.244 411, 482.620 411 C 485.043 411, 485.099 410.848, 484.383 406.250 C 483.120 398.148, 483.551 388.775, 485.381 384.516 C 486.491 381.934, 486.719 380.406, 486.029 380.176 C 485.443 379.981, 484.341 379.198, 483.579 378.436 C 482.399 377.256, 482.090 377.307, 481.490 378.776 M 490.276 384.250 C 488.895 386.776, 488.506 389.778, 488.528 397.728 C 488.544 403.354, 489.013 408.413, 489.570 408.970 C 490.255 409.655, 491.597 409.601, 493.708 408.804 C 496.168 407.876, 497.693 407.909, 500.876 408.959 C 504.143 410.037, 506.511 410.067, 513.210 409.111 C 522.818 407.740, 523.227 407.729, 532.500 408.573 C 537.070 408.989, 539.153 408.870, 538.500 408.231 C 536.581 406.353, 523.425 400.044, 513.500 396.243 C 504.702 392.873, 503.292 391.998, 501.773 388.956 C 499.821 385.049, 495.595 381, 493.470 381 C 492.690 381, 491.252 382.462, 490.276 384.250 M 530.709 390.663 C 529.305 392.933, 532.295 394.515, 540.200 395.686 C 555.372 397.933, 566 397.067, 566 393.584 C 566 392.778, 565.647 391.900, 565.216 391.633 C 563.620 390.647, 531.280 389.737, 530.709 390.663 M 623 401.252 C 623 403.576, 623.668 403.958, 631.250 405.967 C 644.340 409.435, 648.167 410.649, 653.500 413.027 L 658.500 415.256 649.539 419.559 C 637.130 425.519, 631.238 426.861, 597 431.527 C 591.225 432.314, 582 433.609, 576.500 434.404 C 570.306 435.299, 553.940 436.065, 533.500 436.415 C 515.350 436.727, 496 437.456, 490.500 438.036 C 485 438.616, 469.700 439.561, 456.500 440.136 C 416.586 441.875, 416.704 441.864, 413.557 444.373 C 410.875 446.511, 410.830 446.687, 412.520 448.377 C 413.573 449.430, 415.138 449.936, 416.394 449.629 C 419.607 448.842, 438.291 447.092, 449.500 446.528 C 455 446.251, 481.812 446.019, 509.081 446.013 C 557.475 446.002, 579.206 445, 594.657 442.066 C 597.494 441.528, 604.694 440.602, 610.657 440.009 C 621.519 438.929, 633.847 436.862, 639.533 435.168 C 644.776 433.606, 653.613 429.085, 655.499 427.001 C 656.495 425.901, 657.848 425, 658.505 425 C 660.888 425, 667.769 419.100, 668.786 416.185 C 670.014 412.662, 668.479 409.802, 664.189 407.621 C 660.196 405.591, 637.503 400.172, 629.750 399.398 C 623.019 398.726, 623 398.731, 623 401.252 M 447.553 416.780 C 446.503 417.830, 447.004 420.862, 448.470 422.327 C 449.278 423.135, 452.766 424.103, 456.220 424.477 C 459.674 424.851, 470.926 426.235, 481.226 427.552 C 499.171 429.848, 500.441 429.886, 511.726 428.470 C 518.201 427.658, 526.875 426.343, 531 425.549 C 535.125 424.755, 540.270 424.082, 542.432 424.053 C 544.595 424.024, 550.371 423.486, 555.267 422.858 C 562.825 421.889, 564.292 421.398, 564.980 419.608 C 566.134 416.607, 565.068 415.978, 560.500 416.963 C 555.699 417.999, 528.087 419.893, 508 420.563 C 500.025 420.830, 489.860 421.228, 485.412 421.448 C 476.559 421.887, 460.201 420.004, 452.803 417.694 C 450.219 416.887, 447.857 416.476, 447.553 416.780 M 592.433 465.505 C 588.838 474.111, 587.786 482.112, 588.425 496 C 588.767 503.425, 589.068 512.200, 589.093 515.500 C 589.164 524.582, 590.889 545.330, 592.459 556 C 593.229 561.225, 594.382 571.575, 595.023 579 C 595.663 586.425, 596.849 598.350, 597.658 605.500 C 602.550 648.745, 603.592 662.582, 602.093 664.388 C 601.282 665.365, 601.237 666.028, 601.951 666.470 C 602.528 666.826, 603.003 669.679, 603.006 672.809 C 603.012 679.676, 604.389 685.031, 606.954 688.170 C 609.760 691.604, 610.944 689.640, 611.623 680.431 C 611.945 676.069, 612.550 668.675, 612.967 664 C 613.679 656.021, 613.435 612.068, 612.642 605.500 C 612.442 603.850, 611.960 599.800, 611.570 596.500 C 611.180 593.200, 608.888 580.600, 606.476 568.500 C 604.063 556.400, 601.155 540.875, 600.012 534 C 598.869 527.125, 597.048 517.345, 595.967 512.267 C 592.640 496.651, 593.713 479.828, 598.711 469.220 C 600.135 466.197, 600.117 465.787, 598.473 463.970 C 595.869 461.093, 594.088 461.545, 592.433 465.505 M 700.477 492.190 C 699.446 495.660, 697.865 500.184, 696.964 502.243 C 695.428 505.755, 695.445 506.464, 697.247 513.743 C 698.303 518.009, 699.290 521.623, 699.441 521.774 C 699.591 521.925, 700.779 519.225, 702.080 515.774 C 703.982 510.731, 704.451 507.539, 704.470 499.500 C 704.484 494, 704.013 488.685, 703.424 487.690 C 702.520 486.161, 702.061 486.861, 700.477 492.190 M 873.843 499 C 873.481 500.375, 872.452 504.425, 871.556 508 C 870.660 511.575, 869.474 516.300, 868.921 518.500 C 867.442 524.375, 863.879 536.194, 862.892 538.500 C 860.578 543.900, 852.151 570.149, 851.507 573.960 C 850.835 577.939, 850.929 578.237, 852.637 577.537 C 853.662 577.117, 855.288 576.547, 856.250 576.270 C 857.212 575.993, 858 575.380, 858 574.908 C 858 574.436, 859.321 571.166, 860.935 567.641 C 867.048 554.295, 872.995 534.402, 874.068 523.708 C 875.153 512.912, 874.986 494.653, 873.843 499 M 287.523 509.229 C 286.559 518.351, 286.545 518.100, 288.489 526.500 C 289.380 530.350, 291.054 537.881, 292.209 543.235 C 294.384 553.316, 295.583 555.276, 300.250 556.385 C 303.426 557.139, 303.598 556.506, 301.411 552.123 C 300.537 550.371, 299.225 545.689, 298.494 541.719 C 297.280 535.118, 289.158 502.862, 288.551 502.229 C 288.408 502.080, 287.945 505.230, 287.523 509.229 M 127.640 517.729 C 123.595 525.552, 124.847 550.483, 130.078 566.248 C 134.347 579.111, 138.053 585.163, 144.821 590.320 C 153.093 596.622, 153.572 596.754, 150.580 591.899 C 146.961 586.028, 144.221 579.765, 142.805 574.130 C 142.165 571.584, 140.314 566.575, 138.691 563 C 136.025 557.129, 135.662 555.045, 134.942 541.472 C 134.324 529.811, 133.662 525.217, 131.989 520.972 C 130.803 517.962, 129.678 515.346, 129.490 515.157 C 129.302 514.968, 128.469 516.126, 127.640 517.729 M 703.601 528.941 C 702.004 533.939, 701.898 535.636, 702.847 541.020 C 704.112 548.202, 704.147 548.265, 706.380 547.408 C 707.609 546.936, 707.918 545.945, 707.557 543.634 C 707.287 541.910, 706.802 536.687, 706.477 532.027 C 706.153 527.367, 705.791 523.458, 705.673 523.340 C 705.556 523.222, 704.623 525.743, 703.601 528.941 M 282.234 544.233 C 281.614 548.230, 281.421 551.778, 281.804 552.118 C 282.187 552.458, 283.964 553.009, 285.753 553.343 L 289.006 553.951 287.616 550.624 C 286.851 548.794, 285.928 545.533, 285.564 543.378 C 284.392 536.440, 283.403 536.694, 282.234 544.233 M 151.103 549.691 C 151.042 556.856, 151.412 562.137, 152 562.500 C 152.550 562.840, 153.032 564.779, 153.070 566.809 C 153.109 568.839, 153.505 571.400, 153.950 572.500 C 155.016 575.135, 154.086 559.064, 152.475 547 L 151.206 537.500 151.103 549.691 M 741.227 546.963 C 728.088 548.473, 724.599 548.960, 716.047 550.478 C 711.397 551.303, 707.032 552.545, 706.345 553.239 C 705.371 554.224, 705.340 556.059, 706.205 561.610 L 707.312 568.719 710.906 567.897 C 715.476 566.851, 724.289 567.646, 734.500 570.025 C 738.900 571.050, 745.155 572.410, 748.401 573.047 C 756.932 574.720, 789.342 574.441, 802.304 572.583 C 812.924 571.060, 836.191 566.040, 840.898 564.255 C 843.292 563.348, 843.289 563.342, 839.710 561.130 C 837.738 559.911, 831.934 558.082, 826.812 557.065 C 821.690 556.048, 813 553.980, 807.500 552.468 C 802 550.956, 793.900 549.113, 789.500 548.371 C 779.497 546.685, 750.905 545.851, 741.227 546.963 M 226 557.027 C 222.975 557.446, 215.100 558.323, 208.500 558.975 C 194.313 560.378, 181.556 563.167, 175.709 566.144 C 169.606 569.252, 159.279 577.612, 160.292 578.626 C 160.584 578.917, 171.100 580.492, 183.661 582.125 C 204.454 584.828, 210.059 585.147, 246.238 585.693 C 285.293 586.283, 299.261 585.618, 306.929 582.805 C 308.265 582.315, 312.765 581.674, 316.929 581.380 C 326.130 580.733, 333.514 579.528, 337.417 578.037 C 340.216 576.968, 340.255 576.867, 338.387 575.559 C 334.255 572.664, 323.270 568.939, 313.108 566.986 C 307.273 565.864, 300.475 564.308, 298 563.528 C 290.115 561.041, 277.737 558.798, 270 558.454 C 265.875 558.271, 256.200 557.840, 248.500 557.498 C 240.800 557.155, 233.825 556.737, 233 556.569 C 232.175 556.402, 229.025 556.608, 226 557.027 M 844.804 570.437 C 841.761 573.116, 835.823 574.607, 822.587 576.015 C 817.589 576.547, 809.675 577.474, 805 578.075 C 785.029 580.645, 770.206 581.116, 760.500 579.489 C 758.850 579.212, 752.325 578.535, 746 577.983 C 739.675 577.432, 729.775 576.534, 724 575.989 C 718.225 575.443, 712.211 574.998, 710.635 574.999 L 707.770 575 708.476 580.657 C 709.576 589.458, 708.867 588.997, 721.357 589.021 C 727.486 589.033, 741.050 589.701, 751.500 590.507 C 775.556 592.361, 785.507 592.357, 800.500 590.489 C 816.530 588.492, 817.995 588.226, 828.932 585.333 C 844.464 581.225, 845.737 580.526, 846.543 575.671 C 846.924 573.377, 847.382 570.712, 847.560 569.750 C 847.961 567.591, 848.066 567.565, 844.804 570.437 M 151.167 580.750 C 151.350 581.163, 153.273 585.171, 155.439 589.658 L 159.378 597.817 164.439 598.404 C 167.223 598.728, 178.275 599.222, 189 599.504 C 206.494 599.963, 212.273 600.260, 228 601.506 C 230.475 601.702, 236.775 602.194, 242 602.599 C 265.232 604.403, 310.435 602.359, 323.602 598.910 C 337.558 595.255, 345.964 589.905, 345.459 585 C 345.374 584.175, 345.236 582.973, 345.152 582.329 C 345.053 581.565, 343.523 581.919, 340.750 583.349 C 334.196 586.727, 330.028 587.928, 320.905 589.066 C 316.282 589.643, 310.700 590.460, 308.500 590.882 C 301.925 592.144, 224.819 591.120, 205 589.507 C 201.975 589.261, 195.900 588.781, 191.500 588.441 C 178.368 587.426, 161.253 584.301, 156.664 582.080 C 152.126 579.882, 150.619 579.518, 151.167 580.750 M 852.760 586.250 C 851.590 587.152, 850.911 590.142, 850.319 597 C 849.317 608.618, 849.717 635.978, 851.028 645.500 C 851.558 649.350, 852.446 660.600, 853.002 670.500 C 854.189 691.640, 856.139 710.974, 859.456 734.500 C 860.774 743.850, 862.154 756, 862.524 761.500 C 863.462 775.463, 867.390 797.072, 871.090 808.622 C 875.170 821.360, 879.859 826.275, 884.891 823.089 C 885.968 822.406, 886.124 820.776, 885.580 815.854 C 884.851 809.257, 881.945 795.520, 879.265 786 C 874.051 767.482, 870.703 749.114, 867.509 721.500 C 866.109 709.400, 864.070 692.750, 862.977 684.500 C 859.696 659.727, 858.152 640.696, 857.539 617.500 C 856.910 593.633, 856.267 585, 855.119 585 C 854.714 585, 853.652 585.563, 852.760 586.250 M 838.090 591.066 C 833.083 592.844, 829.902 593.681, 813.500 597.535 C 810.200 598.311, 803 599.437, 797.500 600.037 C 792 600.638, 786.150 601.326, 784.500 601.568 L 781.500 602.006 781.375 609.359 L 781.250 616.712 789.375 616.763 C 804.930 616.859, 827.752 624.123, 842.666 633.725 L 844.832 635.120 844.785 612.060 C 844.760 599.377, 844.460 589.033, 844.119 589.073 C 843.779 589.113, 841.066 590.010, 838.090 591.066 M 136.387 609.845 C 136.422 617.355, 135.874 627.325, 135.169 632 C 134.464 636.675, 133.445 643.650, 132.904 647.500 C 131.605 656.760, 121.179 703.762, 118.375 713 C 117.624 715.475, 115.456 722.675, 113.558 729 C 108.069 747.291, 99.258 773.328, 96.416 779.651 C 95.637 781.384, 95 783.070, 95 783.397 C 95 783.724, 93.381 787.481, 91.401 791.746 C 80.565 815.097, 76.562 825.197, 74.593 834.157 C 74.271 835.619, 73.733 837.531, 73.397 838.407 C 72.944 839.589, 73.395 839.996, 75.143 839.985 C 78.613 839.962, 79.376 839.080, 81.287 832.880 C 82.241 829.789, 84.182 825.064, 85.601 822.380 C 94.329 805.876, 102.530 788.376, 104.524 782 C 105.470 778.975, 108.831 769.975, 111.993 762 C 115.154 754.025, 118.078 746.375, 118.490 745 C 118.902 743.625, 120.268 740.250, 121.527 737.500 C 130.704 717.445, 132.675 709.702, 133.561 690.225 C 133.855 683.776, 134.755 675.800, 135.562 672.500 C 136.369 669.200, 137.304 665.375, 137.640 664 C 138.382 660.956, 139.699 639.628, 140.604 615.973 L 141.274 598.446 138.798 597.318 L 136.322 596.190 136.387 609.845 M 711.329 600.750 C 711.652 603.362, 712.218 608.763, 712.587 612.750 C 713.064 617.898, 713.656 620, 714.629 620 C 716.509 620, 716.442 611.776, 714.511 605.409 C 713.692 602.709, 713.017 599.487, 713.011 598.250 C 713.005 597.013, 712.492 596, 711.871 596 C 711.109 596, 710.933 597.542, 711.329 600.750 M 719.576 598.500 C 719.949 599.600, 720.467 604.452, 720.728 609.283 L 721.201 618.067 725.556 617.783 C 729.301 617.540, 729.857 617.220, 729.529 615.500 C 729.320 614.400, 729.115 609.831, 729.074 605.347 L 729 597.193 723.948 596.847 C 719.269 596.526, 718.947 596.648, 719.576 598.500 M 340.500 601.538 C 329.713 608.865, 311.919 611.563, 282 610.410 L 264.500 609.736 264.348 616.118 C 264.264 619.628, 263.878 624.335, 263.489 626.578 L 262.783 630.656 283.641 632.295 C 295.114 633.197, 309.511 634.175, 315.636 634.469 C 329.454 635.133, 331.997 635.612, 339.500 638.964 L 345.500 641.645 345.789 619.823 C 345.948 607.820, 345.948 598.032, 345.789 598.071 C 345.630 598.110, 343.250 599.670, 340.500 601.538 M 734.574 598.881 C 733.901 599.969, 734.374 607.147, 735.521 613.263 L 736.223 617 744.552 617 C 749.134 617, 753.047 616.663, 753.249 616.250 C 753.451 615.837, 753.365 612.166, 753.058 608.091 C 752.641 602.556, 752.121 600.630, 751 600.477 C 750.175 600.364, 746.842 599.944, 743.593 599.544 C 740.345 599.144, 737.128 598.602, 736.444 598.340 C 735.761 598.078, 734.919 598.321, 734.574 598.881 M 758.441 619.918 C 758.493 636.287, 757.762 655.940, 756.522 671.500 C 756.303 674.250, 755.851 689.325, 755.518 705 C 755.184 720.675, 754.462 738.225, 753.912 744 C 753.362 749.775, 752.735 756.525, 752.517 759 C 751.999 764.905, 750.558 818.321, 750.525 832.837 C 750.500 844.033, 750.535 844.205, 753.306 846.587 C 757.230 849.962, 758.500 849.627, 760.275 844.750 C 764.178 834.024, 765.448 817.946, 765.863 774 C 766.258 732.133, 766.824 704.557, 767.342 702 C 768.618 695.700, 770.005 676.807, 770.502 658.966 C 770.802 648.223, 771.471 634.723, 771.990 628.966 C 772.508 623.210, 772.948 614.788, 772.966 610.250 L 773 602 769.250 601.896 C 767.188 601.838, 763.898 601.689, 761.941 601.563 L 758.382 601.335 758.441 619.918 M 147.613 606.160 C 147.318 608.547, 146.813 616.739, 146.491 624.364 C 146.168 631.989, 145.630 639.602, 145.294 641.282 C 144.753 643.987, 144.901 644.251, 146.591 643.592 C 149.416 642.492, 174.714 635.415, 180.500 634.106 C 191.912 631.526, 201.946 630.933, 216.598 631.973 C 224.624 632.544, 232.273 633.281, 233.596 633.613 C 234.918 633.945, 236.013 633.831, 236.029 633.358 C 236.289 625.641, 237.231 611.201, 237.536 610.250 C 237.818 609.371, 236.389 608.954, 232.719 608.845 C 226.656 608.665, 221.924 608.409, 209.500 607.589 C 204.550 607.262, 195.775 606.747, 190 606.444 C 179.326 605.884, 154.285 603.297, 150.325 602.344 C 148.398 601.881, 148.088 602.317, 147.613 606.160 M 241.049 611.092 C 241.837 612.564, 241.961 625.547, 241.480 656.328 C 241.110 680.073, 240.657 700.809, 240.474 702.409 C 239.813 708.188, 238.521 739.612, 238.753 744.299 C 238.883 746.939, 240.155 754.139, 241.578 760.299 C 243.337 767.907, 244.458 776.633, 245.073 787.500 C 245.571 796.300, 246.406 806.200, 246.928 809.500 C 247.451 812.800, 248.375 822.025, 248.983 830 C 250.577 850.948, 252.618 862.479, 256.723 873.750 C 257.949 877.115, 258.764 878, 260.636 878 C 263.415 878, 263.408 878.094, 261.550 866.500 C 259.898 856.187, 259.325 841.882, 258.419 788.222 C 258.063 767.169, 257.626 748.269, 257.448 746.222 C 257.271 744.175, 256.855 729, 256.524 712.500 C 256.194 696, 255.439 678, 254.848 672.500 C 253.369 658.745, 253.658 639.754, 255.479 631.098 C 256.314 627.131, 257.287 620.761, 257.642 616.942 L 258.287 610 253.394 609.901 C 250.702 609.846, 246.575 609.627, 244.222 609.415 C 240.165 609.048, 240.002 609.135, 241.049 611.092 M 724.269 623.180 C 715.362 624.403, 713 625.484, 713 628.341 L 713 630.731 719.750 628.789 C 725.494 627.136, 728.559 626.924, 740.311 627.371 L 754.123 627.895 753.811 625.198 L 753.500 622.500 742 622.412 C 735.675 622.364, 727.696 622.710, 724.269 623.180 M 780 624.326 C 780 627.305, 779.431 627.154, 799.500 629.481 C 823.802 632.300, 835 635.230, 835 638.771 C 835 641.341, 826.619 645.975, 819.140 647.540 C 815.582 648.284, 804.982 649.207, 795.585 649.591 C 778.862 650.273, 777.052 650.683, 777.015 653.798 C 776.974 657.303, 819.491 651.466, 835.234 645.805 C 845 642.294, 844.969 640.023, 835.083 634.642 C 824.032 628.627, 809.547 625.005, 786.250 622.432 C 780.018 621.744, 780 621.749, 780 624.326 M 779.543 633.250 C 779.327 633.938, 778.874 636.568, 778.537 639.095 L 777.924 643.690 791.712 643.818 C 799.295 643.889, 807.750 643.451, 810.500 642.845 C 819.087 640.952, 826.233 638.900, 825.787 638.454 C 824.609 637.276, 789.019 632, 782.248 632 C 780.977 632, 779.760 632.563, 779.543 633.250 M 736.491 635.250 C 736.245 635.938, 736.225 637.400, 736.446 638.500 C 736.666 639.600, 736.881 641.182, 736.923 642.016 C 736.985 643.240, 738.448 643.510, 744.512 643.420 C 748.644 643.359, 752.206 643.127, 752.428 642.904 C 752.649 642.682, 753.115 640.587, 753.463 638.250 L 754.097 634 745.517 634 C 739.558 634, 736.801 634.382, 736.491 635.250 M 726 639.500 C 726 643.833, 726.111 644, 729 644 C 731.448 644, 731.997 643.586, 731.986 641.750 C 731.958 637.102, 730.836 635, 728.383 635 C 726.225 635, 726 635.425, 726 639.500 M 714.750 636.689 C 713.521 637.010, 713 638.147, 713 640.505 C 713 643.572, 713.239 643.839, 715.750 643.576 C 718.126 643.327, 718.542 642.793, 718.810 639.644 C 719.126 635.932, 718.735 635.648, 714.750 636.689 M 261.560 639.618 C 261.198 641.058, 261.037 642.371, 261.202 642.536 C 261.367 642.700, 265.101 642.419, 269.501 641.911 C 276.615 641.089, 298.466 641.580, 300.149 642.600 C 300.506 642.816, 302.531 643.233, 304.649 643.526 C 310.083 644.278, 323.913 647.337, 334.496 650.128 C 344.314 652.717, 346.107 654.573, 341.624 657.511 C 335.893 661.266, 314.973 663.506, 279.020 664.215 C 266.365 664.464, 264.500 664.297, 264.224 662.890 C 263.520 659.307, 274.553 657.282, 299 656.508 C 317.107 655.934, 329.129 655.205, 329.688 654.645 C 329.843 654.491, 324.688 653.156, 318.234 651.679 C 303.661 648.343, 288.057 646.802, 272.750 647.187 L 261 647.482 260.854 654.491 C 260.673 663.181, 261.020 672.353, 261.548 672.882 C 262.572 673.905, 283.549 673.595, 292.317 672.427 C 304.578 670.793, 328.009 665.610, 338.250 662.266 L 346 659.735 346 654.030 L 346 648.324 342.339 648.186 C 340.326 648.111, 335.038 647.154, 330.589 646.060 C 312.413 641.591, 282.539 637.164, 269.858 637.062 C 262.428 637.002, 262.199 637.072, 261.560 639.618 M 222.500 638.687 C 198.090 640.096, 179.079 643.142, 163.224 648.184 C 157.876 649.885, 152.006 651.492, 150.181 651.756 C 146.683 652.261, 145 654.782, 145 659.514 C 145 662.588, 150.543 666.885, 156.125 668.139 C 169.612 671.170, 212.218 675.973, 225.750 675.988 L 236 676 236 671.027 L 236 666.054 217.613 666.099 C 207.500 666.124, 196.362 665.645, 192.863 665.034 C 176.418 662.164, 169.953 660.648, 168.938 659.426 C 168.332 658.696, 165.863 657.802, 163.450 657.440 C 158.099 656.638, 156.406 654.978, 157.966 652.064 C 158.573 650.929, 159.247 650, 159.463 650 C 159.679 650, 165.626 648.687, 172.678 647.081 C 179.730 645.476, 187.300 643.933, 189.500 643.652 C 191.700 643.372, 199.350 642.387, 206.500 641.464 C 219.528 639.782, 230.344 639.944, 232.248 641.848 C 234.386 643.986, 232.168 645.997, 227.531 646.125 C 225.039 646.194, 222.662 646.339, 222.250 646.448 C 219.840 647.084, 209.088 648.016, 200 648.377 C 190.054 648.772, 172 652.451, 172 654.082 C 172 656.391, 196.306 659.809, 218.750 660.655 L 236 661.306 236 650.153 C 236 640.203, 235.811 638.999, 234.250 638.986 C 233.287 638.979, 231.600 638.831, 230.500 638.657 C 229.400 638.483, 225.800 638.497, 222.500 638.687 M 714.717 648.823 C 712.075 649.321, 712.494 653.659, 715.250 654.337 C 717.884 654.986, 728.521 655.819, 742.250 656.452 C 751.762 656.890, 752 656.847, 752.014 654.700 C 752.021 653.490, 752.269 651.600, 752.565 650.500 C 753.088 648.553, 752.615 648.500, 734.769 648.500 C 724.685 648.500, 715.662 648.645, 714.717 648.823 M 339.500 670.740 C 331.938 673.723, 316.574 677.899, 310.857 678.524 C 308.461 678.786, 302.355 679.292, 297.288 679.649 L 288.076 680.297 292.288 682.971 C 297.440 686.241, 301.316 691.194, 304.645 698.763 C 310.808 712.771, 316.458 718.128, 331 723.752 C 342.295 728.120, 363.259 733.576, 364.885 732.571 C 365.800 732.006, 366.781 728.033, 367.636 721.438 L 368.163 717.375 361.122 712.652 C 347.433 703.467, 347.073 702.720, 346.098 681.436 L 345.500 668.373 339.500 670.740 M 376.822 725.250 C 376.603 729.235, 376.601 729.157, 377.441 747 C 377.817 754.975, 378.572 764.200, 379.119 767.500 C 381.391 781.206, 381.936 787.089, 381.967 798.231 C 382.014 814.951, 385.337 833.940, 390.192 845.226 C 392.117 849.699, 396.935 855, 399.077 855 C 400.280 855, 400.225 843.644, 398.998 838.500 C 398.473 836.300, 397.577 829.550, 397.007 823.500 C 396.437 817.450, 395.103 805.075, 394.042 796 C 392.980 786.925, 391.599 773.650, 390.972 766.500 C 389.554 750.343, 388.161 740.479, 385.432 727.268 C 385.007 725.210, 380.509 722, 378.050 722 C 377.472 722, 376.920 723.462, 376.822 725.250 M 611.681 723.750 C 611.440 724.163, 610.922 728.100, 610.530 732.500 C 609.653 742.334, 606.665 757.226, 604.569 762.207 C 603.130 765.626, 603.157 766.516, 604.919 773.707 C 605.970 777.993, 607.704 784.200, 608.773 787.500 L 610.718 793.500 611.948 790.500 C 614.405 784.508, 615.812 774.161, 616.381 757.911 C 616.913 742.699, 618.227 729.126, 619.590 724.750 C 620.046 723.284, 619.485 723, 616.126 723 C 613.922 723, 611.921 723.337, 611.681 723.750 M 394.432 737.750 C 395.528 754.610, 396.947 778.421, 396.974 780.400 C 396.993 781.808, 397.736 781.283, 399.841 778.378 C 401.404 776.221, 405.640 772.056, 409.256 769.123 L 415.830 763.789 415.933 751.428 C 415.990 744.630, 416.253 738.490, 416.516 737.784 C 417.049 736.359, 412.476 734.097, 401.535 730.371 C 397.704 729.067, 394.397 728, 394.184 728 C 393.972 728, 394.083 732.388, 394.432 737.750 M 599.702 736.096 C 595.202 741.562, 594.993 742.066, 596.341 744.212 C 597.131 745.470, 598.322 748.218, 598.988 750.317 C 599.654 752.416, 600.392 753.941, 600.627 753.706 C 601.049 753.285, 604.968 730.610, 604.658 730.384 C 604.571 730.320, 602.341 732.890, 599.702 736.096 M 582.500 756.623 C 578.100 761.845, 571.913 768.550, 568.750 771.525 C 565.587 774.499, 563 777.205, 563 777.537 C 563 777.870, 564.961 780.922, 567.358 784.321 C 569.754 787.719, 572.995 792.750, 574.560 795.500 C 579.058 803.404, 596.257 826.089, 601.187 830.618 C 606.275 835.293, 609.740 836.619, 619 837.434 C 622.575 837.749, 627.188 838.408, 629.250 838.898 C 634.189 840.072, 634.133 838.944, 628.711 828 C 624.900 820.307, 623.754 818.927, 616.639 813.468 C 607.613 806.541, 605.130 802.781, 602.137 791.500 C 600.970 787.100, 598.676 778.550, 597.040 772.500 C 595.403 766.450, 593.534 758.237, 592.886 754.250 C 592.237 750.263, 591.435 747.029, 591.103 747.065 C 590.772 747.100, 586.900 751.402, 582.500 756.623 M 372.849 777 C 372.561 777.825, 370.377 784.575, 367.996 792 C 361.504 812.240, 359.541 816.091, 350.908 825.526 C 348.379 828.291, 345.798 831.508, 345.173 832.676 C 343.647 835.527, 345.071 836, 355.181 836 C 364.641 836, 367.903 834.712, 373.886 828.616 L 378.134 824.288 376.569 810.894 C 375.708 803.527, 374.636 792.550, 374.188 786.500 C 373.739 780.450, 373.136 776.175, 372.849 777" fill-rule="evenodd"/></g></svg>