<?xml version="1.0" encoding="UTF-8"?><!DOCTYPE svg PUBLIC "-//W3C//DTD SVG 1.0//EN" "http://www.w3.org/TR/2001/REC-SVG-20010904/DTD/svg10.dtd" []><svg xmlns="http://www.w3.org/2000/svg" xmlns:xlink="http://www.w3.org/1999/xlink" height="722" preserveAspectRatio="xMidYMid meet" version="1.0" viewBox="106.0 234.2 749.3 721.5" width="749" zoomAndPan="magnify" fill="currentColor"><g id="change1_1"><path d="M 225.893 234.395 C 225.677 234.586, 212.900 235.003, 197.500 235.320 C 182.100 235.638, 165.450 236.377, 160.500 236.962 C 155.550 237.547, 147.225 238.511, 142 239.103 C 124.959 241.037, 112.571 245.252, 108.589 250.472 C 107.165 252.339, 106 254.551, 106 255.388 C 106 257.742, 110.965 262.267, 112.342 261.167 C 117.331 257.180, 143.327 251.703, 163 250.494 C 167.675 250.206, 173.975 249.765, 177 249.513 C 200.538 247.551, 224.364 246.962, 260.500 247.452 C 308.593 248.103, 353.025 249.026, 361.500 249.551 C 386.622 251.105, 402.167 252.001, 406 252.115 C 409.338 252.215, 408.046 252.595, 401 253.586 C 395.775 254.320, 384.300 256.051, 375.500 257.432 C 348.481 261.672, 319.600 264.115, 297.500 264.031 C 286.500 263.989, 275.925 263.760, 274 263.523 C 272.075 263.285, 257.450 262.855, 241.500 262.568 C 225.550 262.281, 203.275 261.371, 192 260.547 C 156.596 257.960, 141.747 257.671, 128.196 259.304 C 113.466 261.080, 111.550 262.198, 112.521 268.453 C 112.866 270.679, 114.435 276.775, 116.007 282 C 117.579 287.225, 120.290 296.225, 122.032 302 C 129.567 326.986, 139.763 347.071, 153.086 363.168 C 155.667 366.286, 159.965 373.014, 162.639 378.119 C 170.020 392.213, 179.143 400.334, 212.500 422.504 C 235.493 437.785, 247.291 443.271, 263.766 446.343 C 272.678 448.004, 275.092 447.009, 273.454 442.347 C 272.141 438.612, 266.157 434.724, 246.500 424.833 C 222.945 412.980, 200.817 397.873, 188.209 385.037 C 179.545 376.217, 163.014 352.005, 155.410 337 C 153.320 332.875, 147.310 316.675, 142.055 301 L 132.500 272.500 157.126 272.680 C 170.670 272.778, 185.295 273.386, 189.626 274.031 C 200.460 275.643, 237.683 276.667, 286.500 276.694 C 324.154 276.716, 336.174 276.400, 366 274.604 C 371.775 274.256, 381 273.718, 386.500 273.409 C 398.841 272.714, 434.224 267.626, 438.794 265.888 C 440.613 265.197, 442.918 265.856, 449.312 268.894 C 459.874 273.914, 468.850 275.948, 482.500 276.415 C 495.816 276.871, 523.607 278.699, 530.500 279.572 C 533.250 279.921, 547.539 280.362, 562.254 280.553 C 576.968 280.744, 593.618 281.421, 599.254 282.056 C 610.786 283.357, 642.150 283.426, 661 282.191 C 667.875 281.741, 683.175 281.609, 695 281.898 C 730.845 282.774, 753.500 282.339, 767 280.516 C 773.875 279.588, 782.200 278.461, 785.500 278.011 C 802.795 275.651, 831.974 270.654, 835.450 269.457 C 837.634 268.704, 839.600 268.266, 839.817 268.484 C 840.386 269.053, 817.678 310.193, 812.209 318.500 C 809.675 322.350, 805.835 327.919, 803.677 330.874 C 801.519 333.830, 795.487 343.280, 790.274 351.874 C 785.060 360.469, 779.681 369.300, 778.320 371.500 C 776.959 373.700, 773.357 379.550, 770.315 384.500 C 763.946 394.864, 754.942 404.094, 740.674 414.886 C 735.303 418.949, 726.766 426.311, 721.704 431.246 C 713.025 439.707, 697.710 452, 695.849 452 C 695.382 452, 695 451.315, 695 450.479 C 695 447.781, 690.628 446.581, 685.805 447.955 C 673.378 451.494, 668.959 452.007, 650.546 452.049 C 631.628 452.093, 629 452.536, 629 455.679 C 629 461.266, 664.539 466.252, 677 462.413 C 678.728 461.881, 677.802 463.026, 674 466.125 C 663.668 474.546, 657.425 488.144, 658.218 500.502 C 658.748 508.748, 661.236 513.355, 666.313 515.490 C 668.997 516.618, 669.113 516.829, 667.356 517.387 C 666.268 517.732, 663.892 519.548, 662.076 521.422 L 658.773 524.829 649.753 511.403 C 633.729 487.551, 618.993 475.221, 598.525 468.540 C 589.351 465.545, 570.035 462.947, 561.500 463.560 C 540.704 465.052, 527.195 467.928, 514.404 473.585 C 497.076 481.248, 489.728 492.790, 490.090 511.773 C 490.427 529.445, 492.143 533.276, 501.610 537.491 C 521.971 546.556, 532.340 548.745, 561 550.024 C 581.669 550.947, 593.578 552.135, 597.604 553.677 C 601.818 555.290, 606 562.575, 606 568.301 C 606 570.152, 606.309 571.976, 606.687 572.354 C 607.065 572.732, 608.119 575.844, 609.029 579.270 C 611.047 586.866, 617.060 607.616, 621.556 622.500 C 627.999 643.830, 629.361 650.191, 629.388 659.068 C 629.409 666.438, 629.025 668.430, 626.633 673.318 C 622.742 681.270, 615.387 688.925, 602 698.951 C 578.927 716.233, 567.687 723.007, 547 732.094 C 535.463 737.162, 529.333 741.513, 519 751.969 C 503.525 767.627, 498.515 778.782, 498.551 797.500 C 498.583 813.692, 501.170 820.079, 515.605 839.598 C 522.978 849.568, 524.476 851, 527.532 851 C 531.498 851, 531.807 848.156, 529.380 833.941 C 525.654 812.113, 524.827 796.085, 527.074 789.276 C 530.197 779.812, 538.729 769.418, 553.897 756.597 C 566.946 745.567, 584.255 731.953, 591.528 727 C 595.161 724.525, 600.073 721.060, 602.443 719.299 C 607.797 715.321, 611.578 713.042, 620.500 708.412 C 624.350 706.414, 630.114 703.205, 633.309 701.282 C 636.503 699.358, 639.350 698.016, 639.634 698.300 C 640.559 699.226, 640.008 729.345, 638.958 735.181 C 637.544 743.048, 632.858 757.201, 629.031 765.165 C 624.030 775.573, 617.583 779.471, 590.500 788.465 C 564.570 797.077, 536.247 812.746, 532.557 820.521 C 530.214 825.458, 530.618 830.013, 533.847 835.054 C 538.888 842.926, 541.540 844.934, 554 850.313 C 565.486 855.272, 591.772 860.508, 615.279 862.521 C 636.154 864.308, 691.239 864.582, 706.724 862.977 C 731.197 860.439, 752.529 855.843, 773.998 848.482 C 787.684 843.790, 792 839.712, 792 831.470 C 792 827.902, 792.055 827.853, 795.250 828.526 C 801.277 829.796, 805.473 832.373, 811.336 838.404 C 814.546 841.705, 818.370 846.678, 819.834 849.453 C 822.161 853.864, 822.491 855.634, 822.451 863.500 C 822.413 871.166, 821.773 874.574, 818.137 886.489 C 814.627 897.988, 812.906 901.903, 808.470 908.489 C 802.089 917.960, 785.042 935.724, 779.163 939.028 C 773.789 942.049, 772.919 944.674, 776.323 947.601 C 783.198 953.515, 798.275 955.720, 809.507 952.455 C 820.481 949.265, 836.433 939.479, 842.346 932.310 C 851.996 920.609, 855.327 900.784, 851.088 880.284 C 848.253 866.571, 846.419 859.578, 843.933 853 C 841.406 846.315, 839.073 840.053, 835.176 829.500 C 827.754 809.400, 822.949 800.184, 812.759 786.500 C 800.345 769.828, 791.308 764.424, 771.895 762.066 C 751.577 759.598, 743.725 757.071, 730.003 748.584 L 722.507 743.948 722.383 732.224 C 722.177 712.787, 717.622 702.232, 701.205 683.158 C 692.527 673.075, 690.692 668.650, 690.609 657.601 C 690.550 649.794, 691.017 647.095, 693.895 638.622 C 695.740 633.190, 697.250 627.677, 697.250 626.372 C 697.250 625.068, 697.438 624, 697.667 624 C 698.465 624, 738.367 658.648, 747.443 667.222 C 757.856 677.060, 762.939 678.555, 780.117 676.833 C 790.770 675.766, 795.720 673.019, 805.835 662.564 C 817.996 649.992, 822 642.972, 822 634.217 C 822 630.456, 818.950 623.265, 816.079 620.259 C 813.763 617.834, 803.428 610, 802.545 610 C 801.908 610, 793.942 604.399, 785.500 598.014 C 777.623 592.058, 772.601 588.884, 766.500 586.011 C 758.764 582.366, 751.241 577.364, 742.500 570.052 C 727.285 557.324, 725.638 556.632, 705.557 554.523 C 694.125 553.322, 682.342 550.947, 680.169 549.406 C 679.987 549.277, 680.337 548.239, 680.947 547.100 C 686.203 537.277, 681.501 519.814, 672.780 516.774 C 670.873 516.109, 670.234 515.473, 670.999 515.001 C 671.655 514.595, 672.584 510.760, 673.064 506.479 C 674.414 494.442, 677.845 490.126, 694.629 479.353 C 710.205 469.354, 729.390 454.543, 743.500 441.624 C 750.100 435.581, 759.599 427.593, 764.608 423.874 C 776.523 415.029, 783.552 408.533, 791.353 399.160 C 799.202 389.729, 803.003 383.781, 810.652 368.965 C 813.928 362.621, 818.204 354.971, 820.155 351.965 C 826.527 342.150, 836.012 321.971, 840.396 308.905 C 841.209 306.482, 843.036 298.200, 844.455 290.500 C 845.874 282.800, 847.962 272.675, 849.094 268 C 850.226 263.325, 851.231 258.870, 851.326 258.099 C 851.422 257.329, 849.475 255.681, 847 254.436 C 841.082 251.460, 795.996 240.387, 784.500 239.086 C 759.095 236.210, 752.760 235.923, 728.181 236.536 C 699.342 237.255, 673.082 237.798, 630.500 238.553 C 600.872 239.079, 585.040 239.807, 544.500 242.508 C 512.007 244.674, 491.153 247.986, 481.662 252.490 C 477.205 254.605, 476.635 255.409, 477.407 258.486 C 478.658 263.468, 493.718 264.070, 515.500 260.008 C 521 258.983, 529.550 257.866, 534.500 257.528 C 539.450 257.189, 550.958 256.035, 560.074 254.962 C 580.707 252.535, 626.350 251.990, 648 253.914 C 660.474 255.022, 664.736 254.983, 678.500 253.633 C 687.300 252.769, 703.500 252.036, 714.500 252.003 C 725.500 251.970, 741.925 251.534, 751 251.034 C 776.033 249.655, 800.513 250.403, 812.339 252.907 C 822.805 255.124, 833.526 257.723, 836 258.643 C 841.347 260.631, 802.757 267.610, 776 269.495 C 749.478 271.362, 673.825 271.763, 652 270.150 C 638.098 269.124, 574.720 269.579, 560.500 270.808 C 556.100 271.189, 549.125 271.205, 545 270.844 C 515.451 268.260, 497.503 267.655, 485.853 268.851 C 475.806 269.883, 474.741 269.809, 466.954 267.545 C 462.415 266.226, 457.836 264.281, 456.779 263.223 C 454.882 261.326, 454.922 261.258, 459.783 258.139 C 466.155 254.050, 468.239 251.680, 467.830 248.983 C 467.295 245.448, 461.133 243.771, 442 241.950 C 423.206 240.163, 413.881 239.121, 407 238.042 C 391.092 235.547, 373.053 234.940, 302.007 234.508 C 260.361 234.254, 226.109 234.204, 225.893 234.395 M 461.372 280.752 C 457.689 283.987, 456 286.967, 456 290.228 C 456 293.154, 448.556 311.806, 441.530 326.482 C 438.629 332.542, 434.559 341.550, 432.486 346.500 C 430.413 351.450, 426.378 359.100, 423.520 363.500 C 420.661 367.900, 416.562 374.195, 414.411 377.489 C 408.775 386.119, 404.520 389.837, 392.851 396.329 C 380.246 403.341, 380.955 402.909, 368.021 411.435 C 362.234 415.250, 354.167 420.280, 350.094 422.614 C 342.110 427.189, 329.504 437.190, 327.868 440.246 C 326.131 443.492, 328.658 445.323, 333.967 444.666 C 339.679 443.958, 357.864 436.698, 364.484 432.481 C 367.243 430.724, 372.875 427.564, 377 425.458 C 397.599 414.941, 415.157 401.355, 426.563 387.108 C 430.050 382.752, 431.815 379.373, 435.888 369.250 C 437.049 366.363, 438.949 361.665, 440.109 358.812 C 441.269 355.958, 445.020 348.165, 448.445 341.494 C 451.870 334.823, 456.109 324.895, 457.866 319.433 C 459.623 313.970, 461.512 308.825, 462.064 308 C 463.441 305.942, 463.361 305.831, 478.252 330.500 C 479.579 332.700, 483.724 339.675, 487.462 346 C 491.200 352.325, 495.714 359.750, 497.495 362.500 C 499.275 365.250, 503.110 371.325, 506.016 376 C 515.908 391.911, 532.129 414.852, 538.083 421.349 C 549.541 433.854, 575.604 452.010, 592.745 459.428 C 597.010 461.274, 603.853 464.458, 607.951 466.505 C 616.734 470.891, 626.509 472.444, 627.591 469.624 C 627.939 468.717, 627.676 467.315, 627.007 466.508 C 625.624 464.842, 625.944 465.019, 604.873 454.324 C 582.833 443.138, 571.707 434.509, 549.420 411.315 C 533.099 394.331, 524.114 383.508, 519.574 375.368 C 518.694 373.790, 517.550 371.825, 517.031 371 C 510.512 360.635, 493.639 330, 494.450 330 C 494.703 330, 496.808 333.194, 499.127 337.097 C 505.443 347.729, 515.549 360.801, 530.205 377.297 C 540.205 388.553, 543.847 392.022, 545.425 391.796 C 546.566 391.633, 547.455 390.814, 547.399 389.977 C 547.344 389.140, 543.013 382.616, 537.775 375.478 C 532.538 368.340, 526.592 359.350, 524.562 355.500 C 522.532 351.650, 519.693 346.475, 518.252 344 C 516.810 341.525, 512.640 334.100, 508.984 327.500 C 500.105 311.471, 498.544 311.266, 493.576 325.484 C 492.809 327.680, 493.003 327.990, 487.636 316 C 486.282 312.975, 483.560 306.956, 481.587 302.625 C 479.614 298.294, 478 294.380, 478 293.928 C 478 293.476, 476.364 289.707, 474.364 285.553 C 470.990 278.542, 470.505 278, 467.614 278.002 C 465.646 278.004, 463.349 279.015, 461.372 280.752 M 488.667 301.667 C 488.300 302.033, 488 303.643, 488 305.244 C 488 310.426, 496.329 316.513, 498.535 312.943 C 500.940 309.053, 491.765 298.569, 488.667 301.667 M 513.595 306.847 C 512.441 308.714, 524.137 328.468, 532.925 339.495 C 535.991 343.343, 540.432 349.056, 542.794 352.191 C 548.052 359.171, 560.618 372.725, 563.027 374.014 C 564.246 374.667, 565.128 374.551, 565.884 373.640 C 567.162 372.100, 563.813 366.975, 554.910 356.850 C 533.404 332.394, 527.220 324.045, 519.281 308.750 C 517.919 306.125, 514.705 305.050, 513.595 306.847 M 153.340 311.250 C 152.036 313.344, 152.998 317.117, 157.051 325.809 C 161.960 336.337, 166.490 342.215, 169.376 341.803 C 174.485 341.074, 170.607 326.408, 162.122 314.371 C 158.968 309.896, 155.050 308.503, 153.340 311.250 M 733 340.973 C 729.982 342.520, 708.360 347.351, 692.500 350.023 C 685.346 351.228, 674.034 353.871, 670.334 355.202 C 667.723 356.141, 666.723 356.048, 664.620 354.670 C 661.160 352.403, 659.103 352.566, 654.873 355.441 C 652.588 356.993, 650.933 357.533, 650.325 356.925 C 649.799 356.399, 642.198 355.796, 633.434 355.586 C 624.670 355.375, 616.375 354.954, 615 354.651 C 601.904 351.764, 570.464 347.725, 567.750 348.582 C 565.210 349.384, 565.606 352.512, 568.485 354.398 C 571.097 356.109, 591.250 360.919, 604 362.873 C 645.085 369.171, 680.713 369.567, 701.590 363.956 C 717.122 359.782, 741.632 345.549, 740.801 341.187 C 740.365 338.896, 737.222 338.810, 733 340.973 M 382.500 350.073 C 379.750 351.161, 375.925 352.442, 374 352.919 C 372.075 353.396, 364.875 355.471, 358 357.529 C 328.285 366.423, 324.472 367.206, 310.084 367.358 C 295.402 367.513, 293.920 368.157, 298.067 372.571 L 300.349 375 323.924 374.999 C 356.738 374.997, 366.154 373.123, 378.237 364.192 C 384.373 359.657, 391 352.601, 391 350.604 C 391 349.531, 388.695 347.761, 387.668 348.047 C 387.576 348.073, 385.250 348.984, 382.500 350.073 M 186.062 362.749 C 180.636 367.142, 184.403 374.288, 200.179 389.533 C 218.062 406.815, 240.484 421.291, 245.023 418.486 C 245.560 418.154, 246 416.779, 246 415.432 C 246 413.577, 241.321 408.345, 226.750 393.906 C 193.773 361.227, 190.776 358.932, 186.062 362.749 M 554 398.794 C 554 401.350, 561.437 409, 563.922 409 C 567.200 409, 566.384 406.803, 561.216 401.712 C 556.149 396.722, 554 395.853, 554 398.794 M 566.571 411.571 C 565.707 412.436, 565 413.581, 565 414.116 C 565 414.652, 569.131 419.360, 574.180 424.579 C 584.472 435.218, 591.122 439.172, 605.876 443.426 C 614.515 445.916, 617 445.883, 617 443.276 C 617 441.383, 609.105 433.516, 602.500 428.827 C 587.807 418.396, 580.924 414.115, 575.707 412.163 C 568.801 409.580, 568.578 409.565, 566.571 411.571 M 302.430 441.553 C 287.964 443.416, 285.566 444.165, 285.163 446.946 C 284.689 450.211, 286.459 450.967, 294.614 450.985 C 307.224 451.012, 317.131 448.271, 317.847 444.558 C 318.217 442.633, 315.559 439.886, 313.559 440.128 C 312.976 440.198, 307.968 440.840, 302.430 441.553 M 317.226 455.250 C 316.231 456.470, 315.368 459.319, 312.911 469.500 C 312.248 472.250, 310.813 476.515, 309.724 478.978 C 306.064 487.249, 305.471 494.455, 307.030 511.717 C 307.814 520.398, 308.501 534.029, 308.557 542.008 C 308.664 557.262, 309.767 562.139, 313.261 562.812 C 314.221 562.997, 316.313 561.841, 317.910 560.244 C 321.751 556.403, 322.667 549.144, 321.116 534.840 C 319.736 522.122, 320.447 498.105, 322.647 483.096 C 323.485 477.374, 324.150 469.847, 324.123 466.369 C 324.052 457.140, 320.437 451.312, 317.226 455.250 M 280.575 457.520 C 278.802 458.861, 278.741 459.471, 279.802 465.238 C 281.288 473.319, 284.688 516.745, 285.498 538 C 286.150 555.108, 287.108 560.620, 289.801 562.750 C 292.116 564.580, 295.439 564.277, 297.452 562.053 C 299.548 559.737, 299.274 555.398, 296.123 541 C 293.900 530.847, 291.094 511.342, 290.439 501.500 C 290.220 498.200, 289.539 487.656, 288.926 478.068 C 288.313 468.480, 287.415 459.593, 286.931 458.318 C 285.932 455.690, 283.412 455.374, 280.575 457.520 M 293.463 463.403 C 292.025 464.455, 291.834 465.673, 292.338 470.585 C 293.142 478.435, 294.574 485.044, 296.435 489.500 C 298.464 494.355, 301.960 494.137, 303.265 489.074 C 304.179 485.528, 303.652 482.486, 299.933 469.852 C 297.875 462.860, 296.322 461.313, 293.463 463.403 M 554.500 479.716 C 539.666 481.078, 519.206 488.665, 511.003 495.845 C 506.540 499.752, 507.509 500.756, 516.502 501.537 C 530.805 502.780, 535.114 502.387, 540.652 499.337 C 543.485 497.777, 547.633 495.502, 549.870 494.283 C 552.106 493.063, 555.863 490.828, 558.218 489.316 C 560.573 487.804, 564.281 485.595, 566.459 484.407 C 573.402 480.619, 572.490 479.803, 561 479.525 C 559.075 479.478, 556.150 479.564, 554.500 479.716 M 582.170 495.569 C 575.036 497.678, 567.992 500.515, 568.003 501.276 C 568.005 501.399, 574.675 501.556, 582.825 501.625 C 599.246 501.764, 604.954 503.048, 622.330 510.513 C 631.504 514.454, 634 514.498, 634 510.721 C 634 505.480, 622.538 497.973, 609.356 494.581 C 600.702 492.354, 591.971 492.672, 582.170 495.569 M 297.682 511.651 C 296.756 512.578, 297.996 537.718, 299.118 540.750 C 300.350 544.079, 303.818 543.662, 305.358 540 C 306.762 536.661, 305.982 525.748, 303.689 516.670 C 302.720 512.832, 301.873 511.425, 300.401 511.208 C 299.310 511.047, 298.087 511.247, 297.682 511.651 M 507.377 513.200 C 506.405 514.772, 508.059 517.706, 510.560 518.846 C 513.677 520.266, 520.566 521.326, 548 524.608 C 559.825 526.023, 571.975 527.561, 575 528.025 C 581.573 529.034, 606.177 531.599, 617.818 532.489 C 625.640 533.086, 626.079 533.016, 625.166 531.312 C 622.875 527.037, 614.156 521.188, 607 519.125 C 597.026 516.249, 568.636 514.043, 540 513.920 C 528.725 513.871, 516.886 513.505, 513.691 513.106 C 510.496 512.708, 507.655 512.750, 507.377 513.200 M 644.152 523.786 C 643.061 525.318, 641.257 529.256, 640.142 532.536 C 637.339 540.788, 638.304 541.738, 647.879 540.157 C 655.035 538.975, 657.280 539.353, 661.506 542.450 C 664.607 544.722, 666.107 542.991, 666.153 537.086 C 666.175 534.212, 665.923 531.590, 665.593 531.259 C 665.262 530.929, 663.952 531.636, 662.682 532.829 C 658.816 536.461, 655 535.066, 655 530.023 C 655 527.520, 652.707 523.258, 650.558 521.765 C 648.459 520.308, 646.099 521.053, 644.152 523.786 M 209.306 525.914 C 195.511 532.289, 184.116 546.979, 179.567 564.251 C 178.155 569.613, 175.875 578.273, 174.500 583.496 C 170.885 597.225, 171.362 608.281, 175.712 611.580 C 179.962 614.804, 184.870 613.059, 196.317 604.254 C 204.096 598.271, 207.573 598.047, 210.402 603.348 C 212.404 607.099, 221.313 615.557, 225.676 617.848 C 228.605 619.386, 241.429 619.494, 247.001 618.027 C 251.901 616.737, 258.737 613.159, 269.280 606.369 L 276.060 602.002 271.207 609.251 C 263.884 620.191, 260.648 630.405, 260.787 642.144 C 260.860 648.369, 265.674 667.944, 268.867 675 C 270.737 679.132, 270.776 679.693, 269.350 681.869 C 267.610 684.525, 263.182 688.563, 256.196 693.867 C 253.613 695.828, 250.375 698.491, 249 699.787 C 244.585 703.946, 227.686 714.688, 218.963 718.880 C 214.309 721.117, 206 724.335, 200.500 726.031 C 195 727.727, 189.600 729.511, 188.500 729.995 C 187.400 730.478, 185.457 731.167, 184.183 731.526 C 179.303 732.898, 164.083 744.242, 154.478 753.667 C 132.799 774.938, 130.037 781.969, 130.388 815 C 130.559 831.097, 130.639 831.671, 133.662 838.500 C 135.366 842.350, 137.514 847.830, 138.436 850.678 C 141.292 859.499, 148.822 868.050, 152.492 866.641 C 154.420 865.901, 154.432 861.217, 152.535 849.500 C 149.639 831.618, 150.181 818.468, 154.468 802.575 C 159.920 782.360, 167.540 777.602, 233.177 753.432 C 247.862 748.025, 249.264 747.750, 268.278 746.567 C 276.968 746.026, 285.656 743.106, 297.250 736.830 C 308.402 730.794, 310.668 728.843, 313.279 723.032 C 315.618 717.827, 316.019 704.044, 313.987 698.711 C 309.577 687.134, 305.137 680.254, 296.554 671.697 L 291.737 666.895 292.618 661.197 C 293.103 658.064, 293.507 645.375, 293.517 633 C 293.531 614.268, 293.810 609.885, 295.183 606.828 C 297.071 602.625, 301.211 599.483, 303.635 600.413 C 305.068 600.963, 305.183 602.062, 304.507 608.773 C 303.172 622.040, 303.419 623.806, 307.157 627.662 L 310.500 631.113 310.514 654.806 C 310.528 679.959, 310.690 681.237, 316.610 703 C 319.731 714.470, 325.700 730.473, 328.267 734.250 C 330.245 737.160, 333.724 737.876, 335.800 735.800 C 337.718 733.882, 337.195 727.440, 334.605 721.066 C 332.373 715.572, 329.819 706.508, 328.530 699.500 C 325.400 682.490, 323.019 657, 324.560 657 C 326.049 657, 330.212 660.608, 331.929 663.385 C 333.009 665.133, 335.048 671.049, 336.460 676.531 C 340.940 693.932, 344.606 699.630, 358.553 710.868 C 369.173 719.425, 371.498 720.013, 384.553 717.450 L 387.500 716.872 387.739 725.002 C 387.954 732.327, 389.600 738.994, 393.480 748.248 C 394.050 749.609, 391.815 748.980, 383.356 745.399 C 377.385 742.871, 370.893 740.203, 368.929 739.468 C 366.966 738.734, 362.694 736.955, 359.436 735.514 C 349.095 730.941, 342 731.117, 342 735.948 C 342 739.491, 348.048 743.428, 363.716 750.084 C 382.267 757.965, 393.497 764.642, 400.431 771.913 L 403.361 774.987 400.974 777.528 C 397.966 780.730, 378.752 790.158, 369.500 792.972 C 359.592 795.986, 350.372 796.978, 327.551 797.487 C 316.578 797.732, 303.095 798.456, 297.587 799.097 C 288.281 800.178, 265.555 799.768, 259.042 798.400 C 252.918 797.114, 207.459 785.718, 207.079 785.374 C 206.305 784.671, 211.444 779.816, 217 776 C 224.987 770.515, 227.382 767.660, 226.603 764.555 C 225.699 760.951, 221.357 761.173, 213.640 765.218 C 199.501 772.629, 190 781.648, 190 787.656 C 190 794.978, 198.244 799.746, 220 805.008 C 222.475 805.606, 226.750 806.948, 229.500 807.990 C 248.170 815.062, 291.715 819.063, 321.500 816.442 C 343.508 814.506, 359.067 811.526, 381.977 804.858 C 393.745 801.433, 398.260 799.373, 405.498 794.124 C 416.634 786.050, 420.745 777.816, 417.918 769.250 C 417.303 767.389, 417.009 765.657, 417.264 765.403 C 418.018 764.649, 430.085 770.094, 435.582 773.668 C 446.141 780.532, 447.312 784.086, 447.220 809 C 447.104 840.530, 450.765 853.288, 466.017 874.500 C 469.180 878.900, 473.350 885.425, 475.283 889 C 479.114 896.087, 486.202 916.238, 487.946 925 C 489.286 931.732, 494.197 940.610, 497.089 941.528 C 500.494 942.609, 501.980 940.046, 502.942 931.437 C 503.641 925.181, 504.747 921.661, 508.164 914.818 C 510.680 909.780, 513.401 905.716, 514.647 905.136 C 518.459 903.362, 520.502 895.089, 520.484 881.500 C 520.470 870.237, 520.292 869.162, 517.591 864 C 515.972 860.904, 510.502 854.129, 505.075 848.500 C 483.922 826.554, 482.813 823.767, 482.588 792 C 482.443 771.429, 482.322 770.181, 479.775 763.125 C 475.542 751.396, 471.741 748.271, 455.680 743.314 C 439.344 738.272, 435.632 737.186, 423.890 734.012 C 410.154 730.299, 407.203 728.977, 403.158 724.727 L 399.817 721.216 403.367 720.044 C 405.858 719.222, 408.486 716.877, 412.172 712.186 C 415.062 708.509, 420.122 703.025, 423.417 700 C 426.712 696.975, 430.109 693.825, 430.966 693 C 431.823 692.175, 434.649 689.764, 437.247 687.641 C 446.622 679.983, 448.225 673.957, 443.628 663.647 C 439.975 655.453, 434.968 648.975, 424.318 638.669 C 416.170 630.783, 412.610 627.878, 403 621.274 C 397.603 617.565, 386.406 608.582, 384.705 606.596 C 381.888 603.307, 381.176 600.816, 380.494 591.857 C 379.093 573.457, 366.483 558.714, 350.863 557.213 C 344.401 556.592, 340.806 558.256, 335.496 564.326 L 331.081 569.373 328.968 566.686 C 326.260 563.244, 323.969 563.291, 314.371 566.987 C 307.598 569.595, 306.123 569.841, 302.740 568.930 C 300.012 568.195, 297.304 568.210, 293.595 568.980 C 287.392 570.268, 284.773 569.518, 278.841 564.755 C 274.921 561.607, 274.483 561.500, 265.491 561.495 L 256.193 561.491 251.346 557.397 C 248.681 555.145, 244.094 549.747, 241.154 545.402 C 235.706 537.349, 227.531 528.846, 222.965 526.483 C 218.240 524.037, 213.770 523.851, 209.306 525.914 M 223 553.212 C 223 556.341, 234.201 567.398, 239.500 569.499 L 243.500 571.086 241 569.065 C 239.625 567.954, 238.239 567.034, 237.920 567.022 C 237.600 567.010, 235.635 564.086, 233.553 560.525 C 229.421 553.462, 228.610 552.585, 225.250 551.555 C 223.360 550.976, 223 551.241, 223 553.212 M 622 555.195 C 622 555.853, 623.075 557.540, 624.388 558.945 C 626.969 561.706, 632.798 574.324, 636.607 585.394 C 639.411 593.545, 642.797 599.551, 648.611 606.689 C 657.442 617.532, 660.401 625.555, 661.264 641 C 661.688 648.580, 660.983 653.085, 657.140 667.364 C 655.976 671.690, 655.231 675.564, 655.484 675.974 C 656.316 677.320, 656.433 764.443, 655.606 766.855 C 654.942 768.790, 654.300 769.110, 652.002 768.650 C 649.621 768.174, 649.027 768.520, 648.011 770.973 C 646.511 774.595, 644.428 776.405, 640.082 777.865 C 638.201 778.497, 631.901 781.885, 626.082 785.395 C 611.202 794.369, 591.583 804.497, 584.500 806.859 C 578.353 808.910, 553.894 820.851, 550.750 823.337 C 549.788 824.098, 549 824.992, 549 825.323 C 549 826.191, 560.126 833.567, 562.500 834.273 C 563.600 834.600, 566.525 835.617, 569 836.532 C 582.547 841.543, 602.704 844.763, 626 845.637 C 633.975 845.937, 642.975 846.549, 646 846.997 C 661.435 849.286, 685.867 847.197, 720.500 840.627 C 727.650 839.270, 735.515 837.862, 737.979 837.498 C 740.442 837.133, 742.800 836.624, 743.217 836.366 C 743.635 836.107, 746.120 835.665, 748.739 835.382 C 754.963 834.709, 756.266 834.239, 755.470 832.951 C 755.109 832.367, 750.493 828.449, 745.212 824.245 C 739.932 820.042, 733.830 814.779, 731.651 812.551 C 720.318 800.958, 708.176 779.937, 707.073 770 C 706.738 766.975, 706.846 761.874, 707.314 758.665 L 708.164 752.829 703.241 747.165 C 700.533 744.049, 696.109 739.816, 693.409 737.758 L 688.500 734.016 687.898 746.758 C 687.007 765.604, 685.455 772.403, 681.781 773.570 C 680.544 773.962, 679.149 773.579, 678.138 772.569 C 675.680 770.114, 675.147 734.521, 677.478 728.418 C 679.066 724.260, 679.054 724.180, 676.176 719.860 C 667.830 707.332, 663.693 682.475, 667.597 668.299 C 671.483 654.182, 671.970 643.880, 669.384 630.500 C 668.533 626.100, 667.662 615.525, 667.448 607 L 667.060 591.500 660.280 588.930 C 647.025 583.906, 644.927 582.014, 637.076 568 C 632.802 560.373, 630.777 558.167, 625.596 555.497 C 622.096 553.692, 622 553.684, 622 555.195 M 650 560.040 C 650 562.746, 653.259 569.022, 655.909 571.419 L 658.030 573.337 656.510 569.028 C 655.028 564.829, 651.256 558, 650.418 558 C 650.188 558, 650 558.918, 650 560.040 M 194.771 569.198 C 191.648 570.028, 190.877 570.783, 190.027 573.844 C 189.468 575.855, 189.009 580.087, 189.006 583.250 C 189 589.453, 189.884 590.214, 194.316 587.820 C 195.517 587.171, 198.871 586.084, 201.769 585.406 C 210.717 583.310, 214.428 585.190, 223.219 596.275 C 227.888 602.162, 239.871 604.202, 248.444 600.570 C 251.599 599.233, 263.512 590.598, 264.576 588.878 C 264.955 588.263, 260.090 587.982, 251.338 588.112 C 234.749 588.358, 232.726 587.700, 224.964 579.528 C 215.578 569.646, 205.744 566.281, 194.771 569.198 M 686.814 576.631 C 690.579 582.328, 692.326 585.303, 699.979 599.047 C 710.526 617.988, 722.558 629.496, 749.606 646.511 C 773.287 661.408, 777.396 662.899, 784.571 659.195 C 789.158 656.828, 794.596 651.917, 797.979 647.086 L 800.370 643.672 797.025 640.880 C 791.209 636.024, 770.901 623.843, 760.013 618.679 C 747.478 612.734, 741.031 608.621, 731.007 600.175 C 726.878 596.696, 719.786 590.710, 715.247 586.872 C 706.557 579.526, 698.569 575.031, 690.879 573.160 C 688.337 572.542, 685.510 571.749, 684.596 571.399 C 683.515 570.984, 684.289 572.810, 686.814 576.631 M 346.500 574.956 C 344.300 576.007, 341.375 577.791, 340 578.919 L 337.500 580.971 340.809 583.604 C 342.852 585.230, 345.473 589.158, 347.658 593.869 C 349.605 598.066, 351.844 602.850, 352.634 604.500 C 353.768 606.868, 355.800 608.222, 362.285 610.931 C 366.803 612.818, 372.075 615.498, 374 616.886 L 377.500 619.409 374.871 616.454 C 372.287 613.552, 367.885 606.884, 365.356 602.043 C 364.476 600.359, 363.203 599.573, 361.305 599.543 C 357.273 599.480, 357.204 595.372, 361.145 589.905 C 362.809 587.595, 361.445 582.892, 359.345 583.698 C 358.357 584.077, 357.187 583.609, 356.387 582.514 C 355.270 580.986, 355.330 580.250, 356.772 577.809 C 358.271 575.271, 358.298 574.800, 356.991 573.973 C 354.674 572.509, 350.875 572.865, 346.500 574.956 M 721 575.018 C 722.375 576.208, 726.200 579.747, 729.500 582.881 C 736.861 589.874, 744.752 596.377, 747.727 597.903 C 757.073 602.699, 732.118 580.350, 721.761 574.649 L 718.500 572.854 721 575.018 M 260.728 574.722 C 262.503 574.943, 265.653 574.946, 267.728 574.730 C 269.802 574.513, 268.350 574.333, 264.500 574.328 C 260.650 574.324, 258.952 574.501, 260.728 574.722 M 295.667 574.667 C 294.416 575.917, 294.997 577, 296.918 577 C 299.531 577, 302 575.976, 302 574.893 C 302 573.862, 296.662 573.671, 295.667 574.667 M 308.751 577.689 C 307.077 578.127, 305.214 582.548, 306.262 583.595 C 306.538 583.871, 307.926 583.806, 309.346 583.449 C 311.954 582.795, 313.654 579.868, 312.506 578.009 C 311.856 576.958, 311.625 576.938, 308.751 577.689 M 325 599.294 C 319.967 601.840, 318.278 610.206, 321.072 618.754 C 322.274 622.431, 329.202 633.487, 330.725 634.158 C 331.912 634.682, 347.939 653.938, 350.529 657.953 C 351.787 659.904, 353.963 665.325, 355.365 670 C 358.106 679.139, 360.490 683.075, 366 687.555 C 367.925 689.121, 371.863 692.587, 374.752 695.259 C 377.640 697.930, 380.452 699.838, 381.002 699.499 C 382.804 698.385, 382.051 692.305, 379 683.336 C 375.445 672.884, 375.428 672.577, 378 665.260 C 380.583 657.910, 380.521 655.927, 377.527 650.217 C 373.895 643.287, 371.547 641.079, 358.403 632.237 C 351.856 627.832, 345.289 622.939, 343.809 621.364 C 342.329 619.789, 339.468 614.554, 337.451 609.731 C 334.105 601.729, 331.246 597.976, 328.527 598.015 C 327.962 598.023, 326.375 598.599, 325 599.294 M 386 629.770 C 386 630.226, 386.394 631.028, 386.876 631.550 C 390.359 635.326, 395.701 662.123, 395.922 676.926 C 396.024 683.794, 396.582 687.526, 397.975 690.676 C 400.936 697.371, 402.688 696.712, 415.200 684.200 C 426.875 672.525, 427.599 670.992, 424.376 664.760 C 422.817 661.745, 422.696 661.697, 421.358 663.560 C 418.504 667.535, 407.578 678, 406.281 678 C 403.556 678, 403.861 674.827, 407.098 669.485 C 408.927 666.468, 410.777 664, 411.211 664 C 411.645 664, 412 663.526, 412 662.946 C 412 662.366, 413.348 660.453, 414.995 658.696 C 418.172 655.306, 418.530 654.446, 417.124 653.577 C 416.642 653.279, 415.077 654.724, 413.647 656.789 C 410.701 661.039, 405.610 664.448, 403.448 663.619 C 400.747 662.582, 401.984 659.179, 407.094 653.587 L 412.188 648.014 406.270 642.257 C 400.836 636.972, 386 627.832, 386 629.770 M 277.015 640.691 C 277.024 642.236, 277.467 644.175, 278 645 C 278.723 646.118, 278.973 645.560, 278.985 642.809 C 278.993 640.779, 278.550 638.840, 278 638.500 C 277.423 638.143, 277.006 639.070, 277.015 640.691 M 685.524 692.207 C 686.969 704.654, 692.640 717.649, 700.489 726.500 C 704.463 730.981, 704.927 731.252, 704.962 729.108 C 705.013 725.902, 701.298 713.603, 698.588 708.008 C 696.024 702.715, 685.892 686, 685.247 686 C 685.003 686, 685.128 688.793, 685.524 692.207 M 271.963 701.356 C 254.686 718.372, 229.035 734.118, 208.072 740.578 C 187.593 746.888, 184.923 747.871, 178.519 751.452 C 175.056 753.389, 170.036 757.017, 167.362 759.514 L 162.500 764.055 166.500 762.367 C 168.700 761.439, 177.475 758.703, 186 756.287 C 194.525 753.872, 206 750.359, 211.500 748.482 C 224.198 744.147, 243.727 738.540, 251.500 736.996 C 286.158 730.112, 293.805 725.471, 292.677 712 C 292.142 705.599, 288.324 696.467, 284.848 693.276 L 282.426 691.052 271.963 701.356 M 305.437 738.972 C 299.657 740.195, 294.500 743.306, 294.500 745.569 C 294.500 748.151, 299.402 748.913, 314.545 748.683 C 324.174 748.537, 327.132 748.144, 329.295 746.727 C 332.342 744.729, 332.793 741.903, 330.383 739.903 C 328.454 738.302, 311.578 737.672, 305.437 738.972 M 427.118 750.381 C 437.528 754.101, 451.627 765.463, 455.682 773.401 C 461.079 783.962, 461.344 785.761, 461.455 812.500 L 461.558 837.500 464.422 842.720 C 465.997 845.592, 469.838 850.317, 472.959 853.220 C 484.394 863.862, 488.837 871.527, 493.539 888.722 C 497.530 903.316, 499.079 908, 499.914 908 C 500.328 908, 502.332 906.538, 504.367 904.750 L 508.066 901.500 507.027 893.500 C 505.804 884.087, 502.943 877.734, 495.666 868.272 C 486.692 856.605, 476.776 841.752, 474.191 836.105 C 470.076 827.119, 468.935 818.439, 468.965 796.366 C 468.995 774.764, 468.191 769.985, 463.716 765.174 C 460.756 761.992, 441.049 752.502, 433.356 750.555 C 425.968 748.685, 422.068 748.576, 427.118 750.381 M 525.264 763.750 C 520.137 770.370, 511.325 786.658, 512.328 787.661 C 512.616 787.950, 513.624 786.682, 514.567 784.843 C 515.510 783.004, 517.497 779.700, 518.982 777.500 C 522.535 772.239, 529.310 760, 528.670 760 C 528.394 760, 526.861 761.688, 525.264 763.750 M 724 762.923 C 724 763.580, 724.403 763.869, 724.895 763.565 C 725.388 763.260, 727.874 764.471, 730.420 766.256 C 754.748 783.304, 763.449 789.716, 769.105 794.763 C 777.907 802.619, 781.039 804.429, 790.500 807.132 C 799.696 809.759, 805.221 813.262, 811.025 820.145 C 813.277 822.815, 815.588 825, 816.162 825 C 817.437 825, 816.725 812.112, 815.397 811.150 C 814.904 810.792, 810.354 805.959, 805.286 800.409 C 794.997 789.139, 790.587 786.292, 774.340 780.427 C 768.928 778.473, 761.125 774.918, 757 772.528 C 745.948 766.122, 724 759.735, 724 762.923 M 724.030 769.578 C 723.983 771.275, 728.373 783.083, 730.712 787.545 C 733.241 792.371, 740.310 799.111, 745.651 801.787 C 749.387 803.660, 755 805.400, 755 804.685 C 755 804.491, 752.584 802.669, 749.632 800.635 C 746.680 798.602, 742.733 795.265, 740.862 793.219 C 737.807 789.879, 727.941 775.611, 725.152 770.500 C 724.552 769.400, 724.047 768.985, 724.030 769.578 M 228.492 781.253 C 226.802 782.707, 226.096 784.086, 226.501 785.142 C 227.873 788.717, 241.845 791.654, 243.666 788.750 C 244.847 786.865, 245.074 783.664, 244.131 782.178 C 243.273 780.825, 237.239 779.067, 233.306 779.024 C 232.099 779.011, 229.933 780.014, 228.492 781.253 M 637.098 781.265 C 633.073 783.335, 632.356 785.411, 634.022 790.179 C 635.253 793.703, 636.386 794.873, 640.792 797.168 C 645.979 799.870, 646.376 799.918, 660.792 799.589 C 676.934 799.220, 682.403 797.846, 686.019 793.249 C 688.212 790.461, 688.676 784.536, 686.792 783.372 C 686.128 782.961, 679.490 782.463, 672.042 782.265 C 664.594 782.067, 655.489 781.477, 651.808 780.953 C 643.040 779.704, 640.007 779.769, 637.098 781.265 M 305.500 783.137 C 286.980 784.621, 274.542 787.717, 273.464 791.113 C 271.783 796.409, 277.181 797.039, 302 794.445 C 310.061 793.603, 325.867 792.926, 337.592 792.921 C 349.193 792.915, 359.959 792.571, 361.516 792.154 C 365.331 791.134, 366.950 788.521, 364.983 786.556 C 361.283 782.861, 330.811 781.109, 305.500 783.137 M 563.061 826.427 C 561.253 828.605, 562.481 831, 565.407 831 C 566.765 831, 570.716 831.642, 574.188 832.427 C 577.660 833.212, 584.100 834.115, 588.500 834.433 C 597.955 835.117, 599.665 835.392, 616 838.849 C 628.005 841.390, 629.649 841.489, 657.500 841.341 C 690.662 841.166, 696.343 840.579, 696.815 837.276 C 697.159 834.869, 697.038 834.819, 686.367 833 C 677.800 831.539, 673.383 831.146, 658.500 830.517 C 631.581 829.379, 623.915 828.971, 611.382 828.011 C 570.814 824.904, 564.496 824.697, 563.061 826.427" fill-rule="evenodd"/></g></svg>