<svg xmlns="http://www.w3.org/2000/svg" viewBox="0 0 64 64" width="32" height="32">
  <g fill="none" stroke="rgb(53, 80, 116)" stroke-width="5.2" stroke-linecap="round" stroke-linejoin="round">
    <!-- B: наклонная «чернильная» спина + два завитка-чашечки -->
    <path d="M16 11 C 14.5 25 13.5 39 11 53"/>
    <path d="M16 11 C 28 8 33 18.5 25 24.5 C 22 26.8 18 26 13.6 30.5"/>
    <path d="M14.4 30 C 30 26 37 36 28.5 45 C 24.5 50 16 51 11 53"/>
    <!-- O: округлый курсивный овал -->
    <path d="M46 16.5 C 34.5 14.5 31.5 31 36.5 43.5 C 41 54 51.5 51.5 52.5 39 C 53.4 28 51 16.8 43.5 18"/>
    <!-- ! : наклонный штрих -->
    <path d="M58.5 14 C 58.2 25 57.2 33 56 41"/>
  </g>
  <!-- точка восклицательного знака -->
  <circle cx="55" cy="49.5" r="3" fill="rgb(53, 80, 116)"/>
</svg>
