<?xml version="1.0" encoding="UTF-8"?><svg xmlns="http://www.w3.org/2000/svg" xmlns:xlink="http://www.w3.org/1999/xlink" height="260.3" preserveAspectRatio="xMidYMid meet" version="1.0" viewBox="0.0 0.0 261.8 260.3" width="261.8" zoomAndPan="magnify"><g id="change1_1"><path d="M251.5,83.1l0.2,0.4c0,0.5-0.1,0.6-0.2,0.4V83.1z M252.1,80.4c-0.1-0.6-0.3-1.3-0.5-0.9 c0.2,0.6,0.1,0.7,0.4,1.4c0,0.5-0.1,0.9-0.2,0.8c0.1,0.2-0.1,0.8,0.1,1.1C252.1,82.1,252.1,81.3,252.1,80.4 C252,80.2,252.1,80.4,252.1,80.4z M254.1,30.2v0.3C254.1,30.4,254.1,30.3,254.1,30.2z M254.1,8.8c0-0.2,0-0.3-0.1-0.3 C254,8.7,254.1,8.9,254.1,8.8z M253.8,14.1c0-0.1,0-0.2,0-0.3C253.8,13.9,253.8,14.1,253.8,14.1z M254.1,30.2l0.1-0.8 C254.1,29.3,254.1,29.8,254.1,30.2z M251.8,73.5c0,0.2,0,0.3,0,0.5C251.8,73.8,251.8,73.6,251.8,73.5L251.8,73.5z M253.8,43.9v0.3 c0,0.1,0.1,0.1,0.1,0.2L253.8,43.9z M253.5,54.5c0-0.2-0.2-0.3-0.3-0.4c0.1,0.1,0.1,0.3,0.1,0.5C253.4,54.6,253.5,54.5,253.5,54.5z M252.7,71.4v-0.3C252.7,71.2,252.7,71.4,252.7,71.4z M254.1,36.4C254.1,36.4,254.2,36.3,254.1,36.4 C254.2,36.3,254.1,36.3,254.1,36.4z M253.6,27L253.6,27C253.6,26.9,253.6,26.9,253.6,27z M255.1,14.8V15h0.1L255.1,14.8z M253.5,23.9C253.5,23.8,253.5,23.8,253.5,23.9C253.5,23.6,253.5,23.7,253.5,23.9z M255.8,43.8c-0.2,1-0.2-1.6-0.4-0.1 C255.4,43.5,255.7,45,255.8,43.8z M251.8,73.2c0-0.1,0-0.3,0-0.4C251.8,73,251.8,73.1,251.8,73.2z M255.4,43.6L255.4,43.6v0.2 C255.4,43.7,255.4,43.7,255.4,43.6z M253.6,46.3c0,0,0.1-0.1,0.1-0.2C253.7,46,253.6,46.1,253.6,46.3z M253.9,29.6V30 C253.9,29.8,253.9,29.7,253.9,29.6z M253.9,54.9c0,0.2,0,0.3,0,0.6v-0.1C253.9,55.3,253.8,55.2,253.9,54.9z M253.9,64 c0,0,0-0.1,0-0.2c0-0.1,0-0.2,0-0.3V64z M252.1,54.3c0.1-0.2,0.1-0.3,0.2-0.4C252.1,54.1,252.2,52.7,252.1,54.3z M251.9,73.5 c-0.1-0.1-0.1-0.1-0.1-0.3C251.8,73.3,251.8,73.4,251.9,73.5C251.8,73.5,251.8,73.5,251.9,73.5z M255.5,55.3v1.4 C255.5,56.3,255.5,55.8,255.5,55.3z M254.3,28.2v0.3C254.3,28.4,254.3,28.3,254.3,28.2z M255.5,61c-0.1,0.3-0.1,0.5-0.1,0.8 c0,0.1,0,0.1,0.1,0.2V61z M252.3,53.9L252.3,53.9L252.3,53.9z M252.6,45.1c0-1.3,0.1-0.4,0.3-1.6c-0.2-0.7,0.2-1.3-0.2-1.5 c0.3-0.4,0.2-0.3,0.4-1.1c-0.2,0.4-0.1-1.6-0.3-1.6c0.3-0.3,0.2,1.4,0.6,0.4c-0.1-0.8-0.1-2.2-0.4-2.3c0.1-0.6,0.2-0.8,0.3-1.7 c0,0.1,0,0.3,0,0.4c-0.1-1.6,0.2-4-0.1-4.9c0.4,0.3,0.2-3.4,0.5-2.2c0-0.7-0.1-1.7-0.2-2c0.3,0.1,0.2-1.7,0.4-2.4 c-0.2-0.4-0.1-1.6-0.1-2.3c0,0.3,0.1,0.5,0.2,0.4c-0.1-0.8,0-0.6,0.2-1.3c-0.1-1.1-0.3,0.2-0.4-0.5c0.1-1,0.2-0.1,0.4-0.3l-0.3-1.4 c0-0.3,0.1-0.5,0.2-0.6c-0.1-0.5-0.2-0.9,0-1.6v1.2l0.2-0.5l-0.2-1.5c0.3-2.1,0.6-1.4,1-1.2v0.9c0.1,0,0.2-0.6,0.2-1 c0.1-0.3,0.3,1.4,0.3,2.3c-0.1,2.5-0.4,0.5-0.6,2.2l0.1,2.2H255c-0.1,0.3,0,0.6,0.1,0.6c-0.2-0.2-0.1,1.8-0.2,2.7l0.2-0.3 c0.2,2.5-0.5,3.9-0.5,5.9l0.2,1.4l-0.2,0.3c0.1,0.8,0.3,1,0.1,2.3c-0.6,4.7-0.5,9.8-1,14.5c0-0.1,0.1-0.2,0.1-0.5 c-0.8,4.1,0.1,6.6-0.6,10.3l-0.1-0.3c-0.1,1.9-0.1-0.3-0.3,1.1c0.2,0.3,0,2.4,0,3.6c0-0.2,0-0.6,0-0.9c-0.1,0.2-0.2,0.3-0.2,0.8 c0.3,1.3,0,3.9,0,5.8c-0.2,0.2-0.5,1.9-0.9,2.7c0,0.2,0.1,0.6,0.3,0.9c-0.1,0.3-0.1,0.6-0.1,0.9l-1-0.1c0-0.3,0-0.6-0.1-0.8v0.8 l1.2,0.1l0.1-0.8l0,0c0-0.1,0-0.2,0-0.3c0-0.4,0-0.6,0-0.5c0.2-0.8,0.1,0.1,0.3,0c0,0.4-0.1,1.1-0.1,1.5l-1.8-0.1 c0-0.3,0.1-0.5,0.1-0.6c0-0.4,0.1-0.6,0.1-1c0-0.2,0-0.5,0-0.8v0.1c0,0,0.1-0.1,0.1-0.2c0.2-1.2,0-3-0.1-4c0.2,1,0.3-0.2,0.5-0.2 c0-0.1-0.1,1.2-0.2,2.7c0-0.1,0.1-0.2,0.1-0.2c0.3-1.4,0-2.3,0.2-4.3c0,0.1,0,0.4,0.1,0.3c0.1-0.7,0-1.4-0.1-1.5 c0.2-0.2,0.4-1.7,0.4-2.4c-0.1-0.7-0.2-0.6-0.1-1.8l0.1,0.5c0.2-1.4-0.1-1.2,0-2.3c-0.1,0.5,0.1,0.5,0.1,0.2c0-1.5-0.1-1.5-0.3-2.6 l0.2,0.2c-0.1-1.2-0.2-3.6,0.1-3.6c-0.4,0.4-0.1-2.7,0-3.8c0,0.4,0.1,0.4,0.1,0.5c-0.2-2.3,0.2-4.6,0.3-6.9l0.3-0.4 c0-1.2-0.6-1.6-0.5-2.9l0.1,0.5c0-2.3,0.1-3.3,0.2-5.2h0.2c-0.1-0.7,0-1.5-0.1-2.2c0.6-1.5-0.1-6.1,0.6-9l-0.4-0.2 c0-1.1,0-2.5,0.3-3v0.2c0.3,0.1,0-1.1,0.1-1.8c0-0.5-0.2-1-0.3-0.6c0.3-2.9,0.2-7.1,0.5-8.9c0-1-0.1-2-0.1-2.9h1.7 c0.2,1.7,0.4,3.3,0.4,5.3l0,0c0,1.1,0,3.2-0.4,3.2c0.2,2.2,0.7,3.7,0.6,6.3l-0.1-0.6c0,0.7,0.1,1.8,0.2,2c0,0.2-0.1,0.1-0.1,0 c-0.1,0.6,0.1,1,0.1,1.5l-0.1-0.2c-0.2,2.1,0.4,5.5,0.3,8.2c0-0.5-0.2-0.2-0.2,0c0.4,1.1,0.3,4.2,0.4,5.4l-0.2-0.7 c0.3,2.2-0.4,1.9-0.1,4.2l0.2-1.3c-0.1,0.9,0,1.7,0.2,1.5c-0.1,1.1-0.3,0.1-0.3,1.7c-0.1,0.1-0.1-1.1-0.2-0.6l-0.3,2.2 c0,0.1,0,0.3,0,1.1c0.4-0.2,0,1.8,0.5,0.7c0,3.1-0.3,5.7-0.1,8.4c-0.4,1.1-0.1,5.3-0.6,5c0,1.5,0.1,2.7,0.3,3.7c0-0.3,0-0.7,0-1 c0.1,0.4,0.1,2.2,0.1,3c-0.1-1-0.2-2.6-0.4-3.4c0,1.4,0.2,3.3,0.3,4.1l-0.3,0.3c0.2,1.2-0.3,1,0,2.1l0.1-0.2 c-0.1,2.1,0.2,2.2,0.2,4.1l-0.1-0.1c-0.1,0.7,0.2,1.7-0.1,2.3V72c-0.2,0.1-0.3,1.1-0.4,1.5c0,1.4,0.3,0.5,0.3,1.2 c-0.2,0.3-0.1,0.1-0.3-0.4c0,1.1,0,2.5,0.1,3.6h-0.9c0-0.4-0.1-0.8-0.2-1.1c0-0.1,0.1,0,0.1,0c0-1.6-0.3-3-0.1-4v0.3 c0.3-1.3-0.3-3.3,0.2-3.5c0.1-0.6,0,1.4,0.2,0.4c0.2-1.9-0.4-1.2-0.3-2.9c0,0.2,0,0.2,0.1,0.2c0-1.2-0.1-2.8-0.1-4.1 c0.4-1.6-0.1-5,0.4-6.9c-0.2,0.6-0.2-0.5-0.3-0.5c0,0,0,0.1,0.1,0c0-0.7-0.1-0.8-0.2-1c0.1-0.6-0.1-1.9-0.1-2.2 c-0.1,0-0.1-0.6-0.1-1.2c0.1,1.2,0.2,0.4,0.4,0.9c0.1-1.8-0.4-2.1-0.4-4l0.2-1c-0.3-0.2-0.2-2-0.3-1.9c0.1-0.3,0.1-0.8,0.3-0.7 c-0.1-0.8,0.1-1.9-0.1-2.2l-0.1,0.8c0.1-2.3-0.3-3.7-0.1-5.5h0.4c0.2-1.2-0.2-2.2,0-3.3c-0.1,0.4-0.1,0.4-0.2-0.3 c0,0.5,0.1,1.3,0.1,2.1l-0.3-1.6l0.1,2.5c-0.2-1.1-0.1-1-0.3-0.6c-0.1-1.5,0.2-1.6,0-3.1c0.1-0.5,0.2,0,0.3-0.6 c-0.2-1.3,0.3-2.5,0.1-3.4c0-0.3,0,0.5,0.1,0.5c0-0.8,0-1.4-0.2-1.7V29c0-0.6-0.2-0.7-0.1-1.9c-0.1-0.7-0.3-1.1-0.3-0.3 c0-0.3,0.1-1,0.2-0.7c0-1.9-0.5-0.9-0.3-2.7c0,0.1,0,0.3,0.1,0.2c0-0.5,0-0.8,0-1.1c0,1.6,0.3-0.5,0.3,1.4c0.2-0.2,0.1-1.4,0.1-2 c-0.2-0.9-0.3-0.1-0.4-0.6c0.1,0,0.1-0.4,0.1-0.8l-0.2,0.4c0-0.4,0-0.8,0-1.2l0.1,0.8c0-0.8,0.3-2.1,0.1-3.6 c0.1,0.4,0.2,1.2,0.3,0.2c-0.1-1.6,0.1-0.4,0.2-1.3c0-1.6-0.3-0.3-0.2-2.6c0-0.3-0.1,0-0.1,0.2c0.1-1.6,0-2.5,0.1-4 c0,0.7-0.1,1.2-0.2,0.3c0.1,0.4,0.1-1.3,0.2-1.9l0.3,0.2c0.1-0.5,0.1,0,0.2,0.4c0,0-0.1,0.1-0.1,0.4c0.1,0.8,0.4,0.5,0.4-0.7 c-0.1-1.3-0.3-1.1-0.4-0.9c0.1-1.7-0.4-1.6-0.3-3.3c0,0,0,0,0-0.1h1.6c0,0.4-0.4,1.6-0.5,2.8c0.2,0.6,0.2-1.5,0.3-0.8 c-0.6,2,0.2,4.1-0.2,6.7l-0.2-0.3c0,0.6-0.1,1.2-0.1,1.9l0.2-0.9c0,0.6-0.1,2-0.2,1.6c0.2,1.4,0,1.7-0.1,3c0.1-1.4,0,0-0.1-1 c-0.2,1.4-0.1,1.5-0.1,2.5c-0.1-0.2-0.2,0.4-0.2,0.7c0.1,0.9,0,2.5,0.1,3.8h-0.1c0,2.2-0.4,4.5-0.2,6.7l0,0l0,0v0.1v-0.2 c0.3-0.7,0.1,1.7,0.2,2.4c-0.1,0.1-0.2,0.2-0.2,0.6c0.2,0,0.1,0.8,0.2,1.2c-0.1,0.7-0.3-0.1-0.3,1.2c0,0.5,0.1,0.6,0.2,0.5 c-0.1,0.3-0.2,1.1-0.3,1.8c0-0.2,0-0.6,0-0.8c-0.1-0.1-0.1,0.4-0.2,0.4c0,0.6,0.2,0.2,0.1,1l-0.1-0.7c-0.1,0.3,0,0.7,0,0.8 c0-0.5-0.2-0.4-0.3-0.3c0.1,1.8,0.4,0.4,0.6,0.5c-0.2,1.7,0,3,0,4.3l-0.2-0.2c0,0.6,0,0.9,0.1,1.2v1c-0.1-0.6-0.1-0.7-0.3-0.8 c0,1-0.1,2.4,0.2,2.7l0,0c-0.1,1.4-0.3,4.2-0.4,4.1c0,1.5-0.2,3.3,0.1,3.4c0,0.9-0.4,2.3-0.1,2.9c-0.2,1-0.1,0.1-0.3-0.3 c-0.2,1,0.2,2.1-0.2,2.4c0.1,1.2,0.1-0.3,0.2,0.1c-0.4,0.2-0.1,2.3-0.4,3.4c0.1,0.5,0.1-0.5,0.2,0.4c-0.1-0.1-0.1,0.4-0.1,0.6 l0.2,0.2l-0.6,1.1c0.2,1.7,0.4-0.3,0.4,2v-0.1c-0.3,0.6,0.1,1.6-0.1,3.3c0.1-0.6-0.1-0.2-0.2-0.4l0.1,0.9c0-0.1,0-0.1-0.1,0 c-0.2,0.8,0.1,0.7-0.1,1.6c0-0.7-0.2-0.5-0.3-0.2l0.2,1.4l-0.3-0.6c-0.1,1.3,0.4,3.3-0.1,3.9v-0.7c-0.1,0-0.3,0.4-0.2,1.3 c0,0.3,0.2,0.5,0.2,0.1l-0.1,0.7c-0.2-0.3-0.2-2-0.2-3c0.1,0.3,0.1,1.1,0.2,0.9c0-0.9-0.1-1.8-0.2-2.7c0.1,0.4,0.2,0.6,0.3,0.8 c0.1-1-0.1-0.7-0.1-1.5c0.1-0.3,0.1-0.5,0.2-0.3c-0.1-0.9,0-1.7,0.1-2.7c0,0,0.1,1.1,0.2,0.5c-0.1-1.8-0.3-2.2-0.4-4.2 c-0.3-2.3,0.3-4.4,0.1-6c-0.1-0.1-0.2,1.2-0.2,0.2c0.2,0.2,0.1-0.6,0.2-0.7c-0.2-1.1,0.1-1.6,0-2.4c0.1,0.2,0.1-0.5,0.2-0.9 c0.2,0.1,0.1-1.2,0.4,0.4c-0.3-1.7,0.2-3-0.3-4.2l-0.1,0.4l0.2-1.7v0.1c0.1-0.7,0-0.8,0.3-1.8c0,0.4,0,1,0.1,1.5 c0.2-0.9-0.1-1.9-0.1-2.9c0.2,0.1,0,1,0.2,0.8c0-0.7-0.1-1.3-0.1-2l0.1,0.1c0.3-1.7-0.4-0.7-0.1-2c-0.1,0-0.1-0.1-0.2,0 c0.1-0.5,0.3-1.6,0.4-0.5c0-0.6,0-1.3-0.1-1.6c-0.1,0.5-0.1,0.6-0.3,0.8v-2.5c0-0.3,0.1,0.2,0.1,0.6c0.6-2.9-0.2-5.9,0.5-9.1 c-0.2,0.4-0.1-0.2-0.2-0.6c0.1-1.1,0.1-2.7,0.2-3.6l0.1,0.3c0-2.5-0.1-4.3,0-5.9c0-0.1,0.1,0,0.2,0.3c-0.1-1.2,0.5-2.7,0.1-3v0.5 c0.1-2.4-0.1-5.1,0-7.6c0.3-0.6,0,1.4,0.3,0.9c0.1-1.7,0-3.5,0.1-5.4c0,0.3,0,0.2,0.1,0.4c0.2-1.9-0.2,0.2-0.2-1.4 c0.1,0.1,0.1,0,0.2-0.5L254,7c0-0.1,0.2-0.1,0.2,0.2c-0.2-0.7,0-2.6-0.2-3.2h1c0,0.1,0,0.1,0,0.1c-0.1,0.1-0.3-0.3-0.4,0 c-0.1,0.8,0,1.4,0.1,2l0,0c-0.2,0.6-0.1,2-0.2,1.7c-0.1,1.5,0.1,0.2,0.3,1.4l0.1-1.2v2.1l0.1-0.9c-0.1,1,0.1,2,0.1,3.1l0.1-0.5 l0.1,1.3c-0.3,0.1-0.1,1.7-0.4,0.9c-0.1,2.4,0.2,4,0.2,6.2c0-0.4-0.1-0.2-0.1-0.3c-0.1,1.3,0.1,2.1,0.2,2.8 c-0.1-0.2-0.1-0.5-0.2-0.5c0,1.5,0.2,0.9,0.2,2.6c-0.1-0.5-0.2-0.3-0.2,0.1c0.1-0.1,0.2,0.3,0.2,0.6c-0.5-1.3-0.2,1.9-0.7,1.1 c0.1,0.1,0.3,2.7,0.6,1.9V28c0.2-0.1,0.1,0.6,0.1,1c0-0.2-0.1-0.5-0.1-0.5c0.2,2.4,0,4.9,0.1,7.5c-0.1-0.2-0.2-1.3-0.2-0.6 c-0.1,2.6,0.2,4.2,0.3,6.9c-0.3,0.1,0-2.9-0.4-3c0.1,2.8,0.2,5.7,0.4,8.8c-0.5,1.1,0.2,3-0.2,5c0.2-0.2,0.2,0.8,0.2,1.8 c-0.1-0.4-0.1,0.7-0.2,0.4c0.2,0.9,0.2,3.6-0.1,3.5c0.3,0.2,0,2,0.2,2.7c-0.1,1.2,0.1,2.5,0,4c0.2-0.5,0.1,1.4,0.2,2 c0-0.2,0-0.5-0.1-0.4c-0.2,0.4,0.2,1.7,0,2.5c-0.1,0.4-0.2-0.1-0.2,0.5c0.1,0,0.3,2.2,0.1,3c0-0.4-0.1-0.4-0.1-0.6 c0.1,1.8,0.1,3.7,0.1,5.7h-1.9c0.1-2.1,0.2-4.2,0.1-6.3l0.2,0.7c0.4-2.5-0.4-1.6-0.3-3.6c0.3-5.4,0.7-10.9,0.6-16.2 c-0.1-0.4-0.1,0.2-0.2,0.3c0-0.5,0.2-0.6,0.1-1.2l-0.1,0.1c0.4-2.4-0.2-6.9,0.3-8.7c-0.2-2.3,0.1-3.9-0.2-6.7c0.1-0.9,0.2,1,0.3-0.2 l-0.2-2.6v0.1c-0.4-2.5,0.3-6.6,0-9.7v0.1c0.1,0.1,0.2-0.6,0.1-1.1c-0.1-0.2-0.1,0.2-0.2,0.5c-0.2-2.8-0.3-3.4-0.4-5.6 c0.2,0.9,0.1-0.9,0.3-1c-0.1-0.6-0.2,0.3-0.3-0.9c-0.1-1.8,0-3.5,0-5c-0.2-0.6-0.2-1.4-0.4-1.5c-0.1-1.6-0.2-2.7-0.3-4.4h2.2 c0,0.3,0,0.8,0,1.3L255,7c0.2,0.7-0.2,2.2,0,2.7c-0.1-0.1-0.1-0.3-0.2-0.3l0.1,1.2c-0.1-0.5-0.3-0.9-0.4,0.1c0.2,1,0.1-0.3,0.3,0.2 l-0.2,0.3c0,0.7,0.3,1,0.4,0.1c-0.1,2.5,0,5.1-0.1,7.3l-0.1-0.2c0,1.3,0,3-0.2,3.7c0,0,0.1,0.3,0.2,0.1c0.2,1.5-0.3,0.2-0.1,1.8 c0-0.4-0.1-0.9-0.2-1l0.1,3.1c-0.1,0-0.4,1.9-0.4,3.2c0.1,0.1,0.2-0.3,0.2-0.6v0.8L254,30l0.2,1.2H254c0,0.9,0.3,1.2,0.2,2 c-0.2,2.7-0.3,2.1-0.6,4c0.4,0.2-0.1,3,0.2,3.5c-0.4,2.5-0.4,6.2-0.6,9.5v-0.3c-0.3,1.4,0.3,1.6,0.1,3.2v-0.4 c-0.3,2-0.3,5.4-0.2,7.3c0-0.4-0.2-0.2-0.2,0.4c0.1,0.5,0.3-0.5,0.2,0.6c0-0.3-0.1-0.1-0.1,0.2l0.2,1c-0.3,2.7-0.6,5.9-0.7,8.7 c-0.1,0.5-0.2,0.1-0.2,0c0,0.9,0,1.9-0.1,2.8l-1.4-0.1c0.1-1.3,0.1-2.5,0.2-3.7l0.3-0.2c0.1-1-0.3-0.6,0-1.9c0.1-0.3-0.1,0.8,0,1.2 c0.4-2-0.1-1.2,0-3.1l0.2,0.5c0.3-1.4,0-1.7-0.1-2.2c-0.2-2.1,0.7-1.4,0.6-4.2c-0.1-0.4-0.2,0.1-0.3-0.3c0.2-1.9,0-2.2,0.3-4.1 c0.5-1-0.1,1,0.4-0.1L252,57c0.3-1.3,0,1.2,0.2,1c0.1-1,0-2.4,0-3.7c0.2,0-0.1,1.5,0.2,0.9v-0.6c0,0.2,0.1,0.2,0.1,0.6 c0.2-0.2,0.1-0.8,0.1-1.4c-0.1,0-0.2,0-0.4,0.2c0,0,0-0.1,0.1-0.2c-0.2-1.3,0.2-3.4,0-4.5c0,0.2,0.1,0,0.1,0 c0.1-0.8-0.1-1.6-0.1-2.6c0.2-0.5,0.4,0.3,0.4-1.3c-0.1-0.3-0.5,0.4-0.4-1C252.4,44.5,252.5,45.7,252.6,45.1z M252.1,71.6 c0-0.1,0-0.4,0-0.7l0,0C252.1,71.2,252.1,71.4,252.1,71.6z M252,69.1c0,0.3,0,0.4,0.1,0.3c0-0.4,0-0.8,0.1-1.2 C252.2,68.6,252.1,69.2,252,69.1z M252.2,73.3L252.2,73.3c0,0.2,0,0.3,0,0.4l-1.6-0.1c0-0.2,0-0.3,0-0.4c0,0-0.1,0.1-0.1,0.4 l1.8,0.1c0-0.1,0-0.1,0-0.2C252.3,73.4,252.2,73.3,252.2,73.3z M252.1,72.7c0-0.1,0-0.1,0-0.2C252,72.6,252,72.7,252.1,72.7 c-0.1,0.1,0,0.2,0,0.2C252.1,72.8,252.1,72.8,252.1,72.7z M254,30.6L254,30.6L254,30.6L254,30.6z M254.3,31.2L254.3,31.2v0.2V31.2z M252.9,45.3c0,0,0,0.1-0.1,0.2C252.8,45.5,252.8,45.4,252.9,45.3z M252.6,51.7l-0.1,0.9C252.6,52.2,252.6,51.9,252.6,51.7z M252.4,56.6C252.4,56.7,252.4,56.7,252.4,56.6C252.4,56.7,252.4,56.7,252.4,56.6L252.4,56.6z M255.3,29.2c0,0.1,0,0.1,0,0.2 C255.3,29.9,255.3,29.6,255.3,29.2z M254.9,6c0,0.2,0.1,0.5,0.1,0.7C255,6.4,255,6,254.9,6z M255.5,55.2 C255.5,55.1,255.5,55.2,255.5,55.2c0,0.1,0,0.1,0,0.2V55.2z M255,7.9c0-0.4,0-0.8,0-1.1C254.9,7.1,254.9,7.5,255,7.9z M251.6,77.8 V78l0,0V77.8z M251.6,78.1v0.3C251.6,78.3,251.6,78.2,251.6,78.1z M251.7,78.9v-0.6C251.6,78.6,251.6,78.8,251.7,78.9z M251.9,71.4 L251.9,71.4C251.8,71.3,251.9,71.4,251.9,71.4z M251.9,69.4c0,0.5-0.2,1.2-0.2,1.8l0.1,0.1C251.7,71,252,69.8,251.9,69.4z M253.1,61.2l-0.1,1.7c0.1-0.3,0.2-0.7,0.2,0.1C253.5,60.8,253,63.3,253.1,61.2z M253.4,56.1c0,0.9,0.1,0,0.2,0 C253.5,55.5,253.5,55.4,253.4,56.1z M254.6,19l0.2,0.1C254.7,18.4,254.7,19.1,254.6,19z M253.8,11.9l-0.1,0.7l0.2,0.3L253.8,11.9z M255.3,7.8v0.3V7V7.8z M253.7,62.4l0.2-0.2C253.9,61.7,253.6,61.6,253.7,62.4z M255.3,67.7c0.1-0.3,0.2-1,0.1-1.5 C255.3,66.8,255.2,67.4,255.3,67.7z M252.7,24.1l-0.1-0.5v1L252.7,24.1z M250.5,13.2c0.1-0.1,0.1-0.2-0.2-0.2l-0.2,0.2H250.5z M248.5,12.6c-0.4,0.1-0.8,0.3-0.6,0.5c0.4-0.2,0.5-0.1,0.9-0.3c0.3,0,0.5,0.1,0.5,0.2c0.1-0.1,0.5,0.1,0.7,0 c-0.4-0.2-0.9-0.3-1.4-0.1C248.4,12.7,248.5,12.6,248.5,12.6z M218.3,12h0.2C218.4,12,218.3,12,218.3,12z M199.6,13.8 c0.1,0,0.2-0.1,0.2-0.1C199.7,13.7,199.6,13.8,199.6,13.8z M196.4,14c0.1,0,0.1,0,0.2,0C196.5,14,196.4,14,196.4,14z M218.3,12h-0.5 C217.7,12,218,12,218.3,12z M244.3,12.9c0.1,0,0.2,0,0.3,0C244.5,12.8,244.4,12.8,244.3,12.9L244.3,12.9z M226.5,11.4h0.2l0.1-0.1 L226.5,11.4z M232.9,11.3c-0.1,0-0.2,0.2-0.2,0.3c0.1-0.1,0.2-0.1,0.3-0.1C232.9,11.5,232.9,11.4,232.9,11.3z M242.9,12h0.2 C243.1,12,243,12,242.9,12z M222,11.6C222,11.5,221.9,11.5,222,11.6C221.9,11.5,221.9,11.5,222,11.6z M250,9C249.9,9,250,9.1,250,9 C250,9.1,250,9,250,9z M255.6,11.3L255.6,11.3c0-0.1,0-0.1,0-0.1C255.6,11.3,255.6,11.3,255.6,11.3z M193,16.4L193,16.4 C192.8,16.4,192.9,16.4,193,16.4z M246.4,12.5c-0.6-0.2,1-0.2,0.1-0.4C246.5,12.1,245.6,12.3,246.4,12.5z M244.1,12.8 c-0.1,0-0.2,0-0.3,0C244,12.8,244.1,12.9,244.1,12.8z M246.4,12L246.4,12L246.4,12L246.4,12z M206.3,14.6l-0.1-0.1 C206.2,14.6,206.2,14.6,206.3,14.6z M196.3,15.5h0.3C196.5,15.5,196.4,15.5,196.3,15.5z M211.5,13.7c0.1,0,0.2,0,0.4,0 c0,0,0,0-0.1,0C211.7,13.7,211.6,13.8,211.5,13.7z M216.9,13.2h-0.1c-0.1,0-0.1,0-0.2,0H216.9z M233.4,8.6c0.1,0.1,0.2,0.1,0.2,0.2 C233.6,8.6,234.4,8.6,233.4,8.6z M244.3,12.8c0,0-0.1,0.1-0.2,0.1C244.2,12.8,244.3,12.8,244.3,12.8L244.3,12.8z M211.5,12.1 l0.9-0.1C212.2,12,211.8,12.1,211.5,12.1z M230.2,10.9H230C230.1,10.9,230.1,10.9,230.2,10.9z M214.9,11.8c0.2,0.1,0.3,0.1,0.5,0.1 c0,0,0.1,0,0.1-0.1H214.9z M233.7,8.8L233.7,8.8L233.7,8.8z M239,8.6c0.8-0.1,0.3,0.1,1,0.3c0.4-0.2,0.8,0.1,0.9-0.3 c0.3,0.2,0.2,0.2,0.7,0.3c-0.2-0.2,1-0.2,0.9-0.4c0.2,0.3-0.9,0.3-0.2,0.6c0.5-0.2,1.3-0.2,1.4-0.5c0.3,0.1,0.5,0.2,1,0.2 c-0.1,0-0.2,0-0.2,0.1c1-0.1,2.4,0.1,2.9-0.2c-0.2,0.4,2,0.2,1.3,0.5c0.4,0,1-0.1,1.2-0.2c-0.1,0.3,1,0.1,1.4,0.4 c0.2-0.2,1-0.1,1.4-0.1c-0.2,0-0.3,0.1-0.2,0.2c0.5-0.1,0.4,0,0.8,0.2c0.7-0.1-0.1-0.3,0.3-0.4c0.6,0.1,0.1,0.2,0.2,0.4l0.9-0.3 c0.2,0,0.3,0.1,0.4,0.2c0.1,0,0.3-0.1,0.5-0.1c0.1,0,0.2,0,0.4,0.1c0.1,0.1,0.3,0.1,0.4,0.3c-0.2-0.1-0.4-0.2-0.6-0.2 c-0.2,0-0.3-0.1-0.5-0.1c0.1,0.1,0.2,0.1,0.3,0.2c0.2,0,0.4,0,0.7,0.1c0.2,0.1,0.4,0.3,0.6,0.4c0.1,0.2,0,0.4,0,0.5 c-0.1,0.1-0.1,0.1-0.2,0c-0.1,0-0.1-0.1-0.2-0.1s-0.2,0.1-0.3,0.1h-0.1l0,0H256l0,0c0,0.1-0.1,0.1-0.2,0.2v0.1c0,0,0,0,0,0.1l0,0 c0.1,0.1,0.2,0,0.2,0c0.1,0,0.1-0.1,0.2-0.1c0,0-0.1,0.1-0.2,0.2c-0.1,0.1-0.2,0.1-0.3,0c0,0,0,0,0,0.1s0.1,0.1,0.1,0 c0,0,0.1-0.1,0-0.2c0-0.1-0.1-0.1-0.2-0.1c-0.1-0.1-0.3-0.1-0.4-0.2c-0.1,0-0.1-0.1-0.1-0.2c0-0.1,0-0.2-0.5-0.3l-1.3,0.1v-0.1 c-0.2-0.1-0.3,0-0.4,0c0.1-0.2-1.1-0.1-1.6-0.2l0.2,0.2c-1.5,0.3-2.4-0.5-3.6-0.4l-0.9,0.2l-0.2-0.2c-0.5,0.1-0.6,0.3-1.4,0.2 c-2.8-0.5-5.9-0.1-8.7-0.4c0,0,0.1,0.1,0.3,0.1c-2.5-0.6-3.9,0.5-6.2,0l0.2-0.1c-1.2,0,0.2-0.1-0.7-0.2c-0.2,0.3-1.5,0.2-2.1,0.3 c0.1-0.1,0.3,0,0.5-0.1c-0.1-0.1-0.2-0.2-0.5-0.2c-0.7,0.4-2.3,0.3-3.5,0.5c-0.1-0.2-1.2-0.3-1.7-0.6c-0.1,0.1-0.3,0.2-0.5,0.3 c-0.4-0.1-0.7,0-1,0.1c0.4,0,0.7,0,1,0l0,0c0,0,0.1,0,0.2,0c0.3,0,0.4,0,0.3,0c0.5,0.2,0,0.1,0,0.3c-0.4,0-1.2,0.1-1.3-0.1 c-0.2,0-0.4,0-0.6-0.1c-0.1,0-0.3,0-0.5,0h0.1c0,0-0.1,0-0.1-0.1c-0.8-0.1-1.8,0.2-2.4,0.4c0.6-0.3-0.2-0.3-0.2-0.5 c-0.1,0,0.7,0,1.6,0c-0.1,0-0.1-0.1-0.1-0.1c-0.8-0.2-1.4,0.2-2.6,0.1c0.1,0,0.2-0.1,0.2-0.1c-0.4-0.1-0.8,0.1-0.9,0.2 c-0.1-0.2-1-0.3-1.5-0.2c-0.4,0.2-0.3,0.2-1.1,0.2l0.3-0.1c-0.8-0.1-0.7,0.2-1.4,0.1V8.8l0,0l0,0v1.1c0.2,0,0.3-0.1,0.1-0.1h-0.1 V8.9c0.8-0.1,0.9-0.1,1.5-0.4l-0.1,0.2c0.8-0.1,2.2-0.4,2.2-0.1c-0.2-0.4,1.6-0.2,2.3-0.2c-0.2,0-0.3,0.1-0.3,0.1 c1.4-0.2,2.8,0.1,4.2,0.1l0.2,0.3c0.7,0,1-0.6,1.8-0.5L224,8.5c1.4,0,2,0.1,3.1,0.2v0.2c0.4-0.1,0.9,0,1.3-0.1 c0.9,0.6,3.7,0,5.4,0.6l0.1-0.4c0.7,0.1,1.5,0,1.8,0.4h-0.1c-0.1,0.3,0.7,0.1,1.1,0.2c0.3,0,0.6-0.2,0.4-0.3 c1.7,0.3,4.3,0.3,5.3,0.8c1.7,0,3.1-0.2,4.9,0.1l0,0c0.6,0.1,1.9,0.3,1.8,0.7c1.4,0.1,2.3-0.3,3.8,0l-0.4,0.1c0.4,0.1,1.1,0,1.2,0 c0.1,0,0,0.1,0,0.1c0.4,0.1,0.6,0,0.9,0l-0.1,0.1c0.6,0.2,1.4,0.2,2.2,0.2l-0.2,1.6c-0.9,0-1.9,0-2.7-0.1c0.3,0,0.2-0.1,0-0.2 c-0.4,0.2-1,0.2-1.6,0.1c-0.6,0-1.3,0-1.6,0l0.4-0.1c-1.3,0.1-1.1-0.5-2.5-0.3l0.7,0.3c-0.5-0.1-1-0.1-0.9,0.1 c-0.6-0.1-0.1-0.3-1-0.3c0-0.1,0.7,0,0.4-0.2l-1.3-0.3c0,0-0.2,0-0.6,0c0.1,0.5-1.1,0-0.4,0.4c-0.9,0-1.8-0.1-2.6-0.2 c-0.8-0.1-1.6-0.1-2.4,0c-0.7-0.4-3.2,0-3-0.6c-0.9,0-1.6,0.1-2.2,0.4c0.2,0,0.4,0,0.6-0.1c-0.2,0.1-1.3,0.2-1.8,0.2 c0.6-0.1,1.6-0.3,2-0.5c-0.8,0.1-2,0.3-2.4,0.4l-0.2-0.3c-0.7,0.2-0.6-0.2-1.3,0.1l0.1,0.1c-1.3,0-1.3,0.3-2.5,0.4v-0.1 c-0.4,0-1,0.3-1.4,0h0.8c-0.1-0.2-0.7-0.3-1-0.3c-0.8,0.1-0.3,0.3-0.7,0.4c-0.2-0.2,0-0.1,0.2-0.3c-0.9,0.1-2.1,0.3-2.8,0.6v-0.1 c-1,0-1.8,0.4-2.4,0.3h0.2c-0.8-0.2-1.9,0.4-2.1-0.1c-0.4-0.1,0.8,0,0.2-0.2c-1.1-0.1-0.7,0.5-1.7,0.4c0.1,0,0.1,0,0.1-0.1 c-0.7,0.1-1.7,0.2-2.5,0.3c-1-0.3-3,0.4-4.1,0c0.4,0.1-0.3,0.2-0.3,0.3c0,0,0,0,0-0.1c-0.4,0-0.4,0.2-0.6,0.3 c-0.3-0.1-1.1,0.3-1.3,0.2c0,0.1-0.3,0.1-0.7,0.1c0.7-0.2,0.2-0.2,0.5-0.4c-1.1,0.1-1.2,0.6-2.3,0.6l-0.6-0.1 c-0.1,0.3-1.2,0.3-1.1,0.4c-0.2-0.1-0.5-0.1-0.5-0.2c-0.4,0.1-1.1,0.1-1.3,0.2h0.5c-1.4,0.1-2.2,0.6-3.3,0.5v-0.4 c-0.7-0.1-1.3,0.4-1.9,0.2c0.2,0.1,0.3,0.1-0.2,0.3c0.3,0,0.8-0.2,1.2-0.2l-0.9,0.4l1.5-0.3c-0.6,0.2-0.6,0.2-0.3,0.3 c-0.9,0.2-1-0.1-1.9,0.2c-0.3,0,0-0.2-0.4-0.3c-0.8,0.2-1.5-0.1-2,0.2c-0.2,0,0.3-0.1,0.3-0.1c-0.5,0.1-0.9,0.1-1,0.3h0.4 c-0.4,0-0.4,0.2-1.1,0.2c-0.4,0.2-0.6,0.4-0.2,0.3c-0.2,0.1-0.6,0-0.5-0.2c-1.1,0.1-0.5,0.5-1.6,0.5c0.1,0,0.1-0.1,0.1-0.1 c-0.3,0-0.5,0-0.7,0.1c1-0.2-0.3-0.3,0.8-0.4c-0.2-0.2-0.9,0.1-1.2,0c0,0-0.1,0-0.1,0.1l-0.2-1.1c0.3-0.2-0.1-0.3,0.2-0.4 c0,0.1,0.2,0,0.5,0l-0.3-0.1c0.2,0,0.5-0.1,0.7-0.2l-0.4,0.1c0.5-0.1,1.3,0.1,2.1-0.2c-0.2,0.1-0.7,0.3-0.1,0.3 c0.9-0.3,0.2,0,0.8,0.1c0.9-0.2,0.1-0.3,1.5-0.4c0.2,0,0-0.1-0.2-0.1c1-0.1,1.5-0.3,2.4-0.3c-0.4,0-0.7,0-0.2-0.2 c-0.2,0.2,0.8,0,1.2,0.1l0.1-0.1c0.3,0.1,0,0.1-0.2,0.2c0,0-0.1,0-0.3,0c-0.4,0.1-0.2,0.4,0.5,0.4c0.8-0.2,0.6-0.4,0.5-0.5 c1-0.1,0.9-0.5,1.9-0.5c0.2,0,1,0.2,1.8,0.2c0.3-0.2-0.9,0-0.5-0.3c1.3,0.3,2.4-0.6,4-0.5l-0.2,0.3c0.4,0,0.7,0,1.1-0.1l-0.6-0.1 c0.4-0.1,1.2-0.1,1,0.1c0.8-0.3,1-0.2,1.8-0.2c-0.8,0.1,0,0-0.6,0.1c0.9,0,0.9,0,1.5-0.2c-0.1,0.1,0.2,0.2,0.5,0.2 c0.5-0.2,1.5-0.3,2.3-0.4v0.1c1.3-0.2,2.7,0,4-0.2l0,0l0,0c0,0,0,0,0.1,0h-0.1c-0.5-0.2,1-0.2,1.4-0.3c0.1,0.1,0.1,0.2,0.4,0.1 c0-0.2,0.5-0.1,0.7-0.3c0.5,0.1,0,0.3,0.7,0.2c0.3,0,0.3-0.1,0.3-0.2c0.2,0.1,0.7,0.2,1.1,0.2c-0.1,0.1-0.4,0-0.5,0 c0,0.1,0.2,0.1,0.2,0.2c0.4,0,0.1-0.2,0.6-0.2L223,12c0.2,0,0.4,0,0.5-0.1c-0.3,0.1-0.2,0.2-0.2,0.3c1-0.2,0.2-0.5,0.2-0.7 c1,0.1,1.8-0.2,2.6-0.2l-0.1,0.2c0.4,0,0.6-0.1,0.7-0.2h0.6c-0.3,0.1-0.4,0.1-0.5,0.3c0.6-0.1,1.5,0,1.6-0.3l0,0 c0.8,0.1,2.6,0.1,2.5,0.2c0.9-0.1,2,0.1,2-0.2c0.5-0.1,1.4,0.4,1.8,0c0.6,0.2,0,0.1-0.2,0.3c0.6,0.2,1.3-0.3,1.5,0.1 c0.7-0.1-0.2-0.1,0.1-0.2c0.1,0.4,1.4,0.1,2,0.3c0.3-0.1-0.3-0.1,0.2-0.2c-0.1,0.1,0.2,0.1,0.4,0.1l0.1-0.2l0.7,0.6 c1-0.2-0.2-0.4,1.2-0.4h-0.1c0.4,0.2,1-0.1,2,0.1c-0.3-0.1-0.1,0.1-0.3,0.2l0.6-0.1c-0.1,0-0.1,0,0,0.1c0.5,0.2,0.4-0.1,1,0.1 c-0.4,0-0.3,0.2-0.1,0.3l0.8-0.2l-0.3,0.3c0.8,0.1,2-0.3,2.4,0.1h-0.4c0,0.1,0.2,0.3,0.8,0.2c0.2,0,0.3-0.2,0.1-0.2l0.4,0.1 c-0.2,0.2-1.2,0.2-1.8,0.2c0.2-0.1,0.7-0.1,0.5-0.2c-0.6,0-1.1,0.1-1.6,0.2c0.2-0.1,0.4-0.2,0.5-0.3c-0.6-0.1-0.5,0.1-0.9,0.1 c-0.2-0.1-0.3-0.1-0.2-0.2c-0.6,0-1,0-1.6-0.1c0,0,0.7-0.1,0.3-0.2c-1.1,0.1-1.3,0.3-2.5,0.4c-1.4,0.3-2.7-0.3-3.6-0.1 c-0.1,0.1,0.7,0.2,0.1,0.2c0.1-0.2-0.4-0.1-0.4-0.2c-0.7,0.2-1-0.1-1.5,0.1c0.1-0.1-0.3-0.1-0.5-0.2c0.1-0.2-0.7-0.1,0.2-0.4 c-1,0.3-1.8-0.1-2.5,0.4l0.3,0.1l-1-0.1l0,0c-0.4,0-0.5,0-1.1-0.2c0.3-0.1,0.6-0.1,0.9-0.1c-0.5-0.2-1.1,0.2-1.7,0.2 c0-0.2,0.6-0.1,0.4-0.3c-0.4,0-0.8,0.1-1.2,0.1l0.1-0.1c-1.1-0.2-0.4,0.4-1.2,0.2c0,0.1-0.1,0.1,0,0.2c-0.3-0.1-1-0.2-0.3-0.4 c-0.4,0-0.8,0.1-1,0.2c0.3,0.1,0.4,0.1,0.5,0.2l-1.5,0.1c-0.2,0,0.1-0.1,0.3-0.1c-0.9-0.2-1.7-0.1-2.6,0c-0.9,0.1-1.8,0.2-2.8,0 c0.2,0.1-0.1,0.1-0.3,0.2c-0.6,0-1.6,0.1-2.2,0l0.2-0.1c-1.5,0.2-2.5,0.5-3.5,0.5c0,0,0-0.1,0.2-0.2c-0.7,0.2-1.6-0.3-1.8,0.1h0.3 c-1.5,0.1-3,0.5-4.5,0.7c-0.4-0.2,0.9-0.1,0.5-0.4c-1,0-2.1,0.3-3.2,0.4c0.2-0.1,0.1-0.1,0.2-0.1c-1.1,0,0.2,0.2-0.8,0.3 c0-0.1,0-0.1-0.3-0.2l-0.3,0.2c0,0-0.1-0.2,0.1-0.2c-0.4,0.3-1.7,0.3-2,0.6c-0.1,0,0.1-0.3,0-0.4c-0.5,0-0.8,0.1-1.2,0.3l0,0 c-0.4-0.1-1.2,0-1.1,0c-0.9,0.1-0.1,0.1-0.8,0.4h0.7l-1.3,0.2l0.5-0.2c-0.6,0-1.2,0.3-1.8,0.4l0.3,0.1l-0.8,0.2 c-0.1-0.3-1,0.1-0.6-0.3c-1.5,0.1-2.3,0.6-3.6,0.8c0.2,0,0.1-0.1,0.2-0.1c-0.5,0.1-0.9,0.2-1.2,0.3l-0.2-1.3 c0.1-0.1,0.3-0.1,0.4-0.2c-0.1,0.1-0.3,0.1-0.3,0.2c0.9-0.1,0.5-0.2,1.5-0.4c-0.3,0.1-0.2,0.2,0.1,0.2c-0.1-0.1,0.2-0.2,0.3-0.2 c-0.7,0.6,1.1,0.1,0.7,0.6c0-0.1,1.6-0.6,1.1-0.7l-0.3,0.1c-0.1-0.1,0.3-0.1,0.6-0.2c-0.1,0-0.3,0.1-0.3,0.1 c1.4-0.4,2.9-0.4,4.5-0.7c-0.1,0.1-0.8,0.2-0.3,0.2c1.6-0.1,2.5-0.5,4.1-0.8c0.1,0.3-1.7,0.3-1.7,0.6c1.7-0.3,3.4-0.6,5.2-1 c0.7,0.4,1.8-0.4,3-0.1c-0.1-0.2,0.4-0.3,1.1-0.4c-0.2,0.2,0.5,0.1,0.3,0.2c0.5-0.2,2.1-0.4,2.1-0.1c0.1-0.3,1.2-0.1,1.6-0.4 c0.7,0,1.5-0.2,2.4-0.2c-0.3-0.2,0.9-0.2,1.2-0.3c-0.1,0-0.3,0.1-0.2,0.1c0.3,0.2,1-0.2,1.5-0.2c0.2,0.1,0,0.2,0.3,0.2 c0-0.1,1.3-0.4,1.8-0.3c-0.2,0-0.2,0.1-0.4,0.2c1.2-0.2,2.4-0.3,3.6-0.4c1.2-0.1,2.4-0.1,3.6-0.3l-0.4,0.3c1.5,0.2,1-0.4,2.2-0.5 c1.6,0,3.3,0.1,4.9,0.1c1.6,0.1,3.3,0.1,4.9,0c0.2-0.1-0.1-0.1-0.2-0.2c0.3,0,0.4,0.2,0.7,0.1l-0.1-0.1c0.7,0.2,1.8,0.1,2.8,0.1 s2,0,2.5,0.3c0.7-0.1,1.3,0,1.9,0c0.6,0.1,1.3,0.1,2.1,0c0.5,0.2-0.6,0.2,0.1,0.3l1.6-0.1h-0.1c1.2-0.2,2.9,0.4,4.4,0.6l-0.1,1.3 c-0.5-0.1-0.9-0.1-1.4-0.1h0.1c0.1-0.1-0.3-0.2-0.6-0.2c-0.1,0.1,0.1,0.1,0.3,0.2c-1.7,0-2,0-3.4-0.1c0.6-0.1-0.5-0.2-0.6-0.4 c-0.4,0.1,0.2,0.2-0.6,0.2c-1.1-0.1-2.1-0.3-3-0.5c-0.4,0.1-0.9,0-0.9,0.2c-1.2-0.1-1.9-0.1-3.5-0.2v-0.1c-0.4,0.2-1.3-0.2-1.6-0.1 c0.1-0.1,0.2-0.1,0.2-0.2h-0.7c0.3,0,0.5-0.3,0-0.4c-0.6,0.1,0.2,0.1-0.1,0.3l-0.2-0.3c-0.4,0-0.6,0.2-0.1,0.4 c-1.5-0.1-3-0.1-4.4-0.3l0.2-0.1c-0.8,0-1.8-0.1-2.2-0.2c0,0-0.2,0.1-0.1,0.2c-0.9,0.1-0.1-0.3-1.1-0.1c0.2,0,0.6-0.1,0.6-0.1 l-1.8,0.1c0-0.1-1.1-0.4-1.9-0.4c0,0.1,0.2,0.2,0.4,0.2h-0.5l-0.4-0.3l-0.7,0.2v-0.2c-0.5,0-0.8,0.3-1.2,0.2 c-1.6-0.2-1.3-0.3-2.4-0.6c-0.1,0.4-1.8-0.1-2.1,0.2c-1.5-0.4-3.7-0.3-5.7-0.4h0.2c-0.8-0.2-1,0.3-1.9,0.2l0.2-0.1 c-0.8-0.2-2.1-0.1-3.2,0V8.3c0.5-0.1,0.9-0.1,1.2-0.2c-0.2,0.1-0.1,0.2,0.2,0.2c0.3-0.1-0.3-0.3,0.3-0.2c-0.2,0,0,0.1,0.1,0.1 l0.6-0.2c1.6,0.1,3.6,0.3,5.2,0.1c0.3,0.1,0.1,0.2,0,0.2c1.3,0,2.7-0.2,3.9-0.3l0.1,0.2c0.6,0,0.4-0.4,1.1-0.2c0.2,0-0.5,0-0.7,0.1 c1.2,0.2,0.7-0.2,1.8-0.2L226,8.2c0.9,0.2,1-0.1,1.3-0.3c1.2-0.3,0.9,0.5,2.5,0.3c0.3-0.1-0.1-0.2,0.2-0.3c1.2,0.1,1.3-0.1,2.5,0 c0.6,0.4-0.6,0,0.1,0.4l-0.9-0.1c0.8,0.2-0.7,0-0.6,0.3c0.6,0.1,1.5-0.1,2.2-0.2c0,0.2-0.9,0-0.5,0.3l0.4-0.1 c-0.1,0.1-0.1,0.1-0.4,0.1c0.1,0.2,0.5,0,0.8,0c0-0.1,0-0.2-0.1-0.4c0,0,0,0,0.1,0.1c0.8-0.3,2,0,2.7-0.2c-0.1,0.1,0,0.1,0,0.1 c0.5,0,0.9-0.2,1.5-0.3c0.3,0.1-0.2,0.4,0.8,0.4c0.2-0.2-0.3-0.4,0.6-0.4C239.4,8.4,238.6,8.5,239,8.6z M220.5,8.9 c-0.1,0-0.2,0-0.4,0l0,0C220.3,8.9,220.5,8.9,220.5,8.9z M219.1,9c0.2,0,0.2-0.1,0.2-0.1c-0.3,0-0.5,0-0.7,0 C218.8,8.9,219.1,9,219.1,9z M222,10.2L222,10.2c-0.2,0-0.4,0-0.5,0.1c0,0,0.1,0.1,0.4,0.1C222,10.3,222,10.2,222,10.2z M222.4,10 h0.1H222.4c-0.1,0-0.1,0-0.1,0C222.3,10,222.4,10,222.4,10z M218.5,12L218.5,12L218.5,12L218.5,12z M228.4,10.9L228.4,10.9h-0.1 H228.4z M227.4,12.4h0.1C227.5,12.4,227.5,12.4,227.4,12.4z M231.2,12.4l0.5,0.1C231.5,12.4,231.4,12.4,231.2,12.4z M234.2,12.5 C234.2,12.4,234.2,12.4,234.2,12.5L234.2,12.5L234.2,12.5z M196,14.2h0.1C196.3,14.1,196.2,14.1,196,14.2z M201.4,14.3 c-0.1,0.1-0.3,0.1-0.4,0.2C201.2,14.5,201.4,14.4,201.4,14.3z M211.4,12.1L211.4,12.1C211.5,12.1,211.5,12.1,211.4,12.1L211.4,12.1z M200.3,14.6c0.3,0,0.5,0,0.6-0.1C200.7,14.5,200.5,14.5,200.3,14.6z M246.9,13.1h0.1l0,0H246.9z M247.1,13h0.2 C247.2,13,247.1,13,247.1,13z M247.6,13h-0.3C247.4,13,247.5,13.1,247.6,13z M243,12.7L243,12.7C243,12.8,243,12.8,243,12.7z M241.9,12.7c0.3,0,0.7,0.2,1.1,0.2v-0.1C242.8,12.9,242.1,12.6,241.9,12.7z M236.9,11.6l1,0.1c-0.2-0.1-0.4-0.2,0.1-0.2 C236.7,11.2,238.2,11.7,236.9,11.6z M233.8,11.5c0.5,0,0-0.1,0-0.2C233.5,11.4,233.4,11.4,233.8,11.5z M211.5,12.4v-0.2 C211.2,12.2,211.6,12.2,211.5,12.4z M207.4,13.8l0.4,0.1l0.2-0.2L207.4,13.8z M204.7,12.7h0.2l-0.7,0.2L204.7,12.7z M215.9,13.5 l-0.1-0.2C215.5,13.3,215.5,13.6,215.9,13.5z M232,12.1c0.2,0.1,0.6,0.2,0.9,0C232.6,12.2,232.2,12.1,232,12.1z M232.8,9.3l0.3-0.1 h-0.6L232.8,9.3z M64.8,9.6c0.1-0.1,0-0.2-0.2-0.2l-0.1,0.3L64.8,9.6z M63.5,9.3c-0.2,0.1-0.4,0.4-0.3,0.6c0.2-0.3,0.3-0.2,0.5-0.5 c0.2,0,0.3,0,0.3,0.1c0.1-0.1,0.3,0,0.4-0.1c-0.3-0.2-0.6-0.1-0.9,0.1C63.4,9.4,63.5,9.3,63.5,9.3z M44.8,9.9L44.8,9.9 C44.9,9.9,44.8,9.9,44.8,9.9z M33.2,10c0.1,0,0.1,0,0.1-0.1C33.2,10,33.2,10,33.2,10z M31.2,9.9h0.1C31.3,9.8,31.2,9.8,31.2,9.9z M44.8,9.9l-0.3-0.1C44.5,9.9,44.6,9.9,44.8,9.9z M61,10.1c0.1,0,0.1,0,0.2-0.1C61.1,10.1,61,10.1,61,10.1L61,10.1z M49.9,9.6 L49.9,9.6c0.1,0,0.1-0.1,0.2-0.1L49.9,9.6z M53.8,9.4c-0.1,0-0.1,0.2-0.1,0.3c0-0.1,0.1-0.1,0.2-0.1C53.9,9.5,53.8,9.5,53.8,9.4z M60,9.4L60,9.4C60.1,9.3,60.1,9.3,60,9.4z M47.1,9.6L47.1,9.6L47.1,9.6z M15,13.2L15,13.2C14.9,13.2,14.9,13.2,15,13.2z M10.4,12.2 L10.4,12.2c0.1,0,0.1-0.1,0.1-0.1L10.4,12.2z M27.5,9.8L27.5,9.8C27.6,9.8,27.6,9.8,27.5,9.8z M18.9,14.1c-0.4-0.2,0.6-0.3,0-0.4 C19,13.7,18.4,14,18.9,14.1z M60.9,10.1c-0.1,0-0.1,0-0.2,0C60.8,10.1,60.8,10.1,60.9,10.1z M18.9,13.7L18.9,13.7L18.9,13.7 L18.9,13.7z M19.2,10.7C19.2,10.7,19.2,10.8,19.2,10.7C19.2,10.8,19.2,10.7,19.2,10.7z M25.4,10.4h-0.2 C25.3,10.4,25.4,10.4,25.4,10.4z M16,11.5c-0.1,0-0.1,0-0.2,0l0,0C15.8,11.5,15.9,11.5,16,11.5z M12.7,12.1L12.7,12.1 c0.1,0,0.1,0,0.2,0H12.7z M25.2,13c-0.1-0.1-0.1-0.1-0.2-0.2C25.1,12.9,24.6,13,25.2,13z M61,10C61,10.1,60.9,10.1,61,10 C60.9,10.1,61,10.1,61,10L61,10z M16.1,13.1l-0.5,0.1C15.7,13.2,15.9,13.1,16.1,13.1z M41.4,10.7L41.4,10.7 C41.4,10.7,41.4,10.7,41.4,10.7z M14,13.5c-0.1-0.1-0.2-0.1-0.3-0.1c0,0,0,0,0,0.1C13.8,13.4,13.9,13.4,14,13.5z M25,12.8L25,12.8 L25,12.8z M21.7,13.1c-0.5,0.1-0.2,0-0.6-0.2c-0.3,0.2-0.5-0.1-0.6,0.3c-0.2-0.2-0.1-0.1-0.4-0.3c0.1,0.2-0.6,0.2-0.6,0.4 C19.4,13,20,13,19.6,12.7c-0.3,0.2-0.8,0.3-0.8,0.5c-0.2-0.1-0.3-0.2-0.7-0.2c0.1,0,0.1,0,0.2-0.1c-0.6,0.2-1.5,0-1.8,0.4 c0.1-0.4-1.3,0-0.8-0.4c-0.2,0-0.6,0.2-0.7,0.3c0-0.3-0.6-0.1-0.9-0.3c-0.1,0.2-0.6,0.1-0.9,0.2c0.1,0,0.2-0.1,0.1-0.2 c-0.3,0.1-0.2,0-0.5-0.1c-0.4,0.1,0.1,0.2-0.2,0.4c-0.4-0.1-0.1-0.2-0.1-0.3L12,13.2c-0.1,0-0.2-0.1-0.2-0.2 c-0.2,0.1-0.3,0.2-0.6,0.1h0.5l-0.2-0.2L11,13.1c-0.8-0.2-0.5-0.6-0.5-0.9l0.3-0.1c0-0.1-0.2-0.2-0.4-0.2c-0.1-0.1,0.5-0.4,0.9-0.4 c0.9,0,0.2,0.4,0.8,0.5l0.8-0.2v0.1c0.1,0.1,0.2,0,0.2-0.1c-0.1,0.2,0.7,0.1,1,0.1L14,11.8c0.9-0.4,1.5,0.4,2.2,0.2l0.5-0.3l0.1,0.2 c0.3-0.1,0.4-0.3,0.9-0.2c1.8,0.4,3.6-0.1,5.4,0.1c0,0-0.1-0.1-0.2-0.1c1.6,0.5,2.4-0.6,3.8-0.2l-0.1,0.1c0.7-0.1-0.1,0.1,0.4,0.2 c0.1-0.3,0.9-0.2,1.3-0.3c-0.1,0.1-0.2,0.1-0.3,0.1c0.1,0.1,0.1,0.2,0.3,0.2c0.4-0.4,1.4-0.4,2.2-0.5c0.1,0.2,0.7,0.3,1.1,0.6 c0.1-0.1,0.2-0.2,0.3-0.3c0.3,0.1,0.5,0,0.6-0.1c-0.2,0-0.4,0-0.6,0l0,0h-0.1c-0.2,0-0.2,0-0.2,0c-0.3-0.2,0-0.1,0-0.3 c0.2,0,0.7-0.1,0.8,0.1c0.1,0,0.2,0,0.4,0c0.1,0,0.2-0.1,0.3,0l0,0c0,0,0,0,0.1,0.1c0.5,0.1,1.1-0.3,1.5-0.4 c-0.4,0.3,0.1,0.3,0.1,0.5c0,0-0.4,0-1,0l0.1,0.1c0.5,0.2,0.9-0.2,1.6-0.1l-0.1,0.1c0.3,0,0.5-0.1,0.6-0.2c0.1,0.2,0.6,0.3,0.9,0.2 c0.2-0.2,0.2-0.2,0.6-0.2l-0.2,0.1c0.5,0.1,0.4-0.2,0.9-0.1c-0.2,0-0.2,0.1-0.1,0.1c0.5-0.1,0.6-0.2,0.9-0.4l0-0.1 c0.5-0.1,1.3-0.4,1.3-0.2c-0.2-0.4,1-0.3,1.4-0.3c-0.1,0-0.2,0.1-0.2,0.2c0.8-0.3,1.7-0.1,2.6-0.2l0.2,0.3c0.4,0,0.5-0.6,1-0.7 l0.2,2.2c0,0,0,0-0.1,0l0.1-0.1l-0.1-2.1l-0.1,0.1h0.1l0.1,1.9c-0.8,0.1-1.1,0.1-1.8,0.1V12c-0.2,0.1-0.6,0.1-0.8,0.3 c-0.6-0.5-2.3,0.4-3.4,0v0.4c-0.4,0-0.9,0.1-1.1-0.1h0.1c0-0.3-0.4,0-0.7,0c-0.2,0-0.4,0.3-0.2,0.3c-1.1-0.1-2.7,0.2-3.4-0.1 c-1.1,0.2-1.8,0.6-3,0.6l0,0c-0.4,0-1.2-0.1-1.2-0.4c-0.8,0.1-1.3,0.6-2.3,0.6l0.2-0.1c-0.3,0-0.7,0.1-0.7,0.2c-0.1,0,0-0.1,0-0.1 c-0.2-0.1-0.4,0.1-0.6,0.1l0.1-0.1c-0.8-0.2-2,0.4-3.1,0.4c0.2,0,0.1-0.2,0-0.2c-0.4,0.4-1.5,0.4-2,0.5l0.3-0.2 c-0.8,0.3-0.7-0.3-1.6,0l0.5,0.2c-0.3,0-0.6,0.1-0.5,0.2c-0.4-0.1-0.1-0.3-0.7-0.3c0-0.1,0.4-0.1,0.2-0.2L19,13.8c0,0-0.1,0-0.4,0 c0.1,0.4-0.7,0.1-0.2,0.5c-1.2,0.1-2.2-0.1-3.1,0.2c-0.4-0.4-2,0.1-1.9-0.4c-0.6,0-1,0.2-1.3,0.4c0.1,0,0.3,0,0.4-0.1 c-0.1,0.2-0.8,0.2-1.1,0.2c0.4-0.2,0.9-0.3,1.2-0.5c-0.5,0.1-1.2,0.4-1.5,0.4l-0.2-0.3c-0.4,0.2-0.4-0.2-0.8,0.1l0.1,0.1 c-0.8,0-0.8,0.3-1.5,0.4v-0.1c-0.3,0-0.6,0.3-0.9,0h0.5c-0.1-0.2-0.4-0.3-0.6-0.3c-0.5,0.1-0.2,0.3-0.4,0.4c-0.1-0.2,0-0.1,0.1-0.3 c-0.2,0-0.3,0.1-0.5,0.1L4.1,15l2.6-1.1c0.4-0.2,0.8-0.4,1.1-0.6v0.1c0.6-0.1,1-0.6,1.4-0.5L9.1,13c0.5,0.1,1.1-0.6,1.3-0.1 c0.2,0-0.5,0.1-0.1,0.2c0.7,0,0.4-0.5,1-0.5c-0.1,0-0.1,0-0.1,0.1c0.4-0.1,1-0.3,1.5-0.4c0.3,0.1,0.8,0,1.3-0.1s0.9-0.2,1.3,0 c-0.2-0.1,0.1-0.2,0.1-0.3c0,0,0,0,0,0.1c0.3,0,0.3-0.2,0.3-0.3c0.2,0.1,0.7-0.3,0.8-0.2c0-0.1,0.2-0.1,0.4-0.1 c-0.4,0.2-0.1,0.2-0.3,0.4c0.7-0.1,0.7-0.6,1.4-0.6l0.4,0.1c0-0.3,0.7-0.3,0.7-0.4c0.1,0.1,0.3,0.1,0.3,0.2c0.3-0.1,0.7,0,0.8-0.2 h-0.3c0.9,0,1.4-0.5,2.1-0.3V11c0.5,0.1,0.8-0.3,1.2-0.1c-0.1-0.1-0.2-0.1,0.1-0.3c-0.2,0-0.5,0.1-0.8,0.2l0.6-0.3l-0.9,0.2 c0.4-0.2,0.4-0.2,0.2-0.3c0.6-0.2,0.6,0.1,1.2-0.1c0.2,0,0,0.2,0.2,0.3c0.5-0.2,0.9,0.2,1.3,0c0.1,0-0.2,0-0.2,0.1 c0.3-0.1,0.5-0.1,0.6-0.2h-0.3c0.2,0,0.3-0.2,0.7-0.1c0.3-0.1,0.4-0.3,0.1-0.3c0.1,0,0.4,0.1,0.3,0.2c0.7,0,0.3-0.5,1-0.3 c0,0-0.1,0-0.1,0.1c0.2,0,0.3,0,0.4,0c-0.6,0.1,0.2,0.3-0.5,0.3c0.1,0.2,0.5,0,0.8,0.1c0.3-0.2,0-0.3,0.2-0.5c0,0.1,0.1,0.1,0.3,0.1 l-0.2-0.2c0.1,0,0.3,0,0.5-0.1l-0.3,0.1c0.3,0,0.8,0.3,1.3,0.1c-0.1,0.1-0.4,0.2-0.1,0.3c0.6-0.1,0.1,0.1,0.5,0.2 c0.6-0.1,0.1-0.3,1-0.3c0.1,0,0-0.1-0.1-0.1c0.6,0.1,0.9-0.1,1.5,0c-0.3,0-0.5-0.1-0.1-0.2c-0.1,0.1,0.5,0.1,0.7,0.2l0.1-0.1 c0.2,0.1,0,0.1-0.2,0.2c0,0,0-0.1-0.2,0c-0.3,0.1-0.2,0.4,0.3,0.4c0.5-0.1,0.4-0.3,0.3-0.4c0.7,0.1,0.6-0.4,1.2-0.3 c0.1,0,0.6,0.3,1.1,0.4c0.2-0.2-0.6-0.1-0.3-0.3c0.8,0.5,1.5-0.3,2.5-0.1l-0.1,0.2c0.2,0,0.5,0,0.7,0L38.2,10c0.2-0.1,0.8,0,0.6,0.2 c0.5-0.2,0.6-0.1,1.1,0c-0.5,0,0,0-0.4,0.1c0.5,0.1,0.6,0,0.9,0c-0.1,0.1,0.1,0.2,0.3,0.2C41.4,10,42,10,42.5,9.9V10 c0.8-0.1,1.7,0.2,2.5,0l0,0l0,0l0,0h-0.1c-0.3-0.2,0.6-0.2,0.9-0.3c0.1,0.1,0.1,0.2,0.2,0.2c0-0.2,0.3-0.1,0.4-0.2 c0.3,0.1,0,0.3,0.4,0.2C47,9.9,47,9.8,47,9.7c0.1,0.1,0.4,0.2,0.7,0.2c-0.1,0.1-0.2,0-0.3,0c0,0.1,0.1,0.1,0.1,0.2 c0.2,0,0.1-0.2,0.4-0.1l-0.3,0.2c0.1,0,0.3,0,0.3,0c-0.2,0-0.1,0.2-0.1,0.3c0.7-0.1,0.1-0.5,0.1-0.7c0.6,0.1,1.1-0.1,1.6-0.1 l-0.1,0.2c0.2,0,0.3-0.1,0.4-0.2h0.4C50,9.8,49.9,9.8,49.9,10c0.4-0.1,0.9,0,1-0.3l0,0c0.5,0.1,1.6,0.1,1.6,0.2 c0.5-0.1,1.2,0,1.3-0.2c0.3-0.1,0.9,0.3,1.1-0.1c0.4,0.2,0,0.1-0.1,0.3c0.4,0.2,0.8-0.3,0.9,0.1c0.4-0.1-0.1-0.1,0-0.3 c0.1,0.4,0.8,0,1.3,0.2c0.2-0.2-0.2-0.1,0.1-0.2c0,0.1,0.1,0.1,0.2,0.1l0.1-0.2L58,9.9c0.6-0.3-0.2-0.4,0.7-0.5l0,0 c0.2,0.2,0.6-0.2,1.2-0.1c-0.2,0-0.1,0.1-0.1,0.2L60,9.4c0,0,0,0,0,0.1c0.3,0.1,0.3-0.1,0.6,0c-0.2,0.1-0.1,0.2,0,0.3l0.5-0.3 l-0.2,0.3c0.5,0,1.2-0.6,1.5-0.2l-0.2,0.1c0,0.1,0.2,0.3,0.5,0.1c0.1,0,0.1-0.2,0-0.2H63c-0.1,0.2-0.7,0.3-1.1,0.4 c0.1-0.1,0.4-0.2,0.3-0.3c-0.3,0.1-0.6,0.3-1,0.4c0.1-0.1,0.2-0.2,0.3-0.3C61.1,9.7,61.2,10,61,10c-0.1-0.1-0.2-0.1-0.1-0.2 c-0.3,0.1-0.6,0.2-1,0.1c0,0,0.4-0.2,0.2-0.3c-0.7,0.2-0.8,0.4-1.5,0.6c-0.8,0.4-1.7-0.1-2.2,0.2c0,0.1,0.5,0.1,0.1,0.2 c0.1-0.2-0.2-0.1-0.3-0.2c-0.4,0.3-0.6,0-0.9,0.2c0.1-0.1-0.2-0.1-0.3-0.2c0-0.2-0.5-0.1,0.1-0.4c-0.6,0.4-1.1,0-1.5,0.5l0.2,0.1 l-0.6-0.1l0,0c-0.3,0-0.3,0-0.7-0.2c0.2-0.1,0.4-0.1,0.5-0.1c-0.3-0.2-0.7,0.2-1.1,0.2c0-0.2,0.4-0.1,0.3-0.3 c-0.3,0-0.5,0.1-0.7,0.2v-0.1c-0.7-0.2-0.2,0.4-0.7,0.2c0,0.1,0,0.1,0,0.2c-0.2-0.1-0.6-0.2-0.2-0.4c-0.2,0-0.5,0.1-0.6,0.2 c0.2,0.1,0.2,0.1,0.3,0.2l-0.9,0.1c-0.1,0,0.1-0.1,0.2-0.1c-1.1-0.4-2.2,0.5-3.4-0.1c0.1,0.1-0.1,0.1-0.2,0.2c-0.4,0-1,0-1.4-0.1 l0.1-0.1c-0.9,0.1-1.6,0.3-2.2,0.3c0,0,0-0.1,0.1-0.2c-0.5,0.2-1-0.4-1.1,0h0.2c-0.9,0-1.9,0.2-2.8,0.3c-0.2-0.2,0.5,0,0.3-0.3 c-0.6-0.1-1.3,0.1-2,0.1c0.1,0,0.1-0.1,0.1-0.1c-0.7-0.1,0.1,0.2-0.5,0.2c0-0.1,0-0.1-0.2-0.2l-0.2,0.2c0,0,0-0.2,0.1-0.2 c-0.3,0.2-1,0.1-1.2,0.3c-0.1-0.1,0.1-0.3,0-0.4c-0.3-0.1-0.5,0-0.7,0.1l0,0c-0.2-0.2-0.8-0.1-0.6-0.1c-0.6-0.1-0.1,0.1-0.5,0.3 l0.5,0.1L33.2,11l0.3-0.1c-0.4-0.1-0.7,0.1-1.2,0.1l0.2,0.1L32,11.2c-0.1-0.3-0.6,0-0.4-0.4c-0.9-0.1-1.5,0.3-2.3,0.4 c0.1,0,0.1-0.1,0.1-0.1c-0.5,0-0.8,0.1-1,0.3c0.1-0.1,0.2-0.1,0.2-0.2c-0.6,0-0.3,0.2-0.9,0.3c0.2-0.1,0.1-0.2-0.1-0.2 c0,0.1-0.1,0.2-0.2,0.2c0.4-0.6-0.7-0.2-0.4-0.6c0,0.1-1,0.4-0.7,0.6l0.2-0.1c0,0.1-0.2,0.1-0.4,0.1c0.1,0,0.2-0.1,0.2-0.1 c-0.4,0.1-0.9,0.2-1.3,0.2c-0.5,0-0.9,0.1-1.4,0.2c0.1-0.1,0.5-0.2,0.2-0.2c-1,0-1.5,0.3-2.5,0.6c-0.1-0.3,1.1-0.2,1.1-0.5 c-0.3,0-0.5,0.1-0.8,0.1c-0.3,0.1-0.5,0.1-0.8,0.2c-0.5,0.1-1.1,0.3-1.6,0.4c-0.5-0.4-1.1,0.3-1.8,0.1c0.1,0.2-0.2,0.3-0.6,0.3 c0.1-0.2-0.3-0.1-0.2-0.2c-0.3,0.2-1.3,0.4-1.3,0.1c0,0.3-0.7,0.1-1,0.4c-0.4,0-0.9,0.3-1.4,0.3c0.2,0.2-0.5,0.2-0.7,0.3 c0.1,0,0.2-0.1,0.1-0.1c-0.2-0.1-0.6,0.3-0.9,0.2c-0.2,0,0-0.2-0.2-0.2c0,0.1-0.7,0.5-1.1,0.4c0.1,0,0.1-0.1,0.2-0.2 c-0.9,0.4-1.8,0.6-2.7,0.9l-0.3-1.8c0.5,0,1-0.1,1.5-0.3L8,13.3c0.9,0.2,0.6-0.4,1.3-0.5c2,0,4.1,0.2,6-0.1c0.1-0.1-0.1-0.1-0.1-0.2 c0.2,0,0.2,0.2,0.5,0.1l-0.1-0.1c0.9,0.3,2.6-0.4,3.3,0.1c0.8-0.3,1.5,0,2.5-0.4c0.3,0.1-0.4,0.3,0.1,0.3l0.9-0.3h-0.1 c0.9-0.5,2.5,0.3,3.6-0.1l0,0c0,0.1,0.2,0.2,0.4,0.1c0.1-0.1-0.1-0.1-0.2-0.2c1-0.2,1.3-0.3,2.1-0.3c-0.3,0.2,0.3,0.1,0.4,0.3 c0.2-0.1-0.1-0.2,0.3-0.3c0.7-0.1,1.3,0,1.9,0.1c0.2-0.2,0.5-0.2,0.5-0.4c0.8-0.1,1.2-0.2,2.1-0.3v0.1c0.2-0.3,0.8,0.1,1-0.1 c0,0.1-0.1,0.1-0.1,0.2l0.4-0.1c-0.2,0.1-0.3,0.3,0.1,0.3c0.4-0.2-0.1-0.1,0.1-0.3l0.1,0.2c0.3,0,0.3-0.3,0-0.4 c0.9-0.1,1.9-0.3,2.7-0.3l0,0.3c0.5-0.1,1.1-0.1,1.4,0c0,0,0.1-0.1,0-0.2c0.5-0.3,0.1,0.3,0.7,0c-0.1,0.1-0.3,0.1-0.4,0.2l1.1-0.3 c0,0.1,0.7,0.3,1.2,0.2c0-0.1-0.1-0.1-0.3-0.1l0.3-0.1L42,11l0.4-0.3v0.2c0.3-0.1,0.4-0.4,0.7-0.4c1,0.1,0.8,0.2,1.5,0.3 c0-0.2,0.3-0.2,0.6-0.2l0.1,1.5c-0.3,0-0.6,0-0.7,0.1c-1-0.3-2.3,0-3.6,0h0.1c-0.5-0.2-0.6,0.4-1.2,0.3l0.1-0.1 c-0.7-0.2-2,0.1-2.7,0.3c0.1-0.1,0.1-0.2-0.2-0.2c-0.2,0.1,0.2,0.3-0.2,0.2c0.1,0,0-0.1-0.1-0.1l-0.4,0.2c-1-0.1-2.2-0.2-3.3,0 c-0.2-0.1-0.1-0.2,0-0.2c-0.8,0.1-1.7,0.3-2.4,0.4l-0.1-0.2c-0.4,0-0.2,0.4-0.7,0.2c-0.1,0,0.3,0,0.4-0.1c-0.7-0.2-0.4,0.3-1.1,0.3 l0.2-0.3c-0.5-0.2-0.6,0.2-0.8,0.3C27.8,13.6,28,12.7,27,13c-0.2,0.1,0.1,0.2-0.1,0.3c-0.7-0.1-0.8,0.1-1.5,0.1 c-0.4-0.4,0.4,0-0.1-0.4l0.6,0.1c-0.5-0.2,0.4-0.1,0.4-0.3c-0.4-0.1-0.9,0.2-1.4,0.3c0-0.2,0.5,0,0.3-0.3L25,12.9 c0.1-0.1,0.1-0.1,0.2-0.1c-0.1-0.2-0.3,0-0.5,0c0,0.1,0,0.2,0.1,0.4c0,0,0,0-0.1-0.1c-0.5,0.3-1.3,0.1-1.7,0.3c0.1-0.1,0-0.1,0-0.1 c-0.3,0-0.6,0.2-0.9,0.3c-0.2-0.1,0.1-0.4-0.5-0.3c-0.1,0.2,0.2,0.4-0.3,0.4C21.5,13.3,22,13.2,21.7,13.1z M33.2,12.4 c0.1,0,0.1,0,0.2,0l0,0C33.3,12.4,33.2,12.4,33.2,12.4z M34.1,12.2c-0.1,0-0.1,0.1-0.1,0.1c0.2,0,0.3,0,0.4,0 C34.3,12.3,34,12.3,34.1,12.2z M32.2,11.1L32.2,11.1c0.1,0,0.2-0.1,0.3-0.1c0,0-0.1-0.1-0.2,0C32.2,11,32.2,11.1,32.2,11.1z M32,11.3C31.9,11.3,31.9,11.3,32,11.3C31.9,11.3,32,11.3,32,11.3L32,11.3L32,11.3z M44.9,9.9L44.9,9.9L44.9,9.9 C44.9,10,44.9,9.9,44.9,9.9z M42.5,10.5L42.5,10.5L42.5,10.5L42.5,10.5z M50.5,10.5L50.5,10.5L50.5,10.5z M52.8,10.5l0.3,0.1 C53,10.5,52.9,10.5,52.8,10.5z M54.7,10.5C54.7,10.4,54.7,10.4,54.7,10.5L54.7,10.5L54.7,10.5z M25.7,11.7 C25.6,11.7,25.6,11.7,25.7,11.7C25.4,11.8,25.5,11.8,25.7,11.7z M34.2,10.8c-0.1,0-0.2,0.1-0.3,0.1C34.1,10.9,34.2,10.9,34.2,10.8z M16.2,13.1L16.2,13.1C16.2,13.1,16.1,13.1,16.2,13.1L16.2,13.1z M33.6,10.9c0.2,0,0.3,0,0.4,0C33.8,10.9,33.7,10.9,33.6,10.9z M62.6,10L62.6,10C62.7,9.9,62.7,9.9,62.6,10L62.6,10z M62.7,9.9L62.7,9.9C62.8,9.9,62.7,9.9,62.7,9.9z M63,9.8l-0.2,0.1 C62.9,9.9,63,9.9,63,9.8z M60.2,10.1L60.2,10.1C60.2,10.2,60.2,10.1,60.2,10.1z M59.4,10.2c0.2,0,0.5,0.1,0.7,0.1v-0.1 C60.1,10.3,59.6,10,59.4,10.2z M56.3,9.5h0.6c-0.1-0.1-0.3-0.2,0-0.2C56.2,9.1,57.1,9.5,56.3,9.5z M54.4,9.5c0.3-0.1,0-0.1,0-0.2 C54.2,9.4,54.2,9.4,54.4,9.5z M40.6,9.9V9.7C40.4,9.7,40.6,9.7,40.6,9.9z M38,10.9l0.3,0.1l0.1-0.2L38,10.9z M36.4,9.6L36.4,9.6 l-0.3,0.1L36.4,9.6z M13.2,11.8l0.1,0.2C13.5,11.9,13.5,11.7,13.2,11.8z M10,14.5c0.1,0.1,0.4,0.2,0.6,0 C10.3,14.5,10.1,14.4,10,14.5z M40,12.6l-0.2,0.1l0.4-0.1H40z M9.8,48.6c-0.1-0.1-0.2-0.1-0.2,0.3l0.2,0.3V48.6z M9.2,51.2 c0.1,0.5,0.3,1,0.5,0.7c-0.2-0.5-0.1-0.6-0.4-1.1c0-0.4,0.1-0.7,0.2-0.6c-0.1-0.1,0.1-0.6-0.1-0.8C9.2,49.9,9.1,50.5,9.2,51.2 C9.3,51.4,9.2,51.2,9.2,51.2z M9.1,41v0.2C9.1,41.2,9.1,41.1,9.1,41z M9.5,17.7c0,0.2,0,0.3,0.1,0.3C9.5,17.8,9.5,17.7,9.5,17.7z M9.8,13.7c0,0.1,0,0.2,0,0.2S9.8,13.8,9.8,13.7z M9.1,41l0.1-0.6C9.1,40.3,9.2,40.7,9.1,41z M9.5,56.4c0-0.1,0-0.2,0-0.3 C9.4,56.2,9.4,56.3,9.5,56.4C9.4,56.4,9.5,56.4,9.5,56.4z M9.2,51.3v0.2c0,0.1,0.1,0.1,0.1,0.2L9.2,51.3z M9.1,59.2 c0-0.2-0.2-0.2-0.3-0.3c0.1,0.1,0.1,0.2,0.1,0.4C9,59.2,9,59.2,9.1,59.2z M8.5,58.1v-0.2C8.5,57.9,8.5,58,8.5,58.1z M9.3,45.6 C9.3,45.6,9.4,45.6,9.3,45.6C9.4,45.6,9.3,45.6,9.3,45.6z M8.9,20.1L8.9,20.1C8.9,20,8.9,20,8.9,20.1z M10.4,11v0.1h0.1L10.4,11z M10.1,6.4C10.1,6.5,10.1,6.5,10.1,6.4C10.1,6.7,10.1,6.6,10.1,6.4z M10.3,49.5c-0.1,0.8-0.3-1.2-0.4-0.1 C10,49.4,10.3,50.5,10.3,49.5z M9.4,56.6c0,0.1,0,0.2,0,0.3C9.4,56.8,9.4,56.7,9.4,56.6z M9.9,49.5L9.9,49.5L9.9,49.5 C9.9,49.5,9.9,49.5,9.9,49.5z M8.5,10.4c0,0,0.1-0.1,0.1-0.2C8.6,10.2,8.6,10.3,8.5,10.4z M9.7,2.2V1.9C9.7,2,9.7,2.1,9.7,2.2z M9,16.9c0,0.2,0,0.2,0,0.5c0,0,0,0,0-0.1C8.9,17.2,8.9,17.1,9,16.9z M9.1,23.6v-0.1c0-0.1,0-0.1,0-0.2V23.6z M8,40.6 c0.1-0.1,0.1-0.2,0.2-0.3C8.1,40.4,8.1,39.4,8,40.6z M9.3,56.4c0,0,0.1,0.1,0.1,0.2C9.4,56.5,9.4,56.4,9.3,56.4 C9.4,56.4,9.4,56.3,9.3,56.4z M10.6,17.1v1.1C10.6,17.9,10.6,17.5,10.6,17.1z M11.2,6.6v0.2C11.2,6.7,11.2,6.6,11.2,6.6z M10.7,21.4 c-0.1,0.2-0.1,0.4-0.1,0.6c0,0,0,0.1,0.1,0.1V21.4z M8.2,40.3L8.2,40.3L8.2,40.3z M8.3,33.6c-0.1-1,0.1-0.3,0.3-1.2 c-0.2-0.5,0.1-1-0.2-1.1C8.6,31,8.5,31,8.7,30.4c-0.2,0.3-0.1-1.2-0.4-1.2c0.3-0.2,0.3,1.1,0.6,0.3c-0.1-0.6-0.2-1.6-0.4-1.7 c0.1-0.4,0.2-0.6,0.3-1.3c0,0.1,0,0.2,0.1,0.3c-0.1-1.2,0.1-3-0.2-3.7c0.4,0.3,0.2-2.5,0.5-1.6C9.2,21,9,20.3,9,20.1 c0.3,0.1,0.1-1.2,0.4-1.8c-0.2-0.3-0.1-1.2-0.1-1.7c0,0.2,0.1,0.4,0.2,0.3c-0.1-0.6,0-0.5,0.2-1c-0.1-0.8-0.3,0.1-0.4-0.4 c0.1-0.7,0.2-0.1,0.3-0.2l-0.3-1.1c0-0.2,0.1-0.4,0.2-0.4c-0.1-0.4-0.2-0.7,0-1.2v0.9l0.2-0.3L9.4,12c0.3-1.5,0.6-1,1-0.9v0.6 c0.1,0,0.2-0.4,0.2-0.7c0.1-0.3,0.3,1,0.3,1.7c-0.1,1.9-0.4,0.4-0.6,1.6l0.1,1.7h-0.1c-0.1,0.3,0,0.4,0.1,0.5 c-0.2-0.1-0.1,1.3-0.2,2l0.2-0.2c0.3,1.9-0.5,2.9-0.4,4.4l0.2,1.1L10,24.1c0.1,0.6,0.3,0.7,0.1,1.7c-0.6,3.5-0.3,7.3-0.7,10.9 c0,0,0.1-0.1,0.1-0.4c-0.7,3.1,0.3,4.9-0.2,7.7l-0.1-0.2c0,1.4-0.1-0.2-0.2,0.8c0.3,0.2,0.1,1.8,0.2,2.7c0-0.1,0-0.4-0.1-0.7 c-0.1,0.2-0.2,0.2-0.2,0.6C9,47.4,9,47.6,9.1,47.8H8c-0.2-1-0.1-2.6-0.1-3.8c0.2-0.2,0.4-1.4,0.7-2.1c-0.1-0.2-0.2-0.4-0.3-0.7 c0.1-0.5,0.1-0.9,0-1.3c0,0.5,0,0.9,0,1.2l0,0c0,0,0,0.1,0,0.2c0,0.3,0,0.5,0,0.4c-0.2,0.6-0.1,0-0.3,0c0-0.5,0-1.5,0.2-1.6 c0-0.3,0-0.5,0.1-0.8c0-0.2,0-0.4,0-0.6v0.1l0.1-0.1c0.1-0.9-0.1-2.3-0.2-3c0.2,0.8,0.3-0.2,0.5-0.2c0-0.1-0.1,0.9-0.1,2 c0-0.1,0.1-0.1,0.1-0.2c0.2-1-0.1-1.8,0.1-3.2c0,0.1,0.1,0.3,0.1,0.2c0.1-0.5-0.1-1-0.2-1.1C8.9,33.1,9.1,32,9,31.4 c-0.1-0.5-0.2-0.4-0.1-1.3L9,30.5c0.2-1-0.2-0.9,0-1.7c-0.1,0.3,0.1,0.4,0.1,0.1c0-1.1-0.1-1.1-0.3-1.9L9,27.2 c-0.1-0.9-0.3-2.7,0-2.7c-0.4,0.3-0.1-2-0.1-2.9C8.9,21.9,9,21.9,9,22c-0.2-1.7,0.1-3.5,0.2-5.2l0.3-0.3c0-0.9-0.6-1.2-0.5-2.2 l0,0.3c0-1.8,0.1-2.5,0.2-3.9h0.2c-0.1-0.5,0-1.1-0.1-1.7c0.3-0.7,0.2-2.2,0.3-3.8l1.6,0.1c-0.1,1-0.2,2.1-0.5,2.9l0.4,0.2 c-0.1,0.8-0.1,1.8-0.4,2.2v-0.2c-0.3-0.1-0.1,0.8-0.2,1.3c0,0.4,0.2,0.8,0.3,0.5c-0.3,2.1-0.3,5.3-0.7,6.6c0,2.2,0.3,3.8,0.2,6.1 l0,0c-0.1,0.8-0.2,2.4-0.5,2.3c0,1.7,0.5,2.8,0.3,4.7L10,31.5c-0.2,0.6,0,1.5,0,1.7s-0.1,0-0.1,0C9.8,33.7,10,34,10,34.3l-0.1-0.2 c-0.2,1.6,0.2,4.1,0.2,6.1c0-0.4-0.2-0.2-0.2,0c0.4,0.8,0.3,3.1,0.5,4l-0.2-0.5c0.3,1.7-0.3,1.5,0,3.1l0.2-1c0,0.7,0.1,1.2,0.2,1.1 c-0.1,0.8-0.3,0.1-0.3,1.3c-0.1,0.1-0.1-0.9-0.2-0.5l-0.2,1.7c0,0,0,0.3,0,0.8c0.4-0.2,0.1,1.4,0.5,0.5c0.1,1.5,0.1,2.9,0.1,4.2H9 c0-0.7,0-1.4,0-2.1c0.5-0.8,0.1-4,0.6-3.8c0-1.1-0.1-2-0.3-2.7c0,0.2,0,0.5,0.1,0.7c-0.1-0.3-0.2-1.7-0.2-2.2 c0.1,0.7,0.2,1.9,0.4,2.5c-0.1-1-0.3-2.5-0.3-3L9.6,44c-0.2-0.9,0.2-0.7-0.1-1.6l-0.1,0.2c0-1.6-0.3-1.6-0.3-3.1l0.1,0.1 c0-0.5-0.2-1.3,0-1.8v1c0.2-0.1,0.3-0.8,0.4-1.2c-0.1-1-0.3-0.4-0.4-0.9c0.2-0.2,0.1-0.1,0.3,0.3c-0.1-1.1-0.2-2.7-0.4-3.5 c0-0.1,0.1,0,0.1,0c0-1.2-0.3-2.2-0.2-3v0.2c0.3-1-0.3-2.5,0.2-2.7c0.1-0.5,0,1,0.2,0.3c0.1-1.4-0.4-0.9-0.3-2.2 c0,0.2,0,0.1,0.1,0.2c0-0.9-0.1-2.1-0.2-3.1c0.4-1.2-0.2-3.7,0.2-5.1c0,0.7,0-0.1-0.1-0.1c0,0,0,0.1,0.1,0c0-0.5-0.2-0.6-0.2-0.8 c0.1-0.4-0.2-1.4-0.1-1.7c-0.1,0-0.1-0.4-0.1-0.9c0.1,1,0.2,0.4,0.4,0.8c0-1.4-0.5-1.5-0.4-3L9,11.6c-0.3-0.2-0.2-1.5-0.3-1.4 c0-0.2,0-0.6,0.2-0.5C8.8,9.1,8.9,8.3,8.7,8v0.6c0.1-1.8-0.4-2.8-0.2-4.1h0.4C9,3.6,8.6,2.8,8.8,2C8.7,2.3,8.7,2.4,8.6,1.8 c0,0.3,0.1,1,0.1,1.5L8.4,2.1L8.6,4C8.4,3.2,8.5,3.3,8.3,3.6c-0.2-1.1,0.2-1.2,0-2.3c0-0.4,0.2,0,0.3-0.4c0-0.3-0.1-0.5,0-0.8h1.2 C9.6,0.7,9.4,1.3,9.6,1.8c0,0.2,0-0.4-0.1-0.3c0,0.6,0,1.1,0.2,1.3V2.3c0,0.5,0.2,0.5,0.1,1.4c0.1,0.5,0.3,0.8,0.3,0.2 c0,0.2-0.1,0.7-0.2,0.6c0,1.4,0.5,0.7,0.2,2c0-0.1,0-0.2-0.1-0.1c0,0.3,0,0.6,0,0.9c0-1.2-0.3,0.4-0.3-1c-0.2,0,0,0.9-0.1,1.3 C9.8,8.3,9.9,7.7,10,8c0,0.1,0,0.3,0,0.7l0.2-0.3c0,0.3,0,0.6,0,0.9l-0.1-0.6c0,0.6-0.3,1.6-0.2,2.7c-0.1-0.3-0.2-0.9-0.3-0.1 c0.1,1.2-0.1,0.3-0.2,1c0,1.2,0.3,0.2,0.2,2c0,0.2,0.1,0,0.2-0.2c-0.1,1.2,0,1.9-0.1,3c0-0.5,0.1-0.9,0.2-0.2 c-0.1-0.3-0.1,1-0.2,1.4l0.1,0.1c-0.1,0.4-0.1,0-0.2-0.3c0,0,0.1-0.1,0.1-0.3c-0.1-0.6-0.4-0.4-0.4,0.5c0.1,1,0.3,0.8,0.4,0.7 c-0.1,1.3,0.4,1.2,0.2,2.5c0,0.3-0.4,1.2-0.4,2.1c0.2,0.5,0.2-1.1,0.3-0.6c-0.5,1.5,0.3,3.1,0,5.1l-0.2-0.2c0,0.5,0,0.9,0,1.4 l0.1-0.7c0.1,0.5,0,1.5-0.2,1.2c0.2,1,0.1,1.3,0,2.2c0-1,0,0-0.1-0.8c-0.1,1.1,0,1.2,0,1.9c-0.1-0.1-0.2,0.3-0.2,0.6 c0.1,0.7,0.1,1.9,0.2,2.9H9.3c0.1,1.6-0.3,3.4-0.1,5l0,0l0,0v0.1v-0.1c0.2-0.6,0.1,1.3,0.2,1.8c-0.1,0.1-0.2,0.2-0.2,0.4 c0.2,0,0.1,0.6,0.2,0.9c-0.1,0.6-0.3-0.1-0.3,0.9C9.1,46,9.2,46,9.3,46c-0.1,0.2-0.2,0.8-0.2,1.3c-0.1-0.2,0-0.5,0-0.6 c-0.1-0.4-0.1,0-0.2,0c0,0.5,0.2,0.2,0.1,0.7l-0.2-0.5c0,0.2,0,0.5,0,0.6c0-0.3-0.2-0.3-0.3-0.3c0.1,1.3,0.5,0.3,0.6,0.3 c-0.2,1.2,0.1,2.2,0,3.2L9,50.6c0,0.5,0.1,0.7,0.1,0.9v0.7C9,51.8,9,51.6,8.8,51.6c0,0.8,0,1.8,0.2,2l0,0c-0.1,1-0.2,3.2-0.3,3.1 c0.1,1.1-0.1,2.5,0.1,2.5c0.1,0.7-0.4,1.7-0.1,2.2c-0.2,0.8-0.1,0-0.3-0.2c0,0.8,0.4,1.6,0,1.8c0.1,0.9,0.1-0.2,0.2,0.1 c-0.3,0.1-0.2,1-0.2,1.7H8.2c0-0.3,0.1-0.6,0.1-0.8c-0.1-0.4-0.1,0.4-0.2-0.3c0.1,0.1,0.1-0.3,0.1-0.5L8,63l0.6-0.8 c-0.2-1.3-0.4,0.2-0.4-1.5v0.1c0.3-0.5-0.1-1.2,0.1-2.5c-0.1,0.4,0.1,0.2,0.2,0.3l-0.1-0.7c0,0.1,0,0.1,0.1,0 c0.2-0.6-0.1-0.5,0.1-1.2c0,0.5,0.2,0.4,0.3,0.1l-0.2-1L9,56.2c0.1-1-0.3-2.5,0.1-2.9v0.5c0.1,0,0.3-0.3,0.2-1 c0-0.2-0.2-0.4-0.2-0.1l0.1-0.5c0.2,0.2,0.2,1.5,0.2,2.3c-0.1-0.2-0.1-0.8-0.2-0.7c0,0.7,0.1,1.4,0.2,2c-0.1-0.3-0.2-0.4-0.3-0.6 c-0.1,1,0.2,0.8,0.2,1.4C9.2,56.8,9.1,57,9,56.8c0,0.7,0,1.3-0.1,2c0,0-0.1-0.8-0.2-0.4c0,1.4,0.3,1.7,0.3,3.1 c0.2,1.2-0.1,2.4-0.2,3.3H7.9c0-0.4,0-0.8,0-1.1c-0.1-0.1-0.2,0.9-0.2,0.1c0.2,0.1,0.1-0.5,0.2-0.5c-0.2-0.8,0.1-1.2-0.1-1.8 c0.1,0.1,0.1-0.3,0.2-0.7c0.2,0.1,0.1-0.9,0.4,0.3C8.1,59.9,8.5,58.9,8,58v0.3L8.1,57v0.1c0-0.5,0-0.6,0.2-1.4c0,0.3,0,0.8,0.1,1.1 c0.2-0.7-0.1-1.4-0.1-2.1c0.2,0,0,0.8,0.2,0.6c0-0.5-0.1-1-0.1-1.5l0.1,0.1c0.2-1.3-0.4-0.5-0.1-1.5c-0.1,0-0.1-0.1-0.2,0 C8.3,52,8.5,51.1,8.6,52c0-0.5-0.1-1-0.2-1.2c-0.1,0.4-0.1,0.5-0.2,0.6l-0.1-1.8c0-0.2,0.1,0.2,0.1,0.4c0.5-2.2-0.3-4.4,0.3-6.8 c-0.1,0.3-0.1-0.2-0.2-0.4c0.1-0.8,0-2,0.1-2.7l0.1,0.2c-0.1-1.9-0.2-3.2-0.2-4.4c0-0.1,0.1,0,0.2,0.2c-0.2-0.9,0.4-2,0-2.3v0.3 c0.1-1.8-0.2-3.8-0.2-5.7c0.2-0.4,0,1.1,0.3,0.7c0.1-1.3-0.1-2.6,0-4c0,0.2,0.1,0.2,0.1,0.3c0.2-1.4-0.2,0.2-0.2-1 c0.1,0.1,0.1,0,0.2-0.4l-0.2-0.4c0-0.1,0.2,0,0.2,0.1c-0.2-0.5-0.1-2.1-0.3-2.5c0.1-0.1,0.3,0.2,0.4,0c0.1-0.6,0-1.1-0.1-1.5l0,0 c0.2-0.4,0.1-1.5,0.2-1.3c0.1-1.1-0.1-0.2-0.3-1l-0.1,0.9v-1.6l0.1,0.6c0.1-0.7-0.1-1.5-0.1-2.3l-0.1,0.4l-0.1-1 c0.3-0.1,0.1-1.2,0.4-0.7c0.1-1.8-0.2-3-0.2-4.6c0,0.3,0.1,0.2,0.1,0.2c0.1-1-0.1-1.5-0.2-2.1c0.1,0.1,0.1,0.3,0.2,0.4 c0-1.1-0.2-0.7-0.2-1.9c0,0.3,0.1,0.2,0.1-0.1c-0.1,0-0.2-0.3-0.2-0.5C8.8,6,8.5,3.7,9,4.3c-0.1-0.1-0.3-2-0.6-1.5v0.3 c-0.2,0-0.1-0.4-0.1-0.8c0,0.2,0.1,0.4,0.1,0.4C8.3,1.9,8.3,1,8.3,0h1.6c0,0.9,0,1.9,0.1,2.9c-0.1-0.2-0.2-1-0.2-0.5 c0,2,0.3,3.1,0.5,5.1C10,7.6,10.2,5.4,9.9,5.3c0.1,2.1,0.3,4.3,0.5,6.6c-0.5,0.8,0.3,2.3-0.1,3.7c0.2-0.1,0.2,0.6,0.3,1.4 c-0.1-0.3-0.1,0.6-0.2,0.3c0.2,0.7,0.3,2.7-0.1,2.6c0.3,0.2,0,1.5,0.3,2c-0.1,0.9,0.1,1.9,0,3c0.2-0.4,0.1,1.1,0.2,1.5 c0-0.1,0-0.3-0.1-0.3c-0.2,0.3,0.2,1.3,0.1,1.9c-0.1,0.3-0.2-0.1-0.2,0.4c0.1,0,0.3,1.7,0.2,2.3c0-0.3-0.1-0.3-0.1-0.5 c0.3,2.9,0,6,0.3,9l-0.2-0.5c-0.3,1.9,0.4,1.2,0.4,2.7c-0.1,4-0.5,8.2-0.4,12.1c0.1,0.3,0.1-0.2,0.2-0.2c0,0.3-0.2,0.4-0.1,0.9 l0.1-0.1c-0.1,0.3-0.1,0.6-0.1,0.9h-2c0-0.9-0.1-2-0.2-3.1c-0.1-1-0.1-2,0.1-2.5c-0.3-1.7,0-2.9-0.4-5c0.1-0.7,0.2,0.8,0.3-0.1 l-0.3-1.9v0.1c-0.4-1.9,0.3-4.9,0-7.3v0.1c0.1,0.1,0.2-0.4,0.2-0.8c-0.1-0.1-0.1,0.1-0.2,0.3c-0.2-2.1-0.2-2.5-0.2-4.2 c0.1,0.7,0.1-0.7,0.3-0.7c-0.1-0.4-0.2,0.2-0.3-0.7c0-1.4,0.2-2.6,0.3-3.8c-0.2-0.5-0.1-1.1-0.3-1.1c0-1.6,0-2.4,0.1-4.3h0.1 c-0.2-0.5,0.2-1.6,0.1-2c0.1,0.1,0.1,0.3,0.2,0.2v-0.9C8.8,17.7,9,18,9.1,17.2C9,16.4,9,17.4,8.8,17L9,16.8c0-0.6-0.3-0.7-0.4-0.1 c0.1-1.9,0.1-3.8,0.3-5.5L9,11.5c0-0.9,0.1-2.2,0.3-2.8c0,0-0.1-0.3-0.2-0.1C9,7.5,9.4,8.5,9.3,7.3c0,0.3,0,0.7,0.1,0.8V5.8 c0,0,0.1-0.2,0.2-0.4l1.6,0.1C11.1,5.9,11,6.7,11,7.3c0.1,0,0.2-0.2,0.2-0.5v0.6l-0.3,0.5l0.2,0.9h-0.2c0,0.7,0.3,0.9,0.3,1.5 c-0.2,2-0.3,1.6-0.6,3c0.4,0.2-0.1,2.3,0.2,2.6c-0.4,1.9-0.3,4.6-0.5,7.1v-0.2c-0.2,1.1,0.3,1.2,0.1,2.4l-0.1-0.3 c-0.3,1.5-0.2,4-0.1,5.4C10.1,30,10,30.2,10,30.6c0.1,0.4,0.3-0.4,0.2,0.4c0-0.2-0.1,0-0.1,0.1l0.2,0.8c-0.2,2-0.5,4.4-0.5,6.5 c-0.1,0.4-0.2,0.1-0.2,0c0,1.7,0.1,3.3,0.1,4.8l-0.3,0.1c0,0.7,0.4,0.5,0.1,1.4c0,0.2,0-0.6-0.1-0.9c-0.3,1.5,0.2,0.9,0.1,2.3 l-0.3-0.4C9,47,9.3,47.2,9.5,47.6c0,0.1,0,0.2,0,0.3l-1.9-0.1c-0.1-1.2,0.6-0.9,0.5-2.9C8,44.5,7.9,45,7.7,44.6 c0.1-1.5,0-1.6,0.1-3.1c0.5-0.8,0,0.7,0.4-0.1l-0.1,1.1c0.3-0.9,0,0.9,0.3,0.7c0.1-0.7-0.1-1.8-0.1-2.8c0.2,0,0,1.1,0.2,0.7 l-0.1-0.5c0,0.1,0.1,0.2,0.1,0.4c0.2-0.2,0-0.6,0.1-1c-0.1,0-0.2,0-0.4,0.1c0,0,0-0.1,0.1-0.1c-0.2-1,0.1-2.5-0.1-3.3 c0,0.1,0.1,0,0.1,0c0-0.6-0.2-1.2-0.2-1.9c0.2-0.4,0.4,0.3,0.4-1c-0.1-0.2-0.4,0.3-0.4-0.7C8.1,33.2,8.2,34.1,8.3,33.6z M9.5,39 c0-0.1,0-0.3,0-0.5l0,0C9.5,38.7,9.5,38.9,9.5,39z M9.4,37.1c0,0.2,0.1,0.3,0.1,0.2c0-0.3,0-0.6,0-0.9C9.5,36.8,9.5,37.3,9.4,37.1z M8.1,40.8L8.1,40.8c0-0.3,0-0.4,0-0.6c0,0-0.1,0.1-0.1,0.5C8,40.7,8,40.8,8.1,40.8z M8.2,41.3L8.2,41.3C8.3,41.3,8.3,41.3,8.2,41.3 c0-0.1,0-0.1,0-0.2C8.2,41.1,8.2,41.2,8.2,41.3z M9.1,41.3L9.1,41.3L9.1,41.3L9.1,41.3z M11.2,8.8L11.2,8.8V9V8.8z M8.2,52.3 c0,0,0,0.1-0.1,0.1C8.2,52.5,8.2,52.4,8.2,52.3z M8.1,57.1L8,57.8C8,57.5,8.1,57.3,8.1,57.1z M7.9,60.8C7.9,60.8,8,60.8,7.9,60.8 L7.9,60.8L7.9,60.8z M8.3,2.4L8.3,2.4C8.3,1.9,8.3,2.2,8.3,2.4z M8.7,19.8c0-0.2-0.1-0.4-0.1-0.6C8.6,19.5,8.6,19.8,8.7,19.8z M10.6,17L10.6,17v0.1V17z M8.6,18.4c0,0.3,0,0.6,0,0.8C8.6,19,8.7,18.7,8.6,18.4z M9.7,53.1v-0.2l0,0V53.1z M9.7,52.9v-0.2 C9.6,52.8,9.6,52.9,9.7,52.9z M9.6,52.3v0.4C9.6,52.6,9.7,52.4,9.6,52.3z M9.3,58L9.3,58C9.4,58,9.3,58,9.3,58z M9.2,59.5 c0-0.4,0.2-0.9,0.2-1.4H9.3C9.5,58.3,9.1,59.1,9.2,59.5z M8.7,64.2v0.7H8.1l0.1-0.5C8.1,64.6,8,64.9,8,64.3 c-0.1,0.4-0.1,0.5-0.1,0.6H9c0-0.1,0,0-0.1,0h-1H8h0.8C8.7,64.8,8.7,64.7,8.7,64.2z M8.9,60.4c0,0.7,0.1,0,0.2,0 C9,60,9,59.9,8.9,60.4z M9.4,32.6l0.2,0.1C9.5,32.2,9.5,32.7,9.4,32.6z M8.5,27.3l-0.1,0.5L8.6,28L8.5,27.3z M9.8,24.2v0.2l-0.1-0.9 L9.8,24.2z M8.9,22.4l0.2-0.2C9.1,21.9,8.8,21.9,8.9,22.4z M9.4,42.5c-0.1,0.2-0.2,0.8-0.1,1.1C9.3,43.2,9.4,42.7,9.4,42.5z M11.1,7.3v0.4V6.9V7.3z M8.6,49.8c0.1,0,0.2,0,0.2,0H8.6L8.6,49.8z M9,49.5c-0.1-0.1-0.3-0.1-0.5-0.1c0.2,0.1,0.1,0.1,0.4,0.1 c0,0-0.1,0.1-0.2,0.1c0.1,0-0.1,0.1,0.1,0.1c0.2-0.1,0.2-0.2,0-0.2C8.9,49.5,9,49.5,9,49.5z M9.2,44.5L9.2,44.5 C9.2,44.6,9.2,44.6,9.2,44.5z M9.2,41.5L9.2,41.5C9.3,41.5,9.2,41.5,9.2,41.5z M9.5,41L9.5,41L9.5,41z M9.2,44.5L9.2,44.5L9.2,44.5z M8.4,48.8C8.4,48.8,8.4,48.9,8.4,48.8C8.4,48.9,8.4,48.8,8.4,48.8L8.4,48.8z M9.4,45.9L9.4,45.9h0.1H9.4z M9.5,46.9 c0,0-0.2,0-0.3,0c0.1,0,0.1,0,0.1,0C9.4,46.9,9.5,46.9,9.5,46.9z M9.2,48.6L9.2,48.6L9.2,48.6z M9.5,45.1L9.5,45.1L9.5,45.1z M6.8,16.3C6.9,16.3,6.9,16.3,6.8,16.3C6.9,16.3,6.8,16.3,6.8,16.3z M7.8,15.1L7.8,15.1C7.9,15.1,7.9,15.1,7.8,15.1L7.8,15.1z M9.7,40L9.7,40L9.7,40z M9.2,31.2C9,31.3,9,31,8.8,31.2C8.9,31.2,9.1,31.4,9.2,31.2z M8.4,48.8L8.4,48.8L8.4,48.8z M8.8,31.2 L8.8,31.2L8.8,31.2C8.8,31.3,8.8,31.2,8.8,31.2z M9.5,37.8C9.5,37.8,9.4,37.8,9.5,37.8C9.4,37.8,9.4,37.8,9.5,37.8z M9.3,39.4 L9.3,39.4L9.3,39.4z M9.2,37C9.2,36.9,9.2,36.9,9.2,37C9.2,36.9,9.2,36.9,9.2,37C9.2,36.9,9.2,36.9,9.2,37z M9.1,36.1L9.1,36.1 L9.1,36.1L9.1,36.1z M7,19c0.1,0,0.1,0,0.2,0C7.1,19,7,18.8,7,19z M8.5,48.8C8.5,48.8,8.4,48.8,8.5,48.8C8.4,48.8,8.4,48.8,8.5,48.8 L8.5,48.8z M7.5,37L7.5,37C7.5,36.9,7.5,36.9,7.5,37z M7.3,25.3L7.3,25.3L7.3,25.3z M7.5,36.4C7.6,36.4,7.6,36.3,7.5,36.4 C7.6,36.3,7.6,36.3,7.5,36.4L7.5,36.4z M7.2,18.9L7.2,18.9L7.2,18.9z M6.9,18.1c-0.1-0.1,0,0,0.2-0.2c-0.2-0.1,0.1-0.1-0.3-0.1 c0.2-0.1,0.1,0,0.3-0.1c-0.2,0-0.2-0.1-0.4-0.1c0.3,0,0.3,0.1,0.6,0c-0.2-0.1-0.3-0.2-0.5-0.2C6.9,17.3,7,17.2,7,17.1c0,0,0,0,0.1,0 c-0.2-0.1,0-0.4-0.4-0.5c0.4,0,0-0.3,0.4-0.2c0-0.1-0.2-0.2-0.3-0.2c0.3,0,0.1-0.2,0.3-0.2C7,16,7,15.9,6.9,15.8c0,0,0.1,0,0.2,0 c-0.1-0.1,0-0.1,0.1-0.1c-0.1-0.1-0.2,0-0.4,0c0.1-0.1,0.2,0,0.3,0l-0.3-0.1c0,0,0.1-0.1,0.2-0.1c-0.1,0-0.2-0.1-0.1-0.2v0.1 l0.2-0.1l-0.2-0.1C7.1,15,7.5,15,7.8,15l0.1,0.1C8,15.1,8.1,15,8.1,15c0.1,0,0.4,0.1,0.4,0.2c0,0.2-0.4,0.1-0.5,0.2l0.2,0.2H8.1 c-0.1,0,0.1,0.1,0.1,0.1c-0.2,0,0,0.2-0.1,0.3h0.1c0.4,0.2-0.4,0.4-0.2,0.6l0.3,0.1H8.1c0.1,0.1,0.3,0.1,0.2,0.2 c-0.4,0.5,0.1,1-0.1,1.4c0,0,0.1,0,0.1-0.1c-0.5,0.4,0.6,0.6,0.2,1H8.4c0.1,0.2-0.1,0-0.2,0.1c0.3,0,0.2,0.2,0.3,0.3 c-0.1,0-0.1-0.1-0.1-0.1c-0.1,0-0.2,0-0.2,0.1c0.4,0.1,0.4,0.4,0.5,0.6c-0.2,0-0.3,0.2-0.6,0.3c0.1,0,0.2,0,0.3,0.1 c-0.1,0.1,0,0.1,0.1,0.2c0-0.1,0-0.1,0-0.2l0,0l0,0v-0.1c0.2-0.1,0.1,0,0.3,0c0,0.1,0.1,0.2-0.1,0.2c0,0,0,0.1-0.1,0.1 c0,0,0.1,0,0,0.1l0,0c0,0,0,0-0.1,0c-0.1,0.1,0.2,0.3,0.4,0.4c-0.3-0.1-0.3,0-0.5,0c0,0,0-0.1,0-0.3H8.3c-0.2,0.1,0.2,0.2,0.1,0.4 H8.3c-0.1,0.1,0.1,0.1,0.2,0.1c-0.2,0-0.3,0.2-0.2,0.2c0.2,0.1,0.2,0,0.2,0.2H8.4C8.3,22,8.6,22,8.5,22.1c0.1,0-0.1,0-0.1,0 c0.1,0.1,0.1,0.1,0.4,0.2H8.6c0.1,0.1,0.4,0.3,0.1,0.4C9.2,22.9,9,23.2,9,23.3H8.9c0.3,0.2,0,0.5,0,0.7H8.6c0,0.1,0.6,0.1,0.6,0.3 H9.1c0.1,0.2,0,0.3,0,0.5H8.9C9,24.9,9,24.9,9.1,25c-0.5,0.2,0.3,0.6-0.3,0.9h0.4c0,0.1,0.1,0.2-0.2,0.3l0,0c-0.3,0,0,0.1-0.1,0.2 c0,0,0.2,0.1,0.3,0c-0.2,0.3,0,0.7-0.3,0.9C9,27.5,9.3,27.7,9.3,28l0,0c0,0.1-0.1,0.3-0.5,0.3c0.1,0.2,0.5,0.3,0.4,0.6l-0.1-0.1 C9,29,9.2,29.1,9.2,29.1H9.1c-0.1,0.1,0.1,0.1,0.1,0.1H9.1c-0.2,0.2,0.2,0.5,0.2,0.8H9.1c0.4,0.1,0.3,0.4,0.4,0.5l-0.1-0.1 c0.2,0.2-0.4,0.2-0.1,0.4l0.2-0.1c-0.1,0.1,0,0.2,0.2,0.1c-0.1,0.1-0.3,0-0.3,0.2c-0.3,0.1-0.2,0-0.4,0l-0.3,0.2c0,0,0,0,0,0.1 c0.4,0,0,0.2,0.5,0.1c0,0.3-0.2,0.6,0,0.8c-0.4,0.1,0,0.5-0.6,0.5c0,0.1,0.1,0.3,0.3,0.3c0,0,0-0.1-0.1-0.1c0.1,0,0.2,0.2,0.2,0.3 c0,0-0.1-0.2-0.4-0.2c0.1,0.1,0.3,0.3,0.3,0.4H8.6c0.2,0.1-0.2,0.1,0.1,0.2h0.1c0,0.2,0.3,0.2,0.3,0.4H9c0,0.1,0.2,0.2,0,0.2v-0.1 c-0.2,0-0.3,0.1-0.4,0.2c0.1,0.1,0.3,0,0.4,0.1c-0.2,0-0.1,0-0.3,0c0.1,0.1,0.2,0.3,0.4,0.4H9c0,0.2,0.3,0.3,0.2,0.4l0,0 c-0.3,0.1,0.3,0.3-0.2,0.4c-0.1,0.1,0-0.1-0.2,0c-0.1,0.2,0.4,0.1,0.3,0.3c0,0,0,0-0.1,0c0-0.1,0,0.1,0.1,0.2 c-0.4,0.2,0.1,0.5-0.3,0.7c0.2-0.1,0.2,0,0.3,0c0,0,0,0-0.1,0c0,0.1,0.1,0.1,0.2,0.1c-0.2,0.1,0.1,0.2,0,0.2c0.1,0,0.1,0.1,0.1,0.1 c-0.1-0.1-0.2,0-0.4-0.1c0,0.2,0.4,0.2,0.4,0.4l-0.2,0.1c0.3,0,0.2,0.2,0.3,0.2c-0.1,0-0.1,0.1-0.3,0.1C9.2,38,9,38.1,9.2,38.1 L9.3,38c-0.1,0.2,0.3,0.4,0.1,0.5H9c-0.2,0.1,0.2,0.2,0,0.3c0.1,0,0.1,0,0.2,0c0,0-0.1-0.1-0.1-0.2l0.3,0.1l-0.1-0.2 c0.2,0.1,0.1,0.1,0.3,0c0.1,0.1-0.2,0.2,0,0.3c-0.1,0.1-0.2,0-0.3,0.1C9.5,39,9,39.2,9.2,39.2c0,0,0-0.1-0.1,0c0,0.1,0,0.1,0.2,0.2 v-0.1c0,0.1,0.2,0.1,0.1,0.2c0.1,0.1,0.3,0.1,0.3,0c0,0-0.1,0.1-0.2,0.1c0,0.2,0.5,0.1,0.3,0.3c0,0,0,0-0.1,0V40 c0-0.2-0.3,0.1-0.3-0.1c-0.2,0,0,0.1-0.1,0.2c0.2,0.1,0.3,0,0.4,0c-0.1,0-0.1,0-0.1,0.1h0.2v0.1l-0.1-0.1c0,0.1-0.3,0.2-0.1,0.4 c-0.1,0-0.2-0.1-0.3,0c0.1,0.2-0.1,0-0.2,0.1c0,0.2,0.3,0,0.2,0.2h0.1c-0.1,0.2,0,0.2-0.1,0.4c0-0.1,0.1-0.1,0.2,0 c-0.1,0-0.1,0.1-0.2,0.2h0.1c-0.1,0.1-0.1,0-0.2,0c0,0,0.1,0,0,0c-0.1-0.1-0.4,0-0.4,0.1c0.1,0.1,0.3,0.1,0.4,0.1 c-0.1,0.2,0.4,0.1,0.3,0.3c0,0-0.3,0.2-0.4,0.3c0.2,0.1,0.1-0.2,0.3-0.1c-0.5,0.2,0.3,0.4,0,0.7H9.2c0,0.1,0,0.1,0,0.2L9.3,43 c0.1,0.1,0,0.2-0.2,0.2c0.2,0.1,0.1,0.2,0,0.3c0-0.1,0,0-0.1-0.1c-0.1,0.1,0,0.2,0,0.2c-0.1,0-0.2,0-0.2,0.1C9,43.8,8.9,43.9,9,44.1 H8.9c0.1,0.2-0.2,0.5,0,0.7l0,0l0,0l0,0l0,0C9.1,44.7,9.1,45,9.2,45C9.1,45,9,45,9,45.1c0.2,0,0.1,0.1,0.2,0.1 c-0.1,0.1-0.3,0-0.2,0.1c0,0,0.1,0,0.2,0c-0.1,0-0.2,0.1-0.2,0.2c-0.1,0,0-0.1,0-0.1c-0.1,0-0.1,0-0.2,0c0,0.1,0.2,0,0.1,0.1L9,45.3 v0.1c0,0-0.2,0-0.3,0c0.1,0.2,0.5,0,0.6,0c-0.1,0.2,0.1,0.3,0.1,0.4H9.2c0,0.1,0.1,0.1,0.2,0.1V46c-0.1-0.1-0.1-0.1-0.3-0.1 c0.1,0.1,0,0.2,0.3,0.3l0,0c-0.1,0.1-0.1,0.4-0.2,0.4c0.1,0.1-0.1,0.3,0.2,0.3c0.1,0.1-0.3,0.2,0,0.3c-0.2,0.1-0.1,0-0.3,0 c-0.2,0.1,0.3,0.2-0.1,0.2c0.1,0.1,0.1,0,0.2,0c-0.4,0,0,0.2-0.2,0.3c0.1,0,0.1-0.1,0.2,0c-0.1,0-0.1,0-0.1,0.1h0.2L8.8,48 c0.3,0.2,0.4,0,0.5,0.2l0,0c-0.2,0.1,0.2,0.2,0,0.3c0-0.1-0.1,0-0.2,0l0.1,0.1c0,0,0,0-0.1,0c-0.2,0.1,0.1,0.1-0.1,0.2 c0-0.1-0.2,0-0.3,0L9,48.9H8.7c0,0.1,0.5,0.3,0.1,0.4v-0.1c-0.1,0-0.3,0.1-0.1,0.1h0.2l-0.1,0.1c-0.2,0-0.3-0.2-0.3-0.3 c0.1,0,0.1,0.1,0.3,0.1C8.7,49,8.5,49,8.5,48.9c0.1,0,0.2,0,0.3,0.1c0.1-0.1-0.1-0.1-0.2-0.1c0.1,0,0.1-0.1,0.2,0 c-0.1-0.1-0.1-0.2,0-0.3c0,0,0.1,0.1,0.3,0c-0.1-0.2-0.4-0.2-0.5-0.4c-0.3-0.2,0.2-0.4-0.1-0.6c-0.1,0-0.2,0.1-0.2,0 c0.2,0,0.1-0.1,0.2-0.1c-0.3-0.1,0.1-0.2-0.1-0.2c0.1,0,0.1-0.1,0.2-0.1c0.2,0,0.1-0.1,0.4,0c-0.4-0.2,0-0.3-0.5-0.4H8.4l0.1-0.2 l0,0c0-0.1,0-0.1,0.2-0.2c0.1,0,0.1,0.1,0.1,0.1c0.2-0.1-0.2-0.2-0.2-0.3c0.2,0,0.1,0.1,0.3,0.1c0-0.1-0.1-0.1-0.1-0.2h0.1 c0.2-0.2-0.4-0.1-0.1-0.2c-0.1,0-0.1,0-0.2,0c0,0.1,0.2,0,0.3,0.1c0-0.1-0.1-0.1-0.2-0.2c-0.1,0.1-0.1,0.1-0.2,0.1l-0.1-0.2 c0,0,0.1,0,0.1,0.1c0.5-0.3-0.4-0.6,0.1-0.9c-0.1,0-0.1,0-0.2,0c0-0.1,0-0.3,0.1-0.4h0.1c-0.1-0.2-0.3-0.4-0.2-0.6c0,0,0.1,0,0.2,0 c-0.2-0.1,0.4-0.3,0-0.3l0,0c0.1-0.2-0.2-0.5-0.3-0.7c0.2-0.1,0,0.1,0.3,0.1c0.1-0.2-0.1-0.3,0-0.5h0.1c0.1-0.2-0.2,0-0.2-0.1 c0.1,0,0.1,0,0.2-0.1H8.5h0.2C8.3,42.2,8.4,42,8.2,42c0.1,0,0.3,0,0.4,0c0.1-0.1,0-0.1-0.1-0.2l0,0c0.2-0.1,0.1-0.2,0.2-0.2 c0.1-0.2-0.1,0-0.3-0.1l-0.1,0.1l-0.1-0.2l0.1,0.1c0.1-0.1-0.1-0.2-0.1-0.3l-0.2,0v-0.1c0.3,0,0.1-0.2,0.4-0.1 c0.1-0.2-0.2-0.4-0.3-0.6h0.1c0.1-0.1-0.1-0.2-0.2-0.3c0.1,0,0.1,0,0.2,0C8.2,40,8,40,8,39.9c0.1,0,0.2,0,0.2,0 c-0.1,0-0.2,0-0.2-0.1c0.5,0.1,0.2-0.2,0.6-0.1c-0.1,0-0.4-0.3-0.6-0.2l0,0c-0.2,0-0.1-0.1-0.1-0.1H8c-0.2-0.2,0-0.5-0.2-0.7 C7.9,38.9,8,39,8,38.9c0.1-0.3-0.2-0.4-0.4-0.7c0.3,0,0.1,0.3,0.4,0.3c-0.1-0.3-0.2-0.6-0.4-0.9c0.5-0.1-0.2-0.3,0.2-0.5 c-0.2,0-0.2-0.1-0.2-0.2c0.1,0,0.1-0.1,0.2-0.1c-0.2-0.1-0.2-0.3,0.1-0.3c-0.3,0,0-0.2-0.2-0.3c0.1-0.1-0.1-0.2,0-0.4 c-0.2,0.1-0.1-0.1-0.2-0.2c0,0,0,0,0.1,0c0.2,0-0.2-0.2-0.1-0.2s0.2,0,0.2-0.1c-0.1,0-0.3-0.2-0.1-0.3c0,0,0.1,0,0.1,0.1 c-0.3-0.4,0-0.8-0.3-1.2L7.6,34c0.4-0.1-0.4,0-0.3-0.2c0.1-0.5,0.4-1.1,0.2-1.6c-0.1,0-0.1,0-0.2,0c0,0,0.2-0.1,0.1-0.1H7.3 c0.3-0.2-0.3-0.7,0.3-0.9c-0.2-0.2,0.1-0.4-0.2-0.7c0.1-0.1,0.2,0.1,0.3,0l-0.2-0.2l0,0c-0.4-0.2,0.4-0.7,0.1-1l0,0 c0.1,0,0.2-0.1,0.2-0.1c-0.1,0-0.1,0-0.2,0.1C7.4,29,7.4,29,7.4,28.8c0.1,0.1,0.1-0.1,0.3-0.1c-0.1-0.1-0.2,0-0.3-0.1 c0-0.2,0.1-0.4,0.2-0.5c-0.2,0-0.1-0.1-0.4-0.1c0-0.2-0.1-0.3-0.1-0.6h0.1c-0.3-0.1,0.1-0.2,0-0.3c0.1,0,0.1,0,0.2,0L7.3,27 c0.1,0.1,0.3,0.1,0.3,0c-0.2-0.1-0.1,0-0.3,0h0.2c0-0.1-0.3-0.1-0.4,0c0-0.2-0.1-0.5-0.1-0.7h0.2c0-0.1,0-0.3,0.2-0.3 c0,0-0.1,0-0.2,0c-0.2-0.1,0.3,0,0-0.2c0.1,0,0.1,0.1,0.2,0.1l-0.2-0.3c0.1,0,0.4-0.2,0.3-0.3c-0.1,0-0.2,0-0.2,0.1l-0.1-0.1 l0.3-0.1l-0.2-0.1h0.2c0-0.1-0.3-0.1-0.3-0.2c0.1-0.3,0.2-0.2,0.4-0.4c-0.4,0,0-0.3-0.3-0.3c0.3-0.3,0.1-0.6,0.2-0.9l0,0 c0.2-0.1-0.3-0.1-0.3-0.3h0.1c0.2-0.2,0-0.5-0.2-0.7c0.1,0,0.2,0,0.2,0c-0.1,0-0.3,0.1-0.2,0h0.1L7,22c0.1-0.3,0.3-0.6,0.1-0.9 c0.1-0.1,0.2,0,0.2,0c-0.1-0.2-0.2-0.4-0.3-0.6h0.2c0-0.1-0.4,0-0.2-0.2c0,0,0,0.1,0.1,0.1c0.2-0.2-0.2-0.1-0.2-0.3h0.3 C7.5,20,7.2,20,7,20c-0.3-0.2,0.5-0.2,0.3-0.4c-0.1,0-0.2,0-0.3,0c0.1-0.2-0.1-0.2-0.1-0.4c0.4-0.1,0,0.1,0.4,0l-0.1,0.1 c0.2-0.1,0.1,0.1,0.3,0.1c0.1-0.1-0.1-0.2-0.2-0.4c0.2,0,0,0.1,0.3,0.1L7.5,19c0.1,0,0.1,0,0.1,0.1c0.2,0,0-0.1,0-0.1 c-0.1,0-0.2,0-0.4,0c0,0,0,0,0.1,0C7,18.8,7.2,18.6,7,18.5c0.1,0,0.1,0,0.1,0c0-0.1-0.2-0.1-0.3-0.2c0.1-0.1,0.4,0,0.3-0.1 c-0.2,0-0.4,0.1-0.4-0.1C6.7,18,6.8,18.2,6.9,18.1z M7.4,21.1L7.4,21.1L7.4,21.1L7.4,21.1z M7.6,21.3L7.6,21.3l-0.1,0.1 C7.5,21.4,7.5,21.3,7.6,21.3z M8.8,20.8L8.8,20.8L8.8,20.8c0.1,0.1,0.1,0.1,0.1,0C8.8,20.8,8.8,20.8,8.8,20.8z M8.6,20.7L8.6,20.7 C8.5,20.7,8.5,20.7,8.6,20.7C8.5,20.7,8.6,20.8,8.6,20.7L8.6,20.7z M9.2,44.6L9.2,44.6L9.2,44.6L9.2,44.6z M7.2,25.1L7.2,25.1 L7.2,25.1L7.2,25.1z M8.5,46.1L8.5,46.1L8.5,46.1z M8.5,46.7L8.5,46.7L8.5,46.7z M8.4,47.2C8.4,47.2,8.5,47.2,8.4,47.2 C8.5,47.2,8.5,47.2,8.4,47.2L8.4,47.2z M7.9,39.5L7.9,39.5C7.8,39.5,7.8,39.5,7.9,39.5z M8.4,41.8C8.4,41.8,8.4,41.7,8.4,41.8 C8.3,41.8,8.3,41.8,8.4,41.8z M7.5,37L7.5,37L7.5,37L7.5,37z M8.3,41.6L8.3,41.6C8.4,41.7,8.4,41.6,8.3,41.6z M8.4,49.3L8.4,49.3 L8.4,49.3L8.4,49.3z M8.4,49.3L8.4,49.3L8.4,49.3z M8.5,49.4L8.5,49.4C8.4,49.3,8.4,49.3,8.5,49.4z M8.5,48.6L8.5,48.6 C8.4,48.6,8.4,48.6,8.5,48.6z M8.4,48.4c0,0-0.2,0.1-0.1,0.2h0.1C8.3,48.6,8.6,48.5,8.4,48.4z M9.3,47.6l-0.1,0.2 c0.1,0,0.2-0.1,0.2,0C9.7,47.5,9.3,47.8,9.3,47.6z M9.4,47.1c0,0.1,0.1,0,0.2,0C9.5,47,9.5,47,9.4,47.1z M9.3,43.4h0.2 C9.4,43.4,9.4,43.4,9.3,43.4z M8.3,42.8l-0.1,0.1L8.3,42.8L8.3,42.8z M9.6,42.3L9.6,42.3L9.6,42.3L9.6,42.3z M9.3,36.2H9.1 C9.1,36.3,9.4,36.3,9.3,36.2z M9,33.6c0.1,0,0.2-0.1,0.1-0.2C9,33.5,9,33.6,9,33.6z M9.1,25.7L9.1,25.7L9.1,25.7L9.1,25.7z M251.1,260.1c0.1,0.2,0.2,0.1,0.2-0.4l-0.2-0.3V260.1z M253.7,198.7c0-0.2,0-0.3,0-0.3C253.6,198.6,253.6,198.7,253.7,198.7z M251.4,251.3c0,0.1,0,0.3,0,0.4C251.4,251.6,251.4,251.5,251.4,251.3C251.4,251.4,251.4,251.4,251.4,251.3z M252.6,209.7 L252.6,209.7C252.6,209.7,252.6,209.6,252.6,209.7z M251.4,251.1c0-0.1,0-0.2,0-0.4C251.4,250.9,251.4,251,251.4,251.1z M252.1,232.9c0.1-0.2,0.1-0.3,0.2-0.3C252.1,232.7,252.1,231.6,252.1,232.9z M251.5,251.3c0,0-0.1-0.1-0.1-0.2 C251.4,251.2,251.4,251.3,251.5,251.3C251.5,251.4,251.5,251.4,251.5,251.3z M255.8,238v1.2C255.8,238.9,255.8,238.5,255.8,238z M255.8,242.9c-0.1,0.2-0.1,0.4-0.1,0.7c0,0.1,0,0.1,0.1,0.1V242.9z M255.8,237.9L255.8,237.9v0.1V237.9z M251.6,247.9 c0,0.4-0.2,1-0.2,1.5l0.1,0.1C251.4,249.2,251.7,248.3,251.6,247.9z M261.5,255.2l-0.2,0.2l0.4-0.1 C261.8,255.3,261.8,255.2,261.5,255.2z M259.9,255.1c-0.1-0.1,0-0.1,0-0.2c-0.3,0.1-0.7,0.3-0.5,0.5c0.3-0.2,0.4-0.1,0.7-0.4 c0.3,0,0.5,0.1,0.4,0.2c0.1-0.1,0.4,0.1,0.6-0.1C260.8,254.9,260.4,254.9,259.9,255.1z M217.4,254.5c-0.1,0-0.2,0-0.2,0.1 C217.3,254.5,217.4,254.5,217.4,254.5z M248.5,254.2L248.5,254.2L248.5,254.2z M209.3,254.3L209.3,254.3 C209.4,254.3,209.4,254.3,209.3,254.3z M244,256.8c-0.5-0.2,0.9-0.2,0.1-0.4C244.2,256.4,243.4,256.6,244,256.8z M208.9,256.5 l-0.1-0.1C208.8,256.5,208.9,256.5,208.9,256.5z M213.5,256.3c0.1,0,0.2,0,0.3,0l0,0C213.7,256.3,213.6,256.3,213.5,256.3z M218.2,256.3L218.2,256.3c-0.1,0-0.2,0-0.2,0H218.2z M234.2,254.1c-0.1-0.1,0.6-0.2-0.2-0.2C234.1,254,234.2,254.1,234.2,254.1z M213.6,254.7L213.6,254.7C213.6,254.7,213.7,254.7,213.6,254.7L213.6,254.7z M259.1,255.4c0,0-0.1,0-0.2,0v1.2c0,0,0,0-0.1,0v0.2 c-0.2,0-0.4-0.1-0.6-0.1c-0.6,0.1-1.1,0.2-1.9,0.1l0.3-0.1c-0.2,0-0.4,0-0.6,0l0,0l0,0c-0.2,0-0.4,0.1-0.4,0.1c-0.1,0,0-0.1,0-0.1 c-0.2,0-0.3,0-0.4,0c-0.1,0-0.1,0-0.2,0.1c0,0.1,0,0.3,0,0.4l-1.9-0.1c0-0.2,0-0.3,0-0.5c-0.4,0-0.9,0.1-1.4,0.1 c0,0.1,0.1,0.2,0.1,0.4c0,0-0.1-0.2-0.2,0c0.1,0.8,0.1,1.5-0.1,2c-0.1-0.2,0-0.8-0.1-0.9c0.1,0.1,0.2-0.2,0.2-0.7 c-0.2-0.4-0.2-0.5-0.2-0.7c-0.3,0-0.6,0-0.8,0c0.3,0,0.1-0.2,0-0.2c-0.6,0.4-2.2,0.3-2.8,0.3l0.4-0.1c-1.2,0.2-1-0.4-2.2-0.2 l0.7,0.2c-0.5-0.1-0.9,0-0.8,0.2c-0.6-0.1-0.1-0.3-0.9-0.3c0-0.1,0.6-0.1,0.3-0.2l-1.2-0.3l0,0c0,0,0,0-0.1,0h0.1c0,0-0.2,0-0.6,0 c0.1,0.4-1,0-0.4,0.5c-1.6,0-3-0.3-4.4-0.1c-0.6-0.4-2.8,0-2.6-0.6c-0.8,0-1.4,0.1-1.9,0.3c0.2,0,0.4,0,0.5-0.1 c-0.2,0.1-1.2,0.2-1.6,0.2c0.5-0.1,1.4-0.2,1.8-0.4c-0.7,0-1.7,0.3-2.1,0.3l-0.2-0.3c-0.6,0.2-0.5-0.2-1.1,0l0.1,0.1 c-1.1,0-1.1,0.3-2.2,0.3v-0.1c-0.4,0-0.9,0.2-1.2,0h0.7c-0.1-0.2-0.6-0.3-0.8-0.4l0,0c-0.7,0.1-0.2,0.3-0.6,0.3 c-0.2-0.2,0-0.1,0.2-0.3c-0.8,0.1-1.9,0.1-2.5,0.4v-0.1c-0.1,0-0.2,0-0.2,0s0,0.1-0.3,0l0,0c-0.2,0-0.4,0-0.5,0.1l-0.1,0.1 c-0.1,0-0.1,0-0.2,0c-0.3,0-0.5,0.1-0.7,0h0.1c-0.4,0-0.8,0-1.2,0c-0.2,0-0.3,0-0.4,0c-0.1,0-0.2,0-0.3,0s-0.3,0.1-0.4,0.1v-0.1l0,0 v-0.3c-0.2,0.1-0.3,0.3-0.8,0.2c0.1,0,0.1,0,0.1-0.1c-0.6,0-1.5,0-2.2,0.1c-0.9-0.4-2.6,0.1-3.6-0.4c0.3,0.2-0.2,0.2-0.2,0.3 c0,0,0,0,0-0.1c-0.4,0-0.4,0.1-0.5,0.2c-0.3-0.1-1,0.1-1.2,0c0,0.1-0.3,0.1-0.6,0.1c0.6-0.1,0.2-0.2,0.5-0.4c-1-0.1-1.1,0.4-2.1,0.3 l-0.5-0.2c-0.1,0.3-1,0.2-1,0.3c-0.2-0.1-0.4-0.1-0.4-0.3c-0.4,0.1-1-0.1-1.2,0.1l0.4,0.1c-1.2-0.1-2,0.3-2.9,0.1v-0.1 c-0.2,0-0.5,0-0.7,0c-0.1,0,0,0.1,0.1,0.2c-0.5,0.1-0.7,0-0.9-0.1v-1.8c0.2,0,0.4,0,0.7-0.1c0.3,0,0,0.2,0.3,0.3l0,0 c0.2,0,0.4-0.1,0.5,0c0.7-0.1,1.3-0.2,2.2-0.3v0.1c0.1,0,0.2,0,0.4,0c0.4-0.1,0.6-0.3,0.2-0.3c0.2,0,0.5,0.1,0.4,0.2 c1,0,0.4-0.5,1.4-0.3c-0.1,0-0.1,0-0.1,0.1c0.2,0,0.4,0,0.6,0c-0.8,0.1,0.3,0.3-0.7,0.3c0,0.1,0.2,0.1,0.3,0.1c0.2,0,0.4,0,0.7-0.1 c0,0,0,0,0.1,0l0,0c0.5-0.2,0-0.3,0.3-0.5c0,0.1,0.2,0.1,0.4,0.1l-0.2-0.2c0.2,0,0.4,0,0.6-0.1L211,254c0.4,0,1.1,0.3,1.9,0.1 c-0.2,0.1-0.6,0.2-0.1,0.3c0.7-0.1,0.4,0,0.5,0.1c0.1,0,0.3,0,0.5,0c0,0,0,0,0,0.1c0.1,0,0.1,0,0.2-0.1l0,0l0,0 c0.2-0.1,0.1-0.2,0.9-0.2c0.1,0,0-0.1-0.1-0.1c0.8,0.1,1.3-0.1,2.1,0c-0.4,0-0.6-0.1-0.2-0.2c-0.2,0.1,0.7,0.1,1,0.2l0.1-0.1 c0.3,0.1,0,0.1-0.2,0.2c0,0-0.1-0.1-0.2,0c-0.3,0.1-0.3,0.2,0,0.3h0.1l0,0c0.1,0,0.2,0.1,0.4,0.1c0.7-0.1,0.6-0.3,0.4-0.4 c0.9,0.1,0.8-0.4,1.7-0.3c0.2,0,0.9,0.3,1.5,0.3c0.3-0.2-0.8-0.1-0.4-0.3c1.1,0.5,2.2-0.3,3.5-0.1l-0.2,0.2c0.3,0,0.6,0,1,0 l-0.5-0.1c0.3-0.1,1,0,0.8,0.1c0.1,0,0.1,0,0.2,0c0.6-0.1,0.8,0,1.4,0c-0.1,0-0.2,0-0.2,0s0,0,0.1,0s0,0-0.2,0.1h-0.1 c0.2,0,0.3,0,0.4,0c0.2-0.1,0.3-0.2,0.7-0.3c-0.1,0-0.1-0.1,0.1-0.1v0.1c0.1,0,0.1,0,0.2,0l-0.2,0.2c0.1,0,0.1,0,0.2,0 c0,0,0,0.1,0.1,0.1c0.5,0,0.6-0.2,0.8-0.4c0.7-0.2,0.8,0,1.2,0.2c0.3,0,0.7,0,1.1,0c0.2-0.1-0.1-0.2,0.1-0.3c1,0,1.1-0.2,2.2-0.1 c0.6,0.4-0.5,0,0.1,0.4l-0.8-0.1c0.4,0.1,0.1,0.1-0.2,0.2c0.3,0,0.6,0,0.9,0c0.2,0,0.5-0.1,0.7-0.1c0,0,0,0-0.1,0.1 c0.1,0,0.2,0,0.3,0V254c0,0,0,0,0.1,0.1c0.7-0.3,1.8-0.1,2.3-0.3c-0.1,0.1,0,0.1,0,0.1c0.4,0,0.8-0.2,1.4-0.3 c0.3,0.1-0.2,0.4,0.7,0.3c0.2-0.2-0.2-0.4,0.5-0.4c0,0-0.6,0.1-0.3,0.2c0.7-0.1,0.2,0.1,0.9,0.2c0.4-0.2,0.7,0.1,0.8-0.3 c0.2,0.2,0.2,0.2,0.4,0.3l0,0l0,0c0.1,0,0.1,0,0.2,0.1c-0.2-0.2,0.8-0.2,0.8-0.4c0.2,0.3-0.8,0.3-0.2,0.6c0.4-0.2,1.1-0.2,1.2-0.5 c0.3,0.1,0.4,0.2,0.9,0.2c-0.1,0-0.2,0-0.2,0.1c0.9-0.2,2.1,0.1,2.6-0.2c-0.1,0.2,0.3,0.2,0.6,0.3c0,0,0.1,0,0.2-0.1l0.2,0.1 c0.2,0,0.3,0.1,0.1,0.2c0.1,0,0.2,0,0.3,0c0,0,0-0.1-0.1-0.1c0.1,0,0.1,0,0.2,0c0,0,0.1,0,0.1-0.1c0.1,0,0.1,0,0.1,0 c0.2,0,0.4-0.1,0.5-0.1c0,0.2,0.3,0.2,0.6,0.2l0,0l0,0c0.1,0,0.3,0,0.4,0.1c0.1,0,0.2,0,0.4,0c0.3-0.1,0.8,0,1.1-0.1 c-0.2,0-0.2,0.1-0.2,0.1h0.1l0,0c0,0,0,0,0.2-0.1c0,0.1,0.2,0.1,0.3,0.1v-0.1c0-0.5,0-0.9,0-1.3c0.1,0.3,0.1,1,0.2,0.8 c0-0.8-0.1-1.5-0.2-2.3c0.1,0.3,0.2,0.5,0.3,0.6c0.1-0.8-0.1-0.6-0.1-1.3c0-0.1,0.1-0.2,0.1-0.2c0-0.1,0-0.1,0-0.2v0.1 c0,0,0-0.1,0.1-0.1c0-0.4,0-0.8,0-1.3c0-1.1-0.1-2.3-0.1-3.3l0.1-0.1c0-0.2,0-0.3,0-0.5c-0.1-0.8-0.1-1.5,0-2.2c0-0.1,0-0.3,0-0.5 v0.1c0-0.4,0.1-0.8,0.1-1.1c-0.1-0.1-0.1-0.2-0.2-0.4c-0.1-0.8,0-1.2,0.1-1.5c-0.1-0.8,0.1-1.3,0-1.9c0,0.1,0.1-0.1,0.1-0.3 c-0.1,0-0.1,0.1-0.2-0.1c0.1-1.6-0.1-1.8,0-3.5c0.4-0.8,0,0.7,0.4,0l0.1-0.7l0,0c0,0.1,0,0.3-0.1,0.4l0.1-0.5c0-0.1,0-0.2,0-0.4 c0,0,0,0,0.1,0.1l0,0l0,0l0,0v-0.1v0.1c0-0.2,0-0.3,0-0.5l-0.1,0.1c0,0,0-0.1,0.1-0.1c-0.2-1.1,0-2.9-0.2-3.8c0.1,0.1,0.1,0,0.1,0 c0-0.6-0.2-1.3-0.3-2.2c0.2-0.5,0.4,0.3,0.4-1.1c-0.1-0.2-0.4,0.4-0.4-0.8c0,0,0.1,1,0.2,0.5c-0.1-1.1,0.1-0.4,0.3-1.4 c-0.2-0.6,0.1-1.1-0.2-1.3c0.2-0.4,0.2-0.3,0.3-1c-0.2,0.3-0.2-1.4-0.4-1.3c0.3-0.3,0.3,1.2,0.6,0.3c-0.2-0.6-0.2-1.8-0.5-1.9 c0.1-0.5,0.2-0.7,0.2-1.5c0,0.1,0,0.3,0.1,0.3c-0.2-1.4,0.1-3.3-0.2-4.1c0.4,0.3,0.1-2.9,0.5-1.8c0-0.6-0.2-1.5-0.2-1.7 c0.1,0,0.2-0.2,0.2-0.4l0,0c0-0.3,0-0.6,0-1l0.1,0.7v-0.1c0-0.4,0-0.8,0.1-1.1c-0.2-0.3-0.1-1.3-0.2-2c0,0.3,0.1,0.4,0.2,0.3 c-0.1-0.7,0-0.5,0.2-1.1c-0.1-0.9-0.3,0.2-0.4-0.4c0.1-0.8,0.2-0.1,0.3-0.3l-0.3-1.2c0-0.2,0.1-0.4,0.2-0.5 c-0.1-0.3-0.1-0.5-0.1-0.8h0.4c0-0.7,0-1.3,0.2-2.2c-0.1,0.6-0.2,1-0.2,0.2c0.1,0.3,0.2-1.1,0.3-1.6l-0.1-0.1c0.1-0.4,0.1,0,0.1,0.4 c0,0-0.1,0.1-0.1,0.4c0,0.6,0.3,0.5,0.4-0.3c0-0.2,0-0.5,0-0.7c-0.1-0.6-0.2-0.5-0.3-0.4c0.2-1.5-0.3-1.4,0-2.8 c0-0.2,0.2-0.6,0.3-1.1l1.2,0.1c-0.1,0.3-0.1,0.6-0.2,1c0,0.1,0,0.1,0,0.2c0,0,0,0-0.1,0v0.1c0.2,0.5,0.2-1.3,0.3-0.7 c-0.1,0.3-0.2,0.6-0.2,0.9h0.2v-0.1v0.1l1,0.1v0.1h0.2c0,0.3-0.1,0.7-0.2,1.3l0,0c0,0.9-0.1,1.8-0.2,2.9l0,0 c-0.1,0.8-0.3,2.2-0.6,2.5c0,0.4-0.1,0.8-0.1,1.2c0,0.1,0,0.1,0,0.2c0.1,1.2,0.2,2.3,0,4l-0.1-0.5c-0.1,0.6,0,1.5,0,1.7 s-0.1,0-0.1,0c-0.1,0.5,0,0.9,0,1.3l-0.1-0.2c-0.3,1.8-0.1,4.6-0.2,7c0-0.3-0.1-0.3-0.1-0.2s0,0.2,0,0.3l0,0v0.2v-0.1 c0,0.5,0,1,0.1,1.4c0,0.1,0,0.1,0,0.2c0,0,0,0,0,0.1c0,1,0.1,2.1,0.2,3.2c-0.1-0.2-0.2-0.9-0.2-0.7v0.1l0,0c0,0,0,0,0,0.1 c0,2.2,0.4,3.5,0.6,5.8c-0.3,0.1-0.2-2.4-0.5-2.5c0.2,2.4,0.4,4.8,0.7,7.5c-0.5,0.9,0.3,2.6-0.1,4.2c0.2-0.2,0.3,0.7,0.3,1.6 c-0.1-0.3-0.1,0.6-0.2,0.4c0.2,0.8,0.3,3-0.1,3c0.3,0.2,0,1.7,0.2,2.3c-0.1,0.5-0.1,1,0,1.6c0,0.6,0,1.2-0.1,1.8 c0.2-0.4,0.1,1.2,0.1,1.7c0-0.1,0-0.4-0.1-0.3c-0.1,0.2-0.1,0.5,0,0.9c0,0.4,0,0.8,0,1.2c-0.1,0.3-0.2-0.1-0.2,0.4 c0.1,0,0.2,1.9,0,2.6c0-0.3,0-0.3-0.1-0.5c0,0.6,0,1.2-0.1,1.8c0.3,0.1,0.3-0.1,0.8,0l0,0c0.2,0,0.5,0,0.8,0l0,0 c0.2,0,0.4,0.1,0.7,0.1c0.4-0.1,0.8-0.1,1,0.1h-0.3c0,0,0,0,0.1,0.1l0,0c0.1,0,0.1,0,0.3-0.1c0.2,0,0.3,0,0.4,0c0,0,0-0.1-0.1-0.1 l0.3,0.1c0,0-0.1,0-0.1,0.1v0.2c0,0,0,0,0.1,0v0.1L259.1,255.4z M254.3,250.8L254.3,250.8L254.3,250.8L254.3,250.8z M254.2,245.2 c0.1-0.3,0.1-0.6,0.1-1c0,0.3-0.1,0.5-0.1,0.8C254.2,245.1,254.2,245.1,254.2,245.2L254.2,245.2 C254.2,245.3,254.2,245.3,254.2,245.2c-0.1,0.6-0.2,1.1-0.3,1.7c0,0.1,0,0.3-0.1,0.4c0,0.1,0,0.1,0.1,0.2l0.1-0.2 c0,0.7,0.1,1.1,0.1,1.5c0-0.1,0-0.2,0-0.3c0,0.2,0,0.1,0.1,0.2c0-0.4,0-1,0-1.5c0,0.1,0,0.2-0.1,0.3c0-0.3,0-0.8,0-1.3 c0,0.1,0,0.1,0,0.2C254.2,246,254.2,245.6,254.2,245.2z M254.4,242.6c0-0.1,0-0.3,0-0.4c0,0,0,0.1,0,0.2V242.6z M254.4,241.3 c0,0.1-0.1,0.2-0.1,0.4c0,0.1,0,0.1,0.1,0.1C254.4,241.7,254.4,241.5,254.4,241.3z M254.6,239.5c0,0.1-0.1,0.2-0.1,0.1 c0,0.1,0,0.3,0,0.4C254.5,239.8,254.5,239.6,254.6,239.5z M251.9,251l0.6,0.1L251.9,251L251.9,251z M254.9,210.9c0-0.1,0-0.2,0-0.3 C254.9,210.7,254.9,210.8,254.9,210.9z M253,201.9v-0.1h0.1v-0.1h0.2l0,0H253v0.5V201.9z M252.2,235.2c0.2-1.1,0,1,0.3,0.8 c0-0.2,0-0.5,0-0.8c0,0.1,0,0.2-0.1,0.2c0-0.1,0-0.2,0.1-0.4c0-0.2,0-0.4,0-0.6l-0.1,0.1c0-0.1,0-0.2,0-0.3s-0.1-0.2-0.1-0.3l0,0 L252.2,235.2z M251.7,254.5c0.2,0.1,0.2,0.1,0.1,0.2l0.1,0.1l0.6-0.2c0,0,0.2-0.1,0.4-0.1c-0.1-1.1-0.1-2.1-0.3-3.2l0.3,0.6 c0-0.3,0-0.6,0-0.8l-1-0.1l0.1,0.7l-0.3-0.5C251.7,252.3,252.1,253.9,251.7,254.5z M251.5,254.5L251.5,254.5h0.1l0,0l0,0V254 C251.6,254.1,251.5,254.2,251.5,254.5z M233.6,254.3h0.1l0,0C233.7,254.3,233.6,254.3,233.6,254.3z M205.4,255c0.2,0,0.4,0,0.6,0 h0.1l0,0c0.2,0,0.3,0,0.5,0c0,0,0.1,0,0.1-0.1h-0.4c0.1,0,0.1,0,0.2,0C206,254.9,205.4,254.8,205.4,255z M203.3,254.9L203.3,254.9 L203.3,254.9L203.3,254.9L203.3,254.9z M203.3,255.1L203.3,255.1v0.1l0,0V255.1z M203.3,255.2L203.3,255.2 C203.3,255.3,203.3,255.3,203.3,255.2L203.3,255.2L203.3,255.2z M203.2,255.1v1.1l0,0V256l0,0V255.1L203.2,255.1L203.2,255.1 L203.2,255.1L203.2,255.1C203.3,255.1,203.2,255.1,203.2,255.1z M203.3,256.2L203.3,256.2V256l0,0V256.2z M203.3,256.4L203.3,256.4 L203.3,256.4L203.3,256.4L203.3,256.4C203.3,256.3,203.3,256.3,203.3,256.4L203.3,256.4V255h0.1l0,0h-0.1V256.4z M221.1,256.2V256 l0,0V256.2L221.1,256.2z M250.7,254.3c-1.1-0.2,0.2,0.2-0.9,0.1l0.9,0.1C250.5,254.4,250.3,254.3,250.7,254.3z M221.9,254l-0.6,0.1 l0.4-0.1H221.9z M217.4,256.5l-0.1-0.2C217,256.3,217,256.6,217.4,256.5z M231.5,256.4c0.2,0.1,0.5,0.2,0.8,0.1 C232,256.4,231.6,256.3,231.5,256.4z M11,234.8c0-0.1-0.2-0.1-0.2,0.2l0.2,0.2V234.8z M10.3,236.6c0.1,0.3,0.2,0.7,0.5,0.6 c-0.2-0.4-0.1-0.4-0.3-0.8c0-0.3,0.2-0.5,0.2-0.4c0-0.1,0.1-0.4,0-0.6c-0.2,0.3-0.3,0.8-0.2,1.3C10.4,236.7,10.3,236.6,10.3,236.6z M10.3,240.3c0-0.1,0-0.2,0-0.2C10.2,240.2,10.2,240.2,10.3,240.3C10.2,240.3,10.2,240.3,10.3,240.3z M11.4,218.7L11.4,218.7 L11.4,218.7z M10.5,225.3L10.5,225.3c-0.1-0.1-0.1-0.1-0.1-0.1L10.5,225.3z M10.1,240.3c0,0,0.1,0.1,0.1,0.2 C10.2,240.4,10.2,240.4,10.1,240.3C10.2,240.3,10.2,240.3,10.1,240.3z M8.9,210.7l0.1-0.8C8.9,210.1,8.9,210.4,8.9,210.7z M9.1,207.6c0.1-0.1,0.1-0.3,0.2-0.4v-0.1L9.1,207.6z M8.2,224.7v-0.1C8.2,224.3,8.2,224.5,8.2,224.7z M8.9,210.8L8.9,210.8 C8.9,210.7,8.9,210.7,8.9,210.8L8.9,210.8z M10.7,238v-0.1l0,0V238z M10.6,237.7c0-0.1,0-0.2,0-0.3V237.7z M9.8,242.5 c0.1-0.2,0.3-0.6,0.3-1H10C10.1,241.7,9.8,242.2,9.8,242.5z M66.1,255.9l-0.2,0.2h0.5C66.4,256.1,66.4,255.9,66.1,255.9z M64.3,255.7c-0.1-0.1,0-0.1,0-0.2c-0.4,0.1-0.8,0.3-0.6,0.5c0.4-0.2,0.4-0.1,0.8-0.4c0.3,0,0.5,0.1,0.4,0.2 c0.1-0.1,0.5,0.1,0.6-0.1C65.3,255.6,64.8,255.5,64.3,255.7z M60.4,255.8c0.1,0,0.2,0,0.3,0C60.5,255.8,60.5,255.8,60.4,255.8 L60.4,255.8z M43.5,253.8L43.5,253.8l0.2-0.1L43.5,253.8z M49.3,254.3c0.1-0.1,0.2-0.1,0.3-0.1c0,0,0-0.1-0.1-0.1 C49.4,254,49.3,254.2,49.3,254.3z M11.1,257.7L11.1,257.7L11.1,257.7z M4.1,257.6L4.1,257.6c0.1-0.1,0.1-0.1,0.1-0.1L4.1,257.6z M32.9,253c0.6,0.2-1,0.2-0.1,0.4C32.7,253.3,33.6,253.1,32.9,253z M60.2,255.8c-0.1,0-0.2,0-0.2,0 C60.1,255.8,60.1,255.8,60.2,255.8z M26.7,256.5c-0.1-0.1-0.2-0.1-0.2-0.2C26.6,256.5,25.8,256.6,26.7,256.5z M60.4,255.7 c0,0-0.1,0.1-0.2,0.1C60.3,255.8,60.3,255.8,60.4,255.7L60.4,255.7z M62.2,255.6c-0.5,0-1,0.1-1.5,0.2c0.2-0.1,0.3-0.2,0.4-0.3 c-0.6-0.1-0.4,0.1-0.9,0.1c-0.2-0.1-0.3-0.2-0.2-0.2c-0.5,0-1,0-1.5-0.1c0,0,0.7-0.1,0.3-0.2c-1.1,0.1-1.3,0.3-2.4,0.4 c-1.3,0.3-2.5-0.3-3.4-0.1c-0.1,0.1,0.7,0.2,0.1,0.2c0.1-0.2-0.3-0.1-0.4-0.2c-0.7,0.2-0.9-0.1-1.4,0c0.1-0.1-0.3-0.1-0.5-0.2 c0.1-0.2-0.7-0.1,0.2-0.4c-1,0.3-1.7-0.2-2.4,0.3l0.2,0.1l-1-0.1l0,0c-0.4-0.1-0.5,0-1-0.2c0.2,0,0.6,0,0.8-0.1 c-0.5-0.2-1.1,0.1-1.6,0.1c0-0.2,0.6,0,0.4-0.2c-0.4,0-0.8,0.1-1.1,0.1l0.1-0.1c-1-0.2-0.4,0.4-1.1,0.1c0,0.1-0.1,0.1,0,0.2 c-0.3-0.1-0.9-0.3-0.3-0.4c-0.3,0-0.7,0.1-0.9,0.1c0.3,0.1,0.4,0.1,0.5,0.2l-1.4,0.1c-0.2,0,0.1-0.1,0.3-0.1c-0.1,0-0.2,0-0.3-0.1 l0,0c0,0,0,0-0.1,0v0.6c-0.6-0.1-1.3-0.1-1.9-0.2c-0.2,0-0.5,0-0.6,0c0.1,0,0.2,0,0.2,0c-0.6,0-1.1-0.1-1.7-0.1c-0.1,0-0.1,0-0.1,0 c0.2,0,0.4,0.1,0.6,0.1c-0.1,0.1-0.3,0.1-0.4,0.1l0,0c-0.1,0-0.1,0-0.2-0.1c-0.1,0-0.3-0.1-0.3-0.1h0.1c-0.1,0-0.2,0-0.3,0l0.1,0.1 c-0.2-0.1-0.5-0.1-0.8-0.2c-0.4,0.1-0.6,0.2-1.3,0.2v-0.1c-0.4,0-1,0.2-1.3,0h0.7c0-0.1-0.2-0.1-0.3-0.2c-0.4,0-0.7,0-1-0.1 c-0.1,0.1,0,0.2-0.3,0.3c-0.2-0.2,0-0.1,0.2-0.3l0,0c-0.2,0-0.4,0-0.6,0.1v0.1l0,0v1.2l0,0v0.1c-0.1,0-0.1,0-0.2,0 c-0.1,0.1-0.2,0.2-0.3,0.2c-0.6,0.2-0.8,0-1.1-0.1c-0.2,0-0.3,0-0.5,0c0-0.1-0.2-0.1-0.4-0.2c-0.1,0-0.3,0-0.4,0 c-0.2,0.1,0.1,0.2-0.2,0.3c-1.1,0-1.2,0.2-2.4,0.1c-0.6-0.4,0.6,0-0.1-0.4h0.5l0,0c-0.2,0-0.4,0-0.6-0.1h-0.1 c-0.1,0-0.3,0.1-0.4,0.1c0-0.1,0.1-0.1,0.2-0.1c0,0,0,0-0.1,0s-0.3,0-0.4,0c0,0.1,0.1,0.1,0.1,0.2c0,0,0,0-0.1-0.1 c-0.7,0.3-1.9,0.1-2.5,0.4c0.1-0.1,0-0.1,0-0.1c-0.4,0-0.9,0.3-1.4,0.4c-0.3-0.1,0.2-0.4-0.8-0.3c-0.2,0.2,0.3,0.4-0.5,0.5 c0,0,0.7-0.2,0.3-0.3c-0.8,0.2-0.3,0-1-0.2c-0.4,0.2-0.8,0-0.8,0.3c-0.3-0.2-0.2-0.1-0.7-0.3c0.2,0.2-0.9,0.3-0.8,0.5 c-0.2-0.2,0.8-0.4,0.1-0.6c-0.4,0.2-1.2,0.3-1.3,0.6c-0.3,0-0.5-0.1-1-0.1c0.1,0,0.2-0.1,0.2-0.1c-0.9,0.3-2.3,0.2-2.7,0.6 c0.1-0.4-1.9,0.1-1.3-0.3c-0.4,0.1-1,0.3-1.1,0.4c0-0.3-0.9,0-1.4-0.1c-0.2,0.2-0.8,0.2-1.2,0.3c0,0,0,0.1,0,0.2c0,0,0-0.1,0-0.2 H8.4l0.1,1.2c0,0-0.1,0.2-0.2,0.4c0,0.1,0,0.1,0,0.2H8.2l0,0H6.7l0,0H6.6c0-0.3,0-0.6,0-0.9c0,0.1-0.1,0.2-0.1,0.2v-0.4l0.1-0.2 c0-0.1,0-0.3,0.1-0.4L6.6,258v0.1V258l0,0c-0.2,0-0.3-0.1-0.4-0.1c-0.3,0.1-0.5,0.3-0.9,0.2L6,258l-0.3-0.1L5,258.4 c-1.2-0.1-0.9-0.5-0.9-0.8l0.5-0.1c0-0.1-0.4-0.1-0.6-0.1c-0.2,0,0.7-0.5,1.3-0.6c1.3-0.1,0.6,0.3,1.1,0.3c0-0.3,0-0.6,0.1-0.9l0,0 l0,0c-0.3,0-0.7,0-1.1-0.1v-0.2C5,256,4.5,256,4.1,256.1c-0.6-0.3-2-0.1-3.3-0.1l0,0l0,0c-0.1,0-0.2,0-0.4,0H0.3l0,0 c-0.1,0-0.1,0-0.2,0L0,254.2c0.1,0,0.1,0,0.2,0v-0.1l0.7-0.1c0,0,0.1,0.1,0.3,0.1l0,0v-0.4c0.6-0.1,1.4-0.3,1.7-0.1H2.8 c0,0.3,0.6-0.1,1-0.1c0.3-0.1,0.6-0.3,0.3-0.3c0.7,0,1.6-0.1,2.5-0.2c0-0.5,0.1-1.1,0.2-1.5l0.1,0.2c0-1.4-0.1-2.3,0-3.2 c0,0,0.1,0,0.2,0.2c-0.1-0.5,0.2-1,0.2-1.3c0-0.1,0-0.2,0-0.2s0-0.1-0.1-0.1v0.2c0-0.3,0.1-0.7,0.1-1.1c0-0.1,0-0.1,0-0.2 c0-0.9-0.1-1.9,0-2.8c0.3-0.3,0,0.8,0.3,0.5l0,0c0-0.3,0-0.5,0-0.8l-0.2-0.2l0.1-0.3c0-0.1,0-0.2,0-0.3c0.1,0.2,0.2,0.1,0.2-0.2 c-0.1-0.3-0.3,0.2-0.2-0.3c0,0.1,0.1,0,0.1-0.1l-0.2-0.6c0.1-0.9,0.3-1.9,0.4-2.8V238l0,0c0.1-0.6,0.1-1.2,0.1-1.8 C8,236,8,236,8,236.1c0-0.1,0-0.1,0-0.2c0,0.1,0,0.1,0,0.2c0,0,0,0.1,0.1,0.1c0-0.2,0-0.5,0-0.7v-0.1c0,0,0,0,0-0.1L8,235.9v-1.1 l0.1,0.5c0.1-0.5,0-1.1,0-1.7L7.7,234v-0.7c0.2,0,0.2-0.5,0.3-0.6c0-0.5,0-1,0-1.2l0.1,0.4l0,0c0-0.2,0-0.4,0-0.6c0-0.1,0-0.2,0-0.4 l0.1,0.1c0-0.2,0-0.4,0-0.6l0,0v-0.1c0-0.1,0-0.3,0-0.4c0-0.1,0-0.2,0-0.3H8.1c0.1-0.2,0.1-0.3,0.2-0.3c0-0.1,0.1-0.1,0.1-0.2 c0-0.3-0.1-0.6-0.2-0.9c0.1,0.1,0.1,0.3,0.2,0.3c0.1-0.8-0.1-0.5-0.1-1.4c0.1,0.3,0.2,0.2,0.2-0.1c-0.1,0-0.2-0.2-0.2-0.3 c0.1,0.1,0.1,0.2,0.2,0.2c0-0.5-0.1-0.8,0.1-1.5c0.1-0.1,0.1-0.1,0.2-0.1c-0.1-0.2-0.1-0.3-0.2-0.1v0.2c-0.2,0-0.1-0.3-0.1-0.6 c0,0.1,0,0.3,0.1,0.3c-0.1-1.3,0.2-2.6,0.1-4c0,0.1,0.1,0.7,0.2,0.3c0.2-1.4-0.1-2.3-0.1-3.7c0.4,0-0.1,1.5,0.3,1.6 c0-1.5,0-3.1-0.1-4.8c0.5-0.6-0.1-1.6,0.4-2.7c-0.2,0.1-0.2-0.4-0.2-1c0.1,0.2,0.2-0.4,0.3-0.2c-0.1-0.5-0.1-1.9,0.2-1.9 c-0.3-0.2,0.1-1.1-0.1-1.5c0.2-0.6,0-1.3,0.2-2.1c-0.2,0.3,0-0.8-0.1-1.1c0,0.1,0,0.2,0.1,0.2c0.1-0.1,0.1-0.3,0-0.5l1.9,0.1 c0,0.3,0.1,0.6,0,0.8s-0.2-0.1-0.2,0.3c0.1,0,0.2,1.2,0.1,1.6c0-0.2-0.1-0.2-0.1-0.3c0.1,2.1-0.3,4.3-0.1,6.4l-0.2-0.4 c-0.4,1.3,0.4,0.9,0.3,1.9v0.1h0.2c0.1,0.8,0,1.7,0.3,2.2c-0.4-0.2,0,1.8-0.4,1.2c0,0.4,0.2,0.9,0.3,1c-0.3,0-0.1,0.9-0.3,1.3 c0.2,0.2,0.1,0.8,0.2,1.2c0-0.2-0.1-0.3-0.2-0.2c0.1,0.4,0,0.3-0.1,0.7c0.1,0.6,0.2-0.1,0.4,0.2c-0.1,0.5-0.2,0.1-0.3,0.2l0.3,0.8 c0,0.2-0.1,0.3-0.2,0.3c0.1,0.3,0.2,0.5,0.1,0.9v-0.7l-0.2,0.3l0.2,0.8c-0.2,1.1-0.6,0.8-0.9,0.7l-0.1-0.5l-0.1,0.1 c0,1.2,0,2.5-0.4,3.1c0.1,1.2-0.3,2.1,0,3.6c-0.1,0.5-0.2-0.6-0.3,0.1l0.1,1.4v-0.1c0.3,1.3-0.6,3.5-0.4,5.2c0,0.2,0.1,0.3,0.1,0.4 c-0.1-0.3-0.2-0.2-0.3-0.1c0,0.1,0,0.1,0,0.2c0.1,0.1,0.1-0.1,0.2-0.2c0.1,1.4,0.1,1.8,0,2.9c0-0.2-0.1-0.3,0.1-0.6 c0,0.4,0.2,0.3,0.3,0.1L9.6,240l0.3,0.3c0.1-0.7-0.2-1.8,0.3-2.1v0.4c0.1,0,0.3-0.2,0.3-0.7c0-0.2-0.2-0.3-0.2-0.1l0.1-0.3 c0.2,0.2,0.1,1.1,0,1.6c-0.1-0.2,0-0.6-0.2-0.5c0,0.5,0,1,0,1.5c0-0.2-0.2-0.3-0.2-0.4c-0.2,0.5,0.1,0.4,0,0.8 c-0.1,0.1-0.2,0.2-0.2,0.1c0,0.5,0,0.9-0.2,1.4c0,0,0-0.6-0.2-0.3c0,1,0.2,1.2,0.1,2.3c0.1,0.7-0.1,1.3-0.3,1.9l0,0c0,0.4,0,0.7,0,1 c0,0,0,0.1,0,0.2l0,0c0,0.5,0,1.1,0,1.9H9.1c0.2,0.4-0.2,1.2-0.1,1.4c-0.1,0-0.1-0.2-0.2-0.2l0.1,0.6c0-0.2-0.2-0.3-0.3-0.3 c0,0.1,0,0.3,0,0.4c0.1,0.2,0.1-0.3,0.2,0L8.6,251v0.1c0.1,0.3,0.3,0.3,0.4-0.1c0,0.6,0,1.2,0,1.8c0.1,0,0.3,0,0.4,0.1 c0.4-0.1,0.8-0.1,1.2-0.2c0.4-0.1,0.7-0.1,1.1-0.2c0.7-0.1,1.5-0.3,2.4-0.3l0,0c0.6,0,1.8,0.1,1.8,0.4c1.3-0.1,2.1-0.6,3.7-0.4 l-0.3,0.1c0.4,0.1,1-0.1,1.2-0.1c0.1,0,0,0.1,0,0.1c0.4,0.1,0.6-0.1,0.9-0.1l-0.1,0.1c1.2,0.2,3.2-0.2,4.7,0c-0.3,0-0.1,0.2,0,0.2 c0.7-0.3,2.4-0.2,3.1-0.2l-0.4,0.1c1.3-0.2,1.1,0.4,2.4,0.3l-0.7-0.2c0.5,0.1,1,0,0.8-0.1c0.6,0.2,0.1,0.3,1,0.4 c0,0.1-0.7,0-0.4,0.2l1.2,0.3l0,0h0.1H33c0,0,0.2,0,0.6,0c-0.1-0.5,1,0,0.4-0.4c1.8,0.1,3.3,0.5,4.8,0.4c0,0,0,0,0.1,0 c1.1,0,2.3,0.1,3.4,0.1v0.2c0.3,0,0.7-0.1,1-0.1L43,254c0.4,0,0.5-0.1,0.7-0.1h0.6c-0.3,0.1-0.4,0.1-0.5,0.3c0.6,0,1.4,0,1.6-0.2 l0,0c0.8,0.1,2.4,0.2,2.4,0.3c0.8-0.1,1.9,0.1,1.9-0.1c0.5,0,1.3,0.4,1.7,0.1c0.6,0.2,0,0.1-0.2,0.3c0.6,0.2,1.2-0.2,1.4,0.2 c0.7-0.1-0.2-0.1,0.1-0.2c0.1,0.4,1.3,0.1,1.9,0.4c0.3-0.1-0.3-0.1,0.2-0.2c-0.1,0.1,0.2,0.1,0.3,0.1l0.1-0.2l0.6,0.6 c1-0.2-0.2-0.4,1.1-0.4h-0.1c0.3,0.3,0.9-0.1,1.9,0.1c-0.3-0.1-0.1,0.1-0.2,0.2l0.5-0.1c0,0-0.1,0,0,0.1c0.5,0.2,0.4-0.1,0.9,0.1 c-0.4,0-0.3,0.2-0.1,0.3l0.8-0.2l-0.3,0.3c0.7,0.1,1.9-0.3,2.3,0.1L62.2,255.6c0.1,0,0.3,0.3,0.8,0.2c0.2,0,0.3-0.2,0.1-0.2l0.4,0.1 c-0.2,0.2-1.1,0.2-1.7,0.2C61.8,255.8,62.3,255.7,62.2,255.6z M28.8,256C28.7,256,28.7,256,28.8,256C28.7,256,28.7,256,28.8,256 L28.8,256z M7.9,237.4c0,0.2,0,0.4,0,0.5c0-0.1,0-0.2,0.1-0.2C7.9,237.5,7.9,237.4,7.9,237.4z M13.9,256L13.9,256 C13.9,256.1,13.9,256.1,13.9,256L13.9,256z M9.1,244.5c0-0.1,0-0.1,0-0.2C9.1,244.4,9.1,244.4,9.1,244.5L9.1,244.5z M9.1,241.8 c0,0.1,0.1,0,0.2,0.1v-0.5c0,0,0,0.1,0,0s0.1-0.1,0.1-0.2C9.3,241,9.2,241.7,9.1,241.8z M9,241.9L9,241.9 C9.1,241.9,9.1,241.9,9,241.9C9.1,241.9,9,241.9,9,241.9z M8.6,257.9v-0.1H8.5L8.6,257.9C8.5,257.9,8.5,257.9,8.6,257.9z M8.7,257.8 C8.6,257.8,8.6,257.8,8.7,257.8c-0.1,0.1-0.1,0.1-0.1,0.2C8.7,257.9,8.7,257.8,8.7,257.8z M13.5,256.1c-1.2,0.1-2.4-0.1-3.6-0.1 l-0.2-0.3c-0.2,0-0.3,0-0.5,0c-0.2,0.1-0.4,0.2-0.6,0.3c0,0.2,0,0.4-0.1,0.6c0.3,0,0.9-0.1,1.2-0.2l-0.2-0.1 c1.4-0.5,2.3,0.1,3.4-0.2L13.5,256.1z M27.9,256.1c0.3,0,0.5,0,0.7,0l0,0c0,0,0.1,0,0.2,0l0,0l0,0l0,0h-0.1c0,0,0.1,0,0.1-0.1 C28.4,256,28.2,256,27.9,256.1z M28,256.3h0.3C28.1,256.3,28.1,256.3,28,256.3L28,256.3C27.9,256.3,27.9,256.3,28,256.3z M44.3,254.8c0,0,0,0,0.1,0.1C44.4,254.8,44.3,254.8,44.3,254.8z M47.9,255l0.5,0.1C48.2,255,48.1,255,47.9,255z M50.7,255.2 C50.8,255.1,50.8,255.1,50.7,255.2L50.7,255.2L50.7,255.2z M63,256L63,256L63,256L63,256z M63.2,256c-0.1,0-0.1,0-0.2,0H63.2z M63.5,255.9h-0.3C63.3,256,63.4,256,63.5,255.9z M58,255.6c0.3,0,0.7,0.2,1,0.2v-0.1C58.9,255.8,58.3,255.5,58,255.6z M53.4,254.4 l0.9,0.1c-0.2-0.1-0.4-0.2,0.1-0.2C53.2,254,54.6,254.5,53.4,254.4z M50.5,254c-0.3,0.1-0.4,0.1,0,0.2C51,254.1,50.4,254,50.5,254z M0.7,253.9l-0.6,0.2h0.3L0.7,253.9z" fill="#202020"/></g></svg>