<?xml version="1.0" encoding="UTF-8"?><svg xmlns="http://www.w3.org/2000/svg" xmlns:xlink="http://www.w3.org/1999/xlink" height="476.5" preserveAspectRatio="xMidYMid meet" version="1.0" viewBox="-0.1 -0.1 478.2 476.5" width="478.2" zoomAndPan="magnify"><g id="change1_1"><path d="M15.8791,327.3393c-0.1496-0.5349-0.6835-0.8655-1.2207-0.6677c-0.5934,0.2185-0.8661,0.9292-1.1215,1.451 c-0.3098,0.6332-0.5881,1.2831-0.835,1.9434c-0.2904,0.7767-0.5289,1.5681-0.7209,2.3707 c-0.6429-3.4531-1.9794-6.7102-3.2934-9.9789c0-1.6924,0-3.3849,0-5.0774c0-6.3768,0-12.7535,0-19.1302 c1.0407-3.023,2.0389-6.067,2.4243-9.2462c0.0037-0.0307,0.0035-0.0608,0.007-0.0915c0.0487-0.0399,0.0925-0.0927,0.1273-0.1627 c1.5269-3.0723,2.4438-6.4159,2.6589-9.8423c0.0351-0.5588,0.1208-1.2626-0.3083-1.7062c-0.5041-0.5211-1.1837-0.1934-1.6121,0.2431 c-0.9908,1.0095-1.2017,2.485-1.2915,3.8347c-0.0066,0.0991-0.0103,0.1985-0.0167,0.2976c-0.4857-2.3152-1.2182-4.59-1.989-6.8608 c0-7.104,0-14.208,0-21.312c0-0.298,0-0.5959,0-0.8939c0-0.3846,0-0.7692,0-1.1537c1.5425-3.0898,2.9631-6.2479,3.528-9.6851 c0.6554-3.9882,0.1617-8.0234-1.4188-11.7365c-0.6475-1.5209-1.3867-2.9915-2.1092-4.4667c0-7.8831,0-15.7662,0-23.6492 c0-0.2153,0-0.4307,0-0.6461c0.7773-2.1938,1.5105-4.3795,1.9841-6.5617c0.0706,1.3105,0.1846,2.7185,0.9761,3.8083 c0.3438,0.4733,0.898,1.0626,1.5464,0.8877c0.5665-0.1529,0.7332-0.7698,0.7415-1.2876c0.0269-1.6685-0.3002-3.4258-0.6883-5.041 c-0.4544-1.8918-1.1357-3.7209-2.0012-5.4624c-0.0494-0.0995-0.119-0.1569-0.194-0.197c-0.2383-2.1617-0.7479-4.2977-1.4225-6.4445 c-0.2959-0.9416-0.6169-1.8802-0.9422-2.8193c0-1.8258,0-3.6516,0-5.4774c0-6.285,0-12.5701,0-18.8552 c1.0734-2.6017,2.1797-5.1938,2.8633-7.8462c0.1785-0.6923,0.3145-1.3824,0.4285-2.0712c0.1437,0.6048,0.3088,1.2047,0.5092,1.7958 c0.2349,0.693,0.5074,1.3735,0.8109,2.0392c0.2625,0.5759,0.521,1.298,1.0016,1.7315c0.4041,0.3645,1.0078,0.3853,1.3712-0.0458 c0.3787-0.4492,0.2574-1.0975,0.1835-1.6273c-0.1857-1.332-0.5577-2.6215-1.0891-3.8561c-0.609-1.4149-1.4407-2.7142-2.4457-3.8801 c-0.0044-0.0051-0.0097-0.006-0.0142-0.0109c0.0336-4.9195-1.3387-9.7311-3.3217-14.3839c-0.094-0.2206-0.2015-0.4349-0.2976-0.6545 c0-1.6276,0-3.2553,0-4.883c0-0.854,0-1.708,0-2.562c0-0.6434-1-0.6445-1,0c0,1.7485,0,3.4971,0,5.2456 c-0.6246-1.3212-1.2696-2.6328-1.9409-3.931c-0.2957-0.5718-1.1589-0.0667-0.8635,0.5047c0.9623,1.8609,1.9241,3.7796,2.8044,5.7439 c0,5.3868,0,10.7736,0,16.1605c0,4.098,0,8.196,0,12.2941c-1.2014,2.9125-2.3616,5.8366-2.8845,8.9447 c-0.1194,0.71-0.175,1.4124-0.204,2.1117c-0.0079,0.0219-0.0219,0.0364-0.0274,0.0609c-0.5417,2.414-1.0623,4.8448-1.2609,7.3155 c-0.0959,1.1935-0.1146,2.3989,0.0204,3.5903c0.1054,0.9304,0.1951,2.1361,1.1216,2.6289c0.251,0.1335,0.5266,0.0516,0.6841-0.1794 c0.8807-1.2918,0.9943-2.8788,0.9368-4.4183c0.4961,1.5684,1.061,3.129,1.6138,4.6913c0,6.6876,0,13.3751,0,20.0626 c0,0.997,0,1.994,0,2.991c-1.3099,3.757-2.7123,7.5043-3.1279,11.4271c-0.4466,4.2162,0.7836,8.1317,2.5541,11.9159 c0.187,0.3997,0.3796,0.7963,0.5738,1.1918c0,0.2188,0,0.4376,0,0.6564c0,8.1218,0,16.2436,0,24.3654c0,0.0644,0,0.1287,0,0.1931 c-1.0414,1.9703-2.1072,3.9528-2.6483,6.0819c-1.5386,6.0551,0.6567,11.9489,2.6483,17.7673c0,6.3477,0,12.6953,0,19.043 c0,1.3768,0,2.7536,0,4.1304c-0.5573,1.6144-1.124,3.2294-1.6222,4.8616c0.074-1.5992-0.0108-3.2659-0.9285-4.6121 c-0.1568-0.23-0.4313-0.3138-0.6841-0.1794c-0.9,0.4787-1.0006,1.6216-1.1094,2.5283c-0.147,1.2244-0.1313,2.4633-0.0327,3.6909 c0.1987,2.4707,0.7192,4.9015,1.2609,7.3155c0.0205,0.0913,0.0616,0.1586,0.111,0.2137c0.1481,2.3875,0.7481,4.6766,1.6029,7.0585 c0.4371,1.2179,0.9175,2.4222,1.402,3.6252c0,4.3031,0,8.6062,0,12.9093c0,5.2289,0,10.4578,0,15.6868 c-0.8724,1.9702-1.8148,3.9086-2.8044,5.8223c-0.2952,0.5708,0.5674,1.0771,0.8635,0.5047c0.6547-1.2659,1.3101-2.558,1.9409-3.8726 c0,1.7291,0,3.4581,0,5.1871c0,0.6434,1,0.6445,1,0c0-2.451,0-4.9022,0-7.3532c2.1512-4.8326,3.7883-9.943,3.683-15.2025 c1.7405-2.0401,2.9476-4.5191,3.4066-7.1671C15.8716,328.5302,16.0323,327.8869,15.8791,327.3393z M11.9563,279.5243 c0.0895-0.3187,0.2075-0.6271,0.3798-0.911c0.1179-0.1943,0.2567-0.3545,0.4119-0.5187c0.1439-0.1523,0.1241-0.1984,0.1798-0.0318 c0.107,0.3203-0.0189,0.8175-0.0434,1.1442c-0.0324,0.4321-0.0754,0.8635-0.1312,1.2933c-0.1144,0.881-0.2828,1.7558-0.4933,2.6187 c-0.2175,0.8914-0.4854,1.768-0.8009,2.6273c0.0688-1.3521,0.1365-2.7042,0.2103-4.056 C11.7089,280.9621,11.7581,280.2295,11.9563,279.5243z M12.7531,195.766c0.0516,0.3967,0.0921,0.7949,0.1237,1.1935 c0.0277,0.3499,0.1599,0.897,0.0509,1.244c-0.0502,0.1595,0.0396,0.1863-0.1798-0.0318c-0.1405-0.1396-0.2628-0.285-0.3697-0.4521 c-0.1938-0.3028-0.3246-0.6329-0.4219-0.9775c-0.1989-0.7048-0.2477-1.4382-0.2871-2.166 c-0.0732-1.3516-0.1412-2.7035-0.2102-4.0553c0.3152,0.8589,0.583,1.7354,0.8008,2.6265 C12.4707,194.01,12.6385,194.885,12.7531,195.766z M14.9103,148.1233c0.0129,0.1169,0.0312,0.2378,0.0264,0.3561 c0.002,0.0315-0.0073,0.0615-0.0111,0.0922c-0.1973-0.2247-0.3245-0.5289-0.4548-0.7903c-0.3354-0.6729-0.6321-1.3633-0.8869-2.0707 c-0.4297-1.1928-0.7443-2.4274-0.9449-3.6797C13.8561,143.848,14.6696,145.9543,14.9103,148.1233z M8.6876,144.396 c0-5.6718,0-11.3435,0-17.0153c1.8992,4.747,3.1326,9.7371,2.5414,14.8453c-0.3569,3.0839-1.3899,5.9719-2.5414,8.8253 C8.6876,148.8329,8.6876,146.6144,8.6876,144.396z M4.6082,176.8555c-0.1228-0.2747-0.1683-0.6047-0.2125-0.8797 c-0.0793-0.494-0.122-0.9937-0.1442-1.4933c-0.0475-1.0729,0.0087-2.1492,0.1198-3.2167c0.0853-0.819,0.2125-1.6322,0.3545-2.4431 c0.0808,1.0051,0.1624,2.0101,0.2413,3.0153C5.0947,173.4641,5.3117,175.329,4.6082,176.8555z M5.7382,167.4392 c-0.4957-3.9259,0.5575-7.6044,1.9494-11.2219c0,4.2787,0,8.5576,0,12.8363c0,2.0308,0,4.0616,0,6.0925 C6.8363,172.6241,6.0712,170.0765,5.7382,167.4392z M8.6876,181.1765c0.6992,2.1843,1.2719,4.3846,1.4842,6.6291 c0.3435,3.632-0.4181,7.0797-1.4842,10.4802C8.6876,192.5827,8.6876,186.8796,8.6876,181.1765z M5.9093,218.5335 c-1.2623-4.9286,0.114-9.7567,1.7783-14.5359c0,6.4545,0,12.9089,0,19.3633C6.9783,221.8062,6.341,220.2193,5.9093,218.5335z M8.6876,229.6805c0-0.6115,0-1.2231,0-1.8346c1.1395,2.3192,2.1934,4.6591,2.5931,7.2698 c0.695,4.5391-0.3311,8.9885-2.1929,13.1245c-0.1268,0.2818-0.2635,0.562-0.4002,0.8421 C8.6876,242.615,8.6876,236.1477,8.6876,229.6805z M5.6673,263.3789c-0.2236-2.0994-0.1593-4.2718,0.4216-6.3118 c0.3705-1.3016,0.9832-2.5273,1.5988-3.7334c0,0.0235,0,0.0469,0,0.0704c0,6.1162,0,12.2325,0,18.3487 C6.7796,269.0066,5.9718,266.2389,5.6673,263.3789z M9.7556,281.9699c0.9136,4.5085,0.2884,8.7383-1.0681,13.0803 c0-5.708,0-11.416,0-17.1239C9.1071,279.277,9.4831,280.6247,9.7556,281.9699z M4.2515,301.7838 c0.0222-0.4997,0.0648-0.9994,0.1442-1.4933c0.0442-0.275,0.0897-0.605,0.2125-0.8797c0.7036,1.5264,0.4868,3.3915,0.3589,5.0175 c-0.079,1.0052-0.1605,2.0103-0.2413,3.0153c-0.142-0.8108-0.2692-1.624-0.3545-2.4431 C4.2602,303.933,4.204,302.8568,4.2515,301.7838z M6.0166,314.7558c-1.0685-4.3159,0.0851-8.715,1.4236-12.8342 c0.0803-0.2469,0.1649-0.4933,0.2473-0.74c0,6.2459,0,12.4916,0,18.7375C7.0421,318.2251,6.4518,316.5136,6.0166,314.7558z M11.2768,338.9818c-0.3152,3.3854-1.3277,6.6809-2.5892,9.8365c0-7.9124,0-15.8248,0-23.7372 c0.5457,1.3875,1.0731,2.781,1.5109,4.2038C11.1674,332.4333,11.5827,335.6952,11.2768,338.9818z M14.9103,328.143 c-0.2407,2.1691-1.0542,4.2753-2.2715,6.0925c0.2005-1.2523,0.515-2.4873,0.9451-3.6799c0.255-0.7072,0.5512-1.398,0.8869-2.0707 c0.1298-0.2601,0.2597-0.5701,0.4572-0.7936c0.0012,0.014,0.0069,0.0274,0.0064,0.0417 C14.9184,327.8667,14.9253,328.0077,14.9103,328.143z M16.2688,380.9956c0-0.0001-0.0001,0-0.0001-0.0001 c-0.0001,0.0007-0.0001,0.001-0.0002,0.0017c0.0001,0.0002,0.0001,0.0004,0.0001,0.0005 C16.2686,380.9971,16.2687,380.9964,16.2688,380.9956z M6.0108,439.1988c0-3.8846,0-7.7692,0-11.6538c0-0.6434-1-0.6445-1,0 c0,3.8846,0,7.7692,0,11.6538C5.0108,439.8423,6.0108,439.8433,6.0108,439.1988z M10.4949,400.4182c0,4.1457,0,8.2914,0,12.4372 c0,0.6434,1,0.6445,1,0c0-4.1458,0-8.2915,0-12.4372C11.4949,399.7747,10.4949,399.7737,10.4949,400.4182z M10.1685,261.3893 c0,2.568,0,5.1359,0,7.7039c0,0.6434,1,0.6445,1,0c0-2.568,0-5.1359,0-7.7039C11.1685,260.7458,10.1685,260.7447,10.1685,261.3893z M10.1685,308.5266c0,2.5679,0,5.1359,0,7.7039c0,0.6435,1,0.6445,1,0c0-2.5679,0-5.1359,0-7.7039 C11.1685,307.8831,10.1685,307.882,10.1685,308.5266z M6.3372,340.6479c0-2.655,0-5.31,0-7.965c0-0.6434-1-0.6445-1,0 c0,2.655,0,5.31,0,7.965C5.3372,341.2913,6.3372,341.2924,6.3372,340.6479z M11.9966,356.1862c0,4.7007,0,9.4014,0,14.1021 c0,0.6434,1,0.6445,1,0c0-4.7007,0-9.4014,0-14.1021C12.9966,355.5428,11.9966,355.5417,11.9966,356.1862z M4.4232,373.6831 c0,4.1349,0,8.2697,0,12.4045c0,0.6435,1,0.6445,1,0c0-4.1348,0-8.2697,0-12.4045C5.4232,373.0397,4.4232,373.0386,4.4232,373.6831z M111.1357,467.7092c-8.5515,0-17.103,0-25.6544,0c2.7755-1.2559,5.4401-2.8087,7.9103-4.5582 c0.7911-0.5602,3.8986-2.5809,2.5024-3.8793c-0.7747-0.7203-2.0698,0.1508-2.749,0.5875c-2.2269,1.4318-4.2341,3.2466-6.2181,4.9873 c-0.8018,0.7035-1.5975,1.414-2.3901,2.1278c-0.0269,0.0243-0.0373,0.0516-0.057,0.0773c-0.5323,0.2319-1.0693,0.4508-1.6104,0.6576 c-3.965,0-7.9301,0-11.8951,0c-3.7064,0-7.4127,0-11.1191,0c-0.0654-0.0243-0.1311-0.0477-0.1964-0.072 c-1.912-0.7133-3.8256-1.4456-5.8159-1.9142c-0.4252-0.1001-0.8534-0.1873-1.2836-0.2635c1.3054-0.233,2.6028-0.5521,3.8311-1.0386 c0.6838-0.2709,1.4582-0.5771,1.9485-1.1485c0.5618-0.6547,0.4646-1.5237-0.3148-1.9495c-1.8582-1.015-4.2072-0.092-5.9181,0.7761 c-1.89,0.9589-3.7346,2.1782-5.7374,2.8861c-0.0034,0.0012-0.0051,0.0038-0.0085,0.0051c-0.0974,0.0239-0.1769,0.0692-0.2317,0.1378 c-2.7708,0.1624-5.5224,0.661-8.2243,1.2736c-1.7511,0.397-3.5032,0.8524-5.2599,1.3077c-0.6105,0-1.221,0-1.8315,0 c-7.4185,0-14.837,0-22.2556,0c0-8.0411,0-16.0822,0-24.1233c0.22-0.8528,0.4394-1.7027,0.6508-2.5489 c0.8758-3.5048,1.668-7.0547,1.9146-10.6676c0.0067-0.0986,0.0071-0.1964,0.0129-0.2949c0.0701-0.055,0.1167-0.1349,0.1408-0.2337 c0.0013-0.0034,0.0038-0.005,0.0051-0.0084c0.6071-1.7176,1.6197-3.3083,2.4609-4.9189c0.9706-1.8583,2.0443-3.9487,1.4432-6.1032 c-0.2162-0.7751-0.7737-1.5754-1.6872-1.2546c-0.7451,0.2617-1.1434,1.0786-1.4422,1.7525 c-0.6303,1.4217-0.9986,2.9524-1.2679,4.482c-0.2551-1.4888-0.627-2.9626-1.1282-4.4218c-0.3568-1.0389-0.7337-2.0659-1.1027-3.0922 c0-7.6469,0-15.2938,0-22.9407c0.2133-0.5487,0.4398-1.0914,0.6776-1.6291c0.0188-0.0159,0.0394-0.0223,0.0573-0.0422 c2.1846-2.426,4.3947-4.8629,6.3369-7.4916c0.6158-0.8334,1.7913-2.1786,1.6146-3.325c-0.068-0.4409-0.3906-0.7766-0.8364-0.8457 c-0.817-0.1268-1.5518,0.6592-2.04,1.2042c-1.0695,1.1936-1.9403,2.5744-2.7762,3.9357c-1.0838,1.7649-2.1144,3.5664-2.9789,5.4499 c-0.019,0.0414-0.0358,0.0839-0.0547,0.1254c0-0.9839,0-1.9679,0-2.9519c0-7.5667,0-15.1333,0-22.7c0-0.6434-1-0.6445-1,0 c0,9.3552,0,18.7105,0,28.0657c-0.9396,2.4993-1.6149,5.0931-1.9749,7.7214c-0.1084-0.4789-0.2338-0.9542-0.3777-1.4243 c-0.2923-0.9542-0.6573-1.8869-1.0844-2.7888c-0.395-0.8342-0.8227-1.7623-1.4379-2.4605c-0.4737-0.5376-1.2893-0.8669-1.9553-0.46 c-0.6805,0.4158-0.7473,1.3576-0.71,2.0695c0.1068,2.0413,1.2575,3.77,2.3812,5.3995c1.317,1.9096,2.3497,3.9034,2.9691,6.1419 c0.1606,2.2012,0.5619,4.3914,1.2532,6.5342c0.2927,0.9073,0.6132,1.8029,0.9368,2.6957c0,8.9577,0,17.9154,0,26.8731 c-1.4272,5.516-2.8417,11.0742-2.5028,16.7879c0.0551,0.9295,0.1633,1.8542,0.312,2.7733c0.1025,0.6336,1.0663,0.3647,0.9642-0.2659 c-0.825-5.0999,0.0345-10.1764,1.2266-15.1646c0,6.8229,0,13.646,0,20.4689c-1.022,0.5947-1.9902,1.2794-2.8882,2.049 c-0.4496,0.3853-0.881,0.7921-1.2917,1.2186c-0.4205,0.4366-0.8704,0.8956-1.1214,1.4556c-0.2344,0.523-0.334,1.2855,0.1486,1.7045 c0.4598,0.3992,1.1558,0.118,1.6268-0.1117c1.0346-0.5044,1.803-1.4615,2.4832-2.3598c0.7678-1.0142,1.3896-2.118,1.9021-3.2791 c6.7543,0,13.5085,0,20.2628,0c-4.1093,0.9839-8.2587,1.7332-12.4954,1.514c-0.9085-0.047-1.8126-0.1423-2.7106-0.2875 c-0.6296-0.1018-0.9005,0.8616-0.2659,0.9643c6.6147,1.07,13.1276-0.5522,19.5233-2.1908c5.1812,0,10.3625,0,15.5437,0 c3.8046,0,7.6093,0,11.414,0c1.8539,0.6876,3.7209,1.3428,5.6624,1.7395c1.2015,0.2455,2.4203,0.4006,3.644,0.4866 c1.8708,0.5295,3.6299,1.3318,5.252,2.4103c1.7141,1.1397,3.3998,2.4968,5.4933,2.8287c0.7387,0.1171,1.6816,0.1939,2.3449-0.2333 c0.6611-0.4258,0.7147-1.2994,0.3186-1.9265c-0.4562-0.7224-1.4232-1.1443-2.1512-1.5249c-0.8514-0.4451-1.7372-0.8292-2.6424-1.151 c-0.7349-0.2613-1.4878-0.4614-2.2469-0.634c2.5731-0.3585,5.1072-1.0154,7.5361-1.9225c0.0592-0.0221,0.1165-0.0505,0.1755-0.0729 c1.787,0,3.5742,0,5.3612,0c7.5667,0,15.1333,0,22.7,0C111.7791,468.7092,111.7802,467.7092,111.1357,467.7092z M12.397,421.2735 c0.1868-0.6208,0.4014-1.2377,0.6898-1.8193c0.132-0.2661,0.295-0.6616,0.5494-0.8308c0.5243-0.3488,0.6567,0.6511,0.6971,1.0172 c0.212,1.9206-0.8958,3.6797-1.7371,5.3141c-0.407,0.7907-0.8504,1.5695-1.2646,2.3617 C11.4519,425.2671,11.8155,423.2061,12.397,421.2735z M16.2679,380.9926C16.2674,380.9843,16.2683,380.9806,16.2679,380.9926 L16.2679,380.9926z M12.2847,385.9243c0.8088-1.3317,1.6426-2.6868,2.6642-3.869c0.2889-0.3342,0.6046-0.7056,0.9874-0.937 c0.0806-0.0488,0.2071-0.1154,0.2637-0.1298c0.0516-0.0132,0.0617-0.002,0.0676,0.0067c-0.0002,0.0059-0.0002,0.0104-0.002,0.0253 c0.0017-0.0145,0.0016-0.014,0.0027-0.0233c-0.0002-0.0006-0.0002-0.0012-0.0002-0.0019c0.0001,0.0001,0.0003,0.0001,0.0004,0.0002 c0.0055-0.0464,0.0045-0.0364,0.0001,0.0001c0.003,0.0042,0.0049,0.0107,0.0121,0.0051c-0.0078,0.0062-0.0108,0.0026-0.0123-0.0029 c-0.0035,0.0302-0.0082,0.0676-0.0115,0.0911c-0.0038,0.0231-0.0159,0.09-0.0384,0.1595c-0.1482,0.4579-0.4423,0.9484-0.7449,1.4099 c-1.3419,2.047-2.9955,3.9048-4.6129,5.7402C11.3136,387.5643,11.7892,386.7401,12.2847,385.9243z M1.0103,395.571 c-0.003-0.4489,0.0669-1.4052,0.7774-0.8783c0.3639,0.2698,0.5892,0.7929,0.8091,1.1802c0.5593,0.9849,1.0304,2.0184,1.4033,3.088 c0.5233,1.5005,0.8536,3.0508,0.9998,4.6248c-0.3462-0.6992-0.7209-1.3849-1.1516-2.0394 C2.6557,399.734,1.0255,397.8623,1.0103,395.571z M6.3759,407.8664c-0.0096-0.1012-0.0125-0.2026-0.0209-0.3039 c0.0438-0.0927,0.0653-0.1998,0.0316-0.3268c-0.0203-0.0763-0.0485-0.1499-0.0696-0.2259c-0.2241-3.524,0.2102-7.068,1.1605-10.4663 c0.0247-0.0882,0.0542-0.1741,0.0796-0.262c0,2.9818,0,5.9635,0,8.9453c0,2.7017,0,5.4034,0,8.1052 C7.0028,411.5598,6.555,409.7583,6.3759,407.8664z M8.557,427.9268c0-2.8528,0-5.7055,0-8.5583 c0.7399,2.1573,1.3674,4.342,1.5547,6.6652c0.3086,3.8287-0.2568,7.656-1.0756,11.3889c-0.1505,0.686-0.3127,1.3722-0.4791,2.0585 C8.557,435.6296,8.557,431.7782,8.557,427.9268z M6.1559,470.7763c-0.5307,0.7877-1.1291,1.5724-1.8522,2.1944 c-0.3279,0.2821-0.71,0.5259-1.1278,0.6477c-0.0329,0.0096-0.0719,0.0129-0.1063,0.0168c-0.005-0.0248-0.0096-0.0502-0.0095-0.0717 c0.0015-0.2377,0.124-0.4599,0.2495-0.6545c0.2584-0.401,0.6178-0.7462,0.9519-1.0836c0.3571-0.3607,0.7289-0.7067,1.1144-1.037 c0.4612-0.3952,0.946-0.7597,1.4449-1.1041C6.6111,470.0558,6.3936,470.4232,6.1559,470.7763z M95.2091,459.9981 C95.2212,459.9977,95.2176,459.9986,95.2091,459.9981L95.2091,459.9981z M92.4428,461.5678 c0.6171-0.4594,1.2501-0.9163,1.933-1.2745c0.2429-0.1274,0.3359-0.1678,0.5767-0.2458c0.0463-0.015,0.1417-0.0346,0.1652-0.04 c0.0258-0.0037,0.0556-0.0074,0.0831-0.0104c-0.0039-0.0018-0.0056-0.0053-0.0005-0.0117c-0.0063,0.0081,0.0007,0.009,0.0045,0.0113 c0.0369-0.0042,0.045-0.0046,0.0003,0.0008c0.0001,0.0001-0.0001,0.0001,0.0001,0.0002c-0.0004-0.0001-0.0006-0.0001-0.0009-0.0001 c-0.0095,0.0012-0.0083,0.0012-0.0238,0.0029c0.0147-0.0017,0.019-0.0017,0.025-0.002c0.0092,0.005,0.0217,0.0151,0.0074,0.0797 c-0.0019,0.0084-0.0887,0.183-0.1303,0.2518c-0.5588,0.9241-1.6851,1.6107-2.5504,2.2051 c-1.5612,1.0724-3.1877,2.0782-4.8677,2.9819C89.213,464.1455,90.7874,462.8,92.4428,461.5678z M55.7454,461.9237 c0.4639-0.0346,0.9306-0.0037,1.3794,0.1215c0.1962,0.0547,0.6024,0.1382,0.5703,0.4199c-0.0201,0.176-0.3623,0.3831-0.4911,0.4652 c-0.5188,0.3309-1.1149,0.5544-1.6943,0.7523c-1.3951,0.4766-2.853,0.7751-4.3094,0.9896 c-0.7621,0.1122-1.5322,0.2003-2.3043,0.2538c0.6113-0.3208,1.215-0.6573,1.8212-0.9798 C52.2775,463.1162,53.942,462.058,55.7454,461.9237z M36.7119,467.7092c3.4902-0.843,7.0344-1.5572,10.6337-1.6339 c1.9474-0.0415,3.8991,0.1055,5.8051,0.5159c1.2927,0.2784,2.5508,0.6797,3.7966,1.118 C50.2021,467.7092,43.457,467.7092,36.7119,467.7092z M80.3281,473.6694c0.3845,0.218,0.9106,0.4455,1.1802,0.809 c0.5272,0.711-0.4244,0.7805-0.8783,0.7775c-2.2916-0.0151-4.1628-1.6459-5.9752-2.838c-0.655-0.4308-1.341-0.8057-2.0405-1.152 c1.5745,0.1459,3.1257,0.476,4.6259,1.0001C78.3098,472.6397,79.3425,473.1104,80.3281,473.6694z M71.1047,470.0157 c-0.6386,0.0018-1.2764-0.0254-1.9133-0.0663c-0.0761-0.0212-0.1498-0.0494-0.2262-0.0697c-0.1248-0.0331-0.23-0.0123-0.3218,0.0297 c-1.0869-0.0917-2.1686-0.241-3.2367-0.4688c-0.9122-0.1945-1.8071-0.4489-2.6935-0.7314c5.7355,0,11.4711,0,17.2066,0 C77.055,469.534,74.0895,470.0071,71.1047,470.0157z M95.2042,459.9975c0.0003,0,0.0005,0,0.0009-0.0001 c-0.0003-0.0002-0.0001-0.0006-0.0003-0.0008c-0.0012,0.0001-0.0027,0.0002-0.004,0.0004 C95.2018,459.9976,95.203,459.9973,95.2042,459.9975z M48.6559,470.2554c-3.8846,0-7.7692,0-11.6538,0c-0.6434,0-0.6445,1,0,1 c3.8846,0,7.7692,0,11.6538,0C49.2993,471.2554,49.3004,470.2554,48.6559,470.2554z M63.3455,464.7713c-0.6434,0-0.6445,1,0,1 c4.1458,0,8.2914,0,12.4372,0c0.6435,0,0.6445-1,0-1C71.6369,464.7713,67.4912,464.7713,63.3455,464.7713z M207.1078,465.0977 c-0.6434,0-0.6445,1,0,1c2.568,0,5.1359,0,7.7039,0c0.6434,0,0.6445-1,0-1C212.2437,465.0977,209.6758,465.0977,207.1078,465.0977z M159.9705,465.0977c-0.6435,0-0.6445,1,0,1c2.5679,0,5.1359,0,7.7039,0c0.6434,0,0.6445-1,0-1 C165.1064,465.0977,162.5384,465.0977,159.9705,465.0977z M143.5181,469.9289c-2.655,0-5.31,0-7.965,0c-0.6434,0-0.6445,1,0,1 c2.655,0,5.31,0,7.965,0C144.1615,470.9289,144.1626,469.9289,143.5181,469.9289z M105.9127,463.2697c-0.6434,0-0.6445,1,0,1 c4.7007,0,9.4014,0,14.1021,0c0.6434,0,0.6445-1,0-1C115.3141,463.2697,110.6134,463.2697,105.9127,463.2697z M102.5178,470.843 c-4.1349,0-8.2697,0-12.4045,0c-0.6435,0-0.6445,1,0,1c4.1348,0,8.2697,0,12.4045,0 C103.1612,471.843,103.1623,470.843,102.5178,470.843z M461.7686,380.9967c0-0.0004,0-0.0005-0.0001-0.0009 c-0.0002,0.0003-0.0006,0-0.0008,0.0003c0.0001,0.0012,0.0002,0.0027,0.0004,0.004 C461.7687,380.9992,461.7684,380.998,461.7686,380.9967z M477.9455,396.461c0.1171-0.7387,0.1939-1.6816-0.2333-2.3449 c-0.4258-0.6611-1.2994-0.7147-1.9265-0.3187c-0.7224,0.4562-1.1443,1.4233-1.5249,2.1512 c-0.4451,0.8514-0.8292,1.7372-1.151,2.6424c-0.2613,0.7349-0.4614,1.4878-0.634,2.2469c-0.3585-2.5731-1.0154-5.1072-1.9225-7.5361 c-0.0221-0.0591-0.0505-0.1165-0.0729-0.1755c0-1.787,0-3.5742,0-5.3612c0-7.5667,0-15.1333,0-22.7c0-0.6434-1-0.6445-1,0 c0,8.5515,0,17.1031,0,25.6546c-1.2559-2.7755-2.8087-5.4402-4.5582-7.9105c-0.5602-0.7911-2.581-3.8986-3.8793-2.5024 c-0.7203,0.7747,0.1508,2.0698,0.5875,2.749c1.4318,2.2269,3.2466,4.2341,4.9873,6.2181c0.7035,0.8018,1.414,1.5975,2.1278,2.3901 c0.0243,0.027,0.0516,0.0374,0.0773,0.0571c0.2319,0.5323,0.4508,1.0692,0.6576,1.6104c0,3.965,0,7.9301,0,11.8951 c0,3.7064,0,7.4127,0,11.1191c-0.0243,0.0654-0.0477,0.1311-0.072,0.1964c-0.7133,1.912-1.4456,3.8256-1.9142,5.8159 c-0.1001,0.4251-0.1874,0.8532-0.2636,1.2834c-0.233-1.3053-0.552-2.6027-1.0386-3.8309c-0.2709-0.6838-0.5771-1.4582-1.1485-1.9485 c-0.6547-0.5618-1.5237-0.4646-1.9495,0.3148c-1.015,1.8582-0.092,4.2072,0.7761,5.9181c0.9589,1.89,2.1782,3.7346,2.886,5.7374 c0.0012,0.0035,0.0038,0.0052,0.0051,0.0086c0.0239,0.0974,0.0692,0.1768,0.1378,0.2316c0.1624,2.7708,0.661,5.5224,1.2736,8.2243 c0.397,1.7511,0.8524,3.5032,1.3077,5.2598c0,0.6105,0,1.2211,0,1.8316c0,7.4402,0,14.8806,0,22.3209c-8.0192,0-16.0385,0-24.0578,0 c-0.8529-0.2201-1.7029-0.4394-2.5491-0.6509c-3.5048-0.8757-7.0547-1.668-10.6675-1.9146 c-0.0987-0.0067-0.1964-0.0071-0.2949-0.0129c-0.0549-0.0701-0.1348-0.1166-0.2338-0.1408c-0.0034-0.0012-0.005-0.0038-0.0084-0.005 c-1.7176-0.6071-3.3082-1.6197-4.9188-2.4609c-1.8584-0.9706-3.9488-2.0443-6.1033-1.4432 c-0.7751,0.2162-1.5754,0.7737-1.2545,1.6873c0.2617,0.745,1.0786,1.1434,1.7525,1.4422c1.4217,0.6303,2.9525,0.9987,4.4821,1.2679 c-1.4889,0.2552-2.9626,0.627-4.4219,1.1281c-1.0389,0.3568-2.0659,0.7338-3.0922,1.1028c-7.6469,0-15.2937,0-22.9406,0 c-0.5488-0.2134-1.0916-0.4399-1.6293-0.6777c-0.0159-0.0188-0.0222-0.0392-0.0422-0.0572 c-2.426-2.1846-4.8629-4.3947-7.4915-6.3369c-0.8334-0.6158-2.1786-1.7913-3.3251-1.6145 c-0.4409,0.0679-0.7765,0.3906-0.8457,0.8364c-0.1268,0.817,0.6592,1.5518,1.2042,2.04c1.1937,1.0694,2.5744,1.9402,3.9358,2.7762 c1.7648,1.0837,3.5663,2.1144,5.4499,2.9789c0.0415,0.019,0.084,0.0358,0.1255,0.0547c-0.984,0-1.9681,0-2.9521,0 c-7.5667,0-15.1334,0-22.7,0c-0.6435,0-0.6445,1,0,1c9.3553,0,18.7106,0,28.0659,0c2.4993,0.9395,5.093,1.6149,7.7213,1.9749 c-0.4789,0.1084-0.9542,0.2338-1.4243,0.3777c-0.9542,0.2922-1.8868,0.6573-2.7888,1.0844 c-0.8342,0.395-1.7623,0.8226-2.4605,1.4379c-0.5376,0.4737-0.8669,1.2893-0.46,1.9554c0.4158,0.6805,1.3577,0.7472,2.0695,0.71 c2.0413-0.1069,3.77-1.2575,5.3995-2.3813c1.9096-1.317,3.9034-2.3497,6.1419-2.9691c2.2012-0.1607,4.3914-0.5619,6.5342-1.2532 c0.9072-0.2927,1.8027-0.6132,2.6956-0.9367c8.9578,0,17.9157,0,26.8735,0c5.5159,1.4272,11.0739,2.8417,16.7876,2.5027 c0.9296-0.0551,1.8542-0.1633,2.7733-0.312c0.6337-0.1025,0.3647-1.0663-0.2658-0.9643c-5.0999,0.825-10.1763-0.0345-15.1644-1.2265 c6.743,0,13.4859,0,20.2289,0c0.4497,1.0191,0.9747,1.9985,1.6221,2.908c0.6659,0.9354,1.4164,1.9021,2.3955,2.5283 c0.4423,0.2828,1.0812,0.6072,1.6229,0.4915c0.6542-0.1398,0.7792-0.8809,0.6642-1.4413c-0.1215-0.5922-0.5299-1.0903-0.9263-1.5257 c-0.41-0.4504-0.843-0.8799-1.2955-1.2875c-0.9913-0.893-2.0784-1.679-3.2314-2.3498c0-6.837,0-13.674,0-20.511 c0.9839,4.1093,1.7332,8.2587,1.514,12.4955c-0.047,0.9085-0.1423,1.8126-0.2875,2.7106c-0.1019,0.6296,0.8616,0.9005,0.9643,0.2659 c1.07-6.6147-0.5522-13.1276-2.1908-19.5233c0-5.1812,0-10.3625,0-15.5437c0-3.8046,0-7.6093,0-11.414 c0.6876-1.8539,1.3428-3.7209,1.7395-5.6624c0.2455-1.2014,0.4005-2.4203,0.4866-3.6439c0.5295-1.8709,1.3318-3.6299,2.4103-5.2521 C476.2564,400.2403,477.6136,398.5545,477.9455,396.461z M421.2907,463.1794c-0.2661-0.132-0.6617-0.295-0.8309-0.5494 c-0.3487-0.5242,0.6511-0.6567,1.0172-0.6971c1.9206-0.212,3.6798,0.8957,5.3141,1.7371c0.7907,0.407,1.5695,0.8503,2.3617,1.2646 c-2.0493-0.1204-4.1102-0.4839-6.0428-1.0654C422.4891,463.6824,421.8722,463.4678,421.2907,463.1794z M382.829,459.9983 C382.8206,459.9988,382.817,459.9979,382.829,459.9983L382.829,459.9983z M383.8917,461.3172 c-0.3342-0.2888-0.7055-0.6046-0.937-0.9874c-0.0487-0.0806-0.1153-0.2072-0.1298-0.2637 c-0.0133-0.0518-0.0019-0.0617,0.0067-0.0677c0.0059,0.0002,0.0104,0.0002,0.0253,0.002c-0.0145-0.0016-0.014-0.0016-0.0233-0.0027 c-0.0006,0.0001-0.0012,0.0002-0.0019,0.0002c0.0002-0.0001,0.0001-0.0004,0.0002-0.0004 c-0.0465-0.0055-0.0364-0.0045,0.0001-0.0001c0.0041-0.0029,0.0107-0.0048,0.005-0.012c0.0062,0.0078,0.0026,0.0108-0.0029,0.0123 c0.0298,0.0035,0.0662,0.008,0.0898,0.0114c0.0219,0.0035,0.0903,0.0156,0.1609,0.0385c0.4579,0.1483,0.9484,0.4423,1.41,0.7449 c2.0469,1.3419,3.9048,2.9955,5.7402,4.6129c-0.8343-0.4527-1.6585-0.9283-2.4743-1.4238 C386.4289,463.1727,385.0739,462.3388,383.8917,461.3172z M397.4073,475.2559c-0.4488,0.0029-1.4052-0.067-0.8783-0.7775 c0.2699-0.3639,0.7929-0.5892,1.1802-0.809c0.9849-0.5593,2.0184-1.0304,3.088-1.4034c1.5006-0.5233,3.051-0.8536,4.625-0.9998 c-0.6993,0.3462-1.385,0.7209-2.0396,1.1517C401.5703,473.6104,399.6988,475.2408,397.4073,475.2559z M409.7028,469.8904 c-0.1012,0.0096-0.2026,0.0125-0.3038,0.0209c-0.0927-0.0438-0.1998-0.0653-0.3269-0.0316 c-0.0763,0.0203-0.1499,0.0485-0.2259,0.0696c-3.524,0.2241-7.068-0.2103-10.4663-1.1606c-0.0881-0.0247-0.174-0.0542-0.2618-0.0795 c2.9817,0,5.9634,0,8.9451,0c2.7017,0,5.4033,0,8.105,0C413.3961,469.2634,411.5946,469.7112,409.7028,469.8904z M429.7632,467.7092 c-2.8528,0-5.7056,0-8.5585,0c2.1574-0.7399,4.3422-1.3675,6.6653-1.5547c3.8287-0.3086,7.656,0.2568,11.3889,1.0755 c0.6862,0.1505,1.3723,0.3128,2.0587,0.4792C437.4662,467.7092,433.6147,467.7092,429.7632,467.7092z M474.5001,472.603 c0.1516,0.1803,0.2969,0.3804,0.3904,0.5978c0.0356,0.0828,0.07,0.1784,0.0821,0.2682c0.002,0.0148-0.002,0.1002-0.007,0.1726 c-0.0247-0.0045-0.0501-0.0083-0.0596-0.0109c-0.103-0.028-0.2068-0.0614-0.3053-0.1032c-0.2126-0.0903-0.4145-0.2156-0.6027-0.3485 c-0.7522-0.5313-1.3547-1.3235-1.8837-2.0665c-0.3317-0.466-0.6393-0.9512-0.92-1.4514 C472.4168,470.4958,473.5539,471.4779,474.5001,472.603z M461.7693,380.9918C461.7688,380.9798,461.7697,380.9834,461.7693,380.9918 L461.7693,380.9918z M463.3389,383.7581c-0.4594-0.6171-0.9163-1.2501-1.2745-1.933c-0.1274-0.2429-0.1678-0.3359-0.2458-0.5767 c-0.015-0.0462-0.0345-0.1412-0.0399-0.165c-0.0037-0.0258-0.0074-0.0557-0.0105-0.0833c-0.0018,0.0039-0.0054,0.0056-0.0118,0.0005 c0.0081,0.0064,0.0091-0.0007,0.0114-0.0045c-0.0042-0.0369-0.0046-0.045,0.0008-0.0003c0.0001-0.0001,0.0002,0.0001,0.0002-0.0001 c-0.0001,0.0004-0.0001,0.0006-0.0001,0.0009c0.0012,0.0095,0.0012,0.0083,0.0029,0.0238c-0.0017-0.0147-0.0017-0.019-0.002-0.025 c0.005-0.0092,0.0151-0.0217,0.0797-0.0074c0.0084,0.0019,0.183,0.0887,0.2518,0.1303c0.9241,0.5588,1.6107,1.6851,2.2051,2.5504 c1.0724,1.5613,2.0784,3.1879,2.9821,4.868C465.9168,386.9881,464.5712,385.4136,463.3389,383.7581z M463.6947,420.4555 c-0.0345-0.4639-0.0037-0.9306,0.1216-1.3794c0.0547-0.1962,0.1382-0.6024,0.4199-0.5703c0.176,0.0201,0.3831,0.3623,0.4652,0.4911 c0.3309,0.5188,0.5544,1.1149,0.7523,1.6943c0.4766,1.3951,0.7751,2.853,0.9895,4.3094c0.1122,0.7621,0.2003,1.5322,0.2539,2.3043 c-0.3208-0.6113-0.6573-1.215-0.9798-1.8212C464.8874,423.9234,463.8291,422.2589,463.6947,420.4555z M467.8464,428.8554 c-0.0414-1.9474,0.1055-3.8991,0.5159-5.8051c0.2784-1.2927,0.6796-2.5508,1.118-3.7965c0,6.7451,0,13.4902,0,20.2353 C468.6373,435.9988,467.9231,432.4547,467.8464,428.8554z M470.4803,413.4876c0-5.7355,0-11.4711,0-17.2066 c0.8248,2.8649,1.2979,5.8304,1.3065,8.8152c0.0018,0.6385-0.0254,1.2762-0.0663,1.913c-0.0212,0.0762-0.0495,0.15-0.0698,0.2264 c-0.0331,0.1248-0.0123,0.23,0.0298,0.3218c-0.0917,1.0869-0.241,2.1686-0.4688,3.2366 C471.0172,411.7063,470.7629,412.6013,470.4803,413.4876z M473.0371,403.5867c0.1459-1.5745,0.476-3.1257,1.0001-4.6259 c0.3737-1.0696,0.8444-2.1024,1.4034-3.088c0.218-0.3845,0.4455-0.9106,0.809-1.1802c0.7109-0.5272,0.7805,0.4244,0.7775,0.8783 c-0.0152,2.2916-1.6459,4.1628-2.838,5.9752C473.7581,402.2012,473.3834,402.8872,473.0371,403.5867z M472.0265,427.545 c0,3.8846,0,7.7692,0,11.6538c0,0.6434,1,0.6445,1,0c0-3.8846,0-7.7692,0-11.6538 C473.0265,426.9016,472.0265,426.9005,472.0265,427.545z M467.5424,412.8554c0-4.1458,0-8.2915,0-12.4372c0-0.6435-1-0.6445-1,0 c0,4.1457,0,8.2914,0,12.4372C466.5424,413.4989,467.5424,413.5,467.5424,412.8554z M474.7061,300.7569 c-0.1055-0.9304-0.1951-2.1361-1.1216-2.6289c-0.2511-0.1335-0.5267-0.0516-0.6841,0.1794 c-0.8737,1.2815-0.9926,2.8536-0.9384,4.3814c-0.4965-1.5696-1.0595-3.1323-1.6123-4.6956c0-7.3849,0-14.7698,0-22.1547 c0-0.3078,0-0.6155,0-0.9233c1.243-3.5974,2.5663-7.1868,3.0352-10.9205c0.5365-4.2718-0.5593-8.2527-2.2018-12.1747 c-0.2589-0.6181-0.543-1.2283-0.8334-1.8367c0-7.0154,0-14.0309,0-21.0463c0-0.5419,0-1.0837,0-1.6256 c1.0764-2.6816,2.1316-5.3723,2.6483-8.1622c1.0967-5.9212-0.8312-11.5385-2.6483-17.1525c0-0.2455,0-0.4911,0-0.7366 c0-7.6859,0-15.3718,0-23.0577c0.558-1.6194,1.1238-3.2404,1.6233-4.8783c-0.0759,1.6061,0.0053,3.2823,0.9274,4.6348 c0.1567,0.23,0.4313,0.3138,0.6841,0.1794c0.9-0.4787,1.0005-1.6216,1.1094-2.5283c0.147-1.2244,0.1313-2.4633,0.0327-3.6909 c-0.1987-2.4707-0.7192-4.9015-1.2609-7.3155c-0.0208-0.0924-0.0627-0.16-0.113-0.2154c-0.2392-3.7233-1.5803-7.2408-3.003-10.7451 c0-3.1308,0-6.2616,0-9.3924c0-6.3801,0-12.7603,0-19.1404c0.8723-1.9702,1.8148-3.9087,2.8044-5.8224 c0.2952-0.5708-0.5674-1.0771-0.8635-0.5047c-0.6544,1.2654-1.3099,2.5571-1.9409,3.8714c0-0.8679,0-1.7357,0-2.6035 c0-0.8608,0-1.7216,0-2.5825c0-0.6434-1-0.6445-1,0c0,2.4504,0,4.9009,0,7.3513c-2.1522,4.8322-3.7887,9.9432-3.6817,15.2028 c-1.7413,2.0403-2.9488,4.52-3.4078,7.1686c-0.0944,0.5447-0.2551,1.188-0.1019,1.7356c0.1497,0.5349,0.6835,0.8655,1.2207,0.6677 c0.5934-0.2185,0.8661-0.9292,1.1215-1.451c0.3098-0.6332,0.5881-1.2831,0.835-1.9434c0.2903-0.7764,0.5287-1.5674,0.7207-2.3698 c0.6439,3.4587,1.9788,6.7261,3.2936,10.0042c0,4.9614,0,9.9228,0,14.8842c0,3.1745,0,6.3489,0,9.5234 c-1.0211,2.9003-1.9953,5.7949-2.3843,8.7056c-0.0178,0.1334-0.0214,0.2647-0.0365,0.3978 c-0.053,0.0406-0.1005,0.0957-0.1378,0.1707c-1.5269,3.0723-2.4438,6.4159-2.6589,9.8423c-0.035,0.5588-0.1208,1.2626,0.3083,1.7062 c0.5041,0.5211,1.1837,0.1934,1.6121-0.2431c0.9908-1.0095,1.2017-2.485,1.2915-3.8347c0.0016-0.0239,0.0024-0.0479,0.004-0.0717 c0.4872,2.4309,1.2317,4.8245,2.0016,7.2166c0,7.8654,0,15.7309,0,23.5963c0,0.3965,0,0.793,0,1.1895 c-1.3344,3.3587-2.6823,6.7589-3.1273,10.3549c-0.4177,3.3744,0.2326,6.6458,1.6191,9.7224 c0.4951,1.0984,1.0075,2.1852,1.5082,3.275c0,0.7468,0,1.4935,0,2.2404c0,7.4283,0,14.8565,0,22.2848 c-0.7681,2.2443-1.499,4.5016-1.9864,6.8183c-0.0709-1.2986-0.1907-2.6884-0.9739-3.7667c-0.3438-0.4733-0.898-1.0626-1.5464-0.8877 c-0.5665,0.1529-0.7332,0.7698-0.7415,1.2876c-0.0269,1.6685,0.3002,3.4258,0.6883,5.041c0.4545,1.8918,1.1357,3.7209,2.0012,5.4624 c0.0526,0.1059,0.1277,0.1648,0.2085,0.2039c0.3774,3.0971,1.3328,6.0866,2.3502,9.0734c0,8.1862,0,16.3723,0,24.5585 c-1.1118,2.6794-2.2572,5.3473-2.9321,8.076c-0.148,0.5983-0.2623,1.1948-0.3618,1.7905c-0.1433-0.6019-0.3076-1.199-0.507-1.7873 c-0.2349-0.693-0.5074-1.3735-0.8109-2.0392c-0.2625-0.5759-0.521-1.298-1.0016-1.7315c-0.4041-0.3645-1.0077-0.3853-1.3712,0.0458 c-0.3787,0.4492-0.2574,1.0975-0.1835,1.6273c0.1857,1.332,0.5577,2.6215,1.0891,3.8561c0.609,1.4149,1.4407,2.7142,2.4457,3.8801 c0.0025,0.0029,0.0056,0.0034,0.0081,0.0062c-0.0353,4.9912,1.3862,9.8677,3.4041,14.5677c0.0701,0.1631,0.15,0.3217,0.2213,0.4843 c0,2.4787,0,4.9575,0,7.4362c0,0.6434,1,0.6445,1,0c0-1.7491,0-3.4982,0-5.2473c0.6248,1.3217,1.2693,2.634,1.9409,3.9327 c0.2957,0.5718,1.1589,0.0667,0.8635-0.5047c-0.9618-1.8599-1.9236-3.7782-2.8044-5.7424c0-9.5043,0-19.0087,0-28.513 c1.1492-2.8018,2.2645-5.6147,2.8318-8.5898c0.1548-0.8119,0.2253-1.6154,0.2592-2.4153c0.007-0.0201,0.0199-0.033,0.0249-0.0553 c0.5416-2.414,1.0622-4.8448,1.2609-7.3155C474.8225,303.1537,474.8412,301.9483,474.7061,300.7569z M473.7858,174.4825 c-0.0222,0.4997-0.0648,0.9994-0.1442,1.4933c-0.0442,0.275-0.0898,0.605-0.2125,0.8796c-0.7035-1.5264-0.4868-3.3915-0.3589-5.0175 c0.079-1.0052,0.1605-2.0103,0.2413-3.0153c0.142,0.8108,0.2692,1.624,0.3545,2.4431 C473.7771,172.3333,473.8333,173.4095,473.7858,174.4825z M464.4534,145.7106c-0.255,0.7072-0.5512,1.398-0.8869,2.0707 c-0.1298,0.2601-0.2597,0.5702-0.4572,0.7937c-0.0012-0.014-0.0069-0.0275-0.0064-0.0417c0.0161-0.1337,0.0091-0.2747,0.0241-0.41 c0.2406-2.1691,1.0542-4.2753,2.2714-6.0925C465.198,143.2831,464.8835,144.518,464.4534,145.7106z M467.7553,146.7059 c-1.9645-6.5917-0.8485-13.0141,1.5944-19.2401c0,4.5253,0,9.0507,0,13.576c0,3.3751,0,6.7502,0,10.1253 C468.7619,149.691,468.2033,148.2091,467.7553,146.7059z M470.3497,172.242c0-5.2883,0-10.5765,0-15.8647 c0.6091,1.5985,1.1709,3.2115,1.6019,4.8628c1.2551,4.8081-0.0111,9.49-1.6019,14.138 C470.3497,174.3327,470.3497,173.2874,470.3497,172.242z M466.081,196.742c-0.0895,0.3187-0.2075,0.6271-0.3797,0.911 c-0.1179,0.1943-0.2568,0.3545-0.4119,0.5187c-0.1439,0.1523-0.1241,0.1984-0.1798,0.0318 c-0.107-0.3203,0.0189-0.8175,0.0435-1.1442c0.0324-0.4321,0.0753-0.8635,0.1311-1.2933c0.1144-0.881,0.2828-1.7558,0.4933-2.6187 c0.2175-0.8914,0.4854-1.7681,0.8009-2.6273c-0.0688,1.3521-0.1365,2.7043-0.2103,4.0561 C466.3285,195.3042,466.2792,196.0367,466.081,196.742z M468.1537,193.8661c-0.7568-4.3641-0.0848-8.4658,1.196-12.626 c0,5.4989,0,10.9977,0,16.4966c0,0.3531,0,0.7063,0,1.0594C468.8661,197.1598,468.4403,195.519,468.1537,193.8661z M472.0863,212.4501c0.6009,4.2201-0.2869,7.9958-1.7366,11.8872c0-6.3539,0-12.7079,0-19.0618 C471.0834,207.6409,471.7404,210.0204,472.0863,212.4501z M467.471,242.9044c-1.0313-4.6299,0.2542-8.8716,1.8787-13.0681 c0,6.0228,0,12.0456,0,18.0684C468.5782,246.2896,467.8606,244.6535,467.471,242.9044z M470.3497,252.5191 c0.7621,1.7985,1.4297,3.6338,1.8582,5.5737c0.9581,4.3378-0.2147,8.7688-1.5622,12.8885c-0.0964,0.2948-0.197,0.589-0.296,0.8834 C470.3497,265.4162,470.3497,258.9676,470.3497,252.5191z M465.2841,280.5003c-0.0516-0.3967-0.0921-0.7949-0.1237-1.1935 c-0.0276-0.3499-0.1599-0.897-0.0509-1.244c0.0502-0.1595-0.0396-0.1863,0.1798,0.0318c0.1405,0.1396,0.2628,0.285,0.3697,0.4521 c0.1938,0.3028,0.3246,0.6329,0.4219,0.9775c0.1989,0.7048,0.2477,1.4382,0.2871,2.166c0.0732,1.3516,0.1412,2.7035,0.2102,4.0553 c-0.3152-0.8589-0.5829-1.7354-0.8008-2.6265C465.5666,282.2562,465.3988,281.3812,465.2841,280.5003z M467.9033,288.8227 c-0.4293-3.7742,0.3457-7.3573,1.4464-10.8923c0,5.3323,0,10.6647,0,15.997c0,0.3766,0,0.7533,0,1.1299 C468.689,292.9958,468.1423,290.9239,467.9033,288.8227z M463.127,328.143c-0.013-0.1169-0.0313-0.2378-0.0264-0.3561 c-0.002-0.0316,0.0073-0.0615,0.0111-0.0922c0.1974,0.2247,0.3245,0.529,0.4548,0.7903c0.3354,0.6729,0.6321,1.3633,0.8869,2.0707 c0.4297,1.1928,0.7443,2.4274,0.9449,3.6797C464.1812,332.4182,463.3676,330.312,463.127,328.143z M469.3497,335.4693 c0,4.4738,0,8.9475,0,13.4213c-1.8845-4.7062-3.1148-9.653-2.5562-14.7153c0.3473-3.1472,1.3901-6.0915,2.5562-9.0007 C469.3497,328.6062,469.3497,332.0378,469.3497,335.4693z M470.3497,320.1129c0-0.9108,0-1.8216,0-2.7324 c0-5.4681,0-10.9362,0-16.4042c0.8906,2.6854,1.6834,5.398,1.9919,8.2165C472.7583,312.9998,471.7161,316.5855,470.3497,320.1129z M473.666,305.0005c-0.0853,0.819-0.2125,1.6322-0.3545,2.4431c-0.0808-1.0051-0.1624-2.0101-0.2413-3.0153 c-0.1276-1.6261-0.3447-3.491,0.3589-5.0175c0.1228,0.2747,0.1683,0.6047,0.2125,0.8797c0.0794,0.494,0.122,0.9937,0.1442,1.4933 C473.8333,302.8567,473.7771,303.933,473.666,305.0005z M467.8688,269.0932c0-2.568,0-5.1359,0-7.7039c0-0.6434-1-0.6445-1,0 c0,2.568,0,5.1359,0,7.7039C466.8688,269.7366,467.8688,269.7376,467.8688,269.0932z M467.8688,316.2304c0-2.5679,0-5.1359,0-7.7039 c0-0.6434-1-0.6445-1,0c0,2.5679,0,5.1359,0,7.7039C466.8688,316.8739,467.8688,316.875,467.8688,316.2304z M471.7,332.6828 c0,2.655,0,5.31,0,7.965c0,0.6434,1,0.6445,1,0c0-2.655,0-5.31,0-7.965C472.7,332.0394,471.7,332.0383,471.7,332.6828z M465.0408,356.1862c0,4.7007,0,9.4014,0,14.1021c0,0.6434,1,0.6445,1,0c0-4.7007,0-9.4014,0-14.1021 C466.0408,355.5428,465.0408,355.5417,465.0408,356.1862z M472.6141,373.6831c0,4.1349,0,8.2697,0,12.4045c0,0.6435,1,0.6445,1,0 c0-4.1348,0-8.2697,0-12.4045C473.6141,373.0397,472.6141,373.0386,472.6141,373.6831z M382.8321,459.9974 c-0.0001,0.0001,0,0.0001-0.0001,0.0001c0.0007,0.0001,0.001,0.0001,0.0017,0.0002c0.0002-0.0001,0.0003,0,0.0004-0.0001 C382.8335,459.9975,382.8327,459.9975,382.8321,459.9974z M441.0352,470.2554c-3.8846,0-7.7692,0-11.6537,0c-0.6435,0-0.6445,1,0,1 c3.8846,0,7.7692,0,11.6537,0C441.6786,471.2554,441.6797,470.2554,441.0352,470.2554z M402.2546,464.7713c-0.6434,0-0.6445,1,0,1 c4.1458,0,8.2914,0,12.4372,0c0.6434,0,0.6445-1,0-1C410.5461,464.7713,406.4004,464.7713,402.2546,464.7713z M360.6341,467.5786 c-2.451,0-4.9019,0-7.3529,0c-4.8336-2.152-9.9462-3.7917-15.2051-3.6849c-2.0397-1.7395-4.5178-2.946-7.1648-3.4047 c-0.5447-0.0944-1.1879-0.2551-1.7356-0.1019c-0.5348,0.1496-0.8655,0.6835-0.6677,1.2207c0.2185,0.5934,0.9292,0.8661,1.451,1.1214 c0.6332,0.3098,1.2831,0.5881,1.9434,0.835c0.7773,0.2906,1.5694,0.5292,2.3727,0.7214c-3.4549,0.6431-6.7136,1.9786-9.9835,3.2929 c-1.6916,0-3.3832,0-5.0748,0c-6.375,0-12.75,0-19.1249,0c-2.9666-1.0231-5.9545-2.0057-9.07-2.4023 c-0.0895-0.0114-0.1774-0.0123-0.2667-0.0224c-0.0404-0.0515-0.0955-0.0976-0.1689-0.134 c-3.0723-1.5269-6.4159-2.4438-9.8423-2.6588c-0.5588-0.0351-1.2626-0.1208-1.7062,0.3083 c-0.5211,0.5041-0.1934,1.1836,0.2431,1.612c1.0095,0.9908,2.485,1.2017,3.8347,1.2916c0.0941,0.0063,0.1885,0.0098,0.2827,0.0158 c-2.3481,0.4851-4.6561,1.2194-6.9611,1.9898c-7.3635,0-14.7271,0-22.0906,0c-0.8202,0-1.6403,0-2.4605,0 c-2.6609-0.9501-5.3699-1.7314-8.196-2.0942c-4.7744-0.6129-9.5362,0.0751-14.1453,1.3587 c-0.793,0.2209-1.5786,0.4724-2.3612,0.7355c-8.2577,0-16.5154,0-24.7731,0c-0.2437,0-0.4874,0-0.7311,0 c-2.3008-0.7728-4.5963-1.5176-6.8945-1.9973c1.2407-0.0735,2.5458-0.2197,3.5694-0.9631c0.4733-0.3438,1.0626-0.898,0.8877-1.5464 c-0.1529-0.5665-0.7698-0.7332-1.2876-0.7415c-1.6685-0.0269-3.4258,0.3002-5.0411,0.6883 c-1.8917,0.4545-3.7208,1.1357-5.4623,2.0012c-0.1012,0.0503-0.1589,0.1213-0.1989,0.1978 c-2.2258,0.2504-4.4215,0.778-6.6285,1.4771c-0.8807,0.2791-1.7592,0.5796-2.6379,0.8838c-1.704,0-3.4081,0-5.1121,0 c-6.4055,0-12.8112,0-19.2167,0c-2.6124-1.0779-5.2153-2.1889-7.8795-2.8721c-0.6808-0.1746-1.3594-0.3076-2.0369-0.4198 c0.6047-0.1437,1.2045-0.3088,1.7955-0.5091c0.693-0.2349,1.3735-0.5074,2.0392-0.8109c0.5759-0.2625,1.298-0.521,1.7315-1.0016 c0.3645-0.4042,0.3853-1.0078-0.0458-1.3713c-0.4492-0.3786-1.0975-0.2574-1.6273-0.1835c-1.332,0.1857-2.6215,0.5577-3.8561,1.0891 c-1.4149,0.609-2.7142,1.4407-3.8801,2.4457c-0.005,0.0043-0.0059,0.0094-0.0106,0.0138c-4.962-0.0338-9.8135,1.3636-14.4996,3.3711 c-0.1836,0.0787-0.3621,0.1685-0.545,0.2486c-1.6057,0-3.2114,0-4.8171,0c-0.874,0-1.748,0-2.622,0c-0.6434,0-0.6445,1,0,1 c1.749,0,3.4979,0,5.2468,0c-1.3215,0.6248-2.6337,1.2694-3.9322,1.9409c-0.5718,0.2957-0.0667,1.1589,0.5047,0.8635 c1.8596-0.9616,3.7781-1.9236,5.7424-2.8043c5.4222,0,10.8444,0,16.2667,0c4.0519,0,8.1039,0,12.1558,0 c2.9791,1.2303,5.9698,2.4161,9.1559,2.9142c0.6528,0.1021,1.2994,0.1522,1.9431,0.1783c0.019,0.0065,0.0309,0.0187,0.0519,0.0234 c2.414,0.5417,4.8448,1.0622,7.3155,1.2609c1.1935,0.096,2.3989,0.1146,3.5903-0.0204c0.9304-0.1055,2.1361-0.1951,2.6289-1.1216 c0.1335-0.2511,0.0516-0.5267-0.1794-0.6841c-1.2875-0.8777-2.8683-0.9936-4.403-0.9375c1.5698-0.4959,3.1315-1.0605,4.6948-1.6132 c6.897,0,13.7939,0,20.6909,0c0.9759,0,1.9518,0,2.9277,0c3.6919,1.2236,7.3795,2.5073,11.2081,2.9144 c3.7755,0.4015,7.0662-0.4578,10.5844-1.6812c1.2186-0.4237,2.4435-0.8395,3.6754-1.2333c8.1494,0,16.2988,0,24.4481,0 c2.51,0.9669,4.9829,2.1805,7.6002,2.7294c5.9346,1.2445,11.6092-0.825,17.2535-2.7294c6.3967,0,12.7934,0,19.1901,0 c1.3772,0,2.7544,0,4.1316,0c1.6151,0.5574,3.2308,1.1239,4.864,1.6224c-1.6003-0.0743-3.2685,0.0099-4.6156,0.9283 c-0.2299,0.1567-0.3138,0.4313-0.1794,0.6841c0.4787,0.9,1.6216,1.0005,2.5283,1.1094c1.2244,0.147,2.4633,0.1313,3.691,0.0326 c2.4706-0.1987,4.9014-0.7192,7.3155-1.2609c0.0923-0.0207,0.1599-0.0626,0.2152-0.1128c2.4305-0.1519,4.7571-0.7718,7.1823-1.6462 c1.1765-0.4242,2.3405-0.8884,3.5033-1.3569c4.3019,0,8.6039,0,12.9058,0c5.2281,0,10.4561,0,15.6842,0 c1.9708,0.8729,3.9105,1.8144,5.8249,2.8043c0.5708,0.2952,1.0772-0.5674,0.5048-0.8635c-1.2657-0.6545-2.5578-1.3099-3.8726-1.9409 c1.729,0,3.4581,0,5.1871,0C361.2775,468.5786,361.2786,467.5786,360.6341,467.5786z M330.3213,461.7954 c-0.2601-0.1298-0.5702-0.2598-0.7937-0.4572c0.0141-0.0012,0.0275-0.0069,0.0418-0.0064c0.1336,0.0161,0.2746,0.0091,0.41,0.0241 c2.169,0.2406,4.2753,1.0542,6.0925,2.2714c-1.2524-0.2006-2.4873-0.515-3.6799-0.945 C331.6848,462.4273,330.994,462.1311,330.3213,461.7954z M281.3606,464.3099c-0.3187-0.0895-0.6271-0.2075-0.9109-0.3797 c-0.1943-0.1179-0.3545-0.2568-0.5187-0.4119c-0.1523-0.1439-0.1984-0.1241-0.0318-0.1797c0.3204-0.107,0.8175,0.0189,1.1442,0.0434 c0.4321,0.0324,0.8635,0.0753,1.2933,0.1311c0.881,0.1144,1.7558,0.2828,2.6187,0.4933c0.8915,0.2176,1.7682,0.4855,2.6274,0.801 c-1.3522-0.0689-2.7043-0.1366-4.0562-0.2103C282.7985,464.5573,282.0659,464.5081,281.3606,464.3099z M193.0819,464.0064 c0.8628-0.2109,1.7378-0.3787,2.6187-0.4933c0.3967-0.0516,0.7949-0.0921,1.1935-0.1237c0.3499-0.0276,0.897-0.1599,1.244-0.0508 c0.1595,0.0501,0.1863-0.0396-0.0318,0.1797c-0.1396,0.1406-0.285,0.2628-0.4521,0.3697c-0.3028,0.1938-0.6329,0.3246-0.9775,0.4219 c-0.7048,0.1989-1.4382,0.2477-2.166,0.2871c-1.3516,0.0732-2.7036,0.1412-4.0554,0.2103 C191.3143,464.492,192.1907,464.2243,193.0819,464.0064z M148.058,461.3559c0.1169-0.013,0.2378-0.0313,0.3561-0.0264 c0.0316-0.002,0.0615,0.0073,0.0922,0.0111c-0.2247,0.1974-0.529,0.3245-0.7903,0.4548c-0.6729,0.3354-1.3633,0.6321-2.0707,0.8869 c-1.1929,0.4297-2.4275,0.7443-3.6799,0.9449C143.7826,462.4101,145.8889,461.5965,148.058,461.3559z M144.5316,467.5786 c-5.7401,0-11.4802,0-17.2202,0c4.7264-1.8926,9.6957-3.1258,14.779-2.5494c3.0981,0.3513,5.9987,1.391,8.8643,2.5494 C148.8136,467.5786,146.6726,467.5786,144.5316,467.5786z M176.7902,471.658c-0.2747,0.1228-0.6047,0.1683-0.8797,0.2125 c-0.494,0.0794-0.9937,0.1221-1.4933,0.1442c-1.0729,0.0475-2.1492-0.0087-3.2167-0.1198c-0.819-0.0853-1.6322-0.2125-2.4431-0.3545 c1.0051-0.0808,2.0101-0.1625,3.0153-0.2413C173.3988,471.1715,175.2637,470.9544,176.7902,471.658z M167.3739,470.528 c-3.9263,0.4957-7.605-0.5574-11.2228-1.9493c4.3961,0,8.7921,0,13.1882,0c1.9124,0,3.8248,0,5.7372,0 C172.5561,469.4297,170.0099,470.1952,167.3739,470.528z M181.1291,467.5786c2.1199-0.6784,4.2548-1.2374,6.4302-1.4653 c3.8373-0.402,7.4961,0.3777,11.1119,1.4653C192.8238,467.5786,186.9764,467.5786,181.1291,467.5786z M219.1147,470.1949 c-4.9014,1.1614-9.6877-0.0688-14.4348-1.6163c6.5466,0,13.093,0,19.6396,0C222.6015,469.1866,220.8792,469.7768,219.1147,470.1949z M236.5443,466.4366c4.1374-0.465,8.2162,0.0067,12.1821,1.142c-6.0147,0-12.0294,0-18.0441,0 C232.6082,467.0698,234.5579,466.6598,236.5443,466.4366z M265.5996,470.5018c-2.1769,0.2774-4.4296,0.2618-6.5656-0.2845 c-1.322-0.3381-2.5904-0.8823-3.8546-1.3875c-0.2125-0.085-0.4258-0.1672-0.6386-0.2511c6.2964,0,12.593,0,18.8895,0 C270.8575,469.4148,268.2656,470.1621,265.5996,470.5018z M279.6543,467.5786c1.4213-0.4355,2.8431-0.8235,4.2695-1.1018 c4.4702-0.8723,8.6632-0.2314,12.9528,1.1018C291.1358,467.5786,285.3951,467.5786,279.6543,467.5786z M303.6201,472.0147 c-0.4996-0.0221-0.9993-0.0648-1.4933-0.1442c-0.275-0.0442-0.605-0.0898-0.8796-0.2125c1.5264-0.7035,3.3915-0.4868,5.0175-0.3589 c1.0052,0.079,2.0102,0.1606,3.0153,0.2413c-0.8108,0.142-1.624,0.2692-2.4431,0.3545 C305.7693,472.006,304.6931,472.0622,303.6201,472.0147z M316.6164,470.2435c-4.324,1.0758-8.7303-0.075-12.8585-1.4176 c-0.2466-0.0802-0.4928-0.1649-0.7392-0.2473c6.2448,0,12.4895,0,18.7343,0C320.0675,469.2209,318.3648,469.8085,316.6164,470.2435z M326.9185,467.5786c1.3936-0.5485,2.7935-1.0783,4.2229-1.5172c3.1378-0.9634,6.386-1.3746,9.6608-1.0731 c3.3914,0.3123,6.6942,1.3263,9.8548,2.5903C342.7441,467.5786,334.8313,467.5786,326.9185,467.5786z M263.2256,465.0977 c-0.6434,0-0.6445,1,0,1c2.568,0,5.1359,0,7.7039,0c0.6434,0,0.6445-1,0-1C268.3615,465.0977,265.7936,465.0977,263.2256,465.0977z M310.3629,465.0977c-0.6434,0-0.6445,1,0,1c2.568,0,5.1359,0,7.7039,0c0.6434,0,0.6445-1,0-1 C315.4989,465.0977,312.9309,465.0977,310.3629,465.0977z M342.4842,469.9289c-2.655,0-5.31,0-7.965,0c-0.6434,0-0.6445,1,0,1 c2.655,0,5.31,0,7.965,0C343.1277,470.9289,343.1288,469.9289,342.4842,469.9289z M358.0226,463.2697c-0.6434,0-0.6445,1,0,1 c4.7007,0,9.4014,0,14.1021,0c0.6434,0,0.6445-1,0-1C367.4239,463.2697,362.7232,463.2697,358.0226,463.2697z M387.9241,470.843 c-4.1349,0-8.2697,0-12.4046,0c-0.6434,0-0.6445,1,0,1c4.1349,0,8.2697,0,12.4046,0 C388.5675,471.843,388.5686,470.843,387.9241,470.843z M461.7685,95.2706c0.0001,0,0.0001,0,0.0001,0.0001 c0.0001-0.0007,0.0001-0.001,0.0002-0.0017c0-0.0001,0.0001-0.0003,0-0.0004C461.7687,95.2692,461.7686,95.27,461.7685,95.2706z M472.0265,37.0675c0,3.8846,0,7.7692,0,11.6537c0,0.6434,1,0.6445,1,0c0-3.8846,0-7.7692,0-11.6537 C473.0265,36.424,472.0265,36.4229,472.0265,37.0675z M467.5424,75.848c0-4.1457,0-8.2914,0-12.4372c0-0.6434-1-0.6445-1,0 c0,4.1458,0,8.2915,0,12.4372C466.5424,76.4915,467.5424,76.4925,467.5424,75.848z M467.8688,214.877c0-2.568,0-5.1359,0-7.7039 c0-0.6434-1-0.6445-1,0c0,2.568,0,5.1359,0,7.7039C466.8688,215.5204,467.8688,215.5215,467.8688,214.877z M467.8688,167.7397 c0-2.5679,0-5.1359,0-7.7039c0-0.6435-1-0.6445-1,0c0,2.5679,0,5.1359,0,7.7039 C466.8688,168.3831,467.8688,168.3842,467.8688,167.7397z M471.7,135.6184c0,2.655,0,5.3101,0,7.965c0,0.6435,1,0.6445,1,0 c0-2.655,0-5.31,0-7.965C472.7,134.9749,471.7,134.9738,471.7,135.6184z M466.0408,120.08c0-4.7007,0-9.4014,0-14.1021 c0-0.6434-1-0.6445-1,0c0,4.7007,0,9.4014,0,14.1021C465.0408,120.7235,466.0408,120.7246,466.0408,120.08z M473.6141,102.5831 c0-4.1349,0-8.2697,0-12.4045c0-0.6435-1-0.6445-1,0c0,4.1348,0,8.2697,0,12.4045 C472.6141,103.2265,473.6141,103.2276,473.6141,102.5831z M366.9016,8.557c8.5515,0,17.1029,0,25.6544,0 c-2.7755,1.2559-5.4401,2.8087-7.9103,4.5581c-0.7911,0.5603-3.8986,2.581-2.5024,3.8793c0.7747,0.7203,2.0698-0.1507,2.749-0.5875 c2.2269-1.4318,4.2341-3.2466,6.2181-4.9872c0.8018-0.7035,1.5975-1.414,2.3901-2.1278c0.0269-0.0242,0.0374-0.0516,0.057-0.0773 c0.5323-0.2319,1.0693-0.4508,1.6105-0.6576c3.965,0,7.9301,0,11.8951,0c3.7064,0,7.4128,0,11.1193,0 c0.0653,0.0243,0.131,0.0476,0.1962,0.072c1.912,0.7133,3.8256,1.4456,5.8159,1.9142c0.4252,0.1001,0.8534,0.1873,1.2836,0.2635 c-1.3054,0.233-2.6028,0.5521-3.8311,1.0386c-0.6838,0.2709-1.4582,0.5771-1.9485,1.1485 c-0.5618,0.6547-0.4646,1.5237,0.3148,1.9494c1.8582,1.015,4.2072,0.092,5.9181-0.776c1.8901-0.9589,3.7346-2.1782,5.7374-2.8861 c0.0034-0.0012,0.0051-0.0038,0.0084-0.005c0.0975-0.0239,0.1769-0.0692,0.2318-0.1379c2.7709-0.1624,5.5225-0.661,8.2243-1.2736 c1.7511-0.397,3.5032-0.8524,5.2599-1.3077c0.6105,0,1.221,0,1.8315,0c7.4186,0,14.8371,0,22.2556,0c0,8.041,0,16.082,0,24.123 c-0.2201,0.8529-0.4394,1.7029-0.6509,2.5491c-0.8757,3.5048-1.668,7.0548-1.9146,10.6676 c-0.0067,0.0986-0.0071,0.1964-0.0129,0.2949c-0.07,0.0549-0.1166,0.1348-0.1408,0.2336c-0.0013,0.0034-0.0038,0.0051-0.0051,0.0085 c-0.6071,1.7176-1.6196,3.3083-2.4608,4.9189c-0.9706,1.8583-2.0443,3.9487-1.4432,6.1032 c0.2162,0.7751,0.7737,1.5754,1.6872,1.2546c0.7451-0.2617,1.1434-1.0786,1.4422-1.7525c0.6303-1.4217,0.9986-2.9524,1.2679-4.482 c0.2551,1.4888,0.627,2.9626,1.1282,4.4218c0.3568,1.0389,0.7338,2.0659,1.1028,3.0922c0,7.6469,0,15.2937,0,22.9406 c-0.2134,0.5488-0.4399,1.0916-0.6777,1.6293c-0.0188,0.0159-0.0392,0.0222-0.0572,0.0422 c-2.1846,2.426-4.3947,4.8629-6.3369,7.4916c-0.6158,0.8334-1.7913,2.1786-1.6145,3.325c0.0679,0.4409,0.3906,0.7766,0.8364,0.8457 c0.817,0.1268,1.5518-0.6592,2.0401-1.2042c1.0694-1.1936,1.9402-2.5744,2.7762-3.9357c1.0837-1.7649,2.1144-3.5664,2.9789-5.4499 c0.019-0.0415,0.0358-0.084,0.0547-0.1255c0,0.984,0,1.9681,0,2.9521c0,7.5667,0,15.1333,0,22.7c0,0.6434,1,0.6445,1,0 c0-9.3553,0-18.7106,0-28.0659c0.9395-2.4994,1.6149-5.0931,1.9749-7.7214c0.1085,0.479,0.2338,0.9543,0.3778,1.4244 c0.2922,0.9542,0.6573,1.8869,1.0844,2.7888c0.395,0.8342,0.8226,1.7623,1.4379,2.4605c0.4737,0.5376,1.2893,0.8669,1.9554,0.46 c0.6805-0.4158,0.7472-1.3576,0.71-2.0695c-0.1069-2.0413-1.2575-3.77-2.3813-5.3995c-1.317-1.9095-2.3497-3.9034-2.9691-6.1419 c-0.1606-2.2012-0.5619-4.3914-1.2532-6.5342c-0.2927-0.9072-0.6132-1.8027-0.9367-2.6956c0-8.9578,0-17.9157,0-26.8735 c1.4272-5.5159,2.8416-11.074,2.5027-16.7877c-0.0551-0.9295-0.1633-1.8542-0.312-2.7733 c-0.1025-0.6336-1.0663-0.3647-0.9643,0.2659c0.825,5.0999-0.0345,10.1763-1.2265,15.1644c0-6.8229,0-13.6458,0-20.4687 c1.0221-0.5947,1.9902-1.2795,2.8882-2.049c0.4496-0.3853,0.881-0.7921,1.2917-1.2186c0.4205-0.4366,0.8704-0.8957,1.1214-1.4556 c0.2345-0.5229,0.334-1.2855-0.1486-1.7044c-0.4598-0.3992-1.1559-0.118-1.6268,0.1116c-1.0346,0.5045-1.803,1.4615-2.4831,2.3599 c-0.7679,1.0142-1.3897,2.118-1.9022,3.2791c-6.7542,0-13.5085,0-20.2628,0c4.1093-0.9839,8.2587-1.7332,12.4954-1.514 c0.9085,0.047,1.8126,0.1423,2.7106,0.2875c0.6295,0.1018,0.9005-0.8616,0.2658-0.9643c-6.6147-1.07-13.1275,0.5522-19.5232,2.1908 c-5.1812,0-10.3625,0-15.5438,0c-3.8046,0-7.6094,0-11.414,0c-1.8539-0.6876-3.7209-1.3428-5.6624-1.7395 c-1.2014-0.2455-2.4202-0.4005-3.6439-0.4866c-1.8708-0.5295-3.63-1.3318-5.2521-2.4104c-1.7141-1.1396-3.3998-2.4968-5.4933-2.8287 c-0.7388-0.1171-1.6816-0.1939-2.3449,0.2333c-0.6612,0.4258-0.7147,1.2994-0.3187,1.9265 c0.4562,0.7224,1.4232,1.1443,2.1512,1.5249c0.8514,0.4451,1.7373,0.8291,2.6424,1.151c0.7348,0.2613,1.4877,0.4614,2.2468,0.634 c-2.5731,0.3585-5.1071,1.0154-7.5359,1.9225c-0.0592,0.0221-0.1165,0.0505-0.1755,0.0729c-1.787,0-3.5741,0-5.3611,0 c-7.5667,0-15.1334,0-22.7,0C366.2581,7.557,366.2571,8.557,366.9016,8.557z M465.6403,54.9927 c-0.1868,0.6208-0.4014,1.2377-0.6898,1.8193c-0.132,0.2661-0.295,0.6616-0.5494,0.8308c-0.5243,0.3488-0.6567-0.6511-0.6971-1.0172 c-0.212-1.9206,0.8957-3.6797,1.7371-5.3141c0.4071-0.7907,0.8504-1.5695,1.2646-2.3617 C466.5854,50.9991,466.2218,53.0601,465.6403,54.9927z M461.7694,95.2736C461.7699,95.2819,461.769,95.2856,461.7694,95.2736 L461.7694,95.2736z M465.7527,90.3419c-0.8088,1.3318-1.6427,2.6868-2.6643,3.869c-0.2888,0.3342-0.6046,0.7056-0.9874,0.937 c-0.0806,0.0488-0.2072,0.1154-0.2637,0.1299c-0.0517,0.0132-0.0618,0.0018-0.0677-0.0067c0.0002-0.0059,0.0002-0.0104,0.002-0.0253 c-0.0016,0.0145-0.0016,0.014-0.0027,0.0233c0.0002,0.0006,0.0002,0.0012,0.0002,0.0018c-0.0001-0.0001-0.0004,0-0.0004-0.0001 c-0.0055,0.0466-0.0045,0.0364-0.0001-0.0001c-0.0029-0.0042-0.0049-0.0107-0.0121-0.0051c0.0079-0.0062,0.0109-0.0025,0.0124,0.003 c0.0035-0.0298,0.0079-0.0662,0.0113-0.0898c0.0035-0.0219,0.0156-0.0903,0.0385-0.1609c0.1483-0.4579,0.4423-0.9484,0.7449-1.4099 c1.3418-2.0469,2.9954-3.9048,4.6128-5.7401C466.7237,88.702,466.2481,89.5262,465.7527,90.3419z M477.027,80.6953 c0.0029,0.4489-0.067,1.4052-0.7775,0.8783c-0.3639-0.2698-0.5892-0.7929-0.809-1.1802c-0.5593-0.9849-1.0305-2.0184-1.4034-3.088 c-0.5233-1.5006-0.8536-3.051-0.9998-4.625c0.3462,0.6993,0.7208,1.385,1.1516,2.0396 C475.3816,76.5323,477.0118,78.4039,477.027,80.6953z M471.6614,68.3998c0.0096,0.1012,0.0125,0.2026,0.0209,0.3039 c-0.0438,0.0927-0.0653,0.1998-0.0316,0.3268c0.0203,0.0763,0.0485,0.1499,0.0696,0.2259c0.2241,3.524-0.2102,7.068-1.1605,10.4663 c-0.0247,0.0881-0.0542,0.174-0.0795,0.2618c0-2.9817,0-5.9634,0-8.9451c0-2.7017,0-5.4034,0-8.105 C471.0345,64.7065,471.4823,66.508,471.6614,68.3998z M469.4803,48.3394c0,2.8528,0,5.7056,0,8.5585 c-0.7399-2.1574-1.3675-4.3421-1.5547-6.6653c-0.3085-3.8287,0.2569-7.656,1.0756-11.3889 c0.1505-0.6861,0.3128-1.3723,0.4792-2.0587C469.4803,40.6364,469.4803,44.4879,469.4803,48.3394z M471.8815,5.49 c0.5306-0.7877,1.129-1.5724,1.8521-2.1944c0.3279-0.2821,0.71-0.5259,1.1278-0.6477c0.033-0.0096,0.072-0.0128,0.1063-0.0168 c0.005,0.0248,0.0096,0.0502,0.0095,0.0717c-0.0015,0.2377-0.1241,0.4599-0.2495,0.6545c-0.2583,0.4009-0.6178,0.7462-0.9518,1.0836 c-0.3571,0.3607-0.729,0.7067-1.1144,1.037c-0.4611,0.3951-0.946,0.7598-1.4449,1.1041 C471.4262,6.2105,471.6437,5.843,471.8815,5.49z M382.8279,16.2681C382.8163,16.2685,382.8197,16.2677,382.8279,16.2681 L382.8279,16.2681z M385.5946,14.6985c-0.6171,0.4594-1.2502,0.9163-1.933,1.2745c-0.2429,0.1274-0.3359,0.1678-0.5767,0.2458 c-0.0462,0.015-0.1414,0.0345-0.165,0.0399c-0.0258,0.0036-0.0557,0.0074-0.0833,0.0105c0.0039,0.0018,0.0056,0.0053,0.0005,0.0117 c0.0064-0.0081-0.0007-0.009-0.0045-0.0113c-0.0369,0.0041-0.0449,0.0045-0.0003-0.0009c-0.0001-0.0001,0-0.0001-0.0001-0.0001 c0.0002,0.0001,0.0004,0.0001,0.0007,0.0001c0.0095-0.0012,0.0084-0.0011,0.0241-0.0029c-0.0148,0.0017-0.0191,0.0018-0.0251,0.0021 c-0.0092-0.005-0.0216-0.0152-0.0073-0.0797c0.0018-0.0084,0.0887-0.183,0.1302-0.2518c0.5588-0.9242,1.6851-1.6108,2.5504-2.2051 c1.5612-1.0724,3.1878-2.0784,4.8679-2.982C388.8244,12.1206,387.25,13.4662,385.5946,14.6985z M422.2919,14.3426 c-0.4639,0.0345-0.9306,0.0037-1.3794-0.1215c-0.1962-0.0547-0.6024-0.1382-0.5703-0.4199c0.0201-0.176,0.3623-0.3831,0.4911-0.4653 c0.5188-0.3309,1.1149-0.5543,1.6943-0.7523c1.3951-0.4766,2.853-0.7751,4.3095-0.9896c0.7621-0.1122,1.5322-0.2003,2.3043-0.2538 c-0.6113,0.3208-1.215,0.6573-1.8212,0.9798C425.7599,13.15,424.0952,14.2082,422.2919,14.3426z M441.3255,8.557 c-3.4903,0.843-7.0344,1.5572-10.6337,1.6339c-1.9474,0.0415-3.899-0.1055-5.8051-0.5159c-1.2927-0.2784-2.5507-0.6797-3.7964-1.118 C427.8353,8.557,434.5804,8.557,441.3255,8.557z M397.7092,2.5968c-0.3845-0.218-0.9106-0.4455-1.1802-0.809 c-0.5272-0.711,0.4244-0.7805,0.8783-0.7775c2.2917,0.0151,4.1628,1.6459,5.9752,2.838c0.655,0.4308,1.341,0.8057,2.0405,1.152 c-1.5745-0.1459-3.1257-0.476-4.6259-1.0001C399.7275,3.6266,398.6948,3.1557,397.7092,2.5968z M406.9326,6.2505 c0.6386-0.0018,1.2764,0.0254,1.9133,0.0663c0.0761,0.0212,0.1498,0.0494,0.2262,0.0697c0.1248,0.0331,0.23,0.0123,0.3218-0.0297 c1.0869,0.0917,2.1686,0.241,3.2367,0.4688c0.9123,0.1945,1.8073,0.4488,2.6937,0.7314c-5.7356,0-11.4712,0-17.2068,0 C400.9823,6.7322,403.9478,6.2591,406.9326,6.2505z M382.8329,16.2686c-0.0002,0-0.0004,0.0001-0.0006,0.0001 c0.0003,0.0002,0.0001,0.0007,0.0003,0.0009c0.0012-0.0001,0.0027-0.0002,0.004-0.0004 C382.8355,16.2686,382.8341,16.2689,382.8329,16.2686z M429.3814,6.0108c3.8846,0,7.7692,0,11.6537,0c0.6434,0,0.6445-1,0-1 c-3.8846,0-7.7692,0-11.6537,0C428.7379,5.0108,428.7369,6.0108,429.3814,6.0108z M414.6918,10.495c-4.1458,0-8.2914,0-12.4372,0 c-0.6434,0-0.6445,1,0,1c4.1458,0,8.2914,0,12.4372,0C415.3352,11.495,415.3363,10.495,414.6918,10.495z M270.9295,10.1685 c-2.568,0-5.1359,0-7.7039,0c-0.6434,0-0.6445,1,0,1c2.568,0,5.1359,0,7.7039,0C271.573,11.1685,271.5741,10.1685,270.9295,10.1685z M318.0669,10.1685c-2.568,0-5.1359,0-7.7039,0c-0.6434,0-0.6445,1,0,1c2.568,0,5.1359,0,7.7039,0 C318.7103,11.1685,318.7113,10.1685,318.0669,10.1685z M334.5192,6.3372c2.655,0,5.31,0,7.965,0c0.6434,0,0.6445-1,0-1 c-2.655,0-5.31,0-7.965,0C333.8758,5.3372,333.8747,6.3372,334.5192,6.3372z M372.1246,11.9965c-4.7007,0-9.4014,0-14.1021,0 c-0.6434,0-0.6445,1,0,1c4.7007,0,9.4014,0,14.1021,0C372.768,12.9965,372.7691,11.9965,372.1246,11.9965z M375.5195,5.4232 c4.1349,0,8.2697,0,12.4046,0c0.6434,0,0.6445-1,0-1c-4.1349,0-8.2697,0-12.4046,0C374.8761,4.4232,374.875,5.4232,375.5195,5.4232z M16.2686,95.2695c0,0.0004,0,0.0005,0.0001,0.0009c0.0002-0.0003,0.0007,0,0.0009-0.0003 c-0.0001-0.0012-0.0004-0.0027-0.0005-0.004C16.2686,95.267,16.2689,95.2683,16.2686,95.2695z M2.2516,82.4688 c0.7224-0.4562,1.1443-1.4233,1.5249-2.1512c0.4451-0.8514,0.8292-1.7372,1.151-2.6424c0.2613-0.7349,0.4614-1.4878,0.634-2.2469 c0.3585,2.5731,1.0154,5.1072,1.9225,7.5361c0.0221,0.0592,0.0506,0.1165,0.073,0.1757c0,1.787,0,3.574,0,5.3611 c0,7.5667,0,15.1333,0,22.7c0,0.6434,1,0.6445,1,0c0-8.5515,0-17.103,0-25.6544c1.2559,2.7755,2.8087,5.4401,4.5581,7.9103 c0.5602,0.7911,2.581,3.8986,3.8793,2.5024c0.7203-0.7747-0.1508-2.0698-0.5875-2.749c-1.4318-2.2269-3.2466-4.2341-4.9873-6.2181 c-0.7035-0.8018-1.414-1.5975-2.1277-2.3901c-0.0243-0.027-0.0516-0.0374-0.0774-0.0571c-0.2318-0.5323-0.4508-1.0692-0.6575-1.6102 c0-3.9651,0-7.9302,0-11.8953c0-3.7064,0-7.4128,0-11.1193c0.0243-0.0653,0.0476-0.131,0.072-0.1962 c0.7133-1.912,1.4456-3.8256,1.9142-5.8159c0.1001-0.4251,0.1874-0.8532,0.2636-1.2834c0.233,1.3053,0.552,2.6027,1.0386,3.8309 c0.2709,0.6838,0.5771,1.4582,1.1486,1.9485c0.6547,0.5618,1.5237,0.4646,1.9494-0.3148c1.015-1.8582,0.092-4.2072-0.776-5.9181 c-0.9589-1.89-2.1782-3.7346-2.8861-5.7374c-0.0012-0.0035-0.0038-0.0052-0.0051-0.0086c-0.0239-0.0974-0.0691-0.1768-0.1378-0.2315 c-0.1624-2.7709-0.6611-5.5225-1.2737-8.2244c-0.397-1.751-0.8523-3.5031-1.3076-5.2596c0-0.6106,0-1.2212,0-1.8318 c0-7.4402,0-14.8806,0-22.3209c8.0193,0,16.0385,0,24.0577,0c0.8529,0.2201,1.7029,0.4394,2.5491,0.6509 c3.5048,0.8757,7.0547,1.668,10.6676,1.9146c0.0986,0.0067,0.1964,0.0071,0.2949,0.0129c0.055,0.0701,0.1348,0.1166,0.2337,0.1408 c0.0034,0.0012,0.005,0.0038,0.0084,0.005c1.7176,0.6071,3.3083,1.6197,4.9189,2.4609c1.8583,0.9706,3.9487,2.0443,6.1032,1.4432 c0.7751-0.2162,1.5754-0.7737,1.2546-1.6873c-0.2617-0.7451-1.0786-1.1434-1.7525-1.4422 c-1.4218-0.6303-2.9525-0.9987-4.4821-1.2679c1.4888-0.2552,2.9626-0.627,4.4219-1.1282c1.0389-0.3568,2.0659-0.7338,3.0922-1.1027 c7.6469,0,15.2938,0,22.9407,0c0.5487,0.2134,1.0914,0.4399,1.6292,0.6777c0.0159,0.0188,0.0223,0.0393,0.0422,0.0573 c2.426,2.1846,4.8629,4.3947,7.4916,6.3369c0.8334,0.6158,2.1786,1.7913,3.325,1.6145c0.4409-0.068,0.7766-0.3906,0.8457-0.8364 c0.1268-0.817-0.6592-1.5518-1.2042-2.04c-1.1936-1.0694-2.5744-1.9402-3.9358-2.7762c-1.7648-1.0838-3.5663-2.1144-5.4498-2.9789 c-0.0414-0.019-0.0839-0.0358-0.1254-0.0547c0.9839,0,1.9679,0,2.9519,0c7.5667,0,15.1333,0,22.7,0c0.6434,0,0.6445-1,0-1 c-9.3553,0-18.7106,0-28.0659,0c-2.4993-0.9395-5.093-1.6149-7.7213-1.9749c0.4789-0.1084,0.9542-0.2338,1.4243-0.3777 c0.9542-0.2923,1.8869-0.6573,2.7888-1.0844c0.8342-0.395,1.7623-0.8227,2.4605-1.4379c0.5376-0.4737,0.8669-1.2893,0.46-1.9554 c-0.4158-0.6805-1.3576-0.7472-2.0695-0.71c-2.0413,0.1069-3.77,1.2575-5.3995,2.3812c-1.9096,1.317-3.9034,2.3497-6.1419,2.9691 C66.6702,5.5277,64.48,5.929,62.3372,6.6203c-0.9073,0.2927-1.8029,0.6132-2.6957,0.9368c-8.9578,0-17.9156,0-26.8734,0 c-5.5159-1.4272-11.0739-2.8417-16.7876-2.5027c-0.9295,0.0551-1.8542,0.1633-2.7733,0.312 c-0.6337,0.1025-0.3647,1.0663,0.2659,0.9643c5.0999-0.825,10.1763,0.0345,15.1644,1.2265c-6.743,0-13.4859,0-20.2289,0 C7.9589,6.5379,7.4339,5.5585,6.7864,4.649C6.1205,3.7136,5.37,2.7469,4.3909,2.1207C3.9486,1.8379,3.3097,1.5135,2.768,1.6292 C2.1138,1.7689,1.9889,2.5101,2.1037,3.0705C2.2252,3.6627,2.6336,4.1607,3.03,4.5962C3.44,5.0465,3.8731,5.476,4.3255,5.8836 c0.9913,0.893,2.0784,1.6791,3.2315,2.3499c0,6.837,0,13.6741,0,20.5111c-0.9839-4.1093-1.7333-8.2589-1.5141-12.4957 c0.0471-0.9085,0.1423-1.8126,0.2875-2.7106c0.1019-0.6296-0.8616-0.9005-0.9642-0.2659c-1.07,6.6148,0.5523,13.1277,2.1908,19.5235 c0,5.1812,0,10.3623,0,15.5435c0,3.8046,0,7.6092,0,11.4138c-0.6876,1.854-1.3428,3.7211-1.7396,5.6626 C5.572,66.6173,5.417,67.8361,5.331,69.0597c-0.5296,1.8709-1.3318,3.63-2.4104,5.2522c-1.1397,1.7141-2.4968,3.3998-2.8287,5.4933 c-0.1171,0.7387-0.1939,1.6816,0.2333,2.3449C0.751,82.8112,1.6246,82.8648,2.2516,82.4688z M56.7467,13.0869 c0.2661,0.132,0.6616,0.295,0.8308,0.5493c0.3488,0.5243-0.6511,0.6567-1.0172,0.6971c-1.9206,0.212-3.6797-0.8957-5.3141-1.7371 c-0.7907-0.4071-1.5696-0.8505-2.3619-1.2648c2.0493,0.1203,4.1104,0.4839,6.043,1.0655 C55.5482,12.5838,56.1651,12.7984,56.7467,13.0869z M95.208,16.2679C95.2165,16.2673,95.2204,16.2683,95.208,16.2679L95.208,16.2679 z M94.1456,14.949c0.3342,0.2888,0.7056,0.6046,0.937,0.9874c0.0488,0.0806,0.1153,0.2071,0.1298,0.2637 c0.0133,0.0517,0.0019,0.0618-0.0067,0.0677c-0.0059-0.0002-0.0104-0.0003-0.0253-0.002c0.0144,0.0016,0.0139,0.0016,0.0231,0.0027 c0.0006-0.0002,0.0013-0.0002,0.002-0.0002c-0.0001,0.0001,0,0.0004-0.0002,0.0004c0.0466,0.0055,0.0364,0.0045-0.0001,0.0001 c-0.0042,0.003-0.0107,0.0049-0.005,0.0121c-0.0062-0.0078-0.0026-0.0108,0.0029-0.0123c-0.0298-0.0035-0.0661-0.0079-0.0897-0.0113 c-0.0219-0.0035-0.0903-0.0156-0.1609-0.0385c-0.4579-0.1483-0.9484-0.4424-1.4099-0.7449 c-2.0469-1.3418-3.9049-2.9954-5.7401-4.6128c0.8343,0.4527,1.6584,0.9283,2.4742,1.4237 C91.6084,13.0935,92.9634,13.9273,94.1456,14.949z M80.63,1.0103c0.4489-0.0029,1.4052,0.0669,0.8783,0.7775 c-0.2698,0.3639-0.7929,0.5891-1.1802,0.809c-0.9849,0.5593-2.0184,1.0304-3.088,1.4034C75.7395,4.5235,74.1892,4.8538,72.6151,5 c0.6993-0.3462,1.385-0.7209,2.0396-1.1517C76.4669,2.6557,78.3386,1.0255,80.63,1.0103z M68.3345,6.3759 c0.1012-0.0096,0.2026-0.0125,0.3039-0.0209c0.0927,0.0438,0.1998,0.0653,0.3268,0.0316c0.0763-0.0203,0.1499-0.0485,0.2259-0.0696 c3.524-0.2241,7.068,0.2103,10.4663,1.1606c0.0881,0.0247,0.174,0.0542,0.2618,0.0795c-2.9817,0-5.9634,0-8.9451,0 c-2.7017,0-5.4034,0-8.1052,0C64.6411,7.0028,66.4427,6.5551,68.3345,6.3759z M48.2741,8.557c2.8528,0,5.7055,0,8.5583,0 c-2.1573,0.7399-4.342,1.3674-6.6652,1.5547c-3.8287,0.3086-7.656-0.2568-11.3889-1.0755 c-0.6862-0.1505-1.3723-0.3128-2.0587-0.4792C40.5711,8.557,44.4226,8.557,48.2741,8.557z M3.5372,3.6632 C3.3856,3.4829,3.2403,3.2829,3.1468,3.0654c-0.0356-0.0828-0.07-0.1784-0.0821-0.2682c-0.002-0.0148,0.002-0.1002,0.007-0.1725 c0.0247,0.0046,0.05,0.0083,0.0595,0.0109c0.103,0.028,0.2068,0.0614,0.3053,0.1032c0.2126,0.0903,0.4146,0.2156,0.6027,0.3485 c0.7522,0.5313,1.3547,1.3234,1.8837,2.0665c0.3317,0.466,0.6393,0.9511,0.92,1.4513C5.6205,5.7704,4.4834,4.7884,3.5372,3.6632z M16.268,95.2744C16.2685,95.2865,16.2676,95.2829,16.268,95.2744L16.268,95.2744z M14.6984,92.5081 c0.4594,0.6171,0.9164,1.2501,1.2745,1.933c0.1274,0.2429,0.1678,0.3359,0.2458,0.5767c0.015,0.0462,0.0345,0.1412,0.0399,0.165 c0.0037,0.0258,0.0074,0.0557,0.0105,0.0833c0.0018-0.0039,0.0054-0.0056,0.0118-0.0005c-0.0081-0.0063-0.009,0.0007-0.0113,0.0045 c0.0042,0.0369,0.0046,0.045-0.0009,0.0003c-0.0001,0.0001-0.0001,0.0001-0.0002,0.0001c0.0001-0.0004,0.0001-0.0007,0.0001-0.001 c-0.0012-0.0095-0.0012-0.0083-0.0029-0.0238c0.0017,0.0147,0.0017,0.019,0.002,0.0251c-0.005,0.0092-0.0152,0.0216-0.0797,0.0074 c-0.0084-0.0019-0.183-0.0887-0.2517-0.1303c-0.9242-0.5588-1.6108-1.6851-2.2052-2.5504 c-1.0724-1.5612-2.0783-3.1877-2.9819-4.8679C12.1206,89.2782,13.4662,90.8527,14.6984,92.5081z M14.3426,55.8107 c0.0345,0.4639,0.0037,0.9306-0.1215,1.3794c-0.0547,0.1962-0.1383,0.6024-0.4199,0.5703 c-0.1761-0.0201-0.3831-0.3623-0.4653-0.4911c-0.3309-0.5188-0.5544-1.1149-0.7523-1.6943c-0.4766-1.395-0.7751-2.853-0.9895-4.3094 c-0.1122-0.7621-0.2002-1.5322-0.2538-2.3043c0.3208,0.6113,0.6573,1.215,0.9797,1.8212 C13.15,52.3428,14.2082,54.0073,14.3426,55.8107z M10.1909,47.4109c0.0415,1.9474-0.1055,3.8991-0.5159,5.8051 c-0.2784,1.2927-0.6796,2.5507-1.1179,3.7964c0-6.7449,0-13.49,0-20.2349C9.4,40.2676,10.1142,43.8116,10.1909,47.4109z M7.557,62.7784c0,5.7356,0,11.4713,0,17.2068c-0.8248-2.8649-1.298-5.8304-1.3066-8.8152 c-0.0018-0.6386,0.0255-1.2764,0.0664-1.9133c0.0212-0.0761,0.0494-0.1498,0.0697-0.2262c0.0331-0.1247,0.0123-0.2299-0.0297-0.3217 c0.0917-1.0869,0.241-2.1686,0.4687-3.2367C7.02,64.5598,7.2744,63.6648,7.557,62.7784z M3.8483,74.7201 c0.4308-0.655,0.8056-1.341,1.1519-2.0405c-0.1459,1.5745-0.476,3.1257-1.0001,4.6259c-0.3737,1.0696-0.8444,2.1024-1.4033,3.088 c-0.2181,0.3845-0.4456,0.9106-0.8091,1.1802c-0.7109,0.5272-0.7804-0.4244-0.7774-0.8783 C1.0255,78.4036,2.6562,76.5325,3.8483,74.7201z M6.0108,48.7212c0-3.8846,0-7.7692,0-11.6537c0-0.6435-1-0.6445-1,0 c0,3.8846,0,7.7692,0,11.6537C5.0108,49.3646,6.0108,49.3657,6.0108,48.7212z M10.4949,63.4108c0,4.1458,0,8.2915,0,12.4372 c0,0.6435,1,0.6445,1,0c0-4.1457,0-8.2914,0-12.4372C11.4949,62.7674,10.4949,62.7663,10.4949,63.4108z M10.1685,207.1731 c0,2.568,0,5.1359,0,7.7039c0,0.6434,1,0.6445,1,0c0-2.568,0-5.1359,0-7.7039C11.1685,206.5296,10.1685,206.5286,10.1685,207.1731z M10.1685,160.0358c0,2.5679,0,5.1359,0,7.7039c0,0.6434,1,0.6445,1,0c0-2.5679,0-5.1359,0-7.7039 C11.1685,159.3923,10.1685,159.3913,10.1685,160.0358z M6.3372,143.5834c0-2.655,0-5.31,0-7.965c0-0.6434-1-0.6445-1,0 c0,2.655,0,5.3101,0,7.965C5.3372,144.2269,6.3372,144.2279,6.3372,143.5834z M12.9966,120.08c0-4.7007,0-9.4014,0-14.1021 c0-0.6434-1-0.6445-1,0c0,4.7007,0,9.4014,0,14.1021C11.9966,120.7235,12.9966,120.7246,12.9966,120.08z M5.4232,102.5831 c0-4.1349,0-8.2697,0-12.4045c0-0.6435-1-0.6445-1,0c0,4.1348,0,8.2697,0,12.4045C4.4232,103.2265,5.4232,103.2276,5.4232,102.5831z M95.2052,16.2688c0.0001,0,0.0001-0.0001,0.0001-0.0001c-0.0007-0.0001-0.0011-0.0001-0.0018-0.0002 c-0.0001,0-0.0003,0.0001-0.0004,0.0001C95.2038,16.2686,95.2046,16.2687,95.2052,16.2688z M37.0021,6.0108 c3.8846,0,7.7692,0,11.6538,0c0.6434,0,0.6445-1,0-1c-3.8846,0-7.7692,0-11.6538,0C36.3587,5.0108,36.3576,6.0108,37.0021,6.0108z M75.7827,10.495c-4.1458,0-8.2914,0-12.4372,0c-0.6434,0-0.6445,1,0,1c4.1458,0,8.2914,0,12.4372,0 C76.4262,11.495,76.4272,10.495,75.7827,10.495z M117.4032,8.6876c2.451,0,4.902,0,7.353,0 c4.8336,2.152,9.9462,3.7917,15.205,3.6848c2.0397,1.7395,4.5178,2.946,7.1649,3.4048c0.5447,0.0944,1.188,0.2551,1.7356,0.1019 c0.5349-0.1496,0.8655-0.6835,0.6677-1.2207c-0.2185-0.5934-0.9292-0.8661-1.451-1.1214c-0.6332-0.3098-1.2831-0.5882-1.9434-0.835 c-0.7773-0.2906-1.5693-0.5293-2.3726-0.7215c3.4548-0.6431,6.7135-1.9785,9.9834-3.2928c1.6916,0,3.3832,0,5.0748,0 c6.375,0,12.75,0,19.125,0c2.9666,1.023,5.9545,2.0057,9.0699,2.4023c0.0895,0.0114,0.1774,0.0123,0.2667,0.0224 c0.0404,0.0515,0.0955,0.0976,0.1689,0.134c3.0723,1.5269,6.4159,2.4438,9.8423,2.6588c0.5588,0.0351,1.2626,0.1208,1.7062-0.3083 c0.5211-0.5041,0.1934-1.1836-0.2431-1.6121c-1.0095-0.9907-2.485-1.2016-3.8347-1.2915c-0.0941-0.0063-0.1885-0.0098-0.2827-0.0158 c2.3481-0.4851,4.6562-1.2194,6.9612-1.9898c7.3635,0,14.7271,0,22.0906,0c0.8202,0,1.6403,0,2.4605,0 c2.6609,0.9501,5.3699,1.7314,8.196,2.0942c4.7744,0.6129,9.5362-0.0751,14.1453-1.3587c0.793-0.2209,1.5786-0.4724,2.3612-0.7355 c8.2577,0,16.5154,0,24.7731,0c0.2438,0,0.4875,0,0.7313,0c2.3008,0.7728,4.5963,1.5176,6.8944,1.9973 c-1.2407,0.0735-2.5459,0.2197-3.5695,0.9631c-0.4733,0.3438-1.0626,0.898-0.8877,1.5463c0.1529,0.5666,0.7698,0.7332,1.2877,0.7415 c1.6685,0.0268,3.4257-0.3003,5.041-0.6883c1.8917-0.4545,3.7208-1.1357,5.4623-2.0012c0.1012-0.0503,0.1589-0.1213,0.1989-0.1978 c2.2258-0.2504,4.4216-0.778,6.6285-1.4772c0.8807-0.279,1.7591-0.5795,2.6378-0.8837c1.7041,0,3.4081,0,5.1122,0 c6.4056,0,12.8112,0,19.2167,0c2.6124,1.0779,5.2153,2.1889,7.8795,2.8721c0.6808,0.1746,1.3594,0.3076,2.0368,0.4198 c-0.6047,0.1437-1.2044,0.3088-1.7954,0.5091c-0.693,0.2349-1.3735,0.5074-2.0392,0.8109c-0.5759,0.2625-1.298,0.5209-1.7314,1.0016 c-0.3646,0.4042-0.3854,1.0078,0.0458,1.3713c0.4491,0.3786,1.0975,0.2573,1.6272,0.1835c1.332-0.1857,2.6215-0.5577,3.8561-1.0891 c1.4149-0.609,2.7142-1.4408,3.8801-2.4457c0.005-0.0043,0.0059-0.0094,0.0106-0.0138c4.962,0.0338,9.8135-1.3636,14.4996-3.3711 c0.1836-0.0787,0.3621-0.1685,0.545-0.2486c1.6057,0,3.2114,0,4.8171,0c0.874,0,1.748,0,2.622,0c0.6434,0,0.6445-1,0-1 c-1.7489,0-3.4978,0-5.2467,0c1.3216-0.6248,2.6337-1.2694,3.9322-1.9409c0.5718-0.2957,0.0667-1.1589-0.5048-0.8635 c-1.8597,0.9617-3.7781,1.9236-5.7425,2.8044c-5.4222,0-10.8444,0-16.2665,0c-4.0519,0-8.1039,0-12.1558,0 c-2.9791-1.2303-5.9698-2.4161-9.1559-2.9142c-0.6528-0.1021-1.2994-0.1522-1.9431-0.1783 c-0.0189-0.0064-0.0309-0.0186-0.0518-0.0233c-2.4141-0.5417-4.8448-1.0622-7.3155-1.2609c-1.1935-0.096-2.399-0.1146-3.5903,0.0204 c-0.9304,0.1054-2.136,0.1951-2.6289,1.1216c-0.1335,0.251-0.0516,0.5267,0.1794,0.6841c1.2874,0.8777,2.8681,0.9935,4.4027,0.9375 c-1.5698,0.4959-3.1313,1.0605-4.6946,1.6132c-6.897,0-13.7939,0-20.6908,0c-0.976,0-1.9518,0-2.9278,0 c-3.6919-1.2236-7.3795-2.5073-11.2081-2.9144c-3.7755-0.4015-7.0662,0.4578-10.5844,1.6812 c-1.2186,0.4237-2.4435,0.8395-3.6754,1.2333c-8.1494,0-16.2986,0-24.448,0c-2.5101-0.9669-4.983-2.1805-7.6003-2.7294 c-5.9346-1.2445-11.6092,0.825-17.2535,2.7294c-6.3967,0-12.7934,0-19.1901,0c-1.3772,0-2.7544,0-4.1316,0 c-1.6151-0.5574-3.2308-1.1239-4.864-1.6224c1.6003,0.0743,3.2684-0.0099,4.6156-0.9283c0.23-0.1567,0.3138-0.4313,0.1794-0.6841 c-0.4787-0.9-1.6216-1.0005-2.5283-1.1094c-1.2244-0.147-2.4633-0.1313-3.6909-0.0326c-2.4707,0.1987-4.9015,0.7192-7.3155,1.2609 c-0.0923,0.0207-0.1599,0.0625-0.2152,0.1127c-2.4305,0.1519-4.7572,0.7719-7.1823,1.6463 c-1.1765,0.4242-2.3405,0.8884-3.5034,1.3569c-4.3019,0-8.6038,0-12.9058,0c-5.228,0-10.4561,0-15.6841,0 c-1.9708-0.8729-3.9105-1.8144-5.825-2.8044c-0.5708-0.2952-1.0772,0.5675-0.5047,0.8635c1.2657,0.6545,2.5578,1.3099,3.8726,1.9409 c-1.7291,0-3.4581,0-5.1871,0C116.7598,7.6876,116.7588,8.6876,117.4032,8.6876z M147.716,14.4708 c0.2601,0.1298,0.5702,0.2598,0.7937,0.4572c-0.014,0.0012-0.0275,0.0069-0.0417,0.0064c-0.1337-0.0161-0.2747-0.0091-0.41-0.0241 c-2.1691-0.2406-4.2754-1.0542-6.0926-2.2714c1.2524,0.2006,2.4873,0.5149,3.6799,0.945 C146.3524,13.839,147.0433,14.1352,147.716,14.4708z M196.6767,11.9563c0.3187,0.0895,0.6271,0.2075,0.9109,0.3797 c0.1943,0.1179,0.3546,0.2567,0.5187,0.4119c0.1523,0.144,0.1984,0.1241,0.0318,0.1798c-0.3203,0.107-0.8175-0.0189-1.1442-0.0434 c-0.4321-0.0324-0.8635-0.0753-1.2933-0.1312c-0.881-0.1143-1.7558-0.2827-2.6187-0.4933c-0.8914-0.2175-1.768-0.4855-2.6272-0.8009 c1.3521,0.0689,2.7042,0.1366,4.056,0.2103C195.2389,11.7089,195.9713,11.7581,196.6767,11.9563z M284.9554,12.2598 c-0.8628,0.2109-1.7378,0.3787-2.6187,0.4933c-0.3966,0.0516-0.7949,0.0922-1.1935,0.1237c-0.3499,0.0276-0.897,0.1599-1.244,0.0508 c-0.1595-0.0501-0.1863,0.0396,0.0318-0.1798c0.1396-0.1405,0.285-0.2627,0.4521-0.3697c0.3029-0.1937,0.6329-0.3246,0.9775-0.4219 c0.7048-0.1989,1.4382-0.2477,2.166-0.2871c1.3516-0.0732,2.7035-0.1412,4.0553-0.2103 C286.7229,11.7742,285.8465,12.042,284.9554,12.2598z M329.9794,14.9103c-0.117,0.013-0.2379,0.0313-0.3562,0.0264 c-0.0316,0.002-0.0615-0.0074-0.0922-0.0112c0.2247-0.1974,0.529-0.3245,0.7903-0.4548c0.6729-0.3354,1.3634-0.6321,2.0707-0.8869 c1.1929-0.4297,2.4275-0.7443,3.6798-0.9449C334.2547,13.8562,332.1485,14.6697,329.9794,14.9103z M333.5057,8.6876 c5.7401,0,11.4802,0,17.2202,0c-4.7265,1.8926-9.6957,3.1258-14.779,2.5494c-3.0981-0.3513-5.9987-1.391-8.8643-2.5494 C329.2237,8.6876,331.3647,8.6876,333.5057,8.6876z M301.2471,4.6082c0.2747-0.1228,0.6047-0.1683,0.8797-0.2125 c0.494-0.0794,0.9937-0.1221,1.4933-0.1442c1.073-0.0475,2.1492,0.0087,3.2167,0.1198c0.819,0.0853,1.6322,0.2125,2.4431,0.3545 c-1.0051,0.0808-2.0101,0.1624-3.0153,0.2413C304.6385,5.0948,302.7736,5.3118,301.2471,4.6082z M310.6634,5.7382 c3.9263-0.4957,7.6049,0.5574,11.2227,1.9494c-4.3961,0-8.7921,0-13.1882,0c-1.9124,0-3.8248,0-5.7372,0 C305.4812,6.8366,308.0274,6.071,310.6634,5.7382z M296.9082,8.6876c-2.1199,0.6784-4.2548,1.2374-6.4302,1.4653 c-3.8373,0.402-7.4961-0.3777-11.1119-1.4653C285.2135,8.6876,291.0609,8.6876,296.9082,8.6876z M258.9226,6.0713 c4.9014-1.1614,9.6878,0.0688,14.4349,1.6163c-6.5467,0-13.0933,0-19.6399,0C255.4357,7.0797,257.1581,6.4895,258.9226,6.0713z M241.493,9.8296c-4.1373,0.465-8.2159-0.0066-12.1819-1.142c6.0145,0,12.0292,0,18.0437,0 C245.4289,9.1964,243.4793,9.6063,241.493,9.8296z M212.4378,5.7644c2.1769-0.2774,4.4296-0.2618,6.5656,0.2845 c1.322,0.3381,2.5905,0.8823,3.8546,1.3875c0.2125,0.085,0.4258,0.1672,0.6386,0.2511c-6.2965,0-12.5931,0-18.8896,0 C207.1798,6.8515,209.7717,6.1042,212.4378,5.7644z M198.383,8.6876c-1.4213,0.4355-2.8431,0.8235-4.2695,1.1018 c-4.4702,0.8723-8.6632,0.2314-12.9528-1.1018C186.9015,8.6876,192.6422,8.6876,198.383,8.6876z M174.4171,4.2516 c0.4997,0.0221,0.9994,0.0648,1.4933,0.1442c0.275,0.0442,0.605,0.0898,0.8796,0.2125c-1.5264,0.7035-3.3915,0.4868-5.0175,0.3589 c-1.0052-0.079-2.0103-0.1606-3.0153-0.2413c0.8108-0.142,1.624-0.2692,2.4431-0.3545 C172.268,4.2602,173.3441,4.204,174.4171,4.2516z M161.4209,6.0227c4.324-1.0757,8.7303,0.075,12.8585,1.4176 c0.2467,0.0802,0.4929,0.1649,0.7394,0.2473c-6.2448,0-12.4896,0-18.7344,0C157.9698,7.0454,159.6725,6.4577,161.4209,6.0227z M151.1187,8.6876c-1.3936,0.5486-2.7934,1.0783-4.2228,1.5172c-3.1378,0.9634-6.386,1.3746-9.6608,1.0731 c-3.3914-0.3123-6.6942-1.3263-9.8548-2.5903C135.2931,8.6876,143.2059,8.6876,151.1187,8.6876z M214.8117,10.1685 c-2.568,0-5.1359,0-7.7039,0c-0.6434,0-0.6445,1,0,1c2.568,0,5.1359,0,7.7039,0C215.4551,11.1685,215.4562,10.1685,214.8117,10.1685 z M167.6743,10.1685c-2.5679,0-5.1359,0-7.7039,0c-0.6435,0-0.6445,1,0,1c2.5679,0,5.1359,0,7.7039,0 C168.3178,11.1685,168.3189,10.1685,167.6743,10.1685z M135.5531,6.3372c2.655,0,5.31,0,7.965,0c0.6434,0,0.6445-1,0-1 c-2.655,0-5.31,0-7.965,0C134.9096,5.3372,134.9085,6.3372,135.5531,6.3372z M120.0147,11.9965c-4.7007,0-9.4014,0-14.1021,0 c-0.6434,0-0.6445,1,0,1c4.7007,0,9.4014,0,14.1021,0C120.6582,12.9965,120.6593,11.9965,120.0147,11.9965z M90.1133,5.4232 c4.1348,0,8.2697,0,12.4045,0c0.6434,0,0.6445-1,0-1c-4.1349,0-8.2697,0-12.4045,0C89.4698,4.4232,89.4687,5.4232,90.1133,5.4232z" fill="inherit"/></g></svg>