<?xml version="1.0" encoding="UTF-8"?><svg xmlns="http://www.w3.org/2000/svg" xmlns:xlink="http://www.w3.org/1999/xlink" clip-rule="evenodd" fill-rule="evenodd" height="423.1" image-rendering="optimizeQuality" preserveAspectRatio="xMidYMid meet" text-rendering="geometricPrecision" version="1.0" viewBox="0.0 -0.0 378.8 423.1" width="378.8" zoomAndPan="magnify"><g id="change1_1"><path d="M376.9 397.3c1,0 1.9,0.8 1.9,1.8 0,1 -0.9,1.8 -1.9,1.8l-21.5 0 0 20.4c0,1 -0.8,1.8 -1.8,1.8 -1,0 -1.8,-0.8 -1.8,-1.8l0 -20.4 -324.9 0 0 20.4c0,1 -0.8,1.8 -1.8,1.8 -1,0 -1.8,-0.8 -1.8,-1.8l0 -20.4 -21.5 0c-1,0 -1.8,-0.8 -1.8,-1.8 0,-1 0.8,-1.8 1.8,-1.8l21.5 0 0 -371.5 -21.5 0c-1,0 -1.8,-0.8 -1.8,-1.8 0,-1 0.8,-1.8 1.8,-1.8l21.5 0 0 -20.4c0,-1 0.8,-1.8 1.8,-1.8 1,0 1.8,0.8 1.8,1.8l0 20.4 324.9 0 0 -20.4c0,-1 0.8,-1.8 1.8,-1.8 1,0 1.8,0.8 1.8,1.8l0 20.4 21.5 0c1,0 1.9,0.8 1.9,1.8 0,1 -0.9,1.8 -1.9,1.8l-21.5 0 0 371.5 21.5 0zm-350 0l13.8 0 0 -13.3 -13.8 0 0 13.3zm17.4 0l290.1 0 0 -13.3 -290.1 0 0 13.3zm293.8 0l13.7 0 0 -13.3 -13.7 0 0 13.3zm13.7 -371.5l-13.7 0 0 13.4 13.7 0 0 -13.4zm-17.4 0l-290.1 0 0 13.4 290.1 0 0 -13.4zm-293.7 0l-13.8 0 0 13.4 13.8 0 0 -13.4zm297.4 17l0 337.6 13.7 0 0 -337.6 -13.7 0zm-3.7 168.8l0 -168.8 -290.1 0 0 337.6 290.1 0 0 -168.8zm-293.7 0l0 -168.8 -13.8 0 0 337.6 13.8 0 0 -168.8z" fill="#cfb776" fill-rule="nonzero"/></g></svg>