<?xml version="1.0" encoding="UTF-8"?><!DOCTYPE svg PUBLIC "-//W3C//DTD SVG 1.0//EN" "http://www.w3.org/TR/2001/REC-SVG-20010904/DTD/svg10.dtd" []><svg xmlns="http://www.w3.org/2000/svg" xmlns:xlink="http://www.w3.org/1999/xlink" height="6076" preserveAspectRatio="xMidYMid meet" version="1.2" viewBox="675.7 806.0 4248.7 6076.2" width="4249" zoomAndPan="magnify"><g id="change1_1"><path d="m2253.1 2134.5c67.1 0 137.7-5.9 204.2 3.3 52.9 7.3 102.4 24.5 155.9 29.3 92.2 8.2 186.4 3.6 278.9 3.6q94.3 0 188.6 0c73.2 0 142.8-6.2 207.1 34.6 27.6 17.5 44.4 44.7 59.7 72-7.7-6-14.4-9.5-20-10.4l1217.3 4054.4c48.3 73.9 148.4 9.5 213.2-59.8l20.6 0.2c49.9 6-50.3 41.5-102.7 79.8-79.4 58-76.8 64.3-163.1 110-114.3 60.4-117.3 70.9-243.9 90.7-81.2 12.7-87.9-17.9-166.8 1-82.8 19.8-74.4 50.4-155.8 79.7-158.1 57-166.5 43.7-335.5 55-93 6.2-94.9-10.4-187 0-306.1 34.7-295.8 149.5-600.5 159.5-180.5 6-183.8-16.3-364.8-47.7-243.3-42-238.1-73.3-482.2-109-122.2-18-124.1-5.4-246.5-23-125.6-17.9-133-2-249.4-48.5-73.5-29.5-66.4-47.6-139.3-79.8-160.7-71-188.8-12.4-341.9-92.6-141.6-74.1-323.5-178.5-288.7-220.9-8.3-10.7-15.3-22.4-19.6-36.6-10.5-34.9-6.9-107.7 7.1-142.3 11.2-28.2 25.8-55.5 37.2-83.7 5.8-14.5 5.7-30.9 10.8-45.8 8.2-23.7 19-46.9 30.1-69.6-43.8 208.5-81.2 405.4-48.3 358.8l1452-3958.2c16.5 0.6 33.2 3 47.7-5 39-21.9 34.4-55.4 94-68m-1543.2 3668c11.9-24.4 32.8-38.1 47.1-60.3 14.7-23 22.6-55.4 29.9-80.9 19.1-67.1 39-133.8 58.1-200.8 10.1-35.4 15.9-71.6 27.4-106.5 18.9-57.7 42.7-113.7 63-170.9 32.2-90.8 61.7-182.5 94.7-273 21.4-58.8 65.1-104 86.5-161.8 31-83.7 49.6-171.5 77.3-256.1 15-45.7 37.3-88.6 51.1-134.8 38.6-128.8 64.6-261.8 112.1-388.2 16.7-44.2 36.9-86 62.1-126.2 8.4-13.5 35.4-52 42-64.5 25-48.5 31.5-78.8 47.7-133.3 31.4-105.4 51.2-214 86-318.3 25.7-77.1 59.8-147.9 91.8-222.4 47.9-111.8 87.3-228.7 118.7-346.3 15.1-56.8 26.3-113.5 47.7-168.5 28.8-73.8 68.8-142.8 108.1-211.4 20.3-35.7 75.2-137.3 112.4-162.5 11.7-8 24.7-8.7 37.8-8.3l7.4-20.2c-1.1-76.5-177.3 181.8-304.4 393.3-152.1 253.3-117 274-235.5 547.2-115.3 265.7-128.4 260.8-232 530.8-230.1 600-193.8 613.8-379.5 1230.1-116.5 386.8-144.4 380.6-229.1 774.6-10.1 46.6-20.5 95.4-30.6 143.6q1.1-2.2 2.2-4.4zm2569.2-3556.2c88.6 69.1 306.1 466.5 508 909 146.5 321.1 127.7 330.5 247.5 663.7 180.1 501 193.5 497.4 344.7 1007.4 115.5 389.7 108.9 392.1 204.4 787.4 70.4 291.4 272.3 402.6 132.9 584.9-8 10.4-17.1 21.1-27 31.8l-199.4-2.8c6.2-13.5 11-27.6 15.7-39.6 39.2-100.8 39.8-208.5 17.7-313.7-16-76.5-43.6-153-80.1-222.3-21.4-40.7-50.9-75.4-69.6-117.7-43.6-98.1-50.5-208.8-74.9-311.9-23.4-97.9-60.2-193.2-69-294.4-2.7-32.3 0.9-64.7-5.5-96.6-9.6-48.3-35.4-90.2-45.3-138.2-8.8-42.6-9.5-87.1-22-128.9-15.5-51.4-46.1-95.8-62.6-147.1-52.5-161.9-68.7-333.8-127.5-494-50.1-136.8-140.3-250.2-198.2-382.5-30.8-70.2-37.6-147.4-57.7-220.7-4.6-16.6-0.8-34.9-7.8-50.9-8.4-19.3-20.5-36.5-28.3-56.2-30.5-77.4-56.5-155.9-86.9-233.2-17.6-44.7-41.3-87.3-57.2-132.6-24.8-70-30.6-146.3-52.9-217.1-17.4-55.2-44.6-112.9-78.9-159.5-9.6-12.9-20.8-24.1-29-38.3-12.5-21.6-14.7-47.6-27-68.6-12.8-21.5-28.1-40.4-41.7-61.9-9.9-15.7-9.8-32.8-18.2-47.9q-2.1-3.8-4.2-7.6z" fill="#f6f6ef" fill-rule="evenodd"/></g><g id="change1_2"><path d="m870.6 5547.8c0 40.1-0.6 76.4-14.1 114.9-16.4 46.4-48.5 86.2-59.2 134.6-2.3 10.2 1.9 22.6-1.9 32.3-7.1 17.9-17 38.7-19.5 57.9-6.1 47.1-7.3 93.7-21.4 139.4-4.1 13.3-8.6 27.1-10.9 40.8-2.7 15.5-1.1 31.7-4.5 47-2.1 9.5-6.2 18.5-8.1 28-3.3 15.4-4.3 30.2 13.8 33.4 42 7.5 97.8 8.5 136.8-10.2 86.4-41.2 139.7-134.6 166.1-223 26.3-88.2 17.6-190.3-7.7-277.5-11.9-40.9-34.6-76.6-50.9-115.6-10.2-24.3-7.5-54-15.8-72.8-5.1-11.2-45.6-24.5-53.7-15.1-11.8 13.9-14.3 37.3-14.6 54.9" fill="#f6f6ef" fill-rule="evenodd"/></g><g id="change1_3"><path d="m781.2 5830.7c0 24.6-1.6 48.6-8.3 72.5-3.9 14.1-14.6 24.6-19.4 38.3-5.3 15.2-3 33-3 48.9 0 9.6 1.1 19.9-0.2 29.4-0.7 4.6-3.9 9.4-3.4 14.1 0.4 3.1 3 4.7 5.9 5.1 22.9 3 35.3-19.8 42.7-37.3 18.1-43.3 31.9-92.5 22.5-139.6-2.9-14.8-8-29-10.6-43.8-1.2-6.6-0.8-15-4.6-20.9-3.9-6.1-9.3-0.7-11.5 3.2-6.4 11.6-11.6 24-11.7 37.3" fill="#f6f6ef" fill-rule="evenodd"/></g><g id="change1_4"><path d="m774 5873.8c-6.2 11.9-9.3 25.8-9.6 39.1-0.1 5.1 2.8 12.4 9.5 11.3 6.1-1.1 9-6.1 12-11.1 8.4-14.1 18.5-35.9 6-50.8-0.4-0.4-7.5-9.3-10.8-9.5-3-0.2-7.6 7.1-8.1 7.8-4.2 6.2-7.5 18.6-4.1 26" fill="#f6f6ef" fill-rule="evenodd"/></g><g id="change1_5"><path d="m1064.3 4932.6c0-20.9 1.5-38.8-13.3-55.4-3.1-3.4-11.8-11.7-17-5.7-10.4 12.1-25 79.8-27.8 89.2-23.5 79.4-44.8 159.9-72.7 237.5-7 19.3-15.1 38.2-22 57.5-1 2.8-6.6 14.7-5.4 18.4 1.7 6 6.3-10.6 9-16.2 11.7-24.2 23.3-48.5 34.8-72.9 35.4-74.2 68.6-158.2 115.1-227.8" fill="#f6f6ef" fill-rule="evenodd"/></g><g id="change1_6"><path d="m929.8 5209.9c-1.8 12.6-6.1 24.9-7 37.7-0.3 4.1-1 8.5 0.4 12.3 0.9 2.3 3.6 6 5.7 4.7 14.6-8.5 23.8-45.5 25-54.5 1.1-8.9-0.4-18.5-4.1-26.6-1.2-2.6-6.1-2.8-8.6-1.2-5.9 3.6-11.4 21.2-12.9 26.2-1.3 4.1-2 8.3-3 12.5" fill="#f6f6ef" fill-rule="evenodd"/></g><g id="change1_7"><path d="m978.9 5156.6c-2.5 38.5-21.3 74.9-33.6 110.8-16.1 47-32.4 94.9-45 143-11.4 43.4-29.8 115.7-17.2 158.9 20.7 71 82.5 84.6 135.1 35 24-22.6 39.3-43.9 56.2-72.7 55.2-93.9 87.2-195.9 120.8-298.8 29.2-89.5 59.2-179.6 78.2-271.9 6-29.3 14.7-90.1 19.2-119.3 7.6-49.5 21.4-103.5 12.3-153.9-4-22.5-11.2-55-34.6-66.1-12.8-6.1-38.5-13.1-51.9-5.1-27.8 16.5-52.2 68-62.8 95.7-42 109.4-47.3 228.9-89.8 337.8-15 38.2-36.3 72.8-58.3 107.4-18 28.3-43.4 54.3-50 88.1" fill="#f6f6ef" fill-rule="evenodd"/></g><g id="change1_8"><path d="m1059.6 4997.9c0 22.9-4.2 45.3-3.1 68.3 0.7 17.1 1.2 66.9 31.3 53.6 7-3.1 13.7-6.9 19.5-11.9 8.7-7.4 16.7-15.7 23.6-24.8 15.9-20.9 28.1-43.1 33.9-68.9 7.7-34.8-0.5-85.4-33.6-106.2-12.6-7.9-20.3-0.8-29.3 9.4-28.8 33-44.7 68.8-45.8 112.3" fill="#f6f6ef" fill-rule="evenodd"/></g><g id="change1_9"><path d="m1056.1 5029.7c-37 4.5-45.4 55.1-48.8 84-1.1 9.2-4.3 34.7 11 36.8 34.9 4.9 78.7-27 84.1-62 3.4-22.1-18.3-58.4-41.9-62.7-2.5-0.5-9.8 0.4-13 0.7" fill="#f6f6ef" fill-rule="evenodd"/></g><g id="change1_10"><path d="m1424.7 3894c-3 39.9-28.7 84.2-44.3 119-26 57.7-51.8 115.9-81.2 172.1-20.2 38.5-42.7 76.2-57.8 117.2-20.2 54.8-25.7 110.3-34.9 167.3-7.4 45.2-28.2 139.4 32.7 156.5 6.8 1.9 13.8 3.2 20.8 4.5 11.7 2 23.2 1 34.8 2.5 5.7 0.7 15.9 9.7 24.8 11.2 4.8 0.7 12.3 0.8 16.6-2.1 21.4-14.5 42.8-49.6 51.8-67.3 18.1-35.8 34.4-72.7 47.3-110.7 39.8-117.5 67.5-244.4 81.2-368 6.1-55 13.7-110.2 27.6-163.8 2.3-9.1 18.8-44.7 10.4-53.7-36.2-38.6-127.1-33.8-151.1 17.9-14 30-7.1 62.9 1.5 93.2" fill="#f6f6ef" fill-rule="evenodd"/></g><g id="change1_11"><path d="m1264.6 4545.7c-3.2 5.1-8.1 6.2-11.3 12.4-9.9 18.7-9.9 41.1-9.3 61.7 1.3 47.4 12.3 71.4 48.5 103.5 19.2 17 40.3 26.9 65.9 17.1 89.4-34 98.9-157.7 31.6-218.9-10.6-9.7-25-12.1-38.5-13.2-36.8-3-62.4 18.7-76.1 50.6" fill="#f6f6ef" fill-rule="evenodd"/></g><g id="change1_12"><path d="m1137.6 4502.8c0 9.7-0.4 19.6-3 29-2.3 8.1-4.2 12-8.3 19.6-8.2 15.6-19.8 24.2-16.9 44.2 0.9 6.5 5.4 14.3 11.7 16.9 19.1 7.9 39-13.4 48.4-26 9.5-12.8 20.4-34.6 17.3-51.8-3.2-17.6-31.2-25.2-46.3-23.8" fill="#f6f6ef" fill-rule="evenodd"/></g><g id="change1_13"><path d="m1171.2 4382.7c-0.1 3.5-0.3 6.8-1 10.3-1.9 10-5.6 19.7-8.1 29.5-3.1 12.3-9.1 22.6-13.1 34.5-5.6 16.5-6.5 36.9-6.5 54.3 0 10.8 1 29.9 16.9 29.6 5.6-0.2 9.3-8.5 10.9-11.5 9.4-17 13.9-28.8 20.2-47.6 11.3-33.4 17.9-68.5 26.3-102.6 7.6-30.6 20.7-61 21.1-92.9 0.1-7.9 0.1-15.7 1.1-23.5 2-14.8 12.3-28.4 12.5-42.9 0-4.6 1.3-12.8-4.1-15-11.2-4.7-23.5 6.3-27.5 16.4-3 7.6-3.6 16-5.4 24-6.4 27.1-13.4 55-24.2 80.7-5 12.1-10 24.3-14 36.7-1.3 4-2.6 8.1-3.7 12.1-0.5 1.7-1.3 7-1.4 7.9z" fill="#f6f6ef" fill-rule="evenodd"/></g><g id="change1_14"><path d="m1233 4194.2c-0.2 12.5-4.8 24.3-5.9 36.7-0.1 0.7-2.1 13.6 1.6 12.6 5.5-1.5 11.5-10.2 14.3-14 3-4.1 5.7-8.4 8.4-12.7 6-10 26-37.2 13.3-50.3-18.2-18.7-31.4 4.5-36.4 20.6-0.8 2.5-4.7 13.9 0.1 14.8" fill="#f6f6ef" fill-rule="evenodd"/></g><g id="change1_15"><path d="m1586 3560.4c-11.2 25.4-36.2 81.7-42.5 96.6-14.7 34.6-29.5 69.1-43.4 104-9.1 22.6-18 45.3-25.6 68.4-4.7 14.3-8.5 28.9-11.3 43.7-7.4 40.3-9.6 120.4 48.6 126.6 23.6 2.5 58.1 3 77.1-14.6 55.3-51.4 71.6-147.7 81.7-215.5 8.6-57.7 14.8-115.9 17.4-174.2 1.3-27.4-1.2-54.9-5.8-81.9-7.3-43-35.6-32.4-59.7-13.7-34.5 26.9-47.4 44.8-57.2 84.9" fill="#f6f6ef" fill-rule="evenodd"/></g><g id="change1_16"><path d="m1498.9 3905.1c0 20.4-0.1 40.8 0 61.2 0 19.2-1.8 41 12.2 56.2 10.6 11.5 31.2 26 48.1 18.3 16.6-7.6 25.2-25 31-41.4 8.1-22.6 14.7-53 8.9-77.8-9.4-39.4-60.5-59.3-96.6-45.7-20.7 7.7-34.8 28.5-49.9 43.4" fill="#f6f6ef" fill-rule="evenodd"/></g><g id="change1_17"><path d="m1454.8 3571.8c-0.2 11.6-12.1 21-16.3 31.1-2.2 5.4-1.6 10.6-2.7 16-1.9 9.4-6.1 19.3-8.6 28.6-4.3 15.6-13.3 29.2-17.6 44.8-2.8 10.1-6.2 20.4-8 30.7-0.3 1.7-2.6 8.2 1.2 8.4 7.8 0.4 23.5-27.6 26.4-32.9 15.6-29 24.8-65.7 32.2-97.7 2-8.6 2.3-17.1 3.3-25.7 0.4-3.1 2.2-8.1 0.5-11.1-4.7-7.9-12.8 9.8-12.9 14.3" fill="#f6f6ef" fill-rule="evenodd"/></g><g id="change1_18"><path d="m1397.8 3713.3c-1 10.9-9.3 19.9-10.5 30.9-0.3 3.1-0.8 10.2 3.6 10.7 5.8 0.7 12.3-8.9 14.9-12 5.3-6.5 13.9-20.4 11.4-29.8-0.8-2.9-3.9-3.6-6.6-3.7-7.5-0.6-11 3.8-15.2 9.6" fill="#f6f6ef" fill-rule="evenodd"/></g><g id="change1_19"><path d="m1623.6 3306.4c-0.3 26.3-10.2 50.9-16.7 76.1-7.7 29.5-14.5 59.6-18.8 89.7-2 13.9-3.6 27.8-5.1 41.7q-2.3 21.7-3.9 43.5c-2.2 31.1-4.1 105.9 48.5 95.1 9.3-1.9 18.5-5.2 26.9-9.8 14.4-7.9 27.8-17.6 40.9-27.5 19.8-15.1 70.1-56.5 89.5-78.2 58.5-65.1 88.7-160.3 93.3-246.9 2.1-39.6 4.1-116-32.9-141.2-34-23.2-79.1 22-99.8 41.6-63.3 60.1-106.7 139.9-131.8 222.8" fill="#f6f6ef" fill-rule="evenodd"/></g><g id="change1_20"><path d="m1793.4 2921.2c-6.3 24.4-18.6 47.9-27.1 71.4-24.8 68.7-47 138.4-66 208.9-5.5 20.2-11.6 42.8-12.7 64.1-0.3 4.4-0.8 15.1 4.6 18.2 15 8.5 43.1-0.2 53.7-5.8 40-20.9 69.5-53.5 97.4-88 54.9-67.9 114.9-183.8 123-273 2.2-25.2 5.9-86.1-11.4-106.8-33-39.7-82.9 21.3-101.6 41.8-7.7 8.5-14.8 17.4-21.6 26.6-11.9 15.9-21.2 33.9-31 51.2-2.7 4.6-6 15-9.4 6.3" fill="#f6f6ef" fill-rule="evenodd"/></g><g id="change1_21"><path d="m1918.5 2568.1c-0.2 23.3-35.3 81.1-44.8 100.8-24.2 50-40.6 99.1-44.8 154.9-1.7 22.6-8.9 76.8 23.2 85.8 12.7 3.6 24.9-2.5 36.2-8 35.4-17.1 55.9-30.4 86.4-55.5 90.2-74.2 161.7-188.6 181.7-304 3.8-21.4 6.4-43.1 8.5-64.7 1.3-14.9 2-29.8 1.7-44.8-0.1-7.4-1.2-14.9-2.8-22.2-5-22.6-28.1-26.5-47.4-21-33.5 9.4-65.3 32.6-90.2 56.5-8.1 7.8-16 16-23.7 24.2-9.2 9.7-18.3 19.6-27.1 29.7-30.4 34.7-66.3 77.2-78.6 122.8" fill="#f6f6ef" fill-rule="evenodd"/></g><g id="change1_22"><path d="m2135.7 2280.5c-26.3 2.6-47.8 25.1-65.7 42-34.2 32.2-66.8 66.5-84.7 110.6-11.5 28.2-36.3 90.7 3.3 110.7 23.9 12 54.4-1.9 75.6-12 51-24.4 87.8-82.8 115.1-129.7 8.8-15.2 17.5-30.5 24.5-46.6 8.9-20 16.4-40.7 23-61.5 8.1-25.3 14.7-50.9 21.1-76.6 2.6-10.6 12.4-42.8 3-48.5-12.3-7.3-35.1 12-43.2 18.6-22.7 18.4-41.8 42.2-59.8 65.1-9.5 12.1-16.9 27.6-28.4 38.2" fill="#f6f6ef" fill-rule="evenodd"/></g><g id="change1_23"><path d="m3351.9 2268.6c-26.2-0.3-52.1-13-78.2-2-31.2 13.1-32.8 55.7-34.4 83.4-4.6 76.7 50.1 161.7 98.1 217.9 23.5 27.5 48.4 37.7 84 40.6 11.6 1 31.8 4.5 43-2.4 10.6-6.5 23.6-20.3 30.2-29.1 9.4-12.6 19.2-29.9 21.4-46.2 4.6-34.6-14.5-95.5-36.1-124.3-8.2-11-20-20-29.5-29.9-16.7-17.6-32.1-36.3-48.9-53.9-33.8-35.4-45-52.9-91-63.4" fill="#f6f6ef" fill-rule="evenodd"/></g><g id="change1_24"><path d="m3329.6 2238.9c-12.4 0-34.9-3.1-45.5 1.9-4.9 2.3-7.2 6.4-9.7 11-13.2 24.1-2.6 60.8 25.1 69.3 28.6 8.8 42.4-24.4 43-46.8 0.3-8.1 1.8-19.4-3.8-26.2-5.8-7-13.7-8.5-22.1-9.8" fill="#f6f6ef" fill-rule="evenodd"/></g><g id="change1_25"><path d="m3489.3 2406.9c18.6 7.4 25.5 34.1 35.1 48.5 5.1 7.6 13.4 13.3 18.1 21.1 17.5 29 34.3 56 46.6 88.6 7 18.3 12.2 37.5 17.2 56.4 6.8 26 7.6 55.8 16.9 80.7 1.8 5 6.4 15.2 6 20.5-0.1 0.5-0.5 1-1 1.1-20.3 5.5-50.2-4.1-70.1-6.5-37.1-4.4-74.1-6.3-111.4-8.7-14.2-1-40.2 0.4-51.1-12-29.4-33.5-28.4-88.2-34.6-129.6-4.5-30.6-19.7-60.7-19.9-91.8-0.3-49.1 57.2-75.4 100-76.3 8.4-0.1 39.5 4.6 48.2 8z" fill="#f6f6ef" fill-rule="evenodd"/></g><g id="change1_26"><path d="m3638.2 2857.5c-10-71-76.7-165.3-130.8-209.7-24.9-20.5-53.2-44.4-87-49.1-33.4-4.6-57.5 21.5-72.9 47.2-38.5 64.1-31.6 144.1-6.7 212.1 23.9 65 61.1 115.8 108.4 166.8 34.2 37.1 92.4 90.3 140.3 120.3 6.5 4.1 13.7 7.6 21.2 8.7 29.1 4.2 43.8-58.4 44.9-71 8.6-104.7-39.5-210.9-87.6-300.9" fill="#f6f6ef" fill-rule="evenodd"/></g><g id="change1_27"><path d="m3573.4 2554.5c4.7 0 10.4-0.8 14.5 1.9 9.7 6.1 23.4 33.3 26.7 44.3 18.8 63.2 36.2 126.7 59.9 188.3 8.9 23.2 16.4 46.8 25.2 70 9.3 24.3 22.2 45.6 23.9 72.3 1.6 24.6-26.8 41.8-47.3 47.7-53.1 15.3-91.9-19.7-125.9-58.5-56.1-64-93.2-126.3-96.1-211.5-0.8-22.7 0.1-47.4 7.6-69.2 8.9-25.8 29.3-81.4 55.1-95.7 7.3-4.1 15.2-3.5 22.7 0.4 3 1.6 29.1 10 33.7 10z" fill="#f6f6ef" fill-rule="evenodd"/></g><g id="change1_28"><path d="m3845 3219.3c-53-92.9-133.1-182.9-217.7-247.1-42.5-32.2-94.7-64.8-152-54.6-37.3 6.7-70.1 51.1-86.4 79.8-58.7 102.8-88.7 224.8-100.3 341.7-29.7 296.9 110.3 541 287.5 771 73.3 95.1 179.5 190.5 309.8 159.1 97.3-23.4 109.9-130.5 108-212.8-5.3-228.5-68.1-440.4-142-654.1-23.8-69-22.2-155.5-72.1-209.7" fill="#f6f6ef" fill-rule="evenodd"/></g><g id="change1_29"><path d="m4236 4426.9c0-29.3 0.8-59.5-4.9-88.4-32.8-164.4-138.5-381.4-255.5-501.4-67.5-69.3-174.9-196.5-298.1-133.1-54.6 28.1-92.4 83.4-124.3 135.8-205.8 338.3-109.7 827.6 26.9 1174.2 32.7 82.9 71.1 171.7 119.1 247.8 74.7 118.6 166.4 216.8 288.2 287.6 32.4 18.9 88 43.8 129.7 41.4 143.3-8.1 210.8-215.2 233.7-330.3 16.3-82.5 11.6-172.8 10.3-256.5-3.1-187.3-34.2-372.5-102.2-547.1-18.1-46.4-35.9-97.4-62.7-139.5" fill="#f6f6ef" fill-rule="evenodd"/></g><g id="change1_30"><path d="m3963.5 3950.8c6.6-32 7.4-62.7 7.5-95.5 0-17 1.3-35.5-3.2-52.1-6.8-24.6-23.3-45.8-38.3-65.9-6.5-8.8-13.4-17.4-20.2-26.1-12.9-16.6-37.6-55.1-62.8-29.6-19.2 19.4-26.5 42.9-30 70.2-9.4 73.3-3.6 133.3 47.6 189.4 30.4 33.3 66.2 50.8 110.6 49.2 13.7-0.5 31.2 0 40.3-13.5 9.3-13.8 9.9-41.4 11.5-55.9" fill="#f6f6ef" fill-rule="evenodd"/></g><g id="change1_31"><path d="m3816.1 3921c19.6 10.2 42.9 11.2 64.6 12.6 39.6 2.5 85.5 5.5 119.5-19.9 14.8-11 26.9-25.6 38-40.3 21-27.8 33.2-61.6 34.9-96.2 0.4-9.9 2.5-27.5-9.5-34.1-9.8-5.3-21-8.1-32.1-9.7-56.9-7.8-119.4-5-157.4 44.9-27.2 35.8-45.2 120.2-2.8 152.5 11.1 8.5 19.6 9.3 32.3 12.5" fill="#f6f6ef" fill-rule="evenodd"/></g><g id="change1_32"><path d="m4113.1 3827.6c-2.8-10.6-12.4-17.4-19.4-25.2-3.5-4.1-6.7-9-9.2-13.8-8-15.4-7.6-39.7-31.7-41.5-9.3-0.7-14.7 1.6-17.9 11.1-11.3 33.3 5.5 69.9 16.6 100.6 15.6 43.4 28.6 87.8 44.7 131.1 10.5 28.2 20 58.1 51.1 68.1 9.6 3.1 19.3 4.1 28.9 0.8 25.5-8.7 3.2-35.9-3.5-51.6-8.5-19.6-15.1-38.4-21.3-58.6-3.6-11.9-11.6-22.5-14.6-34.7-7.1-28.2-11.9-78.2-29-100" fill="#f6f6ef" fill-rule="evenodd"/></g><g id="change1_33"><path d="m4207.3 4095c0-18-7.1-30.2-18.7-44.3-2.1-2.6-17.9-21.2-22.3-10.4-21.5 53.6 12.9 109.1 38.8 153.5 4 7 9.5 12.5 13.8 19.2 3.2 5.1 4.9 12 9 16.3 2.7 2.9 9 2.4 12.5 1.8 6.7-1.2 4.1-22 1.8-26.9-13.2-27.3-21.4-52.7-29.2-81.6-3.8-13.9-2.2-31.9-11.4-43.6" fill="#f6f6ef" fill-rule="evenodd"/></g><g id="change1_34"><path d="m4260.5 4262.8c0-13-3.3-26.1-12.2-35.8-1.2-1.3-11.3-11.6-14.1-7.8-4.4 5.9-1.1 21.5-0.1 27.2 4 21.7 13.5 43.4 21.4 63.9 2.6 6.7 6.2 17.8 15.1 17.9 6.9 0.1 3.7-13.9 3.3-16.8-3.3-20.7-10.1-41-18.5-60.2" fill="#f6f6ef" fill-rule="evenodd"/></g><g id="change1_35"><path d="m4571.8 5644.1c-0.1-180.1-58.3-301-174.4-435.1-34.1-39.3-86.4-113.9-149.8-81.7-70.4 35.8-120.5 131-144.2 202.4-25.8 77.8-31.4 169.7-23.7 250.8 7.4 78 38.2 155.5 79.7 221.5 62.2 99 126.2 141.2 243.2 145.9 35 1.4 57.1-1.8 87-18.4 80.2-44.5 99.4-175.5 94.9-258.8-2.2-39.3-6.2-81.7-30.2-114" fill="#f6f6ef" fill-rule="evenodd"/></g><g id="change1_36"><path d="m4823.7 6134c0 17.1 2.1 35.8-2.9 52.3-11.9 39.3-68.4 95.4-96.9 120.5-37.5 33.1-72.7 62.3-118.4 81.3-43.4 18-100.2 29.6-143.1 3.5-38-23.1-58.5-90.7-72.4-127.7-14.7-39.3-27.8-91.7-17.7-134.2 19.8-83.4 101.4-145.5 177.6-174.1 32.2-12 70.7-19 104.5-9.5 32.6 9.2 57.4 38.5 78.2 63.5 21.1 25.4 42.1 50.8 64.5 75.2 3.1 3.4 27.6 26.2 27.1 28.4" fill="#f6f6ef" fill-rule="evenodd"/></g><g id="change1_37"><path d="m4649.8 5893.2c-14.4-28.8-20.4-77.1-56.4-89.2-23.1-7.7-66.1 24.7-76.5 32.4-50.9 37.7-89.6 66.9-116.5 124.5-12.5 26.8-17.9 65.1-0.8 92.2 37.8 60 143.4 61.8 193.9 19.3 35.1-29.6 53.7-85 60.6-127.1 5.2-31.5 2.2-94-29.6-116.3" fill="#f6f6ef" fill-rule="evenodd"/></g><g id="change1_38"><path d="m4661.2 5541.6c0-13.3-7.4-33.8-15.2-45.2-2.8-4.2-9.2-12.2-14.9-6.9-9.6 8.9-13.1 23.6-15.9 35.8-8 34.6-11.3 100.5 39.4 101.6 29.5 0.7 18.5-39 14.7-56.4-1.6-7.2-1.6-7.5-3.4-14.3-1.8-6.3-3.5-18.8-9-23.4" fill="#f6f6ef" fill-rule="evenodd"/></g><g id="change1_39"><path d="m4680.9 5643.3c-6.4-17.2-34.9-41.2-46.5-15.1-16.8 37.8-11.6 75.6 12.1 108.2 4.9 6.7 14.8 20.9 24.2 22.1 9.2 1.2 18.5-18.5 21.3-24.8 11.1-25.1 0.4-53.9-10.5-77.2-1.8-3.8-5.1-14.7-9.7-17" fill="#f6f6ef" fill-rule="evenodd"/></g><g id="change1_40"><path d="m4704.2 5752.2c0-11.7-1.6-23.8-9.7-32.9-8-8.9-17-19.7-27.1-7.6-1.7 2-3.3 4.2-4.6 6.6-1.1 2.2-2.1 4.6-2.6 7.1-1.7 7.6-1.4 20.1-0.8 27.2 0.9 10 3.2 19.2 7.2 28.5 3.7 8.7 12.8 30.3 24.3 32.1 9.4 1.5 12.2-9 14.1-16.2 3.6-13.5-0.8-25.3-2.2-38.7-0.5-4.3 1-15.2-2.1-19.2" fill="#f6f6ef" fill-rule="evenodd"/></g><g id="change1_41"><path d="m4729 5825.6c0-24-7.5-44-20.9-63.1-1.7-2.4-8.5-14.6-12.7-13.6-6.8 1.8-8.2 19.5-8.2 20.1 0.9 12.3 3.1 24.8 7.9 36.3 5.7 13.8 14.9 26 23.2 38.5 3.9 5.9 8.1 16.9 14.9 15 1.7-0.5 1.1-7.8 1.1-9.3 0-6.3-1.8-25.2-7.8-28.3" fill="#f6f6ef" fill-rule="evenodd"/></g><g id="change1_42"><path d="m4269.8 6528.2c-3.2 0-6.9-0.6-9.5 1.7-5.1 4.3-4.1 12.4 1.7 15.4 17.1 9 43.3 7.8 60.9 1.2 2.5-1 17-4.3 16.5-8.4-0.8-6.3-5.8-10.8-11.6-12.9-20.1-7.2-41-2-61.2 1.4" fill="#f6f6ef" fill-rule="evenodd"/></g><g id="change1_43"><path d="m4423.5 6486.1c-29.2 0-62.6 4.4-89.5 15.5-8.5 3.4-19.7 18.7-15.3 28.6 3.5 8 14 11.6 22.2 10.4 15.6-2.3 29.2-14.1 43.5-20.2 8.6-3.6 17.2 1.9 25.8-1.9 7.1-3.3 19.8-18.7 14.9-27.7-3-5.6-8.7-6.4-12.3-10.2" fill="#f6f6ef" fill-rule="evenodd"/></g><g id="change1_44"><path d="m4389.5 6505.9c-9.5 0-20.2-0.8-27.3 6.7-3 3.1-6.6 9.3-3.5 13.5 8.9 12.2 36.2 4.1 42-8 5.3-10.9-8-16.3-16.5-15.2-4.9 0.7-10.2 2.9-14.9 4.5" fill="#f6f6ef" fill-rule="evenodd"/></g><g id="change1_45"><path d="m4437.2 6478.8c-15.4 3.2-19 32 1.1 27.5 3.2-0.7 6.3-1.6 9.2-3 7.1-3.6 12-7.9 15.9-15 2.9-5.1 6.6-13.7 5-20.2-1.9-7.3-15.4-4.4-19.5-3.3-12.3 3-24.7 10.5-29.1 22.8" fill="#f6f6ef" fill-rule="evenodd"/></g><g id="change1_46"><path d="m4696.1 6317.5c-35.5 0-66.1 21.1-89.4 46.6-7.7 8.4-21.2 27.6-10.1 38.7 3.6 3.7 10.9 1.7 14.8 0.3 10.7-4.1 19.9-11.9 29.7-17.7 12.9-7.6 27.2-11.8 40.5-18.5 11-5.5 20.3-13.2 30.1-20.3 4.4-3.3 10.1-5.7 13.9-9.7 10-10.6 4.9-21.2-8.3-25.4-19.8-6.2-38.5 0.8-56.1 9.7" fill="#f6f6ef" fill-rule="evenodd"/></g><g id="change1_47"><path d="m4739.5 6296.3c-11.8 4.4-24.8 18.4-28.5 30.2-0.8 2.6-2.9 10.5 0.9 12.4 5.6 2.9 13.9-0.8 18.3-3.1 16-8.3 23.6-26.1 26.2-42.9 0.3-1.5 2.5-13.5-0.8-15.5-6.9-4-15.9 5.7-19 10.4-2.3 3.6-4 7.7-5.8 11.6" fill="#f6f6ef" fill-rule="evenodd"/></g><g id="change1_48"><path d="m4770.4 6240.9c-3.3 1.3-3.8 11.5-4 14.2-0.6 10.6-0.4 37.3 17.7 30.8 14.1-5.1 17.7-29.7 13.5-42.4-3.8-11.7-9-17.4-18.5-6.1-3.1 3.7-5.9 7.7-8.5 11.8-2.8 4.7-4.8 10-6 15.4" fill="#f6f6ef" fill-rule="evenodd"/></g><g id="change1_49"><path d="m4794.5 6224.6c-6.9 0.1-6.7 12.3-5.2 16.6 0.6 1.6 1.6 3 3.4 3 10.3 0.5 7.2-15.3 0.5-18.2" fill="#f6f6ef" fill-rule="evenodd"/></g><g id="change1_50"><path d="m969.2 6403.3c-18.6-1.7-34.7-13.1-52-18.9-5.4-1.8-15.8-3.4-18.3 3.8-5 14.2 15.3 29.2 23.8 35.6 9 6.9 15.2 9.1 26.3 11 8.7 1.5 20.1 2.3 29.1 2.2 18.3-0.1 33.2-11.1 17.5-29.2-2.6-3-5.5-5.8-8.6-8.2-14.9-11.1-29.9-8.6-46.8-4.8" fill="#f6f6ef" fill-rule="evenodd"/></g><g id="change2_1"><path d="m3980.3 6604.2c1.6-1.3 3.2-2.6 4.6-3.9 7.9-7.5 13-15.7 18.8-24.6l8.4-4c11.1 10.3 12.2 20.3 12.8 35.1 11.9-0.1 21.4-4 33.4-4.4-18.5 11.4-36.3 22.9-53.8 35.7l-6.6-2.2 10.5-16.9-4.7-3.6-22.2 10.6z" fill="#0e0e0b"/></g><g id="change2_2"><path d="m2460.3 6800.6c26.2 9.1 49.8 14.3 77.1 17.9-3 11.9-0.5 6.2-7.9 17.3 8.9 6.4 11.8 6.6 22.7 5.3 22.5-2.8 37.7-22.9 64.2-22.5l7.4 16.3c-7.6 5.5-23.1 1.5-31.7 0l-4.8-0.8c4.9 9.6 14.6 14.9 25.5 16.4 19.4 2.9 26.7-4.6 40.5-16.7l24.9 13.5 9.8-3.1 7.8-28c9.7 5.8 15.2 9.5 21.7 19.2 5.4 8.1 5.5 10.7 13 16.5q2.6 1.9 5.2 3.9l-7 7c-64.4-1.5-163.6 12.7-218-27.1-17.6-13-35.1-19.1-50.4-35.1z" fill="#0e0e0b"/></g><g id="change2_3"><path d="m3296.7 4208.3c0.6-1.5 1.1-3 1.7-4.6 47.7-139.4-38.1-544.7-59.4-701.9-6-44.8-21-105.6-8.7-149l5.1 1.6c8.6 41.9 3.3 88.1 10.2 132 26.1 162.7 55.8 323.6 79.4 486.8 10.4 71.3 27.2 145.2 22 217.5-4.6-22.4-6.7-57.9-20.5-75.3-11.6 36.3-0.1 96.5 4 135.1 11.1 0.5 12-0.6 21.8 6 2.7 44.3 9.5 92.3 4.4 136.3l-4.8 5.1c-35.5-34.2-1.8-104-26.1-128.6-6.2 8.8-9.9 16.7-14.3 26.5 0.5-2 1.2-3.9 1.7-5.9 7.2-28.4-1.9-57.4-16.5-81.6z" fill="#0e0e0b"/></g><g id="change2_4"><path d="m1809.4 3835.2c-12.6 196.8-80.5 395.7-127 586.7-35.2 144.7-59.9 301.8-113.3 440.8-26.7-69.4 205.1-895.5 240.3-1027.5z" fill="#0e0e0b"/></g><g id="change2_5"><path d="m2203.3 2666.3c1.6 33.3-136 364.9-156.8 414.2-56.4 134.4-93.5 278.1-132.6 418.2-19 68.3-33.8 140.4-63.4 204.9-32.1-96.6 195.5-691.8 245.6-811.2 32.4-77 70.5-151.1 107.2-226.1z" fill="#0e0e0b"/></g><g id="change2_6"><path d="m4747.2 5947.1c49.6 77.7 46.7 236.2 65.5 328.1l-47.5 17.8 9.3-2.7c-8.6 15.1-17.3 32.6-28.9 45.4-18.4 20.6-51.7 37.1-75.1 51.8-103.7 65.3-206.7 127.3-325.9 160.9-29.7 8.3-83.7 24.1-113.3 14.2 2.2-2 4.5-4 6.6-6.1 9.2-9.2 6.1-5.2 11.8-16.9-11.5-7.8-23.7-2.9-37.6-12.9-2.8-16.4-0.1-25.2 4.6-40.6 2.1 9.6 5.2 18.3 8.7 27.5 22.5 10.4 33.8-16.2 60.1-9.1-4.2 10.9-16 16.8-25.3 23.9l-0.6 7.7c6.3 3.9 11.8 6.2 19.2 7.1 53.7 5.8 136.7-28.1 177.9-61.5l-5.5-0.7c-33.5 17.2-76.4 32.4-113.5 39-17.2 3-32.8 4.1-47.7-6.4 2.3-2.2 4.1-4.9 6.8-6.5 20.8-12.3 27.8-9.7 42.2-31.3l-4.1-5.3c-19 2.4-38.3 5.2-57.5 5.3h-10.4c19.8-11.1 42.9-15.2 64-23.5 42-16.4 83.9-37.2 124.6-56.7 49.9-24 94.1-61.3 145.4-81.7 20.4-8.2 38.3-11.5 60.2-11.7-4.1 11.6-14.2 17.7-24.9 23.3-27.9 14.6-59.2 23.4-87.4 37.8-56.1 28.5-115 62.5-168.6 95.6-12.7 7.7-29.8 16.8-33.2 31.7 6.1 1 8.2 1.5 15 0.9 69.2-6.4 122.6-46.6 183.2-74.2 65.8-30.1 153.4-50.3 200.3-108.4-37 20.8-74.4 45.9-112.7 63.6-12.1 5.6-20.4 9.4-33.4 5.2 21.5-24.8 68.9-30.7 95.9-52 2.9-2.2 5.6-4.6 8.5-6.8 71.8-39.1 3.9-72.7 30.1-114.1 4.2 16 7.6 36.3 15 50.9 6.8 13.3 13.2 16.4 26.8 20.1l12.7-8.3c27.3-52.6-26.2-257.7-41.3-320.4z" fill="#0e0e0b"/></g><g id="change2_7"><path d="m2839.1 6810c-18.8 0.2-42.6 3-60.4-3.1 9.1-2.3 13.2-3 22.7-2.1l0.9-7.1c3 1.2 5.9 2.9 9 3.6 18.1 3.8 55.9-5.4 75-7.5 88.9-9.7 178.9-18.7 266.3-38.3 37.2-8.4 215.3-62 238.4-58.1-22.9 25.8-98.2 40.5-130.8 50.5 32.4 0.7 66.3-0.7 98.3 3.5-15.2 6-38.2 8.2-47.1 21.6l5.6 5c16.3-1.5 30.5-3.9 46.3-8.6l-0.4 3.3 6.5-2.5c-92.8 60.2-509.9 112-618.7 85.8-12.3-2.9-15.1-4.8-22.8-14.3l4.9-6.8c1.8 0 3.6 0.1 5.5 0.1 17.4 0.3 28.7-2 45.1-7.3 7-2.2 11.4-1.9 18.5-0.2 4.2 7.5 6.8 13.8 8.9 22 10.1 0.5 10.6 2.7 18.7-4.2 14.4-12.4 23.8-20.6 42.4-24.8-2 9.5-0.4 5.6-5.8 14.8-5.3 9-4.5 3.8-3.3 13.6l11.6 3.6c22.4-6.7 29.8-15.3 40.7-35.5l-2.9-9.6c-19.9-9.2-51.7-0.3-73.1 2.6z" fill="#0e0e0b"/></g><g id="change2_8"><path d="m3922.3 5003.5c45.7 49.2 103.1 682.7 119.7 798.5 21.4 148 47.2 296.4 74.3 443.4 13.1 71.4 22.1 163.2 53.1 228.8l25.2 54.7-6.8 13.2 10.3 11.4-6.6 9.2 2.2 2.6c11.2 1.1 17.4 1.4 27.5 6.7-11.4 6.8-16.3 6.7-29.3 7.7-3.6-1.8-8.1-2.4-10.8-5.4-11.3-12.6-35.2-141.3-45.6-171.1l-14.5 0.6c9.1 31.2 22.1 69 26.8 100.8 2.8 18.9-4.5 37.3-15.7 52.1-14.5 19.3-31.8 37.4-56.4 41.2-2.8-2.6-5.9-4.7-8.3-7.5-8.1-9.2-9.2-21.4-6.5-32.6 16.6-66.2 8.5-133 7.2-200.5-2.1-113.1 1.8-228.9-10.9-341.3-14.7-129.1-45.9-257.3-63.2-386.4q-41.1-287.8-65.8-577.6l-0.9 7.6c-5.1-17.5-4.1-37.9-5-56.1z" fill="#0e0e0b"/></g><g id="change2_9"><path d="m4302.3 4403.4c-22.3-58.8-38.7-119.2-58.4-178.8-15.4-46.3-35.8-90.7-52.1-136.6-15.8-44.9-27.5-91.2-43.7-135.9-26-71.3-120-275.4-126-336.6 79.5 127.2 132.2 310.7 181.2 454.6 54.6 160.6 112.6 320.3 162.7 482.4 24 77.5 43 156.6 65.5 234.5 17.1 59.1 45 113.7 55.7 174.8-15.4-11.9-35.8-76.5-45.7-98.2 22.8 68.7 42.7 139.2 61.5 209 9.9 36.7 13.9 80.3 32.5 113.4l4.7-2.4c-1.5-72.5-40.2-130.6-51.9-199.9 34.6 37 32.3 98 57.3 140.2l4-3.8c0.3-37.2-16-69.7-19.8-106.3-3.1-30.4-13.6-57.7-13.5-88.6 28.2 74.8 33.7 166.1 52.2 244.4 32.5 138.2 75.9 273.1 111.8 410.2 11.7 44.4 31.9 208.9 54.3 232.9 14.6 15.6 14.2 103.9 13.5 128.2l-1.8-5.4c-16.8-52.3-23.7-107.3-38.9-160.2-14.2-48.8-36.1-96.6-46.6-146.2-8.5-40.1-2.4-94.4-17.8-130.7l-5.4-1.9c-22 45.8 1.9 180 17.2 230.4l-1.1-13.6c49.7 138.1 72.2 306 97.5 451.5-9.3 4.5-3.8 3.1-17.1 1.5l-3.5 14.2c-13.5-44.8-15.5-94.7-20.6-141.2-9.2-84.6-21.7-185.2-51.5-264.5l-3.1 1.7c-1.4 43 15.1 85.6 21.5 128 9.7 64.2 46.8 330.7 18.7 373.9-0.1-0.5-0.3-1.1-0.3-1.6 0.7-228.3-43.8-440.6-90.1-662.2-6.6-31.8-15.8-64.8-16.2-97.4-0.4-29.1 11.9-81.9 4-109-5.9-20.5-23.6-34.2-29.3-55.1q-65.5-245.1-142.4-486.9c-48.3-148.1-102.9-294.3-152.6-441.9-32.2-95.8-66.1-191.9-96.5-288.2-10.4-33.3-15.9-68.4-26.9-101.1-5.6-17.1-15.5-32.9-21.9-49.9-28.2-76-57.7-160-77.4-238.5 34.9 69.5 56 143.5 80.5 217.1 35.1 105.2 70 208.9 112.1 311.6 17.2 42 31.6 87.9 60.1 123.8 1.2 1.4 2.4 2.8 3.6 4.3z" fill="#0e0e0b"/></g><g id="change1_51"><path d="m4587.3 5294.7c23.3 46.2 49.4 135.4 42.7 187l-17.3-9.9c-24.9-38.1-22.8-130-25.4-177.1z" fill="#f6f6ef"/></g><g id="change2_10"><path d="m1005.2 4912.6c59.4-181.2 104.7-364.9 159.5-547.2q86.1-283 194.3-558.3c35.9-93.4 69-186.2 109.8-277.8 24.4-55.2 39.8-119.7 68.9-171.5l3.4 2.4c-16.2 44.6-44 169.3-71.7 201.5v-4.3c-39.1 71-62.6 143.4-87.2 220.2 40.6-65.3 57.4-133.8 90.4-201.4l1.5 14.2-0.5-1.9q-0.5 2.5-1.1 4.9c-5.7 24-14.7 46.9-23.9 69.7-18.3 45.8-42.1 88.4-62.3 133.2-20 44.2-35.1 91.7-51 137.6-22.5 65.6-31.7 144.5-60.7 206.3l-3.9 0.8 1-40.2c-20.5 54.5-42.8 107-56.1 163.7 17.8-40.9 34.2-83.2 55.8-122.3-10.8 42.1-19.8 101.4-44.8 136.6l-5.7-15.5 9.4 8.1-13.6 0.5 2.2-15.7-2.3 6-0.6-2.2c-16.5 71-68.8 197.9-67.1 262.4l25.5-48.2 3-0.1c-9 37-25.8 66.5-31.8 104.5-0.5 2.4-1.1 4.9-1.7 7.4l-13.3-22-4.9-0.9-5.9 14.6c2.3 5.1 11.3 20.7 10.9 25.8-3.1 46.8-52.2 149.9-61.6 207.1-3.9 24 11.4 13.5 16.1 28.7 4.1 12.5-44.6 168.7-54 188.1-1.5 3.2-3.8 6.1-5.7 9.1l2.7-8.3-6.6-0.8 6.7-4.1c13.8-57.3 50.1-144.2 47-199-60.9 103.2-161.7 455.7-184.4 582.3-6 33.3-9.1 109.6-34.5 131.1l-7.3-8.6c-5.3 4.5-5.5 13.8-6.3 20.7-1 9.5 1.5 16.5 4.7 25.3-1.1 3.4-2.6 6.7-3.3 10.2-0.6 2.2 0 8.9 0.2 11.5l21.8-6.2 8 4.6c15.1-17.5 22.3-69.8 30.4-94.6 2.3 10.5 1.8 11.1-0.8 21.1-23.4 92.1-34.3 187.5-60.5 279 1.8-17.9 3.1-35.7 8.2-53 12.2-41.7 5.2-86.8 18.6-129.5l-5.2-10.8-17.1-2.1c-9.9 8.5-8.2 3.7-8.9 14.8-1.5 25.7 10.8 36-2.2 60.8l-5.7-2.4-2.8-28.8 1.3 8.1-7.4 3.9c-29.7 130-55 256.6-74.4 388.6-11.6 79.1-17.2 160.3-31.9 238.6 66.4 43.1 127.5 95.8 194.9 136.5l-4.2-5.2c-25.5-30.7-86.2-69.6-95.5-106.7l2.8-8.1c51.9 29 96.7 78.9 140.3 119.3 26.6 5.2 72.1 8.8 90.5 29.7l-2.8 10.6c-24.2 6.5-42.5-23.8-64.5-16.5 1.6 1.6 3.3 3.4 4.9 4.9 63.2 61.4 111.2 25.5 181.6 25.7l8.2 0.1c-107-29.4-199.1-73.2-287.6-141.8-19.7-15.3-36.3-34.4-56.7-48.7-2.7-1.9-5.5-3.7-8.1-5.5-24.6-16.1-50.2-31.4-73.7-49 7.8-96.8 30.4-201.2 55.7-295.2 9.7-36.5 28.1-71.4 33.1-108.5 5.8 12.5-9.2 50.6-12.7 65.3-16.3 67.6-79.5 276.7-45.1 333.1 22.3 36.6 72.4 66.5 107.1 91.7 74.4 53.9 145.6 94.8 231.7 126.2q29.1 10.8 58.5 21.1c28.9 10 64.6-2 90.2 12.8l-3.1 6.8c-23.6 7.5-46.2 10.4-70.6 13.3 27.5 6.8 67.2 2.4 84.5 28.7l-6.8 5.1c-15-2.4-27.3-5-41.6-10.4l-3.6 6.9c15.9 15.3 61.1 22.6 83.8 24.6 8.7 2.3 15.2 6 23.2 10.2l-4.3 2.2c-37.3 0.5-74.7-8-111.4-14.6-126.2-22.9-230.3-59.5-335-135.6-58.3-42.5-114.9-94.7-184.3-117.8 17.3-158.8 10.1-307.5 37-468 17.3-102.7 43.6-208.1 67.6-309.7 10.5-44.8 26.3-91.1 32.2-136.4 1.2-10.1 1.1-10.2 7.1-19.3l2.5 7.4c-42.5 163.6-146.4 573.1-122.8 733.8 5.4-6.6 116.4-614.3 129.8-673.7 39.8-175 105.4-340.5 154-512.4z" fill="#0e0e0b"/></g><g id="change2_11"><path d="m1774.8 2734c40-111.2 156.2-293.7 230.3-387.2 43.9-55.4 104.2-92.4 148.4-146.2 35.2-42.7 62-91.9 88-140.5 85.7-159.8 141.1-346.3 57.2-520.4-30.8-63.8-76.5-120-113.7-180.1-71-114.9-102.5-265.1-55.9-395.3 20.1-55.7 57.9-101.1 112.9-124.7 78-33.6 179.7-16.3 256.3 15.6 94.6 39.5 170.9 102.3 243.5 173 111-106.1 220.2-208.4 383.9-204.4 59.3 1.5 118.5 17.5 160.8 61.1 49 50.4 64.5 145 62.3 213.2-3.6 105.6-48.8 191.4-97.9 282.1-112.3 207-163.3 375.3-63 601.7 39.6 89.6 95.4 187.3 161.9 259.4 43.7 47.5 94.8 87.6 135.6 137.8 111 136.4 169.9 298.4 252.3 451.1l-2.6 3.2c-32.9-41.1-48.7-95.4-72.9-142-72.5-139.4-149.8-254.9-261.6-366.2-18.7-18.7-51.6-58.8-75.9-65.3 31.7 67.5 108.1 120.2 155.2 177.8 105.4 128.9 190.9 293.6 251.2 447.9 4.6 11.8 19.3 37.6 17.6 49.1-1.3-2.9-2.5-5.9-3.9-8.7-0.2-0.4-0.8-0.6-1-0.9-44.1-73.1-70.6-148.4-122.7-218.5 25.9 51.8 53.4 103.5 76.7 156.5 22.5 51.1 107.2 303.8 139 324.4l0.3 13.6c-10.8-5.1-10.2-5-16.6-14-33.8-47.9-55.2-108-77.9-161.7-40.6-95.8-78.7-192.9-127.7-284.8-89.1-167.3-212.1-317.1-307.7-480.9-59.1 28.8-115.3 62.3-172 95.5l3.4 8.7c24.2 61.6 63.6 114.1 91.8 173.6 19.3 40.6 34.7 83.2 54.2 123.8 29.9 61.7 64.3 121.7 91.6 184.7 83.8 193.7 251.4 643.9 263.8 840.6-44.8-81.3-62.1-191.4-88.1-280.5q-46.8-159.4-105.6-314.6c-65.6-172.9-134.8-350.7-212.4-518.5-33.4-72.2-80.2-138.7-109.7-212.2-24.1 17.8-49.2 35-71.9 54.6 21 46.9 66.3 112 69.8 161.8-2.2-1.6-2.5-9.2-3-11.9l2.5 8.8-12.5-12.6 0.2-9c-22.9-43.3-47.2-86.4-68.4-130.6-41.2 27.8-85.4 60.2-115.8 99.5-6.5 36.2 80.4 142.3 100.4 178.3 19.2 34.4 37.4 71.5 49.8 109 45.9 137.8 32.2 306.3 44.9 450.3 9.5 106.3 32.4 218 55.7 322.2 2.7-19.9 5.1-39.8 8.5-59.5 15.8 126.6 33.9 249.8 43.4 377.3 2.8-19.3 3.1-53.8 14.7-69.1 12.6 73.2-10.1 179.4 16.2 252.1 16.6-8.8 4.8-16.9 28.3-17.7l10.4 6.6c-7.9 50.4-19.1 89.3-13 141.2 3.1 44 9.8 86.1 21.6 128.6 13.8 159.1 51.8 317.4 71.5 476.3 20.7 167.6 21.4 339.4 58.3 504.6l2.5 1.3c3.9-167.6-23.3-339.9-45.7-505.7-6.7-49.2-21.7-97.4-23.9-147-0.4-8.7-2.1-26.5 4.3-32.9 15.2 75.5 22.7 154.2 34.7 230.4 10.4 65.9 25.2 131.9 32 198.3 10.6 103.5 10.4 206.5 28.7 309.3 2.3 84.7 22.9 173.9 35 258.1 8.7-67-7.1-225.9-22.8-292.9 2.4-135.9-16.4-268.2-40.4-401.8-6.1-33.4-42.8-196.4-41.6-211.5l-3.5 0.2 3.9-7.3-0.6-20.4 6 0.6-0.4-0.7c-0.5 0.5-1.2 13.3-1.2 15.8 0.1 8.2 3.6 13 6.7 20.2 29 66.6 69.7 388.7 75.9 475.2 4.5 63 3.2 127.3 11.5 190 13.7 104 47.4 209.7 50.5 314.3 2.4 79.3-12 168.1-29.8 245.5 101.2 276.4 42.9 435.6 50.2 711.2 91.9 7.9 177.8-25.9 267.6-29.5-22.8 18.7-57.3 29.3-84.3 41 64.5-8.2 166.7-29.9 230.6-47.8-0.7 3.2-0.9 5-2.7 8-10.6 17.5-46 30.5-64.7 37.2-53.9 19.3-297.7 82.1-345.1 59.4-9.1-11.1-15.8-22.5-30.5-26l-19.3 12.1-7.9-2.4c7.2-28.4 17.7-61.2 18.9-90.5 1.4-30.2-2.2-52.9 3.9-83.7 1.2 36.6-10.2 114.7 6.9 145.7 17.1 31.2 87.7-5.2 116.4 0.1l1 3.2-24.2 19.1 5.2 3.7c16.5 0.6 37.6-2.2 50.3-13.6l-19.3-7.2-1.6-6.6c18.7-11 49.6-9.2 71.8-12.2l5.2-6.9c-13.6-8.1-155.8 7.7-182.9 8.4-4.1-98.7-2.2-197.5-0.6-296.2 1.2-70.9 8.1-146.1-5.2-215.9-4.3-22.5-14.1-43.5-23.4-64.2 9.8-19.7 7.4-29.9 0.9-50.2-3.8-12-9.3-22.2-15-33.4-28.3-55.2 9.4-246.2-2.5-327.5l-5.8 1.4c-5.2 40.8 0.2 81.2-2.4 122.1-5.1 80.4-36 357.4-0.4 414.1-14.4 155.7-29 320.7-9.5 475.7l-8.8 6.1c-10.5-5.7-8.1-1.9-11.7-12.6-16.8-50.7 4.8-287.4 5.8-355.9 1.8-121.7-10.3-244.3-18.1-365.8-6.8-106.5-9.6-213.5-16.6-319.9-15.9-237.4-44-471.3-73.9-707.2-12.3-96.3-21-193.4-36-289.4-55.1-351.6-125.3-701.5-179.8-1053.2-15-96.6-32.3-194.2-42-291.4-16.4-166.8-26.6-358.3-72.8-519.9-28.6-99.5-98.6-171.2-133.1-265-0.7-1.4-1.2-3-1.9-4.5-54.7 39.3-107 92-168.9 118.8-62.1-34.2-106.8-89.2-163.9-129.9-49.3 74.2-90 151-114.6 237.1-25.9 91-37.5 183.2-51.2 276.7-21.9 148.8-40.3 300-66.9 448-45.8 255.8-105.2 509.2-150.1 765.3-41.7 237.6-70.5 478.8-99 718.5-25.2 211.5-49.2 421.4-64.1 634.1-9 130-12.9 260.5-22.8 390.4-7.8 102.8-23.4 207.2-25.2 310.2-1.4 77 3 154.5 7.9 231.3 2.6 41.4 11.6 92.7 5.8 133.3-10.7-37.5-12.2-78.6-16.9-117.4q-17.9-230.2-17.8-461.2c-0.5-103 21.7-211.9-5.4-312.3-9.8 27.6 4.1 92 3.5 124.2-0.9 54-18.1 106.1-19.7 160-4.2 151.3 13.3 303.2 17.4 454.4-0.8 54.3-3.2 107-9.5 161-4.8-52-0.1-105.8-1.4-158.2-2.1-86.5-9.4-172.8-11.5-259.4-1.4-54.6 1.8-111.1-7.6-165-72 197.9-49.8 383.9-36.8 588.3l47.2 18.5c-12.5 11.9-21.8 20.2-39.2 23.9-6.8 1.5-10.9 0.8-16.1 5.3 33 2.2 62.9-4.1 95.9-3.7-1.9 4.2-0.2 2.4-6.3 3.3-32.6 4.7-58 7.6-84.4 28.9-1.8 1.5-3.5 3-5.2 4.5-26.5 1.1-52.8 2.5-79-2.3-46.4-8.4-90.2-27.9-134.3-43.6-99.6-35.6-192.5-68.5-286.2-118.1 21.7 5.9 46.6 15.6 69.2 13l-1.5-11.2c-16.4-18.7-40.8-26.1-63.8-33.5-10.2-3.4-16.9-5.4-26.2-11.1-35.3-114.6 10.7-206.4 4.3-313.1l-4.2-1.1c-22.6 60.1-28.1 296.1-33.5 306.9-1.1 2.3-2.4 4.4-3.7 6.6-5.3-4.8-8.1-9.1-11.8-15 18.7-59.1 9.2-132.2 21-194.7 25.7-134.6 56.3-272.1 75.2-407.8 18.8-134.3 36.9-269.6 52.5-404.2 8.3-72.1 12.9-144.3 22.9-216.2 14.4-101.7 34.4-202.8 53.7-303.7 6.9 87.2-8.6 178.7-18.5 265.4-24.2 214.4-60.3 425.7-90.7 639.3-16.5 115.3-44.6 277.6-36.9 389.6 0.2 2 0.5 3.8 0.7 5.7l-4.2 7.2 2.4 3.8-8.3-23.3c-8.2 8.6-8.7 16.2-10.6 27.8-7 43.6 21 29.8 34.3 48-7.9 13.3-11.3 24.4-25.5 31.7-10-10.7 1-14.3 0.2-29.3l-6.7 7.6c-3.5 15.6-7.2 29.1-4.5 45.1 7.9 1.4 13.4 2.1 20 7 14.8 11.4 25.1 97.8 28.9 118.2 20.9 14 39.8 31.6 59.1 47.8l-2.6 16.3 5.4 1.6c6-8 12.1-15.5 17-24.2 0.8-1.6 1.5-3.1 2.2-4.6 6 11.8-4.1 23.3 1.2 38.5 37 32.2 165.9 58.1 215.8 60.5-15.1-21.1-158.7-45.5-196.5-63.1 12.3-4.6 283 57.5 310.2 67.5l-53.1 7-3.4 4.5c24.2 11.2 67.2 10.7 93.6 8.4l4.7-7.7-11.4-10.1c6.5-8 15.2-18.1 19.4-27.5 9.9-22.7-16.6-209.9-18.4-249.3-1.3-30.1-0.1-60.6 2-90.7 9.7-145.9 44.3-237.7 91.9-373-21.5-80.6-27.5-173.1-24-256.4 2.5-58.4 17.9-114.9 26.5-172.6 11.8-79.3 18.5-160.7 28.4-240.5 8.5-68.1 9-137.7 16-206.2 7.6-73.7 22.2-146.4 35-219.4 5.7-33.6 7.4-68.7 17.7-101.2 15.7 20.9-24.3 202.8-29.8 236.5-8.3 51.1-18.9 103.1-23.3 154.6-3.4 39.7-2.1 79.8-5.6 119.4-4.6 51.9-16.4 102.9-20.8 154.9q-9.7 123.9-7.7 248.2 2 124.4 15.7 248c9.7-23.8 6.2-60 6.8-85.7 3.6-155.4 42.6-309.5 42.3-465.2-34.2 110.2-28.1 231.3-55.8 343.5l-2.2 0.2c-4.1-47.2 6.6-96.7 11.4-143.8q12.5-124.6 23.7-249.2c7.6-84.6 6.3-172.6 19.5-256.2 20.1-127.6 64.2-258.5 57.2-388.7l-3-2.6c-3.4 24.5-9.8 42.1-21.2 64-1.9-24.1 41.9-239.3 51.9-267.7l9.6 6.2c-12.9 53.1-28.1 103.3-28.7 158.6-0.5 42.1 5.8 82 2.3 124.5-10.6 32.3-10.5 68.4-16.4 102.1-28 159.6-59.3 324-41.6 486.7 16.7-107.6 21.6-213.5 33.3-321.3 9.5-87.4 29.2-180.7 26.9-268.5 28-59.5 11.7-128 23.6-189.6 5.9-31 17-54.4 19.5-87.2l1.4-23.7c0.4-4.7 0.9-9.5 1.1-14.3 1.1-30.8-13.2-42-33.5-63 1.2-56.8 8.2-113.4 9.3-170.2 0.8-39.9-7-80.3-3.1-120.2 4.1-42 16-83.9 23.2-125.4l46.3-261.8c13.5-76.6 38.9-298.5 63.6-355.5-7.3 114.9-26.5 227.1-43.3 340.8-8.1 54.5-11.5 110-21.2 164.1-5.5 30.6-22.9 57.3-28.2 87.9-8.2 47.7-20 144.4-5 188.7 3.8-8.4 2.6-4.4 4.3-14.2 4.6-26.2 16.1-49 20.1-74.7 6.2-38.6 5-78.4 10.1-117.3 4.7-36.3 15.9-71.6 21.6-107.7 5.4-34.2-5.5-82.1 6.1-112.2 27.4 74.9-15.2 202.8-22.3 282.6-4.1 46.7-1.9 88 5.7 134.3 15.1-119.1 39.7-239.1 60.5-357.5 13.4-76.8 20.3-166 47.8-238.6l6.2-2.3c-2.8 11.7-4.1 22.8-5 34.8 23.1-27.8 59.8-270.9 65.2-320.9 15-137.6 9.1-276.2 43.5-411.7 29-114 87.4-210.1 144.4-311.3-32.4-26.7-65.3-51.5-100.1-75.1-33.9 55.8-102.8 211.8-135.3 248.9 26.5-88.9 84.8-167.2 115.6-254.7 0.7-2.2 1.5-4.3 2.2-6.5-19-19.2-40.1-32.4-62.7-46.6-9 12.7-12 29-27.2 35.6l-3.3-2.9c6.2-11 11.6-21.9 16.7-33.4-14.3-27-143.2-96-178.6-114.5-100.9 97.1-192 218.3-262.5 339.3-89.5 153.8-163.3 316.5-236.9 478.3-12.5 27.5-43.5 125.3-65 139.4 40.3-161.1 174.7-402.9 251.1-553.8 23.2-46 59.2-95.1 73.7-143.7-20.1 9.4-137.2 227.8-153.9 262.3-21.5 44.5-119.8 276-147.3 299.1 4.8-11 9.1-22 13.5-33.1l-4.6-8 4.8-1.2c44.6-125.7 104.1-247 157-369.3z" fill="#0e0e0b"/></g><g id="change1_52"><path d="m1374.3 6453.9c1.5 0.9 3.1 1.6 4.5 2.7 20.9 16.4 22.6 66.3 24.7 90.8-9.6-0.5-15.2-1.7-23.7-6-11.2-25-6-60-5.5-87.5z" fill="#f6f6ef"/></g><g id="change3_1"><path d="m2128.5 4123.5c20.6 21.6 35.6 80.7 38.2 110.4 2.8 30.1 0.2 142.7-17.5 163.7l-9.2-11.6c1.2-28.1 10.5-85.5-1.6-110.8-0.8-1.5-1.9-2.9-2.9-4.4l4.5-6.4 17.7 5.8c2.8-16.7-25.5-114.4-29.2-146.7z" fill="#e3e3df"/></g><g id="change1_53"><path d="m2152 2245.7c7.9 3.5 15.3 8.4 22.8 12.9-51.6 81.6-150.6 133.3-212.5 206.9l-4.3 5-1.3-4.2c55.5-86.4 117.1-154.1 195.3-220.6z" fill="#f6f6ef"/></g><g id="change1_54"><path d="m3450.3 5402.2c38.2 109.8 60.1 354.3 32.8 465.4-5.4-12.5-7-25-8.1-38.5-4.7-54.2-1-109.3-5.1-163.7-6.3-85.5-25.4-178.1-19.6-263.2z" fill="#f6f6ef"/></g><g id="change1_55"><path d="m3161.9 872.8c-7.5 17.9-24.9 20.2-33.1 37.5 8.9 2.4 41.2-25.1 55.2-30.7 14.8 6.1 27.1 15.4 40 24.7-0.6-7.3 0.2-3.1-4.2-13.3l-3.9-8.7c18.9 1.1 40 12.6 54.1 24.8 39.3 33.7 48.5 87.4 51.5 136.3 5.8 99.1-15.2 225.3-83.1 302.3l-13.3-9c-11.6 8.9 5.9 21.8-0.8 38.7-18.3 45.6-50.6 85.5-69.4 132.7-66.8 168.4-59 367.7 27.5 527.9 34.1 63.1 81.9 121.8 109.4 188 0.8 1.9 1.6 4 2.4 6-153.5 61.9-472.3 237.8-547.8 387.9-127-136.6-197.5-184.4-353.6-279.3-66.1-41-132.7-80.8-198.4-122.7 14.9-62.1 68.6-123.5 96.4-182.1 20.3-42.6 38.7-88 51.2-133.5 6.6-24.2 9.6-50 19.3-73l1.9-0.2 8.9 10.6 2.5-8.5c-26.7-25.9-10.1-110.4-18.4-150.1l-1.6-7.7 6.4-4.3c2.4-22-4.6-43.8-10.9-64.9-54.7-185.8-211.1-277.3-214.5-488.3-1-72.9 7.7-154.2 60.4-209.2 29.7-11.3 106.1-33 135.3-20l-11.8 7c1.9 9.1 132.6 14.9 163.3 25.5 115.4 40.3 174.1 130.5 260.2 209.1 112.3-105.8 144.2-171.9 299.8-229.4 37.8-14.1 78-6.1 114.7-22 1.5-0.7 3-1.4 4.4-2.1z" fill="#f6f6ef"/></g></svg>