<svg preserveAspectRatio="none" width="100%" height="100%" overflow="visible" style="display: block;" viewBox="0 0 382.234 627.875" fill="none" xmlns="http://www.w3.org/2000/svg">
<g id="Group 33693">
<path id="Vector" d="M22.1554 2.16991C16.9647 7.57341 16.5392 13.998 21.0066 21.0183C24.4955 26.5069 25.6018 29.698 26.7505 38.1223C27.0909 40.5901 27.644 43.228 27.9844 44.0364C29.1332 46.7594 35.2174 55.2264 35.5578 54.5881C35.6855 54.3754 35.6855 54.4605 35.6429 54.7583C35.5578 55.0562 36.2386 56.5028 37.0895 57.9494C41.6421 65.5653 43.8971 74.3726 44.0247 84.8818C44.0673 88.2005 44.1098 88.5409 44.4927 87.2219C45.1309 85.052 44.5778 74.9683 43.5992 70.5434C42.6632 66.4588 41.0039 62.119 36.1535 51.2695C32.2817 42.5047 31.6435 41.3134 29.3034 38.718C27.7717 36.9736 27.3462 36.1226 26.708 33.3145C25.6018 28.2939 24.6232 25.7411 22.0703 21.2736C17.305 12.8918 17.5603 9.06256 23.1766 3.14849C25.4741 0.765846 25.857 0 24.6657 0C24.453 0 23.3042 0.978582 22.1554 2.16991ZM29.8565 40.3774C30.8351 41.7389 32.0264 43.8237 32.537 44.9299C33.5581 47.3126 35.1749 52.8012 34.9196 53.0564C34.3239 53.6521 28.4099 43.8237 27.8568 41.2708C26.8782 37.1012 27.4313 36.8459 29.8565 40.3774Z" fill="var(--fill-0, #762024)"/>
<path id="Vector_2" d="M9.60406 40.037C9.68916 40.3348 11.0507 40.973 12.6675 41.5262C15.0927 42.3346 15.5181 42.3771 15.3905 41.824C15.3054 41.4411 14.5821 40.8029 13.7737 40.3774C12.1144 39.4839 9.34878 39.2712 9.60406 40.037Z" fill="var(--fill-0, #762024)"/>
<path id="Vector_3" d="M18.5811 52.631C17.56 52.9714 18.028 53.5245 20.283 54.6733C21.5594 55.269 23.3038 56.4603 24.1973 57.2687C25.9418 58.8004 26.4523 58.8855 25.729 57.524C24.5377 55.3115 19.9426 52.163 18.5811 52.631Z" fill="var(--fill-0, #762024)"/>
<path id="Vector_4" d="M41.5144 102.794C41.0889 111.985 35.8131 125.302 26.9207 139.555C17.0072 155.51 15.1351 161.042 15.4329 173.125C15.4755 173.678 15.6031 174.019 15.7733 173.891C15.9009 173.721 15.986 172.189 15.9435 170.402C15.9009 168.658 15.986 166.36 16.1562 165.254C16.369 163.637 16.5817 163.339 17.2199 163.509C18.1985 163.765 18.2836 163.424 17.3901 162.786C16.837 162.361 16.9646 161.722 18.241 157.893C20.028 152.66 22.666 147.639 28.1971 139.045C38.2808 123.472 42.2802 113.006 41.7697 103.816C41.642 102.071 41.5569 101.688 41.5144 102.794Z" fill="var(--fill-0, #762024)"/>
<path id="Vector_5" d="M212.384 123.26C212.001 123.685 211.192 125.174 210.597 126.578C208.214 131.897 207.533 133.045 205.023 135.513C200.215 140.364 191.578 145.299 181.197 149.086C168.943 153.596 165.241 155.595 160.519 160.403C157.115 163.807 154.945 167.551 154.392 170.827C154.009 173.082 154.562 172.402 156.094 168.7C157.753 164.786 160.604 161.084 164.22 158.361C168.262 155.298 171.751 153.553 179.154 150.873C191.876 146.193 197.535 143.299 204.555 137.683C209.32 133.896 212.469 130.493 213.916 127.557C215.192 125.004 215.277 124.153 214.341 123.217C213.49 122.366 213.192 122.366 212.384 123.26Z" fill="var(--fill-0, #762024)"/>
<path id="Vector_6" d="M192.345 131.726C191.962 132.152 192.515 133.173 193.153 133.173C193.493 133.173 193.749 133.003 193.749 132.79C193.749 132.279 192.642 131.429 192.345 131.726Z" fill="var(--fill-0, #762024)"/>
<path id="Vector_7" d="M206.938 139.64C203.79 143.257 203.109 143.852 202.641 143.554C202.428 143.427 202.258 143.725 202.258 144.193C202.258 144.661 201.705 145.682 201.024 146.448C198.131 149.809 193.621 157.425 191.919 161.935C190.217 166.36 190.005 169.934 191.153 173.21C191.706 174.614 192.004 176.231 191.877 176.741C191.749 177.294 190.217 179.847 188.473 182.4C183.154 190.356 182.303 194.058 183.963 201.674C185.92 210.609 184.09 215.842 177.368 220.607C174.602 222.607 174.049 223.331 174.432 224.437C174.985 225.841 176.645 225.118 179.07 222.394C182.006 219.161 183.708 216.353 184.814 212.779C185.92 209.332 185.877 206.439 184.771 201.802C183.367 196.1 183.452 193.122 185.069 189.761C185.835 188.229 187.196 185.931 188.175 184.655C193.451 177.592 193.961 176.358 192.77 173.465C191.706 170.997 191.579 169.083 192.217 166.019C193.493 159.978 198.471 151.341 205.832 142.448C208.342 139.47 210.342 136.917 210.342 136.789C210.342 136.066 209.321 136.917 206.938 139.64Z" fill="var(--fill-0, #762024)"/>
<path id="Vector_8" d="M146.648 173.423C145.244 176.529 144.904 181.081 145.669 186.315C146.137 189.463 147.541 193.548 148.01 193.08C148.095 192.995 147.882 191.803 147.541 190.399C146.776 187.123 146.776 183.932 147.541 181.805C148.18 179.975 148.648 171.721 148.137 171.21C147.967 171.04 147.286 172.019 146.648 173.423Z" fill="var(--fill-0, #762024)"/>
<path id="Vector_9" d="M154.307 178.486C154.477 180.017 154.775 181.592 155.031 182.017C155.413 182.57 155.456 182.272 155.286 180.656C155.158 179.507 155.031 177.933 155.031 177.167C155.031 176.358 154.818 175.72 154.563 175.72C154.222 175.72 154.137 176.528 154.307 178.486Z" fill="var(--fill-0, #762024)"/>
<path id="Vector_10" d="M16.3263 177.635C16.3263 178.018 16.7092 179.337 17.1347 180.613C19.262 186.612 24.4103 192.526 29.6861 195.079C31.388 195.888 33.1324 196.568 33.6005 196.568C34.7492 196.568 33.8558 195.93 31.856 195.292C26.1972 193.505 19.8577 186.57 17.6027 179.72C16.6667 176.997 16.3263 176.401 16.3263 177.635Z" fill="var(--fill-0, #762024)"/>
<path id="Vector_11" d="M79.2116 178.273C77.3821 178.741 74.7867 179.677 73.4677 180.4C70.9149 181.762 71.1702 181.762 74.7867 180.315C78.7436 178.784 81.6368 178.188 86.9552 177.89L92.2736 177.55L87.3807 177.507C83.8918 177.507 81.5517 177.72 79.2116 178.273Z" fill="var(--fill-0, #762024)"/>
<path id="Vector_12" d="M68.9997 182.358C67.3404 183.251 67.5106 183.549 69.2125 182.698C70.7867 181.89 71.0845 181.677 70.5314 181.677C70.3187 181.72 69.6379 182.017 68.9997 182.358Z" fill="var(--fill-0, #762024)"/>
<path id="Vector_13" d="M251.612 182.4C242.337 183.336 236.508 184.996 228.807 188.953C221.702 192.569 215.575 196.696 206.002 204.27C193.408 214.226 187.281 218.906 182.728 222.097C179.92 224.097 177.75 225.756 177.963 225.841C178.899 226.139 189.876 218.438 199.875 210.524C217.107 196.781 227.36 190.272 237.231 186.825C243.784 184.57 247.188 184.017 255.442 184.06C263.568 184.06 266.504 184.485 276.971 187.038C280.247 187.846 284.289 188.655 285.906 188.868C290.373 189.421 294.075 191.506 299.606 196.654C306.201 202.781 312.2 205.546 314.795 203.631C315.561 203.078 315.561 202.993 314.88 201.93C314.072 200.738 313.519 200.526 309.562 200.27C305.775 199.972 303.052 198.483 298.414 194.229C293.862 190.016 288.884 186.187 287.097 185.506C286.161 185.123 285.31 185.123 283.608 185.549C281.183 186.102 280.119 186.017 270.759 184.102C267.823 183.507 263.143 182.783 260.335 182.571C255.271 182.103 254.506 182.103 251.612 182.4Z" fill="var(--fill-0, #762024)"/>
<path id="Vector_14" d="M59.5112 187.889C56.5754 189.719 47.1725 194.356 44.5771 195.25C43.173 195.718 40.8755 196.228 39.4289 196.398C37.9397 196.526 36.876 196.866 37.0037 197.079C37.3015 197.59 40.45 197.122 43.9814 196.058C48.2787 194.739 63.4681 186.783 61.6385 186.825C61.4258 186.825 60.4472 187.293 59.5112 187.889Z" fill="var(--fill-0, #762024)"/>
<path id="Vector_15" d="M255.143 187.677C252.761 188.059 248.506 189.591 245.826 190.953C243.188 192.314 240.252 195.463 237.274 200.143C235.742 202.483 233.827 205.249 233.019 206.227C232.21 207.248 231.742 208.057 231.955 208.057C232.338 208.057 236.252 204.057 242.592 197.079C246.123 193.25 246.974 192.527 250.08 191.038C257.015 187.677 266.333 187.336 278.374 190.017C284.246 191.336 291.011 193.633 294.117 195.335C296.542 196.739 297.52 196.739 295.563 195.378C291.351 192.399 279.651 188.783 270.758 187.677C266.589 187.123 258.334 187.123 255.143 187.677Z" fill="var(--fill-0, #762024)"/>
<path id="Vector_16" d="M118.014 192.824C109.845 193.548 104.952 195.462 101.548 199.291C98.3574 202.865 97.2086 206.354 98.6127 208.269C99.6338 209.673 100.442 208.78 100.698 206.014C100.953 203.121 102.995 198.781 104.74 197.419C106.569 195.973 110.398 194.781 113.547 194.739C120.142 194.611 126.439 198.653 127.247 203.504C127.417 204.738 127.119 205.844 125.503 209.205C123.928 212.609 123.545 213.885 123.545 215.757C123.545 218.821 124.567 220.735 127.077 222.395C129.927 224.309 132.693 225.075 138.437 225.543C144.266 226.011 147.585 226.82 150.52 228.394C152.69 229.543 157.966 234.35 158.775 235.925C159.03 236.393 159.37 236.648 159.498 236.478C160.008 236.01 157.839 232.691 155.498 230.308C151.754 226.479 146.478 224.692 139.075 224.65C132.608 224.65 127.502 222.735 125.375 219.587C123.716 217.119 124.013 214.098 126.311 209.588C127.758 206.695 128.226 205.333 128.226 203.844C128.183 199.93 125.758 196.441 121.716 194.441C119.12 193.207 119.12 193.207 120.567 193.165C123.843 193.165 131.842 195.207 135.459 196.994C136.735 197.632 139.33 198.738 141.203 199.504C143.075 200.228 146.223 201.887 148.223 203.163C150.223 204.44 152.775 206.014 153.924 206.652C158.604 209.29 163.029 214.821 164.816 220.267C165.795 223.161 167.241 226.352 167.582 226.352C167.667 226.352 167.454 225.33 167.071 224.097C166.731 222.905 166.391 221.671 166.348 221.416C166.305 221.118 166.05 220.65 165.795 220.31C165.54 220.012 164.901 218.65 164.391 217.332C163.412 214.651 161.2 211.503 157.158 206.993C155.371 204.95 153.882 202.695 152.52 199.887C150.52 195.59 149.627 194.867 149.797 197.547C149.925 199.462 151.073 201.802 153.073 204.184C153.924 205.206 154.605 206.184 154.605 206.397C154.605 206.61 153.243 205.759 151.627 204.525C149.967 203.248 146.861 201.291 144.691 200.185C142.436 198.994 139.756 197.164 138.352 195.845C135.756 193.335 134.65 193.42 136.607 196.015C137.246 196.866 137.586 197.462 137.373 197.377C137.118 197.249 135.884 196.654 134.565 196.015C129.757 193.675 122.992 192.399 118.014 192.824Z" fill="var(--fill-0, #762024)"/>
<path id="Vector_17" d="M166.859 196.015C166.603 196.696 166.306 198.568 166.178 200.227C166.05 202.738 166.348 204.652 167.965 211.63C170.475 222.522 170.603 226.819 168.476 233.457C168.305 234.01 168.348 234.435 168.603 234.435C169.156 234.435 170.22 231.032 170.773 227.458C171.241 224.352 170.943 220.65 169.667 215.332C167.71 206.95 167.369 202.227 168.433 198.1C168.773 196.739 168.986 195.462 168.816 195.249C168.348 194.484 167.327 194.909 166.859 196.015Z" fill="var(--fill-0, #762024)"/>
<path id="Vector_18" d="M162.306 201.631C161.2 203.716 161.923 207.333 164.987 214.864C166.093 217.544 167.157 220.31 167.369 221.033C167.71 222.309 167.71 222.309 167.752 221.161C167.795 220.565 166.901 217.416 165.795 214.14C164.306 209.673 163.795 207.418 163.625 204.737C163.412 201.078 163.03 200.227 162.306 201.631Z" fill="var(--fill-0, #762024)"/>
<path id="Vector_19" d="M78.7004 205.971C77.5516 206.141 75.5519 206.737 74.2329 207.248C70.6164 208.694 57.4693 215.332 57.7246 215.544C57.8522 215.672 60.32 215.034 63.2132 214.055C80.4448 208.482 84.5294 208.056 93.5494 211.12C97.3361 212.396 99.7613 213.502 113.419 220.522C123.715 225.756 129.629 227.968 139.5 230.223L143.755 231.202L140.351 231.542C132.523 232.351 130.31 232.648 125.8 233.627L120.992 234.648L116.227 233.627C107.079 231.67 106.143 231.798 102.272 235.286C100.782 236.648 99.6336 237.882 99.7613 238.009C99.8464 238.137 101.08 237.371 102.399 236.308C105.25 234.01 106.611 233.84 110.568 235.074C115.589 236.605 120.439 236.393 127.204 234.223C130.565 233.159 133.161 232.819 132.735 233.542C132.608 233.712 130.906 234.818 128.906 235.925C124.269 238.52 120.907 241.881 114.653 250.178C108.101 258.772 106.782 260.857 105.42 264.431C104.314 267.41 104.314 267.41 104.612 275.494C104.782 279.918 104.909 284.301 104.909 285.152C104.824 287.322 103.718 289.321 100.229 293.491C96.7404 297.661 94.7407 301.362 94.1876 304.851C93.9323 306.298 93.8898 310.595 94.0599 314.85C94.4003 324.423 94.0599 326.167 90.103 336.464C86.5291 345.697 85.6781 349.185 84.6145 358.461C83.338 370.331 82.6147 372.969 79.2109 378.118C74.8286 384.925 64.3194 391.35 56.3631 392.116C53.172 392.456 48.3216 391.392 44.7051 389.605C42.2799 388.414 41.7268 388.244 41.5566 388.797C41.1311 389.818 41.9821 390.712 44.5349 392.031C47.258 393.435 51.6829 393.945 56.4482 393.477C64.0216 392.711 74.5307 387.095 78.7855 381.564C82.87 376.16 84.5294 371.097 85.2527 361.567C86.1887 348.76 87.8055 342.846 92.5708 334.804C95.6767 329.614 96.7404 325.87 96.7404 320.168C96.7404 317.573 96.4 314.339 95.8895 311.914C95.4215 309.702 95.0385 306.936 95.0385 305.745C95.0385 301.873 98.0168 296.895 102.782 292.683C106.356 289.534 107.377 287.407 107.377 283.28C107.377 281.535 106.994 278.302 106.526 276.089C104.995 268.856 105.548 264.687 108.611 260.134C113.079 253.497 122.311 243.328 127.162 239.669C130.225 237.371 134.267 235.457 138.011 234.563C141.628 233.712 149.797 233.967 152.222 234.989C154.052 235.797 154.605 235.669 153.754 234.648C152.435 233.031 149.031 231.883 136.437 228.692C130.183 227.117 121.758 223.841 116.525 220.948C114.908 220.012 110.1 217.204 105.888 214.651C92.5708 206.652 86.4014 204.652 78.7004 205.971Z" fill="var(--fill-0, #762024)"/>
<path id="Vector_20" d="M146.521 208.227C146.521 208.567 147.542 209.205 148.861 209.716C152.35 211.035 154.477 212.524 157.838 216.055C160.944 219.246 162.987 222.48 164.773 226.862C165.624 229.032 166.518 230.053 166.518 228.947C166.518 228.181 163.455 221.884 162.05 219.8C157.923 213.588 146.521 205.078 146.521 208.227Z" fill="var(--fill-0, #762024)"/>
<path id="Vector_21" d="M227.106 211.247C223.787 213.545 218.724 215.63 214.384 216.523C212.129 216.991 211.363 217.246 212.172 217.331C215.15 217.672 222.213 215.204 226.935 212.141C229.573 210.396 230.892 209.247 230.041 209.375C229.871 209.418 228.51 210.226 227.106 211.247Z" fill="var(--fill-0, #762024)"/>
<path id="Vector_22" d="M49.7257 217.076C45.7688 217.97 45.3859 218.097 45.7688 218.48C46.0667 218.821 54.3208 217.034 54.8314 216.523C55.3845 215.97 54.1506 216.098 49.7257 217.076Z" fill="var(--fill-0, #762024)"/>
<path id="Vector_23" d="M150.776 217.161C150.776 217.502 151.967 218.31 153.456 219.034C156.519 220.48 159.03 222.565 160.732 225.033C162.476 227.543 161.71 227.756 159.498 225.331C158.306 224.054 157.328 223.373 156.86 223.458C155.456 223.714 156.051 224.82 158.392 226.394C159.923 227.415 161.157 228.692 162.008 230.181C163.285 232.308 164.391 233.329 164.391 232.351C164.391 232.138 163.923 231.202 163.327 230.351C162.689 229.415 162.263 228.181 162.263 227.288C162.263 225.671 160.519 222.99 157.711 220.353C154.562 217.332 150.776 215.587 150.776 217.161Z" fill="var(--fill-0, #762024)"/>
<path id="Vector_24" d="M202.258 219.842C197.876 220.522 188.473 223.245 186.941 224.181C185.58 225.075 186.941 224.99 189.749 224.011C194.685 222.309 198.812 221.671 204.853 221.671C214.044 221.671 220.979 223.458 226.553 227.245C233.871 232.18 238.381 238.435 242.082 248.774C245.997 259.666 246.167 265.835 242.891 276.259C241.699 279.961 241.529 283.535 242.423 285.62C242.721 286.386 244.082 288.215 245.401 289.747C249.188 294.044 249.783 295.32 251.187 302.128C251.911 305.489 252.762 309.191 253.145 310.382C253.868 312.637 256.804 317.871 257.825 318.721C258.846 319.572 258.548 318.381 257.187 316.424C254.208 312.042 252.719 307.106 252.251 299.958C251.826 293.959 251.145 292.002 248.209 288.3C243.954 283.024 243.274 280.557 244.593 275.025C246.294 267.835 246.592 261.538 245.486 256.347C244.593 252.092 241.784 244.349 239.955 241.115C234.211 230.776 224.68 222.394 216.086 220.139C214.086 219.586 204.939 219.416 202.258 219.842Z" fill="var(--fill-0, #762024)"/>
<path id="Vector_25" d="M56.7464 221.246C55.6827 221.458 50.4494 221.629 45.0459 221.629C33.9836 221.671 30.7075 222.054 27.6015 223.713C25.0487 225.075 18.4113 231.627 16.0287 235.116C12.4973 240.307 9.56149 247.37 8.71054 252.731C8.02979 256.73 8.15743 268.813 8.88073 273.791C10.7103 285.917 10.8379 292.002 9.47639 297.192C9.00837 299.022 8.32762 301.107 7.94469 301.83C6.96611 303.787 3.26449 309.233 1.34987 311.531C-0.352024 313.616 -0.437119 314.424 1.05204 314.424C2.28591 314.424 5.85988 310.595 7.13629 307.872C11.0506 299.618 12.0292 291.364 10.5401 278.897L9.81677 272.941L10.9655 268.899C11.7739 266.176 13.0078 263.367 14.8799 260.091C19.6877 251.752 19.8154 251.369 20.1132 243.54L20.411 236.733L22.2831 232.946C24.7934 228.011 27.0484 225.543 30.4522 224.011C32.8774 222.905 33.6858 222.777 38.9191 222.607C43.7269 222.437 45.5139 222.565 49.4708 223.373C55.2573 224.522 59.4694 224.437 60.4055 223.16C61.8095 221.246 60.4906 220.565 56.7464 221.246ZM19.3899 233.882C18.1986 236.478 18.0709 238.86 18.4964 247.497C18.6666 250.944 18.6666 250.986 16.5818 254.943C12.0718 263.495 10.7954 266.218 10.2848 268.26C10.0295 269.409 9.60404 270.558 9.43385 270.813C8.83819 271.494 9.09347 255.751 9.68913 252.305C10.3699 248.604 11.6889 244.944 14.114 240.179C15.901 236.563 19.4325 231.457 20.1132 231.457C20.3685 231.457 20.0281 232.563 19.3899 233.882Z" fill="var(--fill-0, #762024)"/>
<path id="Vector_26" d="M41.4722 226.692C45.3865 229.67 51.1304 231.712 57.2572 232.308C62.6607 232.861 65.3837 233.627 67.5962 235.286C70.3618 237.371 73.5953 238.733 77.2119 239.371C79.0839 239.669 81.7644 240.264 83.211 240.605C84.6151 240.988 86.0617 241.243 86.4021 241.158C87.3381 240.988 80.1902 238.009 75.6802 236.733C73.5953 236.137 71.0851 235.201 70.149 234.648C67.3834 233.031 64.8306 232.393 58.8314 231.712C52.0664 230.946 48.6201 229.925 44.6632 227.628C41.6423 225.883 39.6001 225.245 41.4722 226.692Z" fill="var(--fill-0, #762024)"/>
<path id="Vector_27" d="M167.241 228.479C166.773 229.713 166.475 233.159 166.816 233.159C167.411 233.159 168.135 230.138 167.794 228.947C167.582 228.181 167.411 228.011 167.241 228.479Z" fill="var(--fill-0, #762024)"/>
<path id="Vector_28" d="M177.24 231.883C175.07 232.351 172.645 233.755 172.049 234.903C171.454 236.01 171.879 235.925 173.411 234.648C175.155 233.201 177.581 232.648 182.261 232.648C189.366 232.691 194.897 235.074 196.897 239.073C198.088 241.413 199.024 242.307 199.918 241.924C200.769 241.626 200.726 240.009 199.748 238.477C198.727 236.733 194.004 233.712 190.685 232.648C187.664 231.67 180.261 231.244 177.24 231.883Z" fill="var(--fill-0, #762024)"/>
<path id="Vector_29" d="M175.368 237.839C173.708 239.116 173.879 239.541 176.048 239.541C178.771 239.541 180.558 240.477 184.047 243.668C188.047 247.37 189.664 248.391 192.727 248.944C197.067 249.752 197.875 250.476 198.811 254.645C199.152 256.177 199.194 256.22 199.237 255.071C199.364 251.369 197.365 248.816 194.003 248.348C190.94 247.923 189.834 247.114 187.026 243.243C183.877 238.903 181.75 237.329 178.729 237.073C176.942 236.946 176.304 237.073 175.368 237.839Z" fill="var(--fill-0, #762024)"/>
<path id="Vector_30" d="M168.391 240.009C166.348 240.604 165.795 241.498 166.731 242.562C167.412 243.242 167.837 243.37 169.369 243.115C171.029 242.859 171.199 242.944 171.199 243.753C171.199 244.221 170.561 246.306 169.752 248.348C167.497 254.092 166.348 261.878 166.774 268.813L167.029 272.515L165.327 270.77L163.625 269.026L163.796 265.452C163.923 263.495 164.221 261.197 164.434 260.389C164.987 258.644 165.285 248.093 164.859 245.923C164.604 244.561 164.519 244.519 164.093 245.285C163.327 246.731 162.604 255.666 162.732 262.218C162.817 265.665 162.817 268.473 162.689 268.473C162.221 268.473 159.371 265.282 157.456 262.601C154.18 258.134 152.733 252.73 153.712 249.029C154.307 246.859 156.562 244.859 160.604 242.944C162.817 241.923 163.03 241.711 161.838 241.923C159.626 242.264 156.137 244.051 154.648 245.582C152.606 247.667 151.925 250.007 152.138 253.879C152.478 259.283 154.818 263.41 162.179 271.621C165.582 275.408 168.688 281.024 169.454 284.726C170.135 287.874 169.497 291.619 167.625 295.49C165.625 299.745 160.136 305.149 151.627 311.318C145.628 315.615 139.501 320.721 140.224 320.806C140.395 320.806 141.373 320.083 142.437 319.147C143.458 318.253 147.628 315.147 151.67 312.254C155.712 309.361 160.434 305.617 162.179 303.957C163.923 302.298 165.37 301.149 165.455 301.404C165.54 301.66 166.178 304.34 166.859 307.404C167.582 310.424 168.731 314.466 169.454 316.338C170.816 319.912 175.368 328.55 178.772 333.996C181.623 338.591 188.473 346.973 192.302 350.546C195.791 353.78 202.599 358.928 202.939 358.545C203.067 358.418 202.471 357.78 201.62 357.099C191.324 349.142 185.324 342.845 180.176 334.549C176.602 328.762 174.645 324.508 172.56 317.828C170.986 312.935 169.88 305.531 169.88 299.915C169.88 294.597 169.965 293.959 171.029 291.619C171.879 289.789 172.22 288.172 172.39 285.577C172.603 281.577 172.05 279.578 169.582 275.706C168.135 273.451 168.093 273.196 167.88 268.26C167.625 261.963 168.603 254.9 170.348 250.092C171.029 248.22 171.794 246.433 172.05 246.136C172.305 245.838 172.603 244.646 172.773 243.455C172.986 241.668 172.858 241.2 172.092 240.434C171.114 239.456 170.475 239.413 168.391 240.009ZM169.837 310.892C170.305 313.318 170.518 315.275 170.348 315.275C169.88 315.275 168.306 309.956 167.114 304.425L166.136 299.745L167.284 297.958L168.433 296.129L168.731 301.319C168.859 304.213 169.369 308.51 169.837 310.892ZM170.646 316.636C170.518 316.977 170.39 316.849 170.39 316.381C170.348 315.913 170.475 315.658 170.603 315.828C170.731 315.956 170.773 316.338 170.646 316.636Z" fill="var(--fill-0, #762024)"/>
<path id="Vector_31" d="M90.9121 241.115C91.295 241.201 91.9758 241.201 92.4012 241.115C92.7842 240.988 92.4438 240.903 91.6354 240.903C90.827 240.903 90.4866 240.988 90.9121 241.115Z" fill="var(--fill-0, #762024)"/>
<path id="Vector_32" d="M199.45 262.814C199.79 266.303 201.194 269.451 203.407 271.962C206.428 275.323 206.3 274.855 206.555 282.684C206.853 291.065 207.279 292.682 210.682 297.618C213.108 301.149 217.065 304.468 221.192 306.51C225.999 308.85 227.914 309.318 233.445 309.531C239.87 309.744 241.274 310.382 247.018 315.573C252.124 320.253 255.868 322.338 260.165 322.933C263.824 323.486 266.802 323.189 269.44 322.04C271.993 320.934 271.397 320.593 268.377 321.487C266.547 321.997 264.93 322.125 261.952 321.997C258.335 321.785 257.612 321.614 254.464 320.04C251.996 318.806 249.783 317.232 246.933 314.594C242.125 310.169 239.7 308.893 236.083 308.893C230.424 308.893 226.468 308.127 222.894 306.425C216.384 303.277 212.81 299.958 209.661 294.257C208.215 291.576 208.045 290.895 207.874 287.619C207.747 285.236 207.917 282.769 208.385 280.641C208.768 278.812 209.066 276.472 209.066 275.408C209.066 273.621 208.895 273.323 206.343 270.856C202.769 267.324 201.109 264.941 200.301 262.218C199.961 260.985 199.535 259.963 199.407 259.963C199.28 259.963 199.28 261.24 199.45 262.814Z" fill="var(--fill-0, #762024)"/>
<path id="Vector_33" d="M355.429 297.065C355.386 315.786 353.897 328.21 349.047 349.526C345.473 365.268 344.239 379.224 345.856 386.627C347.132 392.669 349.6 397.562 352.791 400.412C355.854 403.178 358.407 404.369 364.959 406.114C368.235 406.965 371.724 408.071 372.703 408.539C375.256 409.73 378.106 412.921 379.298 415.942C380.191 418.155 380.319 419.133 380.319 424.409C380.319 429.472 380.149 430.834 379.298 433.557C376.405 442.917 370.32 451.214 362.662 456.405C351.344 464.063 337.431 464.914 322.497 458.872C318.413 457.256 313.647 454.703 313.009 453.852C312.754 453.554 312.371 452.192 312.073 450.788C310.754 444.747 308.712 439.428 306.627 436.62C305.095 434.578 304.627 435.386 305.989 437.726C308.754 442.407 312.116 452.703 310.967 452.703C310.839 452.703 309.222 451.724 307.435 450.491C302.372 447.129 296.331 441.811 288.459 433.812C280.758 426.026 279.737 425.515 286.077 432.621C291.225 438.407 301.394 447.385 306.925 451.086C310.286 453.299 311.477 454.32 311.648 455.171C312.201 457.426 312.031 466.744 311.35 471.934C310.627 477.593 308.584 485.167 306.244 491.038C305.436 493.08 304.798 494.952 304.798 495.208C304.798 495.463 304.542 496.144 304.202 496.654C303.904 497.165 302.798 499.462 301.819 501.76C299.947 506.057 295.692 513.758 291.991 519.502C290.842 521.332 289.906 523.161 289.906 523.587C289.906 524.438 290.204 524.055 295.097 516.098C299.905 508.397 301.989 504.483 303.691 500.143C304.627 497.803 305.904 494.74 306.542 493.336C310.924 483.635 313.605 470.488 313.137 460.659C313.009 457.681 312.967 455.256 313.052 455.256C313.137 455.256 315.392 456.362 318.03 457.724C323.135 460.319 328.028 462.063 333.304 463.17C335.687 463.68 338.112 463.808 343.09 463.68C349.174 463.51 350.025 463.382 353.812 462.106C360.875 459.723 367.47 455.298 372.065 449.937C379.128 441.641 382.234 433.684 382.234 423.813C382.234 417.687 381.298 414.496 378.574 411.475C375.256 407.773 371.256 405.901 364.066 404.625C361.641 404.199 358.79 403.391 357.684 402.838C354.408 401.221 350.961 397.689 349.259 394.243C346.621 388.84 346.281 386.797 346.324 376.756C346.366 366.502 346.877 362.928 350.961 344.761C354.791 327.529 355.727 319.913 356.152 301.745C356.365 293.449 356.28 290.598 355.939 290.598C355.556 290.598 355.429 292.47 355.429 297.065Z" fill="var(--fill-0, #762024)"/>
<path id="Vector_34" d="M280.929 311.914C279.695 314.042 278.418 315.914 278.12 315.999C277.014 316.424 277.567 317.275 278.844 317.062C281.439 316.679 286.077 310.212 285.013 308.468C284.247 307.276 283.141 308.213 280.929 311.914Z" fill="var(--fill-0, #762024)"/>
<path id="Vector_35" d="M273.738 319.02C271.993 320.168 271.61 320.636 272.163 320.721C273.738 321.019 277.142 319.147 277.142 317.956C277.142 317.062 276.205 317.318 273.738 319.02Z" fill="var(--fill-0, #762024)"/>
<path id="Vector_36" d="M135.714 329.656C135.374 330.294 134.395 332.549 133.544 334.634C128.609 346.59 125.631 349.525 116.951 351.185C108.101 352.844 103.974 354.461 98.8684 358.29C94.5711 361.439 90.9546 365.438 86.785 371.565C84.7853 374.501 84.4874 375.266 85.2533 375.266C85.5086 375.266 85.6788 375.011 85.6788 374.713C85.6788 373.82 91.0823 366.885 94.6988 363.098C98.4855 359.184 102.315 356.375 106.314 354.716C109.207 353.482 111.93 352.929 118.695 352.121C121.844 351.738 124.141 351.227 125.503 350.546C128.481 349.142 131.885 345.483 133.587 341.909C135.034 338.931 137.161 331.443 137.161 329.486C137.161 328.124 136.48 328.209 135.714 329.656Z" fill="var(--fill-0, #762024)"/>
<path id="Vector_37" d="M211.192 364.673C213.745 366.715 226.595 372.416 229.871 372.969L231.402 373.182L229.488 372.289C228.424 371.778 224.51 370.119 220.808 368.63C217.106 367.098 213.32 365.396 212.426 364.8C210.427 363.566 209.746 363.481 211.192 364.673Z" fill="var(--fill-0, #762024)"/>
<path id="Vector_38" d="M228.807 375.437C225.446 376.245 222.936 377.99 219.915 381.564C211.278 391.818 208.895 407.603 213.788 422.622C215.958 429.259 222.298 441.428 224.595 443.342C225.701 444.279 225.276 443.3 223.234 440.194C214.469 426.919 210.512 411.73 212.682 399.476C213.66 393.732 216.171 387.265 218.383 384.627L219.277 383.564L218.639 385.138C217.83 387.18 217.83 392.243 218.639 395.477C219.532 399.051 222.638 405.05 225.616 409.092C232.934 418.963 234.636 422.196 234.636 426.068C234.636 427.345 233.913 430.791 232.849 434.408C231.19 440.066 231.062 441.002 231.02 445.683C230.977 450.405 231.105 451.086 232.381 454.83C235.36 463.467 238.934 467.892 247.23 473.338C252.464 476.742 256.421 480.444 257.442 482.784C257.739 483.55 258.165 484.188 258.378 484.188C258.846 484.188 259.271 483.124 259.271 482.018C259.271 480.614 255.612 477.125 251.698 474.785C242.89 469.552 239.87 466.616 236.934 460.617C232.977 452.533 232.296 445.81 234.381 435.684C236.466 425.302 235.572 421.303 228.765 411.134C223.191 402.795 220.681 396.923 220.255 391.222C219.915 386.244 220.808 383.478 223.659 380.585C230.977 373.267 241.997 375.99 253.315 387.903C257.399 392.158 259.952 395.902 265.058 405.092C269.738 413.559 273.099 418.75 274.971 420.537C276.801 422.282 276.63 421.516 274.631 419.133C272.631 416.75 269.312 411.347 265.27 403.901C259.314 392.924 254.974 387.308 248.251 381.989C243.273 378.032 236.253 374.799 232.722 374.884C231.743 374.884 229.999 375.139 228.807 375.437Z" fill="var(--fill-0, #762024)"/>
<path id="Vector_39" d="M232.934 392.754C230.254 393.817 225.871 397.817 225.446 399.604C225.021 401.348 225.531 402.922 226.51 402.922C227.233 402.922 227.361 402.625 227.361 400.88C227.361 398.157 228.68 396.328 232.083 394.285C234.296 393.009 235.232 392.711 237.147 392.669C241.614 392.583 242.89 392.796 245.741 393.988C251.91 396.625 255.697 400.029 261.952 408.751C265.058 413.049 272.461 421.175 272.461 420.239C272.461 420.112 270.929 418.282 269.014 416.24C267.142 414.155 264.036 410.326 262.164 407.73C257.356 401.05 252.378 396.328 247.571 393.945C243.954 392.158 243.656 392.073 239.529 391.988C235.998 391.903 234.806 392.03 232.934 392.754Z" fill="var(--fill-0, #762024)"/>
<path id="Vector_40" d="M265.654 398.625C265.654 398.838 266.377 399.519 267.27 400.157L268.845 401.348L267.398 399.817C265.824 398.157 265.654 398.03 265.654 398.625Z" fill="var(--fill-0, #762024)"/>
<path id="Vector_41" d="M273.1 404.71C274.291 405.773 276.588 407.645 278.205 408.879C292.076 419.431 294.075 421.09 297.479 424.622C298.713 425.898 300.117 427.813 300.628 428.876C301.819 431.429 302.202 431.855 302.925 431.557C303.734 431.259 303.691 430.408 302.627 428.323C301.223 425.643 296.883 421.601 288.629 415.474C284.545 412.411 279.226 408.454 276.801 406.624C271.695 402.795 270.036 401.901 273.1 404.71Z" fill="var(--fill-0, #762024)"/>
<path id="Vector_42" d="M206.981 406.156C206.981 406.624 207.108 406.752 207.236 406.411C207.363 406.114 207.321 405.731 207.193 405.603C207.066 405.433 206.938 405.688 206.981 406.156Z" fill="var(--fill-0, #762024)"/>
<path id="Vector_43" d="M206.257 410.879C206.087 412.453 206.087 416.07 206.215 418.878C206.981 433.387 211.065 442.534 219.532 448.746C222.893 451.171 223.744 452.66 224.34 457.213C224.978 461.978 227.021 465.935 230.765 469.722C234.339 473.338 237.913 475.678 245.273 479.252C253.315 483.124 256.591 485.422 259.952 489.506C262.207 492.187 264.122 496.016 265.228 500.016C267.185 507.036 265.526 518.821 262.037 522.991C260.931 524.267 261.016 525.586 262.207 525.374C263.569 525.118 265.568 521.332 266.547 517.12C268.291 509.546 267.015 500.228 263.271 493.08C260.165 487.166 254.719 482.699 245.954 478.784C243.571 477.721 240.295 476.061 238.636 475.125C234.849 472.87 229.148 467.424 227.574 464.531C226.51 462.574 226.34 461.723 226.084 457.17C225.914 454.362 225.616 451.682 225.361 451.214C224.723 450.065 222.979 448.533 219.702 446.236C215.533 443.343 213.065 440.577 211.15 436.748C208.215 430.791 206.811 423.345 206.811 413.857C206.811 410.666 206.725 408.028 206.683 408.028C206.64 408.028 206.428 409.305 206.257 410.879Z" fill="var(--fill-0, #762024)"/>
<path id="Vector_44" d="M258.675 497.378C259.313 500.782 258.93 509.887 257.994 514.184C254.846 528.48 244.762 542.478 233.529 548.137C229.913 549.924 223.701 552.179 220.51 552.86C217.617 553.455 216.51 554.093 216.979 554.902C217.361 555.54 220.552 555.242 223.19 554.306C236.252 549.839 247.272 540.393 253.867 528.012C258.037 520.183 259.909 512.014 259.568 503.335C259.483 500.399 259.143 497.548 258.888 496.952C258.462 495.974 258.42 496.016 258.675 497.378Z" fill="var(--fill-0, #762024)"/>
<path id="Vector_45" d="M285.991 528.522C282.842 533.245 273.992 545.413 270.929 549.285C261.952 560.603 249.102 579.281 245.656 586.046C240.763 595.747 239.061 603.831 239.401 615.659C239.572 620.935 239.827 623.828 240.38 625.572C240.763 626.891 241.188 627.955 241.274 627.87C241.359 627.742 241.103 625.317 240.72 622.424C239.572 613.829 240.465 604.384 243.146 596.087C244.635 591.535 249.23 582.387 252.761 576.941C255.612 572.559 269.185 553.668 273.609 547.881C278.29 541.754 289.48 525.757 289.48 525.118C289.48 523.885 288.458 524.863 285.991 528.522Z" fill="var(--fill-0, #762024)"/>
</g>
</svg>
