<svg preserveAspectRatio="none" width="100%" height="100%" overflow="visible" style="display: block;" viewBox="0 0 191.953 518.205" fill="none" xmlns="http://www.w3.org/2000/svg">
<g id="Group 33736">
<path id="Vector" d="M82.2049 0.125813C78.8325 0.908697 76.1225 6.20822 75.2794 13.736C74.9181 16.4459 74.6772 19.0355 74.6772 19.5173C74.6772 20.9024 72.3888 18.4935 69.4379 14.0371C66.3064 9.21932 64.319 7.5331 61.7295 7.5331C59.2604 7.5331 57.2129 9.15909 54.7438 12.9531C52.4553 16.5062 51.9736 16.5664 44.6867 14.6995C38.6043 13.0735 35.5932 13.6155 33.7263 16.747C31.739 19.999 32.1606 22.4681 36.075 30.297C41.0132 40.1734 41.5552 42.2209 42.1574 54.5062C43.1209 74.6203 45.048 77.8722 66.6677 96.541C69.4379 98.8897 72.1479 101.178 72.7501 101.6C73.3523 102.021 74.3159 103.045 74.8579 103.888L75.8816 105.333V102.804C75.8816 101.058 76.1225 100.275 76.7248 100.275C77.7485 100.275 78.1701 101.238 78.6519 105.213C78.8927 106.959 79.3143 108.887 79.6154 109.489C80.3381 110.874 81.4823 110.151 81.0005 108.585C80.7596 107.863 81.0005 106.959 81.6027 106.297C82.2049 105.635 82.9276 102.864 83.4696 98.9499C84.7945 90.0371 86.3 84.5569 89.4316 77.4507C90.9371 74.018 92.0211 71.007 91.8404 70.8865C91.2985 70.2843 90.5758 71.549 87.6851 78.0529C84.7343 84.858 81.9038 96.2399 81.9038 101.78C81.9038 103.406 81.6027 105.213 81.3016 105.695C80.579 106.779 80.579 106.899 80.579 96.3604C80.579 82.5696 82.0845 78.1131 91.4189 63.961C96.9593 55.6504 97.7422 53.7835 98.4649 48.1829C98.8864 44.69 97.9831 45.5933 97.3206 49.3271C96.6582 52.9404 94.3698 57.3968 90.7565 62.335C82.8072 72.9943 79.6154 81.064 79.0132 91.8437C78.6519 98.709 78.6519 98.7692 78.1701 94.8548C77.1463 85.4602 79.8563 68.4174 84.674 53.9642C87.2636 46.3762 88.1067 42.9436 88.3476 39.0291L88.7089 33.9103L92.9847 30.297C102.259 22.4681 112.737 16.6868 118.519 16.1448C123.156 15.7233 123.878 16.6266 122.554 21.4444C119.482 32.7058 119.482 32.4047 120.928 37.4634L122.252 42.1607L120.747 45.774C118.699 50.7122 118.88 52.0371 120.988 47.5806C122.975 43.4253 122.915 43.4253 124.42 51.9166C125.143 56.1924 125.264 58.6615 124.902 59.9864C124.42 61.7328 123.999 62.0339 119.783 63.2383C107.197 66.8516 98.1637 73.7772 92.4427 84.1353C90.2747 88.11 86.6614 98.3477 85.8183 102.864C85.5774 104.069 85.0354 105.333 84.6138 105.574C84.1923 105.815 83.6503 107.02 83.4094 108.224L82.9878 110.452H88.1669C92.8642 110.452 100.272 111.476 106.294 112.921C107.619 113.222 110.63 113.524 113.039 113.524C125.444 113.524 136.344 109.91 145.016 102.804C146.401 101.66 147.546 100.937 147.546 101.178C147.546 102.443 143.993 107.261 141.042 109.971C134.357 116.113 124.481 119.184 115.749 117.799C113.4 117.438 108.401 116.053 104.668 114.668C95.7549 111.476 88.7691 110.874 85.5171 112.982L83.4094 114.367L86.7818 114.788C91.8404 115.511 97.4411 117.98 102.078 121.654C110.449 128.218 111.774 129.181 115.327 130.928C120.386 133.397 124.782 134.24 130.744 133.818C136.646 133.457 140.801 132.313 144.414 129.964C148.148 127.495 147.485 127.074 143.27 129.241C135.562 133.096 127.733 133.577 119.121 130.627C113.761 128.82 111.593 127.435 105.993 122.376C100.753 117.619 97.7422 115.631 92.8642 114.066L89.4316 112.921L93.2858 113.283C95.6946 113.463 99.308 114.487 102.981 115.932C106.233 117.197 111.352 118.763 114.363 119.305C119.181 120.268 120.446 120.268 124.541 119.606C133.153 118.161 141.222 113.825 145.378 108.345C147.666 105.333 149.774 100.516 152.002 93.0482C153.026 89.7962 154.531 86.4238 156.338 83.774C159.229 79.4982 159.349 78.7154 158.085 73.6567C157.723 72.2114 157.904 71.8501 159.831 70.7058C161.939 69.4412 162.661 68.3572 161.336 68.3572C159.951 68.3572 156.579 70.8865 156.218 72.2114C156.037 72.9341 156.218 74.2589 156.519 75.2225C157.543 77.8722 157.302 79.1971 155.073 82.2082C152.604 85.5806 151.159 88.8928 149.653 94.4333C148.75 97.8057 148.148 98.8897 146.1 100.636C142.065 104.129 134.959 107.863 128.576 109.971C122.915 111.777 122.012 111.898 113.821 111.898C106.956 111.958 104.246 111.717 101.175 110.814L97.2604 109.669L102.68 108.887C109.064 107.983 114.785 106.177 118.94 103.768C123.035 101.359 130.684 95.457 130.684 94.7344C130.684 94.373 129.78 94.7946 128.756 95.5775C120.325 101.961 114.062 105.213 107.498 106.598C103.222 107.501 92.0211 108.826 91.6598 108.405C91.5393 108.345 92.9244 107.562 94.6709 106.719C98.5853 104.912 119.181 90.6393 117.917 90.6393C117.435 90.6393 111.955 94.0117 105.812 98.1068C95.8151 104.791 89.6122 107.983 87.926 107.381C87.0829 107.08 91.2382 101.238 93.9482 98.8897C95.2129 97.8057 99.9102 94.7946 104.306 92.1448C120.506 82.5696 120.747 82.4491 122.192 79.438C123.336 77.1496 123.577 76.0656 123.276 73.2954C122.975 70.2843 123.096 69.6219 124.842 66.7312L126.769 63.4792L133.394 63.9008C139.777 64.2621 140.259 64.2019 146.04 62.335C155.676 59.2637 162.782 59.2637 164.408 62.3952C164.829 63.1781 164.709 64.2019 164.046 65.9483C162.782 69.0799 163.324 69.7423 164.95 67.0925C166.576 64.4428 166.516 62.5759 164.769 60.8295C161.577 57.6377 155.917 57.3366 147.726 59.9864C140.56 62.2748 136.465 62.877 130.684 62.3952L126.167 62.0339L126.348 58.3001C126.468 56.2526 126.107 51.6757 125.504 48.1226L124.36 41.6789L127.07 39.27C131.647 35.1749 136.706 33.6092 139.837 35.2954C140.5 35.6567 142.607 37.5236 144.474 39.4507C148.027 43.064 148.389 43.2447 157.482 45.4127C159.108 45.8342 160.794 46.4364 161.216 46.7978C162.24 47.6409 162.18 51.0133 161.156 53.6028C160.132 56.0117 160.794 56.4333 162.24 54.2653C163.565 52.1575 164.107 48.3033 163.203 46.6773C162.42 45.1718 159.168 43.6662 156.699 43.6662C155.736 43.6662 153.508 43.2447 151.761 42.7027C149.111 41.9198 147.787 41.0165 144.775 37.7645C141.162 34.0307 140.861 33.8501 137.73 33.549C133.454 33.1876 130.684 34.1512 126.709 37.4032L123.457 40.0529L122.734 38.4269C121.53 35.4761 121.951 29.3334 123.698 24.4554C126.167 17.4095 125.625 14.8802 121.53 13.8564C116.652 12.652 100.091 21.2637 90.9371 29.755C87.384 33.1274 87.3238 33.1274 87.3238 32.1036C87.3238 30.4776 84.3127 27.1654 80.1574 24.2748L75.701 21.2035L76.1225 16.5664C76.3032 14.0371 76.9054 10.484 77.4474 8.67732C78.4712 5.18445 81.6027 1.51092 83.5298 1.51092C84.1923 1.51092 86.6011 2.47447 88.9498 3.61868C93.1051 5.66623 93.5267 5.72645 99.9704 5.72645C103.644 5.72645 107.197 6.02756 107.859 6.38889C109.606 7.29222 110.329 9.70109 109.666 12.11C109.245 13.736 109.305 14.1575 109.967 14.1575C111.172 14.1575 111.653 11.3873 110.871 8.67732C109.787 5.00378 108.522 4.52201 100.693 4.52201C94.0687 4.52201 93.7073 4.46179 90.1542 2.47447C86.1796 0.306479 84.132 -0.29574 82.2049 0.125813ZM65.1019 10.9657C65.945 11.9293 67.5108 14.0973 68.5948 15.7835C69.6788 17.5299 71.4855 19.7581 72.6297 20.7217C74.617 22.4681 74.6772 22.709 74.6772 26.7439C74.6772 29.0323 74.2557 33.1274 73.7137 35.8374C73.2319 38.5474 72.8706 41.98 72.991 43.5458C73.1717 46.0751 73.2319 45.8342 74.0148 40.9562C74.4363 37.9451 75.159 32.7661 75.5203 29.3936L76.1828 23.3112L80.3983 26.503C82.9878 28.4301 85.0354 30.5379 85.6978 31.8627L86.7216 34.0307L84.0718 37.3429C78.411 44.2082 73.9545 53.6028 71.6661 63.1781C70.2208 69.2003 70.1003 80.1005 71.365 87.9293C72.1479 92.747 72.1479 95.2161 71.4252 92.9879C67.571 81.4253 65.8848 73.7772 65.2224 65.045C64.861 60.2272 64.7406 59.9261 64.319 62.0339C63.2351 67.9959 66.1859 83.9547 69.6788 90.9404C73.533 98.5283 71.7866 97.3239 65.6439 88.1702C56.5504 74.56 55.2858 70.8865 55.1051 56.915C54.9847 46.9784 53.9609 42.522 51.1305 39.3303C49.6851 37.7645 49.7454 38.0054 51.9736 43.3651C53.0576 45.9547 53.2382 47.7613 53.2984 56.6139C53.4189 65.8881 53.5393 67.2732 54.9847 71.6694C57.514 79.3176 64.7406 90.9404 70.4015 96.3001C72.0274 97.8659 72.8706 99.6726 71.9672 99.6726C71.6059 99.6726 61.6693 90.278 55.1051 83.7138C46.3729 74.9214 44.3254 69.8627 43.6027 55.1084C43.0607 43.4856 42.1574 39.8722 37.6408 30.4174C33.3048 21.4444 33.0639 19.7581 35.9545 17.0482C37.701 15.4222 41.495 15.3017 45.7105 16.8073C47.1558 17.3493 49.384 17.7708 50.7089 17.7708C53.2382 17.7708 54.1416 17.0482 58.2969 11.8691C60.766 8.79776 62.8737 8.49665 65.1019 10.9657ZM86.5409 40.4745C86.3603 42.4016 84.7343 48.6646 82.8674 54.4459C81.0005 60.167 79.0734 66.9721 78.5916 69.5014C76.8452 79.1971 75.7612 89.736 76.1225 94.0719C76.9656 103.045 74.4965 97.2637 73.1114 86.9055C70.7026 68.839 73.8943 54.5062 83.1083 41.3778C84.7945 39.0291 86.3 37.0418 86.5409 37.0418C86.7216 37.0418 86.7216 38.6076 86.5409 40.4745ZM123.638 66.671C122.433 69.0196 121.951 70.7661 121.951 73.2352C121.951 78.8358 120.566 80.2811 107.92 87.8089C93.8278 96.1797 90.3951 98.7692 88.2874 102.684C87.384 104.37 86.4807 105.695 86.4205 105.574C86.0591 105.213 91.5393 89.3746 93.1653 86.1829C96.6582 79.1369 103.764 72.2716 111.413 68.297C114.243 66.8516 123.216 63.5997 124.541 63.5394C125.023 63.5394 124.722 64.6234 123.638 66.671ZM74.6772 100.395C74.6772 100.696 74.4363 100.877 74.075 100.877C73.7739 100.877 73.4728 100.275 73.4728 99.4919C73.4728 98.4079 73.5932 98.3477 74.075 99.0703C74.3761 99.5521 74.6772 100.154 74.6772 100.395Z" fill="var(--fill-0, #762024)"/>
<path id="Vector_2" d="M71.7865 50.892C70.5821 56.0711 70.4014 56.9142 70.7627 56.9142C71.3047 56.9142 72.9307 50.2898 72.7501 48.9649C72.6296 48.0616 72.2683 48.724 71.7865 50.892Z" fill="var(--fill-0, #762024)"/>
<path id="Vector_3" d="M9.39472 39.0292C4.99852 45.6536 0.00010454 72.9944 0.00010454 90.1576C0.00010454 105.635 3.91453 124.243 10.3583 139.238C11.7434 142.49 15.9589 150.56 19.6927 157.185C27.3408 170.614 29.0873 174.709 30.8337 183.2C31.7973 187.837 31.9779 190.246 31.6166 194.582C31.2553 200.002 31.9177 203.676 33.1221 202.953C33.4233 202.773 33.7244 200.785 33.7244 198.617C33.7244 196.449 34.2664 192.414 34.9288 189.644C39.0841 172.601 38.9637 155.739 34.6277 135.384C32.3995 124.725 28.9668 115.451 22.4629 102.082C13.3091 83.2923 10.84 76.3668 8.97317 64.5633C8.06984 58.6616 8.61183 45.7741 9.93672 41.3779C11.0207 37.7646 10.84 36.801 9.39472 39.0292ZM8.91294 72.2717C10.9605 80.2812 13.0683 85.4603 20.4755 100.877C24.39 109.007 28.5453 118.462 29.6895 121.955C35.7719 140.142 38.1808 161.761 35.8321 176.757C34.7481 183.863 33.6641 187.717 34.1459 182.779C34.5675 178.443 32.4597 167.964 29.8099 161.039C28.7259 158.208 25.6546 151.343 23.0049 145.682C14.634 128.037 13.0683 123.701 11.382 114.246L10.298 107.803L10.5389 113.223C10.84 121.051 13.9114 129.844 22.7038 148.392C29.3884 162.544 32.0381 170.975 32.821 180.972C33.0619 183.803 33.1221 185.971 32.9415 185.79C32.7608 185.609 32.0381 183.08 31.3757 180.069C29.9304 174.167 26.3171 166.158 20.6562 156.281C11.4423 140.322 6.68473 127.676 3.5532 110.814C1.9272 102.142 1.38521 84.557 2.34876 74.6806C3.19186 66.7915 5.05874 55.5902 6.20296 51.7963C6.8654 49.5681 6.98584 50.1101 7.28695 58.4207C7.58806 64.3826 8.13006 69.0799 8.91294 72.2717Z" fill="var(--fill-0, #762024)"/>
<path id="Vector_4" d="M162.419 85.4006C161.937 86.1835 159.95 88.5924 158.143 90.7002C153.928 95.4577 153.687 96.9632 157.842 92.4466C161.335 88.6526 164.105 84.7382 163.683 84.2564C163.503 84.136 162.961 84.6178 162.419 85.4006Z" fill="var(--fill-0, #762024)"/>
<path id="Vector_5" d="M156.884 97.2615C154.595 97.8637 152.488 98.4057 152.247 98.4057C151.946 98.4659 151.765 98.7068 151.765 99.0079C151.765 99.309 153.21 99.1886 154.957 98.7068C159.112 97.5626 164.833 97.5023 167.483 98.6466C168.627 99.1283 170.976 100.453 172.602 101.597C174.228 102.802 177.781 104.849 180.491 106.235C188.44 110.33 192.716 116.171 188.982 117.737C188.199 118.038 185.248 118.821 182.297 119.544C175.673 121.049 173.987 121.952 165.917 127.975C155.137 136.105 147.61 139.236 137.974 139.838C130.627 140.26 124.846 139.055 118.282 135.803C114.307 133.876 111.958 132.07 105.816 126.228C97.4448 118.279 95.8189 117.376 90.2784 117.918C84.738 118.399 82.3894 120.086 74.0185 129.42C71.3688 132.371 68.5986 133.997 66.3101 133.997C64.7444 133.997 60.1073 138.875 56.4338 144.415C45.7745 160.434 37.3434 185.788 34.6334 209.937C33.4892 220.355 33.429 241.192 34.5732 250.225C36.9821 268.954 40.1738 278.83 55.7111 314.662C66.551 339.655 66.4908 339.474 70.2848 349.892C76.4274 366.815 79.2578 380.726 79.9203 396.564C80.4623 410.054 78.0534 424.748 71.971 444.441C70.887 448.054 69.7428 452.029 69.4417 453.293L68.9599 455.461L65.3466 453.835C62.5764 452.571 61.1311 451.366 59.0835 448.716C55.2895 443.838 51.8569 441.189 43.3656 436.552C30.2975 429.566 27.8886 427.518 22.5891 419.147C17.8918 411.8 17.2895 411.017 15.8442 410.656C13.1944 409.994 12.0502 411.8 12.0502 416.678C12.1104 423.905 14.2182 432.818 19.6984 448.957C21.9868 455.702 29.6952 470.697 30.4781 469.914C30.5383 469.794 28.7919 465.94 26.5035 461.303C19.4575 446.91 14.8807 431.252 14.0376 419.027C13.4353 409.632 14.6398 409.512 20.1802 418.545C24.8775 426.133 28.6715 429.987 34.6334 433.239C37.2832 434.624 42.2214 437.334 45.654 439.201C51.9773 442.574 56.5542 446.488 59.4448 450.884C60.6493 452.631 62.0946 453.715 64.925 455.04L68.7792 456.786L68.2975 460.219C67.9964 462.146 67.7555 466.542 67.8157 470.035C67.8157 475.575 68.0566 476.9 69.6223 480.875C71.5494 485.693 75.8252 492.377 80.6429 498.219C85.0994 503.518 89.616 510.805 90.3387 513.636C90.7 514.96 91.242 516.647 91.5431 517.309C92.0851 518.514 92.0851 518.514 92.0851 517.249C92.2658 513.033 88.4718 506.168 78.9567 493.521C73.4765 486.235 70.7063 480.694 69.4417 474.431C68.5383 470.216 68.4781 468.71 69.0803 464.013C69.5019 460.941 69.9235 458.292 70.1041 458.171C70.6461 457.629 76.0661 461.965 80.1612 466.241C84.738 471.059 90.7602 479.369 94.1326 485.512C95.3973 487.921 96.5415 489.908 96.7222 489.908C97.1437 489.908 95.6382 486.536 93.2895 482.26C87.9298 472.624 80.1612 463.29 73.6572 458.773C71.9108 457.569 70.4654 456.304 70.4654 455.943C70.4654 455.16 73.1152 446.187 76.4876 435.407C79.7998 424.929 81.4258 414.811 81.7269 402.586C82.4496 377.474 78.0534 360.19 61.4322 322.19C42.5225 278.951 39.3307 269.496 38.7285 254.139C38.4274 245.347 38.4274 244.986 39.9932 241.192C42.1612 235.832 46.0154 229.629 48.9662 226.678C52.0376 223.607 54.5067 221.921 62.9377 217.163C84.2563 204.998 101.179 186.269 108.947 166.216C112.5 157.182 113.343 153.87 112.259 153.87C111.838 153.87 111.416 154.412 111.416 155.074C111.416 157.363 105.635 170.491 101.781 176.935C97.0835 184.884 91.5431 191.75 84.196 198.796C76.849 205.902 70.8268 210.358 60.5288 216.26C55.1089 219.331 50.8933 222.222 48.6651 224.39C46.738 226.317 45.1723 227.642 45.1723 227.461C45.1723 226.678 50.3513 218.428 52.9409 214.995C56.7951 209.937 70.8268 196.025 77.933 190.304C81.1849 187.654 84.5574 184.884 85.4607 184.101L87.0265 182.656L84.3767 184.101C80.4021 186.209 67.9964 196.808 60.5288 204.517C49.8696 215.477 45.5336 221.861 41.8601 231.857C38.4274 241.071 37.8854 243.48 37.8854 249.021C37.8252 257.03 36.8616 252.333 36.0788 240.59C34.7539 220.054 36.9821 199.277 42.5225 180.368C47.0994 164.65 54.0851 149.353 60.9504 140.139C64.0217 135.984 64.925 135.201 66.3101 135.201C69.8632 135.201 72.6334 133.395 77.8727 127.734C85.3403 119.604 90.7602 117.315 95.9393 119.905C97.0233 120.447 100.757 123.699 104.25 127.132C111.898 134.539 116.595 137.67 123.099 139.838C138.095 144.716 153.632 140.621 169.651 127.613C174.107 123.94 176.637 122.796 183.622 121.17C190.789 119.483 192.355 118.339 191.873 115.448C191.331 111.956 187.898 108.523 181.755 105.391C178.684 103.765 174.589 101.477 172.722 100.152C166.82 96.1775 163.267 95.515 156.884 97.2615Z" fill="var(--fill-0, #762024)"/>
<path id="Vector_6" d="M67.5702 104.008C67.5099 105.032 66.1851 109.006 64.6795 112.8C61.9093 119.786 60.7651 125.989 61.6684 129.421C62.3911 132.312 63.0535 130.987 63.4149 125.989C63.6557 122.375 64.3784 119.184 66.1851 114.005C67.5702 110.15 68.6542 105.875 68.6542 104.55C68.6542 101.659 67.7508 101.177 67.5702 104.008Z" fill="var(--fill-0, #762024)"/>
<path id="Vector_7" d="M108.092 159.053C105.863 163.268 97.1313 169.471 84.4847 175.915C79.6669 178.384 73.5243 181.937 70.8143 183.864C64.8524 188.14 57.2042 195.547 53.1091 201.148C46.6654 209.82 40.0409 224.092 38.8365 231.861C38.2945 235.414 39.3183 233.427 41.9078 226.079C46.6051 212.53 53.4704 201.509 62.6844 192.777C69.7303 186.032 75.873 181.877 85.5085 177.059C93.1566 173.265 100.985 168.266 104.057 165.195C106.646 162.606 110.199 158.149 110.199 157.427C110.199 156.222 109.176 157.005 108.092 159.053Z" fill="var(--fill-0, #762024)"/>
<path id="Vector_8" d="M69.4319 239.689C67.0231 240.894 65.8186 242.098 63.8915 244.989C57.6887 254.564 56.0627 260.887 56.0025 275.521C56.0025 289.794 56.9058 294.13 65.9391 322.193C73.0453 344.234 77.6221 360.013 77.7426 362.482C77.863 364.288 77.863 364.288 78.1039 362.722C78.5857 359.531 75.7552 349.353 65.5175 317.375C57.8091 293.166 56.1229 284.314 56.7854 271.306C57.9296 249.927 68.6491 235.594 79.9708 240.291C84.5476 242.219 87.2576 246.434 87.3178 251.673C87.3178 257.635 82.3194 264.079 77.7426 264.079C75.0928 264.079 73.9486 263.115 74.4304 261.249C74.8519 259.683 73.7077 257.455 72.5033 257.455C72.0215 257.455 71.1784 258.418 70.6966 259.562C69.4319 262.573 70.6966 265.464 73.8884 266.849C75.9961 267.753 76.3575 267.753 79.1879 266.789C85.5112 264.621 89.0643 260.165 89.5461 253.661C90.1483 246.615 87.7996 242.219 82.199 239.629C78.0437 237.642 73.4668 237.702 69.4319 239.689Z" fill="var(--fill-0, #762024)"/>
<path id="Vector_9" d="M106.109 254.082C103.579 257.033 100.508 262.634 96.3527 272.149C85.031 297.924 79.7315 325.626 81.2972 351.16C81.5984 357.001 81.8995 364.77 81.8995 368.444C81.8995 372.117 82.0801 374.887 82.3812 374.646C82.6221 374.406 82.9835 363.325 83.1641 350.016C83.4652 329.179 83.7061 324.722 84.8503 317.978C88.2228 297.382 95.6301 274.738 103.338 261.369C106.771 255.347 108.518 252.035 108.156 252.035C108.036 252.035 107.072 252.938 106.109 254.082Z" fill="var(--fill-0, #762024)"/>
<path id="Vector_10" d="M12.4078 259.741C11.7453 260.825 12.5884 281.421 13.4918 286.66C16.7437 305.57 24.4521 320.746 42.2176 342.968C44.8674 346.28 49.3238 352.543 52.2144 356.939C63.777 374.584 69.3777 389.459 72.2081 409.814L72.6899 413.728L72.8103 409.152C72.8705 402.828 71.6059 395.842 68.3539 385.906C63.8372 371.934 55.6471 357.18 44.0845 342.486C32.281 327.43 25.8975 317.674 21.441 307.858C17.4664 299.186 14.9371 289.31 14.2144 279.434L13.8531 274.616L16.1415 280.999C20.4173 292.743 23.7897 298.102 40.5916 320.264C61.2477 347.424 65.4632 355.132 70.7628 375.789C73.3523 385.966 74.9783 400.901 74.4363 410.115C74.1352 414.752 74.2556 416.499 74.6772 416.077C75.701 415.053 76.1225 400.6 75.3396 393.554C72.5092 368.08 64.8008 349.351 48.7216 328.816C31.0765 306.293 23.4886 295.332 19.7548 287.142C17.1051 281.24 15.1177 273.592 14.7564 267.57C14.5155 264.499 14.2746 261.367 14.094 260.584C13.8531 259.259 13.01 258.838 12.4078 259.741Z" fill="var(--fill-0, #762024)"/>
<path id="Vector_11" d="M105.086 279.375C104.243 281.302 105.929 291.238 108.699 301.054C113.035 316.411 113.457 323.939 110.446 334.417C107.736 343.812 105.267 347.606 94.4868 358.988C88.4044 365.432 86.1762 369.527 84.0082 378.199C83.1651 381.511 82.5027 384.642 82.5027 385.064C82.5027 387.172 83.7673 384.281 86.0558 376.994C89.0066 367.539 90.3917 365.371 99.6057 355.917C105.206 350.075 107.073 347.666 109.301 343.511C112.794 336.706 114.42 330.081 114.42 322.012C114.42 314.845 113.457 309.606 110.145 298.706C108.82 294.37 107.254 288.046 106.652 284.554C105.869 280.278 105.387 278.592 105.086 279.375Z" fill="var(--fill-0, #762024)"/>
<path id="Vector_12" d="M10.1141 286.964C9.27102 290.156 8.84947 311.956 9.57213 318.58C11.4992 336.225 17.0396 353.268 25.1696 366.336C30.3487 374.647 33.3598 378.2 46.6688 391.75C59.7972 405.179 64.4343 411.021 66.7829 417.344C68.4691 421.801 69.4327 431.376 69.1316 439.506C68.7702 447.877 69.794 446.431 70.3962 437.639L70.878 431.195L70.9984 436.013C71.1189 439.988 71.2393 440.59 71.7813 439.325C72.6244 437.217 71.962 427.943 70.5167 422.403C67.9271 412.346 64.4343 407.468 46.6688 389.341C39.382 381.874 31.8542 373.563 29.9873 370.913C25.2298 364.229 19.0872 352.004 16.9192 344.897C11.981 328.818 11.3186 324.121 10.897 303.224C10.7163 293.468 10.355 286.121 10.1141 286.964Z" fill="var(--fill-0, #762024)"/>
</g>
</svg>
