<?xml version="1.0" encoding="UTF-8"?><svg xmlns="http://www.w3.org/2000/svg" xmlns:xlink="http://www.w3.org/1999/xlink" height="273.3" preserveAspectRatio="xMidYMid meet" version="1.0" viewBox="-0.1 -0.1 287.7 273.3" width="287.7" zoomAndPan="magnify"><g id="change1_1"><path d="M276.8,5l0.2-0.2c0.3,0,0.4,0.1,0.3,0.1L276.8,5z M275.2,4.6c-0.4,0.1-0.8,0.2-0.5,0.4 c0.4-0.2,0.4-0.1,0.8-0.3c0.3,0,0.5,0.1,0.5,0.1c0.1-0.1,0.5,0.1,0.7-0.1C276.3,4.6,275.8,4.6,275.2,4.6 C275.1,4.7,275.2,4.6,275.2,4.6z M244.8,4.4h0.2C244.9,4.4,244.9,4.4,244.8,4.4z M226,4.3c0.1,0,0.2,0,0.2,0 C226,4.3,225.9,4.3,226,4.3z M222.8,4c0.1,0,0.1,0,0.2,0C222.9,4,222.8,4,222.8,4z M244.8,4.4l-0.5-0.1 C244.2,4.4,244.5,4.4,244.8,4.4z M271,5c0.1,0,0.2,0,0.3-0.1C271.2,5,271.1,5,271,5L271,5z M253.1,4.3h0.2l0.1-0.1L253.1,4.3z M259.5,4.2c-0.1,0-0.2,0.1-0.2,0.2C259.4,4.4,259.5,4.4,259.5,4.2C259.5,4.3,259.5,4.3,259.5,4.2z M269.8,4.4h-0.2 C269.6,4.4,269.7,4.4,269.8,4.4z M248.5,4.2L248.5,4.2L248.5,4.2z M70.8,2.6L70.8,2.6L70.8,2.6z M63.5,1.7L63.5,1.7L63.5,1.7 L63.5,1.7z M217.1,3.3L217.1,3.3C217.3,3.3,217.2,3.3,217.1,3.3z M163.4,1.6c0.6,0.1-1,0.2,0,0.3C163.3,1.9,164.2,1.7,163.4,1.6z M270.9,5c-0.1,0-0.2,0-0.3,0C270.7,5,270.8,5,270.9,5z M163.3,1.9L163.3,1.9L163.3,1.9C163.4,2,163.4,2,163.3,1.9z M204,1.3 l0.1,0.1C204.1,1.3,204.1,1.3,204,1.3z M213.7,3.1L213.4,3C213.5,3.1,213.6,3.1,213.7,3.1z M198.7,0.9c-0.1,0-0.2-0.1-0.4-0.1 c0,0,0,0,0.1,0C198.5,0.9,198.5,0.9,198.7,0.9z M193.2,0.6h0.1c0.1,0,0.1,0,0.2,0H193.2z M87.4,3c-0.1-0.1-0.2-0.1-0.2-0.1 C87.3,2.9,86.5,3,87.4,3z M271,4.9c0,0.1-0.1,0.1-0.2,0.1C270.9,5,271,5,271,4.9C271.1,5,271.1,5,271,4.9z M198.3,1.9l-0.8-0.1 C197.6,1.9,198,1.9,198.3,1.9z M126.7,3.5h-0.2C126.5,3.5,126.6,3.5,126.7,3.5z M194.9,1.8c-0.1-0.1-0.3-0.1-0.5-0.1 c0,0-0.1,0-0.1,0.1H194.9z M87.2,2.9L87.2,2.9L87.2,2.9z M81.8,2.9c-0.8,0.1-0.3-0.1-1-0.2c-0.4,0.1-0.8-0.1-0.9,0.2 c-0.3-0.2-0.2-0.1-0.7-0.2c0.2,0.1-1,0.1-1,0.2c-0.2-0.2,0.9-0.2,0.2-0.4c-0.5,0.1-1.3,0.1-1.4,0.3c-0.3-0.1-0.5-0.1-1-0.2 c0.1,0,0.2,0,0.2-0.1c-1,0.1-2.4-0.1-3,0.2c0.3-0.2-1.9,0-1.2-0.2c-0.4,0-1.1,0.1-1.2,0.1c0.1-0.2-1-0.1-1.4-0.2 c-0.2,0.1-1,0.1-1.4,0.1c0.2,0,0.3-0.1,0.2-0.1c-0.5,0.1-0.4,0-0.8-0.1c-0.7,0.1,0.1,0.2-0.3,0.2c-0.5,0,0-0.1-0.1-0.2l-0.9,0.2 c-0.2,0-0.3-0.1-0.4-0.1c-0.3,0.1-0.6,0.1-1,0h0.7l-0.3-0.1l-0.9,0.1c-1.3-0.2-0.8-0.4-0.7-0.7H64c0-0.1-0.4-0.1-0.6-0.1 c-0.2-0.1,0.8-0.2,1.4-0.2c1.5,0.1,0.3,0.3,1.3,0.4l1.3-0.1v0.1c0.2,0.1,0.3,0,0.4-0.1c-0.1,0.1,1.1,0.1,1.6,0.1l-0.2-0.1 C71,1.4,71.8,1.9,73,1.8l0.9-0.1l0.2,0.1c0.5-0.1,0.6-0.2,1.4-0.1c2.8,0.4,5.9,0.1,8.8,0.3c0-0.1-0.1-0.1-0.3-0.1 c2.5,0.4,4-0.3,6.3,0.1L90,2.1c1.2,0-0.2,0.1,0.7,0.2c0.2-0.2,1.5-0.1,2.2-0.2c-0.1,0.1-0.3,0-0.5,0.1c0.1,0.1,0.2,0.2,0.5,0.1 C93.7,2,95.3,2.1,96.4,2c0.1,0.1,1.1,0.2,1.7,0.4c0.1-0.1,0.3-0.1,0.6-0.2c0.4,0.1,0.7,0.1,1.1-0.1c-0.4,0-0.7,0-1,0l0,0 c0,0-0.1,0-0.2,0c-0.3,0-0.4,0-0.3,0c-0.5-0.1,0-0.1,0-0.2c0.4,0,1.2,0,1.3,0.1c0.2,0,0.4,0,0.6,0.1c0.1,0,0.3,0,0.5,0h-0.1l0.1,0.1 c0.8,0.1,1.8-0.1,2.5-0.2c-0.6,0.2,0.1,0.2,0.1,0.3c0.1,0-0.7,0-1.7-0.1c0.1,0,0.1,0.1,0.1,0.1c0.8,0.1,1.4-0.1,2.6,0 c-0.1,0-0.2,0.1-0.2,0.1c0.4,0.1,0.8-0.1,0.9-0.1c0.1,0.1,1,0.2,1.5,0.2c0.4-0.1,0.3-0.1,1.1-0.1l-0.3,0.2c0.8,0.1,0.7-0.1,1.4-0.1 c-0.3-0.1-0.3,0.1-0.1,0.1c0.9-0.1,0.9-0.1,1.6-0.2l-0.2,0c0.8-0.1,2.2-0.2,2.2-0.1c-0.2-0.3,1.6-0.1,2.3-0.1 c-0.2,0-0.3,0.1-0.3,0.1c1.4-0.2,2.8,0,4.2,0l0.2,0.2c0.7,0,1-0.4,1.8-0.4l-0.3,0.1c1.4,0,2,0,3.1,0.1v0.1c0.4-0.1,0.9-0.1,1.3-0.1 c0.9,0.4,3.7-0.2,5.4,0.2l0.1-0.2c0.7,0,1.5-0.1,1.8,0.1h-0.1c-0.1,0.2,0.7,0,1.1,0.1c0.3,0,0.6-0.2,0.4-0.2 c1.7,0.1,4.3-0.1,5.4,0.2c1.7-0.1,3.1-0.3,4.9-0.3v0.1c0.6,0,1.9,0.1,1.9,0.3c1.4-0.1,2.2-0.4,3.8-0.3l-0.3,0.1 c0.4,0.1,1.1-0.1,1.2-0.1c0.1,0,0,0.1,0,0.1c0.4,0.1,0.6-0.1,0.9-0.1l-0.1,0.1c1.3,0.1,3.3-0.2,5-0.2c-0.3,0.1-0.1,0.1,0,0.1 c0.7-0.2,2.5-0.2,3.2-0.4L158.7,2c1.3-0.2,1.2,0.2,2.5,0l-0.8-0.1c0.6,0,1-0.1,0.9-0.1c0.6,0.1,0.1,0.2,1.1,0.2 c0,0.1-0.7,0.1-0.4,0.1l1.3,0.1c0,0,0.2,0,0.6,0c-0.1-0.3,1.1-0.1,0.4-0.3c1.9-0.1,3.5,0.1,5.1-0.2c0.7,0.2,3.2-0.2,3.1,0.2 c0.9-0.1,1.6-0.2,2.2-0.4c-0.2,0-0.4,0.1-0.6,0.1c0.2-0.1,1.3-0.2,1.8-0.2c-0.6,0.1-1.5,0.2-2,0.4c0.8-0.1,2-0.3,2.4-0.4l0.2,0.2 c0.7-0.2,0.6,0.1,1.3-0.1l-0.1-0.1c1.3-0.1,1.3-0.2,2.5-0.4v0c0.4,0,1-0.2,1.4-0.1L180.8,1c0.1,0.1,0.7,0.2,1,0.2 c0.8-0.1,0.3-0.2,0.7-0.3c0.2,0.1,0.1,0.1-0.2,0.2c0.9-0.1,2.2-0.2,2.8-0.4v0.1c1,0,1.8-0.3,2.4-0.2h-0.2c0.8,0.2,2-0.2,2.2,0.1 c0.4,0.1-0.8,0-0.2,0.1c1.1,0.1,0.7-0.3,1.8-0.2c-0.1,0-0.1,0-0.1,0.1c0.7,0,1.7-0.1,2.5-0.1c0.5,0.1,1.2,0.1,2,0.2 c0.8,0,1.6,0.1,2.1,0.2c-0.3-0.1,0.3-0.1,0.3-0.2c0,0-0.1,0,0,0.1c0.4,0.1,0.5-0.1,0.6-0.1c0.3,0.1,1.2,0,1.4,0.1c0-0.1,0.4,0,0.7,0 c-0.8,0-0.3,0.1-0.6,0.2c1.1,0.1,1.3-0.2,2.5,0c0.2,0.1,0.4,0.1,0.6,0.2c0.2-0.2,1.2,0.1,1.2,0c0.2,0.1,0.4,0.2,0.4,0.2 c0.5,0,1.1,0.2,1.3,0.1l-0.4-0.1c1.3,0.3,2.3,0.2,3.3,0.5l-0.2,0.3c0.6,0.2,1.4,0.1,1.9,0.4c-0.2-0.1-0.2-0.1,0.3-0.1 c-0.3-0.1-0.8-0.1-1.2-0.2h1L209,2.3c0.7,0,0.6,0,0.4-0.1c0.9,0.1,0.9,0.3,1.8,0.4c0.3,0.1-0.1,0.1,0.2,0.2c0.8,0.1,1.3,0.4,1.9,0.4 c0.2,0.1-0.3-0.1-0.3,0.1c0.5,0.1,0.8,0.1,1,0.1l-0.4-0.1c0.4,0.1,0.5-0.1,1.1,0.1c0.4,0,0.7-0.1,0.3-0.2c0.2,0,0.5,0.1,0.4,0.2 c1.1,0.2,0.6-0.2,1.6,0.1c-0.1,0-0.2,0-0.1,0c0.3,0.1,0.5,0.1,0.7,0.1c-0.9-0.1,0.2,0.2-0.9,0.1c0.1,0.2,0.8,0.1,1.2,0.2 c0.6-0.1,0.1-0.2,0.4-0.2c0,0.1,0.2,0.1,0.5,0.1l-0.2-0.1c0.2,0,0.4,0.1,0.7,0.1c-0.2,0-0.3,0-0.5,0c0.5,0.1,1.2,0.3,2.1,0.3 c-0.2,0.1-0.7,0.1-0.1,0.2c1,0,0.2,0.1,0.7,0.2c1,0.1,0.2-0.2,1.6-0.1c0.2,0,0-0.1-0.1-0.1c0.9,0.1,1.5,0.1,2.4,0.2 C225,4.1,224.7,4,225.2,4c-0.2,0.1,0.8,0.1,1.1,0.2l0.1-0.1c0.3,0.1,0,0.1-0.3,0.1c0,0-0.1-0.1-0.2-0.1c-0.5,0.1-0.3,0.2,0.4,0.3 c0.8-0.1,0.7-0.2,0.5-0.2c1,0.1,1-0.2,2-0.1c0.2,0,1,0.2,1.7,0.3c0.4-0.1-0.9-0.1-0.5-0.2c1.2,0.4,2.5-0.2,4.1,0L234,4.4 c0.4,0,0.7,0,1.1,0l-0.5-0.1c0.4-0.1,1.2,0,1,0.1c0.8-0.1,1-0.1,1.8,0c-0.8,0,0,0-0.6,0.1c0.9,0.1,0.9,0,1.5,0 c-0.1,0.1,0.2,0.1,0.4,0.1c0.6-0.1,1.5-0.1,2.3-0.1v0.1c1.3-0.1,2.7,0.2,4.1,0l0,0l0,0c0,0,0,0,0.1,0h-0.1c-0.5-0.2,1-0.1,1.4-0.2 c0.1,0.1,0.1,0.1,0.4,0.1c0-0.1,0.5-0.1,0.7-0.1c0.5,0.1-0.1,0.2,0.7,0.2c0.3,0,0.3-0.1,0.3-0.1c0.2,0.1,0.7,0.1,1.1,0.1 c-0.1,0.1-0.4,0-0.5,0c-0.1,0.1,0.2,0.1,0.2,0.1c0.4,0,0.1-0.1,0.6-0.1l-0.4,0.1c0.2,0,0.4,0,0.5,0c-0.3,0-0.2,0.1-0.2,0.2 c1.1-0.1,0.2-0.3,0.3-0.4c1,0.1,1.8-0.1,2.6-0.1l-0.1,0.1c0.4,0,0.6-0.1,0.7-0.1h0.6c-0.3,0.1-0.4,0.1-0.5,0.2 c0.6-0.1,1.5,0,1.6-0.2v0.1c0.8,0.1,2.6,0.1,2.5,0.2c0.9-0.1,2,0.1,2-0.1c0.5-0.1,1.4,0.2,1.8,0c0.6,0.1,0,0.1-0.2,0.2 c0.6,0.1,1.3-0.2,1.5,0.1c0.7-0.1-0.2-0.1,0.1-0.2c0.2,0.2,1.4,0.1,2.1,0.2c0.3-0.1-0.3-0.1,0.2-0.2c-0.1,0.1,0.2,0.1,0.4,0.1 l0.1-0.2l0.7,0.4c1-0.2-0.2-0.2,1.2-0.3h-0.1c0.4,0.2,1-0.1,2,0c-0.3,0-0.1,0.1-0.2,0.1l0.6-0.1c-0.1,0-0.1,0,0,0.1 c0.5,0.1,0.4-0.1,1,0.1c-0.4,0.1-0.3,0.1-0.1,0.2l0.8-0.2H271c0.8,0,2-0.3,2.4-0.1L273,4.7c0,0.1,0.3,0.2,0.8,0.1 c0.2,0,0.3-0.1,0-0.1l0.4,0.1C274,4.9,273,5,272.4,5c0.2-0.1,0.7-0.1,0.5-0.2c-0.6,0.1-1.1,0.1-1.6,0.2c0.2-0.1,0.4-0.1,0.5-0.2 c-0.6-0.1-0.4,0.1-0.9,0.1c-0.2-0.1-0.3-0.1-0.2-0.1c-0.6,0.1-1,0.1-1.6,0c0,0,0.7-0.1,0.3-0.2c-1.1,0.1-1.3,0.2-2.5,0.4 c-1.4,0.2-2.7-0.1-3.6,0.1c-0.1,0.1,0.7,0.1,0.1,0.1c0.1-0.1-0.4-0.1-0.4-0.1c-0.7,0.2-1-0.1-1.5,0.1c0.1-0.1-0.3-0.1-0.5-0.1 c0.1-0.1-0.7-0.1,0.2-0.3c-1,0.2-1.8-0.1-2.5,0.3l0.3,0.1L258,5l0,0c-0.4,0-0.5,0-1.1-0.1c0.3-0.1,0.6-0.1,0.9-0.1 c-0.8-0.2-1.3,0-1.9,0c0-0.1,0.6-0.1,0.4-0.2c-0.4,0-0.8,0.1-1.2,0.1l0.1-0.1c-1.1-0.1-0.4,0.3-1.2,0.1c0,0.1-0.1,0.1,0,0.1 c-0.3-0.1-1-0.2-0.3-0.2c-0.4,0-0.8,0.1-1,0.1c0.3,0.1,0.4,0.1,0.5,0.2L251.7,5c-0.2,0,0.1-0.1,0.3-0.1c-1.8-0.3-3.5,0.3-5.5-0.1 c0.2,0.1-0.1,0.1-0.3,0.2c-0.6,0-1.6,0-2.2-0.1l0.2-0.1c-1.5,0.1-2.6,0.2-3.6,0.2c0,0,0-0.1,0.2-0.1c-0.7,0.1-1.6-0.2-1.8,0h0.3 c-1.5-0.1-3.1,0.2-4.6,0.2c-0.4-0.2,0.9,0,0.6-0.2c-1.1-0.1-2.1,0.1-3.3,0c0.2,0,0.1-0.1,0.2-0.1c-1.1-0.1,0.1,0.2-0.8,0.1 c0.1-0.1,0-0.1-0.3-0.1l-0.3,0.1c0,0,0-0.1,0.1-0.2c-0.4,0.2-1.7,0.1-2.1,0.2c-0.1-0.1,0.2-0.2,0-0.2c-0.5-0.1-0.9,0-1.2,0.1l0,0 c-0.4-0.1-1.2-0.1-1-0.1c-0.9-0.1-0.2,0.1-0.9,0.2l0.7,0.1h-1.3l0.5-0.1c-0.6-0.1-1.2,0.1-1.9,0L224,5h-0.8c-0.1-0.2-1-0.1-0.5-0.3 c-1.4-0.2-2.4,0-3.8-0.1c0.2,0,0.2,0,0.2-0.1c-0.8-0.1-1.3-0.1-1.8,0c0.1-0.1,0.3-0.1,0.3-0.1c-0.9-0.1-0.6,0.1-1.6,0 c0.3-0.1,0.2-0.1,0-0.1c0,0.1-0.2,0.1-0.4,0.1c0.9-0.2-1.1-0.3-0.5-0.5c-0.1,0.1-1.7,0-1.3,0.2h0.3c0,0.1-0.4,0-0.6,0 c0.2,0,0.3,0,0.3,0c-1.5-0.1-2.9-0.5-4.5-0.7c0.2,0,0.8,0.1,0.4-0.1c-1.5-0.3-2.5-0.3-4.1-0.5c0-0.2,1.7,0.2,1.8,0.1 c-1.7-0.2-3.4-0.4-5.2-0.5c-0.5-0.4-1.8-0.1-2.9-0.4c0.1,0.1-0.5,0.1-1.1,0.1c0.2-0.1-0.4-0.1-0.2-0.2c-0.6,0.1-2.1,0-2.1-0.2 c-0.2,0.2-1.2-0.1-1.6,0.1c-0.3-0.1-0.7-0.1-1.1-0.1c-0.4,0-0.8,0-1.2,0c0.3,0.1-0.9,0.1-1.2,0.1c0.1,0,0.3,0,0.2-0.1 c-0.3-0.1-1,0.1-1.5,0.1c-0.2-0.1,0.1-0.1-0.3-0.1c0,0.1-1.3,0.2-1.8,0.1c0.2,0,0.2-0.1,0.4-0.1c-2.3,0.2-4.8,0.1-7.2,0.5L181,2 c-1.5-0.1-0.9,0.3-2.1,0.4c-3.3,0.1-6.7,0.1-9.8,0.3c-0.2,0.1,0.1,0.1,0.2,0.1c-0.3,0-0.4-0.1-0.7-0.1l0.1,0.1 c-1.5-0.2-4.2,0.4-5.3,0c-1.4,0.2-2.4,0-4,0.2c-0.5-0.1,0.6-0.2-0.1-0.2L157.7,3h0.1c-1.5,0.3-4-0.2-5.9,0.1h0.1 c0-0.1-0.4-0.1-0.7-0.1c-0.1,0.1,0.1,0.1,0.3,0.1c-1.7,0.1-2.1,0.2-3.4,0.2c0.6-0.1-0.5-0.1-0.6-0.2c-0.3,0.1,0.2,0.1-0.6,0.2 c-1.1,0-2.1-0.1-3.1-0.1c-0.4,0.1-0.9,0.1-0.9,0.2c-1.3,0-2,0.1-3.5,0.1l0,0c-0.4,0.2-1.3-0.1-1.6,0c0-0.1,0.2-0.1,0.2-0.1l-0.7,0.1 c0.3-0.1,0.5-0.2-0.1-0.2c-0.6,0.1,0.2,0.1-0.1,0.2L137,3.3c-0.5,0-0.6,0.2,0,0.2c-1.5,0-3.1,0.1-4.4,0.1l0.1-0.1 c-0.8,0.1-1.8,0.1-2.2-0.1c0,0.1-0.2,0.1-0.1,0.1c-0.9,0.1-0.1-0.2-1.1,0c0.2-0.1,0.6-0.1,0.6-0.1L128,3.6c0-0.1-1.1-0.2-1.9-0.2 c0,0.1,0.2,0.1,0.4,0.1H126l-0.4-0.2l-0.7,0.2V3.3c-0.5,0-0.7,0.2-1.2,0.2c-1.6-0.1-1.3-0.2-2.4-0.3c-0.1,0.3-1.8,0-2.1,0.2 c-1.5-0.2-3.8-0.1-5.8-0.2h0.2c-0.9-0.1-1,0.2-1.9,0.1l0.2-0.1c-1.2-0.2-3.3-0.1-4.4,0.1c0.2-0.1,0.1-0.1-0.2-0.1 c-0.3,0.1,0.3,0.2-0.3,0.1c0.2,0,0-0.1-0.1-0.1l-0.6,0.1c-1.6-0.1-3.6-0.2-5.3-0.2c-0.3-0.1-0.1-0.1,0-0.2c-1.4,0-2.7,0.1-3.9,0.1 l-0.4,0c-0.6,0-0.4,0.2-1.2,0.1c-0.2,0,0.5,0,0.7-0.1c-1.2-0.2-0.7,0.1-1.9,0.1L94.6,3c-0.9-0.1-1,0.1-1.3,0.2 c-1.2,0.2-0.9-0.4-2.5-0.2c-0.2,0,0.2,0-0.1,0.1c-1.2-0.1-1.3,0.1-2.5,0c-0.6-0.3,0.6,0-0.1-0.2l0.9,0c-0.8-0.2,0.7,0,0.6-0.2 c-0.6-0.1-1.5,0.1-2.2,0.1c0-0.1,0.9,0,0.5-0.2l-0.4,0.1c0.1-0.1,0.1-0.1,0.4-0.1c-0.1-0.1-0.5,0-0.8,0c0,0.1,0,0.2,0.1,0.2 c0,0,0-0.1-0.1-0.1c-0.8,0.2-2,0-2.7,0.1c0.1-0.1,0-0.1,0-0.1c-0.5,0-0.9,0.1-1.6,0.2c-0.3,0,0.2-0.2-0.8-0.2 C81.8,2.9,82.3,3,81.4,3C81.4,3,82.2,3,81.8,2.9z M100.4,3c0.1,0,0.2,0,0.4,0l0,0C100.6,3,100.5,3,100.4,3z M101.9,2.9 c-0.2,0-0.2,0.1-0.2,0.1c0.3,0,0.5,0,0.7,0C102.2,3,101.8,3,101.9,2.9z M98.9,2.1L98.9,2.1c0.2,0,0.4,0,0.5,0 C99.4,2.1,99.3,2,98.9,2.1C99,2.1,98.9,2.1,98.9,2.1z M98.6,2.2L98.6,2.2C98.5,2.3,98.6,2.3,98.6,2.2C98.7,2.2,98.7,2.2,98.6,2.2 L98.6,2.2z M245,4.5L245,4.5L245,4.5L245,4.5z M124.9,3.5L124.9,3.5L124.9,3.5L124.9,3.5z M254,4.9c0,0,0.1,0,0.1,0.1 C254.1,4.9,254,4.9,254,4.9z M257.8,4.9l0.5,0.1C258.1,5,258,4.9,257.8,4.9z M260.8,5L260.8,5c0.1-0.1,0.1-0.1,0.1-0.1L260.8,5z M213.5,4.1h-0.1C213.1,4,213.3,4.1,213.5,4.1z M227.6,4.8c-0.2,0-0.3,0.1-0.5,0.1C227.4,5,227.6,5,227.6,4.8z M198.3,1.9L198.3,1.9 L198.3,1.9L198.3,1.9z M226.5,4.9c0.2,0.1,0.5,0.1,0.7,0C226.9,4.9,226.7,4.9,226.5,4.9z M273.7,5h0.1l0,0H273.7z M273.8,5h0.2 C273.9,5,273.9,5,273.8,5z M274.3,5H274C274.1,5,274.2,5,274.3,5z M269.7,5L269.7,5L269.7,5z M268.5,5c0.3,0,0.7,0.1,1.1,0.1V5 C269.5,5.1,268.8,4.9,268.5,5z M263.5,4.4l1,0.1c-0.2-0.1-0.4-0.1,0-0.1C263.3,4.1,264.9,4.4,263.5,4.4z M260.4,4.3 C260.9,4.3,260.4,4.2,260.4,4.3C260.1,4.2,260,4.2,260.4,4.3z M238,4.4l0.1-0.1C237.6,4.2,238.1,4.3,238,4.4z M233.7,5l0.4,0.1 l0.2-0.1H233.7z M231.2,4.1h0.2l-0.7,0.1L231.2,4.1z M194.2,0.6l0.1,0.2C194.6,0.7,194.6,0.5,194.2,0.6z M177.8,1.2 c-0.2-0.1-0.7-0.1-0.9,0C177.3,1.2,177.7,1.2,177.8,1.2z M129.2,2.3l0.3-0.1l-0.6,0.1H129.2z M271.7,267c0.2,0.1,0.3,0,0-0.4 l-0.4-0.2L271.7,267z M270.8,264.4c-0.4-0.4-0.9-0.8-1-0.5c0.5,0.4,0.4,0.5,1,0.9c0.2,0.4,0.3,0.7,0.1,0.6c0.2,0.1,0.3,0.6,0.6,0.7 c0-0.2-0.1-0.5-0.3-0.8c-0.2-0.3-0.4-0.6-0.6-0.9C270.6,264.3,270.7,264.4,270.8,264.4z M269.4,227.2l-0.1,0.2 C269.3,227.3,269.4,227.3,269.4,227.2z M271.3,204c0,0.2,0,0.2,0,0.2C271.3,204.1,271.3,203.9,271.3,204z M271.9,200 c0,0.1,0,0.2,0,0.2V200z M269.4,227.2l0.1-0.6C269.4,226.5,269.4,226.9,269.4,227.2z M268,259.5c0.1,0.1,0.1,0.2,0.2,0.3 C268.2,259.7,268.1,259.6,268,259.5C268.1,259.5,268,259.5,268,259.5z M268.7,237.4v0.2c0,0.1,0.1,0.1,0.1,0.2L268.7,237.4z M268.2,245.2c0-0.2-0.2-0.2-0.3-0.3C268,245,268,245.2,268.2,245.2C268,245.3,268.1,245.3,268.2,245.2z M268.6,257.7l0.1,0.2 C268.6,257.8,268.6,257.7,268.6,257.7z M269.3,231.8l0.1-0.1C269.3,231.7,269.3,231.7,269.3,231.8z M268.7,12.1 C268.7,12.1,268.8,12,268.7,12.1C268.7,12,268.7,12,268.7,12.1z M269.3,2.9L269.3,2.9l0.1,0.1L269.3,2.9z M272.7,192.7 C272.7,192.8,272.7,192.8,272.7,192.7C272.7,193,272.7,192.8,272.7,192.7z M274.7,126.1c-0.2,0.7-0.3-1.2-0.5-0.1 C274.3,125.9,274.6,127.1,274.7,126.1z M268,259.3c0-0.1-0.1-0.2-0.1-0.3C267.9,259.1,268,259.2,268,259.3z M274.2,126L274.2,126 L274.2,126L274.2,126z M273.4,176c0,0.1-0.1,0.1-0.1,0.2C273.3,176.2,273.3,176.2,273.4,176z M272.4,188.5l0.1-0.3 C272.4,188.3,272.4,188.4,272.4,188.5z M273.3,169.5c0-0.2,0.1-0.2,0-0.5v0.1C273.3,169.2,273.4,169.3,273.3,169.5z M273.6,162.8 c0,0.1,0,0.1-0.1,0.1c0,0.1,0,0.1,0,0.2L273.6,162.8z M270.3,32.5c0.1-0.1,0.1-0.2,0.2-0.3C270.3,32.3,270.2,31.3,270.3,32.5z M268.2,259.5c-0.1-0.1-0.1-0.1-0.2-0.2C268,259.4,268.1,259.4,268.2,259.5C268.1,259.5,268.2,259.5,268.2,259.5z M271.3,169.2 l0.1-1.1C271.4,168.5,271.3,168.9,271.3,169.2z M272.3,80.8v-0.2C272.3,80.6,272.3,80.7,272.3,80.8z M271.5,165 c0.1-0.2,0.2-0.4,0.2-0.6c0-0.1,0-0.1-0.1-0.1L271.5,165z M270.5,32.2L270.5,32.2L270.5,32.2z M269.7,25.6c-0.2-1,0-0.3,0.2-1.3 c-0.3-0.5,0-1-0.4-1.1c0.3-0.3,0.2-0.2,0.3-0.8c-0.2,0.3-0.3-1.2-0.6-1.1c0.3-0.2,0.5,1,0.8,0.2c-0.3-0.5-0.4-1.6-0.8-1.7 c0.1-0.4,0.2-0.6,0.2-1.3c0,0.1,0.1,0.2,0.1,0.3c-0.3-1.2-0.2-3-0.7-3.6c0.5,0.2-0.1-2.5,0.4-1.6c-0.1-0.5-0.3-1.3-0.4-1.4 c0.4,0.1,0-1.2,0.2-1.8c-0.2-0.3-0.2-1.1-0.4-1.7c0.1,0.2,0.1,0.4,0.2,0.3c-0.2-0.6,0-0.5,0.1-1c-0.2-0.8-0.3,0.2-0.5-0.4 c0-0.7,0.2-0.1,0.4-0.2l-0.5-1c0-0.2,0.1-0.4,0.2-0.5c-0.1-0.4-0.3-0.7-0.2-1.2l0.1,0.9l0.2-0.4L268.3,4c0.2-1.6,0.6-1.1,1.1-1 l0.1,0.6c0.1,0,0.2-0.5,0.2-0.7c0.1-0.2,0.5,1,0.6,1.7c0.1,1.9-0.5,0.4-0.5,1.7l0.4,1.6h-0.1c-0.1,0.2,0.1,0.4,0.1,0.5 c-0.2-0.1,0,1.3,0.1,2l0.2-0.2c0.6,1.9-0.2,3,0.1,4.4l0.4,1l-0.3,0.2c0.2,0.6,0.4,0.7,0.4,1.7c-0.2,3.5,0.6,7.3,0.5,10.9 c0.1-0.1,0.1-0.2,0.1-0.4c-0.2,1.6,0,2.8,0.3,4c0.3,1.1,0.5,2.3,0.3,3.7l-0.1-0.2c0.1,1.4-0.1-0.2-0.2,0.8c0.3,0.2,0.4,1.8,0.5,2.7 c-0.1-0.1-0.1-0.4-0.1-0.7c-0.1,0.2-0.3,0.2-0.2,0.6c0.5,0.9,0.6,2.9,0.8,4.3c-0.2,0.2-0.3,1.4-0.6,2.1c0.1,0.1,0.3,0.4,0.4,0.7 c-0.1,0.5,0,0.9,0.2,1.3c0-0.5-0.1-0.8-0.1-1.2c0,0,0,0,0,0.1c0-0.1,0-0.1,0-0.2c0-0.3,0-0.5-0.1-0.4c0.2-0.6,0.2,0.1,0.4,0 c0,0.5,0.2,1.4,0,1.6c0,0.3,0,0.5,0,0.8c0,0.2,0.1,0.4,0.1,0.6v-0.1c0,0.1-0.1,0.1-0.1,0.1c-0.1,0.9,0.4,2.2,0.6,3 c-0.4-0.7-0.4,0.2-0.6,0.2c0,0.1,0-0.8-0.1-2.1c0,0.1-0.1,0.2-0.1,0.2c-0.2,1,0.3,1.8,0.2,3.3c0-0.1-0.1-0.3-0.2-0.2 c0,0.5,0.2,1,0.3,1.1c-0.2,0.1-0.3,1.3-0.2,1.8c0.2,0.5,0.3,0.4,0.3,1.3l-0.2-0.4c-0.1,1,0.3,0.8,0.2,1.7c0-0.4-0.1-0.4-0.1-0.1 c0.1,1.1,0.2,1.1,0.6,1.9l-0.3-0.1c0.2,0.9,0.6,2.7,0.2,2.7c0.5-0.3,0.3,2.1,0.4,2.8c0-0.3-0.1-0.3-0.2-0.4c0.4,1.7,0.1,3.4,0.2,5.1 l-0.4,0.3c0,0.9,0.8,1.1,0.8,2.2l-0.2-0.4c0.1,1.8,0.1,2.5,0.1,3.9h-0.3c0.1,0.5,0.1,1.1,0.3,1.6c-0.6,1.1,0.4,4.6-0.2,6.7l0.5,0.1 c0,0.8,0.1,1.9-0.2,2.2v-0.2c-0.4-0.1,0,0.8-0.1,1.3c0,0.4,0.3,0.8,0.4,0.4c-0.2,2.2,0.1,5.3-0.3,6.7c0.2,2.2,0.6,3.8,0.6,6.1h-0.1 c-0.1,0.8-0.2,2.4-0.6,2.4c0.1,1.7,0.7,2.7,0.5,4.7l-0.2-0.4c-0.1,0.5,0.1,1.3,0.2,1.5c0,0.2-0.1,0.1-0.1,0 c-0.1,0.5,0.1,0.8,0.1,1.1l-0.1-0.2c-0.3,1.6,0.3,4.1,0.2,6.2c0-0.4-0.2-0.2-0.3,0c0.4,0.8,0.3,3.1,0.4,4l-0.2-0.5 c0.3,1.7-0.5,1.4-0.2,3.1l0.3-1c-0.1,0.7,0,1.3,0.2,1.1c-0.2,0.8-0.3,0.1-0.4,1.3c-0.1,0.1-0.1-0.8-0.2-0.5l-0.3,1.6 c0,0.1,0,0.2,0,0.8c0.6-0.1,0,1.4,0.6,0.5c0,2.3-0.4,4.3-0.1,6.3c-0.5,0.8-0.1,4-0.8,3.7c0,1.1,0.1,2.1,0.4,2.7 c0.1-0.2,0-0.5-0.1-0.7c0.2,0.3,0.2,1.6,0.2,2.2c-0.1-0.7-0.3-1.9-0.5-2.5c0,1,0.3,2.5,0.3,3l-0.4,0.2c0.2,0.8-0.3,0.7,0,1.6 l0.1-0.2c-0.1,1.6,0.3,1.6,0.3,3.1l-0.1-0.1c-0.1,0.5,0.2,1.3-0.1,1.8v-1c-0.3,0.1-0.4,0.8-0.5,1.1c0,1,0.4,0.4,0.4,0.8 c-0.2,0.2-0.1,0.1-0.3-0.3c0.1,1.1,0.1,2.7,0.4,3.5c0,0.1-0.1,0-0.1,0c-0.1,1.2,0.3,2.2,0.1,3V155c-0.4,1,0.2,2.5-0.3,2.7 c-0.1,0.4,0.1-1-0.3-0.3c-0.2,1.4,0.5,1,0.3,2.2c0-0.2,0-0.1-0.1-0.2c0,0.9,0,2.1,0,3.1c-0.5,1.2,0,3.7-0.6,5.1 c0.2-0.4,0.2,0.4,0.3,0.4c0,0,0-0.1-0.1,0c0,0.5,0.1,0.5,0.2,0.8c-0.2,0.4,0.1,1.4,0,1.7c0.1,0,0.1,0.4,0.1,0.8 c-0.1-0.9-0.3-0.3-0.4-0.7c-0.1,1.3,0.5,1.6,0.3,3l-0.3,0.8c0.3,0.2,0.1,1.4,0.3,1.4c-0.1,0.2-0.2,0.6-0.4,0.5 c0.1,0.5-0.2,1.4,0,1.6l0.1-0.5c-0.2,1.8,0.2,2.8-0.1,4.2l-0.5-0.1c-0.3,0.9,0.2,1.6-0.2,2.4c0.2-0.2,0.1-0.3,0.3,0.2 c0.1-0.4,0-1,0-1.5l0.2,1.2v-1.9c0.2,0.8,0.1,0.7,0.3,0.4c0.1,1.1-0.3,1.2-0.2,2.3c-0.1,0.4-0.3,0-0.4,0.4c0.1,1-0.5,1.8-0.2,2.5 c-0.1,0.2,0-0.4-0.1-0.4c0,0.6,0,1.1,0.1,1.3l0.1-0.5c0,0.5,0.2,0.5,0,1.4c0.1,0.5,0.3,0.8,0.4,0.2c0,0.2-0.1,0.7-0.3,0.5 c-0.1,1.4,0.5,0.7,0.2,2.1c0-0.1,0-0.2-0.1-0.1c-0.1,0.4-0.1,0.6-0.1,0.8c0-1.2-0.4,0.4-0.3-1c-0.3,0.1-0.1,1.1-0.3,1.5 c0.1,0.7,0.4,0.1,0.5,0.4c-0.1,0-0.1,0.3-0.2,0.6l0.2-0.3c0,0.3,0,0.5,0,0.9v-0.6c-0.1,0.6-0.5,1.6-0.3,2.7 c-0.1-0.3-0.2-0.8-0.4-0.1c0.1,1.2-0.1,0.3-0.3,1c0,1.2,0.4,0.2,0.1,1.9c0,0.2,0.1,0,0.2-0.2c-0.2,1.2-0.1,1.9-0.3,3 c0.1-0.5,0.2-0.9,0.2-0.2c-0.2-0.3-0.2,1-0.4,1.4l0.1,0.1c-0.1,0.4-0.2,0-0.2-0.3c0,0,0.1-0.1,0.1-0.3c0-0.5-0.5-0.4-0.6,0.5 c0,1,0.3,0.8,0.5,0.7c-0.2,1.3,0.4,1.2,0.2,2.5c0,0.3-0.5,1.2-0.6,2.1c0.2,0.5,0.3-1.1,0.4-0.6c-0.7,1.4,0.1,3.1-0.4,5l-0.3-0.2 c-0.1,0.5-0.1,0.9-0.1,1.4l0.2-0.7c0,0.5-0.1,1.5-0.3,1.1c0.2,1,0,1.3-0.1,2.2c0.1-1,0,0-0.1-0.8c-0.2,1.1-0.1,1.1-0.1,1.9 c-0.1-0.1-0.3,0.2-0.3,0.5c0.1,0.7,0,1.9,0,2.8h-0.1c0,1.6-0.6,3.4-0.5,5l0,0l0,0v0.1v-0.1c0.3-0.5,0.1,1.3,0.2,1.8 c-0.1,0.1-0.2,0.2-0.2,0.4c0.3,0,0.1,0.6,0.2,0.8c-0.1,0.5-0.3-0.1-0.4,0.9c0,0.4,0.1,0.4,0.2,0.4c-0.2,0.2-0.3,0.8-0.4,1.3 c-0.1-0.2,0.1-0.4,0.1-0.5c-0.1-0.1-0.1,0.3-0.3,0.2c-0.1,0.4,0.2,0.2,0.1,0.7l-0.2-0.5c-0.1,0.2,0,0.5,0,0.6c0-0.4-0.2-0.3-0.4-0.2 c0,1.3,0.5,0.3,0.8,0.4c-0.3,1.2-0.1,2.2-0.1,3.2l-0.2-0.2c0,0.5,0,0.7,0.1,0.8l-0.1,0.7c-0.1-0.4-0.1-0.5-0.3-0.6 c0,0.8-0.2,1.8,0.2,2.1l-0.1-0.1c-0.2,1-0.4,3.1-0.5,3.1c0,1.1-0.2,2.5,0.1,2.5c0.1,0.7-0.5,1.7-0.1,2.2c-0.2,0.8-0.1,0.1-0.3-0.2 c-0.2,0.8,0.3,1.6-0.1,1.8c0.2,0.9,0.1-0.2,0.3,0.1c-0.4,0.2,0,1.7-0.2,2.5c0.2,0.4,0.1-0.4,0.3,0.2c-0.1-0.1-0.1,0.3-0.1,0.5 l0.3,0.2l-0.6,0.9c0.2,0.7,0.3,0.5,0.4,0.5s0.1,0,0.3,0.8v-0.1c-0.2,0.5,0.4,1.2,0.4,2.4c0-0.4-0.2-0.2-0.3-0.3l0.3,0.7 c0-0.1-0.1-0.1-0.1,0c-0.1,0.6,0.2,0.5,0.2,1.2c-0.2-0.5-0.4-0.3-0.4-0.1l0.6,1l-0.5-0.4c0.1,0.5,0.5,1.1,0.7,1.6 c0.1,0.2,0.2,0.5,0.3,0.7c0.1,0.2,0.1,0.4,0,0.5l-0.3-0.5c-0.1,0.1-0.2,0.4,0.2,1c0.1,0.2,0.4,0.3,0.3,0l0.1,0.5 c-0.2-0.1-0.4-0.4-0.6-0.8c-0.1-0.2-0.2-0.4-0.4-0.7c-0.1-0.2-0.2-0.4-0.3-0.6c0.2,0.2,0.5,0.8,0.6,0.6c-0.3-0.7-0.7-1.3-1-1.9 c0.2,0.2,0.4,0.4,0.5,0.5c-0.1-0.7-0.3-0.5-0.5-1.1c0-0.2,0.1-0.4,0.2-0.2c-0.1-0.4-0.3-0.7-0.4-1s-0.1-0.7-0.1-1 c0,0,0.4,0.8,0.4,0.4c-0.4-1.3-0.8-1.6-1.2-3.1c-0.6-1.7-0.1-3.3-0.4-4.5c-0.1-0.1-0.2,0.9-0.3,0.1c0.2,0.1,0.1-0.5,0.2-0.5 c-0.4-0.8,0.1-1.2-0.2-1.8c0.1,0.1,0.2-0.4,0.2-0.7c0.3,0.1,0.1-0.9,0.5,0.3c-0.4-1.3,0.2-2.2-0.4-3.1l-0.1,0.3l0.2-1.3v0.1 c0.1-0.5,0-0.6,0.4-1.3c0,0.3,0,0.8,0.1,1.1c0.3-0.7-0.1-1.4-0.1-2.1c0.2,0.1,0,0.8,0.3,0.5c0.1-0.5,0-1,0-1.4l0.1,0.1 c0.4-1.3-0.5-0.5,0-1.4c-0.1,0-0.1-0.1-0.2-0.1c0.1-0.4,0.4-1.1,0.5-0.4c0-0.5,0-1-0.1-1.2c-0.2,0.4-0.1,0.5-0.3,0.6v-1.8 c0-0.2,0.1,0.2,0.1,0.4c0.8-2.1-0.1-4.3,0.8-6.8c-0.2,0.2-0.1-0.2-0.2-0.4c0.1-0.8,0.2-2,0.4-2.7l0.1,0.2c0-1.9-0.1-3.2,0.1-4.4 c0-0.1,0.2,0,0.2,0.2c-0.2-0.9,0.6-2,0.2-2.2l-0.1,0.4c0.2-1.8,0-3.8,0.1-5.7c0.3-0.4-0.1,1.1,0.3,0.7c0.2-1.3,0.1-2.6,0.3-4 c0,0.2,0.1,0.2,0.1,0.3c0.3-1.4-0.3,0.1-0.2-1c0.1,0.1,0.2,0,0.3-0.4l-0.2-0.4c0-0.1,0.2-0.1,0.3,0.1c-0.3-0.5,0.1-2.1-0.2-2.5 c0.1-0.1,0.3,0.2,0.4,0.1c0.1-0.6,0-1.1,0-1.5l0,0c0.2-0.4,0.3-1.5,0.3-1.3c0.2-1.1-0.1-0.2-0.3-1l-0.2,0.9V203l0.1,0.6 c0.2-0.7,0-1.5,0-2.4l-0.2,0.4v-1c0.3-0.1,0.2-1.2,0.5-0.7c0.3-1.8-0.1-3,0-4.6c0,0.3,0.1,0.2,0.1,0.2c0.1-1,0-1.5-0.1-2.1 c0.1,0.1,0.1,0.4,0.2,0.4c0.1-1.1-0.2-0.7-0.2-1.9c0.1,0.4,0.2,0.2,0.3-0.1c-0.1,0.1-0.2-0.2-0.2-0.5c0.6,1,0.3-1.4,0.8-0.8 c-0.1-0.1-0.3-2-0.6-1.4v0.4c-0.2,0.1-0.1-0.4-0.1-0.8c0,0.2,0.1,0.4,0.1,0.4c-0.1-1.8,0.2-3.6,0.1-5.6c0.1,0.2,0.1,1,0.2,0.5 c0.2-2-0.1-3.1-0.1-5.1c0.4-0.1-0.1,2.2,0.3,2.2c0-2.1,0-4.2-0.2-6.6c0.7-0.8-0.2-2.3,0.4-3.7c-0.2,0.1-0.3-0.6-0.2-1.4 c0.2,0.3,0.2-0.5,0.3-0.3c-0.2-0.7-0.2-2.7,0.2-2.6c-0.4-0.2,0.1-1.4-0.2-2.1c0.2-0.8,0-1.9,0.1-3c-0.3,0.4-0.1-1.1-0.2-1.5 c0,0.1,0,0.4,0.1,0.3c0.2-0.3-0.1-1.3,0-1.9c0.1-0.3,0.2,0.1,0.3-0.4c-0.2,0-0.3-1.7-0.1-2.3c0,0.3,0.1,0.3,0.1,0.5 c-0.2-2.9,0.3-6,0-8.9l0.3,0.5c0.4-1.9-0.5-1.2-0.4-2.7c0.2-4,0.8-8.2,0.6-12.1c-0.1-0.3-0.1,0.2-0.2,0.2c0-0.4,0.3-0.4,0.1-0.9 l-0.2,0.1c0.5-1.8-0.2-5.1,0.5-6.5c-0.2-1.7,0.2-2.9-0.1-5c0.2-0.7,0.3,0.8,0.3-0.1l-0.2-1.9v0.1c-0.5-1.9,0.5-4.9,0.2-7.2v0.1 c0.1,0.1,0.2-0.4,0.2-0.8c-0.1-0.1-0.1,0.1-0.2,0.4c-0.2-2.1-0.2-2.5-0.2-4.2c0.2,0.7,0.1-0.7,0.4-0.7c-0.2-0.4-0.2,0.2-0.4-0.7 c0-1.4,0.1-2.7,0.2-3.7c-0.2-0.5-0.2-1.1-0.4-1.1c0-1.6-0.1-2.4-0.2-4.3l0.1-0.1c-0.3-0.5,0.1-1.6,0-2c0.1,0.1,0.2,0.2,0.2,0.2 l-0.1-0.8c0.1,0.4,0.4,0.7,0.4-0.1c-0.2-0.7-0.1,0.2-0.3-0.2l0.3-0.2c0-0.5-0.4-0.7-0.5,0c0-1.9-0.2-3.7-0.2-5.4l0.2,0.2 c-0.1-0.9-0.1-2.2,0-2.8c-0.1,0-0.2-0.2-0.2-0.1c-0.3-1.1,0.3-0.1,0-1.3c0.1,0.3,0.1,0.7,0.2,0.7l-0.3-2.3c0.1,0,0.4-1.4,0.3-2.4 c-0.1-0.1-0.2,0.2-0.2,0.5l-0.1-0.6l0.3-0.5l-0.3-0.9h0.3c-0.1-0.7-0.4-0.9-0.4-1.4c0.1-2,0.2-1.6,0.4-3c-0.5-0.2-0.1-2.2-0.4-2.6 c0.3-1.9,0-4.7,0-7.1l0.1,0.2c0.2-1.1-0.4-1.2-0.4-2.4l0.1,0.3c0.2-1.4-0.1-4-0.4-5.4c0.1,0.3,0.3,0.1,0.2-0.3 c-0.1-0.4-0.4,0.4-0.3-0.4c0.1,0.2,0.2,0.1,0.2-0.1l-0.3-0.8c0.1-2.1,0.2-4.4-0.1-6.5c0.1-0.4,0.2-0.1,0.3,0 c-0.1-1.7-0.4-3.3-0.6-4.8l0.3-0.2c0-0.7-0.5-0.4-0.3-1.4c0-0.2,0.1,0.6,0.2,0.9c0.2-1.5-0.3-0.8-0.4-2.3l0.4,0.4 c0.1-1.1-0.3-1.2-0.5-1.6c-0.5-1.5,0.6-1.1,0.2-3.1c-0.2-0.3-0.2,0.1-0.4-0.2c0-1.4-0.2-1.6-0.2-3.1c0.5-0.8,0,0.7,0.5-0.1l-0.1,1.1 c0.2-1,0.1,0.8,0.4,0.7c0-0.7-0.3-1.8-0.4-2.7c0.2,0,0.1,1.1,0.4,0.7l-0.1-0.5c0.1,0.1,0.2,0.1,0.2,0.4c0.2-0.2,0-0.5-0.1-1 c-0.1,0-0.3,0-0.4,0.2c0,0,0-0.1,0.1-0.1c-0.4-0.9-0.2-2.5-0.6-3.3c0.1,0.1,0.1,0,0.1,0c0-0.5-0.4-1.1-0.5-1.9 c0.1-0.4,0.5,0.2,0.4-1c-0.2-0.2-0.5,0.4-0.6-0.7C269.4,25.1,269.6,26.1,269.7,25.6z M271.5,48.5c0,0.1,0,0.3,0,0.5l0,0 C271.5,48.7,271.5,48.5,271.5,48.5z M271.8,50.3c0-0.2-0.1-0.3-0.2-0.2c0,0.3,0,0.6,0,0.8C271.7,50.6,271.7,50.2,271.8,50.3z M273.1,46.5C273.1,46.5,273.1,46.6,273.1,46.5c0.1,0.2,0.1,0.4,0.1,0.6c0-0.1,0.1-0.2,0-0.5C273.1,46.6,273.1,46.6,273.1,46.5z M272.8,46.1C272.8,46,272.8,46,272.8,46.1L272.8,46.1c0,0.1,0,0.1,0,0.2C272.8,46.2,272.8,46.2,272.8,46.1z M269.3,227.5 L269.3,227.5L269.3,227.5L269.3,227.5z M272.1,78.5L272.1,78.5v-0.2V78.5z M267.5,238.4l-0.1,0.1 C267.4,238.6,267.4,238.5,267.5,238.4z M267,243.2l-0.1,0.7C267,243.5,267,243.3,267,243.2z M266.7,246.8c0,0.1,0.1,0.1,0.1,0.1l0,0 L266.7,246.8z M270.7,188.7c0-0.1,0-0.1,0-0.1C270.6,188.2,270.6,188.4,270.7,188.7z M270.2,206c0-0.2-0.1-0.4-0.1-0.5 C270.1,205.8,270,206,270.2,206z M271.3,169.3L271.3,169.3c0-0.1,0-0.1,0-0.1V169.3z M270.2,204.6c-0.1,0.3-0.1,0.5-0.1,0.8 C270.1,205.2,270.2,204.9,270.2,204.6z M269.2,262.7l0.1,0.2l0,0L269.2,262.7z M269.3,262.9l0.1,0.2 C269.4,263,269.3,262.9,269.3,262.9z M269.6,263.5l-0.2-0.4C269.5,263.2,269.5,263.4,269.6,263.5z M267.7,257.9l-0.1-0.1 C267.6,257.9,267.6,257.9,267.7,257.9z M267.4,256.5c0.1,0.4,0,0.9,0.2,1.4l0.1,0.1C267.4,257.6,267.6,256.8,267.4,256.5z M267.8,250.2c0,0.4,0,0.8,0,1.2c0.1-0.2,0.2-0.5,0.3,0.1C268.3,250,267.9,251.9,267.8,250.2z M268,246.4c0,0.7,0.1,0,0.2,0 C268.1,246.1,268.1,245.9,268,246.4z M270.2,218.8l0.2,0.1C270.4,218.4,270.3,218.9,270.2,218.8z M269.4,213.5l-0.2,0.5l0.2,0.2 V213.5z M271.3,210.4v0.2v-0.8V210.4z M273.8,164l-0.3,0.1C273.5,164.5,273.8,164.6,273.8,164z M274.1,144c0.1-0.2,0.3-0.8,0.1-1.1 C274.1,143.3,274,143.7,274.1,144z M274.5,83.9l0.1,0.4l-0.1-0.8V83.9z M0.1,271.6c-0.2,0.1-0.1,0.1,0.3,0.1l0.3-0.1H0.1z M2.8,272 c0.5-0.1,1.1-0.2,0.8-0.3c-0.5,0.1-0.6,0.1-1.2,0.2c-0.4,0-0.7-0.1-0.6-0.2c-0.2,0.1-0.6-0.1-0.9,0c0.5,0.2,1.2,0.2,1.9,0.1 C3,272,2.9,272,2.8,272z M43.7,272.5h-0.3C43.5,272.5,43.6,272.5,43.7,272.5z M68.9,271c-0.2,0-0.3,0.1-0.3,0.1 C68.8,271,68.9,271,68.9,271z M73.2,270.8c-0.1,0-0.2,0-0.3,0C73.1,270.8,73.2,270.8,73.2,270.8z M43.7,272.5h0.7 C44.4,272.5,44,272.5,43.7,272.5z M8.5,272c-0.1,0-0.3,0-0.4,0C8.2,272,8.3,272,8.5,272L8.5,272z M32.5,273h-0.2 c-0.1,0-0.1,0.1-0.2,0.1L32.5,273z M23.9,273.1c0.2,0,0.3-0.1,0.3-0.2c-0.1,0.1-0.3,0.1-0.4,0.1L23.9,273.1z M10.3,272.6h-0.2H10.3z M38.6,272.8C38.7,272.9,38.7,272.9,38.6,272.8C38.7,272.9,38.7,272.8,38.6,272.8z M277.4,268.1L277.4,268.1 C277.4,268.1,277.5,268.1,277.4,268.1z M287,269.7h-0.1c0,0,0,0.1-0.1,0.1L287,269.7z M81.1,270.3L81.1,270.3 C80.9,270.4,81,270.4,81.1,270.3z M153.2,265.6c-0.8-0.1,1.3-0.2,0.1-0.3C153.4,265.3,152.2,265.6,153.2,265.6z M8.7,272 c0.1,0,0.2,0,0.3,0C8.9,272,8.8,272,8.7,272z M153.3,265.3L153.3,265.3h-0.1C153.2,265.3,153.2,265.3,153.3,265.3z M99.1,268.8 c0,0-0.1-0.1-0.2-0.1C99,268.7,99,268.7,99.1,268.8z M85.7,269.7H86C85.9,269.7,85.7,269.7,85.7,269.7z M106.1,268 c0.2,0,0.2,0,0.5,0c0,0,0,0-0.1,0S106.3,268,106.1,268z M113.4,267.4L113.4,267.4c-0.2,0-0.3,0-0.3,0H113.4z M255.2,266.4 c0.2,0.1,0.2,0.1,0.3,0.1C255.4,266.4,256.5,266.5,255.2,266.4z M8.5,272c0-0.1,0.1-0.1,0.2-0.1C8.6,272,8.5,272,8.5,272 C8.4,272,8.4,272,8.5,272z M106.2,266.9l1.2-0.1C107,266.8,106.6,266.8,106.2,266.9z M202.6,264.1h0.3 C202.8,264.1,202.7,264.1,202.6,264.1z M110.8,266.5c0.2,0.1,0.4,0.1,0.7,0.1c0,0,0.1,0,0.1-0.1H110.8z M255.5,266.5L255.5,266.5 L255.5,266.5z M262.8,266.9c1.1,0,0.3,0.1,1.3,0.2c0.6-0.1,1.1,0.1,1.2-0.1c0.3,0.2,0.2,0.1,0.9,0.3c-0.3-0.2,1.3,0,1.3-0.2 c0.2,0.2-1.2,0.1-0.4,0.4c0.6-0.1,1.8,0,1.9-0.2c0.5,0.1,0.7,0.2,1.4,0.2c-0.1,0-0.3,0-0.3,0c1.3,0,3.2,0.3,4,0.1 c-0.3,0.2,2.7,0.2,1.7,0.4c0.5,0.1,1.4,0,1.6-0.1c-0.1,0.2,1.3,0.2,1.9,0.4c0.3-0.1,1.3,0.1,1.9,0c-0.3,0-0.4,0-0.3,0.1 c0.7,0,0.5,0.1,1,0.2c0.9,0-0.1-0.2,0.4-0.2c0.8,0.1,0.1,0.1,0.2,0.2l1.2-0.1c0.2,0.1,0.4,0.1,0.5,0.2c0.4,0,0.8-0.1,1.3,0.1l-1-0.1 l0.3,0.1h1.2c1.6,0.3,1,0.5,0.9,0.7h-0.7c0,0.1,0.5,0.2,0.8,0.2c0.3,0.1-1.2,0.1-1.9,0.1c-2-0.2-0.3-0.3-1.7-0.5l-1.8-0.1v-0.1 c-0.3-0.1-0.5,0-0.5,0c0.2-0.1-1.4-0.2-2.2-0.2l0.2,0.1c-2.1,0.1-3.1-0.5-4.7-0.5l-1.2,0.1l-0.2-0.2c-0.7,0.1-0.8,0.1-1.9,0 c-1.9-0.3-3.8-0.4-5.8-0.6c-2-0.1-4-0.2-5.9-0.5c0,0.1,0.2,0.1,0.4,0.1c-3.3-0.6-5.4,0-8.3-0.5l0.2-0.1c-1.6-0.1,0.2-0.1-0.9-0.2 c-0.2,0.2-2,0-2.9,0c0.1,0,0.5,0,0.7,0c-0.2-0.1-0.2-0.2-0.7-0.2c-1,0.2-3.2,0.1-4.8,0c-0.2-0.1-1.5-0.3-2.2-0.5 c-0.2,0.1-0.5,0.1-0.8,0.2c-0.6-0.1-1-0.1-1.4,0c0.5,0,0.9,0.1,1.3,0.1l0,0c0.1,0,0.1,0,0.2,0c0.3,0,0.5,0,0.4,0 c0.6,0.1-0.1,0.1,0,0.2c-0.5-0.1-1.6-0.1-1.7-0.1c-0.3,0-0.5-0.1-0.8-0.1c-0.2,0-0.4,0-0.6,0h0.1l-0.1-0.1c-1-0.1-2.5,0-3.3,0.1 c0.8-0.1-0.2-0.2-0.2-0.4c-0.1,0,0.9,0.1,2.2,0.1c-0.1,0-0.2-0.1-0.2-0.1c-1.1-0.2-1.9,0-3.5-0.2c0.1,0,0.3,0,0.2-0.1 c-0.6-0.1-1.1,0-1.2,0.1c-0.1-0.1-1.3-0.2-2-0.2c-0.5,0.1-0.5,0.1-1.4,0.1l0.4-0.1c-1.1-0.1-0.9,0.1-1.9,0c0.4,0.1,0.4-0.1,0.1-0.1 c-1.2,0-1.2,0.1-2.1,0.2l0.2-0.1c-1,0.1-2.9,0.1-2.9-0.1c0.3,0.3-2.2,0.1-3.1,0.1c0.3,0,0.4-0.1,0.4-0.1c-1.9,0.1-3.7-0.1-5.6-0.2 l-0.3-0.2c-1,0-1.3,0.4-2.4,0.4l0.4-0.1c-1.9,0-2.7-0.1-4.2-0.1V265c-0.6,0.1-1.2,0.1-1.8,0.1c-0.6-0.2-1.9-0.2-3.2-0.1 c-1.4,0-2.9,0-4-0.2l-0.2,0.2c-0.9,0-2,0-2.4-0.2h0.2c0.1-0.2-0.9,0-1.4-0.1c-0.4,0-0.8,0.1-0.5,0.2c-2.3-0.2-5.8-0.1-7.3-0.3 c-2.3,0.1-4.1,0.3-6.6,0.3v-0.1c-0.9-0.1-2.6-0.1-2.6-0.3c-1.8,0.1-3,0.4-5.2,0.3l0.5-0.1c-0.6-0.1-1.4,0.1-1.7,0.1 c-0.2,0-0.1-0.1,0-0.1c-0.5-0.1-0.8,0.1-1.2,0.1l0.2-0.1c-0.9-0.1-2,0-3.2,0.1s-2.4,0.2-3.5,0.2c0.4-0.1,0.2-0.1,0-0.1 c-0.9,0.2-3.4,0.2-4.3,0.4l0.6-0.1c-1.8,0.2-1.6-0.2-3.4,0l1,0.1c-0.7,0-1.4,0.1-1.2,0.1c-0.9-0.1-0.1-0.2-1.4-0.2 c-0.1-0.1,0.9-0.1,0.5-0.2l-1.8-0.1c-0.1,0-0.3,0-0.9,0c0.2,0.3-1.5,0.1-0.6,0.3c-2.5,0.1-4.7,0-6.8,0.2c-0.9-0.2-4.3,0.2-4.1-0.2 c-1.2,0.1-2.2,0.2-2.9,0.4c0.2,0,0.6-0.1,0.8-0.1c-0.3,0.1-1.8,0.2-2.4,0.2c0.8-0.1,2.1-0.2,2.7-0.4c-1.1,0.1-2.6,0.3-3.3,0.4 l-0.3-0.2c-0.9,0.2-0.8-0.1-1.7,0.1l0.2,0.1c-1.7,0.1-1.7,0.3-3.3,0.4l0.1-0.1c-0.6,0-1.3,0.2-1.9,0.1l1-0.1 c-0.1-0.1-0.9-0.1-1.3-0.2c-1.1,0.1-0.4,0.2-0.9,0.3c-0.3-0.1-0.1-0.1,0.3-0.2c-1.2,0.1-2.9,0.2-3.7,0.5c-0.1,0,0-0.1,0-0.1 c-1.3,0.1-2.4,0.4-3.2,0.3l0.2-0.1c-1.1-0.1-2.6,0.4-2.9,0.1c-0.5,0,1.1-0.1,0.3-0.2c-1.5,0-1,0.4-2.3,0.4c0.2,0,0.1,0,0.2-0.1 c-1,0.1-2.3,0.2-3.3,0.3c-1.4-0.2-4,0.4-5.6,0.2c0.5,0.1-0.4,0.2-0.3,0.2c0,0,0.1-0.1,0-0.1c-0.6,0.1-0.6,0.1-0.8,0.2 c-0.5-0.1-1.5,0.2-1.8,0.2c0,0.1-0.4,0.1-0.9,0.1c1-0.2,0.3-0.2,0.7-0.3c-1.5,0.1-1.6,0.4-3.2,0.5l-0.9-0.1 c-0.1,0.2-1.6,0.2-1.5,0.3c-0.3-0.1-0.7-0.1-0.6-0.1c-0.6,0.1-1.5,0.1-1.8,0.2h0.6c-1.9,0.1-3,0.5-4.5,0.4v-0.3 c-1-0.1-1.8,0.3-2.6,0.2c0.3,0.1,0.4,0.1-0.2,0.2c0.4,0,1-0.1,1.6-0.2l-1.3,0.3l2-0.2c-0.8,0.2-0.8,0.2-0.4,0.2 c-1.2,0.2-1.4,0-2.5,0.2c-0.4,0,0-0.1-0.5-0.2c-1,0.2-2-0.1-2.8,0.2c-0.2,0,0.4-0.1,0.4-0.1c-0.7,0.1-1.2,0.1-1.3,0.2h0.6 c-0.5,0.1-0.6,0.2-1.6,0.2c-0.5,0.1-0.8,0.3-0.2,0.2c-0.2,0.1-0.8,0-0.6-0.1c-1.5,0.1-0.7,0.4-2.1,0.4c0.1,0,0.2-0.1,0.1-0.1 c-0.4,0-0.7,0.1-0.9,0.1c1.3-0.1-0.5-0.2,1.1-0.3c-0.2-0.1-1.2,0.1-1.7,0.1c-0.7,0.2,0,0.2-0.4,0.4c0-0.1-0.3,0-0.7,0l0.4,0.1 c-0.3,0-0.6,0.1-1,0.1l0.6-0.1c-0.7,0.1-1.7-0.1-2.9,0.1c0.3-0.1,0.9-0.2,0.1-0.2c-1.3,0.2-0.3,0-1.1-0.1c-1.3,0.1-0.2,0.2-2.1,0.3 c-0.2,0,0,0.1,0.2,0.1c-1.3,0.1-2,0.2-3.3,0.2c0.6,0,1,0,0.3,0.1c0.3-0.1-1.1,0-1.5-0.1l-0.1,0.1c-0.4-0.1,0-0.1,0.3-0.1 c0,0,0.1,0.1,0.3,0c0.6-0.1,0.3-0.3-0.6-0.2c-1,0.1-0.8,0.3-0.6,0.3c-1.4,0.1-1.3,0.4-2.6,0.4c-0.3,0-1.4-0.1-2.4-0.1 c-0.5,0.2,1.2,0,0.7,0.2c-1.7-0.2-3.3,0.4-5.5,0.4l0.2-0.2c-0.5,0-1,0.1-1.5,0.1l0.7,0.1c-0.5,0.1-1.7,0.1-1.3-0.1 c-1.1,0.2-1.3,0.1-2.4,0.2c1.1-0.1,0,0,0.8-0.1c-1.2,0-1.3,0.1-2.1,0.1c0.1-0.1-0.3-0.1-0.6-0.1c-0.7,0.1-2,0.2-3.1,0.3v-0.1 c-1.8,0.1-3.7,0-5.5,0.2l0,0l0,0h-0.1H43c0.6,0.1-1.4,0.2-1.9,0.2c-0.1-0.1-0.2-0.1-0.5-0.1c0,0.1-0.7,0.1-0.9,0.2 c-0.6,0,0.1-0.2-1-0.1c-0.4,0-0.4,0.1-0.4,0.2c-0.2-0.1-0.9-0.1-1.5-0.1c0.2-0.1,0.5,0,0.6,0c0.1-0.1-0.3-0.1-0.3-0.1 c-0.5,0-0.2,0.1-0.8,0.1l0.6-0.1c-0.2,0-0.6,0.1-0.7,0.1c0.4-0.1,0.3-0.2,0.2-0.2c-1.4,0.1-0.3,0.3-0.3,0.4 c-1.4-0.1-2.4,0.1-3.5,0.2l0.2-0.1c-0.5,0.1-0.8,0.1-0.9,0.1h-0.8c0.5-0.1,0.6-0.1,0.6-0.2c-0.8,0.1-2,0.1-2.2,0.2v-0.1 c-0.6,0-1.4,0-2.1-0.1c-0.7,0-1.3-0.1-1.2-0.1c-1.2,0.1-2.7-0.1-2.8,0.1c-0.7,0.1-1.9-0.2-2.4,0c-0.8-0.1,0-0.1,0.2-0.2 c-0.8-0.1-1.7,0.2-2-0.1c-1,0.1,0.2,0.1-0.1,0.2c-0.2-0.2-1.8-0.1-2.8-0.2c-0.4,0.1,0.4,0.1-0.3,0.2c0.1-0.1-0.3-0.1-0.5-0.1 l-0.2,0.1l-0.9-0.4c-1.4,0.1,0.3,0.3-1.6,0.3h0.1c-0.5-0.2-1.3,0.1-2.7-0.1c0.5,0.1,0.2-0.1,0.3-0.1l-0.8,0.1c0.1,0,0.1,0,0-0.1 c-0.6-0.1-0.6,0.1-1.3-0.1c0.5,0,0.4-0.1,0.2-0.2L7.5,272l0.5-0.2c-0.5-0.1-1.2,0-1.8,0.1c-0.6,0-1.1,0-1.4-0.2h0.5 c0-0.1-0.3-0.2-1.1-0.2c-0.2,0-0.4,0.1-0.1,0.1l-0.5-0.1c0.3-0.1,1.6-0.1,2.4-0.1c-0.3,0.1-0.9,0.1-0.7,0.1c0.4,0,0.7,0,1.1,0 s0.7-0.1,1.1-0.1c-0.3,0.1-0.5,0.1-0.6,0.2c0.8,0.1,0.6-0.1,1.2-0.1c0.2,0.1,0.4,0.1,0.2,0.1c0.8,0,1.4,0,2.2,0.1 c0,0-0.9,0.1-0.4,0.2c1.5,0,1.8-0.2,3.4-0.2c1.9-0.2,3.6,0.2,4.9,0.1c0.1-0.1-1-0.1-0.1-0.1c-0.1,0.1,0.5,0.1,0.5,0.1 c0.9-0.2,1.3,0.1,2-0.1c-0.2,0.1,0.4,0.1,0.7,0.1c-0.1,0.1,1,0.1-0.3,0.3c1.4-0.2,2.4,0.1,3.4-0.3l-0.3-0.1l1.4,0.1h-0.1 c0.6,0,0.7,0,1.5,0.1c-0.3,0.1-0.8,0.1-1.2,0.1c0.7,0.1,1.5-0.1,2.3-0.1c0,0.1-0.8,0.1-0.6,0.2c0.6,0,1.1-0.1,1.6-0.1l-0.1,0.1 c1.4,0.1,0.5-0.3,1.6-0.1c0-0.1,0.1-0.1,0-0.1c0.4,0.1,1.3,0.1,0.4,0.2c0.5,0,1.1-0.1,1.3-0.1c-0.4-0.1-0.5-0.1-0.7-0.1l2-0.1 c0.2,0-0.2,0.1-0.4,0.1c1.2,0.1,2.4,0,3.6-0.1c1.2-0.1,2.5-0.2,3.8-0.1c-0.3-0.1,0.2-0.1,0.4-0.2c0.9,0,2.1-0.1,2.9-0.1l-0.2,0.1 c2-0.2,3.4-0.4,4.8-0.4c0.1-0.1,0,0.1-0.2,0.1c1-0.2,2.2,0.1,2.5-0.1h-0.4c2-0.1,4.1-0.4,6.1-0.5c0.5,0.1-1.2,0.1-0.7,0.2 c1.4-0.1,2.8-0.2,4.3-0.3c-0.2,0.1-0.2,0.1-0.3,0.1c1.5,0-0.2-0.1,1.1-0.2c-0.1,0.1,0,0.1,0.4,0.1l0.4-0.1c0.1,0,0.1,0.1-0.1,0.2 c0.5-0.2,2.3-0.2,2.7-0.4c0.1,0.1-0.2,0.2,0,0.2c0.7,0,1.1-0.1,1.6-0.2l0,0c0.5,0.1,1.7-0.1,1.4,0c1.2-0.1,0.2-0.1,1.1-0.2h-1 l1.7-0.2l-0.7,0.1c0.8,0,1.6-0.2,2.5-0.2l-0.4-0.1l1-0.1c0.1,0.2,1.3-0.1,0.8,0.2c2-0.1,3.2-0.4,4.9-0.5c-0.3,0-0.2,0.1-0.2,0.1 c1-0.1,1.6-0.2,2.2-0.4c-0.1,0.1-0.4,0.1-0.3,0.2c1.2-0.1,0.7-0.2,2.1-0.4c-0.4,0.1-0.2,0.1,0.1,0.1c-0.1-0.1,0.2-0.1,0.5-0.2 c-0.9,0.4,1.5,0,1,0.4c0-0.1,2.1-0.4,1.5-0.5l-0.4,0.1c-0.1-0.1,0.4-0.1,0.8-0.1c-0.2,0.1-0.4,0.1-0.4,0.1c1.9-0.3,3.9-0.4,6-0.6 c-0.2,0.1-1,0.2-0.5,0.2c2.1-0.1,3.3-0.4,5.5-0.7c0.2,0.2-2.3,0.2-2.4,0.5c2.3-0.2,4.6-0.5,7.1-0.8c1,0.2,2.4-0.4,4.1-0.2 c-0.2-0.1,0.6-0.2,1.4-0.3c-0.3,0.1,0.6,0.1,0.4,0.1c0.7-0.2,2.9-0.4,2.8-0.1c0.2-0.2,1.6-0.1,2.2-0.3c1,0,2-0.2,3.2-0.2 c-0.4-0.1,1.2-0.1,1.6-0.2c-0.1,0-0.4,0.1-0.3,0.1c0.4,0.1,1.3-0.2,2-0.2c0.3,0-0.1,0.1,0.4,0.1c0-0.1,1.8-0.3,2.5-0.2 c-0.3,0-0.3,0.1-0.5,0.1c0.8-0.1,1.6-0.2,2.4-0.2c0.8-0.1,1.6-0.1,2.4-0.1c1.6-0.1,3.3-0.2,4.9-0.4l-0.5,0.2c2,0.1,1.3-0.4,2.9-0.4 c2.2-0.1,4.4-0.1,6.6-0.1c2.2-0.1,4.4-0.1,6.5-0.2c0.3-0.1-0.2-0.1-0.2-0.1c0.4,0,0.5,0.1,1,0.1l-0.1-0.1c2,0.2,5.6-0.4,7.1-0.1 c0.9-0.1,1.7-0.1,2.6-0.1c0.8,0,1.7,0,2.9-0.1c0.7,0.1-0.8,0.2,0.1,0.2l2.1-0.2h-0.1c1-0.2,2.3-0.1,3.8-0.1c0.7,0,1.4,0.1,2.1,0.1 c0.7,0,1.4,0,2-0.1h-0.1c-0.1,0.1,0.5,0.1,0.9,0.1c0.1-0.1-0.1-0.1-0.4-0.1c2.3-0.1,2.8-0.1,4.6-0.2c-0.8,0.1,0.7,0.1,0.8,0.2 c0.5-0.1-0.3-0.1,0.8-0.2c0.7,0,1.5,0,2.2,0s1.3,0.1,2,0.1c0.5-0.1,1.2-0.1,1.2-0.2c1.7,0,2.6-0.1,4.7-0.1l0.1,0.1 c0.6-0.2,1.8,0.1,2.2,0c-0.1,0.1-0.3,0.1-0.2,0.1l0.9-0.1c-0.4,0.1-0.7,0.2,0.1,0.2c0.8-0.1-0.2-0.1,0.2-0.2l0.2,0.2 c0.6,0,0.8-0.2,0-0.2c2.1,0,4.1-0.1,6,0l-0.2,0.1c1,0,2.4,0,3,0.1c0-0.1,0.3-0.1,0.1-0.1c1.2-0.1,0.1,0.2,1.5,0.1 c-0.3,0.1-0.7,0.1-0.8,0.1c0.8-0.1,1.7-0.1,2.5-0.1c0,0.1,1.5,0.3,2.6,0.2c0-0.1-0.3-0.1-0.5-0.1h0.7l0.5,0.2l1-0.1v0.2 c0.7,0,1-0.2,1.6-0.2c2.2,0.1,1.7,0.2,3.3,0.4c0.2-0.3,2.5,0.1,2.9-0.1c2,0.3,5,0.2,7.7,0.4h-0.2c1.1,0.2,1.3-0.2,2.6-0.1h-0.3 c1.6,0.2,4.4,0.2,5.9,0.1c-0.3,0.1-0.2,0.1,0.3,0.1c0.4-0.1-0.4-0.2,0.5-0.1c-0.2,0-0.1,0.1,0.1,0.1l0.9-0.1 c2.2,0.2,4.8,0.4,7.1,0.5c0.4,0.1,0.1,0.1,0,0.2c1.8,0.1,3.6,0.1,5.3,0.1l0.1,0.2c0.8,0.1,0.5-0.2,1.6,0c0.2,0.1-0.7-0.1-1,0 c1.6,0.2,1-0.1,2.5,0l-0.4,0.2c1.2,0.2,1.4,0,1.8-0.1c1.7-0.1,1.1,0.4,3.4,0.4c0.4-0.1-0.1-0.1,0.3-0.2c1.6,0.1,1.8,0,3.4,0.2 c0.8,0.4-0.8-0.1,0.1,0.2l-1.2-0.1c1,0.2-0.9,0-0.8,0.2c0.8,0.1,2,0,3,0.1c0,0.1-1.2-0.1-0.7,0.1h0.5c-0.1,0-0.2,0.1-0.5,0.1 c0.2,0.1,0.6,0.1,1.1,0.1c0-0.1,0-0.2-0.1-0.2l0.1,0.1c1-0.1,2.7,0.2,3.6,0.1c-0.1,0,0,0.1,0,0.1c0.6,0.1,1.3-0.1,2.1-0.1 c0.4,0.1-0.3,0.2,1,0.3c0.3-0.1-0.3-0.3,0.8-0.2C263.2,266.8,262.3,266.8,262.8,266.9z M237.9,265.5c-0.1,0-0.3,0-0.5,0l0,0 C237.6,265.5,237.7,265.5,237.9,265.5z M235.8,265.5c0.2,0,0.3-0.1,0.2-0.1c-0.3,0-0.7-0.1-0.9-0.1 C235.5,265.5,236,265.5,235.8,265.5z M239.7,266.5L239.7,266.5c-0.3,0-0.5,0-0.6,0c0,0.1,0.2,0.1,0.5,0.1 C239.7,266.6,239.7,266.5,239.7,266.5z M240.2,266.4c0.1,0,0.1,0,0.1,0S240.3,266.4,240.2,266.4c-0.1-0.1-0.1,0-0.2,0 C240.1,266.4,240.2,266.4,240.2,266.4z M43.3,272.5L43.3,272.5C43.4,272.5,43.3,272.5,43.3,272.5L43.3,272.5z M205.1,264.1 L205.1,264.1h0.2H205.1z M31.3,272.3c0,0-0.1,0-0.2-0.1C31.2,272.3,31.2,272.3,31.3,272.3z M26.1,272.4l-0.7-0.1 C25.7,272.4,25.9,272.4,26.1,272.4z M22.2,272.3C22.1,272.3,22.1,272.4,22.2,272.3l-0.1,0.1L22.2,272.3z M85.2,268.8 c0.1,0,0.1,0,0.2,0C85.7,268.7,85.4,268.8,85.2,268.8z M66.5,270.6c0.2-0.1,0.4-0.1,0.6-0.1C66.8,270.5,66.5,270.5,66.5,270.6z M106,266.9L106,266.9L106,266.9L106,266.9z M68,270.5c-0.3,0-0.6,0-0.9,0.1C67.4,270.5,67.7,270.5,68,270.5z M4.9,271.7H4.7l0,0 H4.9z M4.7,271.7H4.5C4.6,271.7,4.7,271.8,4.7,271.7z M4.1,271.7h0.5C4.4,271.7,4.2,271.7,4.1,271.7z M10.2,272.1L10.2,272.1 C10.2,272,10.2,272,10.2,272.1z M11.8,272.1c-0.4,0-0.9-0.1-1.5-0.1l-0.1,0.1C10.5,272,11.4,272.2,11.8,272.1z M18.4,272.9l-1.3-0.1 c0.2,0.1,0.5,0.1-0.1,0.1C18.7,273.2,16.7,272.9,18.4,272.9z M22.6,273c-0.7,0,0,0.1,0,0.1C23,273.1,23.1,273.1,22.6,273z M52.8,272.1l-0.1,0.1C53.3,272.2,52.7,272.2,52.8,272.1z M58.4,271.1l-0.6-0.1l-0.2,0.1H58.4z M61.9,271.7l-0.2,0.1l0.9-0.1H61.9z M112.1,267.7l-0.2-0.1C111.5,267.6,111.5,267.7,112.1,267.7z M133.8,266.2c0.2,0.1,0.9,0.1,1.2,0 C134.5,266.2,134,266.1,133.8,266.2z M199.2,265.2l-0.4,0.1l0.8-0.1H199.2z M14.8,0.4c0.1,0.1,0.2,0.1,0.2,0s-0.1-0.2-0.3-0.2 c-0.1,0-0.3,0.1-0.3,0.1S14.6,0.3,14.8,0.4z M11.9,1c-0.1,0.2-0.2,0.5-0.2,0.7s0.1,0.2,0.3,0.1c0-0.2,0-0.4,0.1-0.5s0.1-0.3,0.2-0.5 c0.3-0.4,0.8-0.5,0.8-0.4c0-0.1,0.2-0.1,0.4-0.2S13.9,0.1,14,0c-0.4-0.1-0.8,0.1-1.2,0.3S12.2,0.8,12,1.2C11.9,1.3,11.9,1.1,11.9,1z M8.7,39.9v-0.2C8.7,39.7,8.7,39.8,8.7,39.9z M8,64c0-0.2,0-0.2-0.1-0.2C8,63.9,8,64,8,64z M7.6,68.1c0-0.1,0-0.2,0-0.2 C7.6,68,7.6,68,7.6,68.1z M8.7,39.9l-0.1,0.6C8.7,40.5,8.7,40.2,8.7,39.9z M11.6,6.4c0-0.1,0-0.2-0.1-0.4 C11.6,6.1,11.6,6.2,11.6,6.4L11.6,6.4z M8.9,29.3v-0.2c0-0.1-0.1-0.1-0.1-0.2L8.9,29.3z M9.2,21.1c0,0.2,0.2,0.2,0.3,0.3 c-0.1-0.1-0.1-0.2-0.2-0.4C9.3,21,9.3,21,9.2,21.1z M10.5,7.9v0.2C10.5,8.1,10.5,8,10.5,7.9z M8.6,35.1l-0.1,0.1 C8.5,35.2,8.5,35.1,8.6,35.1z M4.5,263.2L4.5,263.2L4.5,263.2z M0.7,272.3v-0.1l-0.1-0.1L0.7,272.3z M7.3,75.6L7.3,75.6 C7.3,75.4,7.3,75.5,7.3,75.6z M8.4,144.8c0.2-0.8,0.3,1.3,0.5,0.1C8.8,145,8.5,143.8,8.4,144.8z M11.6,6.6c0,0.1,0,0.2,0,0.4 C11.6,6.8,11.6,6.7,11.6,6.6z M8.9,144.9L8.9,144.9v-0.1C9,144.8,9,144.9,8.9,144.9z M7.5,93c0-0.1,0.1-0.1,0.1-0.2 C7.6,92.8,7.6,92.9,7.5,93z M7.8,80.1v0.3C7.8,80.2,7.8,80.2,7.8,80.1z M7.9,99.7c0,0.2-0.1,0.2,0,0.5v-0.1 C7.9,100.1,7.9,99.9,7.9,99.7z M8,106.7C8,106.6,8,106.6,8,106.7c0-0.2,0-0.2,0-0.3V106.7z M8.5,242c-0.1,0.1-0.2,0.2-0.3,0.3 C8.4,242.2,8.3,243.2,8.5,242z M11.5,6.4c0.1,0.1,0.1,0.1,0.1,0.2C11.6,6.5,11.6,6.4,11.5,6.4C11.6,6.3,11.5,6.3,11.5,6.4z M9.9,100 v1.1C9.9,100.8,9.9,100.4,9.9,100z M11.3,191.9v0.2C11.3,192,11.3,191.9,11.3,191.9z M10,104.4c-0.1,0.2-0.1,0.4-0.2,0.6 c0,0.1,0,0.1,0.1,0.1L10,104.4z M8.2,242.3L8.2,242.3L8.2,242.3z M7.4,249.2c-0.1,1-0.1,0.3-0.5,1.3c0.2,0.5-0.3,1,0.1,1.1 c-0.3,0.3-0.2,0.2-0.6,0.8c0.1-0.1,0.1,0.2,0.2,0.5c0,0.4,0,0.7,0.1,0.7c-0.4,0.2-0.2-1.1-0.7-0.3c0.1,0.6-0.1,1.7,0.3,1.8 c-0.2,0.4-0.3,0.6-0.5,1.3c0-0.1,0-0.2,0-0.3c0,1.3-0.6,3-0.4,3.8c-0.4-0.3-0.7,2.6-0.9,1.6c-0.1,0.5-0.1,1.3,0,1.5 c-0.4-0.1-0.4,1.3-0.8,1.8c0.1,0.3-0.1,1.2-0.2,1.8c0-0.2,0-0.4-0.1-0.3c0,0.7-0.1,0.5-0.5,1c-0.1,0.8,0.3-0.1,0.4,0.4 c-0.3,1-0.3,0.3-0.5,0.4l0.1,1.1c-0.1,0.2-0.2,0.4-0.4,0.4c0,0.4,0.1,0.7-0.3,1.3l0.3-1l-0.3,0.4l-0.1,1.1c-0.7,1.6-1,1-1.4,0.8 l0.1-0.7c-0.1,0-0.4,0.4-0.4,0.7c-0.2,0.2-0.1-1.1,0-1.8c0.6-1.9,0.6-0.4,1.1-1.6l0.2-1.7h0.1c0.2-0.2,0.1-0.4,0-0.5 c0.1,0.1,0.2-0.3,0.3-0.7c0.1-0.4,0.2-1,0.3-1.3L2.2,265c0-1.9,1.2-3,1.4-4.5c0-0.4,0-0.7-0.1-1.1l0.3-0.2c0-0.7-0.2-0.8,0.1-1.8 c0.3-0.9,0.6-1.8,0.8-2.7c0.1-0.5,0.2-0.9,0.3-1.4c0.1-0.5,0.2-1,0.2-1.4c0.3-1.9,0.6-3.8,1-5.6c-0.1,0.1-0.1,0.2-0.2,0.4 c0.6-1.6,0.6-2.8,0.6-4.1c0-1.2,0-2.4,0.4-3.9l0.1,0.2c0.1-1.5,0.1,0.2,0.4-0.8c-0.3-0.2,0-1.9-0.1-2.8c0.1,0.1,0,0.4,0,0.7 c0.1-0.2,0.3-0.2,0.3-0.7c-0.2-0.5-0.2-1.2-0.2-2.1c0-0.8,0.1-1.7,0.1-2.5c0.2-0.2,0.5-1.4,1-2.1c-0.1-0.2-0.2-0.4-0.3-0.7 c0.2-0.5,0.1-1,0-1.3c0,0.5-0.1,0.9-0.1,1.2c0,0,0,0,0-0.1c0,0.1,0,0.1,0,0.2c0,0.3,0,0.5,0,0.4c-0.3,0.6-0.2-0.1-0.4,0 c0.1-0.5,0.1-1.5,0.3-1.6c0-0.3,0.1-0.5,0.1-0.8c0-0.2,0-0.4,0-0.6v0.1c0-0.1,0.1-0.1,0.1-0.1c0.2-1-0.1-2.4-0.2-3.1 c0.3,0.8,0.4-0.2,0.6-0.2c0-0.1-0.1,0.9-0.2,2.1c0-0.1,0.1-0.2,0.2-0.2c0.3-1-0.1-1.8,0.2-3.4c0,0.1,0.1,0.3,0.1,0.2 c0.1-0.5-0.1-1-0.2-1.2c0.2-0.1,0.5-1.3,0.4-1.9c-0.2-0.5-0.3-0.4-0.2-1.4l0.1,0.4c0.2-1.1-0.2-0.9,0-1.8c-0.1,0.4,0.1,0.4,0.1,0.1 c0-1.1-0.1-1.1-0.4-2l0.2,0.2c-0.1-1-0.4-2.8,0-2.8c-0.5,0.3-0.2-2.1-0.2-3c0,0.3,0.1,0.4,0.2,0.4c-0.2-1.8,0.2-3.6,0.2-5.4l0.4-0.3 c0-1-0.7-1.2-0.7-2.2l0.2,0.4c-0.1-1.8,0-2.5,0.1-4h0.3c-0.1-0.5-0.1-1.2-0.2-1.7c0.6-1.2-0.3-4.8,0.3-6.9L9,187.5 c0-0.8-0.1-1.9,0.2-2.3v0.2c0.4,0.1,0-0.8,0.1-1.4c0-0.4-0.3-0.8-0.4-0.4c0.2-2.2-0.1-5.6,0.3-6.9c-0.2-2.2-0.6-3.9-0.6-6.3h0.1 c0-0.8,0.1-2.4,0.5-2.4c-0.1-1.8-0.7-2.8-0.6-4.9l0.2,0.4c0.1-0.5-0.1-1.4-0.2-1.6c0-0.2,0.1-0.1,0.1,0c0.1-0.5-0.1-0.8-0.1-1.2 l0.1,0.2c0.2-1.6-0.4-4.2-0.3-6.4c0,0.4,0.2,0.2,0.3,0c-0.5-0.8-0.4-3.3-0.5-4.2l0.2,0.5c-0.3-1.8,0.4-1.5,0.1-3.2l-0.2,1 c0.1-0.7,0-1.3-0.2-1.1c0.1-0.8,0.3-0.1,0.4-1.3c0.1-0.1,0.1,0.9,0.3,0.5l0.3-1.7c0-0.1,0-0.2,0-0.8c-0.5,0.2-0.1-1.4-0.6-0.5 c-0.1-2.4,0.2-4.5-0.1-6.5c0.5-0.8-0.1-4.1,0.6-3.9c0-1.1-0.2-2.1-0.5-2.8c-0.1,0.2,0,0.5,0.1,0.8c-0.2-0.3-0.2-1.7-0.2-2.3 c0.2,0.8,0.3,2,0.6,2.6c-0.1-1.1-0.4-2.5-0.5-3.1l0.3-0.3c-0.3-0.9,0.3-0.7-0.1-1.6l-0.1,0.2c0-1.6-0.4-1.7-0.4-3.2l0.1,0.1 c0-0.5-0.3-1.3,0-1.8v1c0.2-0.1,0.3-0.8,0.5-1.2c-0.1-1-0.4-0.4-0.5-0.9c0.2-0.2,0.1-0.1,0.4,0.3c-0.1-1.2-0.2-2.8-0.5-3.6 c0-0.1,0.1,0,0.1,0c0-1.2-0.4-2.3-0.2-3.1v0.2c0.3-1-0.4-2.5,0.2-2.8c0.1-0.5,0,1.1,0.3,0.3c0.2-1.4-0.5-1-0.4-2.2 c0,0.2,0,0.1,0.1,0.2c0-0.9-0.1-2.2-0.2-3.2c0.5-1.3-0.2-3.9,0.4-5.3c-0.2,0.5-0.2-0.4-0.3-0.4c0,0,0.1,0.1,0.1,0 c0-0.5-0.2-0.6-0.3-0.8c0.2-0.4-0.2-1.4-0.1-1.8c-0.1,0-0.1-0.4-0.1-0.9c0.1,1,0.3,0.3,0.5,0.7c0-1.4-0.6-1.6-0.5-3.1L8,94.1 c-0.4-0.2-0.2-1.5-0.4-1.5c0.1-0.2,0.2-0.6,0.3-0.5c-0.1-0.6,0.1-1.4-0.1-1.7L7.7,91c0.1-1.8-0.4-2.9-0.2-4.3H8 c0.2-0.9-0.3-1.7,0-2.5c-0.2,0.3-0.1,0.4-0.3-0.2c0,0.4,0.1,1,0.1,1.6l-0.3-1.3l0.2,1.9c-0.2-0.8-0.2-0.8-0.4-0.4 c-0.2-1.2,0.2-1.3,0-2.4c0.1-0.4,0.3,0,0.4-0.5c-0.2-1,0.4-1.9,0.1-2.7c0.1-0.2,0,0.4,0.1,0.4c-0.1-0.7,0-1.1-0.2-1.3l-0.1,0.5 c0-0.5-0.2-0.5-0.1-1.5c-0.1-0.5-0.4-0.8-0.4-0.2c0-0.2,0.1-0.8,0.3-0.5c0-1.4-0.6-0.7-0.3-2.1c0,0.1,0,0.2,0.1,0.1 c0-0.4,0-0.7,0-0.9c0,1.3,0.4-0.4,0.3,1.1c0.3-0.2,0.1-1.1,0.2-1.6c-0.2-0.7-0.4-0.1-0.5-0.4c0.1,0,0.1-0.3,0.1-0.7l-0.2,0.4 c0-0.3,0-0.6,0-1L7.2,73c0-0.7,0.4-1.6,0.2-2.8c0.1,0.3,0.3,0.9,0.4,0.1c-0.1-1.3,0.1-0.3,0.3-1c0-1.2-0.4-0.2-0.2-2.1 c0-0.2-0.1,0-0.2,0.2c0.1-1.3,0-1.9,0.1-3.1c-0.1,0.5-0.1,0.9-0.2,0.2c0.2,0.3,0.2-1,0.3-1.4L7.8,63C7.9,62.7,8,63,8,63.3 c0,0-0.1,0.1-0.1,0.3C8,64.2,8.4,64,8.4,63.1c-0.1-1-0.4-0.8-0.5-0.7c0.1-1.3-0.5-1.3-0.3-2.5c0-0.3,0.4-1.3,0.5-2.2 c-0.2-0.5-0.2,1.1-0.4,0.6C8.3,56.7,7.4,55,7.8,53l0.3,0.2c0-0.5,0.1-1,0-1.4L8,52.9c-0.1-0.5,0-1.6,0.2-1.2c-0.2-1.1-0.1-1.3,0-2.3 c0,1,0,0,0.1,0.8c0.2-1.1,0.1-1.2,0-1.9c0.1,0.1,0.3-0.3,0.3-0.5c-0.2-0.7-0.1-1.9-0.2-3h0.1c-0.1-1.7,0.4-3.5,0.2-5.2l0,0l0,0 c0-0.1,0-0.1,0-0.1v0.1c-0.3,0.6-0.2-1.3-0.3-1.8c0.1-0.1,0.2-0.2,0.2-0.5c-0.3,0-0.1-0.7-0.2-0.9c0.1-0.6,0.3,0.1,0.3-0.9 C8.8,35,8.7,35,8.6,35c0.1-0.2,0.3-0.8,0.3-1.4c0.1,0.2,0,0.5,0,0.6C9,34.4,9,34,9.1,34c0.1-0.5-0.2-0.2-0.1-0.8l0.2,0.5 c0.1-0.2,0-0.5,0-0.7c0,0.4,0.3,0.3,0.4,0.2C9.5,32,9,33.1,8.8,33.1c0.2-1.3,0-2.3,0-3.3L9,29.9c0-0.5-0.1-0.7-0.2-0.9v-0.7 c0.1,0.4,0.1,0.6,0.3,0.6c0-0.8,0.1-1.9-0.2-2.1H9c0.2-1.1,0.4-3.3,0.5-3.2C9.4,22.5,9.7,21,9.4,21c0-0.7,0.5-1.8,0.1-2.2 C9.8,18,9.6,18.7,9.8,19c0.3-0.8-0.2-1.6,0.3-1.9c-0.1-1-0.1,0.2-0.3-0.1c0.4-0.2,0.2-1.8,0.5-2.6c-0.2-0.4-0.1,0.4-0.3-0.3 c0.1,0.1,0.1-0.3,0.2-0.5l-0.3-0.2l0.7-0.9c-0.2-1.3-0.5,0.2-0.5-1.5v0.1c0.3-0.5-0.1-1.3,0.2-2.5c-0.1,0.4,0.1,0.2,0.2,0.3 l-0.1-0.7c0,0.1,0,0.1,0.1,0c0.3-0.6-0.1-0.5,0.2-1.3c0,0.5,0.2,0.4,0.4,0.1l-0.2-1l0.3,0.4c0.1-1-0.4-2.5,0.2-3.1v0.5 c0.1-0.1,0.4-0.3,0.2-1c0-0.2-0.2-0.4-0.2-0.1c0-0.2,0.1-0.4,0.1-0.5c0,0.1,0.1,0.2,0.1,0.4s0,0.4,0.1,0.6c0,0.4,0,1,0,1.4 c-0.1-0.2-0.1-0.8-0.3-0.7c0,0.7,0.1,1.4,0.2,2.1c-0.1-0.3-0.2-0.5-0.3-0.6c-0.2,0.8,0.1,0.6,0.1,1.1c-0.1,0.2-0.2,0.4-0.3,0.2 c0,0.7,0,1.3-0.2,2.1c0,0-0.1-0.8-0.3-0.4c0,1.4,0.3,1.7,0.4,3.3c0.3,1.8-0.5,3.4-0.2,4.7c0.1,0.1,0.3-0.9,0.3-0.1 c-0.2-0.1-0.2,0.5-0.3,0.5c0.3,0.8-0.2,1.3,0,1.9c-0.1-0.1-0.2,0.4-0.3,0.7c-0.3-0.1-0.2,1-0.5-0.3c0.3,1.3-0.2,2.3,0.4,3.3l0.1-0.3 l-0.2,1.3v-0.1c-0.1,0.5,0,0.7-0.3,1.4c0-0.3,0-0.8-0.1-1.1C9.6,24.3,10,25,10,25.8c-0.2-0.1,0-0.8-0.3-0.6c-0.1,0.5,0.1,1,0.1,1.5 l0,0c-0.3,1.3,0.5,0.5,0.1,1.5c0.1-0.1,0.1,0.1,0.2,0.1c-0.1,0.4-0.4,1.2-0.5,0.4c0,0.5,0.1,1,0.2,1.3c0.2-0.4,0.1-0.5,0.3-0.7v1.9 c0,0.2-0.1-0.2-0.1-0.4c-0.7,2.2,0.3,4.5-0.5,7.1c0.2-0.3,0.2,0.2,0.3,0.4c-0.1,0.8-0.1,2.1-0.2,2.8l-0.1-0.2 c0.1,1.9,0.2,3.3,0.1,4.6c0.1,0.1-0.2,0-0.2-0.2c0.2,1-0.5,2.1-0.1,2.4V47c-0.1,1.9,0.2,3.9,0.2,5.9c-0.3,0.4,0-1.1-0.4-0.7 c-0.1,1.3,0.1,2.7,0,4.2c0-0.2-0.1-0.2-0.1-0.3c-0.2,1.4,0.3-0.2,0.2,1.1c-0.1-0.1-0.2,0-0.3,0.4L9.1,58c0,0.1-0.2,0.1-0.3-0.1 c0.3,0.5,0.1,2.2,0.3,2.6c-0.1,0.1-0.3-0.2-0.4,0c-0.1,0.7,0,1.1,0.1,1.5l0,0c-0.2,0.5-0.2,1.6-0.2,1.3c-0.1,1.1,0.2,0.2,0.3,1.1 l0.1-1L9.1,65L9,64.4c-0.1,0.8,0.1,1.5,0.1,2.4l0.2-0.4l0.1,1c-0.3,0.1-0.1,1.3-0.5,0.7c-0.2,1.9,0.2,3.1,0.3,4.8 c0-0.3-0.1-0.2-0.1-0.2c-0.1,1,0.1,1.6,0.3,2.2c-0.1-0.1-0.1-0.4-0.2-0.4c0,1.1,0.2,0.7,0.3,2c-0.1-0.4-0.2-0.2-0.2,0.1 c0.1-0.1,0.2,0.2,0.2,0.5c-0.7-1-0.3,1.4-0.8,0.8C8.8,78,9.1,80,9.4,79.5v-0.4c0.2-0.1,0.1,0.4,0.1,0.8c0-0.2-0.1-0.4-0.1-0.4 c0.2,1.8,0,3.7,0.2,5.8c-0.1-0.2-0.2-1-0.2-0.5c-0.1,2.1,0.3,3.3,0.4,5.3c-0.4,0.1-0.1-2.2-0.5-2.3c0.1,2.2,0.3,4.4,0.5,6.8 c-0.6,0.8,0.3,2.4-0.2,3.9c0.2-0.1,0.3,0.6,0.3,1.4c-0.2-0.3-0.2,0.6-0.3,0.4c0.2,0.7,0.3,2.8-0.1,2.7c0.4,0.2,0,1.5,0.3,2.1 c-0.1,0.9,0.1,1.9,0,3.1c0.2-0.4,0.1,1.1,0.2,1.5c0-0.1-0.1-0.4-0.1-0.3c-0.2,0.4,0.2,1.3,0.1,1.9c-0.1,0.3-0.2-0.1-0.2,0.4 c0.2,0,0.4,1.8,0.2,2.4c0-0.3-0.1-0.3-0.2-0.5c0.3,3,0,6.2,0.5,9.3l-0.3-0.5c-0.3,1.9,0.5,1.3,0.5,2.8c-0.1,4.2-0.4,8.5-0.1,12.6 c0.1,0.3,0.1-0.2,0.2-0.2c0,0.4-0.3,0.5-0.1,0.9l0.2-0.1c-0.4,1.9,0.4,5.4-0.2,6.7c0.3,1.8-0.1,3,0.3,5.2c-0.1,0.7-0.3-0.8-0.3,0.1 l0.3,2v-0.1c0.5,1.9-0.4,5.1,0,7.5v-0.1c-0.1-0.1-0.2,0.4-0.2,0.8c0.1,0.1,0.1-0.1,0.2-0.4c0.2,2.2,0.2,2.6,0.3,4.3 c-0.2-0.7-0.1,0.7-0.4,0.8c0.2,0.4,0.2-0.2,0.4,0.7c0.1,1.4-0.1,2.7-0.2,3.9c0.2,0.5,0.2,1.1,0.4,1.1c0,1.6,0.2,2.5,0.2,4.5 l-0.1,0.1c0.3,0.5-0.1,1.7,0.1,2.1c-0.1-0.1-0.2-0.2-0.2-0.2l0.1,0.9c-0.1-0.4-0.4-0.7-0.4,0.1c0.2,0.8,0.1-0.2,0.3,0.2l-0.3,0.2 c0,0.6,0.4,0.7,0.5,0.1c0,2,0.2,3.9,0.2,5.7l-0.2-0.2c0.1,1,0.1,2.3-0.1,2.8c0.1,0,0.2,0.2,0.2,0.1c0.3,1.1-0.3,0.1,0,1.4 c-0.1-0.3-0.1-0.7-0.2-0.8l0.2,2.4c-0.1,0-0.5,1.4-0.3,2.5c0.1,0.1,0.2-0.2,0.2-0.5l0.1,0.7l-0.3,0.5l0.3,0.9h-0.3 c0.1,0.7,0.4,1,0.4,1.5c-0.2,2.1-0.3,1.6-0.6,3.1c0.5,0.2,0,2.4,0.3,2.7c-0.4,1.9-0.2,4.8-0.4,7.4v-0.2c-0.3,1.1,0.4,1.3,0.2,2.4 l-0.1-0.3c-0.2,0.8-0.2,1.8-0.2,2.8s0.1,2.1,0.2,2.8c-0.1-0.3-0.2-0.1-0.2,0.3c0.1,0.4,0.4-0.4,0.2,0.4c0-0.2-0.2-0.1-0.2,0.1 l0.2,0.8c-0.3,2.1-0.7,4.6-0.7,6.8c-0.1,0.4-0.2,0.1-0.3,0c-0.1,1.8,0,3.4-0.1,5l-0.3,0.1c-0.1,0.8,0.4,0.5,0.1,1.4 c-0.1,0.2,0-0.7-0.1-0.9c-0.4,1.5,0.2,0.9,0,2.4l-0.4-0.4c-0.3,1.1,0,1.3,0.2,1.7c0.2,1.6-0.8,1.1-0.7,3.3c0.1,0.4,0.3-0.1,0.4,0.2 c-0.3,1.5,0,1.7-0.3,3.2c-0.6,0.8,0.1-0.8-0.5,0.1l0.3-1.1c-0.4,1,0-0.9-0.3-0.8c-0.2,0.7-0.1,1.9-0.1,2.8c-0.2,0,0.1-1.1-0.2-0.7 v0.5c0-0.1-0.1-0.2-0.1-0.5c-0.2,0.2-0.1,0.6-0.2,1c0.1,0.1,0.3,0,0.5-0.1l-0.1,0.1c0.2,1-0.3,2.6-0.2,3.4c0-0.1-0.1,0-0.1,0 c-0.1,0.6,0.1,1.2,0,2c-0.2,0.4-0.5-0.3-0.6,1c0.1,0.2,0.6-0.3,0.4,0.7C7.6,249.6,7.7,248.7,7.4,249.2z M9.9,225.5 c0-0.1,0-0.3,0-0.5l0,0C9.9,225.2,9.9,225.3,9.9,225.5z M9.8,223.5c0,0.2,0.1,0.3,0.2,0.2c0-0.4,0-0.7,0.1-0.9 C10,223.2,9.9,223.7,9.8,223.5z M8.1,227.3L8.1,227.3c0-0.3,0-0.5,0-0.6C8,226.8,8,226.9,8,227.2C8,227.3,8.1,227.3,8.1,227.3z M8.3,227.8c0,0.1,0,0.1,0,0.1C8.3,227.9,8.3,227.8,8.3,227.8c0.1-0.1,0-0.1,0-0.2C8.3,227.7,8.3,227.8,8.3,227.8z M8.7,39.6 L8.7,39.6C8.7,39.6,8.8,39.5,8.7,39.6C8.8,39.6,8.7,39.6,8.7,39.6z M11.4,194.2L11.4,194.2v0.2V194.2z M10,28.2c0,0,0-0.1,0.1-0.1 C10.1,28,10.1,28.1,10,28.2z M10.4,23.2l0.1-0.7C10.4,22.9,10.4,23,10.4,23.2z M10.7,19.4c0-0.1-0.1-0.1-0.1-0.1l0,0L10.7,19.4z M9.5,79.8C9.5,79.9,9.5,79.9,9.5,79.8C9.5,80.3,9.5,80.1,9.5,79.8z M9,61.8c0,0.2,0.1,0.4,0.1,0.6C9.1,62.1,9.1,61.8,9,61.8z M9.9,99.9L9.9,99.9C9.9,100,9.9,100,9.9,99.9L9.9,99.9z M9.1,63.3c0.1-0.3,0-0.6,0-0.8C9.1,62.7,9.1,63,9.1,63.3z M11.9,3V2.8l0,0 V3z M11.9,2.8V2.6C11.9,2.7,11.9,2.7,11.9,2.8z M11.9,2.2c0,0.1,0,0.2,0,0.4C11.9,2.4,11.9,2.3,11.9,2.2z M11.4,8L11.4,8 C11.5,8,11.5,8,11.4,8z M11.3,9.5c0-0.4,0.3-0.9,0.2-1.4L11.4,8C11.6,8.3,11.2,9.2,11.3,9.5z M9.8,15.9l0.2-1.3 c-0.2,0.2-0.3,0.5-0.3-0.1C9.3,16.1,9.9,14.2,9.8,15.9z M9.4,19.8c0-0.7-0.1,0-0.2-0.1C9.3,20.3,9.3,20.4,9.4,19.8z M8.3,48.5 l-0.2-0.1C8.1,49,8.1,48.5,8.3,48.5z M9.3,54l0.2-0.5l-0.2-0.2V54z M7.7,57.3V57l0.1,0.9L7.7,57.3z M7.8,105.5l0.3-0.2 C8,104.9,7.7,104.9,7.8,105.5z M8.4,126.3c-0.1,0.2-0.2,0.8-0.1,1.1C8.4,127,8.5,126.5,8.4,126.3z M9.1,188.7L9,188.3l0.1,0.8V188.7 z M86.1,1.1C86.1,1,86.1,1,86,1l-0.1,0.2L86.1,1.1z M85.3,0.8C85.2,0.9,85,1,85.1,1.2C85.2,1,85.2,1,85.3,0.8 C85.5,0.9,85.6,1,85.6,1c0-0.1,0.2,0.1,0.2-0.1C85.7,0.8,85.5,0.8,85.3,0.8C85.3,0.9,85.3,0.9,85.3,0.8z M74.9,0.8L74.9,0.8 L74.9,0.8z M68.4,0.9C68.4,0.9,68.5,0.8,68.4,0.9C68.4,0.8,68.4,0.9,68.4,0.9z M67.3,0.7L67.3,0.7L67.3,0.7z M74.9,0.8l-0.2-0.1 C74.7,0.8,74.8,0.8,74.9,0.8z M83.9,1.2C83.9,1.2,84,1.2,83.9,1.2C84,1.2,83.9,1.2,83.9,1.2L83.9,1.2z M77.7,0.6L77.7,0.6 C77.8,0.6,77.8,0.6,77.7,0.6L77.7,0.6z M79.9,0.6c0,0-0.1,0.1-0.1,0.2C79.8,0.7,79.9,0.7,79.9,0.6L79.9,0.6z M83.4,0.7L83.4,0.7 L83.4,0.7z M76.1,0.6L76.1,0.6L76.1,0.6z M15.5,3.1C15.5,3,15.5,3,15.5,3.1C15.5,3,15.5,3.1,15.5,3.1z M15.3,3.5L15.3,3.5 c-0.1,0.1-0.1,0.1-0.1,0.1L15.3,3.5z M65.2,0.6C65.3,0.6,65.3,0.6,65.2,0.6C65.3,0.6,65.3,0.6,65.2,0.6z M46.7,1 c0.2,0.1-0.3,0.2,0,0.3C46.7,1.3,47,1.2,46.7,1z M83.9,1.2C83.8,1.2,83.8,1.2,83.9,1.2C83.8,1.2,83.8,1.2,83.9,1.2z M46.7,1.3 L46.7,1.3L46.7,1.3C46.7,1.4,46.7,1.3,46.7,1.3z M60.6,0.7C60.6,0.7,60.6,0.8,60.6,0.7C60.6,0.8,60.6,0.8,60.6,0.7z M64.1,0.9 L64.1,0.9C64,0.9,64.1,0.9,64.1,0.9z M58.8,1L58.8,1L58.8,1L58.8,1z M56.9,1C56.9,1,57,1,56.9,1C57,1,57,1,56.9,1L56.9,1z M20.7,2.8 c0-0.1-0.1-0.1-0.1-0.1C20.6,2.8,20.4,2.9,20.7,2.8z M83.9,1.2L83.9,1.2L83.9,1.2L83.9,1.2z M58.8,2.1h-0.3 C58.6,2.1,58.7,2.1,58.8,2.1z M34.1,2.5L34.1,2.5L34.1,2.5z M57.6,2.1C57.5,2,57.5,2,57.4,2c0,0,0,0,0,0.1H57.6z M20.6,2.7L20.6,2.7 L20.6,2.7z M18.8,2.9c-0.3,0.1-0.1-0.1-0.4-0.1C18.3,3,18.1,2.7,18.1,3C18,2.8,18,2.9,17.9,2.7C18,2.9,17.6,2.9,17.6,3 c-0.1-0.2,0.3-0.2,0-0.4c-0.1,0.1-0.4,0.2-0.4,0.4C17,3,17,2.9,16.8,2.9c0,0,0.1,0,0.1-0.1c-0.3,0.1-0.8,0-0.9,0.2 c0-0.1-0.1-0.1-0.2-0.1c-0.1,0-0.2,0-0.2-0.1c-0.1,0-0.1,0.2-0.1,0.2c-0.1-0.1-0.1-0.1-0.2-0.1c0,0-0.1,0.1-0.2,0 c0.1,0.1,0,0.1,0.1,0.2c0,0-0.1-0.1-0.2-0.1c0.1,0.1,0,0-0.1,0.1C15,3.2,15,3.2,15.1,3.2s0.1,0,0.2,0c-0.1,0-0.2,0-0.3,0 c0.1,0.1,0.2,0.1,0.3,0.1c0,0-0.1,0-0.1,0.1c0.1,0,0.2,0,0.1,0c0,0,0,0-0.1,0c0,0-0.1,0-0.1,0.1c0.1,0,0.2,0,0.2,0 c0,0.1,0,0.1,0,0.1s0,0.1-0.1,0.1v0.1l0,0v0.1C15.1,3.9,15.1,4,15,4c-0.1,0.1,0,0.1,0.1,0.1c0,0-0.1,0.1-0.3,0.1 c-0.2,0.1-0.5,0-0.6-0.1C14,3.7,14,3.6,14,3.6c0-0.1,0.1-0.1,0.1-0.1c0.1,0,0.2-0.1,0.2-0.2C14.1,3.2,14,3.1,13.9,3H14 c0.1-0.1,0-0.1-0.1-0.1c0.1,0,0.1-0.1,0.2-0.2c0-0.1,0.1-0.2,0.2-0.2c-0.1,0-0.1,0-0.2,0c0-0.1,0.2-0.2,0.3-0.2 c0.1-0.1,0.3-0.1,0.4-0.1c0.3,0,0.5,0.1,0.7,0c0.1-0.1,0.2-0.1,0.3-0.2L16,2.1c0.2-0.1,0.2-0.2,0.5-0.2c1,0.2,2-0.1,3,0.1 c0-0.1,0-0.1-0.1-0.1c0.9,0.4,1.3-0.4,2.1-0.1l0,0c0.4-0.1-0.1,0.1,0.2,0.1c0-0.2,0.5-0.2,0.7-0.2c0,0.1-0.1,0.1-0.2,0.1 c0,0.1,0.1,0.1,0.2,0.1c0.2-0.2,0.8-0.2,1.2-0.4c0.1,0.1,0.4,0.2,0.6,0.4c0-0.1,0.1-0.1,0.2-0.2c0.2,0.1,0.3,0,0.4-0.1 c-0.1,0-0.2,0-0.3,0l0,0c0,0,0,0-0.1,0s-0.1,0-0.1,0c-0.2-0.1,0-0.1,0-0.2c0.1,0,0.4-0.1,0.4,0.1c0.1,0,0.1,0,0.2,0.1 c0,0,0.1-0.1,0.2,0l0,0v0.1c0.3,0.1,0.6-0.2,0.8-0.2C25.8,1.6,26,1.6,26,1.7c0,0-0.2,0-0.6,0c0,0,0,0.1,0.1,0.1 c0.3,0.1,0.5-0.1,0.9-0.1l-0.1,0.1c0.1,0.1,0.3-0.1,0.3-0.1c0,0.1,0.4,0.2,0.5,0.1s0.1-0.2,0.4-0.1l-0.1,0.1 c0.3,0.1,0.2-0.1,0.5-0.1c-0.1-0.1-0.1,0.1,0,0.1c0.3-0.1,0.3-0.1,0.5-0.3v0.1c0.3-0.1,0.7-0.2,0.7-0.1c-0.1-0.3,0.6-0.2,0.8-0.2 c-0.1,0-0.1,0.1-0.1,0.1c0.5-0.2,1,0,1.4-0.1l0.1,0.2c0.3,0,0.3-0.4,0.6-0.4l-0.1,0.1c0.5-0.1,0.7-0.1,1.1,0v0.1 c0.1-0.1,0.3-0.1,0.5-0.1c0.3,0.4,1.3-0.2,1.9,0.2V1.2c0.2,0,0.5-0.1,0.6,0.1h-0.1c0,0.2,0.2,0,0.4,0.1c0.1,0,0.2-0.2,0.1-0.2 c0.6,0.1,1.5-0.1,1.9,0.2c0.6-0.1,1-0.3,1.7-0.3v0.1c0.2,0.1,0.7,0.1,0.7,0.3c0.5-0.1,0.7-0.4,1.3-0.3l-0.2,0.1 c0.1,0.1,0.4-0.1,0.4-0.1v0.1c0.1,0.1,0.2-0.1,0.3-0.1v0.1c0.5,0,1.1-0.3,1.7-0.3c-0.1,0,0,0.1,0,0.1C44.3,0.9,45,1,45.2,0.9L45.1,1 c0.5-0.2,0.4,0.2,0.9,0.1L45.7,1C45.9,1,46,1,46,0.9c0.2,0,0,0.1,0.4,0.1c0,0.1-0.2,0.1-0.1,0.1l0.5,0.2c0,0,0.1,0,0.2,0 c-0.1-0.3,0.4,0,0.1-0.3c0.6-0.1,1.2,0.2,1.8,0C49.1,1.3,50,1,50,1.4c0.3,0,0.6-0.1,0.7-0.2c-0.1,0-0.1,0-0.2,0.1 c0.1-0.1,0.5-0.1,0.6-0.1c-0.2,0.1-0.5,0.2-0.7,0.3c0.2-0.1,0.6-0.2,0.8-0.2l0.1,0.2c0.2-0.1,0.2,0.2,0.4-0.1V1.2 c0.4,0,0.4-0.2,0.8-0.2l0,0c0.1,0,0.3-0.2,0.5,0h-0.3c0,0.1,0.2,0.2,0.3,0.2c0.3,0,0.1-0.2,0.2-0.2c0.1,0.1,0,0.1-0.1,0.2 c0.3-0.1,0.7-0.1,1-0.3V1c0.3,0,0.6-0.2,0.8-0.1h-0.1C55.1,1,55.5,0.7,55.5,1c0.1,0.1-0.3,0-0.1,0.1c0.4,0.1,0.2-0.3,0.6-0.2 c0,0,0,0,0,0.1c0.2,0,0.6-0.1,0.9-0.1c0.4,0.2,1-0.1,1.4,0.2C58.2,1,58.4,1,58.4,0.9c0,0,0,0,0,0.1c0.1,0,0.2-0.1,0.2-0.1 C58.7,1,59,0.8,59.1,0.8c0-0.1,0.1-0.1,0.2-0.1c-0.2,0.1-0.1,0.1-0.2,0.2c0.4,0,0.4-0.3,0.8-0.2l0.2,0.1c0-0.2,0.4-0.1,0.4-0.2 c0.1,0.1,0.2,0.1,0.2,0.2c0.2-0.1,0.4,0.1,0.5-0.1l-0.2,0c0.5,0.1,0.8-0.2,1.1-0.1v0.3c0.3,0.1,0.5-0.2,0.7,0 c-0.1-0.1-0.1-0.1,0.1-0.2c-0.1,0-0.3,0.1-0.4,0.1l0.3-0.2l-0.5,0.1c0.2-0.1,0.2-0.1,0.1-0.2c0.3-0.1,0.4,0.1,0.6,0 c0.1,0.1,0,0.1,0.1,0.2c0.3-0.1,0.5,0.2,0.7,0.1c0.1,0-0.1,0-0.1,0.1c0.2-0.1,0.3,0,0.3-0.1h-0.2c0.1,0,0.1-0.1,0.4-0.1 c0.4,0.1,0.5-0.1,0.3-0.1c0.1,0,0.2,0.1,0.2,0.1c0.4,0,0.2-0.3,0.6-0.2c0,0-0.1,0,0,0.1c0.1,0,0.2,0,0.2,0c-0.3,0.1,0.1,0.2-0.3,0.2 c0.1,0.2,0.3,0,0.4,0.1c0.2-0.1,0-0.2,0.1-0.3c0,0.1,0.1,0.1,0.2,0.1l-0.1-0.1c0.1,0,0.2,0,0.3-0.1l-0.2,0.1c0.2,0,0.4,0.2,0.7,0.1 c-0.1,0.1-0.2,0.1,0,0.2C66.9,0.8,66.7,1,66.9,1c0.3-0.1,0-0.2,0.5-0.1c0.1,0,0-0.1-0.1-0.1c0.3,0.1,0.5-0.1,0.8,0.1 c-0.1,0-0.3-0.1-0.1-0.1c-0.1,0.1,0.3,0.1,0.4,0.1V0.6c0.1,0.1,0,0.1-0.1,0.1c0,0,0-0.1-0.1-0.1C68,0.7,68.1,1,68.4,1 c0.3-0.1,0.2-0.2,0.2-0.3c0.5,0.2,0.4-0.2,0.8-0.1c0.1,0,0.4,0.2,0.6,0.2c0.1-0.1-0.3-0.1-0.2-0.2c0.4,0.3,0.8-0.2,1.4-0.1l-0.1,0.2 c0.1,0,0.3,0,0.4,0l-0.2-0.1c0.1-0.1,0.4,0,0.3,0.1c0.3-0.1,0.3-0.1,0.6,0c-0.3,0,0,0-0.2,0.1c0.3,0.1,0.3,0,0.5,0 c0,0.1,0.1,0.1,0.2,0.1c0.2-0.1,0.5-0.1,0.8-0.2v0.1c0.4-0.1,1,0.1,1.4,0l0,0l0,0l0,0l0,0c-0.2-0.2,0.3-0.1,0.5-0.2 c0,0.1,0.1,0.1,0.1,0.1c0-0.1,0.2-0.1,0.2-0.1c0.2,0.1,0,0.2,0.3,0.2c0.1,0,0.1-0.1,0.1-0.1c0.1,0.1,0.2,0.1,0.4,0.1 c0,0.1-0.1,0-0.2,0c0,0.1,0.1,0.1,0.1,0.1c0.1,0,0-0.1,0.2-0.1L76.5,1c0.1,0,0.1,0,0.2-0.1c-0.1,0-0.1,0.1-0.1,0.2 C77,1,76.7,0.8,76.7,0.7c0.3-0.1,0.6-0.2,0.9-0.2v0.1c0.1,0,0.2-0.1,0.2-0.1L78,0.6c-0.1,0.1-0.1,0.1-0.2,0.2c0.2-0.1,0.5,0,0.6-0.2 v0.1c0.3,0.1,0.9,0.1,0.9,0.1c0.3-0.1,0.7,0,0.7-0.1c0.2-0.1,0.5,0.2,0.6,0c0.2,0.1,0,0.1,0,0.2c0.1,0.1,0.3-0.2,0.4,0 c0.2-0.1-0.1-0.1,0-0.2c0.1,0.2,0.5,0,0.7,0.2c0.1-0.1-0.1-0.1,0.1-0.2c0,0.1,0.1,0.1,0.1,0.1L82,0.6L82.3,1 c0.3-0.2-0.1-0.2,0.4-0.4l0,0c0.1,0.2,0.3-0.1,0.7,0c-0.1,0,0,0.1-0.1,0.1l0.2-0.1c0,0,0,0,0,0.1c0.2,0.1,0.1-0.1,0.3,0.1 c-0.1,0.1-0.1,0.1,0,0.2L84,0.8L83.9,1c0.3,0,0.7-0.3,0.8-0.1L84.6,1c0,0.1,0.1,0.2,0.3,0.1C85,1.1,85,1,84.9,1H85 c-0.1,0.1-0.4,0.2-0.6,0.2c0.1-0.1,0.2-0.1,0.2-0.2c-0.2,0-0.4,0.1-0.6,0.2c0.1-0.1,0.1-0.1,0.1-0.2c-0.2,0-0.1,0.2-0.3,0.2 c-0.1-0.1-0.1-0.1-0.1-0.1c-0.2,0.1-0.3,0.1-0.6,0c0,0,0.2-0.1,0.1-0.2c-0.4,0.1-0.4,0.2-0.8,0.4s-0.9-0.2-1.2,0 c0,0.1,0.3,0.1,0,0.1c0-0.1-0.1-0.1-0.1-0.1c-0.2,0.2-0.3-0.1-0.5,0.1c0-0.1-0.1-0.1-0.2-0.1c0-0.1-0.3-0.1,0.1-0.3 c-0.3,0.2-0.6-0.1-0.9,0.3l0.1,0.1l-0.3-0.1l0,0c-0.2,0-0.2,0-0.4-0.1C79.1,1,79.2,1,79.3,1c-0.2-0.1-0.4,0.1-0.6,0.1 c0-0.1,0.2-0.1,0.1-0.2c-0.1,0-0.3,0.1-0.4,0.1l0,0C78,0.9,78.3,1.3,78,1.2c0,0.1,0,0.1,0,0.1c-0.1-0.1-0.3-0.2-0.1-0.2 c-0.1,0-0.3,0.1-0.3,0.1c0.1,0.1,0.1,0.1,0.2,0.2l-0.5,0.1c-0.1,0,0-0.1,0.1-0.1c-0.6-0.3-1.2,0.3-1.9-0.1c0.1,0.1,0,0.1-0.1,0.2 c-0.2,0-0.6,0-0.8-0.1l0.1-0.2c-0.5,0.1-0.9,0.2-1.2,0.2c0,0,0-0.1,0.1-0.1C73.4,1.4,73,1,73,1.3h0.1c-0.5-0.1-1.1,0.2-1.6,0.2 c-0.1-0.2,0.3,0,0.2-0.2c-0.4-0.1-0.7,0.1-1.1,0.1c0.1,0,0-0.1,0.1-0.1c-0.4-0.1,0.1,0.2-0.3,0.1c0-0.1,0-0.1-0.1-0.1l-0.1,0.1 c0,0,0-0.1,0-0.2c-0.1,0.2-0.6,0.1-0.7,0.2c0-0.1,0-0.2,0-0.2c-0.2-0.1-0.3,0-0.4,0.1l0,0c-0.1-0.1-0.4-0.1-0.4-0.1 c-0.3-0.1,0,0.1-0.3,0.2l0.3,0.1l-0.4,0.1l0.2-0.1c-0.2-0.1-0.4,0.1-0.6,0.1H68l-0.3,0.1c0-0.2-0.3-0.1-0.2-0.2 c-0.5-0.1-0.8,0.2-1.3,0.2c0.1,0,0-0.1,0.1-0.1c-0.3-0.1-0.4,0.1-0.6,0.2c0-0.1,0.1-0.1,0.1-0.1c-0.3,0-0.2,0.1-0.5,0.2 c0.1-0.1,0.1-0.1,0-0.1c0,0.1-0.1,0.1-0.1,0.1c0.2-0.4-0.4-0.1-0.3-0.4c0,0.1-0.5,0.2-0.4,0.4h0.1C64.6,2,64.5,2,64.4,2l0.1-0.1 C64,2,63.5,2,62.9,2c0-0.1,0.3-0.1,0.1-0.1c-0.6-0.1-0.9,0.2-1.4,0.2c0-0.2,0.6-0.1,0.6-0.2C61.6,2,61,2.1,60.4,2.2 c-0.2-0.4-0.6,0.2-1-0.1c0,0.1-0.2,0.2-0.4,0.2C59.1,2,58.8,2,58.9,1.9C58.5,2,58,2.1,58,1.9c0,0.2-0.4,0-0.6,0.2 c-0.2-0.1-0.5,0.1-0.8,0c0.1,0.1-0.3,0.1-0.4,0.1l0.1-0.1C56.2,2,56,2.3,55.8,2.2c-0.1-0.1,0-0.1-0.1-0.1c0,0.1-0.5,0.2-0.6,0.1 c0.1,0,0.1-0.1,0.1-0.1c-0.8,0.2-1.7,0-2.5,0.2l0.1-0.2c-0.5-0.2-0.3,0.3-0.7,0.2c-1.1-0.1-2.3-0.2-3.4-0.1c-0.1,0.1,0,0.1,0.1,0.1 c-0.1,0-0.1-0.2-0.3-0.1v0.1c-0.5-0.2-1.4,0.2-1.8-0.2c-0.5,0.2-0.8-0.1-1.4,0.1c-0.2-0.1,0.2-0.2,0-0.2l-0.5,0.1l0,0 c-0.5,0.3-1.4-0.2-2-0.1l0,0c0-0.1-0.1-0.1-0.2-0.1c0,0.1,0,0.1,0.1,0.1c-0.6,0.1-0.7,0.1-1.2,0.2c0.2-0.1-0.2-0.1-0.2-0.2 c-0.1,0.1,0.1,0.1-0.2,0.2c-0.4,0-0.7-0.1-1.1-0.1c-0.1,0.1-0.3,0.1-0.3,0.2c-0.4,0-0.7,0.1-1.2,0.1v0.2c-0.1,0.2-0.5-0.1-0.6,0 c0-0.1,0.1-0.1,0-0.1l-0.2,0.1c0.1-0.1,0.2-0.2,0-0.2c-0.2,0.1,0.1,0.1,0,0.2l-0.1-0.2c-0.2,0-0.2,0.2,0,0.2c-0.5,0-1,0.1-1.5,0.1 V2.4c-0.3,0.1-0.6,0.1-0.8-0.1c0,0.1-0.1,0.1,0,0.1c-0.3,0.1,0-0.2-0.4,0c0.1-0.1,0.2-0.1,0.2-0.1l-0.6,0.1c0-0.1-0.4-0.2-0.7-0.2 c0,0.1,0.1,0.1,0.1,0.1l-0.2,0.1l-0.1-0.2l-0.2,0.2V2.3c-0.2,0.1-0.2,0.2-0.4,0.2c-0.6-0.1-0.5-0.1-0.9-0.3c0,0.3-0.6,0-0.7,0.2 c-0.5-0.2-1.3-0.1-2-0.1h0.1c-0.3-0.1-0.3,0.2-0.6,0.2H29c-0.4-0.1-1.1,0-1.5,0.1c0.1-0.1,0-0.1-0.1-0.1c-0.1,0.1,0.1,0.2-0.1,0.2 c0.1,0,0-0.1,0-0.1l-0.2,0.1c-0.6-0.1-1.2-0.2-1.8-0.1c-0.1-0.1,0-0.1,0-0.2c-0.5,0.1-0.9,0.2-1.3,0.2l-0.1-0.2 c-0.2,0-0.1,0.2-0.4,0.1c-0.1,0,0.2,0,0.2-0.1c-0.4-0.1-0.2,0.2-0.6,0.2l0.1-0.2c-0.3-0.1-0.3,0.1-0.4,0.2c-0.5,0.3-0.4-0.3-0.9-0.1 c-0.1,0.1,0,0.1,0,0.2C21.5,2.8,21.5,3,21,2.9c-0.2-0.3,0.2,0,0-0.2l0.3,0.1c-0.3-0.1,0.2-0.1,0.2-0.2c-0.2-0.1-0.5,0.1-0.8,0.2 c0-0.1,0.3,0,0.2-0.2l-0.1,0.1c0-0.1,0-0.1,0.1-0.1c-0.1-0.1-0.2,0-0.3,0c0,0.1,0,0.2,0.1,0.2c0,0,0,0,0-0.1 c-0.2,0.2-0.7,0.1-0.9,0.2c0-0.1,0-0.1,0-0.1c-0.2,0-0.3,0.2-0.5,0.2c-0.1-0.1,0-0.3-0.3-0.2c-0.2,0-0.1,0.2-0.3,0.2 C18.7,3,18.9,3,18.8,2.9z M25.1,2.5h0.1l0,0H25.1z M25.6,2.4c-0.1,0-0.1,0.1-0.1,0.1c0.1,0,0.2,0,0.2,0C25.7,2.4,25.6,2.4,25.6,2.4z M24.5,1.6L24.5,1.6c0.1,0,0.1-0.1,0.2-0.1c0,0,0-0.1-0.1-0.1C24.6,1.6,24.5,1.6,24.5,1.6z M24.4,1.7L24.4,1.7 C24.4,1.8,24.4,1.8,24.4,1.7C24.5,1.8,24.5,1.8,24.4,1.7C24.5,1.7,24.4,1.7,24.4,1.7z M75,0.8L75,0.8C74.9,0.8,75,0.8,75,0.8L75,0.8 z M33.5,2.6L33.5,2.6L33.5,2.6L33.5,2.6z M78,1.2C78.1,1.2,78.1,1.2,78,1.2C78.1,1.3,78.1,1.2,78,1.2z M79.4,1.2l0.2,0.1 C79.5,1.2,79.4,1.2,79.4,1.2z M80.4,1.3C80.4,1.2,80.4,1.2,80.4,1.3L80.4,1.3L80.4,1.3z M64.2,1.8L64.2,1.8 C64.1,1.8,64.1,1.8,64.2,1.8z M69,1.3c0,0-0.1,0.1-0.2,0.1C68.9,1.5,69,1.5,69,1.3z M58.8,2.1L58.8,2.1L58.8,2.1L58.8,2.1z M68.6,1.5c0.1,0,0.2,0,0.2,0C68.8,1.4,68.7,1.4,68.6,1.5z M84.8,1.2L84.8,1.2C84.9,1.2,84.9,1.2,84.8,1.2L84.8,1.2z M84.9,1.2 L84.9,1.2L84.9,1.2z M85,1.2L85,1.2L85,1.2z M83.5,1.2L83.5,1.2L83.5,1.2z M83.1,1.2c0.1,0,0.3,0.1,0.4,0.1V1.2 C83.4,1.3,83.1,1.2,83.1,1.2z M81.3,0.6l0.3,0.1c-0.1-0.1-0.1-0.1,0-0.1C81.2,0.4,81.8,0.7,81.3,0.6z M80.2,0.6c0.2,0,0-0.1,0-0.1 C80.1,0.6,80.1,0.6,80.2,0.6z M72.5,0.7L72.5,0.7C72.4,0.7,72.6,0.7,72.5,0.7z M71.1,1.5L71.1,1.5l0.2-0.1L71.1,1.5z M70.2,0.6 L70.2,0.6H70H70.2z M57.3,0.9l0.1,0.2C57.4,1,57.4,0.9,57.3,0.9z M51.7,1.2c-0.1-0.1-0.2-0.1-0.3-0.1C51.5,1.2,51.6,1.2,51.7,1.2z M34.9,1.3L34.9,1.3L34.9,1.3L34.9,1.3z" fill="#202020"/></g></svg>