<svg xmlns="http://www.w3.org/2000/svg" xmlns:xlink="http://www.w3.org/1999/xlink" preserveAspectRatio="xMidYMid meet" version="1.2" viewBox="475.5 861.3 4048.8 5793.4" zoomAndPan="magnify" style="fill: rgb(0, 0, 0);" original_string_length="15740" width="151.866328851983px" height="217.27874611991544px"><g id="__id76_sjwtgbjyie"><path d="m2671.4 862.1c274 5.3 248.3 138.1 401.6 305.2 143.5 156.4 531.2 373.7 725 476.3 93.9 49.7 206.3 87.1 282.8 163.2 102.2 101.5 136.7 387.9 163.4 528.3 25.8 135.3 55.9 270.1 78.5 406 48.3 291.2 81.9 610.7 100.2 905.4 12.7 204.4 12.5 410 17.7 614.8l27.4 952.9c2.9 102 0.3 205 5.4 306.8 1.9 37.6 7.1 39.7 34.1 63.8 10.7 29.2-0.8 61.1-4.8 91-2.4 17.8 3.1 26.4 13.9 40 2.4 3.1 5.1 6 7.7 8.9-1.7 45.6-28.2 75.6-37.4 117.8-18.8 86.8-9.7 175.1-34.3 263.2-14.6 52-14.1 89.7-10.3 142.8-139.4 9.2-282.1 35.6-421.7 25.1-1-3.5-2.1-6.9-3.1-10.4q-2.3-8.1-4.5-16.2c-30.9-105-23.7-232.9-35.9-342.9-19.2-173.7-46.2-346.4-59.8-520.8l-61.8-868c-14.9-215.5-22.7-410-56.3-625.3-7.5-47.8-10.7-103.2-29.2-147.8q1.9 31.9 3.4 63.8c1 23.3 6.7 104.4-9.1 121.7-20.6-112.1-0.1-223.5-24.3-336.4-13.7 73.4-18.1 148-31.8 221.7-10.6-105.7-13.1-213.2-18.8-319.2-121.6 314.9-153 739-95.5 1071.9 16.1 93 49.2 182.9 65.4 276 12.8 74 16.8 149.4 31.7 223.1 21.2 105.4 53.6 209.1 78 313.9q62.1 276 115.1 554c25.5 129 73.3 268.1 82.9 398.1-62.7 80.7-259 154.8-355.6 189.6-177 63.7-382.3 134.3-562.8 44.9-197.3-97.7-327.1-409.3-392-605.6l-27.7-93.2c-69 9.5-118.8 8.3-185.6-13.1-62.8 216.4-131.2 470.4-251.2 663-34.7 55.7-75.5 81.5-139.9 95-70.7 14.7-148 10-219-0.3-120-17.3-589.5-143.3-678.9-206.9-3.5-2.5-16.5-12.6-18.2-15.3-14.1-23.2 24.3-246 31.9-288.3 25.6-143 58.1-284.5 77.7-428.6 31.9-234.8 47.3-471.8 79.8-706.4 18.4-133 57.1-260.6 80.9-392.3 25.5-141.5 25.5-300.9 16.4-444.3-15-233.1-94.5-461.7-131.8-692.6-51.5 188.6-133.1 472.3-153.6 659.9-18.9 173.4-1.5 351.9-6.6 526.3-5.2 171.2-78.4 1621.7-100.2 1656.4-10.4 16.7-41.2 26.3-59.4 30.1-55.4 11.4-329.5 11.3-386.4 1.9-18.5-3-30.8-9.8-46.1-20.1-15-21.3-39.1-281.2-41.2-326.3-7.4-164.2 4.5-329.4 1.1-494-11.2-548.5-23.1-1095.6-5.6-1644.3q9.6-388.1 52.9-773.9c30.1-273.8 105.4-1121.6 273.1-1296.1 50.7-52.8 277-122.8 358.3-166.2 89.5-47.9 177.7-98.2 267.8-144.8 95.4-49.4 194.2-94.4 284.1-153.6 110.8-72.9 213.7-164.2 317.4-247.3 11.6-38.6 32.5-84.2 59.4-114.5 15.3-17.2 34.6-31.5 56.7-38.2 99.7-30.4 386.4-24.8 508.7-29.6z" style="fill: rgb(53, 80, 116);"/></g><g id="__id77_sjwtgbjyie"><path d="m4413.6 5560.4l21.5 8.4c13.1 29.6 6.7 48 2.9 79.8-6.7-4.5-11.7-7.3-17.3-13.5-16.5-18.3-9.1-52.4-7.1-74.7z" style="fill: rgb(255, 255, 255);"/></g><g id="__id78_sjwtgbjyie"><path d="m1859.6 4806.5c16.8 0.8 33.1 3.3 49.8 5.8 8.6 21.8 1 30.3-5.9 51.7-13.7 1.9-20.5-0.1-33.7-3.3-13.3-22.1-11-29.1-10.2-54.2z" style="fill: rgb(255, 255, 255);"/></g><g id="__id79_sjwtgbjyie"><path d="m2280.7 1447.6c21.4 0.4 33-0.3 51.7 11.5-3.9 23.1-14.6 28.5-30.9 44.6-11.9 1.3-21.8 0.7-33.7-0.2-7.8-18.6 5.7-37.4 12.9-55.9z" style="fill: rgb(255, 255, 255);"/></g><g id="__id80_sjwtgbjyie"><path d="m3207.2 4969.6c7.9 19.3 9 21.8 5.3 42.1-21.1 17-44.2 17.5-70 20.8-5.5-11.6-8.5-20.5-11.6-32.7 19.3-22.9 47.7-23.4 76.3-30.2z" style="fill: rgb(251, 247, 239);"/></g><g id="__id81_sjwtgbjyie"><path d="m3101.8 4804.7c22.4 1.4 40.2 0.2 57.8 16.1 4.3 24.2-1.1 32.9-9.2 55.6-23.2-0.9-34.8-1.4-52.5-17.1-5.8-21.7-1.7-33.6 3.9-54.6z" style="fill: rgb(251, 247, 239);"/></g><g id="__id82_sjwtgbjyie"><path d="m2483.8 1444.6c12.6 2.4 7.2 2.3 18.4 1.3 6.9-0.6 12.5-1.4 19.5-1.4 21.5 0 40.1 9.8 54.3 25.1l-12 10.5-18.6-8.8 0.6 9.5 8.6 42.6c-5.8 16.1-0.7 12-9.9 16.9l-8.3-2.6c-14.3-14.8-34.5-31.4-39.9-51.7-4-14.7-7.2-26.8-12.7-41.4z" style="fill: rgb(251, 247, 239);"/></g><g id="__id83_sjwtgbjyie"><path d="m861.3 6146.6c18.6-2.9 38.8-8.2 57.5-4 11.5 2.6 8.4 4 16.3 16.4l-10.3 14.4c-73 35.9-179.8 18.2-260 18.1-16.2-2-24.9-5.6-39.5-12.3l-4.3-14.7c25.1-16.1 193.9-12.9 240.3-17.9z" style="fill: rgb(251, 247, 239);"/></g><g id="__id84_sjwtgbjyie"><path d="m2862.8 1141c17.1 67 13.5 143.1 15.4 212.1-34.9-19.7-72.3-34.9-109-51.1l-37.3 1c31.3-58.1 90.5-60.9 130.9-162z" style="fill: rgb(251, 247, 239);"/></g><g id="__id85_sjwtgbjyie"><path d="m3223.6 2513.8c2.2 1.1 4.6 1.9 6.7 3.2 38.1 24.2 45.7 115.1 54 157.5 0.1-41.6-8.6-81.9 1.2-122.9l11.1 1.2c30.4 47.1 37.4 110.7 70.2 153l10.1-7.2c2.3-30.9-8.5-58.3-17.5-87.5 44.6 23.8 73.5 76.3 101 117-52.2 5-105.7 4.3-158.2 5.3-23.6-73.3-69.9-142.4-78.6-219.6z" style="fill: rgb(251, 247, 239);"/></g><g id="__id86_sjwtgbjyie"><path d="m4367.2 6153.6c21.8-2 27.4-6 47.2 4.7 3.8 20.5 6.6 31.8 1.9 52.8-47.8 29.3-240.7 8.4-308.4 13.1-26.8-4.7-46.6-4.1-68.1-21.5l1.8-15c86.3-40.6 229.9-25.9 325.6-34.1z" style="fill: rgb(251, 247, 239);"/></g><g id="__id87_sjwtgbjyie"><path d="m1002.7 6185.1c15.5 15.1 11.5 69.1 12.9 92.3-130.8 16.2-342 31.4-470.4 2.8-3.1-27.3-3.8-47.5 2.6-74.3 3.8-2.8 6.8-7.1 11.3-8.4 8.8-2.6 43.4 5.9 55.5 7.5 130.7 17.3 264.6 36.3 388.1-19.9z" style="fill: rgb(251, 247, 239);"/></g><g id="__id88_sjwtgbjyie"><path d="m3432.5 4734.7l14.4 11.8 5-7.6c-5.4-26.2-8.5-30.7 2.4-56.2 21.6-19.4 44.4-23.7 71.7-30.7-3 10.4-7.1 19-11.7 28.7l9 15.1c32.2 7.6 37.7-22.1 64.7-2.4 24 52.6 34.3 117.4 41.9 174.6-124.5 47.1-246.6 103.3-376.3 134.4l-18.2-67.5c-5.6-20.2-6.2-32.3-1.7-52.8 2.7-2.4 5.3-4.7 8-7.1 8.4-7.9 14.8-15.4 21.6-24.6-1.9-37.1-19.8-52.3-45-77.6l11 12.9-9.5-15.9 25-16.4 12.3 4.1 11.9 31.8c22.8-18.6 7.3-43.2 34.8-54.1 14.6 17.4 28.3 43.6 51 46.5-5.5-18.7-10.5-36.2-13.2-55.4 26.5 8 40.6 27.3 62.9 41.7-6.2-13.3-19-24.8-23.8-38.6-6.5-18.6 0-25.1 8.8-40.7 17.3 1 11.9-1.4 25.6 6.7 13.7 8.3 13.5 24.3 17.4 39.3z" style="fill: rgb(251, 247, 239);"/></g><g id="__id89_sjwtgbjyie"><path d="m1439.2 4645.2l55.5 56.3c18.8 4 11.5 3.6 30 3 36.8-1.3 62.1 71.7 110.3 93l9.5-4.7c-2.4-20.7-5-32.3 2.1-52.6l31.6 3.5c22.3 16.1 22.2 21.9 31.2 47 22.7 11.3 25.9-19.3 81.1-3.2 22.7 6.7 46.6 10.9 58.3 32.3-18.8 17.9-37.3 34.1-44.5 60.1-5.1 18.7-4.2 40.8 4.8 57.9 4.7-26.5 9.5-52.7 16.2-78.8 11 11.4 10.9 35.6 13.7 51.3 0.2 20.9 1 38.5 8.1 58.4 7 19.5 5.6 9.8 5.8 27.6-16.2-10.9-28.6-19.9-47.5-26.1 7.4 27.4 26.6 48.8 43.3 71.2-175.7-28.7-312.7-100.3-465.8-186.5 16.3-71 34.3-140.3 56.3-209.7z" style="fill: rgb(251, 247, 239);"/></g><g id="__id90_sjwtgbjyie"><path d="m2473.1 895.2c88.6-9.9 231.6-23.5 314 8.8 28.8 11.3 50.4 28.7 60.6 59.1 6.9 20.7 3.1 49.8-8.2 68.1-30.4 49.1-102.8 78.7-156.9 93.7-55.5 15.4-208.3 22.4-256.9-11.2-10.2-7-9.1-14.6-11.7-25.7 10.2-15.8 12.2-17.3 29.3-25.3 8.8 10.5 16.9 18.3 28 26.4l27.5-15c15.5 2 30 1.9 45.6 1.8l-4.8-8.1c-14.7-4-29.4-8.2-44.3-11.4-30.5-6.5-52.2-7.8-79.4 9.2-9.3 18-15.8 34.8-34.1 45.4-17 0.3-27.6-1.5-44-7.1-49.6-17-166.8-62.3-189.2-109.6l11.1-20.2-39.7 10.8-5.3-8.1c4.8-8.1 8.2-14.6 14.6-22 55.9-64.4 263.5-54 343.8-59.6z" style="fill: rgb(251, 247, 239);"/></g><g id="__id91_sjwtgbjyie"><path d="m2085.3 1020.3c79.8 53.3 169.5 104 259.6 137.7 171.6 64.3 333.5 20.2 494.4-52.3-79.7 141.3-170.7 216.9-323.9 273.6-51.8-95.1-114.3-38.1-199.4-66.7-23.8-8-46.2-12.5-70.9-16.5-27.1 14.9-63.4 43.4-93.7 45.7 15.5-13.9 33.9-26.2 39.1-47.3l-14.6 1.9c-20.2 13.5-30.2 21.5-38.1 45.2-37.9 114.4 18.2 343.4 70.7 450.1 59-51 117.2-91.5 163.2-155.7-42.3 175.6-27.4 364.8-29.3 545.3q-7.2 375.2-0.7 750.4c2.3 137.5 16.8 281.4 2.2 418.1-27.5-226.9-87.2-453.8-127.2-679.1-36.3-204.7-52.4-410.8-76-617-43.2-377.4-85.5-647.2-55.4-1033.4z" style="fill: rgb(251, 247, 239);"/></g><g id="__id92_sjwtgbjyie"><path d="m2859.7 1520.4c-7.6-25.2-8.6-28.7-1.7-53.9 2.5-1.9 16.1-5.6 19.3-6.6 11.9 29.8 8.1 64.5 9.5 96.4 7.4 316.4 7.5 643.5-31.3 958.1-23.7 192.4-66.8 384.5-104.5 574.6-39.5 198.8-78.9 398.1-151.9 587.8 37.2-311.5 16.1-627.9 14.8-940.9-1.5-363.8 9.1-726.3-9.6-1089.9 60.3 21.1 174.4 85.2 233.9 59.7 36.4-49.4 23.1-126.4 21.5-185.3z" style="fill: rgb(251, 247, 239);"/></g><g id="__id93_sjwtgbjyie"><path d="m2465.7 1599.3c35.9 3.7 81.3 4.1 110.3 28.2 10.9 9.1 12 16.8 13.9 30.8 10.3 72.2 6 151 6.8 224q3.5 237-1.1 473.9c-4.1 278.7 0.3 556.6 4.3 835.2 1.6 116-5.3 710.1-79.2 786.1-67.9-176.4-123.1-406.9-145.9-594.6-21.3-174.8-17.5-354.8-19.3-530.8-1.5-155.2-7.4-310.6-6.3-465.8 1.5-224.3 10.9-447.4 7.1-672 29.4-50.2 60.8-82.9 109.4-115z" style="fill: rgb(251, 247, 239);"/></g><g id="__id94_sjwtgbjyie"><path d="m2489.6 3428.6c7.8 1.7 22.7 3.9 29.9 8.3 20.5 12.7 22.2 20.4 28.2 42-4.3 29.6-17.3 45.4-35.3 68.7-7.4-2.4-17.4-5.3-23.7-9.6-16.3-11.1-27.5-26.1-28.9-46.1-1.7-25 15.5-44.9 29.8-63.3z" style="fill: rgb(53, 80, 116);"/></g><g id="__id95_sjwtgbjyie"><path d="m2446.7 1938.2c10-0.1 20-0.2 29.8 0.4 25.9 1.4 39.3 8.8 56.2 27.7 6.5 26.6-0.5 40.5-10.8 64.4-7.2 2.2-22.1 8.2-30.3 7.8-17.2-0.9-31.5-6.1-40.5-21.4-13.3-22.5-7.1-54.2-4.4-78.9z" style="fill: rgb(53, 80, 116);"/></g><g id="__id96_sjwtgbjyie"><path d="m2473.4 2927.9c12.8 3 32.7 6.9 43.4 15.1 16.6 12.5 26.1 26.6 26.5 48 0.4 25.6-18.3 45.3-33.9 63.3-15.4-2-32.6-6.6-45-16.6-9.8-8-17.6-19-19.8-31.5-5.7-33 10.4-53.5 28.8-78.3z" style="fill: rgb(53, 80, 116);"/></g><g id="__id97_sjwtgbjyie"><path d="m2874.6 956.8c30.9 32.7 57.8 84.2 80 123.6 9.8 17.5 31.7 48.5 26.3 67.4-18.3 5.5-35.5 8.1-47.2 24.4 27.5 44.6 144.9 69.4 195.2 97.8 3 1.6 5.9 3.4 8.9 5.1 27.3 91.8 18.7 187.5 72.4 268.7l7.4 11.1c-15.7 25.6-74.2 48.3-101.3 66.1l-2.1 10.7c64.6 61.6 172.5 84.5 248.2 135.6l10 6.8c-132.1 294.1-248.7 604-336.2 914.7-50.6 179.4-81.3 364.9-133.5 543.8-30.8 105.5-77.9 208.5-119.5 310.3-54.5 145.5-123.5 292.2-195.1 430.2-8.5-16 5.6-40.9 11.1-58 122.5-382.9 196.7-788.7 257.2-1185.5 15.2-100.2 38.3-200.9 46.5-301.9 27-328.8 16.9-661.6 7-991-4.6-153.2 13.3-334.9-35.3-479.9z" style="fill: rgb(251, 247, 239);"/></g><g id="__id98_sjwtgbjyie"><path d="m2039.3 1081.8c-0.7 60.9-69.2 110.8-70.7 169.6l11.6-4.7-10.4-12.6-4.7 13.6 5.3 2.4c28.3-34.3 46.7-74.6 66.9-114-8.4 89.3 3.7 182.5 10.1 271.8 12.9 180.5 29.7 357.3 52.6 536.7 20.4 160.2 27.8 322.2 44.9 482.9 15.9 150.3 42.4 299.3 70.5 447.7 50.2 264.3 101 532.6 164.6 794 33.3 136.7 82.8 268.3 109.3 406.8-58.9-122.9-102.8-254.8-150.8-382.3-89.5-237.7-160.6-480.5-246.4-719.1q-110.9-309.3-249.4-607.2-138.5-298-303.5-582.1c52.5-31.6 224.3-100.4 253-142.5 7.8-11.6 3.8-18.3 2.2-31.2-23.2-29-61.2-39.1-94.7-52.7 49.6-138.5 39-223.2 155-328.2l9.6 1.7 2.1 49.6 8.8 4.2c40.4-91.7 88.7-140.8 164.1-204.4z" style="fill: rgb(251, 247, 239);"/></g><g id="__id99_sjwtgbjyie"><path d="m988.1 5421c9.4 60.1 17.4 117.8 16.9 178.7l-4-21.3c-3.1 113.8 35.7 434.1 10.9 510.4-49.9 23.3-380.5 64.1-431.8 47.4-21.6-7-36.8-17.1-46.7-38.2-15.5-33.1-14.1-112.2-3.3-147.1 4.9-15.8 1-10.3 15.1-18.3 28.9 21.8 15.9 77.3 50.2 106 14-33.8-12.8-38.7-12.8-67.7 0-47.2 40.6-76.1 20.6-130-18.8-8-33.1-15.7-49.2-28.3l-0.6-14.5 15.7-6.2 25.7 19.8 11.5-9c5.7-31.7 7.3-63.3-10.5-91.8-7.9-12.7-11-9.6-24.4-11.6-17.4 11.9-23.7 14.6-32.8 33.4l7.9 8.5 28.1-16.3c10.1 17.2 6.5 16.3 2.5 34.7l-15.2 9.5c-20.9-9-24.2-9.9-32.9-32.7-13.5-35.1-11-354.1-13-413.1-12.4-366-12.3-729.6-8-1095.6 3.2-271.7 5.3-545.2 27.4-816.1 23.1-283.8 70.1-563.2 110.2-844.8 34-239.5 59.6-518.3 155.5-740.6 10.4-24.1 20.1-46.4 45.8-56.6 21.7 14.5 24.1 47.9 34.9 70.8 147.1 313.1 269 645 341.2 984.2 11.4 53.8-14.1 102.1-13.8 155.6 0.5 72.5 28.5 149.3 47.8 218.9 22 80 21.2 197.3-16.3 273.4-7 14.1-8.7 17.8-22.9 22.9 0.4-31.2 6.2-55.1 20.9-82.5 27.1-50.3 6.5-142.7-10.6-195.8-0.9-3.1-2.3-6.1-3.5-9.1-52.6 87.4-22.9 270.7-54.9 381q-0.9-19-1.6-38c-18.4 67.6-35.5 136.9-61 202.3-31.9 81.9-73.7 159.7-105.7 241.7l8.3 10.8c11.9-74.2 73.3-153.7 112.7-218.2-8 59.3-17 117.6-36.4 174.4-5.3 15.5-30.4 66.1-29.1 79.5 0.4 4.7 3 9 4.6 13.5 26.6-23.5 48.6-93.9 69.1-127.5l5.4-8.7c-34.4 179.3-71 358.9-99.2 539.2 22.7-49.5 30.4-104.8 41-157.9-1.6 218.1 23.8 437.4-1.4 655.3q-16.8-51.3-35.8-101.7l-6.7 2.2c1.8 53.9 54.5 163.6 34.6 209.5-16.2-23.7-18.2-54.5-22.8-82.3l12.6 7.1-20.4 14.6c1.1 14.9 0.2 10.7 2.8 22.7 14.3 65.8 30.3 145.2 14.9 212.1-6.7-12.2-13.1-24.2-18.8-36.9l-4.5-10.3c-24.4 105.8-0.2 301 16 410.5q-28.4-91.5-60.2-181.9z" style="fill: rgb(251, 247, 239);"/></g><g id="__id100_sjwtgbjyie"><path d="m3166.2 1299.2c224.4 118.4 422.9 273.2 653.8 383.4 49.2 23.5 170.2 64 193.5 114.6 5.6 79.9-49.8 175.9-58.3 259.3 50.2-54.3 62.6-180.1 90.8-250.9 24 25.1 47.1 49.3 62 81.1 57.4 121.9 73.8 266.9 99.7 398 30.8 156.2 66.4 310.7 91.1 468.2 37 235.7 58 477.2 78.6 714.9 13.1 151 30.6 310.6 26.8 461.8-0.6 26.1 2.6 32-15.2 50.9-20 2.9-74-3.3-84.1 7 16.7 17.6 51.2 10.3 75.9 16.8-7.8 11.1-65.1 54.7-64.9 60.8 29.7-7.1 59.9-26 85.4-42.7 6.9 113.7 17.4 228 21.1 341.8 3.2 96.4 25.3 1161.3 23.4 1165.7-2.8 6.4-8.8 10.9-13.2 16.4-13.6 4.3-33.4 6-39.8 19.5-11.5 24.1-16.4 70.5-6.1 95.5 21.5 14.5 37.7 20.4 45.8 46.9 5.6 18.2 2.4 34.3-5.1 50.8l-13.9-3.7c-9-16.7-15.6-32.5-21.7-50.5l-9.2 3.7c-23.7 87.1 137.3 295.4 53.1 355.5-58.5 41.7-165.6 11.2-231.8 34.2-3.7 14.2-4 20.3-3.1 34.4-16.9 8.5-8.1 6.8-26.1 5.5l-4.2-11 16.7-22.5c-27.7-23.8-125-11.5-161.5-10.5-23.9-156.9-47.5-320.7-56.9-479.2-5.2-86.3-1.1-173.2-8-259.3-17.5-217.6-47-434-62.5-652.2-11.5-160.4-10.1-319.5-17-479.5-2.8-65.8-35.5-158-22.9-218.2l10.3-5 39.1 20.5c-5-62.2-94.9-271.7-119.5-361-24.7-89.5-31.8-192-44.1-284.5-3.6-26.3-14.1-209.8-20-217.7l-14.1 19.5c-18.1-114.9 66.7-313.1 62.4-345.2-63.4 66.7-89.2 282.7-94.9 375.3-61.1 70.6-96.3 193.3-130.9 281.2 44.3-51.4 70.9-123.9 98.7-185.3-17.6 79.4-119.1 341.7-117.9 344.2 39.6-65.9 68.8-137.2 106-204.4-25.5 111.3-48.2 225.1-81.4 334.3-33.7 111.2-106.3 229.7-110.7 345.5l3.5 5.3 3.3-9.9c18.3-53.6 45-115.8 73-165.1-29.9 123-75.4 242.1-96.1 367.1-0.5 3-1.1 5.9-1.6 8.9 43.9-68.7 75.5-146 107.7-220.8 6.2 169.4 26.1 339 28.6 508.4-85 24.6-488.2 131.6-530.2 190.3-21.5 70.5 22.1 138.3 33.5 208.8 29.3 29.3 56.5 39.1 98.2 39.2 120.9 0.1 355.5-108.3 474.8-154.9 43 444.4 158.8 981.5 306.5 1403.8-144.8 121.8-560.7 299.2-757.1 278.2-111.8-12-203-94.5-268.1-180.7-183.5-242.5-333.4-673.2-383.8-977.3-16.7-100.5-22.2-207.4-27.7-309.1-4.9-89-4-391.3-34.3-448.9l24.9 522.7c4.4 87 17.7 179.1 11.3 266-12.8 174.6-163.1 645.9-239.3 814.4-36.8 81.2-84.3 168.2-143.5 235.3-62 70.3-132.1 84.3-221.8 87.8-173.7 6.8-308.8-65.9-465.4-130.3-65-26.7-133.5-48.7-195.5-81.7 59.6 10.5 116.7 23.6 174.7 40.7-24.8-15.7-50.2-32.2-76.9-44.7-22.7-10.6-143-42.3-148.9-56.5l2.7-5.5 3.8-11.9c18 6 33.9 12.8 50.7 21.6l9.9-3.6-2.3-11.4c-27.2-15.8-58.7-29.7-77.2-55.9-17.4-77.6 80.8-484.6 97.3-592.6 38.1-250.9 44.9-530.3 94.2-774.4 149.8 80.7 271.9 132.1 436.4 176.9 46.6 12.7 92.8 30 141.5 29.4 17.8-10 20.2-11 25.8-31.9 20.7-76.7 9-177.2 7.9-256.7-185.8-37-371.2-98.2-537.2-190.2 7-80.9 6-164.2 22.7-243.5 3.1-14.9 5.1-74.3 11.6-81.1 12.3 22.4 24.4 51.1 43.3 68.2l3.9-7-19.9-50.6c-13.8-12.6-23.8-25.3-29.8-43.3-28.5-86-29-241.7-57.8-349.9 50.5 106 79.5 221.2 124.3 329.7-5.6-94.4-51.5-200.1-79.1-290.5-27.6-90.1-49.6-179.1-66.4-271.8 51.5 91.9 84 195.3 140.9 283.8l3.6-3.5c-60.2-147.1-150.4-290.9-188-444.9 22.2 36.4 47.1 70.6 72.1 105.1l5.4-12.1c6.8 17.6 5.6 10.1 6.6 21.9-8-42.9-49.3-83.9-66.8-125.1-25-58.9-33.4-127.8-52.5-189.2-22.7-73-51.9-143.7-73.1-217.4-44-152.8 24.9-224.7-2.4-333.4-59.5-236.6-153.8-478.8-248.4-703.4-40.5-96.1-93.2-191.6-127-289.8q-1.3-4-2.7-8.1c209.7-88.6 377.6-176.5 577-280 99.7-51.8 201.7-99.3 298.5-156.4-28.7 82.6-52.2 167.5-77.5 251.3 7.4 24.5 23.9 46.5 37.4 68.2l-215.1 133.8c66.6 89.5 128.6 197.2 171.8 299.6 25.8 61 42 139.9 79.5 193.6l5.5-2.6c109.7 206.9 207.9 436.9 281.8 659.3-36-58.6-68.6-129.9-113.7-181.2 29.9 82.8 88 153.7 121.6 236 58.2 143.2 105 290.7 158.5 435.6 44.2 119.8 95.5 237.1 145.5 354.7l-61.2-86.2c59.9 159.9 165.7 297.4 235 453.1-21.9 83.5-74.3 235.1-48.9 317.1 5.9 19.1 16.7 38.6 36.1 46.4 34 13.8 63.9-1.7 94.7-16.6-0.9-4.2-1.8-8.4-2.6-12.7-5.9-32.7-9.5-72.2-32-98.8-37.5-44.5-40.3 0.7-74.7-3.1-4.3-161.7 323.9-808.1 399-1021.2 72.9-206.9 125.8-425.1 190.4-635.2 151.3 59.7 490.1 72 635.1 10.1 17.4-7.5 18.6-7.1 25.7-25.3-4.8 0.8-9.7 1.1-14.4 2.5-17.1 5.2-25.9 13.5-44.6 11.4-40.3-4.5-83.7 16.9-117.7 10.3-12.9-2.5-20.2-23.2-26.7-34.1l-13.6 21.6-11.7 0.8-10.7-16.5 11.6-22.8c-4.4-26.2-21.1-46.5-39.7-65.2-52.1-52.2-157.2-104.6-230.1-103.8-17.2 0.2-27.6-0.7-43.5-8.4-5-2.5-9.9-5.2-14.9-7.8 17.7 79.7 66.9 166.7 95.5 244.5-67.6-7.9-129.5-25-192.9-49.5 16.3-73.8 47.5-145.1 74.2-215.7 18.7-48.5 35.4-109 66.7-150.3 4.7-0.8 9.4-1.3 14-2.2 14.5-2.6 20.4-4.5 32.1-12.6l4.9-18.9-12.7-4.7-17.3 22.9-11.7-4.6c-1-80.7 149.4-444.4 203.9-511.4-77.5-48.6-164.2-89.3-238.8-141.2q58.9-46.3 118.5-91.8l-96.5-25c-15.6-75.5-30.4-151.3-50.3-225.8z" style="fill: rgb(251, 247, 239);"/></g></svg>